G04 #@! TF.GenerationSoftware,KiCad,Pcbnew,(5.1.5-0-10_14)*
G04 #@! TF.CreationDate,2020-01-23T13:01:27-08:00*
G04 #@! TF.ProjectId,FaceplateBoardNoParts,46616365-706c-4617-9465-426f6172644e,rev?*
G04 #@! TF.SameCoordinates,Original*
G04 #@! TF.FileFunction,Legend,Bot*
G04 #@! TF.FilePolarity,Positive*
%FSLAX46Y46*%
G04 Gerber Fmt 4.6, Leading zero omitted, Abs format (unit mm)*
G04 Created by KiCad (PCBNEW (5.1.5-0-10_14)) date 2020-01-23 13:01:27*
%MOMM*%
%LPD*%
G04 APERTURE LIST*
%ADD10C,0.150000*%
G04 APERTURE END LIST*
D10*
X150640534Y-84409545D02*
X150497677Y-84457164D01*
X150450058Y-84504783D01*
X150402439Y-84600021D01*
X150402439Y-84742878D01*
X150450058Y-84838116D01*
X150497677Y-84885735D01*
X150592915Y-84933354D01*
X150973867Y-84933354D01*
X150973867Y-83933354D01*
X150640534Y-83933354D01*
X150545296Y-83980974D01*
X150497677Y-84028593D01*
X150450058Y-84123831D01*
X150450058Y-84219069D01*
X150497677Y-84314307D01*
X150545296Y-84361926D01*
X150640534Y-84409545D01*
X150973867Y-84409545D01*
X150069106Y-84266688D02*
X149831010Y-84933354D01*
X149592915Y-84266688D02*
X149831010Y-84933354D01*
X149926248Y-85171450D01*
X149973867Y-85219069D01*
X150069106Y-85266688D01*
X147973867Y-84933354D02*
X148450058Y-84933354D01*
X148450058Y-83933354D01*
X147640534Y-84933354D02*
X147640534Y-84266688D01*
X147640534Y-83933354D02*
X147688153Y-83980974D01*
X147640534Y-84028593D01*
X147592915Y-83980974D01*
X147640534Y-83933354D01*
X147640534Y-84028593D01*
X146735772Y-84266688D02*
X146735772Y-85076212D01*
X146783391Y-85171450D01*
X146831010Y-85219069D01*
X146926248Y-85266688D01*
X147069106Y-85266688D01*
X147164344Y-85219069D01*
X146735772Y-84885735D02*
X146831010Y-84933354D01*
X147021487Y-84933354D01*
X147116725Y-84885735D01*
X147164344Y-84838116D01*
X147211963Y-84742878D01*
X147211963Y-84457164D01*
X147164344Y-84361926D01*
X147116725Y-84314307D01*
X147021487Y-84266688D01*
X146831010Y-84266688D01*
X146735772Y-84314307D01*
X146259582Y-84933354D02*
X146259582Y-83933354D01*
X145831010Y-84933354D02*
X145831010Y-84409545D01*
X145878629Y-84314307D01*
X145973867Y-84266688D01*
X146116725Y-84266688D01*
X146211963Y-84314307D01*
X146259582Y-84361926D01*
X145497677Y-84266688D02*
X145116725Y-84266688D01*
X145354820Y-83933354D02*
X145354820Y-84790497D01*
X145307201Y-84885735D01*
X145211963Y-84933354D01*
X145116725Y-84933354D01*
X143592915Y-84933354D02*
X143592915Y-84409545D01*
X143640534Y-84314307D01*
X143735772Y-84266688D01*
X143926248Y-84266688D01*
X144021487Y-84314307D01*
X143592915Y-84885735D02*
X143688153Y-84933354D01*
X143926248Y-84933354D01*
X144021487Y-84885735D01*
X144069106Y-84790497D01*
X144069106Y-84695259D01*
X144021487Y-84600021D01*
X143926248Y-84552402D01*
X143688153Y-84552402D01*
X143592915Y-84504783D01*
X143259582Y-84266688D02*
X142878629Y-84266688D01*
X143116725Y-83933354D02*
X143116725Y-84790497D01*
X143069106Y-84885735D01*
X142973867Y-84933354D01*
X142878629Y-84933354D01*
X141783391Y-84933354D02*
X141783391Y-83933354D01*
X141402439Y-83933354D01*
X141307201Y-83980974D01*
X141259582Y-84028593D01*
X141211963Y-84123831D01*
X141211963Y-84266688D01*
X141259582Y-84361926D01*
X141307201Y-84409545D01*
X141402439Y-84457164D01*
X141783391Y-84457164D01*
X140640534Y-84933354D02*
X140735772Y-84885735D01*
X140783391Y-84790497D01*
X140783391Y-83933354D01*
X139831010Y-84933354D02*
X139831010Y-84409545D01*
X139878629Y-84314307D01*
X139973867Y-84266688D01*
X140164344Y-84266688D01*
X140259582Y-84314307D01*
X139831010Y-84885735D02*
X139926248Y-84933354D01*
X140164344Y-84933354D01*
X140259582Y-84885735D01*
X140307201Y-84790497D01*
X140307201Y-84695259D01*
X140259582Y-84600021D01*
X140164344Y-84552402D01*
X139926248Y-84552402D01*
X139831010Y-84504783D01*
X139450058Y-84266688D02*
X139211963Y-84933354D01*
X138973867Y-84266688D02*
X139211963Y-84933354D01*
X139307201Y-85171450D01*
X139354820Y-85219069D01*
X139450058Y-85266688D01*
X148164344Y-86711354D02*
X148497677Y-86235164D01*
X148735772Y-86711354D02*
X148735772Y-85711354D01*
X148354820Y-85711354D01*
X148259582Y-85758974D01*
X148211963Y-85806593D01*
X148164344Y-85901831D01*
X148164344Y-86044688D01*
X148211963Y-86139926D01*
X148259582Y-86187545D01*
X148354820Y-86235164D01*
X148735772Y-86235164D01*
X147354820Y-86663735D02*
X147450058Y-86711354D01*
X147640534Y-86711354D01*
X147735772Y-86663735D01*
X147783391Y-86568497D01*
X147783391Y-86187545D01*
X147735772Y-86092307D01*
X147640534Y-86044688D01*
X147450058Y-86044688D01*
X147354820Y-86092307D01*
X147307201Y-86187545D01*
X147307201Y-86282783D01*
X147783391Y-86378021D01*
X146973867Y-86044688D02*
X146735772Y-86711354D01*
X146497677Y-86044688D01*
X146116725Y-86711354D02*
X146116725Y-86044688D01*
X146116725Y-85711354D02*
X146164344Y-85758974D01*
X146116725Y-85806593D01*
X146069106Y-85758974D01*
X146116725Y-85711354D01*
X146116725Y-85806593D01*
X145688153Y-86663735D02*
X145592915Y-86711354D01*
X145402439Y-86711354D01*
X145307201Y-86663735D01*
X145259582Y-86568497D01*
X145259582Y-86520878D01*
X145307201Y-86425640D01*
X145402439Y-86378021D01*
X145545296Y-86378021D01*
X145640534Y-86330402D01*
X145688153Y-86235164D01*
X145688153Y-86187545D01*
X145640534Y-86092307D01*
X145545296Y-86044688D01*
X145402439Y-86044688D01*
X145307201Y-86092307D01*
X144831010Y-86711354D02*
X144831010Y-86044688D01*
X144831010Y-85711354D02*
X144878629Y-85758974D01*
X144831010Y-85806593D01*
X144783391Y-85758974D01*
X144831010Y-85711354D01*
X144831010Y-85806593D01*
X144211963Y-86711354D02*
X144307201Y-86663735D01*
X144354820Y-86616116D01*
X144402439Y-86520878D01*
X144402439Y-86235164D01*
X144354820Y-86139926D01*
X144307201Y-86092307D01*
X144211963Y-86044688D01*
X144069106Y-86044688D01*
X143973867Y-86092307D01*
X143926248Y-86139926D01*
X143878629Y-86235164D01*
X143878629Y-86520878D01*
X143926248Y-86616116D01*
X143973867Y-86663735D01*
X144069106Y-86711354D01*
X144211963Y-86711354D01*
X143450058Y-86044688D02*
X143450058Y-86711354D01*
X143450058Y-86139926D02*
X143402439Y-86092307D01*
X143307201Y-86044688D01*
X143164344Y-86044688D01*
X143069106Y-86092307D01*
X143021487Y-86187545D01*
X143021487Y-86711354D01*
X141831010Y-85806593D02*
X141783391Y-85758974D01*
X141688153Y-85711354D01*
X141450058Y-85711354D01*
X141354820Y-85758974D01*
X141307201Y-85806593D01*
X141259582Y-85901831D01*
X141259582Y-85997069D01*
X141307201Y-86139926D01*
X141878629Y-86711354D01*
X141259582Y-86711354D01*
X149640534Y-118223354D02*
X149640534Y-118937640D01*
X149688153Y-119080497D01*
X149783391Y-119175735D01*
X149926248Y-119223354D01*
X150021487Y-119223354D01*
X148688153Y-119223354D02*
X149164344Y-119223354D01*
X149164344Y-118223354D01*
X147783391Y-119128116D02*
X147831010Y-119175735D01*
X147973867Y-119223354D01*
X148069106Y-119223354D01*
X148211963Y-119175735D01*
X148307201Y-119080497D01*
X148354820Y-118985259D01*
X148402439Y-118794783D01*
X148402439Y-118651926D01*
X148354820Y-118461450D01*
X148307201Y-118366212D01*
X148211963Y-118270974D01*
X148069106Y-118223354D01*
X147973867Y-118223354D01*
X147831010Y-118270974D01*
X147783391Y-118318593D01*
X147069106Y-118223354D02*
X147069106Y-118937640D01*
X147116725Y-119080497D01*
X147211963Y-119175735D01*
X147354820Y-119223354D01*
X147450058Y-119223354D01*
X146116725Y-119223354D02*
X146592915Y-119223354D01*
X146592915Y-118223354D01*
X145211963Y-119128116D02*
X145259582Y-119175735D01*
X145402439Y-119223354D01*
X145497677Y-119223354D01*
X145640534Y-119175735D01*
X145735772Y-119080497D01*
X145783391Y-118985259D01*
X145831010Y-118794783D01*
X145831010Y-118651926D01*
X145783391Y-118461450D01*
X145735772Y-118366212D01*
X145640534Y-118270974D01*
X145497677Y-118223354D01*
X145402439Y-118223354D01*
X145259582Y-118270974D01*
X145211963Y-118318593D01*
X144497677Y-118223354D02*
X144497677Y-118937640D01*
X144545296Y-119080497D01*
X144640534Y-119175735D01*
X144783391Y-119223354D01*
X144878629Y-119223354D01*
X143545296Y-119223354D02*
X144021487Y-119223354D01*
X144021487Y-118223354D01*
X142640534Y-119128116D02*
X142688153Y-119175735D01*
X142831010Y-119223354D01*
X142926248Y-119223354D01*
X143069106Y-119175735D01*
X143164344Y-119080497D01*
X143211963Y-118985259D01*
X143259582Y-118794783D01*
X143259582Y-118651926D01*
X143211963Y-118461450D01*
X143164344Y-118366212D01*
X143069106Y-118270974D01*
X142926248Y-118223354D01*
X142831010Y-118223354D01*
X142688153Y-118270974D01*
X142640534Y-118318593D01*
X141926248Y-118223354D02*
X141926248Y-118937640D01*
X141973867Y-119080497D01*
X142069106Y-119175735D01*
X142211963Y-119223354D01*
X142307201Y-119223354D01*
X140973867Y-119223354D02*
X141450058Y-119223354D01*
X141450058Y-118223354D01*
X140069106Y-119128116D02*
X140116725Y-119175735D01*
X140259582Y-119223354D01*
X140354820Y-119223354D01*
X140497677Y-119175735D01*
X140592915Y-119080497D01*
X140640534Y-118985259D01*
X140688153Y-118794783D01*
X140688153Y-118651926D01*
X140640534Y-118461450D01*
X140592915Y-118366212D01*
X140497677Y-118270974D01*
X140354820Y-118223354D01*
X140259582Y-118223354D01*
X140116725Y-118270974D01*
X140069106Y-118318593D01*
M02*
