G04 #@! TF.GenerationSoftware,KiCad,Pcbnew,(5.1.5-0-10_14)*
G04 #@! TF.CreationDate,2020-01-23T13:01:27-08:00*
G04 #@! TF.ProjectId,FaceplateBoardNoParts,46616365-706c-4617-9465-426f6172644e,rev?*
G04 #@! TF.SameCoordinates,Original*
G04 #@! TF.FileFunction,Legend,Top*
G04 #@! TF.FilePolarity,Positive*
%FSLAX46Y46*%
G04 Gerber Fmt 4.6, Leading zero omitted, Abs format (unit mm)*
G04 Created by KiCad (PCBNEW (5.1.5-0-10_14)) date 2020-01-23 13:01:27*
%MOMM*%
%LPD*%
G04 APERTURE LIST*
%ADD10C,0.200000*%
%ADD11C,0.400000*%
G04 APERTURE END LIST*
D10*
X130266344Y-134295545D02*
X129816344Y-134295545D01*
X129816344Y-135002688D02*
X129816344Y-133652688D01*
X130459201Y-133652688D01*
X131166344Y-135002688D02*
X131037772Y-134938402D01*
X130973487Y-134874116D01*
X130909201Y-134745545D01*
X130909201Y-134359831D01*
X130973487Y-134231259D01*
X131037772Y-134166974D01*
X131166344Y-134102688D01*
X131359201Y-134102688D01*
X131487772Y-134166974D01*
X131552058Y-134231259D01*
X131616344Y-134359831D01*
X131616344Y-134745545D01*
X131552058Y-134874116D01*
X131487772Y-134938402D01*
X131359201Y-135002688D01*
X131166344Y-135002688D01*
X132194915Y-135002688D02*
X132194915Y-134102688D01*
X132194915Y-134359831D02*
X132259201Y-134231259D01*
X132323487Y-134166974D01*
X132452058Y-134102688D01*
X132580629Y-134102688D01*
X133994915Y-134616974D02*
X134637772Y-134616974D01*
X133866344Y-135002688D02*
X134316344Y-133652688D01*
X134766344Y-135002688D01*
X135216344Y-134102688D02*
X135216344Y-135002688D01*
X135216344Y-134231259D02*
X135280629Y-134166974D01*
X135409201Y-134102688D01*
X135602058Y-134102688D01*
X135730629Y-134166974D01*
X135794915Y-134295545D01*
X135794915Y-135002688D01*
X137016344Y-135002688D02*
X137016344Y-133652688D01*
X137016344Y-134938402D02*
X136887772Y-135002688D01*
X136630629Y-135002688D01*
X136502058Y-134938402D01*
X136437772Y-134874116D01*
X136373487Y-134745545D01*
X136373487Y-134359831D01*
X136437772Y-134231259D01*
X136502058Y-134166974D01*
X136630629Y-134102688D01*
X136887772Y-134102688D01*
X137016344Y-134166974D01*
X137530629Y-134102688D02*
X137852058Y-135002688D01*
X138173487Y-134102688D02*
X137852058Y-135002688D01*
X137723487Y-135324116D01*
X137659201Y-135388402D01*
X137530629Y-135452688D01*
X138687772Y-135002688D02*
X138687772Y-134102688D01*
X138687772Y-134231259D02*
X138752058Y-134166974D01*
X138880629Y-134102688D01*
X139073487Y-134102688D01*
X139202058Y-134166974D01*
X139266344Y-134295545D01*
X139266344Y-135002688D01*
X139266344Y-134295545D02*
X139330629Y-134166974D01*
X139459201Y-134102688D01*
X139652058Y-134102688D01*
X139780629Y-134166974D01*
X139844915Y-134295545D01*
X139844915Y-135002688D01*
X141066344Y-135002688D02*
X141066344Y-134295545D01*
X141002058Y-134166974D01*
X140873487Y-134102688D01*
X140616344Y-134102688D01*
X140487772Y-134166974D01*
X141066344Y-134938402D02*
X140937772Y-135002688D01*
X140616344Y-135002688D01*
X140487772Y-134938402D01*
X140423487Y-134809831D01*
X140423487Y-134681259D01*
X140487772Y-134552688D01*
X140616344Y-134488402D01*
X140937772Y-134488402D01*
X141066344Y-134424116D01*
X141709201Y-134102688D02*
X141709201Y-135002688D01*
X141709201Y-134231259D02*
X141773487Y-134166974D01*
X141902058Y-134102688D01*
X142094915Y-134102688D01*
X142223487Y-134166974D01*
X142287772Y-134295545D01*
X142287772Y-135002688D01*
X143959201Y-135002688D02*
X143959201Y-133652688D01*
X143959201Y-134166974D02*
X144087772Y-134102688D01*
X144344915Y-134102688D01*
X144473487Y-134166974D01*
X144537772Y-134231259D01*
X144602058Y-134359831D01*
X144602058Y-134745545D01*
X144537772Y-134874116D01*
X144473487Y-134938402D01*
X144344915Y-135002688D01*
X144087772Y-135002688D01*
X143959201Y-134938402D01*
X145052058Y-134102688D02*
X145373487Y-135002688D01*
X145694915Y-134102688D02*
X145373487Y-135002688D01*
X145244915Y-135324116D01*
X145180629Y-135388402D01*
X145052058Y-135452688D01*
X147494915Y-134359831D02*
X147494915Y-135002688D01*
X147044915Y-133652688D02*
X147494915Y-134359831D01*
X147944915Y-133652688D01*
X148587772Y-135002688D02*
X148459201Y-134938402D01*
X148394915Y-134874116D01*
X148330629Y-134745545D01*
X148330629Y-134359831D01*
X148394915Y-134231259D01*
X148459201Y-134166974D01*
X148587772Y-134102688D01*
X148780629Y-134102688D01*
X148909201Y-134166974D01*
X148973487Y-134231259D01*
X149037772Y-134359831D01*
X149037772Y-134745545D01*
X148973487Y-134874116D01*
X148909201Y-134938402D01*
X148780629Y-135002688D01*
X148587772Y-135002688D01*
X149616344Y-134102688D02*
X149616344Y-135002688D01*
X149616344Y-134231259D02*
X149680629Y-134166974D01*
X149809201Y-134102688D01*
X150002058Y-134102688D01*
X150130629Y-134166974D01*
X150194915Y-134295545D01*
X150194915Y-135002688D01*
X151416344Y-135002688D02*
X151416344Y-134295545D01*
X151352058Y-134166974D01*
X151223487Y-134102688D01*
X150966344Y-134102688D01*
X150837772Y-134166974D01*
X151416344Y-134938402D02*
X151287772Y-135002688D01*
X150966344Y-135002688D01*
X150837772Y-134938402D01*
X150773487Y-134809831D01*
X150773487Y-134681259D01*
X150837772Y-134552688D01*
X150966344Y-134488402D01*
X151287772Y-134488402D01*
X151416344Y-134424116D01*
X153087772Y-135002688D02*
X153087772Y-134102688D01*
X153087772Y-133652688D02*
X153023487Y-133716974D01*
X153087772Y-133781259D01*
X153152058Y-133716974D01*
X153087772Y-133652688D01*
X153087772Y-133781259D01*
X153730629Y-134102688D02*
X153730629Y-135002688D01*
X153730629Y-134231259D02*
X153794915Y-134166974D01*
X153923487Y-134102688D01*
X154116344Y-134102688D01*
X154244915Y-134166974D01*
X154309201Y-134295545D01*
X154309201Y-135002688D01*
X155916344Y-133781259D02*
X155980629Y-133716974D01*
X156109201Y-133652688D01*
X156430629Y-133652688D01*
X156559201Y-133716974D01*
X156623487Y-133781259D01*
X156687772Y-133909831D01*
X156687772Y-134038402D01*
X156623487Y-134231259D01*
X155852058Y-135002688D01*
X156687772Y-135002688D01*
X157523487Y-133652688D02*
X157652058Y-133652688D01*
X157780629Y-133716974D01*
X157844915Y-133781259D01*
X157909201Y-133909831D01*
X157973487Y-134166974D01*
X157973487Y-134488402D01*
X157909201Y-134745545D01*
X157844915Y-134874116D01*
X157780629Y-134938402D01*
X157652058Y-135002688D01*
X157523487Y-135002688D01*
X157394915Y-134938402D01*
X157330629Y-134874116D01*
X157266344Y-134745545D01*
X157202058Y-134488402D01*
X157202058Y-134166974D01*
X157266344Y-133909831D01*
X157330629Y-133781259D01*
X157394915Y-133716974D01*
X157523487Y-133652688D01*
X158487772Y-133781259D02*
X158552058Y-133716974D01*
X158680629Y-133652688D01*
X159002058Y-133652688D01*
X159130629Y-133716974D01*
X159194915Y-133781259D01*
X159259201Y-133909831D01*
X159259201Y-134038402D01*
X159194915Y-134231259D01*
X158423487Y-135002688D01*
X159259201Y-135002688D01*
X160094915Y-133652688D02*
X160223487Y-133652688D01*
X160352058Y-133716974D01*
X160416344Y-133781259D01*
X160480629Y-133909831D01*
X160544915Y-134166974D01*
X160544915Y-134488402D01*
X160480629Y-134745545D01*
X160416344Y-134874116D01*
X160352058Y-134938402D01*
X160223487Y-135002688D01*
X160094915Y-135002688D01*
X159966344Y-134938402D01*
X159902058Y-134874116D01*
X159837772Y-134745545D01*
X159773487Y-134488402D01*
X159773487Y-134166974D01*
X159837772Y-133909831D01*
X159902058Y-133781259D01*
X159966344Y-133716974D01*
X160094915Y-133652688D01*
D11*
X150173439Y-119655878D02*
X150530582Y-119774926D01*
X151125820Y-119774926D01*
X151363915Y-119655878D01*
X151482963Y-119536831D01*
X151602010Y-119298735D01*
X151602010Y-119060640D01*
X151482963Y-118822545D01*
X151363915Y-118703497D01*
X151125820Y-118584450D01*
X150649629Y-118465402D01*
X150411534Y-118346354D01*
X150292487Y-118227307D01*
X150173439Y-117989212D01*
X150173439Y-117751116D01*
X150292487Y-117513021D01*
X150411534Y-117393974D01*
X150649629Y-117274926D01*
X151244867Y-117274926D01*
X151602010Y-117393974D01*
X152673439Y-118108259D02*
X152673439Y-120608259D01*
X152673439Y-118227307D02*
X152911534Y-118108259D01*
X153387725Y-118108259D01*
X153625820Y-118227307D01*
X153744867Y-118346354D01*
X153863915Y-118584450D01*
X153863915Y-119298735D01*
X153744867Y-119536831D01*
X153625820Y-119655878D01*
X153387725Y-119774926D01*
X152911534Y-119774926D01*
X152673439Y-119655878D01*
X155887725Y-119655878D02*
X155649629Y-119774926D01*
X155173439Y-119774926D01*
X154935344Y-119655878D01*
X154816296Y-119417783D01*
X154816296Y-118465402D01*
X154935344Y-118227307D01*
X155173439Y-118108259D01*
X155649629Y-118108259D01*
X155887725Y-118227307D01*
X156006772Y-118465402D01*
X156006772Y-118703497D01*
X154816296Y-118941593D01*
X158030582Y-119655878D02*
X157792487Y-119774926D01*
X157316296Y-119774926D01*
X157078201Y-119655878D01*
X156959153Y-119417783D01*
X156959153Y-118465402D01*
X157078201Y-118227307D01*
X157316296Y-118108259D01*
X157792487Y-118108259D01*
X158030582Y-118227307D01*
X158149629Y-118465402D01*
X158149629Y-118703497D01*
X156959153Y-118941593D01*
X160292487Y-119774926D02*
X160292487Y-117274926D01*
X160292487Y-119655878D02*
X160054391Y-119774926D01*
X159578201Y-119774926D01*
X159340106Y-119655878D01*
X159221058Y-119536831D01*
X159102010Y-119298735D01*
X159102010Y-118584450D01*
X159221058Y-118346354D01*
X159340106Y-118227307D01*
X159578201Y-118108259D01*
X160054391Y-118108259D01*
X160292487Y-118227307D01*
X131960820Y-119536831D02*
X131841772Y-119655878D01*
X131484629Y-119774926D01*
X131246534Y-119774926D01*
X130889391Y-119655878D01*
X130651296Y-119417783D01*
X130532248Y-119179688D01*
X130413201Y-118703497D01*
X130413201Y-118346354D01*
X130532248Y-117870164D01*
X130651296Y-117632069D01*
X130889391Y-117393974D01*
X131246534Y-117274926D01*
X131484629Y-117274926D01*
X131841772Y-117393974D01*
X131960820Y-117513021D01*
X133389391Y-119774926D02*
X133151296Y-119655878D01*
X133032248Y-119536831D01*
X132913201Y-119298735D01*
X132913201Y-118584450D01*
X133032248Y-118346354D01*
X133151296Y-118227307D01*
X133389391Y-118108259D01*
X133746534Y-118108259D01*
X133984629Y-118227307D01*
X134103677Y-118346354D01*
X134222725Y-118584450D01*
X134222725Y-119298735D01*
X134103677Y-119536831D01*
X133984629Y-119655878D01*
X133746534Y-119774926D01*
X133389391Y-119774926D01*
X135651296Y-119774926D02*
X135413201Y-119655878D01*
X135294153Y-119417783D01*
X135294153Y-117274926D01*
X136960820Y-119774926D02*
X136722725Y-119655878D01*
X136603677Y-119536831D01*
X136484629Y-119298735D01*
X136484629Y-118584450D01*
X136603677Y-118346354D01*
X136722725Y-118227307D01*
X136960820Y-118108259D01*
X137317963Y-118108259D01*
X137556058Y-118227307D01*
X137675106Y-118346354D01*
X137794153Y-118584450D01*
X137794153Y-119298735D01*
X137675106Y-119536831D01*
X137556058Y-119655878D01*
X137317963Y-119774926D01*
X136960820Y-119774926D01*
X138865582Y-119774926D02*
X138865582Y-118108259D01*
X138865582Y-118584450D02*
X138984629Y-118346354D01*
X139103677Y-118227307D01*
X139341772Y-118108259D01*
X139579867Y-118108259D01*
X140956420Y-95771926D02*
X140956420Y-93271926D01*
X141789753Y-95057640D01*
X142623087Y-93271926D01*
X142623087Y-95771926D01*
X144170706Y-95771926D02*
X143932610Y-95652878D01*
X143813563Y-95533831D01*
X143694515Y-95295735D01*
X143694515Y-94581450D01*
X143813563Y-94343354D01*
X143932610Y-94224307D01*
X144170706Y-94105259D01*
X144527848Y-94105259D01*
X144765944Y-94224307D01*
X144884991Y-94343354D01*
X145004039Y-94581450D01*
X145004039Y-95295735D01*
X144884991Y-95533831D01*
X144765944Y-95652878D01*
X144527848Y-95771926D01*
X144170706Y-95771926D01*
X147146896Y-95771926D02*
X147146896Y-93271926D01*
X147146896Y-95652878D02*
X146908801Y-95771926D01*
X146432610Y-95771926D01*
X146194515Y-95652878D01*
X146075467Y-95533831D01*
X145956420Y-95295735D01*
X145956420Y-94581450D01*
X146075467Y-94343354D01*
X146194515Y-94224307D01*
X146432610Y-94105259D01*
X146908801Y-94105259D01*
X147146896Y-94224307D01*
X149289753Y-95652878D02*
X149051658Y-95771926D01*
X148575467Y-95771926D01*
X148337372Y-95652878D01*
X148218325Y-95414783D01*
X148218325Y-94462402D01*
X148337372Y-94224307D01*
X148575467Y-94105259D01*
X149051658Y-94105259D01*
X149289753Y-94224307D01*
X149408801Y-94462402D01*
X149408801Y-94700497D01*
X148218325Y-94938593D01*
X136755629Y-82905402D02*
X137112772Y-83024450D01*
X137231820Y-83143497D01*
X137350867Y-83381593D01*
X137350867Y-83738735D01*
X137231820Y-83976831D01*
X137112772Y-84095878D01*
X136874677Y-84214926D01*
X135922296Y-84214926D01*
X135922296Y-81714926D01*
X136755629Y-81714926D01*
X136993725Y-81833974D01*
X137112772Y-81953021D01*
X137231820Y-82191116D01*
X137231820Y-82429212D01*
X137112772Y-82667307D01*
X136993725Y-82786354D01*
X136755629Y-82905402D01*
X135922296Y-82905402D01*
X138422296Y-84214926D02*
X138422296Y-82548259D01*
X138422296Y-83024450D02*
X138541344Y-82786354D01*
X138660391Y-82667307D01*
X138898487Y-82548259D01*
X139136582Y-82548259D01*
X139969915Y-84214926D02*
X139969915Y-82548259D01*
X139969915Y-81714926D02*
X139850867Y-81833974D01*
X139969915Y-81953021D01*
X140088963Y-81833974D01*
X139969915Y-81714926D01*
X139969915Y-81953021D01*
X142231820Y-82548259D02*
X142231820Y-84572069D01*
X142112772Y-84810164D01*
X141993725Y-84929212D01*
X141755629Y-85048259D01*
X141398487Y-85048259D01*
X141160391Y-84929212D01*
X142231820Y-84095878D02*
X141993725Y-84214926D01*
X141517534Y-84214926D01*
X141279439Y-84095878D01*
X141160391Y-83976831D01*
X141041344Y-83738735D01*
X141041344Y-83024450D01*
X141160391Y-82786354D01*
X141279439Y-82667307D01*
X141517534Y-82548259D01*
X141993725Y-82548259D01*
X142231820Y-82667307D01*
X143422296Y-84214926D02*
X143422296Y-81714926D01*
X144493725Y-84214926D02*
X144493725Y-82905402D01*
X144374677Y-82667307D01*
X144136582Y-82548259D01*
X143779439Y-82548259D01*
X143541344Y-82667307D01*
X143422296Y-82786354D01*
X145327058Y-82548259D02*
X146279439Y-82548259D01*
X145684201Y-81714926D02*
X145684201Y-83857783D01*
X145803248Y-84095878D01*
X146041344Y-84214926D01*
X146279439Y-84214926D01*
X147112772Y-82548259D02*
X147112772Y-84214926D01*
X147112772Y-82786354D02*
X147231820Y-82667307D01*
X147469915Y-82548259D01*
X147827058Y-82548259D01*
X148065153Y-82667307D01*
X148184201Y-82905402D01*
X148184201Y-84214926D01*
X150327058Y-84095878D02*
X150088963Y-84214926D01*
X149612772Y-84214926D01*
X149374677Y-84095878D01*
X149255629Y-83857783D01*
X149255629Y-82905402D01*
X149374677Y-82667307D01*
X149612772Y-82548259D01*
X150088963Y-82548259D01*
X150327058Y-82667307D01*
X150446106Y-82905402D01*
X150446106Y-83143497D01*
X149255629Y-83381593D01*
X151398487Y-84095878D02*
X151636582Y-84214926D01*
X152112772Y-84214926D01*
X152350867Y-84095878D01*
X152469915Y-83857783D01*
X152469915Y-83738735D01*
X152350867Y-83500640D01*
X152112772Y-83381593D01*
X151755629Y-83381593D01*
X151517534Y-83262545D01*
X151398487Y-83024450D01*
X151398487Y-82905402D01*
X151517534Y-82667307D01*
X151755629Y-82548259D01*
X152112772Y-82548259D01*
X152350867Y-82667307D01*
X153422296Y-84095878D02*
X153660391Y-84214926D01*
X154136582Y-84214926D01*
X154374677Y-84095878D01*
X154493725Y-83857783D01*
X154493725Y-83738735D01*
X154374677Y-83500640D01*
X154136582Y-83381593D01*
X153779439Y-83381593D01*
X153541344Y-83262545D01*
X153422296Y-83024450D01*
X153422296Y-82905402D01*
X153541344Y-82667307D01*
X153779439Y-82548259D01*
X154136582Y-82548259D01*
X154374677Y-82667307D01*
M02*
