G04 #@! TF.GenerationSoftware,KiCad,Pcbnew,(5.1.5-0-10_14)*
G04 #@! TF.CreationDate,2020-01-23T10:54:37-08:00*
G04 #@! TF.ProjectId,AndyCabinets,416e6479-4361-4626-996e-6574732e6b69,rev?*
G04 #@! TF.SameCoordinates,Original*
G04 #@! TF.FileFunction,Legend,Top*
G04 #@! TF.FilePolarity,Positive*
%FSLAX46Y46*%
G04 Gerber Fmt 4.6, Leading zero omitted, Abs format (unit mm)*
G04 Created by KiCad (PCBNEW (5.1.5-0-10_14)) date 2020-01-23 10:54:37*
%MOMM*%
%LPD*%
G04 APERTURE LIST*
%ADD10C,0.120000*%
%ADD11C,0.300000*%
%ADD12C,0.254000*%
%ADD13C,0.150000*%
G04 APERTURE END LIST*
D10*
X187685800Y-122965429D02*
X187685800Y-121965429D01*
D11*
X195075514Y-107688771D02*
X195075514Y-106188771D01*
X195575514Y-107260200D01*
X196075514Y-106188771D01*
X196075514Y-107688771D01*
X197075514Y-106188771D02*
X197361228Y-106188771D01*
X197504085Y-106260200D01*
X197646942Y-106403057D01*
X197718371Y-106688771D01*
X197718371Y-107188771D01*
X197646942Y-107474485D01*
X197504085Y-107617342D01*
X197361228Y-107688771D01*
X197075514Y-107688771D01*
X196932657Y-107617342D01*
X196789800Y-107474485D01*
X196718371Y-107188771D01*
X196718371Y-106688771D01*
X196789800Y-106403057D01*
X196932657Y-106260200D01*
X197075514Y-106188771D01*
X198361228Y-107688771D02*
X198361228Y-106188771D01*
X198718371Y-106188771D01*
X198932657Y-106260200D01*
X199075514Y-106403057D01*
X199146942Y-106545914D01*
X199218371Y-106831628D01*
X199218371Y-107045914D01*
X199146942Y-107331628D01*
X199075514Y-107474485D01*
X198932657Y-107617342D01*
X198718371Y-107688771D01*
X198361228Y-107688771D01*
X199861228Y-106903057D02*
X200361228Y-106903057D01*
X200575514Y-107688771D02*
X199861228Y-107688771D01*
X199861228Y-106188771D01*
X200575514Y-106188771D01*
D10*
X188671200Y-73355200D02*
X188188600Y-73380600D01*
D11*
X196699914Y-125374885D02*
X196771342Y-125446314D01*
X196842771Y-125660600D01*
X196842771Y-125803457D01*
X196771342Y-126017742D01*
X196628485Y-126160600D01*
X196485628Y-126232028D01*
X196199914Y-126303457D01*
X195985628Y-126303457D01*
X195699914Y-126232028D01*
X195557057Y-126160600D01*
X195414200Y-126017742D01*
X195342771Y-125803457D01*
X195342771Y-125660600D01*
X195414200Y-125446314D01*
X195485628Y-125374885D01*
X195342771Y-124446314D02*
X195342771Y-124160600D01*
X195414200Y-124017742D01*
X195557057Y-123874885D01*
X195842771Y-123803457D01*
X196342771Y-123803457D01*
X196628485Y-123874885D01*
X196771342Y-124017742D01*
X196842771Y-124160600D01*
X196842771Y-124446314D01*
X196771342Y-124589171D01*
X196628485Y-124732028D01*
X196342771Y-124803457D01*
X195842771Y-124803457D01*
X195557057Y-124732028D01*
X195414200Y-124589171D01*
X195342771Y-124446314D01*
X196842771Y-122446314D02*
X196842771Y-123160600D01*
X195342771Y-123160600D01*
X195342771Y-121660600D02*
X195342771Y-121374885D01*
X195414200Y-121232028D01*
X195557057Y-121089171D01*
X195842771Y-121017742D01*
X196342771Y-121017742D01*
X196628485Y-121089171D01*
X196771342Y-121232028D01*
X196842771Y-121374885D01*
X196842771Y-121660600D01*
X196771342Y-121803457D01*
X196628485Y-121946314D01*
X196342771Y-122017742D01*
X195842771Y-122017742D01*
X195557057Y-121946314D01*
X195414200Y-121803457D01*
X195342771Y-121660600D01*
X196842771Y-119517742D02*
X196128485Y-120017742D01*
X196842771Y-120374885D02*
X195342771Y-120374885D01*
X195342771Y-119803457D01*
X195414200Y-119660600D01*
X195485628Y-119589171D01*
X195628485Y-119517742D01*
X195842771Y-119517742D01*
X195985628Y-119589171D01*
X196057057Y-119660600D01*
X196128485Y-119803457D01*
X196128485Y-120374885D01*
X200759142Y-125967714D02*
X200830571Y-125753428D01*
X200830571Y-125396285D01*
X200759142Y-125253428D01*
X200687714Y-125182000D01*
X200544857Y-125110571D01*
X200402000Y-125110571D01*
X200259142Y-125182000D01*
X200187714Y-125253428D01*
X200116285Y-125396285D01*
X200044857Y-125682000D01*
X199973428Y-125824857D01*
X199902000Y-125896285D01*
X199759142Y-125967714D01*
X199616285Y-125967714D01*
X199473428Y-125896285D01*
X199402000Y-125824857D01*
X199330571Y-125682000D01*
X199330571Y-125324857D01*
X199402000Y-125110571D01*
X200830571Y-124467714D02*
X199330571Y-124467714D01*
X199330571Y-123896285D01*
X199402000Y-123753428D01*
X199473428Y-123682000D01*
X199616285Y-123610571D01*
X199830571Y-123610571D01*
X199973428Y-123682000D01*
X200044857Y-123753428D01*
X200116285Y-123896285D01*
X200116285Y-124467714D01*
X200044857Y-122967714D02*
X200044857Y-122467714D01*
X200830571Y-122253428D02*
X200830571Y-122967714D01*
X199330571Y-122967714D01*
X199330571Y-122253428D01*
X200044857Y-121610571D02*
X200044857Y-121110571D01*
X200830571Y-120896285D02*
X200830571Y-121610571D01*
X199330571Y-121610571D01*
X199330571Y-120896285D01*
X200830571Y-120253428D02*
X199330571Y-120253428D01*
X199330571Y-119896285D01*
X199402000Y-119682000D01*
X199544857Y-119539142D01*
X199687714Y-119467714D01*
X199973428Y-119396285D01*
X200187714Y-119396285D01*
X200473428Y-119467714D01*
X200616285Y-119539142D01*
X200759142Y-119682000D01*
X200830571Y-119896285D01*
X200830571Y-120253428D01*
D12*
X193716728Y-73490857D02*
X193988871Y-73581571D01*
X194079585Y-73672286D01*
X194170300Y-73853714D01*
X194170300Y-74125857D01*
X194079585Y-74307286D01*
X193988871Y-74398000D01*
X193807442Y-74488714D01*
X193081728Y-74488714D01*
X193081728Y-72583714D01*
X193716728Y-72583714D01*
X193898157Y-72674429D01*
X193988871Y-72765143D01*
X194079585Y-72946571D01*
X194079585Y-73128000D01*
X193988871Y-73309429D01*
X193898157Y-73400143D01*
X193716728Y-73490857D01*
X193081728Y-73490857D01*
X196075300Y-74488714D02*
X195440300Y-73581571D01*
X194986728Y-74488714D02*
X194986728Y-72583714D01*
X195712442Y-72583714D01*
X195893871Y-72674429D01*
X195984585Y-72765143D01*
X196075300Y-72946571D01*
X196075300Y-73218714D01*
X195984585Y-73400143D01*
X195893871Y-73490857D01*
X195712442Y-73581571D01*
X194986728Y-73581571D01*
X196891728Y-74488714D02*
X196891728Y-72583714D01*
X198796728Y-72674429D02*
X198615300Y-72583714D01*
X198343157Y-72583714D01*
X198071014Y-72674429D01*
X197889585Y-72855857D01*
X197798871Y-73037286D01*
X197708157Y-73400143D01*
X197708157Y-73672286D01*
X197798871Y-74035143D01*
X197889585Y-74216571D01*
X198071014Y-74398000D01*
X198343157Y-74488714D01*
X198524585Y-74488714D01*
X198796728Y-74398000D01*
X198887442Y-74307286D01*
X198887442Y-73672286D01*
X198524585Y-73672286D01*
X199703871Y-74488714D02*
X199703871Y-72583714D01*
X199703871Y-73490857D02*
X200792442Y-73490857D01*
X200792442Y-74488714D02*
X200792442Y-72583714D01*
X201427442Y-72583714D02*
X202516014Y-72583714D01*
X201971728Y-74488714D02*
X201971728Y-72583714D01*
D10*
X187685800Y-121965429D02*
X187685800Y-122965429D01*
X188185800Y-122465429D02*
X187185800Y-122465429D01*
X183985800Y-129165429D02*
X181385800Y-129165429D01*
X188985800Y-129165429D02*
X186385800Y-129165429D01*
X193985800Y-129165429D02*
X191385800Y-129165429D01*
X191785800Y-115265429D02*
X191485800Y-114965429D01*
X191785800Y-114665429D02*
X191785800Y-115265429D01*
X191485800Y-114965429D02*
X191785800Y-114665429D01*
X193985800Y-115765429D02*
X191485800Y-115765429D01*
X193985800Y-120565429D02*
X193985800Y-115765429D01*
X181385800Y-115765429D02*
X184185800Y-115765429D01*
X181385800Y-120665429D02*
X181385800Y-115765429D01*
X181385800Y-129165429D02*
X181385800Y-124265429D01*
X193985800Y-124265429D02*
X193985800Y-129165429D01*
X190685800Y-122465429D02*
G75*
G03X190685800Y-122465429I-3000000J0D01*
G01*
X205700027Y-83996608D02*
X204706857Y-83585223D01*
X203442195Y-89447497D02*
X205700027Y-83996608D01*
X199839065Y-87955032D02*
X202096897Y-82504143D01*
X193502349Y-82455883D02*
X192509178Y-82867267D01*
X195760181Y-87906772D02*
X193502349Y-82455883D01*
X192157051Y-89399237D02*
X189899219Y-83948348D01*
X214117422Y-70306000D02*
X214634578Y-70306000D01*
X214117422Y-68886000D02*
X214634578Y-68886000D01*
X202503800Y-127562429D02*
X202503800Y-124842429D01*
X202503800Y-120342429D02*
X202503800Y-115972429D01*
X213443800Y-120342429D02*
X213443800Y-115972429D01*
X211623800Y-115972429D02*
X213443800Y-115972429D01*
X202503800Y-127562429D02*
X213443800Y-127562429D01*
X213443800Y-127562429D02*
X213443800Y-124842429D01*
X202503800Y-115972429D02*
X204323800Y-115972429D01*
X203235800Y-64847600D02*
X203235800Y-67567600D01*
X203235800Y-72067600D02*
X203235800Y-76437600D01*
X192295800Y-72067600D02*
X192295800Y-76437600D01*
X194115800Y-76437600D02*
X192295800Y-76437600D01*
X203235800Y-64847600D02*
X192295800Y-64847600D01*
X192295800Y-64847600D02*
X192295800Y-67567600D01*
X203235800Y-76437600D02*
X201415800Y-76437600D01*
X214395987Y-71029614D02*
X210945987Y-71029614D01*
X214395987Y-71029614D02*
X216345987Y-71029614D01*
X214395987Y-79899614D02*
X212445987Y-79899614D01*
X214395987Y-79899614D02*
X216345987Y-79899614D01*
X200829800Y-98017929D02*
G75*
G03X200829800Y-98017929I-3000000J0D01*
G01*
X204129800Y-99817929D02*
X204129800Y-104717929D01*
X191529800Y-104717929D02*
X191529800Y-99817929D01*
X191529800Y-96217929D02*
X191529800Y-91317929D01*
X191529800Y-91317929D02*
X194329800Y-91317929D01*
X204129800Y-96117929D02*
X204129800Y-91317929D01*
X204129800Y-91317929D02*
X201629800Y-91317929D01*
X201629800Y-90517929D02*
X201929800Y-90217929D01*
X201929800Y-90217929D02*
X201929800Y-90817929D01*
X201929800Y-90817929D02*
X201629800Y-90517929D01*
X204129800Y-104717929D02*
X201529800Y-104717929D01*
X199129800Y-104717929D02*
X196529800Y-104717929D01*
X194129800Y-104717929D02*
X191529800Y-104717929D01*
X198329800Y-98017929D02*
X197329800Y-98017929D01*
X197829800Y-97517929D02*
X197829800Y-98517929D01*
X197531222Y-81639429D02*
X198048378Y-81639429D01*
X197531222Y-80219429D02*
X198048378Y-80219429D01*
X205715800Y-97688851D02*
X205715800Y-98206007D01*
X207135800Y-97688851D02*
X207135800Y-98206007D01*
X197861422Y-115929429D02*
X198378578Y-115929429D01*
X197861422Y-114509429D02*
X198378578Y-114509429D01*
X189800300Y-98015507D02*
X189800300Y-97498351D01*
X188380300Y-98015507D02*
X188380300Y-97498351D01*
X187896730Y-85260150D02*
X187136590Y-86020290D01*
X192068660Y-89432080D02*
X187896730Y-85260150D01*
X189310944Y-92189796D02*
X185139014Y-88017866D01*
X199752163Y-82009899D02*
X198677163Y-82009899D01*
X199752163Y-87909899D02*
X199752163Y-82009899D01*
X195852163Y-87909899D02*
X195852163Y-82009899D01*
X183794192Y-89997495D02*
X183382807Y-90990665D01*
X189245081Y-92255327D02*
X183794192Y-89997495D01*
X187752616Y-95858457D02*
X182301727Y-93600625D01*
X181812563Y-95945359D02*
X181812563Y-97020359D01*
X187712563Y-95945359D02*
X181812563Y-95945359D01*
X187712563Y-99845359D02*
X181812563Y-99845359D01*
X182261087Y-102195173D02*
X182672471Y-103188344D01*
X187711976Y-99937341D02*
X182261087Y-102195173D01*
X189204441Y-103540471D02*
X183753552Y-105798303D01*
X185065354Y-107793172D02*
X185825494Y-108553312D01*
X189237284Y-103621242D02*
X185065354Y-107793172D01*
X191995000Y-106378958D02*
X187823070Y-110550888D01*
X189800159Y-111903330D02*
X190793329Y-112314715D01*
X192057991Y-106452441D02*
X189800159Y-111903330D01*
X195661121Y-107944906D02*
X193403289Y-113395795D01*
X195748023Y-113884959D02*
X196823023Y-113884959D01*
X195748023Y-107984959D02*
X195748023Y-113884959D01*
X199648023Y-107984959D02*
X199648023Y-113884959D01*
X202000377Y-113436435D02*
X202993548Y-113025051D01*
X199742545Y-107985546D02*
X202000377Y-113436435D01*
X203345675Y-106493081D02*
X205603507Y-111943970D01*
X207598376Y-110634708D02*
X208358516Y-109874568D01*
X203426446Y-106462778D02*
X207598376Y-110634708D01*
X206184162Y-103705062D02*
X210356092Y-107876992D01*
X211708534Y-105892283D02*
X212119919Y-104899113D01*
X206257645Y-103634451D02*
X211708534Y-105892283D01*
X207750110Y-100031321D02*
X213200999Y-102289153D01*
X213687623Y-99946959D02*
X213687623Y-98871959D01*
X207787623Y-99946959D02*
X213687623Y-99946959D01*
X207787623Y-96046959D02*
X213687623Y-96046959D01*
X213239099Y-93699685D02*
X212827715Y-92706514D01*
X207788210Y-95957517D02*
X213239099Y-93699685D01*
X206295745Y-92354387D02*
X211746634Y-90096555D01*
X210434832Y-88101686D02*
X209674692Y-87341546D01*
X206262902Y-92273616D02*
X210434832Y-88101686D01*
X203505186Y-89515900D02*
X207677116Y-85343970D01*
D13*
X195290561Y-119098762D02*
X195338180Y-118955905D01*
X195338180Y-118717809D01*
X195290561Y-118622571D01*
X195242942Y-118574952D01*
X195147704Y-118527333D01*
X195052466Y-118527333D01*
X194957228Y-118574952D01*
X194909609Y-118622571D01*
X194861990Y-118717809D01*
X194814371Y-118908286D01*
X194766752Y-119003524D01*
X194719133Y-119051143D01*
X194623895Y-119098762D01*
X194528657Y-119098762D01*
X194433419Y-119051143D01*
X194385800Y-119003524D01*
X194338180Y-118908286D01*
X194338180Y-118670190D01*
X194385800Y-118527333D01*
X194338180Y-118194000D02*
X195338180Y-117955905D01*
X194623895Y-117765429D01*
X195338180Y-117574952D01*
X194338180Y-117336857D01*
X195338180Y-116432095D02*
X195338180Y-117003524D01*
X195338180Y-116717809D02*
X194338180Y-116717809D01*
X194481038Y-116813048D01*
X194576276Y-116908286D01*
X194623895Y-117003524D01*
X200364365Y-85778470D02*
X199440486Y-85395787D01*
X199531601Y-85175816D01*
X199630264Y-85062056D01*
X199754699Y-85010513D01*
X199860910Y-85002965D01*
X200055110Y-85031863D01*
X200187093Y-85086532D01*
X200344847Y-85203418D01*
X200414613Y-85283859D01*
X200466155Y-85408293D01*
X200455480Y-85558499D01*
X200364365Y-85778470D01*
X199892935Y-84552348D02*
X199867163Y-84490130D01*
X199859615Y-84383919D01*
X199950730Y-84163947D01*
X200031171Y-84094182D01*
X200093388Y-84068411D01*
X200199599Y-84060862D01*
X200287588Y-84097309D01*
X200401348Y-84195972D01*
X200710603Y-84942579D01*
X200947502Y-84370654D01*
X189406398Y-86031203D02*
X190330278Y-85648520D01*
X190421393Y-85868491D01*
X190432067Y-86018697D01*
X190380525Y-86143132D01*
X190310759Y-86223572D01*
X190153005Y-86340458D01*
X190021023Y-86395127D01*
X189826823Y-86424025D01*
X189720611Y-86416477D01*
X189596176Y-86364935D01*
X189497513Y-86251175D01*
X189406398Y-86031203D01*
X189989535Y-87439020D02*
X189770858Y-86911089D01*
X189880197Y-87175054D02*
X190804076Y-86792371D01*
X190635647Y-86759051D01*
X190511213Y-86707509D01*
X190430772Y-86637743D01*
X191241429Y-87848233D02*
X191168536Y-87672256D01*
X191088096Y-87602491D01*
X191025879Y-87576719D01*
X190857450Y-87543400D01*
X190663250Y-87572298D01*
X190311296Y-87718082D01*
X190241530Y-87798522D01*
X190215759Y-87860740D01*
X190208211Y-87966951D01*
X190281103Y-88142928D01*
X190361543Y-88212694D01*
X190423761Y-88238465D01*
X190529972Y-88246013D01*
X190749943Y-88154898D01*
X190819709Y-88074458D01*
X190845480Y-88012240D01*
X190853028Y-87906029D01*
X190780136Y-87730052D01*
X190699696Y-87660286D01*
X190637479Y-87634515D01*
X190531267Y-87626967D01*
X203471542Y-77107980D02*
X203138209Y-76631790D01*
X202900114Y-77107980D02*
X202900114Y-76107980D01*
X203281066Y-76107980D01*
X203376304Y-76155600D01*
X203423923Y-76203219D01*
X203471542Y-76298457D01*
X203471542Y-76441314D01*
X203423923Y-76536552D01*
X203376304Y-76584171D01*
X203281066Y-76631790D01*
X202900114Y-76631790D01*
X204423923Y-77107980D02*
X203852495Y-77107980D01*
X204138209Y-77107980D02*
X204138209Y-76107980D01*
X204042971Y-76250838D01*
X203947733Y-76346076D01*
X203852495Y-76393695D01*
X205281066Y-76441314D02*
X205281066Y-77107980D01*
X205042971Y-76060361D02*
X204804876Y-76774647D01*
X205423923Y-76774647D01*
X206748142Y-112567980D02*
X206414809Y-112091790D01*
X206176714Y-112567980D02*
X206176714Y-111567980D01*
X206557666Y-111567980D01*
X206652904Y-111615600D01*
X206700523Y-111663219D01*
X206748142Y-111758457D01*
X206748142Y-111901314D01*
X206700523Y-111996552D01*
X206652904Y-112044171D01*
X206557666Y-112091790D01*
X206176714Y-112091790D01*
X207700523Y-112567980D02*
X207129095Y-112567980D01*
X207414809Y-112567980D02*
X207414809Y-111567980D01*
X207319571Y-111710838D01*
X207224333Y-111806076D01*
X207129095Y-111853695D01*
X208033857Y-111567980D02*
X208652904Y-111567980D01*
X208319571Y-111948933D01*
X208462428Y-111948933D01*
X208557666Y-111996552D01*
X208605285Y-112044171D01*
X208652904Y-112139409D01*
X208652904Y-112377504D01*
X208605285Y-112472742D01*
X208557666Y-112520361D01*
X208462428Y-112567980D01*
X208176714Y-112567980D01*
X208081476Y-112520361D01*
X208033857Y-112472742D01*
X203471542Y-80521142D02*
X203423923Y-80568761D01*
X203281066Y-80616380D01*
X203185828Y-80616380D01*
X203042971Y-80568761D01*
X202947733Y-80473523D01*
X202900114Y-80378285D01*
X202852495Y-80187809D01*
X202852495Y-80044952D01*
X202900114Y-79854476D01*
X202947733Y-79759238D01*
X203042971Y-79664000D01*
X203185828Y-79616380D01*
X203281066Y-79616380D01*
X203423923Y-79664000D01*
X203471542Y-79711619D01*
X204423923Y-80616380D02*
X203852495Y-80616380D01*
X204138209Y-80616380D02*
X204138209Y-79616380D01*
X204042971Y-79759238D01*
X203947733Y-79854476D01*
X203852495Y-79902095D01*
X204804876Y-79711619D02*
X204852495Y-79664000D01*
X204947733Y-79616380D01*
X205185828Y-79616380D01*
X205281066Y-79664000D01*
X205328685Y-79711619D01*
X205376304Y-79806857D01*
X205376304Y-79902095D01*
X205328685Y-80044952D01*
X204757257Y-80616380D01*
X205376304Y-80616380D01*
X211796333Y-112574342D02*
X211748714Y-112621961D01*
X211605857Y-112669580D01*
X211510619Y-112669580D01*
X211367761Y-112621961D01*
X211272523Y-112526723D01*
X211224904Y-112431485D01*
X211177285Y-112241009D01*
X211177285Y-112098152D01*
X211224904Y-111907676D01*
X211272523Y-111812438D01*
X211367761Y-111717200D01*
X211510619Y-111669580D01*
X211605857Y-111669580D01*
X211748714Y-111717200D01*
X211796333Y-111764819D01*
X212272523Y-112669580D02*
X212463000Y-112669580D01*
X212558238Y-112621961D01*
X212605857Y-112574342D01*
X212701095Y-112431485D01*
X212748714Y-112241009D01*
X212748714Y-111860057D01*
X212701095Y-111764819D01*
X212653476Y-111717200D01*
X212558238Y-111669580D01*
X212367761Y-111669580D01*
X212272523Y-111717200D01*
X212224904Y-111764819D01*
X212177285Y-111860057D01*
X212177285Y-112098152D01*
X212224904Y-112193390D01*
X212272523Y-112241009D01*
X212367761Y-112288628D01*
X212558238Y-112288628D01*
X212653476Y-112241009D01*
X212701095Y-112193390D01*
X212748714Y-112098152D01*
X217035142Y-70029342D02*
X216987523Y-70076961D01*
X216844666Y-70124580D01*
X216749428Y-70124580D01*
X216606571Y-70076961D01*
X216511333Y-69981723D01*
X216463714Y-69886485D01*
X216416095Y-69696009D01*
X216416095Y-69553152D01*
X216463714Y-69362676D01*
X216511333Y-69267438D01*
X216606571Y-69172200D01*
X216749428Y-69124580D01*
X216844666Y-69124580D01*
X216987523Y-69172200D01*
X217035142Y-69219819D01*
X217987523Y-70124580D02*
X217416095Y-70124580D01*
X217701809Y-70124580D02*
X217701809Y-69124580D01*
X217606571Y-69267438D01*
X217511333Y-69362676D01*
X217416095Y-69410295D01*
X218606571Y-69124580D02*
X218701809Y-69124580D01*
X218797047Y-69172200D01*
X218844666Y-69219819D01*
X218892285Y-69315057D01*
X218939904Y-69505533D01*
X218939904Y-69743628D01*
X218892285Y-69934104D01*
X218844666Y-70029342D01*
X218797047Y-70076961D01*
X218701809Y-70124580D01*
X218606571Y-70124580D01*
X218511333Y-70076961D01*
X218463714Y-70029342D01*
X218416095Y-69934104D01*
X218368476Y-69743628D01*
X218368476Y-69505533D01*
X218416095Y-69315057D01*
X218463714Y-69219819D01*
X218511333Y-69172200D01*
X218606571Y-69124580D01*
X207378561Y-129044809D02*
X207045228Y-128568619D01*
X206807133Y-129044809D02*
X206807133Y-128044809D01*
X207188085Y-128044809D01*
X207283323Y-128092429D01*
X207330942Y-128140048D01*
X207378561Y-128235286D01*
X207378561Y-128378143D01*
X207330942Y-128473381D01*
X207283323Y-128521000D01*
X207188085Y-128568619D01*
X206807133Y-128568619D01*
X207664276Y-128044809D02*
X207997609Y-129044809D01*
X208330942Y-128044809D01*
X208616657Y-128140048D02*
X208664276Y-128092429D01*
X208759514Y-128044809D01*
X208997609Y-128044809D01*
X209092847Y-128092429D01*
X209140466Y-128140048D01*
X209188085Y-128235286D01*
X209188085Y-128330524D01*
X209140466Y-128473381D01*
X208569038Y-129044809D01*
X209188085Y-129044809D01*
X197170561Y-64269980D02*
X196837228Y-63793790D01*
X196599133Y-64269980D02*
X196599133Y-63269980D01*
X196980085Y-63269980D01*
X197075323Y-63317600D01*
X197122942Y-63365219D01*
X197170561Y-63460457D01*
X197170561Y-63603314D01*
X197122942Y-63698552D01*
X197075323Y-63746171D01*
X196980085Y-63793790D01*
X196599133Y-63793790D01*
X197456276Y-63269980D02*
X197789609Y-64269980D01*
X198122942Y-63269980D01*
X198980085Y-64269980D02*
X198408657Y-64269980D01*
X198694371Y-64269980D02*
X198694371Y-63269980D01*
X198599133Y-63412838D01*
X198503895Y-63508076D01*
X198408657Y-63555695D01*
X210713082Y-69455994D02*
X210713082Y-70265518D01*
X210760701Y-70360756D01*
X210808320Y-70408375D01*
X210903558Y-70455994D01*
X211094034Y-70455994D01*
X211189272Y-70408375D01*
X211236891Y-70360756D01*
X211284510Y-70265518D01*
X211284510Y-69455994D01*
X212284510Y-70455994D02*
X211713082Y-70455994D01*
X211998796Y-70455994D02*
X211998796Y-69455994D01*
X211903558Y-69598852D01*
X211808320Y-69694090D01*
X211713082Y-69741709D01*
X205303814Y-67565807D02*
X204970481Y-67089617D01*
X204732386Y-67565807D02*
X204732386Y-66565807D01*
X205113338Y-66565807D01*
X205208576Y-66613427D01*
X205256195Y-66661046D01*
X205303814Y-66756284D01*
X205303814Y-66899141D01*
X205256195Y-66994379D01*
X205208576Y-67041998D01*
X205113338Y-67089617D01*
X204732386Y-67089617D01*
X206256195Y-67565807D02*
X205684767Y-67565807D01*
X205970481Y-67565807D02*
X205970481Y-66565807D01*
X205875243Y-66708665D01*
X205780005Y-66803903D01*
X205684767Y-66851522D01*
X206637148Y-66661046D02*
X206684767Y-66613427D01*
X206780005Y-66565807D01*
X207018100Y-66565807D01*
X207113338Y-66613427D01*
X207160957Y-66661046D01*
X207208576Y-66756284D01*
X207208576Y-66851522D01*
X207160957Y-66994379D01*
X206589529Y-67565807D01*
X207208576Y-67565807D01*
X202287505Y-67692807D02*
X201954172Y-67216617D01*
X201716077Y-67692807D02*
X201716077Y-66692807D01*
X202097029Y-66692807D01*
X202192267Y-66740427D01*
X202239886Y-66788046D01*
X202287505Y-66883284D01*
X202287505Y-67026141D01*
X202239886Y-67121379D01*
X202192267Y-67168998D01*
X202097029Y-67216617D01*
X201716077Y-67216617D01*
X203239886Y-67692807D02*
X202668458Y-67692807D01*
X202954172Y-67692807D02*
X202954172Y-66692807D01*
X202858934Y-66835665D01*
X202763696Y-66930903D01*
X202668458Y-66978522D01*
X204192267Y-67692807D02*
X203620839Y-67692807D01*
X203906553Y-67692807D02*
X203906553Y-66692807D01*
X203811315Y-66835665D01*
X203716077Y-66930903D01*
X203620839Y-66978522D01*
X180258980Y-128689286D02*
X179782790Y-129022619D01*
X180258980Y-129260714D02*
X179258980Y-129260714D01*
X179258980Y-128879762D01*
X179306600Y-128784524D01*
X179354219Y-128736905D01*
X179449457Y-128689286D01*
X179592314Y-128689286D01*
X179687552Y-128736905D01*
X179735171Y-128784524D01*
X179782790Y-128879762D01*
X179782790Y-129260714D01*
X180258980Y-127736905D02*
X180258980Y-128308333D01*
X180258980Y-128022619D02*
X179258980Y-128022619D01*
X179401838Y-128117857D01*
X179497076Y-128213095D01*
X179544695Y-128308333D01*
X179258980Y-127117857D02*
X179258980Y-127022619D01*
X179306600Y-126927381D01*
X179354219Y-126879762D01*
X179449457Y-126832143D01*
X179639933Y-126784524D01*
X179878028Y-126784524D01*
X180068504Y-126832143D01*
X180163742Y-126879762D01*
X180211361Y-126927381D01*
X180258980Y-127022619D01*
X180258980Y-127117857D01*
X180211361Y-127213095D01*
X180163742Y-127260714D01*
X180068504Y-127308333D01*
X179878028Y-127355952D01*
X179639933Y-127355952D01*
X179449457Y-127308333D01*
X179354219Y-127260714D01*
X179306600Y-127213095D01*
X179258980Y-127117857D01*
X180233580Y-130748066D02*
X179757390Y-131081400D01*
X180233580Y-131319495D02*
X179233580Y-131319495D01*
X179233580Y-130938542D01*
X179281200Y-130843304D01*
X179328819Y-130795685D01*
X179424057Y-130748066D01*
X179566914Y-130748066D01*
X179662152Y-130795685D01*
X179709771Y-130843304D01*
X179757390Y-130938542D01*
X179757390Y-131319495D01*
X180233580Y-130271876D02*
X180233580Y-130081400D01*
X180185961Y-129986161D01*
X180138342Y-129938542D01*
X179995485Y-129843304D01*
X179805009Y-129795685D01*
X179424057Y-129795685D01*
X179328819Y-129843304D01*
X179281200Y-129890923D01*
X179233580Y-129986161D01*
X179233580Y-130176638D01*
X179281200Y-130271876D01*
X179328819Y-130319495D01*
X179424057Y-130367114D01*
X179662152Y-130367114D01*
X179757390Y-130319495D01*
X179805009Y-130271876D01*
X179852628Y-130176638D01*
X179852628Y-129986161D01*
X179805009Y-129890923D01*
X179757390Y-129843304D01*
X179662152Y-129795685D01*
X205335505Y-66041807D02*
X205002172Y-65565617D01*
X204764076Y-66041807D02*
X204764076Y-65041807D01*
X205145029Y-65041807D01*
X205240267Y-65089427D01*
X205287886Y-65137046D01*
X205335505Y-65232284D01*
X205335505Y-65375141D01*
X205287886Y-65470379D01*
X205240267Y-65517998D01*
X205145029Y-65565617D01*
X204764076Y-65565617D01*
X205906933Y-65470379D02*
X205811695Y-65422760D01*
X205764076Y-65375141D01*
X205716457Y-65279903D01*
X205716457Y-65232284D01*
X205764076Y-65137046D01*
X205811695Y-65089427D01*
X205906933Y-65041807D01*
X206097410Y-65041807D01*
X206192648Y-65089427D01*
X206240267Y-65137046D01*
X206287886Y-65232284D01*
X206287886Y-65279903D01*
X206240267Y-65375141D01*
X206192648Y-65422760D01*
X206097410Y-65470379D01*
X205906933Y-65470379D01*
X205811695Y-65517998D01*
X205764076Y-65565617D01*
X205716457Y-65660855D01*
X205716457Y-65851331D01*
X205764076Y-65946569D01*
X205811695Y-65994188D01*
X205906933Y-66041807D01*
X206097410Y-66041807D01*
X206192648Y-65994188D01*
X206240267Y-65946569D01*
X206287886Y-65851331D01*
X206287886Y-65660855D01*
X206240267Y-65565617D01*
X206192648Y-65517998D01*
X206097410Y-65470379D01*
X205335505Y-64517807D02*
X205002172Y-64041617D01*
X204764076Y-64517807D02*
X204764076Y-63517807D01*
X205145029Y-63517807D01*
X205240267Y-63565427D01*
X205287886Y-63613046D01*
X205335505Y-63708284D01*
X205335505Y-63851141D01*
X205287886Y-63946379D01*
X205240267Y-63993998D01*
X205145029Y-64041617D01*
X204764076Y-64041617D01*
X205668838Y-63517807D02*
X206335505Y-63517807D01*
X205906933Y-64517807D01*
X176931580Y-128689286D02*
X176455390Y-129022620D01*
X176931580Y-129260715D02*
X175931580Y-129260715D01*
X175931580Y-128879762D01*
X175979200Y-128784524D01*
X176026819Y-128736905D01*
X176122057Y-128689286D01*
X176264914Y-128689286D01*
X176360152Y-128736905D01*
X176407771Y-128784524D01*
X176455390Y-128879762D01*
X176455390Y-129260715D01*
X175931580Y-127832143D02*
X175931580Y-128022620D01*
X175979200Y-128117858D01*
X176026819Y-128165477D01*
X176169676Y-128260715D01*
X176360152Y-128308334D01*
X176741104Y-128308334D01*
X176836342Y-128260715D01*
X176883961Y-128213096D01*
X176931580Y-128117858D01*
X176931580Y-127927381D01*
X176883961Y-127832143D01*
X176836342Y-127784524D01*
X176741104Y-127736905D01*
X176503009Y-127736905D01*
X176407771Y-127784524D01*
X176360152Y-127832143D01*
X176312533Y-127927381D01*
X176312533Y-128117858D01*
X176360152Y-128213096D01*
X176407771Y-128260715D01*
X176503009Y-128308334D01*
X178734980Y-128689286D02*
X178258790Y-129022620D01*
X178734980Y-129260715D02*
X177734980Y-129260715D01*
X177734980Y-128879762D01*
X177782600Y-128784524D01*
X177830219Y-128736905D01*
X177925457Y-128689286D01*
X178068314Y-128689286D01*
X178163552Y-128736905D01*
X178211171Y-128784524D01*
X178258790Y-128879762D01*
X178258790Y-129260715D01*
X177734980Y-127784524D02*
X177734980Y-128260715D01*
X178211171Y-128308334D01*
X178163552Y-128260715D01*
X178115933Y-128165477D01*
X178115933Y-127927381D01*
X178163552Y-127832143D01*
X178211171Y-127784524D01*
X178306409Y-127736905D01*
X178544504Y-127736905D01*
X178639742Y-127784524D01*
X178687361Y-127832143D01*
X178734980Y-127927381D01*
X178734980Y-128165477D01*
X178687361Y-128260715D01*
X178639742Y-128308334D01*
X202287505Y-66130707D02*
X201954172Y-65654517D01*
X201716076Y-66130707D02*
X201716076Y-65130707D01*
X202097029Y-65130707D01*
X202192267Y-65178327D01*
X202239886Y-65225946D01*
X202287505Y-65321184D01*
X202287505Y-65464041D01*
X202239886Y-65559279D01*
X202192267Y-65606898D01*
X202097029Y-65654517D01*
X201716076Y-65654517D01*
X203144648Y-65464041D02*
X203144648Y-66130707D01*
X202906552Y-65083088D02*
X202668457Y-65797374D01*
X203287505Y-65797374D01*
X202287505Y-64568607D02*
X201954172Y-64092417D01*
X201716076Y-64568607D02*
X201716076Y-63568607D01*
X202097029Y-63568607D01*
X202192267Y-63616227D01*
X202239886Y-63663846D01*
X202287505Y-63759084D01*
X202287505Y-63901941D01*
X202239886Y-63997179D01*
X202192267Y-64044798D01*
X202097029Y-64092417D01*
X201716076Y-64092417D01*
X202620838Y-63568607D02*
X203239886Y-63568607D01*
X202906552Y-63949560D01*
X203049410Y-63949560D01*
X203144648Y-63997179D01*
X203192267Y-64044798D01*
X203239886Y-64140036D01*
X203239886Y-64378131D01*
X203192267Y-64473369D01*
X203144648Y-64520988D01*
X203049410Y-64568607D01*
X202763695Y-64568607D01*
X202668457Y-64520988D01*
X202620838Y-64473369D01*
X176931580Y-130748066D02*
X176455390Y-131081400D01*
X176931580Y-131319495D02*
X175931580Y-131319495D01*
X175931580Y-130938542D01*
X175979200Y-130843304D01*
X176026819Y-130795685D01*
X176122057Y-130748066D01*
X176264914Y-130748066D01*
X176360152Y-130795685D01*
X176407771Y-130843304D01*
X176455390Y-130938542D01*
X176455390Y-131319495D01*
X176026819Y-130367114D02*
X175979200Y-130319495D01*
X175931580Y-130224257D01*
X175931580Y-129986161D01*
X175979200Y-129890923D01*
X176026819Y-129843304D01*
X176122057Y-129795685D01*
X176217295Y-129795685D01*
X176360152Y-129843304D01*
X176931580Y-130414733D01*
X176931580Y-129795685D01*
X178734980Y-130722666D02*
X178258790Y-131056000D01*
X178734980Y-131294095D02*
X177734980Y-131294095D01*
X177734980Y-130913142D01*
X177782600Y-130817904D01*
X177830219Y-130770285D01*
X177925457Y-130722666D01*
X178068314Y-130722666D01*
X178163552Y-130770285D01*
X178211171Y-130817904D01*
X178258790Y-130913142D01*
X178258790Y-131294095D01*
X178734980Y-129770285D02*
X178734980Y-130341714D01*
X178734980Y-130056000D02*
X177734980Y-130056000D01*
X177877838Y-130151238D01*
X177973076Y-130246476D01*
X178020695Y-130341714D01*
X208478814Y-67470569D02*
X208431195Y-67518188D01*
X208288338Y-67565807D01*
X208193100Y-67565807D01*
X208050243Y-67518188D01*
X207955005Y-67422950D01*
X207907386Y-67327712D01*
X207859767Y-67137236D01*
X207859767Y-66994379D01*
X207907386Y-66803903D01*
X207955005Y-66708665D01*
X208050243Y-66613427D01*
X208193100Y-66565807D01*
X208288338Y-66565807D01*
X208431195Y-66613427D01*
X208478814Y-66661046D01*
X209431195Y-67565807D02*
X208859767Y-67565807D01*
X209145481Y-67565807D02*
X209145481Y-66565807D01*
X209050243Y-66708665D01*
X208955005Y-66803903D01*
X208859767Y-66851522D01*
X209764529Y-66565807D02*
X210383576Y-66565807D01*
X210050243Y-66946760D01*
X210193100Y-66946760D01*
X210288338Y-66994379D01*
X210335957Y-67041998D01*
X210383576Y-67137236D01*
X210383576Y-67375331D01*
X210335957Y-67470569D01*
X210288338Y-67518188D01*
X210193100Y-67565807D01*
X209907386Y-67565807D01*
X209812148Y-67518188D01*
X209764529Y-67470569D01*
X180163742Y-125577786D02*
X180211361Y-125625405D01*
X180258980Y-125768262D01*
X180258980Y-125863500D01*
X180211361Y-126006357D01*
X180116123Y-126101595D01*
X180020885Y-126149214D01*
X179830409Y-126196833D01*
X179687552Y-126196833D01*
X179497076Y-126149214D01*
X179401838Y-126101595D01*
X179306600Y-126006357D01*
X179258980Y-125863500D01*
X179258980Y-125768262D01*
X179306600Y-125625405D01*
X179354219Y-125577786D01*
X180258980Y-124625405D02*
X180258980Y-125196833D01*
X180258980Y-124911119D02*
X179258980Y-124911119D01*
X179401838Y-125006357D01*
X179497076Y-125101595D01*
X179544695Y-125196833D01*
X180258980Y-123673024D02*
X180258980Y-124244452D01*
X180258980Y-123958738D02*
X179258980Y-123958738D01*
X179401838Y-124053976D01*
X179497076Y-124149214D01*
X179544695Y-124244452D01*
X208447005Y-65946569D02*
X208399386Y-65994188D01*
X208256529Y-66041807D01*
X208161291Y-66041807D01*
X208018433Y-65994188D01*
X207923195Y-65898950D01*
X207875576Y-65803712D01*
X207827957Y-65613236D01*
X207827957Y-65470379D01*
X207875576Y-65279903D01*
X207923195Y-65184665D01*
X208018433Y-65089427D01*
X208161291Y-65041807D01*
X208256529Y-65041807D01*
X208399386Y-65089427D01*
X208447005Y-65137046D01*
X209018433Y-65470379D02*
X208923195Y-65422760D01*
X208875576Y-65375141D01*
X208827957Y-65279903D01*
X208827957Y-65232284D01*
X208875576Y-65137046D01*
X208923195Y-65089427D01*
X209018433Y-65041807D01*
X209208910Y-65041807D01*
X209304148Y-65089427D01*
X209351767Y-65137046D01*
X209399386Y-65232284D01*
X209399386Y-65279903D01*
X209351767Y-65375141D01*
X209304148Y-65422760D01*
X209208910Y-65470379D01*
X209018433Y-65470379D01*
X208923195Y-65517998D01*
X208875576Y-65565617D01*
X208827957Y-65660855D01*
X208827957Y-65851331D01*
X208875576Y-65946569D01*
X208923195Y-65994188D01*
X209018433Y-66041807D01*
X209208910Y-66041807D01*
X209304148Y-65994188D01*
X209351767Y-65946569D01*
X209399386Y-65851331D01*
X209399386Y-65660855D01*
X209351767Y-65565617D01*
X209304148Y-65517998D01*
X209208910Y-65470379D01*
X208447005Y-64422569D02*
X208399386Y-64470188D01*
X208256529Y-64517807D01*
X208161291Y-64517807D01*
X208018433Y-64470188D01*
X207923195Y-64374950D01*
X207875576Y-64279712D01*
X207827957Y-64089236D01*
X207827957Y-63946379D01*
X207875576Y-63755903D01*
X207923195Y-63660665D01*
X208018433Y-63565427D01*
X208161291Y-63517807D01*
X208256529Y-63517807D01*
X208399386Y-63565427D01*
X208447005Y-63613046D01*
X208780338Y-63517807D02*
X209447005Y-63517807D01*
X209018433Y-64517807D01*
X176836342Y-125577786D02*
X176883961Y-125625405D01*
X176931580Y-125768262D01*
X176931580Y-125863500D01*
X176883961Y-126006358D01*
X176788723Y-126101596D01*
X176693485Y-126149215D01*
X176503009Y-126196834D01*
X176360152Y-126196834D01*
X176169676Y-126149215D01*
X176074438Y-126101596D01*
X175979200Y-126006358D01*
X175931580Y-125863500D01*
X175931580Y-125768262D01*
X175979200Y-125625405D01*
X176026819Y-125577786D01*
X175931580Y-124720643D02*
X175931580Y-124911120D01*
X175979200Y-125006358D01*
X176026819Y-125053977D01*
X176169676Y-125149215D01*
X176360152Y-125196834D01*
X176741104Y-125196834D01*
X176836342Y-125149215D01*
X176883961Y-125101596D01*
X176931580Y-125006358D01*
X176931580Y-124815881D01*
X176883961Y-124720643D01*
X176836342Y-124673024D01*
X176741104Y-124625405D01*
X176503009Y-124625405D01*
X176407771Y-124673024D01*
X176360152Y-124720643D01*
X176312533Y-124815881D01*
X176312533Y-125006358D01*
X176360152Y-125101596D01*
X176407771Y-125149215D01*
X176503009Y-125196834D01*
X178639742Y-125609595D02*
X178687361Y-125657214D01*
X178734980Y-125800071D01*
X178734980Y-125895309D01*
X178687361Y-126038167D01*
X178592123Y-126133405D01*
X178496885Y-126181024D01*
X178306409Y-126228643D01*
X178163552Y-126228643D01*
X177973076Y-126181024D01*
X177877838Y-126133405D01*
X177782600Y-126038167D01*
X177734980Y-125895309D01*
X177734980Y-125800071D01*
X177782600Y-125657214D01*
X177830219Y-125609595D01*
X177734980Y-124704833D02*
X177734980Y-125181024D01*
X178211171Y-125228643D01*
X178163552Y-125181024D01*
X178115933Y-125085786D01*
X178115933Y-124847690D01*
X178163552Y-124752452D01*
X178211171Y-124704833D01*
X178306409Y-124657214D01*
X178544504Y-124657214D01*
X178639742Y-124704833D01*
X178687361Y-124752452D01*
X178734980Y-124847690D01*
X178734980Y-125085786D01*
X178687361Y-125181024D01*
X178639742Y-125228643D01*
X205434561Y-94651262D02*
X205482180Y-94508405D01*
X205482180Y-94270309D01*
X205434561Y-94175071D01*
X205386942Y-94127452D01*
X205291704Y-94079833D01*
X205196466Y-94079833D01*
X205101228Y-94127452D01*
X205053609Y-94175071D01*
X205005990Y-94270309D01*
X204958371Y-94460786D01*
X204910752Y-94556024D01*
X204863133Y-94603643D01*
X204767895Y-94651262D01*
X204672657Y-94651262D01*
X204577419Y-94603643D01*
X204529800Y-94556024D01*
X204482180Y-94460786D01*
X204482180Y-94222690D01*
X204529800Y-94079833D01*
X204482180Y-93746500D02*
X205482180Y-93508405D01*
X204767895Y-93317929D01*
X205482180Y-93127452D01*
X204482180Y-92889357D01*
X204577419Y-92556024D02*
X204529800Y-92508405D01*
X204482180Y-92413167D01*
X204482180Y-92175071D01*
X204529800Y-92079833D01*
X204577419Y-92032214D01*
X204672657Y-91984595D01*
X204767895Y-91984595D01*
X204910752Y-92032214D01*
X205482180Y-92603643D01*
X205482180Y-91984595D01*
X197623133Y-79636571D02*
X197575514Y-79684190D01*
X197432657Y-79731809D01*
X197337419Y-79731809D01*
X197194561Y-79684190D01*
X197099323Y-79588952D01*
X197051704Y-79493714D01*
X197004085Y-79303238D01*
X197004085Y-79160381D01*
X197051704Y-78969905D01*
X197099323Y-78874667D01*
X197194561Y-78779429D01*
X197337419Y-78731809D01*
X197432657Y-78731809D01*
X197575514Y-78779429D01*
X197623133Y-78827048D01*
X198480276Y-79065143D02*
X198480276Y-79731809D01*
X198242180Y-78684190D02*
X198004085Y-79398476D01*
X198623133Y-79398476D01*
X208432942Y-98114095D02*
X208480561Y-98161714D01*
X208528180Y-98304571D01*
X208528180Y-98399809D01*
X208480561Y-98542667D01*
X208385323Y-98637905D01*
X208290085Y-98685524D01*
X208099609Y-98733143D01*
X207956752Y-98733143D01*
X207766276Y-98685524D01*
X207671038Y-98637905D01*
X207575800Y-98542667D01*
X207528180Y-98399809D01*
X207528180Y-98304571D01*
X207575800Y-98161714D01*
X207623419Y-98114095D01*
X207528180Y-97780762D02*
X207528180Y-97161714D01*
X207909133Y-97495048D01*
X207909133Y-97352190D01*
X207956752Y-97256952D01*
X208004371Y-97209333D01*
X208099609Y-97161714D01*
X208337704Y-97161714D01*
X208432942Y-97209333D01*
X208480561Y-97256952D01*
X208528180Y-97352190D01*
X208528180Y-97637905D01*
X208480561Y-97733143D01*
X208432942Y-97780762D01*
X197953333Y-113926571D02*
X197905714Y-113974190D01*
X197762857Y-114021809D01*
X197667619Y-114021809D01*
X197524761Y-113974190D01*
X197429523Y-113878952D01*
X197381904Y-113783714D01*
X197334285Y-113593238D01*
X197334285Y-113450381D01*
X197381904Y-113259905D01*
X197429523Y-113164667D01*
X197524761Y-113069429D01*
X197667619Y-113021809D01*
X197762857Y-113021809D01*
X197905714Y-113069429D01*
X197953333Y-113117048D01*
X198334285Y-113117048D02*
X198381904Y-113069429D01*
X198477142Y-113021809D01*
X198715238Y-113021809D01*
X198810476Y-113069429D01*
X198858095Y-113117048D01*
X198905714Y-113212286D01*
X198905714Y-113307524D01*
X198858095Y-113450381D01*
X198286666Y-114021809D01*
X198905714Y-114021809D01*
X187797442Y-97923595D02*
X187845061Y-97971214D01*
X187892680Y-98114071D01*
X187892680Y-98209309D01*
X187845061Y-98352167D01*
X187749823Y-98447405D01*
X187654585Y-98495024D01*
X187464109Y-98542643D01*
X187321252Y-98542643D01*
X187130776Y-98495024D01*
X187035538Y-98447405D01*
X186940300Y-98352167D01*
X186892680Y-98209309D01*
X186892680Y-98114071D01*
X186940300Y-97971214D01*
X186987919Y-97923595D01*
X187892680Y-96971214D02*
X187892680Y-97542643D01*
X187892680Y-97256929D02*
X186892680Y-97256929D01*
X187035538Y-97352167D01*
X187130776Y-97447405D01*
X187178395Y-97542643D01*
X185480781Y-90130768D02*
X186187888Y-89423662D01*
X186356247Y-89592020D01*
X186423590Y-89726707D01*
X186423590Y-89861394D01*
X186389918Y-89962410D01*
X186288903Y-90130768D01*
X186187888Y-90231784D01*
X186019529Y-90332799D01*
X185918514Y-90366471D01*
X185783827Y-90366471D01*
X185649140Y-90299127D01*
X185480781Y-90130768D01*
X186558277Y-91208265D02*
X186154216Y-90804204D01*
X186356247Y-91006234D02*
X187063354Y-90299127D01*
X186894995Y-90332799D01*
X186760308Y-90332799D01*
X186659293Y-90299127D01*
X187905147Y-91140921D02*
X187568430Y-90804204D01*
X187198041Y-91107249D01*
X187265384Y-91107249D01*
X187366399Y-91140921D01*
X187534758Y-91309280D01*
X187568430Y-91410295D01*
X187568430Y-91477639D01*
X187534758Y-91578654D01*
X187366399Y-91747013D01*
X187265384Y-91780684D01*
X187198041Y-91780684D01*
X187097025Y-91747013D01*
X186928667Y-91578654D01*
X186894995Y-91477639D01*
X186894995Y-91410295D01*
X195504543Y-85697994D02*
X194504543Y-85697994D01*
X194504543Y-85459899D01*
X194552163Y-85317041D01*
X194647401Y-85221803D01*
X194742639Y-85174184D01*
X194933115Y-85126565D01*
X195075972Y-85126565D01*
X195266448Y-85174184D01*
X195361686Y-85221803D01*
X195456924Y-85317041D01*
X195504543Y-85459899D01*
X195504543Y-85697994D01*
X195504543Y-84174184D02*
X195504543Y-84745613D01*
X195504543Y-84459899D02*
X194504543Y-84459899D01*
X194647401Y-84555137D01*
X194742639Y-84650375D01*
X194790258Y-84745613D01*
X183426052Y-95421903D02*
X183808736Y-94498023D01*
X184028707Y-94589139D01*
X184142467Y-94687802D01*
X184194009Y-94812236D01*
X184201557Y-94918448D01*
X184172659Y-95112648D01*
X184117990Y-95244631D01*
X184001104Y-95402385D01*
X183920664Y-95472150D01*
X183796229Y-95523693D01*
X183646023Y-95513018D01*
X183426052Y-95421903D01*
X184833869Y-96005040D02*
X184305937Y-95786363D01*
X184569903Y-95895702D02*
X184952586Y-94971822D01*
X184809929Y-95067359D01*
X184685494Y-95118901D01*
X184579283Y-95126449D01*
X185880888Y-95717134D02*
X185625765Y-96333054D01*
X185806700Y-95274065D02*
X185313384Y-95842864D01*
X185885309Y-96079763D01*
X183548277Y-101097739D02*
X183548277Y-100097739D01*
X183786372Y-100097739D01*
X183929229Y-100145359D01*
X184024467Y-100240597D01*
X184072086Y-100335835D01*
X184119705Y-100526311D01*
X184119705Y-100669168D01*
X184072086Y-100859644D01*
X184024467Y-100954882D01*
X183929229Y-101050120D01*
X183786372Y-101097739D01*
X183548277Y-101097739D01*
X185072086Y-101097739D02*
X184500658Y-101097739D01*
X184786372Y-101097739D02*
X184786372Y-100097739D01*
X184691134Y-100240597D01*
X184595896Y-100335835D01*
X184500658Y-100383454D01*
X185405420Y-100097739D02*
X186024467Y-100097739D01*
X185691134Y-100478692D01*
X185833991Y-100478692D01*
X185929229Y-100526311D01*
X185976848Y-100573930D01*
X186024467Y-100669168D01*
X186024467Y-100907263D01*
X185976848Y-101002501D01*
X185929229Y-101050120D01*
X185833991Y-101097739D01*
X185548277Y-101097739D01*
X185453039Y-101050120D01*
X185405420Y-101002501D01*
X185836407Y-106291123D02*
X185453724Y-105367243D01*
X185673695Y-105276128D01*
X185823901Y-105265454D01*
X185948336Y-105316996D01*
X186028776Y-105386762D01*
X186145662Y-105544516D01*
X186200331Y-105676498D01*
X186229229Y-105870698D01*
X186221681Y-105976910D01*
X186170139Y-106101345D01*
X186056379Y-106200008D01*
X185836407Y-106291123D01*
X187244224Y-105707986D02*
X186716293Y-105926663D01*
X186980258Y-105817324D02*
X186597575Y-104893445D01*
X186564255Y-105061874D01*
X186512713Y-105186308D01*
X186442947Y-105266749D01*
X187249941Y-104726311D02*
X187275712Y-104664094D01*
X187345477Y-104583654D01*
X187565449Y-104492539D01*
X187671660Y-104500087D01*
X187733878Y-104525858D01*
X187814318Y-104595623D01*
X187850764Y-104683612D01*
X187861439Y-104833818D01*
X187552184Y-105580425D01*
X188124109Y-105343526D01*
X189935972Y-110209120D02*
X189228866Y-109502013D01*
X189397224Y-109333654D01*
X189531911Y-109266311D01*
X189666598Y-109266311D01*
X189767614Y-109299983D01*
X189935972Y-109400998D01*
X190036988Y-109502013D01*
X190138003Y-109670372D01*
X190171675Y-109771387D01*
X190171675Y-109906074D01*
X190104331Y-110040761D01*
X189935972Y-110209120D01*
X191013469Y-109131624D02*
X190609408Y-109535685D01*
X190811438Y-109333654D02*
X190104331Y-108626547D01*
X190138003Y-108794906D01*
X190138003Y-108929593D01*
X190104331Y-109030609D01*
X191686904Y-108458189D02*
X191282843Y-108862250D01*
X191484873Y-108660219D02*
X190777766Y-107953112D01*
X190811438Y-108121471D01*
X190811438Y-108256158D01*
X190777766Y-108357173D01*
X195224567Y-112271469D02*
X194300687Y-111888785D01*
X194391803Y-111668814D01*
X194490466Y-111555054D01*
X194614900Y-111503512D01*
X194721112Y-111495964D01*
X194915312Y-111524862D01*
X195047295Y-111579531D01*
X195205049Y-111696417D01*
X195274814Y-111776857D01*
X195326357Y-111901292D01*
X195315682Y-112051498D01*
X195224567Y-112271469D01*
X195807704Y-110863652D02*
X195589027Y-111391584D01*
X195698366Y-111127618D02*
X194774486Y-110744935D01*
X194870023Y-110887592D01*
X194921565Y-111012027D01*
X194929113Y-111118238D01*
X195120723Y-109909044D02*
X195157169Y-109821055D01*
X195237610Y-109751290D01*
X195299827Y-109725518D01*
X195406039Y-109717970D01*
X195600239Y-109746868D01*
X195820210Y-109837983D01*
X195977964Y-109954869D01*
X196047729Y-110035310D01*
X196073501Y-110097527D01*
X196081049Y-110203739D01*
X196044603Y-110291727D01*
X195964163Y-110361493D01*
X195901945Y-110387264D01*
X195795734Y-110394812D01*
X195601534Y-110365914D01*
X195381562Y-110274799D01*
X195223808Y-110157913D01*
X195154043Y-110077472D01*
X195128272Y-110015255D01*
X195120723Y-109909044D01*
X200900403Y-111673054D02*
X199900403Y-111673054D01*
X199900403Y-111434959D01*
X199948023Y-111292101D01*
X200043261Y-111196863D01*
X200138499Y-111149244D01*
X200328975Y-111101625D01*
X200471832Y-111101625D01*
X200662308Y-111149244D01*
X200757546Y-111196863D01*
X200852784Y-111292101D01*
X200900403Y-111434959D01*
X200900403Y-111673054D01*
X200900403Y-110625435D02*
X200900403Y-110434959D01*
X200852784Y-110339720D01*
X200805165Y-110292101D01*
X200662308Y-110196863D01*
X200471832Y-110149244D01*
X200090880Y-110149244D01*
X199995642Y-110196863D01*
X199948023Y-110244482D01*
X199900403Y-110339720D01*
X199900403Y-110530197D01*
X199948023Y-110625435D01*
X199995642Y-110673054D01*
X200090880Y-110720673D01*
X200328975Y-110720673D01*
X200424213Y-110673054D01*
X200471832Y-110625435D01*
X200519451Y-110530197D01*
X200519451Y-110339720D01*
X200471832Y-110244482D01*
X200424213Y-110196863D01*
X200328975Y-110149244D01*
X204513292Y-108403586D02*
X205437172Y-108020903D01*
X205528287Y-108240874D01*
X205538962Y-108391080D01*
X205487419Y-108515514D01*
X205417654Y-108595955D01*
X205259900Y-108712841D01*
X205127917Y-108767510D01*
X204933717Y-108796408D01*
X204827505Y-108788860D01*
X204703071Y-108737317D01*
X204604407Y-108623557D01*
X204513292Y-108403586D01*
X205478576Y-109240772D02*
X205486124Y-109134561D01*
X205511895Y-109072343D01*
X205581661Y-108991903D01*
X205625655Y-108973680D01*
X205731867Y-108981228D01*
X205794084Y-109006999D01*
X205874524Y-109076765D01*
X205947416Y-109252742D01*
X205939868Y-109358954D01*
X205914097Y-109421171D01*
X205844331Y-109501611D01*
X205800337Y-109519834D01*
X205694126Y-109512286D01*
X205631908Y-109486515D01*
X205551468Y-109416749D01*
X205478576Y-109240772D01*
X205398136Y-109171007D01*
X205335918Y-109145235D01*
X205229707Y-109137687D01*
X205053730Y-109210579D01*
X204983964Y-109291020D01*
X204958193Y-109353237D01*
X204950645Y-109459448D01*
X205023537Y-109635425D01*
X205103977Y-109705191D01*
X205166194Y-109730962D01*
X205272406Y-109738510D01*
X205448383Y-109665618D01*
X205518148Y-109585178D01*
X205543920Y-109522961D01*
X205551468Y-109416749D01*
X207994019Y-105023310D02*
X208701125Y-104316203D01*
X208869484Y-104484562D01*
X208936828Y-104619249D01*
X208936828Y-104753936D01*
X208903156Y-104854951D01*
X208802141Y-105023310D01*
X208701125Y-105124325D01*
X208532767Y-105225341D01*
X208431751Y-105259012D01*
X208297064Y-105259012D01*
X208162377Y-105191669D01*
X207994019Y-105023310D01*
X209340889Y-104955966D02*
X209812293Y-105427371D01*
X208802141Y-105831432D01*
X204917262Y-104598205D02*
X204513201Y-104194144D01*
X204715232Y-104396174D02*
X205422339Y-103689067D01*
X205253980Y-103722739D01*
X205119293Y-103722739D01*
X205018278Y-103689067D01*
X209926671Y-100556621D02*
X210309354Y-99632742D01*
X210529325Y-99723857D01*
X210643085Y-99822520D01*
X210694628Y-99946955D01*
X210702176Y-100053166D01*
X210673278Y-100247366D01*
X210618609Y-100379349D01*
X210501723Y-100537103D01*
X210421282Y-100606869D01*
X210296848Y-100658411D01*
X210146642Y-100647736D01*
X209926671Y-100556621D01*
X211629182Y-100179432D02*
X211453205Y-100106540D01*
X211346993Y-100114088D01*
X211284776Y-100139860D01*
X211142119Y-100235396D01*
X211025232Y-100393150D01*
X210879448Y-100745105D01*
X210886996Y-100851316D01*
X210912768Y-100913533D01*
X210982533Y-100993974D01*
X211158510Y-101066866D01*
X211264722Y-101059318D01*
X211326939Y-101033546D01*
X211407379Y-100963781D01*
X211498494Y-100743809D01*
X211490946Y-100637598D01*
X211465175Y-100575381D01*
X211395409Y-100494940D01*
X211219432Y-100422048D01*
X211113221Y-100429596D01*
X211051003Y-100455368D01*
X210970563Y-100525133D01*
X209999527Y-95699339D02*
X209999527Y-94699339D01*
X210237623Y-94699339D01*
X210380480Y-94746959D01*
X210475718Y-94842197D01*
X210523337Y-94937435D01*
X210570956Y-95127911D01*
X210570956Y-95270768D01*
X210523337Y-95461244D01*
X210475718Y-95556482D01*
X210380480Y-95651720D01*
X210237623Y-95699339D01*
X209999527Y-95699339D01*
X211475718Y-94699339D02*
X210999527Y-94699339D01*
X210951908Y-95175530D01*
X210999527Y-95127911D01*
X211094765Y-95080292D01*
X211332861Y-95080292D01*
X211428099Y-95127911D01*
X211475718Y-95175530D01*
X211523337Y-95270768D01*
X211523337Y-95508863D01*
X211475718Y-95604101D01*
X211428099Y-95651720D01*
X211332861Y-95699339D01*
X211094765Y-95699339D01*
X210999527Y-95651720D01*
X210951908Y-95604101D01*
X208206250Y-91186769D02*
X207823567Y-90262889D01*
X208043538Y-90171774D01*
X208193744Y-90161099D01*
X208318178Y-90212642D01*
X208398619Y-90282407D01*
X208515505Y-90440161D01*
X208570174Y-90572144D01*
X208599072Y-90766344D01*
X208591524Y-90872556D01*
X208539981Y-90996990D01*
X208426221Y-91095654D01*
X208206250Y-91186769D01*
X209270956Y-90024159D02*
X209526078Y-90640078D01*
X208905200Y-89763320D02*
X208958574Y-90514349D01*
X209530500Y-90277449D01*
X204823434Y-87706042D02*
X204116327Y-86998936D01*
X204284686Y-86830577D01*
X204419373Y-86763233D01*
X204554060Y-86763233D01*
X204655075Y-86796905D01*
X204823434Y-86897920D01*
X204924449Y-86998936D01*
X205025465Y-87167294D01*
X205059136Y-87268310D01*
X205059136Y-87402997D01*
X204991793Y-87537684D01*
X204823434Y-87706042D01*
X204756090Y-86359172D02*
X205193823Y-85921439D01*
X205227495Y-86426516D01*
X205328510Y-86325500D01*
X205429526Y-86291829D01*
X205496869Y-86291829D01*
X205597884Y-86325500D01*
X205766243Y-86493859D01*
X205799915Y-86594874D01*
X205799915Y-86662218D01*
X205766243Y-86763233D01*
X205564213Y-86965264D01*
X205463197Y-86998936D01*
X205395854Y-86998936D01*
M02*
