M48
INCH,TZ
T1C0.0157
T2C0.0276
T3C0.0394
T4C0.0787
T5C0.0866
%
G90
G05
T1
X71711Y-29338
X71961Y-40962
X72105Y-35262
X72170Y-26437
X72234Y-29325
X72761Y-29311
X73173Y-42157
X73214Y-26443
X73275Y-29325
X73470Y-33712
X73736Y-26412
X73803Y-29300
X74249Y-26449
X74375Y-29325
X74920Y-43662
X75787Y-32149
X78741Y-31889
X78950Y-39375
X79075Y-36825
X79170Y-31687
X80770Y-32712
X82145Y-28937
X82170Y-28412
X82462Y-29962
X82549Y-36812
X82655Y-34350
X82873Y-29209
X83420Y-30887
X83470Y-42112
X83570Y-37687
X83595Y-39712
X83745Y-32062
X83970Y-26912
T2
X72079Y-42837
X72140Y-37571
X72271Y-46685
X72295Y-30787
X73002Y-44321
X73845Y-43712
X74295Y-30637
X74295Y-32937
X75220Y-37337
X76170Y-29237
X79120Y-45262
X79945Y-39837
X81295Y-26012
X81470Y-31137
X82445Y-27412
T3
X76876Y-30440
X77861Y-30440
X78845Y-30440
X76901Y-35637
X76901Y-41346
X77886Y-35637
X78870Y-35637
X78870Y-41346
X80501Y-45312
X81486Y-45312
X82470Y-45312
X73301Y-45262
X73301Y-50971
X74286Y-45262
X75270Y-45262
X75270Y-50971
T4
X75990Y-27487
X79731Y-27487
X79616Y-48265
X83356Y-48265
T5
X75681Y-38590
X80090Y-38590
X72081Y-48215
X76490Y-48215
T0
M30
