G04 #@! TF.GenerationSoftware,KiCad,Pcbnew,(5.1.5-0-10_14)*
G04 #@! TF.CreationDate,2020-01-23T10:54:37-08:00*
G04 #@! TF.ProjectId,AndyCabinets,416e6479-4361-4626-996e-6574732e6b69,rev?*
G04 #@! TF.SameCoordinates,Original*
G04 #@! TF.FileFunction,Copper,L2,Bot*
G04 #@! TF.FilePolarity,Positive*
%FSLAX46Y46*%
G04 Gerber Fmt 4.6, Leading zero omitted, Abs format (unit mm)*
G04 Created by KiCad (PCBNEW (5.1.5-0-10_14)) date 2020-01-23 10:54:37*
%MOMM*%
%LPD*%
G04 APERTURE LIST*
%ADD10C,2.800000*%
%ADD11C,2.000000*%
%ADD12R,2.000000X2.000000*%
%ADD13R,1.000000X3.000000*%
%ADD14C,0.050000*%
%ADD15R,2.510000X1.000000*%
%ADD16R,2.150000X3.500000*%
%ADD17O,2.150000X3.500000*%
%ADD18O,3.500000X5.000000*%
%ADD19C,1.016000*%
%ADD20C,0.800000*%
%ADD21C,0.355600*%
%ADD22C,0.500000*%
%ADD23C,0.700000*%
%ADD24C,0.203200*%
%ADD25C,0.254000*%
G04 APERTURE END LIST*
D10*
X182085800Y-122465429D03*
X193285800Y-122465429D03*
D11*
X185185800Y-114965429D03*
X187685800Y-114965429D03*
D12*
X190185800Y-114965429D03*
D13*
X209062321Y-132187800D03*
X209062321Y-127147800D03*
X206522321Y-132187800D03*
X206522321Y-127147800D03*
X203982321Y-132187800D03*
X203982321Y-127147800D03*
X201442321Y-132187800D03*
X201442321Y-127147800D03*
X198902321Y-132187800D03*
X198902321Y-127147800D03*
X196362321Y-132187800D03*
X196362321Y-127147800D03*
X193822321Y-132187800D03*
X193822321Y-127147800D03*
X191282321Y-132187800D03*
X191282321Y-127147800D03*
X188742321Y-132187800D03*
X188742321Y-127147800D03*
X186202321Y-132187800D03*
X186202321Y-127147800D03*
G04 #@! TA.AperFunction,SMDPad,CuDef*
D14*
G36*
X198420400Y-122428000D02*
G01*
X197920400Y-123178000D01*
X196920400Y-123178000D01*
X196920400Y-121678000D01*
X197920400Y-121678000D01*
X198420400Y-122428000D01*
G37*
G04 #@! TD.AperFunction*
G04 #@! TA.AperFunction,SMDPad,CuDef*
G36*
X199370400Y-123178000D02*
G01*
X198220400Y-123178000D01*
X198720400Y-122428000D01*
X198220400Y-121678000D01*
X199370400Y-121678000D01*
X199370400Y-123178000D01*
G37*
G04 #@! TD.AperFunction*
D15*
X211979363Y-72211099D03*
X211979363Y-77291099D03*
X211979363Y-82371099D03*
X211979363Y-87451099D03*
X211979363Y-92531099D03*
X208669363Y-74751099D03*
X208669363Y-79831099D03*
X208669363Y-84911099D03*
X208669363Y-89991099D03*
X208669363Y-95071099D03*
D16*
X210473800Y-115092429D03*
D17*
X207973800Y-115092429D03*
X205473800Y-115092429D03*
D18*
X212723800Y-122592429D03*
X203223800Y-122592429D03*
D16*
X195265800Y-77317600D03*
D17*
X197765800Y-77317600D03*
X200265800Y-77317600D03*
D18*
X193015800Y-69817600D03*
X202515800Y-69817600D03*
D12*
X200329800Y-90517929D03*
D11*
X197829800Y-90517929D03*
X195329800Y-90517929D03*
D10*
X203429800Y-98017929D03*
X192229800Y-98017929D03*
D11*
X200329800Y-105017929D03*
X195329800Y-105017929D03*
D15*
X186579363Y-72211099D03*
X186579363Y-77291099D03*
X186579363Y-82371099D03*
X186579363Y-87451099D03*
X186579363Y-92531099D03*
X183269363Y-74751099D03*
X183269363Y-79831099D03*
X183269363Y-84911099D03*
X183269363Y-89991099D03*
X183269363Y-95071099D03*
D19*
X201441987Y-114580614D03*
X180613987Y-97054614D03*
X185947987Y-85116614D03*
X191789987Y-82068614D03*
X217697987Y-64796614D03*
X218205987Y-66163427D03*
X217943468Y-68054236D03*
X204724000Y-83058000D03*
X176199800Y-114046000D03*
X177723800Y-113792000D03*
X179501800Y-112268000D03*
X205994000Y-110744000D03*
X204724000Y-100838000D03*
X216763600Y-69900800D03*
X181610002Y-91440000D03*
X209577955Y-86616469D03*
X185318400Y-109093000D03*
X182067200Y-103479600D03*
X212460527Y-81203810D03*
X182829200Y-126923800D03*
X210845400Y-106527600D03*
X205409800Y-92964000D03*
X186817000Y-95529400D03*
D20*
X199110600Y-119989600D03*
D19*
X183921400Y-88036400D03*
X209016600Y-123875800D03*
D20*
X178612800Y-118922800D03*
X182067200Y-118973600D03*
X190296800Y-118897400D03*
X185191400Y-118059200D03*
X176885600Y-118033800D03*
X180698628Y-117827687D03*
X200152000Y-81788000D03*
X204978000Y-66421000D03*
X204673200Y-80924400D03*
X201168000Y-81934010D03*
X206502000Y-81534000D03*
X208654610Y-67087790D03*
X178485800Y-110744000D03*
X177565010Y-77038200D03*
X176961800Y-112268000D03*
X205873379Y-73209190D03*
X205873379Y-76625410D03*
X177139602Y-75692000D03*
X209880758Y-65563790D03*
X209702400Y-73558400D03*
X218293990Y-75464614D03*
X218982310Y-67841443D03*
X180263800Y-110490000D03*
X178307175Y-74928742D03*
X217951987Y-69114614D03*
X218293990Y-72898006D03*
X180238400Y-130505200D03*
X180289200Y-119456200D03*
X202184000Y-80518000D03*
X215366598Y-71069200D03*
X216854206Y-81366338D03*
X202793600Y-82473800D03*
X208559400Y-75971400D03*
X203504800Y-76047602D03*
X210751245Y-84930155D03*
X216515990Y-110952200D03*
X200355200Y-127177800D03*
X215449190Y-85394475D03*
X216515445Y-126759849D03*
X209702400Y-83032600D03*
X212140800Y-88544400D03*
X214198200Y-88544400D03*
X213699930Y-126980990D03*
X205232000Y-127025400D03*
X214630000Y-76454000D03*
X216560400Y-127711200D03*
X195046600Y-127914400D03*
X216935987Y-83084614D03*
X213245154Y-74928168D03*
X210820000Y-89839800D03*
X211175600Y-94996000D03*
X215665010Y-95832365D03*
X205359000Y-132486400D03*
X213925190Y-78816200D03*
X215036400Y-131826002D03*
X213417190Y-93968074D03*
X213081327Y-126256822D03*
X207898998Y-126619000D03*
X217112821Y-91924724D03*
X216757210Y-90973209D03*
X217036341Y-128536165D03*
X202869800Y-128822410D03*
X214985600Y-73863200D03*
X195097400Y-132765800D03*
X213741000Y-72364600D03*
X216103204Y-131749800D03*
X218795600Y-76454000D03*
X213813307Y-77262907D03*
X218998800Y-78867000D03*
X190093600Y-133299200D03*
X217068400Y-132207000D03*
X201442321Y-132187800D03*
X213769199Y-82737826D03*
X215665010Y-82056153D03*
X215435126Y-74702851D03*
X213918800Y-131597400D03*
D21*
X217943468Y-68384413D02*
X217943468Y-68054236D01*
X217221786Y-69442614D02*
X217221786Y-68764117D01*
X217601490Y-68384413D02*
X217943468Y-68384413D01*
X217221786Y-68764117D02*
X217601490Y-68384413D01*
X216763600Y-69900800D02*
X217221786Y-69442614D01*
D22*
X199370400Y-122428000D02*
X199898000Y-121900400D01*
X198870400Y-122428000D02*
X199370400Y-122428000D01*
X199898000Y-120777000D02*
X199110600Y-119989600D01*
X199898000Y-121900400D02*
X199898000Y-120777000D01*
D23*
X183270464Y-95072200D02*
X183269363Y-95071099D01*
X185242200Y-95072200D02*
X183270464Y-95072200D01*
X185699400Y-95529400D02*
X185242200Y-95072200D01*
X186817000Y-95529400D02*
X185699400Y-95529400D01*
D21*
X186579363Y-90694363D02*
X183921400Y-88036400D01*
X186579363Y-92531099D02*
X186579363Y-90694363D01*
X209062321Y-123921521D02*
X209016600Y-123875800D01*
X209062321Y-127147800D02*
X209062321Y-123921521D01*
D24*
X190296800Y-115076429D02*
X190185800Y-114965429D01*
X190296800Y-118897400D02*
X190296800Y-115076429D01*
X181501515Y-118973600D02*
X182067200Y-118973600D01*
X178612800Y-118922800D02*
X179054015Y-118481585D01*
X179054015Y-118481585D02*
X180686508Y-118481585D01*
X180686508Y-118481585D02*
X181178523Y-118973600D01*
X181178523Y-118973600D02*
X181501515Y-118973600D01*
X185185800Y-118053600D02*
X185191400Y-118059200D01*
X185185800Y-114965429D02*
X185185800Y-118053600D01*
X176885600Y-118033800D02*
X180492515Y-118033800D01*
X180492515Y-118033800D02*
X180698628Y-117827687D01*
X198374000Y-88138000D02*
X197709729Y-88138000D01*
X197709729Y-88138000D02*
X195329800Y-90517929D01*
X200152000Y-86360000D02*
X198374000Y-88138000D01*
X200152000Y-81788000D02*
X200152000Y-86360000D01*
X204978000Y-80619600D02*
X204673200Y-80924400D01*
X204978000Y-66421000D02*
X204978000Y-80619600D01*
X201168000Y-89679729D02*
X201168000Y-81934010D01*
X200329800Y-90517929D02*
X201168000Y-89679729D01*
X206883000Y-81153000D02*
X206883000Y-68859400D01*
X206502000Y-81534000D02*
X206883000Y-81153000D01*
X206883000Y-68859400D02*
X208654610Y-67087790D01*
X178485800Y-110744000D02*
X177565010Y-109823210D01*
X177565010Y-109823210D02*
X177565010Y-77603885D01*
X177565010Y-77603885D02*
X177565010Y-77038200D01*
X205873379Y-73209190D02*
X205873379Y-76625410D01*
X176911000Y-76263396D02*
X176739603Y-76091999D01*
X176961800Y-112268000D02*
X176911000Y-112217200D01*
X176739603Y-76091999D02*
X177139602Y-75692000D01*
X176911000Y-112217200D02*
X176911000Y-76263396D01*
X209880758Y-65563790D02*
X209880758Y-73380042D01*
X209880758Y-73380042D02*
X209702400Y-73558400D01*
X218982310Y-67841443D02*
X218948000Y-67875753D01*
X218693989Y-75064615D02*
X218293990Y-75464614D01*
X218982310Y-74776294D02*
X218693989Y-75064615D01*
X218982310Y-67841443D02*
X218982310Y-74776294D01*
X178307175Y-108533375D02*
X178307175Y-74928742D01*
X180263800Y-110490000D02*
X178307175Y-108533375D01*
X217951987Y-72556003D02*
X218293990Y-72898006D01*
X217951987Y-69114614D02*
X217951987Y-72556003D01*
X180238400Y-130505200D02*
X180238400Y-119507000D01*
X180238400Y-119507000D02*
X180289200Y-119456200D01*
X202139599Y-81128086D02*
X202184000Y-81083685D01*
X200329800Y-105017929D02*
X200329800Y-93802200D01*
X200329800Y-93802200D02*
X202184000Y-91948000D01*
X202184000Y-82832122D02*
X202139599Y-82787721D01*
X202139599Y-82787721D02*
X202139599Y-81128086D01*
X202184000Y-81083685D02*
X202184000Y-80518000D01*
X202184000Y-91948000D02*
X202184000Y-82832122D01*
X216854206Y-80800653D02*
X216854206Y-81366338D01*
X215366598Y-71069200D02*
X216854206Y-72556808D01*
X216854206Y-72556808D02*
X216854206Y-80800653D01*
X208559400Y-74861062D02*
X208669363Y-74751099D01*
X208559400Y-75971400D02*
X208559400Y-74861062D01*
X202793600Y-82473800D02*
X203504800Y-81762600D01*
X203504800Y-81762600D02*
X203504800Y-76047602D01*
X210732189Y-84911099D02*
X210751245Y-84930155D01*
X208669363Y-84911099D02*
X210732189Y-84911099D01*
X200325200Y-127147800D02*
X200355200Y-127177800D01*
X198902321Y-127147800D02*
X200325200Y-127147800D01*
X216515990Y-126759304D02*
X216515445Y-126759849D01*
X216515990Y-110952200D02*
X216515990Y-126759304D01*
X216515990Y-110952200D02*
X216515990Y-95740821D01*
X215747589Y-85692874D02*
X215449190Y-85394475D01*
X216515990Y-95740821D02*
X215747589Y-94972420D01*
X215747589Y-94972420D02*
X215747589Y-85692874D01*
X211979363Y-87451099D02*
X211979363Y-84743878D01*
X211979363Y-84743878D02*
X210268085Y-83032600D01*
X210268085Y-83032600D02*
X209702400Y-83032600D01*
X211979363Y-88382963D02*
X212140800Y-88544400D01*
X211979363Y-87451099D02*
X211979363Y-88382963D01*
X215188811Y-110305637D02*
X215150766Y-110343682D01*
X215150766Y-125530154D02*
X214099929Y-126580991D01*
X215188811Y-97058502D02*
X215188811Y-110305637D01*
X215150766Y-110343682D02*
X215150766Y-125530154D01*
X214198200Y-96067891D02*
X215188811Y-97058502D01*
X214099929Y-126580991D02*
X213699930Y-126980990D01*
X214198200Y-88544400D02*
X214198200Y-96067891D01*
X203982321Y-127147800D02*
X205109600Y-127147800D01*
X205109600Y-127147800D02*
X205232000Y-127025400D01*
X214630000Y-77019685D02*
X215011000Y-77400685D01*
X214630000Y-76454000D02*
X214630000Y-77019685D01*
X215011000Y-77400685D02*
X215011000Y-84023200D01*
X215011000Y-84023200D02*
X216103200Y-85115400D01*
X216103200Y-85115400D02*
X216103200Y-91948000D01*
X216103200Y-91948000D02*
X216103200Y-94640400D01*
X216103200Y-94640400D02*
X217195400Y-95732600D01*
X217195400Y-95732600D02*
X217195400Y-127127000D01*
X216611200Y-127711200D02*
X216560400Y-127711200D01*
X217195400Y-127127000D02*
X216611200Y-127711200D01*
X194588921Y-127914400D02*
X193822321Y-127147800D01*
X195046600Y-127914400D02*
X194588921Y-127914400D01*
X211979363Y-72211099D02*
X211979363Y-73662377D01*
X211979363Y-73662377D02*
X213245154Y-74928168D01*
X210668701Y-89991099D02*
X210820000Y-89839800D01*
X208669363Y-89991099D02*
X210668701Y-89991099D01*
X208669363Y-95071099D02*
X211100501Y-95071099D01*
X211100501Y-95071099D02*
X211175600Y-94996000D01*
X203982321Y-132187800D02*
X205060400Y-132187800D01*
X205060400Y-132187800D02*
X205359000Y-132486400D01*
X215207812Y-86087446D02*
X214604611Y-85484245D01*
X214401389Y-82570298D02*
X214401389Y-79292399D01*
X215665010Y-95832365D02*
X215207812Y-95375167D01*
X214604611Y-82773520D02*
X214401389Y-82570298D01*
X214325189Y-79216199D02*
X213925190Y-78816200D01*
X214604611Y-85484245D02*
X214604611Y-82773520D01*
X215207812Y-95375167D02*
X215207812Y-86087446D01*
X214401389Y-79292399D02*
X214325189Y-79216199D01*
X215861988Y-110638278D02*
X215861988Y-126445384D01*
X216065009Y-110435257D02*
X215861988Y-110638278D01*
X215036400Y-131260317D02*
X215036400Y-131826002D01*
X215861988Y-126445384D02*
X215036400Y-127270972D01*
X215036400Y-127270972D02*
X215036400Y-131260317D01*
X215665010Y-95832365D02*
X216065009Y-96232364D01*
X216065009Y-96232364D02*
X216065009Y-110435257D01*
X212713138Y-93968074D02*
X213417190Y-93968074D01*
X211979363Y-92531099D02*
X211979363Y-93234299D01*
X211979363Y-93234299D02*
X212713138Y-93968074D01*
X214795155Y-124542994D02*
X213481326Y-125856823D01*
X214833200Y-110158339D02*
X214795155Y-110196384D01*
X213481326Y-125856823D02*
X213081327Y-126256822D01*
X213417190Y-93968074D02*
X213417190Y-95789790D01*
X214833200Y-97205800D02*
X214833200Y-110158339D01*
X213417190Y-95789790D02*
X214833200Y-97205800D01*
X214795155Y-110196384D02*
X214795155Y-124542994D01*
X207498999Y-127018999D02*
X207898998Y-126619000D01*
X206522321Y-127147800D02*
X207370198Y-127147800D01*
X207370198Y-127147800D02*
X207498999Y-127018999D01*
X217512820Y-91524725D02*
X217112821Y-91924724D01*
X216935987Y-83084614D02*
X217512820Y-83661447D01*
X217512820Y-83661447D02*
X217512820Y-91524725D01*
X216757210Y-90973209D02*
X216458811Y-91271608D01*
X217436340Y-128136166D02*
X217036341Y-128536165D01*
X216458811Y-91271608D02*
X216458811Y-94437211D01*
X217551011Y-128021495D02*
X217436340Y-128136166D01*
X216458811Y-94437211D02*
X217551011Y-95529411D01*
X217551011Y-95529411D02*
X217551011Y-128021495D01*
X202869800Y-127872079D02*
X202869800Y-128822410D01*
X201442321Y-127147800D02*
X202145521Y-127147800D01*
X202145521Y-127147800D02*
X202869800Y-127872079D01*
X216013582Y-75092317D02*
X216089127Y-75016772D01*
X216319011Y-81742232D02*
X216013582Y-81436803D01*
X216281009Y-82636236D02*
X216319011Y-82598234D01*
X216089127Y-75016772D02*
X216089127Y-74401042D01*
X216319011Y-82598234D02*
X216319011Y-81742232D01*
X216281009Y-84714101D02*
X216281009Y-82636236D01*
X216089127Y-74401042D02*
X215551285Y-73863200D01*
X215551285Y-73863200D02*
X214985600Y-73863200D01*
X216757210Y-85190302D02*
X216281009Y-84714101D01*
X216757210Y-90973209D02*
X216757210Y-85190302D01*
X216013582Y-81436803D02*
X216013582Y-75092317D01*
X194400321Y-132765800D02*
X193822321Y-132187800D01*
X195097400Y-132765800D02*
X194400321Y-132765800D01*
X211979363Y-72211099D02*
X213587499Y-72211099D01*
X213587499Y-72211099D02*
X213741000Y-72364600D01*
X218395601Y-76853999D02*
X218795600Y-76454000D01*
X216103204Y-131749800D02*
X218160600Y-129692404D01*
X218160600Y-129692404D02*
X218160600Y-77089000D01*
X218160600Y-77089000D02*
X218395601Y-76853999D01*
X211979363Y-77291099D02*
X213785115Y-77291099D01*
X213785115Y-77291099D02*
X213813307Y-77262907D01*
X189853721Y-133299200D02*
X188742321Y-132187800D01*
X190093600Y-133299200D02*
X189853721Y-133299200D01*
X218998800Y-78867000D02*
X218998800Y-130276600D01*
X218998800Y-130276600D02*
X217068400Y-132207000D01*
X211979363Y-82371099D02*
X213437563Y-82371099D01*
X213769199Y-82702735D02*
X213769199Y-82737826D01*
X213437563Y-82371099D02*
X213769199Y-82702735D01*
X215435126Y-81826269D02*
X215435126Y-75268536D01*
X215435126Y-75268536D02*
X215435126Y-74702851D01*
X215665010Y-82056153D02*
X215435126Y-81826269D01*
X213918800Y-131031715D02*
X213918800Y-131597400D01*
X211979363Y-82371099D02*
X211979363Y-83361906D01*
X215544422Y-96911204D02*
X215544422Y-110452935D01*
X213918800Y-127885663D02*
X213918800Y-131031715D01*
X214852201Y-86234744D02*
X214852201Y-96218983D01*
X215544422Y-110452935D02*
X215506377Y-110490980D01*
X215506377Y-126298086D02*
X213918800Y-127885663D01*
X215506377Y-110490980D02*
X215506377Y-126298086D01*
X211979363Y-83361906D02*
X214852201Y-86234744D01*
X214852201Y-96218983D02*
X215544422Y-96911204D01*
D23*
X195032800Y-124815600D02*
X197420400Y-122428000D01*
X187325000Y-124815600D02*
X195032800Y-124815600D01*
X186202321Y-125938279D02*
X187325000Y-124815600D01*
X186202321Y-127147800D02*
X186202321Y-125938279D01*
D25*
G36*
X217860315Y-63393118D02*
G01*
X217939958Y-63395609D01*
X218012822Y-63400579D01*
X218082923Y-63407902D01*
X218151964Y-63417615D01*
X218217416Y-63429181D01*
X218280963Y-63442694D01*
X218343332Y-63458229D01*
X218402598Y-63475174D01*
X218460743Y-63493977D01*
X218517771Y-63514625D01*
X218571656Y-63536276D01*
X218623233Y-63559091D01*
X218676079Y-63584744D01*
X218725294Y-63610876D01*
X218770914Y-63637223D01*
X218815290Y-63665012D01*
X218858766Y-63694516D01*
X218899201Y-63724227D01*
X218937568Y-63754712D01*
X218975453Y-63787314D01*
X219009800Y-63819363D01*
X219045433Y-63855561D01*
X219078518Y-63892365D01*
X219107449Y-63927666D01*
X219134472Y-63963927D01*
X219160062Y-64001984D01*
X219183045Y-64040220D01*
X219204308Y-64080272D01*
X219222645Y-64119975D01*
X219238770Y-64160910D01*
X219252370Y-64202624D01*
X219263857Y-64247343D01*
X219272345Y-64292923D01*
X219277835Y-64341051D01*
X219280320Y-64405239D01*
X219280320Y-66961505D01*
X219252706Y-66950067D01*
X219073611Y-66914443D01*
X218891009Y-66914443D01*
X218711914Y-66950067D01*
X218543211Y-67019947D01*
X218391382Y-67121395D01*
X218262262Y-67250515D01*
X218160814Y-67402344D01*
X218090934Y-67571047D01*
X218055310Y-67750142D01*
X218055310Y-67932744D01*
X218090934Y-68111839D01*
X218129418Y-68204746D01*
X218043288Y-68187614D01*
X217860686Y-68187614D01*
X217681591Y-68223238D01*
X217512888Y-68293118D01*
X217361059Y-68394566D01*
X217231939Y-68523686D01*
X217130491Y-68675515D01*
X217060611Y-68844218D01*
X217024987Y-69023313D01*
X217024987Y-69205915D01*
X217060611Y-69385010D01*
X217130491Y-69553713D01*
X217231939Y-69705542D01*
X217323387Y-69796990D01*
X217323388Y-72137640D01*
X217300844Y-72110170D01*
X217276856Y-72090484D01*
X216293598Y-71107226D01*
X216293598Y-70977899D01*
X216257974Y-70798804D01*
X216188094Y-70630101D01*
X216086646Y-70478272D01*
X215957526Y-70349152D01*
X215805697Y-70247704D01*
X215636994Y-70177824D01*
X215457899Y-70142200D01*
X215275297Y-70142200D01*
X215096202Y-70177824D01*
X214927499Y-70247704D01*
X214775670Y-70349152D01*
X214646550Y-70478272D01*
X214545102Y-70630101D01*
X214475222Y-70798804D01*
X214439598Y-70977899D01*
X214439598Y-71160501D01*
X214475222Y-71339596D01*
X214545102Y-71508299D01*
X214646550Y-71660128D01*
X214775670Y-71789248D01*
X214927499Y-71890696D01*
X215096202Y-71960576D01*
X215275297Y-71996200D01*
X215404624Y-71996200D01*
X216225606Y-72817182D01*
X216225606Y-73648547D01*
X216017610Y-73440551D01*
X215997923Y-73416562D01*
X215902206Y-73338010D01*
X215793004Y-73279640D01*
X215678187Y-73244811D01*
X215576528Y-73143152D01*
X215424699Y-73041704D01*
X215255996Y-72971824D01*
X215076901Y-72936200D01*
X214894299Y-72936200D01*
X214715204Y-72971824D01*
X214546501Y-73041704D01*
X214394672Y-73143152D01*
X214265552Y-73272272D01*
X214164104Y-73424101D01*
X214094224Y-73592804D01*
X214058600Y-73771899D01*
X214058600Y-73954501D01*
X214094224Y-74133596D01*
X214164104Y-74302299D01*
X214265552Y-74454128D01*
X214394672Y-74583248D01*
X214508126Y-74659055D01*
X214508126Y-74794152D01*
X214543750Y-74973247D01*
X214613630Y-75141950D01*
X214715078Y-75293779D01*
X214806527Y-75385228D01*
X214806527Y-75543952D01*
X214721301Y-75527000D01*
X214538699Y-75527000D01*
X214359604Y-75562624D01*
X214190901Y-75632504D01*
X214039072Y-75733952D01*
X213909952Y-75863072D01*
X213808504Y-76014901D01*
X213738624Y-76183604D01*
X213707766Y-76338740D01*
X213551701Y-76369782D01*
X213528565Y-76350795D01*
X213437013Y-76301860D01*
X213337673Y-76271725D01*
X213234363Y-76261550D01*
X210724363Y-76261550D01*
X210621053Y-76271725D01*
X210521713Y-76301860D01*
X210430161Y-76350795D01*
X210349915Y-76416651D01*
X210284059Y-76496897D01*
X210235124Y-76588449D01*
X210204989Y-76687789D01*
X210194814Y-76791099D01*
X210194814Y-77791099D01*
X210204989Y-77894409D01*
X210235124Y-77993749D01*
X210284059Y-78085301D01*
X210349915Y-78165547D01*
X210430161Y-78231403D01*
X210521713Y-78280338D01*
X210621053Y-78310473D01*
X210724363Y-78320648D01*
X213141414Y-78320648D01*
X213103694Y-78377101D01*
X213033814Y-78545804D01*
X212998190Y-78724899D01*
X212998190Y-78907501D01*
X213033814Y-79086596D01*
X213103694Y-79255299D01*
X213205142Y-79407128D01*
X213334262Y-79536248D01*
X213486091Y-79637696D01*
X213654794Y-79707576D01*
X213772790Y-79731047D01*
X213772789Y-81810826D01*
X213757976Y-81810826D01*
X213753737Y-81767789D01*
X213723602Y-81668449D01*
X213674667Y-81576897D01*
X213608811Y-81496651D01*
X213528565Y-81430795D01*
X213437013Y-81381860D01*
X213337673Y-81351725D01*
X213234363Y-81341550D01*
X210724363Y-81341550D01*
X210621053Y-81351725D01*
X210521713Y-81381860D01*
X210430161Y-81430795D01*
X210349915Y-81496651D01*
X210284059Y-81576897D01*
X210235124Y-81668449D01*
X210204989Y-81767789D01*
X210194814Y-81871099D01*
X210194814Y-82246728D01*
X210141499Y-82211104D01*
X209972796Y-82141224D01*
X209793701Y-82105600D01*
X209611099Y-82105600D01*
X209432004Y-82141224D01*
X209263301Y-82211104D01*
X209111472Y-82312552D01*
X208982352Y-82441672D01*
X208880904Y-82593501D01*
X208811024Y-82762204D01*
X208775400Y-82941299D01*
X208775400Y-83123901D01*
X208811024Y-83302996D01*
X208880904Y-83471699D01*
X208982352Y-83623528D01*
X209111472Y-83752648D01*
X209263301Y-83854096D01*
X209329580Y-83881550D01*
X207414363Y-83881550D01*
X207311053Y-83891725D01*
X207211713Y-83921860D01*
X207120161Y-83970795D01*
X207039915Y-84036651D01*
X206974059Y-84116897D01*
X206925124Y-84208449D01*
X206894989Y-84307789D01*
X206884814Y-84411099D01*
X206884814Y-85411099D01*
X206894989Y-85514409D01*
X206925124Y-85613749D01*
X206974059Y-85705301D01*
X207039915Y-85785547D01*
X207120161Y-85851403D01*
X207211713Y-85900338D01*
X207311053Y-85930473D01*
X207414363Y-85940648D01*
X209924363Y-85940648D01*
X210027673Y-85930473D01*
X210127013Y-85900338D01*
X210218565Y-85851403D01*
X210298811Y-85785547D01*
X210322954Y-85756128D01*
X210480849Y-85821531D01*
X210659944Y-85857155D01*
X210842546Y-85857155D01*
X211021641Y-85821531D01*
X211190344Y-85751651D01*
X211342173Y-85650203D01*
X211350764Y-85641612D01*
X211350763Y-86421550D01*
X210724363Y-86421550D01*
X210621053Y-86431725D01*
X210521713Y-86461860D01*
X210430161Y-86510795D01*
X210349915Y-86576651D01*
X210284059Y-86656897D01*
X210235124Y-86748449D01*
X210204989Y-86847789D01*
X210194814Y-86951099D01*
X210194814Y-87951099D01*
X210204989Y-88054409D01*
X210235124Y-88153749D01*
X210284059Y-88245301D01*
X210349915Y-88325547D01*
X210430161Y-88391403D01*
X210521713Y-88440338D01*
X210621053Y-88470473D01*
X210724363Y-88480648D01*
X211213800Y-88480648D01*
X211213800Y-88635701D01*
X211249424Y-88814796D01*
X211319304Y-88983499D01*
X211409874Y-89119048D01*
X211259099Y-89018304D01*
X211090396Y-88948424D01*
X210911301Y-88912800D01*
X210728699Y-88912800D01*
X210549604Y-88948424D01*
X210380901Y-89018304D01*
X210269596Y-89092675D01*
X210218565Y-89050795D01*
X210127013Y-89001860D01*
X210027673Y-88971725D01*
X209924363Y-88961550D01*
X207414363Y-88961550D01*
X207311053Y-88971725D01*
X207211713Y-89001860D01*
X207120161Y-89050795D01*
X207039915Y-89116651D01*
X206974059Y-89196897D01*
X206925124Y-89288449D01*
X206894989Y-89387789D01*
X206884814Y-89491099D01*
X206884814Y-90491099D01*
X206894989Y-90594409D01*
X206925124Y-90693749D01*
X206974059Y-90785301D01*
X207039915Y-90865547D01*
X207120161Y-90931403D01*
X207211713Y-90980338D01*
X207311053Y-91010473D01*
X207414363Y-91020648D01*
X209924363Y-91020648D01*
X210027673Y-91010473D01*
X210127013Y-90980338D01*
X210218565Y-90931403D01*
X210298811Y-90865547D01*
X210364667Y-90785301D01*
X210413602Y-90693749D01*
X210418697Y-90676952D01*
X210549604Y-90731176D01*
X210728699Y-90766800D01*
X210911301Y-90766800D01*
X211090396Y-90731176D01*
X211259099Y-90661296D01*
X211410928Y-90559848D01*
X211540048Y-90430728D01*
X211641496Y-90278899D01*
X211711376Y-90110196D01*
X211747000Y-89931101D01*
X211747000Y-89748499D01*
X211711376Y-89569404D01*
X211641496Y-89400701D01*
X211550926Y-89265152D01*
X211701701Y-89365896D01*
X211870404Y-89435776D01*
X212049499Y-89471400D01*
X212232101Y-89471400D01*
X212411196Y-89435776D01*
X212579899Y-89365896D01*
X212731728Y-89264448D01*
X212860848Y-89135328D01*
X212962296Y-88983499D01*
X213032176Y-88814796D01*
X213067800Y-88635701D01*
X213067800Y-88480648D01*
X213234363Y-88480648D01*
X213271200Y-88477020D01*
X213271200Y-88635701D01*
X213306824Y-88814796D01*
X213376704Y-88983499D01*
X213478152Y-89135328D01*
X213569600Y-89226776D01*
X213569600Y-91624472D01*
X213528565Y-91590795D01*
X213437013Y-91541860D01*
X213337673Y-91511725D01*
X213234363Y-91501550D01*
X210724363Y-91501550D01*
X210621053Y-91511725D01*
X210521713Y-91541860D01*
X210430161Y-91590795D01*
X210349915Y-91656651D01*
X210284059Y-91736897D01*
X210235124Y-91828449D01*
X210204989Y-91927789D01*
X210194814Y-92031099D01*
X210194814Y-93031099D01*
X210204989Y-93134409D01*
X210235124Y-93233749D01*
X210284059Y-93325301D01*
X210349915Y-93405547D01*
X210430161Y-93471403D01*
X210521713Y-93520338D01*
X210621053Y-93550473D01*
X210724363Y-93560648D01*
X211441040Y-93560648D01*
X211454174Y-93585220D01*
X211532726Y-93680937D01*
X211556709Y-93700619D01*
X212246817Y-94390728D01*
X212266500Y-94414712D01*
X212362217Y-94493264D01*
X212471419Y-94551634D01*
X212535587Y-94571099D01*
X212589911Y-94587578D01*
X212713138Y-94599715D01*
X212735639Y-94597499D01*
X212788590Y-94650450D01*
X212788591Y-95758905D01*
X212785549Y-95789790D01*
X212797686Y-95913016D01*
X212833630Y-96031508D01*
X212892000Y-96140710D01*
X212892001Y-96140711D01*
X212970553Y-96236428D01*
X212994536Y-96256110D01*
X214204600Y-97466175D01*
X214204601Y-109977722D01*
X214175651Y-110073158D01*
X214163514Y-110196384D01*
X214166555Y-110227259D01*
X214166556Y-120080842D01*
X213994954Y-119940012D01*
X213599386Y-119728577D01*
X213170170Y-119598376D01*
X212723800Y-119554412D01*
X212277431Y-119598376D01*
X211848215Y-119728577D01*
X211452647Y-119940012D01*
X211105929Y-120224557D01*
X210821384Y-120571275D01*
X210609948Y-120966843D01*
X210479747Y-121396059D01*
X210446800Y-121730573D01*
X210446800Y-123454284D01*
X210479747Y-123788798D01*
X210609948Y-124218014D01*
X210821383Y-124613582D01*
X211105928Y-124960301D01*
X211452646Y-125244846D01*
X211848214Y-125456281D01*
X212277430Y-125586482D01*
X212426053Y-125601120D01*
X212361279Y-125665894D01*
X212259831Y-125817723D01*
X212189951Y-125986426D01*
X212154327Y-126165521D01*
X212154327Y-126348123D01*
X212189951Y-126527218D01*
X212259831Y-126695921D01*
X212361279Y-126847750D01*
X212490399Y-126976870D01*
X212642228Y-127078318D01*
X212785972Y-127137860D01*
X212808554Y-127251386D01*
X212878434Y-127420089D01*
X212979882Y-127571918D01*
X213109002Y-127701038D01*
X213260831Y-127802486D01*
X213293998Y-127816225D01*
X213287159Y-127885663D01*
X213290200Y-127916538D01*
X213290201Y-130915023D01*
X213198752Y-131006472D01*
X213097304Y-131158301D01*
X213027424Y-131327004D01*
X212991800Y-131506099D01*
X212991800Y-131688701D01*
X213027424Y-131867796D01*
X213097304Y-132036499D01*
X213198752Y-132188328D01*
X213327872Y-132317448D01*
X213479701Y-132418896D01*
X213648404Y-132488776D01*
X213827499Y-132524400D01*
X214010101Y-132524400D01*
X214189196Y-132488776D01*
X214329911Y-132430489D01*
X214445472Y-132546050D01*
X214597301Y-132647498D01*
X214766004Y-132717378D01*
X214945099Y-132753002D01*
X215127701Y-132753002D01*
X215306796Y-132717378D01*
X215475499Y-132647498D01*
X215626825Y-132546386D01*
X215664105Y-132571296D01*
X215832808Y-132641176D01*
X216011903Y-132676800D01*
X216194505Y-132676800D01*
X216258864Y-132663998D01*
X216348352Y-132797928D01*
X216477472Y-132927048D01*
X216629301Y-133028496D01*
X216798004Y-133098376D01*
X216977099Y-133134000D01*
X217159701Y-133134000D01*
X217338796Y-133098376D01*
X217507499Y-133028496D01*
X217659328Y-132927048D01*
X217788448Y-132797928D01*
X217889896Y-132646099D01*
X217959776Y-132477396D01*
X217995400Y-132298301D01*
X217995400Y-132168974D01*
X219280320Y-130884055D01*
X219280320Y-132656328D01*
X219280116Y-132671442D01*
X219276321Y-132730007D01*
X219269677Y-132777694D01*
X219260105Y-132823009D01*
X219248084Y-132865805D01*
X219233200Y-132908361D01*
X219216539Y-132948228D01*
X219196827Y-132988770D01*
X219175815Y-133026636D01*
X219152304Y-133064323D01*
X219126280Y-133101766D01*
X219098298Y-133138176D01*
X219068251Y-133173759D01*
X219036119Y-133208553D01*
X219001025Y-133243396D01*
X218965656Y-133275700D01*
X218928521Y-133307013D01*
X218887288Y-133339086D01*
X218846023Y-133368702D01*
X218801449Y-133398218D01*
X218757159Y-133425269D01*
X218709779Y-133451932D01*
X218660869Y-133477211D01*
X218607739Y-133502308D01*
X218555428Y-133524791D01*
X218500071Y-133546349D01*
X218443189Y-133566262D01*
X218385487Y-133584268D01*
X218325763Y-133600704D01*
X218262742Y-133615739D01*
X218197823Y-133628850D01*
X218131679Y-133639827D01*
X218062969Y-133648763D01*
X217992082Y-133655427D01*
X217914952Y-133659808D01*
X217832286Y-133661366D01*
X210200326Y-133661366D01*
X210197321Y-132473550D01*
X210038571Y-132314800D01*
X209189321Y-132314800D01*
X209189321Y-132334800D01*
X208935321Y-132334800D01*
X208935321Y-132314800D01*
X208086071Y-132314800D01*
X207927321Y-132473550D01*
X207924316Y-133661366D01*
X207551870Y-133661366D01*
X207551870Y-130687800D01*
X207924249Y-130687800D01*
X207927321Y-131902050D01*
X208086071Y-132060800D01*
X208935321Y-132060800D01*
X208935321Y-130211550D01*
X209189321Y-130211550D01*
X209189321Y-132060800D01*
X210038571Y-132060800D01*
X210197321Y-131902050D01*
X210200393Y-130687800D01*
X210188133Y-130563318D01*
X210151823Y-130443620D01*
X210092858Y-130333306D01*
X210013506Y-130236615D01*
X209916815Y-130157263D01*
X209806501Y-130098298D01*
X209686803Y-130061988D01*
X209562321Y-130049728D01*
X209348071Y-130052800D01*
X209189321Y-130211550D01*
X208935321Y-130211550D01*
X208776571Y-130052800D01*
X208562321Y-130049728D01*
X208437839Y-130061988D01*
X208318141Y-130098298D01*
X208207827Y-130157263D01*
X208111136Y-130236615D01*
X208031784Y-130333306D01*
X207972819Y-130443620D01*
X207936509Y-130563318D01*
X207924249Y-130687800D01*
X207551870Y-130687800D01*
X207541695Y-130584490D01*
X207511560Y-130485150D01*
X207462625Y-130393598D01*
X207396769Y-130313352D01*
X207316523Y-130247496D01*
X207224971Y-130198561D01*
X207125631Y-130168426D01*
X207022321Y-130158251D01*
X206022321Y-130158251D01*
X205919011Y-130168426D01*
X205819671Y-130198561D01*
X205728119Y-130247496D01*
X205647873Y-130313352D01*
X205582017Y-130393598D01*
X205533082Y-130485150D01*
X205502947Y-130584490D01*
X205492772Y-130687800D01*
X205492772Y-131567848D01*
X205450301Y-131559400D01*
X205267699Y-131559400D01*
X205199210Y-131573023D01*
X205183627Y-131568296D01*
X205091275Y-131559200D01*
X205060400Y-131556159D01*
X205029525Y-131559200D01*
X205011870Y-131559200D01*
X205011870Y-130687800D01*
X205001695Y-130584490D01*
X204971560Y-130485150D01*
X204922625Y-130393598D01*
X204856769Y-130313352D01*
X204776523Y-130247496D01*
X204684971Y-130198561D01*
X204585631Y-130168426D01*
X204482321Y-130158251D01*
X203482321Y-130158251D01*
X203379011Y-130168426D01*
X203279671Y-130198561D01*
X203188119Y-130247496D01*
X203107873Y-130313352D01*
X203042017Y-130393598D01*
X202993082Y-130485150D01*
X202962947Y-130584490D01*
X202952772Y-130687800D01*
X202952772Y-133661366D01*
X202471870Y-133661366D01*
X202471870Y-130687800D01*
X202461695Y-130584490D01*
X202431560Y-130485150D01*
X202382625Y-130393598D01*
X202316769Y-130313352D01*
X202236523Y-130247496D01*
X202144971Y-130198561D01*
X202045631Y-130168426D01*
X201942321Y-130158251D01*
X200942321Y-130158251D01*
X200839011Y-130168426D01*
X200739671Y-130198561D01*
X200648119Y-130247496D01*
X200567873Y-130313352D01*
X200502017Y-130393598D01*
X200453082Y-130485150D01*
X200422947Y-130584490D01*
X200412772Y-130687800D01*
X200412772Y-133661366D01*
X200040326Y-133661366D01*
X200037321Y-132473550D01*
X199878571Y-132314800D01*
X199029321Y-132314800D01*
X199029321Y-132334800D01*
X198775321Y-132334800D01*
X198775321Y-132314800D01*
X197926071Y-132314800D01*
X197767321Y-132473550D01*
X197764316Y-133661366D01*
X197391870Y-133661366D01*
X197391870Y-130687800D01*
X197764249Y-130687800D01*
X197767321Y-131902050D01*
X197926071Y-132060800D01*
X198775321Y-132060800D01*
X198775321Y-130211550D01*
X199029321Y-130211550D01*
X199029321Y-132060800D01*
X199878571Y-132060800D01*
X200037321Y-131902050D01*
X200040393Y-130687800D01*
X200028133Y-130563318D01*
X199991823Y-130443620D01*
X199932858Y-130333306D01*
X199853506Y-130236615D01*
X199756815Y-130157263D01*
X199646501Y-130098298D01*
X199526803Y-130061988D01*
X199402321Y-130049728D01*
X199188071Y-130052800D01*
X199029321Y-130211550D01*
X198775321Y-130211550D01*
X198616571Y-130052800D01*
X198402321Y-130049728D01*
X198277839Y-130061988D01*
X198158141Y-130098298D01*
X198047827Y-130157263D01*
X197951136Y-130236615D01*
X197871784Y-130333306D01*
X197812819Y-130443620D01*
X197776509Y-130563318D01*
X197764249Y-130687800D01*
X197391870Y-130687800D01*
X197381695Y-130584490D01*
X197351560Y-130485150D01*
X197302625Y-130393598D01*
X197236769Y-130313352D01*
X197156523Y-130247496D01*
X197064971Y-130198561D01*
X196965631Y-130168426D01*
X196862321Y-130158251D01*
X195862321Y-130158251D01*
X195759011Y-130168426D01*
X195659671Y-130198561D01*
X195568119Y-130247496D01*
X195487873Y-130313352D01*
X195422017Y-130393598D01*
X195373082Y-130485150D01*
X195342947Y-130584490D01*
X195332772Y-130687800D01*
X195332772Y-131867457D01*
X195188701Y-131838800D01*
X195006099Y-131838800D01*
X194851870Y-131869478D01*
X194851870Y-130687800D01*
X194841695Y-130584490D01*
X194811560Y-130485150D01*
X194762625Y-130393598D01*
X194696769Y-130313352D01*
X194616523Y-130247496D01*
X194524971Y-130198561D01*
X194425631Y-130168426D01*
X194322321Y-130158251D01*
X193322321Y-130158251D01*
X193219011Y-130168426D01*
X193119671Y-130198561D01*
X193028119Y-130247496D01*
X192947873Y-130313352D01*
X192882017Y-130393598D01*
X192833082Y-130485150D01*
X192802947Y-130584490D01*
X192792772Y-130687800D01*
X192792772Y-133661366D01*
X192311870Y-133661366D01*
X192311870Y-130687800D01*
X192301695Y-130584490D01*
X192271560Y-130485150D01*
X192222625Y-130393598D01*
X192156769Y-130313352D01*
X192076523Y-130247496D01*
X191984971Y-130198561D01*
X191885631Y-130168426D01*
X191782321Y-130158251D01*
X190782321Y-130158251D01*
X190679011Y-130168426D01*
X190579671Y-130198561D01*
X190488119Y-130247496D01*
X190407873Y-130313352D01*
X190342017Y-130393598D01*
X190293082Y-130485150D01*
X190262947Y-130584490D01*
X190252772Y-130687800D01*
X190252772Y-132385700D01*
X190184901Y-132372200D01*
X190002299Y-132372200D01*
X189846655Y-132403159D01*
X189771870Y-132328374D01*
X189771870Y-130687800D01*
X189761695Y-130584490D01*
X189731560Y-130485150D01*
X189682625Y-130393598D01*
X189616769Y-130313352D01*
X189536523Y-130247496D01*
X189444971Y-130198561D01*
X189345631Y-130168426D01*
X189242321Y-130158251D01*
X188242321Y-130158251D01*
X188139011Y-130168426D01*
X188039671Y-130198561D01*
X187948119Y-130247496D01*
X187867873Y-130313352D01*
X187802017Y-130393598D01*
X187753082Y-130485150D01*
X187722947Y-130584490D01*
X187712772Y-130687800D01*
X187712772Y-133661366D01*
X187340326Y-133661366D01*
X187337321Y-132473550D01*
X187178571Y-132314800D01*
X186329321Y-132314800D01*
X186329321Y-132334800D01*
X186075321Y-132334800D01*
X186075321Y-132314800D01*
X185226071Y-132314800D01*
X185067321Y-132473550D01*
X185064316Y-133661366D01*
X177429435Y-133661366D01*
X177394917Y-133661070D01*
X177314913Y-133658201D01*
X177242601Y-133652927D01*
X177172556Y-133645280D01*
X177105106Y-133635494D01*
X177038760Y-133623474D01*
X176975031Y-133609615D01*
X176913977Y-133594115D01*
X176853211Y-133576437D01*
X176795862Y-133557580D01*
X176740966Y-133537431D01*
X176685331Y-133514795D01*
X176634217Y-133491889D01*
X176584208Y-133467369D01*
X176536866Y-133442073D01*
X176490188Y-133414965D01*
X176445703Y-133386932D01*
X176403508Y-133358135D01*
X176361767Y-133327282D01*
X176323409Y-133296580D01*
X176286570Y-133264666D01*
X176252120Y-133232324D01*
X176218060Y-133197569D01*
X176187385Y-133163447D01*
X176157582Y-133127167D01*
X176130851Y-133091373D01*
X176105355Y-133053578D01*
X176082697Y-133016070D01*
X176061673Y-132976764D01*
X176043177Y-132937113D01*
X176026946Y-132896402D01*
X176013072Y-132854463D01*
X176001777Y-132811405D01*
X175992718Y-132764068D01*
X175986930Y-132714657D01*
X175984320Y-132648821D01*
X175984320Y-118254405D01*
X175994224Y-118304196D01*
X176064104Y-118472899D01*
X176165552Y-118624728D01*
X176294672Y-118753848D01*
X176446501Y-118855296D01*
X176615204Y-118925176D01*
X176794299Y-118960800D01*
X176976901Y-118960800D01*
X177155996Y-118925176D01*
X177324699Y-118855296D01*
X177476528Y-118753848D01*
X177567976Y-118662400D01*
X177719436Y-118662400D01*
X177685800Y-118831499D01*
X177685800Y-119014101D01*
X177721424Y-119193196D01*
X177791304Y-119361899D01*
X177892752Y-119513728D01*
X178021872Y-119642848D01*
X178173701Y-119744296D01*
X178342404Y-119814176D01*
X178521499Y-119849800D01*
X178704101Y-119849800D01*
X178883196Y-119814176D01*
X179051899Y-119744296D01*
X179203728Y-119642848D01*
X179332848Y-119513728D01*
X179362200Y-119469799D01*
X179362200Y-119547501D01*
X179397824Y-119726596D01*
X179467704Y-119895299D01*
X179569152Y-120047128D01*
X179609801Y-120087777D01*
X179609800Y-129822824D01*
X179518352Y-129914272D01*
X179416904Y-130066101D01*
X179347024Y-130234804D01*
X179311400Y-130413899D01*
X179311400Y-130596501D01*
X179347024Y-130775596D01*
X179416904Y-130944299D01*
X179518352Y-131096128D01*
X179647472Y-131225248D01*
X179799301Y-131326696D01*
X179968004Y-131396576D01*
X180147099Y-131432200D01*
X180329701Y-131432200D01*
X180508796Y-131396576D01*
X180677499Y-131326696D01*
X180829328Y-131225248D01*
X180958448Y-131096128D01*
X181059896Y-130944299D01*
X181129776Y-130775596D01*
X181147239Y-130687800D01*
X185064249Y-130687800D01*
X185067321Y-131902050D01*
X185226071Y-132060800D01*
X186075321Y-132060800D01*
X186075321Y-130211550D01*
X186329321Y-130211550D01*
X186329321Y-132060800D01*
X187178571Y-132060800D01*
X187337321Y-131902050D01*
X187340393Y-130687800D01*
X187328133Y-130563318D01*
X187291823Y-130443620D01*
X187232858Y-130333306D01*
X187153506Y-130236615D01*
X187056815Y-130157263D01*
X186946501Y-130098298D01*
X186826803Y-130061988D01*
X186702321Y-130049728D01*
X186488071Y-130052800D01*
X186329321Y-130211550D01*
X186075321Y-130211550D01*
X185916571Y-130052800D01*
X185702321Y-130049728D01*
X185577839Y-130061988D01*
X185458141Y-130098298D01*
X185347827Y-130157263D01*
X185251136Y-130236615D01*
X185171784Y-130333306D01*
X185112819Y-130443620D01*
X185076509Y-130563318D01*
X185064249Y-130687800D01*
X181147239Y-130687800D01*
X181165400Y-130596501D01*
X181165400Y-130413899D01*
X181129776Y-130234804D01*
X181059896Y-130066101D01*
X180958448Y-129914272D01*
X180867000Y-129822824D01*
X180867000Y-125647800D01*
X185172772Y-125647800D01*
X185172772Y-128647800D01*
X185182947Y-128751110D01*
X185213082Y-128850450D01*
X185262017Y-128942002D01*
X185327873Y-129022248D01*
X185408119Y-129088104D01*
X185499671Y-129137039D01*
X185599011Y-129167174D01*
X185702321Y-129177349D01*
X186702321Y-129177349D01*
X186805631Y-129167174D01*
X186904971Y-129137039D01*
X186996523Y-129088104D01*
X187076769Y-129022248D01*
X187142625Y-128942002D01*
X187191560Y-128850450D01*
X187221695Y-128751110D01*
X187231870Y-128647800D01*
X187231870Y-126148995D01*
X187688266Y-125692600D01*
X187712772Y-125692600D01*
X187712772Y-128647800D01*
X187722947Y-128751110D01*
X187753082Y-128850450D01*
X187802017Y-128942002D01*
X187867873Y-129022248D01*
X187948119Y-129088104D01*
X188039671Y-129137039D01*
X188139011Y-129167174D01*
X188242321Y-129177349D01*
X189242321Y-129177349D01*
X189345631Y-129167174D01*
X189444971Y-129137039D01*
X189536523Y-129088104D01*
X189616769Y-129022248D01*
X189682625Y-128942002D01*
X189731560Y-128850450D01*
X189761695Y-128751110D01*
X189771870Y-128647800D01*
X189771870Y-125692600D01*
X190252772Y-125692600D01*
X190252772Y-128647800D01*
X190262947Y-128751110D01*
X190293082Y-128850450D01*
X190342017Y-128942002D01*
X190407873Y-129022248D01*
X190488119Y-129088104D01*
X190579671Y-129137039D01*
X190679011Y-129167174D01*
X190782321Y-129177349D01*
X191782321Y-129177349D01*
X191885631Y-129167174D01*
X191984971Y-129137039D01*
X192076523Y-129088104D01*
X192156769Y-129022248D01*
X192222625Y-128942002D01*
X192271560Y-128850450D01*
X192301695Y-128751110D01*
X192311870Y-128647800D01*
X192311870Y-125692600D01*
X192792772Y-125692600D01*
X192792772Y-128647800D01*
X192802947Y-128751110D01*
X192833082Y-128850450D01*
X192882017Y-128942002D01*
X192947873Y-129022248D01*
X193028119Y-129088104D01*
X193119671Y-129137039D01*
X193219011Y-129167174D01*
X193322321Y-129177349D01*
X194322321Y-129177349D01*
X194425631Y-129167174D01*
X194524971Y-129137039D01*
X194616523Y-129088104D01*
X194696769Y-129022248D01*
X194762625Y-128942002D01*
X194811560Y-128850450D01*
X194822329Y-128814951D01*
X194955299Y-128841400D01*
X195137901Y-128841400D01*
X195316996Y-128805776D01*
X195354782Y-128790124D01*
X195373082Y-128850450D01*
X195422017Y-128942002D01*
X195487873Y-129022248D01*
X195568119Y-129088104D01*
X195659671Y-129137039D01*
X195759011Y-129167174D01*
X195862321Y-129177349D01*
X196862321Y-129177349D01*
X196965631Y-129167174D01*
X197064971Y-129137039D01*
X197156523Y-129088104D01*
X197236769Y-129022248D01*
X197302625Y-128942002D01*
X197351560Y-128850450D01*
X197381695Y-128751110D01*
X197391870Y-128647800D01*
X197391870Y-125647800D01*
X197872772Y-125647800D01*
X197872772Y-128647800D01*
X197882947Y-128751110D01*
X197913082Y-128850450D01*
X197962017Y-128942002D01*
X198027873Y-129022248D01*
X198108119Y-129088104D01*
X198199671Y-129137039D01*
X198299011Y-129167174D01*
X198402321Y-129177349D01*
X199402321Y-129177349D01*
X199505631Y-129167174D01*
X199604971Y-129137039D01*
X199696523Y-129088104D01*
X199776769Y-129022248D01*
X199842625Y-128942002D01*
X199891560Y-128850450D01*
X199921695Y-128751110D01*
X199931870Y-128647800D01*
X199931870Y-128005828D01*
X200084804Y-128069176D01*
X200263899Y-128104800D01*
X200412772Y-128104800D01*
X200412772Y-128647800D01*
X200422947Y-128751110D01*
X200453082Y-128850450D01*
X200502017Y-128942002D01*
X200567873Y-129022248D01*
X200648119Y-129088104D01*
X200739671Y-129137039D01*
X200839011Y-129167174D01*
X200942321Y-129177349D01*
X201942321Y-129177349D01*
X202010656Y-129170619D01*
X202048304Y-129261509D01*
X202149752Y-129413338D01*
X202278872Y-129542458D01*
X202430701Y-129643906D01*
X202599404Y-129713786D01*
X202778499Y-129749410D01*
X202961101Y-129749410D01*
X203140196Y-129713786D01*
X203308899Y-129643906D01*
X203460728Y-129542458D01*
X203589848Y-129413338D01*
X203691296Y-129261509D01*
X203726157Y-129177349D01*
X204482321Y-129177349D01*
X204585631Y-129167174D01*
X204684971Y-129137039D01*
X204776523Y-129088104D01*
X204856769Y-129022248D01*
X204922625Y-128942002D01*
X204971560Y-128850450D01*
X205001695Y-128751110D01*
X205011870Y-128647800D01*
X205011870Y-127926774D01*
X205140699Y-127952400D01*
X205323301Y-127952400D01*
X205492772Y-127918690D01*
X205492772Y-128647800D01*
X205502947Y-128751110D01*
X205533082Y-128850450D01*
X205582017Y-128942002D01*
X205647873Y-129022248D01*
X205728119Y-129088104D01*
X205819671Y-129137039D01*
X205919011Y-129167174D01*
X206022321Y-129177349D01*
X207022321Y-129177349D01*
X207125631Y-129167174D01*
X207224971Y-129137039D01*
X207316523Y-129088104D01*
X207396769Y-129022248D01*
X207462625Y-128942002D01*
X207511560Y-128850450D01*
X207541695Y-128751110D01*
X207551870Y-128647800D01*
X207551870Y-127749575D01*
X207611917Y-127731360D01*
X207721119Y-127672990D01*
X207816836Y-127594438D01*
X207836523Y-127570449D01*
X207860972Y-127546000D01*
X207990299Y-127546000D01*
X208032772Y-127537552D01*
X208032772Y-128647800D01*
X208042947Y-128751110D01*
X208073082Y-128850450D01*
X208122017Y-128942002D01*
X208187873Y-129022248D01*
X208268119Y-129088104D01*
X208359671Y-129137039D01*
X208459011Y-129167174D01*
X208562321Y-129177349D01*
X209562321Y-129177349D01*
X209665631Y-129167174D01*
X209764971Y-129137039D01*
X209856523Y-129088104D01*
X209936769Y-129022248D01*
X210002625Y-128942002D01*
X210051560Y-128850450D01*
X210081695Y-128751110D01*
X210091870Y-128647800D01*
X210091870Y-125647800D01*
X210081695Y-125544490D01*
X210051560Y-125445150D01*
X210002625Y-125353598D01*
X209936769Y-125273352D01*
X209856523Y-125207496D01*
X209767121Y-125159710D01*
X209767121Y-124588990D01*
X209820537Y-124535574D01*
X209933805Y-124366056D01*
X210011826Y-124177698D01*
X210051600Y-123977739D01*
X210051600Y-123773861D01*
X210011826Y-123573902D01*
X209933805Y-123385544D01*
X209820537Y-123216026D01*
X209676374Y-123071863D01*
X209506856Y-122958595D01*
X209318498Y-122880574D01*
X209118539Y-122840800D01*
X208914661Y-122840800D01*
X208714702Y-122880574D01*
X208526344Y-122958595D01*
X208356826Y-123071863D01*
X208212663Y-123216026D01*
X208099395Y-123385544D01*
X208021374Y-123573902D01*
X207981600Y-123773861D01*
X207981600Y-123977739D01*
X208021374Y-124177698D01*
X208099395Y-124366056D01*
X208212663Y-124535574D01*
X208356826Y-124679737D01*
X208357522Y-124680202D01*
X208357522Y-125159710D01*
X208268119Y-125207496D01*
X208187873Y-125273352D01*
X208122017Y-125353598D01*
X208073082Y-125445150D01*
X208042947Y-125544490D01*
X208032772Y-125647800D01*
X208032772Y-125700448D01*
X207990299Y-125692000D01*
X207807697Y-125692000D01*
X207628602Y-125727624D01*
X207551870Y-125759408D01*
X207551870Y-125647800D01*
X207541695Y-125544490D01*
X207511560Y-125445150D01*
X207462625Y-125353598D01*
X207396769Y-125273352D01*
X207316523Y-125207496D01*
X207224971Y-125158561D01*
X207125631Y-125128426D01*
X207022321Y-125118251D01*
X206022321Y-125118251D01*
X205919011Y-125128426D01*
X205819671Y-125158561D01*
X205728119Y-125207496D01*
X205647873Y-125273352D01*
X205582017Y-125353598D01*
X205533082Y-125445150D01*
X205502947Y-125544490D01*
X205492772Y-125647800D01*
X205492772Y-126132110D01*
X205323301Y-126098400D01*
X205140699Y-126098400D01*
X205011870Y-126124026D01*
X205011870Y-125647800D01*
X205001695Y-125544490D01*
X204971560Y-125445150D01*
X204922625Y-125353598D01*
X204856769Y-125273352D01*
X204776523Y-125207496D01*
X204684971Y-125158561D01*
X204622999Y-125139762D01*
X204841672Y-124960301D01*
X205126217Y-124613583D01*
X205337652Y-124218015D01*
X205467853Y-123788799D01*
X205500800Y-123454285D01*
X205500800Y-121730574D01*
X205467853Y-121396060D01*
X205337652Y-120966843D01*
X205126217Y-120571275D01*
X204841672Y-120224557D01*
X204494954Y-119940012D01*
X204099386Y-119728577D01*
X203670170Y-119598376D01*
X203223800Y-119554412D01*
X202777431Y-119598376D01*
X202348215Y-119728577D01*
X201952647Y-119940012D01*
X201605929Y-120224557D01*
X201321384Y-120571275D01*
X201109948Y-120966843D01*
X200979747Y-121396059D01*
X200946800Y-121730573D01*
X200946800Y-123454284D01*
X200979747Y-123788798D01*
X201109948Y-124218014D01*
X201321383Y-124613582D01*
X201605928Y-124960301D01*
X201798390Y-125118251D01*
X200942321Y-125118251D01*
X200839011Y-125128426D01*
X200739671Y-125158561D01*
X200648119Y-125207496D01*
X200567873Y-125273352D01*
X200502017Y-125353598D01*
X200453082Y-125445150D01*
X200422947Y-125544490D01*
X200412772Y-125647800D01*
X200412772Y-126250800D01*
X200263899Y-126250800D01*
X200084804Y-126286424D01*
X199931870Y-126349772D01*
X199931870Y-125647800D01*
X199921695Y-125544490D01*
X199891560Y-125445150D01*
X199842625Y-125353598D01*
X199776769Y-125273352D01*
X199696523Y-125207496D01*
X199604971Y-125158561D01*
X199505631Y-125128426D01*
X199402321Y-125118251D01*
X198402321Y-125118251D01*
X198299011Y-125128426D01*
X198199671Y-125158561D01*
X198108119Y-125207496D01*
X198027873Y-125273352D01*
X197962017Y-125353598D01*
X197913082Y-125445150D01*
X197882947Y-125544490D01*
X197872772Y-125647800D01*
X197391870Y-125647800D01*
X197381695Y-125544490D01*
X197351560Y-125445150D01*
X197302625Y-125353598D01*
X197236769Y-125273352D01*
X197156523Y-125207496D01*
X197064971Y-125158561D01*
X196965631Y-125128426D01*
X196862321Y-125118251D01*
X195970414Y-125118251D01*
X197381115Y-123707550D01*
X197920400Y-123707550D01*
X198024253Y-123697266D01*
X198070406Y-123683213D01*
X198117090Y-123697375D01*
X198220400Y-123707550D01*
X199370400Y-123707550D01*
X199473710Y-123697375D01*
X199573050Y-123667240D01*
X199664602Y-123618305D01*
X199744848Y-123552448D01*
X199810705Y-123472202D01*
X199859640Y-123380650D01*
X199889775Y-123281310D01*
X199899950Y-123178000D01*
X199899950Y-122998570D01*
X199922480Y-122980080D01*
X199946812Y-122950431D01*
X200420437Y-122476807D01*
X200450080Y-122452480D01*
X200474409Y-122422835D01*
X200547177Y-122334167D01*
X200619327Y-122199184D01*
X200619327Y-122199183D01*
X200663757Y-122052719D01*
X200675000Y-121938566D01*
X200675000Y-121938557D01*
X200678758Y-121900401D01*
X200675000Y-121862245D01*
X200675000Y-120815163D01*
X200678759Y-120777000D01*
X200672125Y-120709648D01*
X200663757Y-120624681D01*
X200619327Y-120478216D01*
X200547177Y-120343234D01*
X200450080Y-120224920D01*
X200420436Y-120200592D01*
X200017601Y-119797758D01*
X200001976Y-119719204D01*
X199932096Y-119550501D01*
X199830648Y-119398672D01*
X199701528Y-119269552D01*
X199549699Y-119168104D01*
X199380996Y-119098224D01*
X199201901Y-119062600D01*
X199019299Y-119062600D01*
X198840204Y-119098224D01*
X198671501Y-119168104D01*
X198519672Y-119269552D01*
X198390552Y-119398672D01*
X198289104Y-119550501D01*
X198219224Y-119719204D01*
X198183600Y-119898299D01*
X198183600Y-120080901D01*
X198219224Y-120259996D01*
X198289104Y-120428699D01*
X198390552Y-120580528D01*
X198519672Y-120709648D01*
X198671501Y-120811096D01*
X198840204Y-120880976D01*
X198918758Y-120896601D01*
X199121001Y-121098844D01*
X199121001Y-121148450D01*
X198220400Y-121148450D01*
X198117633Y-121158517D01*
X198070405Y-121172790D01*
X198023710Y-121158625D01*
X197920400Y-121148450D01*
X196920400Y-121148450D01*
X196817090Y-121158625D01*
X196717750Y-121188760D01*
X196626198Y-121237695D01*
X196545952Y-121303552D01*
X196480095Y-121383798D01*
X196431160Y-121475350D01*
X196401025Y-121574690D01*
X196390850Y-121678000D01*
X196390850Y-122217285D01*
X194669535Y-123938600D01*
X194537819Y-123938600D01*
X194782599Y-123693820D01*
X194993485Y-123378206D01*
X195138747Y-123027514D01*
X195212800Y-122655222D01*
X195212800Y-122275636D01*
X195138747Y-121903344D01*
X194993485Y-121552652D01*
X194782599Y-121237038D01*
X194514191Y-120968630D01*
X194198577Y-120757744D01*
X193847885Y-120612482D01*
X193475593Y-120538429D01*
X193096007Y-120538429D01*
X192723715Y-120612482D01*
X192373023Y-120757744D01*
X192057409Y-120968630D01*
X191789001Y-121237038D01*
X191578115Y-121552652D01*
X191432853Y-121903344D01*
X191358800Y-122275636D01*
X191358800Y-122655222D01*
X191432853Y-123027514D01*
X191578115Y-123378206D01*
X191789001Y-123693820D01*
X192033781Y-123938600D01*
X187368079Y-123938600D01*
X187325000Y-123934357D01*
X187153077Y-123951290D01*
X186987763Y-124001438D01*
X186835408Y-124082873D01*
X186701867Y-124192467D01*
X186674408Y-124225926D01*
X185782084Y-125118251D01*
X185702321Y-125118251D01*
X185599011Y-125128426D01*
X185499671Y-125158561D01*
X185408119Y-125207496D01*
X185327873Y-125273352D01*
X185262017Y-125353598D01*
X185213082Y-125445150D01*
X185182947Y-125544490D01*
X185172772Y-125647800D01*
X180867000Y-125647800D01*
X180867000Y-123968636D01*
X181173023Y-124173114D01*
X181523715Y-124318376D01*
X181896007Y-124392429D01*
X182275593Y-124392429D01*
X182647885Y-124318376D01*
X182998577Y-124173114D01*
X183314191Y-123962228D01*
X183582599Y-123693820D01*
X183793485Y-123378206D01*
X183938747Y-123027514D01*
X184012800Y-122655222D01*
X184012800Y-122275636D01*
X183938747Y-121903344D01*
X183793485Y-121552652D01*
X183582599Y-121237038D01*
X183314191Y-120968630D01*
X182998577Y-120757744D01*
X182647885Y-120612482D01*
X182275593Y-120538429D01*
X181896007Y-120538429D01*
X181523715Y-120612482D01*
X181173023Y-120757744D01*
X180867000Y-120962222D01*
X180867000Y-120185020D01*
X180880128Y-120176248D01*
X181009248Y-120047128D01*
X181110696Y-119895299D01*
X181180576Y-119726596D01*
X181205238Y-119602609D01*
X181209395Y-119602200D01*
X181384824Y-119602200D01*
X181476272Y-119693648D01*
X181628101Y-119795096D01*
X181796804Y-119864976D01*
X181975899Y-119900600D01*
X182158501Y-119900600D01*
X182337596Y-119864976D01*
X182506299Y-119795096D01*
X182658128Y-119693648D01*
X182787248Y-119564528D01*
X182888696Y-119412699D01*
X182958576Y-119243996D01*
X182994200Y-119064901D01*
X182994200Y-118882299D01*
X182958576Y-118703204D01*
X182888696Y-118534501D01*
X182787248Y-118382672D01*
X182658128Y-118253552D01*
X182506299Y-118152104D01*
X182337596Y-118082224D01*
X182158501Y-118046600D01*
X181975899Y-118046600D01*
X181796804Y-118082224D01*
X181628101Y-118152104D01*
X181544485Y-118207974D01*
X181590004Y-118098083D01*
X181625628Y-117918988D01*
X181625628Y-117736386D01*
X181590004Y-117557291D01*
X181520124Y-117388588D01*
X181418676Y-117236759D01*
X181289556Y-117107639D01*
X181137727Y-117006191D01*
X180969024Y-116936311D01*
X180789929Y-116900687D01*
X180607327Y-116900687D01*
X180428232Y-116936311D01*
X180259529Y-117006191D01*
X180107700Y-117107639D01*
X179978580Y-117236759D01*
X179877132Y-117388588D01*
X179870251Y-117405200D01*
X177567976Y-117405200D01*
X177476528Y-117313752D01*
X177324699Y-117212304D01*
X177155996Y-117142424D01*
X176976901Y-117106800D01*
X176794299Y-117106800D01*
X176615204Y-117142424D01*
X176446501Y-117212304D01*
X176294672Y-117313752D01*
X176165552Y-117442872D01*
X176064104Y-117594701D01*
X175994224Y-117763404D01*
X175984320Y-117813195D01*
X175984320Y-114815033D01*
X183658800Y-114815033D01*
X183658800Y-115115825D01*
X183717481Y-115410839D01*
X183832590Y-115688735D01*
X183999701Y-115938835D01*
X184212394Y-116151528D01*
X184462494Y-116318639D01*
X184557200Y-116357868D01*
X184557201Y-117382423D01*
X184471352Y-117468272D01*
X184369904Y-117620101D01*
X184300024Y-117788804D01*
X184264400Y-117967899D01*
X184264400Y-118150501D01*
X184300024Y-118329596D01*
X184369904Y-118498299D01*
X184471352Y-118650128D01*
X184600472Y-118779248D01*
X184752301Y-118880696D01*
X184921004Y-118950576D01*
X185100099Y-118986200D01*
X185282701Y-118986200D01*
X185461796Y-118950576D01*
X185630499Y-118880696D01*
X185782328Y-118779248D01*
X185911448Y-118650128D01*
X186012896Y-118498299D01*
X186082776Y-118329596D01*
X186118400Y-118150501D01*
X186118400Y-117967899D01*
X186082776Y-117788804D01*
X186012896Y-117620101D01*
X185911448Y-117468272D01*
X185814400Y-117371224D01*
X185814400Y-116357868D01*
X185909106Y-116318639D01*
X186159206Y-116151528D01*
X186371899Y-115938835D01*
X186416145Y-115872616D01*
X186550387Y-115921237D01*
X187506195Y-114965429D01*
X186550387Y-114009621D01*
X186416145Y-114058242D01*
X186371899Y-113992023D01*
X186209892Y-113830016D01*
X186729992Y-113830016D01*
X187685800Y-114785824D01*
X187699943Y-114771682D01*
X187879548Y-114951287D01*
X187865405Y-114965429D01*
X187879548Y-114979572D01*
X187699943Y-115159177D01*
X187685800Y-115145034D01*
X186729992Y-116100842D01*
X186825756Y-116365243D01*
X187115371Y-116506133D01*
X187426908Y-116587813D01*
X187748395Y-116607147D01*
X188067475Y-116563390D01*
X188371888Y-116458224D01*
X188545844Y-116365243D01*
X188641607Y-116100844D01*
X188691213Y-116150450D01*
X188696561Y-116168079D01*
X188745496Y-116259631D01*
X188811352Y-116339877D01*
X188891598Y-116405733D01*
X188983150Y-116454668D01*
X189082490Y-116484803D01*
X189185800Y-116494978D01*
X189668201Y-116494978D01*
X189668200Y-118215024D01*
X189576752Y-118306472D01*
X189475304Y-118458301D01*
X189405424Y-118627004D01*
X189369800Y-118806099D01*
X189369800Y-118988701D01*
X189405424Y-119167796D01*
X189475304Y-119336499D01*
X189576752Y-119488328D01*
X189705872Y-119617448D01*
X189857701Y-119718896D01*
X190026404Y-119788776D01*
X190205499Y-119824400D01*
X190388101Y-119824400D01*
X190567196Y-119788776D01*
X190735899Y-119718896D01*
X190887728Y-119617448D01*
X191016848Y-119488328D01*
X191118296Y-119336499D01*
X191188176Y-119167796D01*
X191223800Y-118988701D01*
X191223800Y-118806099D01*
X191188176Y-118627004D01*
X191118296Y-118458301D01*
X191016848Y-118306472D01*
X190925400Y-118215024D01*
X190925400Y-116494978D01*
X191185800Y-116494978D01*
X191289110Y-116484803D01*
X191388450Y-116454668D01*
X191480002Y-116405733D01*
X191560248Y-116339877D01*
X191626104Y-116259631D01*
X191675039Y-116168079D01*
X191705174Y-116068739D01*
X191715349Y-115965429D01*
X191715349Y-114338732D01*
X203871800Y-114338732D01*
X203871800Y-115846125D01*
X203894980Y-116081475D01*
X203986584Y-116383453D01*
X204135341Y-116661758D01*
X204335534Y-116905695D01*
X204579470Y-117105888D01*
X204857775Y-117254645D01*
X205159753Y-117346249D01*
X205473800Y-117377180D01*
X205787846Y-117346249D01*
X206089824Y-117254645D01*
X206368129Y-117105888D01*
X206612066Y-116905695D01*
X206723800Y-116769546D01*
X206835534Y-116905695D01*
X207079470Y-117105888D01*
X207357775Y-117254645D01*
X207659753Y-117346249D01*
X207973800Y-117377180D01*
X208287846Y-117346249D01*
X208589824Y-117254645D01*
X208830386Y-117126062D01*
X208868263Y-117196923D01*
X208947615Y-117293614D01*
X209044306Y-117372966D01*
X209154620Y-117431931D01*
X209274318Y-117468241D01*
X209398800Y-117480501D01*
X210188050Y-117477429D01*
X210346800Y-117318679D01*
X210346800Y-115219429D01*
X210600800Y-115219429D01*
X210600800Y-117318679D01*
X210759550Y-117477429D01*
X211548800Y-117480501D01*
X211673282Y-117468241D01*
X211792980Y-117431931D01*
X211903294Y-117372966D01*
X211999985Y-117293614D01*
X212079337Y-117196923D01*
X212138302Y-117086609D01*
X212174612Y-116966911D01*
X212186872Y-116842429D01*
X212183800Y-115378179D01*
X212025050Y-115219429D01*
X210600800Y-115219429D01*
X210346800Y-115219429D01*
X210326800Y-115219429D01*
X210326800Y-114965429D01*
X210346800Y-114965429D01*
X210346800Y-112866179D01*
X210600800Y-112866179D01*
X210600800Y-114965429D01*
X212025050Y-114965429D01*
X212183800Y-114806679D01*
X212186872Y-113342429D01*
X212174612Y-113217947D01*
X212138302Y-113098249D01*
X212079337Y-112987935D01*
X211999985Y-112891244D01*
X211903294Y-112811892D01*
X211792980Y-112752927D01*
X211673282Y-112716617D01*
X211548800Y-112704357D01*
X210759550Y-112707429D01*
X210600800Y-112866179D01*
X210346800Y-112866179D01*
X210188050Y-112707429D01*
X209398800Y-112704357D01*
X209274318Y-112716617D01*
X209154620Y-112752927D01*
X209044306Y-112811892D01*
X208947615Y-112891244D01*
X208868263Y-112987935D01*
X208830387Y-113058796D01*
X208589825Y-112930213D01*
X208287847Y-112838609D01*
X207973800Y-112807678D01*
X207659754Y-112838609D01*
X207357776Y-112930213D01*
X207079471Y-113078970D01*
X206835535Y-113279163D01*
X206723801Y-113415312D01*
X206612066Y-113279163D01*
X206368130Y-113078970D01*
X206089825Y-112930213D01*
X205787847Y-112838609D01*
X205473800Y-112807678D01*
X205159754Y-112838609D01*
X204857776Y-112930213D01*
X204579471Y-113078970D01*
X204335535Y-113279163D01*
X204135342Y-113523099D01*
X203986585Y-113801404D01*
X203894980Y-114103382D01*
X203871800Y-114338732D01*
X191715349Y-114338732D01*
X191715349Y-113965429D01*
X191705174Y-113862119D01*
X191675039Y-113762779D01*
X191626104Y-113671227D01*
X191560248Y-113590981D01*
X191480002Y-113525125D01*
X191388450Y-113476190D01*
X191289110Y-113446055D01*
X191185800Y-113435880D01*
X189185800Y-113435880D01*
X189082490Y-113446055D01*
X188983150Y-113476190D01*
X188891598Y-113525125D01*
X188811352Y-113590981D01*
X188745496Y-113671227D01*
X188696561Y-113762779D01*
X188691213Y-113780408D01*
X188641607Y-113830014D01*
X188545844Y-113565615D01*
X188256229Y-113424725D01*
X187944692Y-113343045D01*
X187623205Y-113323711D01*
X187304125Y-113367468D01*
X186999712Y-113472634D01*
X186825756Y-113565615D01*
X186729992Y-113830016D01*
X186209892Y-113830016D01*
X186159206Y-113779330D01*
X185909106Y-113612219D01*
X185631210Y-113497110D01*
X185336196Y-113438429D01*
X185035404Y-113438429D01*
X184740390Y-113497110D01*
X184462494Y-113612219D01*
X184212394Y-113779330D01*
X183999701Y-113992023D01*
X183832590Y-114242123D01*
X183717481Y-114520019D01*
X183658800Y-114815033D01*
X175984320Y-114815033D01*
X175984320Y-112176699D01*
X176034800Y-112176699D01*
X176034800Y-112359301D01*
X176070424Y-112538396D01*
X176140304Y-112707099D01*
X176241752Y-112858928D01*
X176370872Y-112988048D01*
X176522701Y-113089496D01*
X176691404Y-113159376D01*
X176870499Y-113195000D01*
X177053101Y-113195000D01*
X177232196Y-113159376D01*
X177400899Y-113089496D01*
X177552728Y-112988048D01*
X177681848Y-112858928D01*
X177783296Y-112707099D01*
X177853176Y-112538396D01*
X177888800Y-112359301D01*
X177888800Y-112176699D01*
X177853176Y-111997604D01*
X177783296Y-111828901D01*
X177681848Y-111677072D01*
X177552728Y-111547952D01*
X177539600Y-111539180D01*
X177539600Y-110686774D01*
X177558800Y-110705974D01*
X177558800Y-110835301D01*
X177594424Y-111014396D01*
X177664304Y-111183099D01*
X177765752Y-111334928D01*
X177894872Y-111464048D01*
X178046701Y-111565496D01*
X178215404Y-111635376D01*
X178394499Y-111671000D01*
X178577101Y-111671000D01*
X178756196Y-111635376D01*
X178924899Y-111565496D01*
X179076728Y-111464048D01*
X179205848Y-111334928D01*
X179307296Y-111183099D01*
X179377176Y-111014396D01*
X179409767Y-110850549D01*
X179442304Y-110929099D01*
X179543752Y-111080928D01*
X179672872Y-111210048D01*
X179824701Y-111311496D01*
X179993404Y-111381376D01*
X180172499Y-111417000D01*
X180355101Y-111417000D01*
X180534196Y-111381376D01*
X180702899Y-111311496D01*
X180854728Y-111210048D01*
X180983848Y-111080928D01*
X181085296Y-110929099D01*
X181155176Y-110760396D01*
X181190800Y-110581301D01*
X181190800Y-110398699D01*
X181155176Y-110219604D01*
X181085296Y-110050901D01*
X180983848Y-109899072D01*
X180854728Y-109769952D01*
X180702899Y-109668504D01*
X180534196Y-109598624D01*
X180355101Y-109563000D01*
X180225775Y-109563000D01*
X178935775Y-108273001D01*
X178935775Y-106153342D01*
X194373992Y-106153342D01*
X194469756Y-106417743D01*
X194759371Y-106558633D01*
X195070908Y-106640313D01*
X195392395Y-106659647D01*
X195711475Y-106615890D01*
X196015888Y-106510724D01*
X196189844Y-106417743D01*
X196285608Y-106153342D01*
X195329800Y-105197534D01*
X194373992Y-106153342D01*
X178935775Y-106153342D01*
X178935775Y-105080524D01*
X193688082Y-105080524D01*
X193731839Y-105399604D01*
X193837005Y-105704017D01*
X193929986Y-105877973D01*
X194194387Y-105973737D01*
X195150195Y-105017929D01*
X195509405Y-105017929D01*
X196465213Y-105973737D01*
X196729614Y-105877973D01*
X196870504Y-105588358D01*
X196952184Y-105276821D01*
X196971518Y-104955334D01*
X196927761Y-104636254D01*
X196822595Y-104331841D01*
X196729614Y-104157885D01*
X196465213Y-104062121D01*
X195509405Y-105017929D01*
X195150195Y-105017929D01*
X194194387Y-104062121D01*
X193929986Y-104157885D01*
X193789096Y-104447500D01*
X193707416Y-104759037D01*
X193688082Y-105080524D01*
X178935775Y-105080524D01*
X178935775Y-103882516D01*
X194373992Y-103882516D01*
X195329800Y-104838324D01*
X196285608Y-103882516D01*
X196189844Y-103618115D01*
X195900229Y-103477225D01*
X195588692Y-103395545D01*
X195267205Y-103376211D01*
X194948125Y-103419968D01*
X194643712Y-103525134D01*
X194469756Y-103618115D01*
X194373992Y-103882516D01*
X178935775Y-103882516D01*
X178935775Y-97828136D01*
X190302800Y-97828136D01*
X190302800Y-98207722D01*
X190376853Y-98580014D01*
X190522115Y-98930706D01*
X190733001Y-99246320D01*
X191001409Y-99514728D01*
X191317023Y-99725614D01*
X191667715Y-99870876D01*
X192040007Y-99944929D01*
X192419593Y-99944929D01*
X192791885Y-99870876D01*
X193142577Y-99725614D01*
X193458191Y-99514728D01*
X193726599Y-99246320D01*
X193937485Y-98930706D01*
X194082747Y-98580014D01*
X194156800Y-98207722D01*
X194156800Y-97828136D01*
X194082747Y-97455844D01*
X193937485Y-97105152D01*
X193726599Y-96789538D01*
X193458191Y-96521130D01*
X193142577Y-96310244D01*
X192791885Y-96164982D01*
X192419593Y-96090929D01*
X192040007Y-96090929D01*
X191667715Y-96164982D01*
X191317023Y-96310244D01*
X191001409Y-96521130D01*
X190733001Y-96789538D01*
X190522115Y-97105152D01*
X190376853Y-97455844D01*
X190302800Y-97828136D01*
X178935775Y-97828136D01*
X178935775Y-94571099D01*
X181484814Y-94571099D01*
X181484814Y-95571099D01*
X181494989Y-95674409D01*
X181525124Y-95773749D01*
X181574059Y-95865301D01*
X181639915Y-95945547D01*
X181720161Y-96011403D01*
X181811713Y-96060338D01*
X181911053Y-96090473D01*
X182014363Y-96100648D01*
X184524363Y-96100648D01*
X184627673Y-96090473D01*
X184727013Y-96060338D01*
X184818565Y-96011403D01*
X184885888Y-95956153D01*
X185048799Y-96119063D01*
X185076267Y-96152533D01*
X185209808Y-96262127D01*
X185362163Y-96343562D01*
X185527478Y-96393710D01*
X185656321Y-96406400D01*
X185656330Y-96406400D01*
X185699399Y-96410642D01*
X185742469Y-96406400D01*
X186266573Y-96406400D01*
X186326744Y-96446605D01*
X186515102Y-96524626D01*
X186715061Y-96564400D01*
X186918939Y-96564400D01*
X187118898Y-96524626D01*
X187307256Y-96446605D01*
X187476774Y-96333337D01*
X187620937Y-96189174D01*
X187734205Y-96019656D01*
X187812226Y-95831298D01*
X187852000Y-95631339D01*
X187852000Y-95427461D01*
X187812226Y-95227502D01*
X187734205Y-95039144D01*
X187620937Y-94869626D01*
X187476774Y-94725463D01*
X187307256Y-94612195D01*
X187118898Y-94534174D01*
X186918939Y-94494400D01*
X186715061Y-94494400D01*
X186515102Y-94534174D01*
X186326744Y-94612195D01*
X186266573Y-94652400D01*
X186062665Y-94652400D01*
X185892794Y-94482529D01*
X185865333Y-94449067D01*
X185731792Y-94339473D01*
X185579437Y-94258038D01*
X185414122Y-94207890D01*
X185402943Y-94206789D01*
X185242200Y-94190957D01*
X185199121Y-94195200D01*
X184897043Y-94195200D01*
X184818565Y-94130795D01*
X184727013Y-94081860D01*
X184627673Y-94051725D01*
X184524363Y-94041550D01*
X182014363Y-94041550D01*
X181911053Y-94051725D01*
X181811713Y-94081860D01*
X181720161Y-94130795D01*
X181639915Y-94196651D01*
X181574059Y-94276897D01*
X181525124Y-94368449D01*
X181494989Y-94467789D01*
X181484814Y-94571099D01*
X178935775Y-94571099D01*
X178935775Y-90491099D01*
X181376291Y-90491099D01*
X181388551Y-90615581D01*
X181424861Y-90735279D01*
X181483826Y-90845593D01*
X181563178Y-90942284D01*
X181659869Y-91021636D01*
X181770183Y-91080601D01*
X181889881Y-91116911D01*
X182014363Y-91129171D01*
X182983613Y-91126099D01*
X183142363Y-90967349D01*
X183142363Y-90118099D01*
X181538113Y-90118099D01*
X181379363Y-90276849D01*
X181376291Y-90491099D01*
X178935775Y-90491099D01*
X178935775Y-89491099D01*
X181376291Y-89491099D01*
X181379363Y-89705349D01*
X181538113Y-89864099D01*
X183142363Y-89864099D01*
X183142363Y-89014849D01*
X182983613Y-88856099D01*
X182014363Y-88853027D01*
X181889881Y-88865287D01*
X181770183Y-88901597D01*
X181659869Y-88960562D01*
X181563178Y-89039914D01*
X181483826Y-89136605D01*
X181424861Y-89246919D01*
X181388551Y-89366617D01*
X181376291Y-89491099D01*
X178935775Y-89491099D01*
X178935775Y-87934461D01*
X182886400Y-87934461D01*
X182886400Y-88138339D01*
X182926174Y-88338298D01*
X183004195Y-88526656D01*
X183117463Y-88696174D01*
X183261626Y-88840337D01*
X183431144Y-88953605D01*
X183449856Y-88961356D01*
X183396363Y-89014849D01*
X183396363Y-89864099D01*
X183416363Y-89864099D01*
X183416363Y-90118099D01*
X183396363Y-90118099D01*
X183396363Y-90967349D01*
X183555113Y-91126099D01*
X184524363Y-91129171D01*
X184648845Y-91116911D01*
X184768543Y-91080601D01*
X184878857Y-91021636D01*
X184975548Y-90942284D01*
X185054900Y-90845593D01*
X185113865Y-90735279D01*
X185150175Y-90615581D01*
X185162435Y-90491099D01*
X185159363Y-90276849D01*
X185000615Y-90118101D01*
X185006363Y-90118101D01*
X185874564Y-90986302D01*
X185874564Y-91501550D01*
X185324363Y-91501550D01*
X185221053Y-91511725D01*
X185121713Y-91541860D01*
X185030161Y-91590795D01*
X184949915Y-91656651D01*
X184884059Y-91736897D01*
X184835124Y-91828449D01*
X184804989Y-91927789D01*
X184794814Y-92031099D01*
X184794814Y-93031099D01*
X184804989Y-93134409D01*
X184835124Y-93233749D01*
X184884059Y-93325301D01*
X184949915Y-93405547D01*
X185030161Y-93471403D01*
X185121713Y-93520338D01*
X185221053Y-93550473D01*
X185324363Y-93560648D01*
X187834363Y-93560648D01*
X187937673Y-93550473D01*
X188037013Y-93520338D01*
X188128565Y-93471403D01*
X188208811Y-93405547D01*
X188274667Y-93325301D01*
X188323602Y-93233749D01*
X188353737Y-93134409D01*
X188363912Y-93031099D01*
X188363912Y-92031099D01*
X188353737Y-91927789D01*
X188323602Y-91828449D01*
X188274667Y-91736897D01*
X188208811Y-91656651D01*
X188128565Y-91590795D01*
X188037013Y-91541860D01*
X187937673Y-91511725D01*
X187834363Y-91501550D01*
X187284163Y-91501550D01*
X187284163Y-90728974D01*
X187287572Y-90694362D01*
X187284163Y-90659750D01*
X187284163Y-90659741D01*
X187273965Y-90556198D01*
X187233664Y-90423343D01*
X187203833Y-90367533D01*
X193802800Y-90367533D01*
X193802800Y-90668325D01*
X193861481Y-90963339D01*
X193976590Y-91241235D01*
X194143701Y-91491335D01*
X194356394Y-91704028D01*
X194606494Y-91871139D01*
X194884390Y-91986248D01*
X195179404Y-92044929D01*
X195480196Y-92044929D01*
X195775210Y-91986248D01*
X196053106Y-91871139D01*
X196303206Y-91704028D01*
X196515899Y-91491335D01*
X196560145Y-91425116D01*
X196694387Y-91473737D01*
X197650195Y-90517929D01*
X197636053Y-90503787D01*
X197815658Y-90324182D01*
X197829800Y-90338324D01*
X197843943Y-90324182D01*
X198023548Y-90503787D01*
X198009405Y-90517929D01*
X198023548Y-90532072D01*
X197843943Y-90711677D01*
X197829800Y-90697534D01*
X196873992Y-91653342D01*
X196969756Y-91917743D01*
X197259371Y-92058633D01*
X197570908Y-92140313D01*
X197892395Y-92159647D01*
X198211475Y-92115890D01*
X198515888Y-92010724D01*
X198689844Y-91917743D01*
X198785607Y-91653344D01*
X198835213Y-91702950D01*
X198840561Y-91720579D01*
X198889496Y-91812131D01*
X198955352Y-91892377D01*
X199035598Y-91958233D01*
X199127150Y-92007168D01*
X199226490Y-92037303D01*
X199329800Y-92047478D01*
X201195547Y-92047478D01*
X199907146Y-93335879D01*
X199883163Y-93355562D01*
X199863481Y-93379545D01*
X199804610Y-93451280D01*
X199746240Y-93560482D01*
X199710296Y-93678974D01*
X199698159Y-93802200D01*
X199701201Y-93833085D01*
X199701200Y-103625490D01*
X199606494Y-103664719D01*
X199356394Y-103831830D01*
X199143701Y-104044523D01*
X198976590Y-104294623D01*
X198861481Y-104572519D01*
X198802800Y-104867533D01*
X198802800Y-105168325D01*
X198861481Y-105463339D01*
X198976590Y-105741235D01*
X199143701Y-105991335D01*
X199356394Y-106204028D01*
X199606494Y-106371139D01*
X199884390Y-106486248D01*
X200179404Y-106544929D01*
X200480196Y-106544929D01*
X200775210Y-106486248D01*
X201053106Y-106371139D01*
X201303206Y-106204028D01*
X201515899Y-105991335D01*
X201683010Y-105741235D01*
X201798119Y-105463339D01*
X201856800Y-105168325D01*
X201856800Y-104867533D01*
X201798119Y-104572519D01*
X201683010Y-104294623D01*
X201515899Y-104044523D01*
X201303206Y-103831830D01*
X201053106Y-103664719D01*
X200958400Y-103625490D01*
X200958400Y-97828136D01*
X201502800Y-97828136D01*
X201502800Y-98207722D01*
X201576853Y-98580014D01*
X201722115Y-98930706D01*
X201933001Y-99246320D01*
X202201409Y-99514728D01*
X202517023Y-99725614D01*
X202867715Y-99870876D01*
X203240007Y-99944929D01*
X203619593Y-99944929D01*
X203991885Y-99870876D01*
X204342577Y-99725614D01*
X204658191Y-99514728D01*
X204926599Y-99246320D01*
X205137485Y-98930706D01*
X205282747Y-98580014D01*
X205356800Y-98207722D01*
X205356800Y-97828136D01*
X205282747Y-97455844D01*
X205137485Y-97105152D01*
X204926599Y-96789538D01*
X204658191Y-96521130D01*
X204342577Y-96310244D01*
X203991885Y-96164982D01*
X203619593Y-96090929D01*
X203240007Y-96090929D01*
X202867715Y-96164982D01*
X202517023Y-96310244D01*
X202201409Y-96521130D01*
X201933001Y-96789538D01*
X201722115Y-97105152D01*
X201576853Y-97455844D01*
X201502800Y-97828136D01*
X200958400Y-97828136D01*
X200958400Y-94571099D01*
X206884814Y-94571099D01*
X206884814Y-95571099D01*
X206894989Y-95674409D01*
X206925124Y-95773749D01*
X206974059Y-95865301D01*
X207039915Y-95945547D01*
X207120161Y-96011403D01*
X207211713Y-96060338D01*
X207311053Y-96090473D01*
X207414363Y-96100648D01*
X209924363Y-96100648D01*
X210027673Y-96090473D01*
X210127013Y-96060338D01*
X210218565Y-96011403D01*
X210298811Y-95945547D01*
X210364667Y-95865301D01*
X210413602Y-95773749D01*
X210436065Y-95699699D01*
X210568323Y-95699699D01*
X210584672Y-95716048D01*
X210736501Y-95817496D01*
X210905204Y-95887376D01*
X211084299Y-95923000D01*
X211266901Y-95923000D01*
X211445996Y-95887376D01*
X211614699Y-95817496D01*
X211766528Y-95716048D01*
X211895648Y-95586928D01*
X211997096Y-95435099D01*
X212066976Y-95266396D01*
X212102600Y-95087301D01*
X212102600Y-94904699D01*
X212066976Y-94725604D01*
X211997096Y-94556901D01*
X211895648Y-94405072D01*
X211766528Y-94275952D01*
X211614699Y-94174504D01*
X211445996Y-94104624D01*
X211266901Y-94069000D01*
X211084299Y-94069000D01*
X210905204Y-94104624D01*
X210736501Y-94174504D01*
X210584672Y-94275952D01*
X210455552Y-94405072D01*
X210434341Y-94436816D01*
X210413602Y-94368449D01*
X210364667Y-94276897D01*
X210298811Y-94196651D01*
X210218565Y-94130795D01*
X210127013Y-94081860D01*
X210027673Y-94051725D01*
X209924363Y-94041550D01*
X207414363Y-94041550D01*
X207311053Y-94051725D01*
X207211713Y-94081860D01*
X207120161Y-94130795D01*
X207039915Y-94196651D01*
X206974059Y-94276897D01*
X206925124Y-94368449D01*
X206894989Y-94467789D01*
X206884814Y-94571099D01*
X200958400Y-94571099D01*
X200958400Y-94062574D01*
X202606655Y-92414320D01*
X202630638Y-92394638D01*
X202709190Y-92298921D01*
X202767560Y-92189719D01*
X202803504Y-92071227D01*
X202812600Y-91978875D01*
X202812600Y-91978874D01*
X202815641Y-91948000D01*
X202812600Y-91917125D01*
X202812600Y-83400800D01*
X202884901Y-83400800D01*
X203063996Y-83365176D01*
X203232699Y-83295296D01*
X203384528Y-83193848D01*
X203513648Y-83064728D01*
X203615096Y-82912899D01*
X203684976Y-82744196D01*
X203720600Y-82565101D01*
X203720600Y-82435775D01*
X203927455Y-82228920D01*
X203951438Y-82209238D01*
X204029990Y-82113521D01*
X204088360Y-82004319D01*
X204124304Y-81885827D01*
X204133400Y-81793475D01*
X204133400Y-81793474D01*
X204136441Y-81762600D01*
X204133400Y-81731725D01*
X204133400Y-81678610D01*
X204234101Y-81745896D01*
X204402804Y-81815776D01*
X204581899Y-81851400D01*
X204764501Y-81851400D01*
X204943596Y-81815776D01*
X205112299Y-81745896D01*
X205264128Y-81644448D01*
X205393248Y-81515328D01*
X205494696Y-81363499D01*
X205564576Y-81194796D01*
X205600200Y-81015701D01*
X205600200Y-80833099D01*
X205588287Y-80773210D01*
X205597504Y-80742827D01*
X205606600Y-80650475D01*
X205606600Y-80650473D01*
X205609641Y-80619601D01*
X205606600Y-80588728D01*
X205606600Y-77517505D01*
X205782078Y-77552410D01*
X205964680Y-77552410D01*
X206143775Y-77516786D01*
X206254400Y-77470963D01*
X206254400Y-80638090D01*
X206231604Y-80642624D01*
X206062901Y-80712504D01*
X205911072Y-80813952D01*
X205781952Y-80943072D01*
X205680504Y-81094901D01*
X205610624Y-81263604D01*
X205575000Y-81442699D01*
X205575000Y-81625301D01*
X205610624Y-81804396D01*
X205680504Y-81973099D01*
X205781952Y-82124928D01*
X205911072Y-82254048D01*
X206062901Y-82355496D01*
X206231604Y-82425376D01*
X206410699Y-82461000D01*
X206593301Y-82461000D01*
X206772396Y-82425376D01*
X206941099Y-82355496D01*
X207092928Y-82254048D01*
X207222048Y-82124928D01*
X207323496Y-81973099D01*
X207393376Y-81804396D01*
X207429000Y-81625301D01*
X207429000Y-81464988D01*
X207466560Y-81394719D01*
X207502504Y-81276227D01*
X207511600Y-81183875D01*
X207511600Y-81183874D01*
X207514641Y-81153001D01*
X207511600Y-81122128D01*
X207511600Y-80860648D01*
X209924363Y-80860648D01*
X210027673Y-80850473D01*
X210127013Y-80820338D01*
X210218565Y-80771403D01*
X210298811Y-80705547D01*
X210364667Y-80625301D01*
X210413602Y-80533749D01*
X210443737Y-80434409D01*
X210453912Y-80331099D01*
X210453912Y-79331099D01*
X210443737Y-79227789D01*
X210413602Y-79128449D01*
X210364667Y-79036897D01*
X210298811Y-78956651D01*
X210218565Y-78890795D01*
X210127013Y-78841860D01*
X210027673Y-78811725D01*
X209924363Y-78801550D01*
X207511600Y-78801550D01*
X207511600Y-75780648D01*
X207652182Y-75780648D01*
X207632400Y-75880099D01*
X207632400Y-76062701D01*
X207668024Y-76241796D01*
X207737904Y-76410499D01*
X207839352Y-76562328D01*
X207968472Y-76691448D01*
X208120301Y-76792896D01*
X208289004Y-76862776D01*
X208468099Y-76898400D01*
X208650701Y-76898400D01*
X208829796Y-76862776D01*
X208998499Y-76792896D01*
X209150328Y-76691448D01*
X209279448Y-76562328D01*
X209380896Y-76410499D01*
X209450776Y-76241796D01*
X209486400Y-76062701D01*
X209486400Y-75880099D01*
X209466618Y-75780648D01*
X209924363Y-75780648D01*
X210027673Y-75770473D01*
X210127013Y-75740338D01*
X210218565Y-75691403D01*
X210298811Y-75625547D01*
X210364667Y-75545301D01*
X210413602Y-75453749D01*
X210443737Y-75354409D01*
X210453912Y-75251099D01*
X210453912Y-74251099D01*
X210443737Y-74147789D01*
X210437411Y-74126934D01*
X210523896Y-73997499D01*
X210593776Y-73828796D01*
X210629400Y-73649701D01*
X210629400Y-73467099D01*
X210593776Y-73288004D01*
X210562601Y-73212741D01*
X210621053Y-73230473D01*
X210724363Y-73240648D01*
X211350764Y-73240648D01*
X211350764Y-73631492D01*
X211347722Y-73662377D01*
X211359859Y-73785603D01*
X211395803Y-73904095D01*
X211454173Y-74013297D01*
X211490540Y-74057610D01*
X211532726Y-74109015D01*
X211556709Y-74128697D01*
X212318154Y-74890143D01*
X212318154Y-75019469D01*
X212353778Y-75198564D01*
X212423658Y-75367267D01*
X212525106Y-75519096D01*
X212654226Y-75648216D01*
X212806055Y-75749664D01*
X212974758Y-75819544D01*
X213153853Y-75855168D01*
X213336455Y-75855168D01*
X213515550Y-75819544D01*
X213684253Y-75749664D01*
X213836082Y-75648216D01*
X213965202Y-75519096D01*
X214066650Y-75367267D01*
X214136530Y-75198564D01*
X214172154Y-75019469D01*
X214172154Y-74836867D01*
X214136530Y-74657772D01*
X214066650Y-74489069D01*
X213965202Y-74337240D01*
X213836082Y-74208120D01*
X213684253Y-74106672D01*
X213515550Y-74036792D01*
X213336455Y-74001168D01*
X213207129Y-74001168D01*
X212607963Y-73402003D01*
X212607963Y-73240648D01*
X213234363Y-73240648D01*
X213337673Y-73230473D01*
X213378867Y-73217977D01*
X213470604Y-73255976D01*
X213649699Y-73291600D01*
X213832301Y-73291600D01*
X214011396Y-73255976D01*
X214180099Y-73186096D01*
X214331928Y-73084648D01*
X214461048Y-72955528D01*
X214562496Y-72803699D01*
X214632376Y-72634996D01*
X214668000Y-72455901D01*
X214668000Y-72273299D01*
X214632376Y-72094204D01*
X214562496Y-71925501D01*
X214461048Y-71773672D01*
X214331928Y-71644552D01*
X214180099Y-71543104D01*
X214011396Y-71473224D01*
X213832301Y-71437600D01*
X213685733Y-71437600D01*
X213674667Y-71416897D01*
X213608811Y-71336651D01*
X213528565Y-71270795D01*
X213437013Y-71221860D01*
X213337673Y-71191725D01*
X213234363Y-71181550D01*
X210724363Y-71181550D01*
X210621053Y-71191725D01*
X210521713Y-71221860D01*
X210509358Y-71228464D01*
X210509358Y-66246166D01*
X210600806Y-66154718D01*
X210702254Y-66002889D01*
X210772134Y-65834186D01*
X210807758Y-65655091D01*
X210807758Y-65472489D01*
X210772134Y-65293394D01*
X210702254Y-65124691D01*
X210600806Y-64972862D01*
X210471686Y-64843742D01*
X210319857Y-64742294D01*
X210151154Y-64672414D01*
X209972059Y-64636790D01*
X209789457Y-64636790D01*
X209610362Y-64672414D01*
X209441659Y-64742294D01*
X209289830Y-64843742D01*
X209160710Y-64972862D01*
X209059262Y-65124691D01*
X208989382Y-65293394D01*
X208953758Y-65472489D01*
X208953758Y-65655091D01*
X208989382Y-65834186D01*
X209059262Y-66002889D01*
X209160710Y-66154718D01*
X209252158Y-66246166D01*
X209252158Y-66374362D01*
X209245538Y-66367742D01*
X209093709Y-66266294D01*
X208925006Y-66196414D01*
X208745911Y-66160790D01*
X208563309Y-66160790D01*
X208384214Y-66196414D01*
X208215511Y-66266294D01*
X208063682Y-66367742D01*
X207934562Y-66496862D01*
X207833114Y-66648691D01*
X207763234Y-66817394D01*
X207727610Y-66996489D01*
X207727610Y-67125815D01*
X206460346Y-68393079D01*
X206436363Y-68412762D01*
X206416681Y-68436745D01*
X206357810Y-68508480D01*
X206299440Y-68617682D01*
X206263496Y-68736174D01*
X206251359Y-68859400D01*
X206254401Y-68890285D01*
X206254401Y-72363637D01*
X206143775Y-72317814D01*
X205964680Y-72282190D01*
X205782078Y-72282190D01*
X205606600Y-72317095D01*
X205606600Y-67103376D01*
X205698048Y-67011928D01*
X205799496Y-66860099D01*
X205869376Y-66691396D01*
X205905000Y-66512301D01*
X205905000Y-66329699D01*
X205869376Y-66150604D01*
X205799496Y-65981901D01*
X205698048Y-65830072D01*
X205568928Y-65700952D01*
X205417099Y-65599504D01*
X205248396Y-65529624D01*
X205069301Y-65494000D01*
X204886699Y-65494000D01*
X204707604Y-65529624D01*
X204538901Y-65599504D01*
X204387072Y-65700952D01*
X204257952Y-65830072D01*
X204156504Y-65981901D01*
X204086624Y-66150604D01*
X204051000Y-66329699D01*
X204051000Y-66512301D01*
X204086624Y-66691396D01*
X204156504Y-66860099D01*
X204257952Y-67011928D01*
X204349400Y-67103376D01*
X204349400Y-67712593D01*
X204133672Y-67449728D01*
X203786953Y-67165183D01*
X203391385Y-66953748D01*
X202962169Y-66823547D01*
X202515800Y-66779583D01*
X202069430Y-66823547D01*
X201640214Y-66953748D01*
X201244646Y-67165183D01*
X200897928Y-67449728D01*
X200613383Y-67796447D01*
X200401948Y-68192015D01*
X200271747Y-68621231D01*
X200238800Y-68955745D01*
X200238800Y-70679456D01*
X200271747Y-71013970D01*
X200401948Y-71443186D01*
X200613384Y-71838754D01*
X200897929Y-72185472D01*
X201244647Y-72470017D01*
X201640215Y-72681452D01*
X202069431Y-72811653D01*
X202515800Y-72855617D01*
X202962170Y-72811653D01*
X203391386Y-72681452D01*
X203786954Y-72470017D01*
X204133672Y-72185472D01*
X204349400Y-71922607D01*
X204349401Y-75664282D01*
X204326296Y-75608503D01*
X204224848Y-75456674D01*
X204095728Y-75327554D01*
X203943899Y-75226106D01*
X203775196Y-75156226D01*
X203596101Y-75120602D01*
X203413499Y-75120602D01*
X203234404Y-75156226D01*
X203065701Y-75226106D01*
X202913872Y-75327554D01*
X202784752Y-75456674D01*
X202683304Y-75608503D01*
X202613424Y-75777206D01*
X202577800Y-75956301D01*
X202577800Y-76138903D01*
X202613424Y-76317998D01*
X202683304Y-76486701D01*
X202784752Y-76638530D01*
X202876201Y-76729979D01*
X202876200Y-79899224D01*
X202774928Y-79797952D01*
X202623099Y-79696504D01*
X202454396Y-79626624D01*
X202275301Y-79591000D01*
X202092699Y-79591000D01*
X201913604Y-79626624D01*
X201744901Y-79696504D01*
X201593072Y-79797952D01*
X201463952Y-79927072D01*
X201362504Y-80078901D01*
X201292624Y-80247604D01*
X201257000Y-80426699D01*
X201257000Y-80609301D01*
X201292624Y-80788396D01*
X201362504Y-80957099D01*
X201416784Y-81038335D01*
X201259301Y-81007010D01*
X201076699Y-81007010D01*
X200897604Y-81042634D01*
X200770330Y-81095354D01*
X200742928Y-81067952D01*
X200591099Y-80966504D01*
X200422396Y-80896624D01*
X200243301Y-80861000D01*
X200060699Y-80861000D01*
X199881604Y-80896624D01*
X199712901Y-80966504D01*
X199561072Y-81067952D01*
X199431952Y-81197072D01*
X199330504Y-81348901D01*
X199260624Y-81517604D01*
X199225000Y-81696699D01*
X199225000Y-81879301D01*
X199260624Y-82058396D01*
X199330504Y-82227099D01*
X199431952Y-82378928D01*
X199523400Y-82470376D01*
X199523401Y-86099624D01*
X198113626Y-87509400D01*
X197740604Y-87509400D01*
X197709729Y-87506359D01*
X197678854Y-87509400D01*
X197586502Y-87518496D01*
X197468010Y-87554440D01*
X197358808Y-87612810D01*
X197263091Y-87691362D01*
X197243409Y-87715345D01*
X195869916Y-89088839D01*
X195775210Y-89049610D01*
X195480196Y-88990929D01*
X195179404Y-88990929D01*
X194884390Y-89049610D01*
X194606494Y-89164719D01*
X194356394Y-89331830D01*
X194143701Y-89544523D01*
X193976590Y-89794623D01*
X193861481Y-90072519D01*
X193802800Y-90367533D01*
X187203833Y-90367533D01*
X187168218Y-90300903D01*
X187129037Y-90253161D01*
X187102213Y-90220475D01*
X187102211Y-90220473D01*
X187080143Y-90193583D01*
X187053253Y-90171515D01*
X185362385Y-88480648D01*
X187834363Y-88480648D01*
X187937673Y-88470473D01*
X188037013Y-88440338D01*
X188128565Y-88391403D01*
X188208811Y-88325547D01*
X188274667Y-88245301D01*
X188323602Y-88153749D01*
X188353737Y-88054409D01*
X188363912Y-87951099D01*
X188363912Y-86951099D01*
X188353737Y-86847789D01*
X188323602Y-86748449D01*
X188274667Y-86656897D01*
X188208811Y-86576651D01*
X188128565Y-86510795D01*
X188037013Y-86461860D01*
X187937673Y-86431725D01*
X187834363Y-86421550D01*
X185324363Y-86421550D01*
X185221053Y-86431725D01*
X185121713Y-86461860D01*
X185030161Y-86510795D01*
X184949915Y-86576651D01*
X184884059Y-86656897D01*
X184835124Y-86748449D01*
X184804989Y-86847789D01*
X184794814Y-86951099D01*
X184794814Y-87480606D01*
X184725337Y-87376626D01*
X184581174Y-87232463D01*
X184411656Y-87119195D01*
X184223298Y-87041174D01*
X184023339Y-87001400D01*
X183819461Y-87001400D01*
X183619502Y-87041174D01*
X183431144Y-87119195D01*
X183261626Y-87232463D01*
X183117463Y-87376626D01*
X183004195Y-87546144D01*
X182926174Y-87734502D01*
X182886400Y-87934461D01*
X178935775Y-87934461D01*
X178935775Y-84411099D01*
X181484814Y-84411099D01*
X181484814Y-85411099D01*
X181494989Y-85514409D01*
X181525124Y-85613749D01*
X181574059Y-85705301D01*
X181639915Y-85785547D01*
X181720161Y-85851403D01*
X181811713Y-85900338D01*
X181911053Y-85930473D01*
X182014363Y-85940648D01*
X184524363Y-85940648D01*
X184627673Y-85930473D01*
X184727013Y-85900338D01*
X184818565Y-85851403D01*
X184898811Y-85785547D01*
X184964667Y-85705301D01*
X185013602Y-85613749D01*
X185043737Y-85514409D01*
X185053912Y-85411099D01*
X185053912Y-84411099D01*
X185043737Y-84307789D01*
X185013602Y-84208449D01*
X184964667Y-84116897D01*
X184898811Y-84036651D01*
X184818565Y-83970795D01*
X184727013Y-83921860D01*
X184627673Y-83891725D01*
X184524363Y-83881550D01*
X182014363Y-83881550D01*
X181911053Y-83891725D01*
X181811713Y-83921860D01*
X181720161Y-83970795D01*
X181639915Y-84036651D01*
X181574059Y-84116897D01*
X181525124Y-84208449D01*
X181494989Y-84307789D01*
X181484814Y-84411099D01*
X178935775Y-84411099D01*
X178935775Y-81871099D01*
X184794814Y-81871099D01*
X184794814Y-82871099D01*
X184804989Y-82974409D01*
X184835124Y-83073749D01*
X184884059Y-83165301D01*
X184949915Y-83245547D01*
X185030161Y-83311403D01*
X185121713Y-83360338D01*
X185221053Y-83390473D01*
X185324363Y-83400648D01*
X187834363Y-83400648D01*
X187937673Y-83390473D01*
X188037013Y-83360338D01*
X188128565Y-83311403D01*
X188208811Y-83245547D01*
X188274667Y-83165301D01*
X188323602Y-83073749D01*
X188353737Y-82974409D01*
X188363912Y-82871099D01*
X188363912Y-81871099D01*
X188353737Y-81767789D01*
X188323602Y-81668449D01*
X188274667Y-81576897D01*
X188208811Y-81496651D01*
X188128565Y-81430795D01*
X188037013Y-81381860D01*
X187937673Y-81351725D01*
X187834363Y-81341550D01*
X185324363Y-81341550D01*
X185221053Y-81351725D01*
X185121713Y-81381860D01*
X185030161Y-81430795D01*
X184949915Y-81496651D01*
X184884059Y-81576897D01*
X184835124Y-81668449D01*
X184804989Y-81767789D01*
X184794814Y-81871099D01*
X178935775Y-81871099D01*
X178935775Y-79331099D01*
X181484814Y-79331099D01*
X181484814Y-80331099D01*
X181494989Y-80434409D01*
X181525124Y-80533749D01*
X181574059Y-80625301D01*
X181639915Y-80705547D01*
X181720161Y-80771403D01*
X181811713Y-80820338D01*
X181911053Y-80850473D01*
X182014363Y-80860648D01*
X184524363Y-80860648D01*
X184627673Y-80850473D01*
X184727013Y-80820338D01*
X184818565Y-80771403D01*
X184898811Y-80705547D01*
X184964667Y-80625301D01*
X185013602Y-80533749D01*
X185043737Y-80434409D01*
X185053912Y-80331099D01*
X185053912Y-79331099D01*
X185043737Y-79227789D01*
X185013602Y-79128449D01*
X184981078Y-79067600D01*
X193552728Y-79067600D01*
X193564988Y-79192082D01*
X193601298Y-79311780D01*
X193660263Y-79422094D01*
X193739615Y-79518785D01*
X193836306Y-79598137D01*
X193946620Y-79657102D01*
X194066318Y-79693412D01*
X194190800Y-79705672D01*
X194980050Y-79702600D01*
X195138800Y-79543850D01*
X195138800Y-77444600D01*
X193714550Y-77444600D01*
X193555800Y-77603350D01*
X193552728Y-79067600D01*
X184981078Y-79067600D01*
X184964667Y-79036897D01*
X184898811Y-78956651D01*
X184818565Y-78890795D01*
X184727013Y-78841860D01*
X184627673Y-78811725D01*
X184524363Y-78801550D01*
X182014363Y-78801550D01*
X181911053Y-78811725D01*
X181811713Y-78841860D01*
X181720161Y-78890795D01*
X181639915Y-78956651D01*
X181574059Y-79036897D01*
X181525124Y-79128449D01*
X181494989Y-79227789D01*
X181484814Y-79331099D01*
X178935775Y-79331099D01*
X178935775Y-76791099D01*
X184794814Y-76791099D01*
X184794814Y-77791099D01*
X184804989Y-77894409D01*
X184835124Y-77993749D01*
X184884059Y-78085301D01*
X184949915Y-78165547D01*
X185030161Y-78231403D01*
X185121713Y-78280338D01*
X185221053Y-78310473D01*
X185324363Y-78320648D01*
X187834363Y-78320648D01*
X187937673Y-78310473D01*
X188037013Y-78280338D01*
X188128565Y-78231403D01*
X188208811Y-78165547D01*
X188274667Y-78085301D01*
X188323602Y-77993749D01*
X188353737Y-77894409D01*
X188363912Y-77791099D01*
X188363912Y-76791099D01*
X188353737Y-76687789D01*
X188323602Y-76588449D01*
X188274667Y-76496897D01*
X188208811Y-76416651D01*
X188128565Y-76350795D01*
X188037013Y-76301860D01*
X187937673Y-76271725D01*
X187834363Y-76261550D01*
X185324363Y-76261550D01*
X185221053Y-76271725D01*
X185121713Y-76301860D01*
X185030161Y-76350795D01*
X184949915Y-76416651D01*
X184884059Y-76496897D01*
X184835124Y-76588449D01*
X184804989Y-76687789D01*
X184794814Y-76791099D01*
X178935775Y-76791099D01*
X178935775Y-75611118D01*
X179027223Y-75519670D01*
X179128671Y-75367841D01*
X179198551Y-75199138D01*
X179234175Y-75020043D01*
X179234175Y-74837441D01*
X179198551Y-74658346D01*
X179128671Y-74489643D01*
X179027223Y-74337814D01*
X178940508Y-74251099D01*
X181484814Y-74251099D01*
X181484814Y-75251099D01*
X181494989Y-75354409D01*
X181525124Y-75453749D01*
X181574059Y-75545301D01*
X181639915Y-75625547D01*
X181720161Y-75691403D01*
X181811713Y-75740338D01*
X181911053Y-75770473D01*
X182014363Y-75780648D01*
X184524363Y-75780648D01*
X184627673Y-75770473D01*
X184727013Y-75740338D01*
X184818565Y-75691403D01*
X184898811Y-75625547D01*
X184946366Y-75567600D01*
X193552728Y-75567600D01*
X193555800Y-77031850D01*
X193714550Y-77190600D01*
X195138800Y-77190600D01*
X195138800Y-75091350D01*
X195392800Y-75091350D01*
X195392800Y-77190600D01*
X195412800Y-77190600D01*
X195412800Y-77444600D01*
X195392800Y-77444600D01*
X195392800Y-79543850D01*
X195551550Y-79702600D01*
X196340800Y-79705672D01*
X196465282Y-79693412D01*
X196584980Y-79657102D01*
X196695294Y-79598137D01*
X196791985Y-79518785D01*
X196871337Y-79422094D01*
X196909214Y-79351233D01*
X197149776Y-79479816D01*
X197451754Y-79571420D01*
X197765800Y-79602351D01*
X198079847Y-79571420D01*
X198381825Y-79479816D01*
X198660130Y-79331059D01*
X198904066Y-79130866D01*
X199015801Y-78994717D01*
X199127535Y-79130866D01*
X199371471Y-79331059D01*
X199649776Y-79479816D01*
X199951754Y-79571420D01*
X200265800Y-79602351D01*
X200579847Y-79571420D01*
X200881825Y-79479816D01*
X201160130Y-79331059D01*
X201404066Y-79130866D01*
X201604259Y-78886930D01*
X201753016Y-78608625D01*
X201844620Y-78306647D01*
X201867800Y-78071297D01*
X201867800Y-76563903D01*
X201844620Y-76328553D01*
X201753016Y-76026575D01*
X201604259Y-75748270D01*
X201404066Y-75504334D01*
X201160129Y-75304141D01*
X200881824Y-75155384D01*
X200579846Y-75063780D01*
X200265800Y-75032849D01*
X199951753Y-75063780D01*
X199649775Y-75155384D01*
X199371470Y-75304141D01*
X199127534Y-75504334D01*
X199015800Y-75640483D01*
X198904066Y-75504334D01*
X198660129Y-75304141D01*
X198381824Y-75155384D01*
X198079846Y-75063780D01*
X197765800Y-75032849D01*
X197451753Y-75063780D01*
X197149775Y-75155384D01*
X196909213Y-75283967D01*
X196871337Y-75213106D01*
X196791985Y-75116415D01*
X196695294Y-75037063D01*
X196584980Y-74978098D01*
X196465282Y-74941788D01*
X196340800Y-74929528D01*
X195551550Y-74932600D01*
X195392800Y-75091350D01*
X195138800Y-75091350D01*
X194980050Y-74932600D01*
X194190800Y-74929528D01*
X194066318Y-74941788D01*
X193946620Y-74978098D01*
X193836306Y-75037063D01*
X193739615Y-75116415D01*
X193660263Y-75213106D01*
X193601298Y-75323420D01*
X193564988Y-75443118D01*
X193552728Y-75567600D01*
X184946366Y-75567600D01*
X184964667Y-75545301D01*
X185013602Y-75453749D01*
X185043737Y-75354409D01*
X185053912Y-75251099D01*
X185053912Y-74251099D01*
X185043737Y-74147789D01*
X185013602Y-74048449D01*
X184964667Y-73956897D01*
X184898811Y-73876651D01*
X184818565Y-73810795D01*
X184727013Y-73761860D01*
X184627673Y-73731725D01*
X184524363Y-73721550D01*
X182014363Y-73721550D01*
X181911053Y-73731725D01*
X181811713Y-73761860D01*
X181720161Y-73810795D01*
X181639915Y-73876651D01*
X181574059Y-73956897D01*
X181525124Y-74048449D01*
X181494989Y-74147789D01*
X181484814Y-74251099D01*
X178940508Y-74251099D01*
X178898103Y-74208694D01*
X178746274Y-74107246D01*
X178577571Y-74037366D01*
X178398476Y-74001742D01*
X178215874Y-74001742D01*
X178036779Y-74037366D01*
X177868076Y-74107246D01*
X177716247Y-74208694D01*
X177587127Y-74337814D01*
X177485679Y-74489643D01*
X177415799Y-74658346D01*
X177388355Y-74796319D01*
X177230903Y-74765000D01*
X177048301Y-74765000D01*
X176869206Y-74800624D01*
X176700503Y-74870504D01*
X176548674Y-74971952D01*
X176419554Y-75101072D01*
X176318106Y-75252901D01*
X176248226Y-75421604D01*
X176212602Y-75600699D01*
X176212602Y-75744467D01*
X176156043Y-75850281D01*
X176120099Y-75968773D01*
X176107962Y-76091999D01*
X176120099Y-76215225D01*
X176156043Y-76333717D01*
X176214413Y-76442919D01*
X176265723Y-76505440D01*
X176282401Y-76525763D01*
X176282400Y-111636424D01*
X176241752Y-111677072D01*
X176140304Y-111828901D01*
X176070424Y-111997604D01*
X176034800Y-112176699D01*
X175984320Y-112176699D01*
X175984320Y-71711099D01*
X184794814Y-71711099D01*
X184794814Y-72711099D01*
X184804989Y-72814409D01*
X184835124Y-72913749D01*
X184884059Y-73005301D01*
X184949915Y-73085547D01*
X185030161Y-73151403D01*
X185121713Y-73200338D01*
X185221053Y-73230473D01*
X185324363Y-73240648D01*
X187834363Y-73240648D01*
X187937673Y-73230473D01*
X188037013Y-73200338D01*
X188128565Y-73151403D01*
X188208811Y-73085547D01*
X188274667Y-73005301D01*
X188323602Y-72913749D01*
X188353737Y-72814409D01*
X188363912Y-72711099D01*
X188363912Y-71711099D01*
X188353737Y-71607789D01*
X188323602Y-71508449D01*
X188274667Y-71416897D01*
X188208811Y-71336651D01*
X188128565Y-71270795D01*
X188037013Y-71221860D01*
X187937673Y-71191725D01*
X187834363Y-71181550D01*
X185324363Y-71181550D01*
X185221053Y-71191725D01*
X185121713Y-71221860D01*
X185030161Y-71270795D01*
X184949915Y-71336651D01*
X184884059Y-71416897D01*
X184835124Y-71508449D01*
X184804989Y-71607789D01*
X184794814Y-71711099D01*
X175984320Y-71711099D01*
X175984320Y-68955745D01*
X190738800Y-68955745D01*
X190738800Y-70679456D01*
X190771747Y-71013970D01*
X190901948Y-71443186D01*
X191113384Y-71838754D01*
X191397929Y-72185472D01*
X191744647Y-72470017D01*
X192140215Y-72681452D01*
X192569431Y-72811653D01*
X193015800Y-72855617D01*
X193462170Y-72811653D01*
X193891386Y-72681452D01*
X194286954Y-72470017D01*
X194633672Y-72185472D01*
X194918217Y-71838754D01*
X195129652Y-71443186D01*
X195259853Y-71013969D01*
X195292800Y-70679455D01*
X195292800Y-68955744D01*
X195259853Y-68621230D01*
X195129652Y-68192014D01*
X194918217Y-67796446D01*
X194633672Y-67449728D01*
X194286953Y-67165183D01*
X193891385Y-66953748D01*
X193462169Y-66823547D01*
X193015800Y-66779583D01*
X192569430Y-66823547D01*
X192140214Y-66953748D01*
X191744646Y-67165183D01*
X191397928Y-67449728D01*
X191113383Y-67796447D01*
X190901948Y-68192015D01*
X190771747Y-68621231D01*
X190738800Y-68955745D01*
X175984320Y-68955745D01*
X175984320Y-64399358D01*
X175984779Y-64374378D01*
X175988951Y-64318338D01*
X175995974Y-64270967D01*
X176005816Y-64226182D01*
X176018421Y-64182655D01*
X176033135Y-64141560D01*
X176050178Y-64101501D01*
X176069381Y-64062540D01*
X176090977Y-64024043D01*
X176114741Y-63986350D01*
X176140450Y-63949701D01*
X176169576Y-63912148D01*
X176199350Y-63877217D01*
X176232693Y-63841451D01*
X176265935Y-63808717D01*
X176301903Y-63776072D01*
X176341708Y-63742804D01*
X176381891Y-63711852D01*
X176422994Y-63682608D01*
X176467788Y-63653190D01*
X176512350Y-63626204D01*
X176559373Y-63599961D01*
X176608696Y-63574674D01*
X176659157Y-63550993D01*
X176711233Y-63528697D01*
X176766016Y-63507437D01*
X176823553Y-63487371D01*
X176881934Y-63469241D01*
X176941764Y-63452875D01*
X177003890Y-63438144D01*
X177067911Y-63425269D01*
X177134109Y-63414329D01*
X177203450Y-63405363D01*
X177275579Y-63398667D01*
X177350134Y-63394499D01*
X177432339Y-63392966D01*
X217835877Y-63392966D01*
X217860315Y-63393118D01*
G37*
X217860315Y-63393118D02*
X217939958Y-63395609D01*
X218012822Y-63400579D01*
X218082923Y-63407902D01*
X218151964Y-63417615D01*
X218217416Y-63429181D01*
X218280963Y-63442694D01*
X218343332Y-63458229D01*
X218402598Y-63475174D01*
X218460743Y-63493977D01*
X218517771Y-63514625D01*
X218571656Y-63536276D01*
X218623233Y-63559091D01*
X218676079Y-63584744D01*
X218725294Y-63610876D01*
X218770914Y-63637223D01*
X218815290Y-63665012D01*
X218858766Y-63694516D01*
X218899201Y-63724227D01*
X218937568Y-63754712D01*
X218975453Y-63787314D01*
X219009800Y-63819363D01*
X219045433Y-63855561D01*
X219078518Y-63892365D01*
X219107449Y-63927666D01*
X219134472Y-63963927D01*
X219160062Y-64001984D01*
X219183045Y-64040220D01*
X219204308Y-64080272D01*
X219222645Y-64119975D01*
X219238770Y-64160910D01*
X219252370Y-64202624D01*
X219263857Y-64247343D01*
X219272345Y-64292923D01*
X219277835Y-64341051D01*
X219280320Y-64405239D01*
X219280320Y-66961505D01*
X219252706Y-66950067D01*
X219073611Y-66914443D01*
X218891009Y-66914443D01*
X218711914Y-66950067D01*
X218543211Y-67019947D01*
X218391382Y-67121395D01*
X218262262Y-67250515D01*
X218160814Y-67402344D01*
X218090934Y-67571047D01*
X218055310Y-67750142D01*
X218055310Y-67932744D01*
X218090934Y-68111839D01*
X218129418Y-68204746D01*
X218043288Y-68187614D01*
X217860686Y-68187614D01*
X217681591Y-68223238D01*
X217512888Y-68293118D01*
X217361059Y-68394566D01*
X217231939Y-68523686D01*
X217130491Y-68675515D01*
X217060611Y-68844218D01*
X217024987Y-69023313D01*
X217024987Y-69205915D01*
X217060611Y-69385010D01*
X217130491Y-69553713D01*
X217231939Y-69705542D01*
X217323387Y-69796990D01*
X217323388Y-72137640D01*
X217300844Y-72110170D01*
X217276856Y-72090484D01*
X216293598Y-71107226D01*
X216293598Y-70977899D01*
X216257974Y-70798804D01*
X216188094Y-70630101D01*
X216086646Y-70478272D01*
X215957526Y-70349152D01*
X215805697Y-70247704D01*
X215636994Y-70177824D01*
X215457899Y-70142200D01*
X215275297Y-70142200D01*
X215096202Y-70177824D01*
X214927499Y-70247704D01*
X214775670Y-70349152D01*
X214646550Y-70478272D01*
X214545102Y-70630101D01*
X214475222Y-70798804D01*
X214439598Y-70977899D01*
X214439598Y-71160501D01*
X214475222Y-71339596D01*
X214545102Y-71508299D01*
X214646550Y-71660128D01*
X214775670Y-71789248D01*
X214927499Y-71890696D01*
X215096202Y-71960576D01*
X215275297Y-71996200D01*
X215404624Y-71996200D01*
X216225606Y-72817182D01*
X216225606Y-73648547D01*
X216017610Y-73440551D01*
X215997923Y-73416562D01*
X215902206Y-73338010D01*
X215793004Y-73279640D01*
X215678187Y-73244811D01*
X215576528Y-73143152D01*
X215424699Y-73041704D01*
X215255996Y-72971824D01*
X215076901Y-72936200D01*
X214894299Y-72936200D01*
X214715204Y-72971824D01*
X214546501Y-73041704D01*
X214394672Y-73143152D01*
X214265552Y-73272272D01*
X214164104Y-73424101D01*
X214094224Y-73592804D01*
X214058600Y-73771899D01*
X214058600Y-73954501D01*
X214094224Y-74133596D01*
X214164104Y-74302299D01*
X214265552Y-74454128D01*
X214394672Y-74583248D01*
X214508126Y-74659055D01*
X214508126Y-74794152D01*
X214543750Y-74973247D01*
X214613630Y-75141950D01*
X214715078Y-75293779D01*
X214806527Y-75385228D01*
X214806527Y-75543952D01*
X214721301Y-75527000D01*
X214538699Y-75527000D01*
X214359604Y-75562624D01*
X214190901Y-75632504D01*
X214039072Y-75733952D01*
X213909952Y-75863072D01*
X213808504Y-76014901D01*
X213738624Y-76183604D01*
X213707766Y-76338740D01*
X213551701Y-76369782D01*
X213528565Y-76350795D01*
X213437013Y-76301860D01*
X213337673Y-76271725D01*
X213234363Y-76261550D01*
X210724363Y-76261550D01*
X210621053Y-76271725D01*
X210521713Y-76301860D01*
X210430161Y-76350795D01*
X210349915Y-76416651D01*
X210284059Y-76496897D01*
X210235124Y-76588449D01*
X210204989Y-76687789D01*
X210194814Y-76791099D01*
X210194814Y-77791099D01*
X210204989Y-77894409D01*
X210235124Y-77993749D01*
X210284059Y-78085301D01*
X210349915Y-78165547D01*
X210430161Y-78231403D01*
X210521713Y-78280338D01*
X210621053Y-78310473D01*
X210724363Y-78320648D01*
X213141414Y-78320648D01*
X213103694Y-78377101D01*
X213033814Y-78545804D01*
X212998190Y-78724899D01*
X212998190Y-78907501D01*
X213033814Y-79086596D01*
X213103694Y-79255299D01*
X213205142Y-79407128D01*
X213334262Y-79536248D01*
X213486091Y-79637696D01*
X213654794Y-79707576D01*
X213772790Y-79731047D01*
X213772789Y-81810826D01*
X213757976Y-81810826D01*
X213753737Y-81767789D01*
X213723602Y-81668449D01*
X213674667Y-81576897D01*
X213608811Y-81496651D01*
X213528565Y-81430795D01*
X213437013Y-81381860D01*
X213337673Y-81351725D01*
X213234363Y-81341550D01*
X210724363Y-81341550D01*
X210621053Y-81351725D01*
X210521713Y-81381860D01*
X210430161Y-81430795D01*
X210349915Y-81496651D01*
X210284059Y-81576897D01*
X210235124Y-81668449D01*
X210204989Y-81767789D01*
X210194814Y-81871099D01*
X210194814Y-82246728D01*
X210141499Y-82211104D01*
X209972796Y-82141224D01*
X209793701Y-82105600D01*
X209611099Y-82105600D01*
X209432004Y-82141224D01*
X209263301Y-82211104D01*
X209111472Y-82312552D01*
X208982352Y-82441672D01*
X208880904Y-82593501D01*
X208811024Y-82762204D01*
X208775400Y-82941299D01*
X208775400Y-83123901D01*
X208811024Y-83302996D01*
X208880904Y-83471699D01*
X208982352Y-83623528D01*
X209111472Y-83752648D01*
X209263301Y-83854096D01*
X209329580Y-83881550D01*
X207414363Y-83881550D01*
X207311053Y-83891725D01*
X207211713Y-83921860D01*
X207120161Y-83970795D01*
X207039915Y-84036651D01*
X206974059Y-84116897D01*
X206925124Y-84208449D01*
X206894989Y-84307789D01*
X206884814Y-84411099D01*
X206884814Y-85411099D01*
X206894989Y-85514409D01*
X206925124Y-85613749D01*
X206974059Y-85705301D01*
X207039915Y-85785547D01*
X207120161Y-85851403D01*
X207211713Y-85900338D01*
X207311053Y-85930473D01*
X207414363Y-85940648D01*
X209924363Y-85940648D01*
X210027673Y-85930473D01*
X210127013Y-85900338D01*
X210218565Y-85851403D01*
X210298811Y-85785547D01*
X210322954Y-85756128D01*
X210480849Y-85821531D01*
X210659944Y-85857155D01*
X210842546Y-85857155D01*
X211021641Y-85821531D01*
X211190344Y-85751651D01*
X211342173Y-85650203D01*
X211350764Y-85641612D01*
X211350763Y-86421550D01*
X210724363Y-86421550D01*
X210621053Y-86431725D01*
X210521713Y-86461860D01*
X210430161Y-86510795D01*
X210349915Y-86576651D01*
X210284059Y-86656897D01*
X210235124Y-86748449D01*
X210204989Y-86847789D01*
X210194814Y-86951099D01*
X210194814Y-87951099D01*
X210204989Y-88054409D01*
X210235124Y-88153749D01*
X210284059Y-88245301D01*
X210349915Y-88325547D01*
X210430161Y-88391403D01*
X210521713Y-88440338D01*
X210621053Y-88470473D01*
X210724363Y-88480648D01*
X211213800Y-88480648D01*
X211213800Y-88635701D01*
X211249424Y-88814796D01*
X211319304Y-88983499D01*
X211409874Y-89119048D01*
X211259099Y-89018304D01*
X211090396Y-88948424D01*
X210911301Y-88912800D01*
X210728699Y-88912800D01*
X210549604Y-88948424D01*
X210380901Y-89018304D01*
X210269596Y-89092675D01*
X210218565Y-89050795D01*
X210127013Y-89001860D01*
X210027673Y-88971725D01*
X209924363Y-88961550D01*
X207414363Y-88961550D01*
X207311053Y-88971725D01*
X207211713Y-89001860D01*
X207120161Y-89050795D01*
X207039915Y-89116651D01*
X206974059Y-89196897D01*
X206925124Y-89288449D01*
X206894989Y-89387789D01*
X206884814Y-89491099D01*
X206884814Y-90491099D01*
X206894989Y-90594409D01*
X206925124Y-90693749D01*
X206974059Y-90785301D01*
X207039915Y-90865547D01*
X207120161Y-90931403D01*
X207211713Y-90980338D01*
X207311053Y-91010473D01*
X207414363Y-91020648D01*
X209924363Y-91020648D01*
X210027673Y-91010473D01*
X210127013Y-90980338D01*
X210218565Y-90931403D01*
X210298811Y-90865547D01*
X210364667Y-90785301D01*
X210413602Y-90693749D01*
X210418697Y-90676952D01*
X210549604Y-90731176D01*
X210728699Y-90766800D01*
X210911301Y-90766800D01*
X211090396Y-90731176D01*
X211259099Y-90661296D01*
X211410928Y-90559848D01*
X211540048Y-90430728D01*
X211641496Y-90278899D01*
X211711376Y-90110196D01*
X211747000Y-89931101D01*
X211747000Y-89748499D01*
X211711376Y-89569404D01*
X211641496Y-89400701D01*
X211550926Y-89265152D01*
X211701701Y-89365896D01*
X211870404Y-89435776D01*
X212049499Y-89471400D01*
X212232101Y-89471400D01*
X212411196Y-89435776D01*
X212579899Y-89365896D01*
X212731728Y-89264448D01*
X212860848Y-89135328D01*
X212962296Y-88983499D01*
X213032176Y-88814796D01*
X213067800Y-88635701D01*
X213067800Y-88480648D01*
X213234363Y-88480648D01*
X213271200Y-88477020D01*
X213271200Y-88635701D01*
X213306824Y-88814796D01*
X213376704Y-88983499D01*
X213478152Y-89135328D01*
X213569600Y-89226776D01*
X213569600Y-91624472D01*
X213528565Y-91590795D01*
X213437013Y-91541860D01*
X213337673Y-91511725D01*
X213234363Y-91501550D01*
X210724363Y-91501550D01*
X210621053Y-91511725D01*
X210521713Y-91541860D01*
X210430161Y-91590795D01*
X210349915Y-91656651D01*
X210284059Y-91736897D01*
X210235124Y-91828449D01*
X210204989Y-91927789D01*
X210194814Y-92031099D01*
X210194814Y-93031099D01*
X210204989Y-93134409D01*
X210235124Y-93233749D01*
X210284059Y-93325301D01*
X210349915Y-93405547D01*
X210430161Y-93471403D01*
X210521713Y-93520338D01*
X210621053Y-93550473D01*
X210724363Y-93560648D01*
X211441040Y-93560648D01*
X211454174Y-93585220D01*
X211532726Y-93680937D01*
X211556709Y-93700619D01*
X212246817Y-94390728D01*
X212266500Y-94414712D01*
X212362217Y-94493264D01*
X212471419Y-94551634D01*
X212535587Y-94571099D01*
X212589911Y-94587578D01*
X212713138Y-94599715D01*
X212735639Y-94597499D01*
X212788590Y-94650450D01*
X212788591Y-95758905D01*
X212785549Y-95789790D01*
X212797686Y-95913016D01*
X212833630Y-96031508D01*
X212892000Y-96140710D01*
X212892001Y-96140711D01*
X212970553Y-96236428D01*
X212994536Y-96256110D01*
X214204600Y-97466175D01*
X214204601Y-109977722D01*
X214175651Y-110073158D01*
X214163514Y-110196384D01*
X214166555Y-110227259D01*
X214166556Y-120080842D01*
X213994954Y-119940012D01*
X213599386Y-119728577D01*
X213170170Y-119598376D01*
X212723800Y-119554412D01*
X212277431Y-119598376D01*
X211848215Y-119728577D01*
X211452647Y-119940012D01*
X211105929Y-120224557D01*
X210821384Y-120571275D01*
X210609948Y-120966843D01*
X210479747Y-121396059D01*
X210446800Y-121730573D01*
X210446800Y-123454284D01*
X210479747Y-123788798D01*
X210609948Y-124218014D01*
X210821383Y-124613582D01*
X211105928Y-124960301D01*
X211452646Y-125244846D01*
X211848214Y-125456281D01*
X212277430Y-125586482D01*
X212426053Y-125601120D01*
X212361279Y-125665894D01*
X212259831Y-125817723D01*
X212189951Y-125986426D01*
X212154327Y-126165521D01*
X212154327Y-126348123D01*
X212189951Y-126527218D01*
X212259831Y-126695921D01*
X212361279Y-126847750D01*
X212490399Y-126976870D01*
X212642228Y-127078318D01*
X212785972Y-127137860D01*
X212808554Y-127251386D01*
X212878434Y-127420089D01*
X212979882Y-127571918D01*
X213109002Y-127701038D01*
X213260831Y-127802486D01*
X213293998Y-127816225D01*
X213287159Y-127885663D01*
X213290200Y-127916538D01*
X213290201Y-130915023D01*
X213198752Y-131006472D01*
X213097304Y-131158301D01*
X213027424Y-131327004D01*
X212991800Y-131506099D01*
X212991800Y-131688701D01*
X213027424Y-131867796D01*
X213097304Y-132036499D01*
X213198752Y-132188328D01*
X213327872Y-132317448D01*
X213479701Y-132418896D01*
X213648404Y-132488776D01*
X213827499Y-132524400D01*
X214010101Y-132524400D01*
X214189196Y-132488776D01*
X214329911Y-132430489D01*
X214445472Y-132546050D01*
X214597301Y-132647498D01*
X214766004Y-132717378D01*
X214945099Y-132753002D01*
X215127701Y-132753002D01*
X215306796Y-132717378D01*
X215475499Y-132647498D01*
X215626825Y-132546386D01*
X215664105Y-132571296D01*
X215832808Y-132641176D01*
X216011903Y-132676800D01*
X216194505Y-132676800D01*
X216258864Y-132663998D01*
X216348352Y-132797928D01*
X216477472Y-132927048D01*
X216629301Y-133028496D01*
X216798004Y-133098376D01*
X216977099Y-133134000D01*
X217159701Y-133134000D01*
X217338796Y-133098376D01*
X217507499Y-133028496D01*
X217659328Y-132927048D01*
X217788448Y-132797928D01*
X217889896Y-132646099D01*
X217959776Y-132477396D01*
X217995400Y-132298301D01*
X217995400Y-132168974D01*
X219280320Y-130884055D01*
X219280320Y-132656328D01*
X219280116Y-132671442D01*
X219276321Y-132730007D01*
X219269677Y-132777694D01*
X219260105Y-132823009D01*
X219248084Y-132865805D01*
X219233200Y-132908361D01*
X219216539Y-132948228D01*
X219196827Y-132988770D01*
X219175815Y-133026636D01*
X219152304Y-133064323D01*
X219126280Y-133101766D01*
X219098298Y-133138176D01*
X219068251Y-133173759D01*
X219036119Y-133208553D01*
X219001025Y-133243396D01*
X218965656Y-133275700D01*
X218928521Y-133307013D01*
X218887288Y-133339086D01*
X218846023Y-133368702D01*
X218801449Y-133398218D01*
X218757159Y-133425269D01*
X218709779Y-133451932D01*
X218660869Y-133477211D01*
X218607739Y-133502308D01*
X218555428Y-133524791D01*
X218500071Y-133546349D01*
X218443189Y-133566262D01*
X218385487Y-133584268D01*
X218325763Y-133600704D01*
X218262742Y-133615739D01*
X218197823Y-133628850D01*
X218131679Y-133639827D01*
X218062969Y-133648763D01*
X217992082Y-133655427D01*
X217914952Y-133659808D01*
X217832286Y-133661366D01*
X210200326Y-133661366D01*
X210197321Y-132473550D01*
X210038571Y-132314800D01*
X209189321Y-132314800D01*
X209189321Y-132334800D01*
X208935321Y-132334800D01*
X208935321Y-132314800D01*
X208086071Y-132314800D01*
X207927321Y-132473550D01*
X207924316Y-133661366D01*
X207551870Y-133661366D01*
X207551870Y-130687800D01*
X207924249Y-130687800D01*
X207927321Y-131902050D01*
X208086071Y-132060800D01*
X208935321Y-132060800D01*
X208935321Y-130211550D01*
X209189321Y-130211550D01*
X209189321Y-132060800D01*
X210038571Y-132060800D01*
X210197321Y-131902050D01*
X210200393Y-130687800D01*
X210188133Y-130563318D01*
X210151823Y-130443620D01*
X210092858Y-130333306D01*
X210013506Y-130236615D01*
X209916815Y-130157263D01*
X209806501Y-130098298D01*
X209686803Y-130061988D01*
X209562321Y-130049728D01*
X209348071Y-130052800D01*
X209189321Y-130211550D01*
X208935321Y-130211550D01*
X208776571Y-130052800D01*
X208562321Y-130049728D01*
X208437839Y-130061988D01*
X208318141Y-130098298D01*
X208207827Y-130157263D01*
X208111136Y-130236615D01*
X208031784Y-130333306D01*
X207972819Y-130443620D01*
X207936509Y-130563318D01*
X207924249Y-130687800D01*
X207551870Y-130687800D01*
X207541695Y-130584490D01*
X207511560Y-130485150D01*
X207462625Y-130393598D01*
X207396769Y-130313352D01*
X207316523Y-130247496D01*
X207224971Y-130198561D01*
X207125631Y-130168426D01*
X207022321Y-130158251D01*
X206022321Y-130158251D01*
X205919011Y-130168426D01*
X205819671Y-130198561D01*
X205728119Y-130247496D01*
X205647873Y-130313352D01*
X205582017Y-130393598D01*
X205533082Y-130485150D01*
X205502947Y-130584490D01*
X205492772Y-130687800D01*
X205492772Y-131567848D01*
X205450301Y-131559400D01*
X205267699Y-131559400D01*
X205199210Y-131573023D01*
X205183627Y-131568296D01*
X205091275Y-131559200D01*
X205060400Y-131556159D01*
X205029525Y-131559200D01*
X205011870Y-131559200D01*
X205011870Y-130687800D01*
X205001695Y-130584490D01*
X204971560Y-130485150D01*
X204922625Y-130393598D01*
X204856769Y-130313352D01*
X204776523Y-130247496D01*
X204684971Y-130198561D01*
X204585631Y-130168426D01*
X204482321Y-130158251D01*
X203482321Y-130158251D01*
X203379011Y-130168426D01*
X203279671Y-130198561D01*
X203188119Y-130247496D01*
X203107873Y-130313352D01*
X203042017Y-130393598D01*
X202993082Y-130485150D01*
X202962947Y-130584490D01*
X202952772Y-130687800D01*
X202952772Y-133661366D01*
X202471870Y-133661366D01*
X202471870Y-130687800D01*
X202461695Y-130584490D01*
X202431560Y-130485150D01*
X202382625Y-130393598D01*
X202316769Y-130313352D01*
X202236523Y-130247496D01*
X202144971Y-130198561D01*
X202045631Y-130168426D01*
X201942321Y-130158251D01*
X200942321Y-130158251D01*
X200839011Y-130168426D01*
X200739671Y-130198561D01*
X200648119Y-130247496D01*
X200567873Y-130313352D01*
X200502017Y-130393598D01*
X200453082Y-130485150D01*
X200422947Y-130584490D01*
X200412772Y-130687800D01*
X200412772Y-133661366D01*
X200040326Y-133661366D01*
X200037321Y-132473550D01*
X199878571Y-132314800D01*
X199029321Y-132314800D01*
X199029321Y-132334800D01*
X198775321Y-132334800D01*
X198775321Y-132314800D01*
X197926071Y-132314800D01*
X197767321Y-132473550D01*
X197764316Y-133661366D01*
X197391870Y-133661366D01*
X197391870Y-130687800D01*
X197764249Y-130687800D01*
X197767321Y-131902050D01*
X197926071Y-132060800D01*
X198775321Y-132060800D01*
X198775321Y-130211550D01*
X199029321Y-130211550D01*
X199029321Y-132060800D01*
X199878571Y-132060800D01*
X200037321Y-131902050D01*
X200040393Y-130687800D01*
X200028133Y-130563318D01*
X199991823Y-130443620D01*
X199932858Y-130333306D01*
X199853506Y-130236615D01*
X199756815Y-130157263D01*
X199646501Y-130098298D01*
X199526803Y-130061988D01*
X199402321Y-130049728D01*
X199188071Y-130052800D01*
X199029321Y-130211550D01*
X198775321Y-130211550D01*
X198616571Y-130052800D01*
X198402321Y-130049728D01*
X198277839Y-130061988D01*
X198158141Y-130098298D01*
X198047827Y-130157263D01*
X197951136Y-130236615D01*
X197871784Y-130333306D01*
X197812819Y-130443620D01*
X197776509Y-130563318D01*
X197764249Y-130687800D01*
X197391870Y-130687800D01*
X197381695Y-130584490D01*
X197351560Y-130485150D01*
X197302625Y-130393598D01*
X197236769Y-130313352D01*
X197156523Y-130247496D01*
X197064971Y-130198561D01*
X196965631Y-130168426D01*
X196862321Y-130158251D01*
X195862321Y-130158251D01*
X195759011Y-130168426D01*
X195659671Y-130198561D01*
X195568119Y-130247496D01*
X195487873Y-130313352D01*
X195422017Y-130393598D01*
X195373082Y-130485150D01*
X195342947Y-130584490D01*
X195332772Y-130687800D01*
X195332772Y-131867457D01*
X195188701Y-131838800D01*
X195006099Y-131838800D01*
X194851870Y-131869478D01*
X194851870Y-130687800D01*
X194841695Y-130584490D01*
X194811560Y-130485150D01*
X194762625Y-130393598D01*
X194696769Y-130313352D01*
X194616523Y-130247496D01*
X194524971Y-130198561D01*
X194425631Y-130168426D01*
X194322321Y-130158251D01*
X193322321Y-130158251D01*
X193219011Y-130168426D01*
X193119671Y-130198561D01*
X193028119Y-130247496D01*
X192947873Y-130313352D01*
X192882017Y-130393598D01*
X192833082Y-130485150D01*
X192802947Y-130584490D01*
X192792772Y-130687800D01*
X192792772Y-133661366D01*
X192311870Y-133661366D01*
X192311870Y-130687800D01*
X192301695Y-130584490D01*
X192271560Y-130485150D01*
X192222625Y-130393598D01*
X192156769Y-130313352D01*
X192076523Y-130247496D01*
X191984971Y-130198561D01*
X191885631Y-130168426D01*
X191782321Y-130158251D01*
X190782321Y-130158251D01*
X190679011Y-130168426D01*
X190579671Y-130198561D01*
X190488119Y-130247496D01*
X190407873Y-130313352D01*
X190342017Y-130393598D01*
X190293082Y-130485150D01*
X190262947Y-130584490D01*
X190252772Y-130687800D01*
X190252772Y-132385700D01*
X190184901Y-132372200D01*
X190002299Y-132372200D01*
X189846655Y-132403159D01*
X189771870Y-132328374D01*
X189771870Y-130687800D01*
X189761695Y-130584490D01*
X189731560Y-130485150D01*
X189682625Y-130393598D01*
X189616769Y-130313352D01*
X189536523Y-130247496D01*
X189444971Y-130198561D01*
X189345631Y-130168426D01*
X189242321Y-130158251D01*
X188242321Y-130158251D01*
X188139011Y-130168426D01*
X188039671Y-130198561D01*
X187948119Y-130247496D01*
X187867873Y-130313352D01*
X187802017Y-130393598D01*
X187753082Y-130485150D01*
X187722947Y-130584490D01*
X187712772Y-130687800D01*
X187712772Y-133661366D01*
X187340326Y-133661366D01*
X187337321Y-132473550D01*
X187178571Y-132314800D01*
X186329321Y-132314800D01*
X186329321Y-132334800D01*
X186075321Y-132334800D01*
X186075321Y-132314800D01*
X185226071Y-132314800D01*
X185067321Y-132473550D01*
X185064316Y-133661366D01*
X177429435Y-133661366D01*
X177394917Y-133661070D01*
X177314913Y-133658201D01*
X177242601Y-133652927D01*
X177172556Y-133645280D01*
X177105106Y-133635494D01*
X177038760Y-133623474D01*
X176975031Y-133609615D01*
X176913977Y-133594115D01*
X176853211Y-133576437D01*
X176795862Y-133557580D01*
X176740966Y-133537431D01*
X176685331Y-133514795D01*
X176634217Y-133491889D01*
X176584208Y-133467369D01*
X176536866Y-133442073D01*
X176490188Y-133414965D01*
X176445703Y-133386932D01*
X176403508Y-133358135D01*
X176361767Y-133327282D01*
X176323409Y-133296580D01*
X176286570Y-133264666D01*
X176252120Y-133232324D01*
X176218060Y-133197569D01*
X176187385Y-133163447D01*
X176157582Y-133127167D01*
X176130851Y-133091373D01*
X176105355Y-133053578D01*
X176082697Y-133016070D01*
X176061673Y-132976764D01*
X176043177Y-132937113D01*
X176026946Y-132896402D01*
X176013072Y-132854463D01*
X176001777Y-132811405D01*
X175992718Y-132764068D01*
X175986930Y-132714657D01*
X175984320Y-132648821D01*
X175984320Y-118254405D01*
X175994224Y-118304196D01*
X176064104Y-118472899D01*
X176165552Y-118624728D01*
X176294672Y-118753848D01*
X176446501Y-118855296D01*
X176615204Y-118925176D01*
X176794299Y-118960800D01*
X176976901Y-118960800D01*
X177155996Y-118925176D01*
X177324699Y-118855296D01*
X177476528Y-118753848D01*
X177567976Y-118662400D01*
X177719436Y-118662400D01*
X177685800Y-118831499D01*
X177685800Y-119014101D01*
X177721424Y-119193196D01*
X177791304Y-119361899D01*
X177892752Y-119513728D01*
X178021872Y-119642848D01*
X178173701Y-119744296D01*
X178342404Y-119814176D01*
X178521499Y-119849800D01*
X178704101Y-119849800D01*
X178883196Y-119814176D01*
X179051899Y-119744296D01*
X179203728Y-119642848D01*
X179332848Y-119513728D01*
X179362200Y-119469799D01*
X179362200Y-119547501D01*
X179397824Y-119726596D01*
X179467704Y-119895299D01*
X179569152Y-120047128D01*
X179609801Y-120087777D01*
X179609800Y-129822824D01*
X179518352Y-129914272D01*
X179416904Y-130066101D01*
X179347024Y-130234804D01*
X179311400Y-130413899D01*
X179311400Y-130596501D01*
X179347024Y-130775596D01*
X179416904Y-130944299D01*
X179518352Y-131096128D01*
X179647472Y-131225248D01*
X179799301Y-131326696D01*
X179968004Y-131396576D01*
X180147099Y-131432200D01*
X180329701Y-131432200D01*
X180508796Y-131396576D01*
X180677499Y-131326696D01*
X180829328Y-131225248D01*
X180958448Y-131096128D01*
X181059896Y-130944299D01*
X181129776Y-130775596D01*
X181147239Y-130687800D01*
X185064249Y-130687800D01*
X185067321Y-131902050D01*
X185226071Y-132060800D01*
X186075321Y-132060800D01*
X186075321Y-130211550D01*
X186329321Y-130211550D01*
X186329321Y-132060800D01*
X187178571Y-132060800D01*
X187337321Y-131902050D01*
X187340393Y-130687800D01*
X187328133Y-130563318D01*
X187291823Y-130443620D01*
X187232858Y-130333306D01*
X187153506Y-130236615D01*
X187056815Y-130157263D01*
X186946501Y-130098298D01*
X186826803Y-130061988D01*
X186702321Y-130049728D01*
X186488071Y-130052800D01*
X186329321Y-130211550D01*
X186075321Y-130211550D01*
X185916571Y-130052800D01*
X185702321Y-130049728D01*
X185577839Y-130061988D01*
X185458141Y-130098298D01*
X185347827Y-130157263D01*
X185251136Y-130236615D01*
X185171784Y-130333306D01*
X185112819Y-130443620D01*
X185076509Y-130563318D01*
X185064249Y-130687800D01*
X181147239Y-130687800D01*
X181165400Y-130596501D01*
X181165400Y-130413899D01*
X181129776Y-130234804D01*
X181059896Y-130066101D01*
X180958448Y-129914272D01*
X180867000Y-129822824D01*
X180867000Y-125647800D01*
X185172772Y-125647800D01*
X185172772Y-128647800D01*
X185182947Y-128751110D01*
X185213082Y-128850450D01*
X185262017Y-128942002D01*
X185327873Y-129022248D01*
X185408119Y-129088104D01*
X185499671Y-129137039D01*
X185599011Y-129167174D01*
X185702321Y-129177349D01*
X186702321Y-129177349D01*
X186805631Y-129167174D01*
X186904971Y-129137039D01*
X186996523Y-129088104D01*
X187076769Y-129022248D01*
X187142625Y-128942002D01*
X187191560Y-128850450D01*
X187221695Y-128751110D01*
X187231870Y-128647800D01*
X187231870Y-126148995D01*
X187688266Y-125692600D01*
X187712772Y-125692600D01*
X187712772Y-128647800D01*
X187722947Y-128751110D01*
X187753082Y-128850450D01*
X187802017Y-128942002D01*
X187867873Y-129022248D01*
X187948119Y-129088104D01*
X188039671Y-129137039D01*
X188139011Y-129167174D01*
X188242321Y-129177349D01*
X189242321Y-129177349D01*
X189345631Y-129167174D01*
X189444971Y-129137039D01*
X189536523Y-129088104D01*
X189616769Y-129022248D01*
X189682625Y-128942002D01*
X189731560Y-128850450D01*
X189761695Y-128751110D01*
X189771870Y-128647800D01*
X189771870Y-125692600D01*
X190252772Y-125692600D01*
X190252772Y-128647800D01*
X190262947Y-128751110D01*
X190293082Y-128850450D01*
X190342017Y-128942002D01*
X190407873Y-129022248D01*
X190488119Y-129088104D01*
X190579671Y-129137039D01*
X190679011Y-129167174D01*
X190782321Y-129177349D01*
X191782321Y-129177349D01*
X191885631Y-129167174D01*
X191984971Y-129137039D01*
X192076523Y-129088104D01*
X192156769Y-129022248D01*
X192222625Y-128942002D01*
X192271560Y-128850450D01*
X192301695Y-128751110D01*
X192311870Y-128647800D01*
X192311870Y-125692600D01*
X192792772Y-125692600D01*
X192792772Y-128647800D01*
X192802947Y-128751110D01*
X192833082Y-128850450D01*
X192882017Y-128942002D01*
X192947873Y-129022248D01*
X193028119Y-129088104D01*
X193119671Y-129137039D01*
X193219011Y-129167174D01*
X193322321Y-129177349D01*
X194322321Y-129177349D01*
X194425631Y-129167174D01*
X194524971Y-129137039D01*
X194616523Y-129088104D01*
X194696769Y-129022248D01*
X194762625Y-128942002D01*
X194811560Y-128850450D01*
X194822329Y-128814951D01*
X194955299Y-128841400D01*
X195137901Y-128841400D01*
X195316996Y-128805776D01*
X195354782Y-128790124D01*
X195373082Y-128850450D01*
X195422017Y-128942002D01*
X195487873Y-129022248D01*
X195568119Y-129088104D01*
X195659671Y-129137039D01*
X195759011Y-129167174D01*
X195862321Y-129177349D01*
X196862321Y-129177349D01*
X196965631Y-129167174D01*
X197064971Y-129137039D01*
X197156523Y-129088104D01*
X197236769Y-129022248D01*
X197302625Y-128942002D01*
X197351560Y-128850450D01*
X197381695Y-128751110D01*
X197391870Y-128647800D01*
X197391870Y-125647800D01*
X197872772Y-125647800D01*
X197872772Y-128647800D01*
X197882947Y-128751110D01*
X197913082Y-128850450D01*
X197962017Y-128942002D01*
X198027873Y-129022248D01*
X198108119Y-129088104D01*
X198199671Y-129137039D01*
X198299011Y-129167174D01*
X198402321Y-129177349D01*
X199402321Y-129177349D01*
X199505631Y-129167174D01*
X199604971Y-129137039D01*
X199696523Y-129088104D01*
X199776769Y-129022248D01*
X199842625Y-128942002D01*
X199891560Y-128850450D01*
X199921695Y-128751110D01*
X199931870Y-128647800D01*
X199931870Y-128005828D01*
X200084804Y-128069176D01*
X200263899Y-128104800D01*
X200412772Y-128104800D01*
X200412772Y-128647800D01*
X200422947Y-128751110D01*
X200453082Y-128850450D01*
X200502017Y-128942002D01*
X200567873Y-129022248D01*
X200648119Y-129088104D01*
X200739671Y-129137039D01*
X200839011Y-129167174D01*
X200942321Y-129177349D01*
X201942321Y-129177349D01*
X202010656Y-129170619D01*
X202048304Y-129261509D01*
X202149752Y-129413338D01*
X202278872Y-129542458D01*
X202430701Y-129643906D01*
X202599404Y-129713786D01*
X202778499Y-129749410D01*
X202961101Y-129749410D01*
X203140196Y-129713786D01*
X203308899Y-129643906D01*
X203460728Y-129542458D01*
X203589848Y-129413338D01*
X203691296Y-129261509D01*
X203726157Y-129177349D01*
X204482321Y-129177349D01*
X204585631Y-129167174D01*
X204684971Y-129137039D01*
X204776523Y-129088104D01*
X204856769Y-129022248D01*
X204922625Y-128942002D01*
X204971560Y-128850450D01*
X205001695Y-128751110D01*
X205011870Y-128647800D01*
X205011870Y-127926774D01*
X205140699Y-127952400D01*
X205323301Y-127952400D01*
X205492772Y-127918690D01*
X205492772Y-128647800D01*
X205502947Y-128751110D01*
X205533082Y-128850450D01*
X205582017Y-128942002D01*
X205647873Y-129022248D01*
X205728119Y-129088104D01*
X205819671Y-129137039D01*
X205919011Y-129167174D01*
X206022321Y-129177349D01*
X207022321Y-129177349D01*
X207125631Y-129167174D01*
X207224971Y-129137039D01*
X207316523Y-129088104D01*
X207396769Y-129022248D01*
X207462625Y-128942002D01*
X207511560Y-128850450D01*
X207541695Y-128751110D01*
X207551870Y-128647800D01*
X207551870Y-127749575D01*
X207611917Y-127731360D01*
X207721119Y-127672990D01*
X207816836Y-127594438D01*
X207836523Y-127570449D01*
X207860972Y-127546000D01*
X207990299Y-127546000D01*
X208032772Y-127537552D01*
X208032772Y-128647800D01*
X208042947Y-128751110D01*
X208073082Y-128850450D01*
X208122017Y-128942002D01*
X208187873Y-129022248D01*
X208268119Y-129088104D01*
X208359671Y-129137039D01*
X208459011Y-129167174D01*
X208562321Y-129177349D01*
X209562321Y-129177349D01*
X209665631Y-129167174D01*
X209764971Y-129137039D01*
X209856523Y-129088104D01*
X209936769Y-129022248D01*
X210002625Y-128942002D01*
X210051560Y-128850450D01*
X210081695Y-128751110D01*
X210091870Y-128647800D01*
X210091870Y-125647800D01*
X210081695Y-125544490D01*
X210051560Y-125445150D01*
X210002625Y-125353598D01*
X209936769Y-125273352D01*
X209856523Y-125207496D01*
X209767121Y-125159710D01*
X209767121Y-124588990D01*
X209820537Y-124535574D01*
X209933805Y-124366056D01*
X210011826Y-124177698D01*
X210051600Y-123977739D01*
X210051600Y-123773861D01*
X210011826Y-123573902D01*
X209933805Y-123385544D01*
X209820537Y-123216026D01*
X209676374Y-123071863D01*
X209506856Y-122958595D01*
X209318498Y-122880574D01*
X209118539Y-122840800D01*
X208914661Y-122840800D01*
X208714702Y-122880574D01*
X208526344Y-122958595D01*
X208356826Y-123071863D01*
X208212663Y-123216026D01*
X208099395Y-123385544D01*
X208021374Y-123573902D01*
X207981600Y-123773861D01*
X207981600Y-123977739D01*
X208021374Y-124177698D01*
X208099395Y-124366056D01*
X208212663Y-124535574D01*
X208356826Y-124679737D01*
X208357522Y-124680202D01*
X208357522Y-125159710D01*
X208268119Y-125207496D01*
X208187873Y-125273352D01*
X208122017Y-125353598D01*
X208073082Y-125445150D01*
X208042947Y-125544490D01*
X208032772Y-125647800D01*
X208032772Y-125700448D01*
X207990299Y-125692000D01*
X207807697Y-125692000D01*
X207628602Y-125727624D01*
X207551870Y-125759408D01*
X207551870Y-125647800D01*
X207541695Y-125544490D01*
X207511560Y-125445150D01*
X207462625Y-125353598D01*
X207396769Y-125273352D01*
X207316523Y-125207496D01*
X207224971Y-125158561D01*
X207125631Y-125128426D01*
X207022321Y-125118251D01*
X206022321Y-125118251D01*
X205919011Y-125128426D01*
X205819671Y-125158561D01*
X205728119Y-125207496D01*
X205647873Y-125273352D01*
X205582017Y-125353598D01*
X205533082Y-125445150D01*
X205502947Y-125544490D01*
X205492772Y-125647800D01*
X205492772Y-126132110D01*
X205323301Y-126098400D01*
X205140699Y-126098400D01*
X205011870Y-126124026D01*
X205011870Y-125647800D01*
X205001695Y-125544490D01*
X204971560Y-125445150D01*
X204922625Y-125353598D01*
X204856769Y-125273352D01*
X204776523Y-125207496D01*
X204684971Y-125158561D01*
X204622999Y-125139762D01*
X204841672Y-124960301D01*
X205126217Y-124613583D01*
X205337652Y-124218015D01*
X205467853Y-123788799D01*
X205500800Y-123454285D01*
X205500800Y-121730574D01*
X205467853Y-121396060D01*
X205337652Y-120966843D01*
X205126217Y-120571275D01*
X204841672Y-120224557D01*
X204494954Y-119940012D01*
X204099386Y-119728577D01*
X203670170Y-119598376D01*
X203223800Y-119554412D01*
X202777431Y-119598376D01*
X202348215Y-119728577D01*
X201952647Y-119940012D01*
X201605929Y-120224557D01*
X201321384Y-120571275D01*
X201109948Y-120966843D01*
X200979747Y-121396059D01*
X200946800Y-121730573D01*
X200946800Y-123454284D01*
X200979747Y-123788798D01*
X201109948Y-124218014D01*
X201321383Y-124613582D01*
X201605928Y-124960301D01*
X201798390Y-125118251D01*
X200942321Y-125118251D01*
X200839011Y-125128426D01*
X200739671Y-125158561D01*
X200648119Y-125207496D01*
X200567873Y-125273352D01*
X200502017Y-125353598D01*
X200453082Y-125445150D01*
X200422947Y-125544490D01*
X200412772Y-125647800D01*
X200412772Y-126250800D01*
X200263899Y-126250800D01*
X200084804Y-126286424D01*
X199931870Y-126349772D01*
X199931870Y-125647800D01*
X199921695Y-125544490D01*
X199891560Y-125445150D01*
X199842625Y-125353598D01*
X199776769Y-125273352D01*
X199696523Y-125207496D01*
X199604971Y-125158561D01*
X199505631Y-125128426D01*
X199402321Y-125118251D01*
X198402321Y-125118251D01*
X198299011Y-125128426D01*
X198199671Y-125158561D01*
X198108119Y-125207496D01*
X198027873Y-125273352D01*
X197962017Y-125353598D01*
X197913082Y-125445150D01*
X197882947Y-125544490D01*
X197872772Y-125647800D01*
X197391870Y-125647800D01*
X197381695Y-125544490D01*
X197351560Y-125445150D01*
X197302625Y-125353598D01*
X197236769Y-125273352D01*
X197156523Y-125207496D01*
X197064971Y-125158561D01*
X196965631Y-125128426D01*
X196862321Y-125118251D01*
X195970414Y-125118251D01*
X197381115Y-123707550D01*
X197920400Y-123707550D01*
X198024253Y-123697266D01*
X198070406Y-123683213D01*
X198117090Y-123697375D01*
X198220400Y-123707550D01*
X199370400Y-123707550D01*
X199473710Y-123697375D01*
X199573050Y-123667240D01*
X199664602Y-123618305D01*
X199744848Y-123552448D01*
X199810705Y-123472202D01*
X199859640Y-123380650D01*
X199889775Y-123281310D01*
X199899950Y-123178000D01*
X199899950Y-122998570D01*
X199922480Y-122980080D01*
X199946812Y-122950431D01*
X200420437Y-122476807D01*
X200450080Y-122452480D01*
X200474409Y-122422835D01*
X200547177Y-122334167D01*
X200619327Y-122199184D01*
X200619327Y-122199183D01*
X200663757Y-122052719D01*
X200675000Y-121938566D01*
X200675000Y-121938557D01*
X200678758Y-121900401D01*
X200675000Y-121862245D01*
X200675000Y-120815163D01*
X200678759Y-120777000D01*
X200672125Y-120709648D01*
X200663757Y-120624681D01*
X200619327Y-120478216D01*
X200547177Y-120343234D01*
X200450080Y-120224920D01*
X200420436Y-120200592D01*
X200017601Y-119797758D01*
X200001976Y-119719204D01*
X199932096Y-119550501D01*
X199830648Y-119398672D01*
X199701528Y-119269552D01*
X199549699Y-119168104D01*
X199380996Y-119098224D01*
X199201901Y-119062600D01*
X199019299Y-119062600D01*
X198840204Y-119098224D01*
X198671501Y-119168104D01*
X198519672Y-119269552D01*
X198390552Y-119398672D01*
X198289104Y-119550501D01*
X198219224Y-119719204D01*
X198183600Y-119898299D01*
X198183600Y-120080901D01*
X198219224Y-120259996D01*
X198289104Y-120428699D01*
X198390552Y-120580528D01*
X198519672Y-120709648D01*
X198671501Y-120811096D01*
X198840204Y-120880976D01*
X198918758Y-120896601D01*
X199121001Y-121098844D01*
X199121001Y-121148450D01*
X198220400Y-121148450D01*
X198117633Y-121158517D01*
X198070405Y-121172790D01*
X198023710Y-121158625D01*
X197920400Y-121148450D01*
X196920400Y-121148450D01*
X196817090Y-121158625D01*
X196717750Y-121188760D01*
X196626198Y-121237695D01*
X196545952Y-121303552D01*
X196480095Y-121383798D01*
X196431160Y-121475350D01*
X196401025Y-121574690D01*
X196390850Y-121678000D01*
X196390850Y-122217285D01*
X194669535Y-123938600D01*
X194537819Y-123938600D01*
X194782599Y-123693820D01*
X194993485Y-123378206D01*
X195138747Y-123027514D01*
X195212800Y-122655222D01*
X195212800Y-122275636D01*
X195138747Y-121903344D01*
X194993485Y-121552652D01*
X194782599Y-121237038D01*
X194514191Y-120968630D01*
X194198577Y-120757744D01*
X193847885Y-120612482D01*
X193475593Y-120538429D01*
X193096007Y-120538429D01*
X192723715Y-120612482D01*
X192373023Y-120757744D01*
X192057409Y-120968630D01*
X191789001Y-121237038D01*
X191578115Y-121552652D01*
X191432853Y-121903344D01*
X191358800Y-122275636D01*
X191358800Y-122655222D01*
X191432853Y-123027514D01*
X191578115Y-123378206D01*
X191789001Y-123693820D01*
X192033781Y-123938600D01*
X187368079Y-123938600D01*
X187325000Y-123934357D01*
X187153077Y-123951290D01*
X186987763Y-124001438D01*
X186835408Y-124082873D01*
X186701867Y-124192467D01*
X186674408Y-124225926D01*
X185782084Y-125118251D01*
X185702321Y-125118251D01*
X185599011Y-125128426D01*
X185499671Y-125158561D01*
X185408119Y-125207496D01*
X185327873Y-125273352D01*
X185262017Y-125353598D01*
X185213082Y-125445150D01*
X185182947Y-125544490D01*
X185172772Y-125647800D01*
X180867000Y-125647800D01*
X180867000Y-123968636D01*
X181173023Y-124173114D01*
X181523715Y-124318376D01*
X181896007Y-124392429D01*
X182275593Y-124392429D01*
X182647885Y-124318376D01*
X182998577Y-124173114D01*
X183314191Y-123962228D01*
X183582599Y-123693820D01*
X183793485Y-123378206D01*
X183938747Y-123027514D01*
X184012800Y-122655222D01*
X184012800Y-122275636D01*
X183938747Y-121903344D01*
X183793485Y-121552652D01*
X183582599Y-121237038D01*
X183314191Y-120968630D01*
X182998577Y-120757744D01*
X182647885Y-120612482D01*
X182275593Y-120538429D01*
X181896007Y-120538429D01*
X181523715Y-120612482D01*
X181173023Y-120757744D01*
X180867000Y-120962222D01*
X180867000Y-120185020D01*
X180880128Y-120176248D01*
X181009248Y-120047128D01*
X181110696Y-119895299D01*
X181180576Y-119726596D01*
X181205238Y-119602609D01*
X181209395Y-119602200D01*
X181384824Y-119602200D01*
X181476272Y-119693648D01*
X181628101Y-119795096D01*
X181796804Y-119864976D01*
X181975899Y-119900600D01*
X182158501Y-119900600D01*
X182337596Y-119864976D01*
X182506299Y-119795096D01*
X182658128Y-119693648D01*
X182787248Y-119564528D01*
X182888696Y-119412699D01*
X182958576Y-119243996D01*
X182994200Y-119064901D01*
X182994200Y-118882299D01*
X182958576Y-118703204D01*
X182888696Y-118534501D01*
X182787248Y-118382672D01*
X182658128Y-118253552D01*
X182506299Y-118152104D01*
X182337596Y-118082224D01*
X182158501Y-118046600D01*
X181975899Y-118046600D01*
X181796804Y-118082224D01*
X181628101Y-118152104D01*
X181544485Y-118207974D01*
X181590004Y-118098083D01*
X181625628Y-117918988D01*
X181625628Y-117736386D01*
X181590004Y-117557291D01*
X181520124Y-117388588D01*
X181418676Y-117236759D01*
X181289556Y-117107639D01*
X181137727Y-117006191D01*
X180969024Y-116936311D01*
X180789929Y-116900687D01*
X180607327Y-116900687D01*
X180428232Y-116936311D01*
X180259529Y-117006191D01*
X180107700Y-117107639D01*
X179978580Y-117236759D01*
X179877132Y-117388588D01*
X179870251Y-117405200D01*
X177567976Y-117405200D01*
X177476528Y-117313752D01*
X177324699Y-117212304D01*
X177155996Y-117142424D01*
X176976901Y-117106800D01*
X176794299Y-117106800D01*
X176615204Y-117142424D01*
X176446501Y-117212304D01*
X176294672Y-117313752D01*
X176165552Y-117442872D01*
X176064104Y-117594701D01*
X175994224Y-117763404D01*
X175984320Y-117813195D01*
X175984320Y-114815033D01*
X183658800Y-114815033D01*
X183658800Y-115115825D01*
X183717481Y-115410839D01*
X183832590Y-115688735D01*
X183999701Y-115938835D01*
X184212394Y-116151528D01*
X184462494Y-116318639D01*
X184557200Y-116357868D01*
X184557201Y-117382423D01*
X184471352Y-117468272D01*
X184369904Y-117620101D01*
X184300024Y-117788804D01*
X184264400Y-117967899D01*
X184264400Y-118150501D01*
X184300024Y-118329596D01*
X184369904Y-118498299D01*
X184471352Y-118650128D01*
X184600472Y-118779248D01*
X184752301Y-118880696D01*
X184921004Y-118950576D01*
X185100099Y-118986200D01*
X185282701Y-118986200D01*
X185461796Y-118950576D01*
X185630499Y-118880696D01*
X185782328Y-118779248D01*
X185911448Y-118650128D01*
X186012896Y-118498299D01*
X186082776Y-118329596D01*
X186118400Y-118150501D01*
X186118400Y-117967899D01*
X186082776Y-117788804D01*
X186012896Y-117620101D01*
X185911448Y-117468272D01*
X185814400Y-117371224D01*
X185814400Y-116357868D01*
X185909106Y-116318639D01*
X186159206Y-116151528D01*
X186371899Y-115938835D01*
X186416145Y-115872616D01*
X186550387Y-115921237D01*
X187506195Y-114965429D01*
X186550387Y-114009621D01*
X186416145Y-114058242D01*
X186371899Y-113992023D01*
X186209892Y-113830016D01*
X186729992Y-113830016D01*
X187685800Y-114785824D01*
X187699943Y-114771682D01*
X187879548Y-114951287D01*
X187865405Y-114965429D01*
X187879548Y-114979572D01*
X187699943Y-115159177D01*
X187685800Y-115145034D01*
X186729992Y-116100842D01*
X186825756Y-116365243D01*
X187115371Y-116506133D01*
X187426908Y-116587813D01*
X187748395Y-116607147D01*
X188067475Y-116563390D01*
X188371888Y-116458224D01*
X188545844Y-116365243D01*
X188641607Y-116100844D01*
X188691213Y-116150450D01*
X188696561Y-116168079D01*
X188745496Y-116259631D01*
X188811352Y-116339877D01*
X188891598Y-116405733D01*
X188983150Y-116454668D01*
X189082490Y-116484803D01*
X189185800Y-116494978D01*
X189668201Y-116494978D01*
X189668200Y-118215024D01*
X189576752Y-118306472D01*
X189475304Y-118458301D01*
X189405424Y-118627004D01*
X189369800Y-118806099D01*
X189369800Y-118988701D01*
X189405424Y-119167796D01*
X189475304Y-119336499D01*
X189576752Y-119488328D01*
X189705872Y-119617448D01*
X189857701Y-119718896D01*
X190026404Y-119788776D01*
X190205499Y-119824400D01*
X190388101Y-119824400D01*
X190567196Y-119788776D01*
X190735899Y-119718896D01*
X190887728Y-119617448D01*
X191016848Y-119488328D01*
X191118296Y-119336499D01*
X191188176Y-119167796D01*
X191223800Y-118988701D01*
X191223800Y-118806099D01*
X191188176Y-118627004D01*
X191118296Y-118458301D01*
X191016848Y-118306472D01*
X190925400Y-118215024D01*
X190925400Y-116494978D01*
X191185800Y-116494978D01*
X191289110Y-116484803D01*
X191388450Y-116454668D01*
X191480002Y-116405733D01*
X191560248Y-116339877D01*
X191626104Y-116259631D01*
X191675039Y-116168079D01*
X191705174Y-116068739D01*
X191715349Y-115965429D01*
X191715349Y-114338732D01*
X203871800Y-114338732D01*
X203871800Y-115846125D01*
X203894980Y-116081475D01*
X203986584Y-116383453D01*
X204135341Y-116661758D01*
X204335534Y-116905695D01*
X204579470Y-117105888D01*
X204857775Y-117254645D01*
X205159753Y-117346249D01*
X205473800Y-117377180D01*
X205787846Y-117346249D01*
X206089824Y-117254645D01*
X206368129Y-117105888D01*
X206612066Y-116905695D01*
X206723800Y-116769546D01*
X206835534Y-116905695D01*
X207079470Y-117105888D01*
X207357775Y-117254645D01*
X207659753Y-117346249D01*
X207973800Y-117377180D01*
X208287846Y-117346249D01*
X208589824Y-117254645D01*
X208830386Y-117126062D01*
X208868263Y-117196923D01*
X208947615Y-117293614D01*
X209044306Y-117372966D01*
X209154620Y-117431931D01*
X209274318Y-117468241D01*
X209398800Y-117480501D01*
X210188050Y-117477429D01*
X210346800Y-117318679D01*
X210346800Y-115219429D01*
X210600800Y-115219429D01*
X210600800Y-117318679D01*
X210759550Y-117477429D01*
X211548800Y-117480501D01*
X211673282Y-117468241D01*
X211792980Y-117431931D01*
X211903294Y-117372966D01*
X211999985Y-117293614D01*
X212079337Y-117196923D01*
X212138302Y-117086609D01*
X212174612Y-116966911D01*
X212186872Y-116842429D01*
X212183800Y-115378179D01*
X212025050Y-115219429D01*
X210600800Y-115219429D01*
X210346800Y-115219429D01*
X210326800Y-115219429D01*
X210326800Y-114965429D01*
X210346800Y-114965429D01*
X210346800Y-112866179D01*
X210600800Y-112866179D01*
X210600800Y-114965429D01*
X212025050Y-114965429D01*
X212183800Y-114806679D01*
X212186872Y-113342429D01*
X212174612Y-113217947D01*
X212138302Y-113098249D01*
X212079337Y-112987935D01*
X211999985Y-112891244D01*
X211903294Y-112811892D01*
X211792980Y-112752927D01*
X211673282Y-112716617D01*
X211548800Y-112704357D01*
X210759550Y-112707429D01*
X210600800Y-112866179D01*
X210346800Y-112866179D01*
X210188050Y-112707429D01*
X209398800Y-112704357D01*
X209274318Y-112716617D01*
X209154620Y-112752927D01*
X209044306Y-112811892D01*
X208947615Y-112891244D01*
X208868263Y-112987935D01*
X208830387Y-113058796D01*
X208589825Y-112930213D01*
X208287847Y-112838609D01*
X207973800Y-112807678D01*
X207659754Y-112838609D01*
X207357776Y-112930213D01*
X207079471Y-113078970D01*
X206835535Y-113279163D01*
X206723801Y-113415312D01*
X206612066Y-113279163D01*
X206368130Y-113078970D01*
X206089825Y-112930213D01*
X205787847Y-112838609D01*
X205473800Y-112807678D01*
X205159754Y-112838609D01*
X204857776Y-112930213D01*
X204579471Y-113078970D01*
X204335535Y-113279163D01*
X204135342Y-113523099D01*
X203986585Y-113801404D01*
X203894980Y-114103382D01*
X203871800Y-114338732D01*
X191715349Y-114338732D01*
X191715349Y-113965429D01*
X191705174Y-113862119D01*
X191675039Y-113762779D01*
X191626104Y-113671227D01*
X191560248Y-113590981D01*
X191480002Y-113525125D01*
X191388450Y-113476190D01*
X191289110Y-113446055D01*
X191185800Y-113435880D01*
X189185800Y-113435880D01*
X189082490Y-113446055D01*
X188983150Y-113476190D01*
X188891598Y-113525125D01*
X188811352Y-113590981D01*
X188745496Y-113671227D01*
X188696561Y-113762779D01*
X188691213Y-113780408D01*
X188641607Y-113830014D01*
X188545844Y-113565615D01*
X188256229Y-113424725D01*
X187944692Y-113343045D01*
X187623205Y-113323711D01*
X187304125Y-113367468D01*
X186999712Y-113472634D01*
X186825756Y-113565615D01*
X186729992Y-113830016D01*
X186209892Y-113830016D01*
X186159206Y-113779330D01*
X185909106Y-113612219D01*
X185631210Y-113497110D01*
X185336196Y-113438429D01*
X185035404Y-113438429D01*
X184740390Y-113497110D01*
X184462494Y-113612219D01*
X184212394Y-113779330D01*
X183999701Y-113992023D01*
X183832590Y-114242123D01*
X183717481Y-114520019D01*
X183658800Y-114815033D01*
X175984320Y-114815033D01*
X175984320Y-112176699D01*
X176034800Y-112176699D01*
X176034800Y-112359301D01*
X176070424Y-112538396D01*
X176140304Y-112707099D01*
X176241752Y-112858928D01*
X176370872Y-112988048D01*
X176522701Y-113089496D01*
X176691404Y-113159376D01*
X176870499Y-113195000D01*
X177053101Y-113195000D01*
X177232196Y-113159376D01*
X177400899Y-113089496D01*
X177552728Y-112988048D01*
X177681848Y-112858928D01*
X177783296Y-112707099D01*
X177853176Y-112538396D01*
X177888800Y-112359301D01*
X177888800Y-112176699D01*
X177853176Y-111997604D01*
X177783296Y-111828901D01*
X177681848Y-111677072D01*
X177552728Y-111547952D01*
X177539600Y-111539180D01*
X177539600Y-110686774D01*
X177558800Y-110705974D01*
X177558800Y-110835301D01*
X177594424Y-111014396D01*
X177664304Y-111183099D01*
X177765752Y-111334928D01*
X177894872Y-111464048D01*
X178046701Y-111565496D01*
X178215404Y-111635376D01*
X178394499Y-111671000D01*
X178577101Y-111671000D01*
X178756196Y-111635376D01*
X178924899Y-111565496D01*
X179076728Y-111464048D01*
X179205848Y-111334928D01*
X179307296Y-111183099D01*
X179377176Y-111014396D01*
X179409767Y-110850549D01*
X179442304Y-110929099D01*
X179543752Y-111080928D01*
X179672872Y-111210048D01*
X179824701Y-111311496D01*
X179993404Y-111381376D01*
X180172499Y-111417000D01*
X180355101Y-111417000D01*
X180534196Y-111381376D01*
X180702899Y-111311496D01*
X180854728Y-111210048D01*
X180983848Y-111080928D01*
X181085296Y-110929099D01*
X181155176Y-110760396D01*
X181190800Y-110581301D01*
X181190800Y-110398699D01*
X181155176Y-110219604D01*
X181085296Y-110050901D01*
X180983848Y-109899072D01*
X180854728Y-109769952D01*
X180702899Y-109668504D01*
X180534196Y-109598624D01*
X180355101Y-109563000D01*
X180225775Y-109563000D01*
X178935775Y-108273001D01*
X178935775Y-106153342D01*
X194373992Y-106153342D01*
X194469756Y-106417743D01*
X194759371Y-106558633D01*
X195070908Y-106640313D01*
X195392395Y-106659647D01*
X195711475Y-106615890D01*
X196015888Y-106510724D01*
X196189844Y-106417743D01*
X196285608Y-106153342D01*
X195329800Y-105197534D01*
X194373992Y-106153342D01*
X178935775Y-106153342D01*
X178935775Y-105080524D01*
X193688082Y-105080524D01*
X193731839Y-105399604D01*
X193837005Y-105704017D01*
X193929986Y-105877973D01*
X194194387Y-105973737D01*
X195150195Y-105017929D01*
X195509405Y-105017929D01*
X196465213Y-105973737D01*
X196729614Y-105877973D01*
X196870504Y-105588358D01*
X196952184Y-105276821D01*
X196971518Y-104955334D01*
X196927761Y-104636254D01*
X196822595Y-104331841D01*
X196729614Y-104157885D01*
X196465213Y-104062121D01*
X195509405Y-105017929D01*
X195150195Y-105017929D01*
X194194387Y-104062121D01*
X193929986Y-104157885D01*
X193789096Y-104447500D01*
X193707416Y-104759037D01*
X193688082Y-105080524D01*
X178935775Y-105080524D01*
X178935775Y-103882516D01*
X194373992Y-103882516D01*
X195329800Y-104838324D01*
X196285608Y-103882516D01*
X196189844Y-103618115D01*
X195900229Y-103477225D01*
X195588692Y-103395545D01*
X195267205Y-103376211D01*
X194948125Y-103419968D01*
X194643712Y-103525134D01*
X194469756Y-103618115D01*
X194373992Y-103882516D01*
X178935775Y-103882516D01*
X178935775Y-97828136D01*
X190302800Y-97828136D01*
X190302800Y-98207722D01*
X190376853Y-98580014D01*
X190522115Y-98930706D01*
X190733001Y-99246320D01*
X191001409Y-99514728D01*
X191317023Y-99725614D01*
X191667715Y-99870876D01*
X192040007Y-99944929D01*
X192419593Y-99944929D01*
X192791885Y-99870876D01*
X193142577Y-99725614D01*
X193458191Y-99514728D01*
X193726599Y-99246320D01*
X193937485Y-98930706D01*
X194082747Y-98580014D01*
X194156800Y-98207722D01*
X194156800Y-97828136D01*
X194082747Y-97455844D01*
X193937485Y-97105152D01*
X193726599Y-96789538D01*
X193458191Y-96521130D01*
X193142577Y-96310244D01*
X192791885Y-96164982D01*
X192419593Y-96090929D01*
X192040007Y-96090929D01*
X191667715Y-96164982D01*
X191317023Y-96310244D01*
X191001409Y-96521130D01*
X190733001Y-96789538D01*
X190522115Y-97105152D01*
X190376853Y-97455844D01*
X190302800Y-97828136D01*
X178935775Y-97828136D01*
X178935775Y-94571099D01*
X181484814Y-94571099D01*
X181484814Y-95571099D01*
X181494989Y-95674409D01*
X181525124Y-95773749D01*
X181574059Y-95865301D01*
X181639915Y-95945547D01*
X181720161Y-96011403D01*
X181811713Y-96060338D01*
X181911053Y-96090473D01*
X182014363Y-96100648D01*
X184524363Y-96100648D01*
X184627673Y-96090473D01*
X184727013Y-96060338D01*
X184818565Y-96011403D01*
X184885888Y-95956153D01*
X185048799Y-96119063D01*
X185076267Y-96152533D01*
X185209808Y-96262127D01*
X185362163Y-96343562D01*
X185527478Y-96393710D01*
X185656321Y-96406400D01*
X185656330Y-96406400D01*
X185699399Y-96410642D01*
X185742469Y-96406400D01*
X186266573Y-96406400D01*
X186326744Y-96446605D01*
X186515102Y-96524626D01*
X186715061Y-96564400D01*
X186918939Y-96564400D01*
X187118898Y-96524626D01*
X187307256Y-96446605D01*
X187476774Y-96333337D01*
X187620937Y-96189174D01*
X187734205Y-96019656D01*
X187812226Y-95831298D01*
X187852000Y-95631339D01*
X187852000Y-95427461D01*
X187812226Y-95227502D01*
X187734205Y-95039144D01*
X187620937Y-94869626D01*
X187476774Y-94725463D01*
X187307256Y-94612195D01*
X187118898Y-94534174D01*
X186918939Y-94494400D01*
X186715061Y-94494400D01*
X186515102Y-94534174D01*
X186326744Y-94612195D01*
X186266573Y-94652400D01*
X186062665Y-94652400D01*
X185892794Y-94482529D01*
X185865333Y-94449067D01*
X185731792Y-94339473D01*
X185579437Y-94258038D01*
X185414122Y-94207890D01*
X185402943Y-94206789D01*
X185242200Y-94190957D01*
X185199121Y-94195200D01*
X184897043Y-94195200D01*
X184818565Y-94130795D01*
X184727013Y-94081860D01*
X184627673Y-94051725D01*
X184524363Y-94041550D01*
X182014363Y-94041550D01*
X181911053Y-94051725D01*
X181811713Y-94081860D01*
X181720161Y-94130795D01*
X181639915Y-94196651D01*
X181574059Y-94276897D01*
X181525124Y-94368449D01*
X181494989Y-94467789D01*
X181484814Y-94571099D01*
X178935775Y-94571099D01*
X178935775Y-90491099D01*
X181376291Y-90491099D01*
X181388551Y-90615581D01*
X181424861Y-90735279D01*
X181483826Y-90845593D01*
X181563178Y-90942284D01*
X181659869Y-91021636D01*
X181770183Y-91080601D01*
X181889881Y-91116911D01*
X182014363Y-91129171D01*
X182983613Y-91126099D01*
X183142363Y-90967349D01*
X183142363Y-90118099D01*
X181538113Y-90118099D01*
X181379363Y-90276849D01*
X181376291Y-90491099D01*
X178935775Y-90491099D01*
X178935775Y-89491099D01*
X181376291Y-89491099D01*
X181379363Y-89705349D01*
X181538113Y-89864099D01*
X183142363Y-89864099D01*
X183142363Y-89014849D01*
X182983613Y-88856099D01*
X182014363Y-88853027D01*
X181889881Y-88865287D01*
X181770183Y-88901597D01*
X181659869Y-88960562D01*
X181563178Y-89039914D01*
X181483826Y-89136605D01*
X181424861Y-89246919D01*
X181388551Y-89366617D01*
X181376291Y-89491099D01*
X178935775Y-89491099D01*
X178935775Y-87934461D01*
X182886400Y-87934461D01*
X182886400Y-88138339D01*
X182926174Y-88338298D01*
X183004195Y-88526656D01*
X183117463Y-88696174D01*
X183261626Y-88840337D01*
X183431144Y-88953605D01*
X183449856Y-88961356D01*
X183396363Y-89014849D01*
X183396363Y-89864099D01*
X183416363Y-89864099D01*
X183416363Y-90118099D01*
X183396363Y-90118099D01*
X183396363Y-90967349D01*
X183555113Y-91126099D01*
X184524363Y-91129171D01*
X184648845Y-91116911D01*
X184768543Y-91080601D01*
X184878857Y-91021636D01*
X184975548Y-90942284D01*
X185054900Y-90845593D01*
X185113865Y-90735279D01*
X185150175Y-90615581D01*
X185162435Y-90491099D01*
X185159363Y-90276849D01*
X185000615Y-90118101D01*
X185006363Y-90118101D01*
X185874564Y-90986302D01*
X185874564Y-91501550D01*
X185324363Y-91501550D01*
X185221053Y-91511725D01*
X185121713Y-91541860D01*
X185030161Y-91590795D01*
X184949915Y-91656651D01*
X184884059Y-91736897D01*
X184835124Y-91828449D01*
X184804989Y-91927789D01*
X184794814Y-92031099D01*
X184794814Y-93031099D01*
X184804989Y-93134409D01*
X184835124Y-93233749D01*
X184884059Y-93325301D01*
X184949915Y-93405547D01*
X185030161Y-93471403D01*
X185121713Y-93520338D01*
X185221053Y-93550473D01*
X185324363Y-93560648D01*
X187834363Y-93560648D01*
X187937673Y-93550473D01*
X188037013Y-93520338D01*
X188128565Y-93471403D01*
X188208811Y-93405547D01*
X188274667Y-93325301D01*
X188323602Y-93233749D01*
X188353737Y-93134409D01*
X188363912Y-93031099D01*
X188363912Y-92031099D01*
X188353737Y-91927789D01*
X188323602Y-91828449D01*
X188274667Y-91736897D01*
X188208811Y-91656651D01*
X188128565Y-91590795D01*
X188037013Y-91541860D01*
X187937673Y-91511725D01*
X187834363Y-91501550D01*
X187284163Y-91501550D01*
X187284163Y-90728974D01*
X187287572Y-90694362D01*
X187284163Y-90659750D01*
X187284163Y-90659741D01*
X187273965Y-90556198D01*
X187233664Y-90423343D01*
X187203833Y-90367533D01*
X193802800Y-90367533D01*
X193802800Y-90668325D01*
X193861481Y-90963339D01*
X193976590Y-91241235D01*
X194143701Y-91491335D01*
X194356394Y-91704028D01*
X194606494Y-91871139D01*
X194884390Y-91986248D01*
X195179404Y-92044929D01*
X195480196Y-92044929D01*
X195775210Y-91986248D01*
X196053106Y-91871139D01*
X196303206Y-91704028D01*
X196515899Y-91491335D01*
X196560145Y-91425116D01*
X196694387Y-91473737D01*
X197650195Y-90517929D01*
X197636053Y-90503787D01*
X197815658Y-90324182D01*
X197829800Y-90338324D01*
X197843943Y-90324182D01*
X198023548Y-90503787D01*
X198009405Y-90517929D01*
X198023548Y-90532072D01*
X197843943Y-90711677D01*
X197829800Y-90697534D01*
X196873992Y-91653342D01*
X196969756Y-91917743D01*
X197259371Y-92058633D01*
X197570908Y-92140313D01*
X197892395Y-92159647D01*
X198211475Y-92115890D01*
X198515888Y-92010724D01*
X198689844Y-91917743D01*
X198785607Y-91653344D01*
X198835213Y-91702950D01*
X198840561Y-91720579D01*
X198889496Y-91812131D01*
X198955352Y-91892377D01*
X199035598Y-91958233D01*
X199127150Y-92007168D01*
X199226490Y-92037303D01*
X199329800Y-92047478D01*
X201195547Y-92047478D01*
X199907146Y-93335879D01*
X199883163Y-93355562D01*
X199863481Y-93379545D01*
X199804610Y-93451280D01*
X199746240Y-93560482D01*
X199710296Y-93678974D01*
X199698159Y-93802200D01*
X199701201Y-93833085D01*
X199701200Y-103625490D01*
X199606494Y-103664719D01*
X199356394Y-103831830D01*
X199143701Y-104044523D01*
X198976590Y-104294623D01*
X198861481Y-104572519D01*
X198802800Y-104867533D01*
X198802800Y-105168325D01*
X198861481Y-105463339D01*
X198976590Y-105741235D01*
X199143701Y-105991335D01*
X199356394Y-106204028D01*
X199606494Y-106371139D01*
X199884390Y-106486248D01*
X200179404Y-106544929D01*
X200480196Y-106544929D01*
X200775210Y-106486248D01*
X201053106Y-106371139D01*
X201303206Y-106204028D01*
X201515899Y-105991335D01*
X201683010Y-105741235D01*
X201798119Y-105463339D01*
X201856800Y-105168325D01*
X201856800Y-104867533D01*
X201798119Y-104572519D01*
X201683010Y-104294623D01*
X201515899Y-104044523D01*
X201303206Y-103831830D01*
X201053106Y-103664719D01*
X200958400Y-103625490D01*
X200958400Y-97828136D01*
X201502800Y-97828136D01*
X201502800Y-98207722D01*
X201576853Y-98580014D01*
X201722115Y-98930706D01*
X201933001Y-99246320D01*
X202201409Y-99514728D01*
X202517023Y-99725614D01*
X202867715Y-99870876D01*
X203240007Y-99944929D01*
X203619593Y-99944929D01*
X203991885Y-99870876D01*
X204342577Y-99725614D01*
X204658191Y-99514728D01*
X204926599Y-99246320D01*
X205137485Y-98930706D01*
X205282747Y-98580014D01*
X205356800Y-98207722D01*
X205356800Y-97828136D01*
X205282747Y-97455844D01*
X205137485Y-97105152D01*
X204926599Y-96789538D01*
X204658191Y-96521130D01*
X204342577Y-96310244D01*
X203991885Y-96164982D01*
X203619593Y-96090929D01*
X203240007Y-96090929D01*
X202867715Y-96164982D01*
X202517023Y-96310244D01*
X202201409Y-96521130D01*
X201933001Y-96789538D01*
X201722115Y-97105152D01*
X201576853Y-97455844D01*
X201502800Y-97828136D01*
X200958400Y-97828136D01*
X200958400Y-94571099D01*
X206884814Y-94571099D01*
X206884814Y-95571099D01*
X206894989Y-95674409D01*
X206925124Y-95773749D01*
X206974059Y-95865301D01*
X207039915Y-95945547D01*
X207120161Y-96011403D01*
X207211713Y-96060338D01*
X207311053Y-96090473D01*
X207414363Y-96100648D01*
X209924363Y-96100648D01*
X210027673Y-96090473D01*
X210127013Y-96060338D01*
X210218565Y-96011403D01*
X210298811Y-95945547D01*
X210364667Y-95865301D01*
X210413602Y-95773749D01*
X210436065Y-95699699D01*
X210568323Y-95699699D01*
X210584672Y-95716048D01*
X210736501Y-95817496D01*
X210905204Y-95887376D01*
X211084299Y-95923000D01*
X211266901Y-95923000D01*
X211445996Y-95887376D01*
X211614699Y-95817496D01*
X211766528Y-95716048D01*
X211895648Y-95586928D01*
X211997096Y-95435099D01*
X212066976Y-95266396D01*
X212102600Y-95087301D01*
X212102600Y-94904699D01*
X212066976Y-94725604D01*
X211997096Y-94556901D01*
X211895648Y-94405072D01*
X211766528Y-94275952D01*
X211614699Y-94174504D01*
X211445996Y-94104624D01*
X211266901Y-94069000D01*
X211084299Y-94069000D01*
X210905204Y-94104624D01*
X210736501Y-94174504D01*
X210584672Y-94275952D01*
X210455552Y-94405072D01*
X210434341Y-94436816D01*
X210413602Y-94368449D01*
X210364667Y-94276897D01*
X210298811Y-94196651D01*
X210218565Y-94130795D01*
X210127013Y-94081860D01*
X210027673Y-94051725D01*
X209924363Y-94041550D01*
X207414363Y-94041550D01*
X207311053Y-94051725D01*
X207211713Y-94081860D01*
X207120161Y-94130795D01*
X207039915Y-94196651D01*
X206974059Y-94276897D01*
X206925124Y-94368449D01*
X206894989Y-94467789D01*
X206884814Y-94571099D01*
X200958400Y-94571099D01*
X200958400Y-94062574D01*
X202606655Y-92414320D01*
X202630638Y-92394638D01*
X202709190Y-92298921D01*
X202767560Y-92189719D01*
X202803504Y-92071227D01*
X202812600Y-91978875D01*
X202812600Y-91978874D01*
X202815641Y-91948000D01*
X202812600Y-91917125D01*
X202812600Y-83400800D01*
X202884901Y-83400800D01*
X203063996Y-83365176D01*
X203232699Y-83295296D01*
X203384528Y-83193848D01*
X203513648Y-83064728D01*
X203615096Y-82912899D01*
X203684976Y-82744196D01*
X203720600Y-82565101D01*
X203720600Y-82435775D01*
X203927455Y-82228920D01*
X203951438Y-82209238D01*
X204029990Y-82113521D01*
X204088360Y-82004319D01*
X204124304Y-81885827D01*
X204133400Y-81793475D01*
X204133400Y-81793474D01*
X204136441Y-81762600D01*
X204133400Y-81731725D01*
X204133400Y-81678610D01*
X204234101Y-81745896D01*
X204402804Y-81815776D01*
X204581899Y-81851400D01*
X204764501Y-81851400D01*
X204943596Y-81815776D01*
X205112299Y-81745896D01*
X205264128Y-81644448D01*
X205393248Y-81515328D01*
X205494696Y-81363499D01*
X205564576Y-81194796D01*
X205600200Y-81015701D01*
X205600200Y-80833099D01*
X205588287Y-80773210D01*
X205597504Y-80742827D01*
X205606600Y-80650475D01*
X205606600Y-80650473D01*
X205609641Y-80619601D01*
X205606600Y-80588728D01*
X205606600Y-77517505D01*
X205782078Y-77552410D01*
X205964680Y-77552410D01*
X206143775Y-77516786D01*
X206254400Y-77470963D01*
X206254400Y-80638090D01*
X206231604Y-80642624D01*
X206062901Y-80712504D01*
X205911072Y-80813952D01*
X205781952Y-80943072D01*
X205680504Y-81094901D01*
X205610624Y-81263604D01*
X205575000Y-81442699D01*
X205575000Y-81625301D01*
X205610624Y-81804396D01*
X205680504Y-81973099D01*
X205781952Y-82124928D01*
X205911072Y-82254048D01*
X206062901Y-82355496D01*
X206231604Y-82425376D01*
X206410699Y-82461000D01*
X206593301Y-82461000D01*
X206772396Y-82425376D01*
X206941099Y-82355496D01*
X207092928Y-82254048D01*
X207222048Y-82124928D01*
X207323496Y-81973099D01*
X207393376Y-81804396D01*
X207429000Y-81625301D01*
X207429000Y-81464988D01*
X207466560Y-81394719D01*
X207502504Y-81276227D01*
X207511600Y-81183875D01*
X207511600Y-81183874D01*
X207514641Y-81153001D01*
X207511600Y-81122128D01*
X207511600Y-80860648D01*
X209924363Y-80860648D01*
X210027673Y-80850473D01*
X210127013Y-80820338D01*
X210218565Y-80771403D01*
X210298811Y-80705547D01*
X210364667Y-80625301D01*
X210413602Y-80533749D01*
X210443737Y-80434409D01*
X210453912Y-80331099D01*
X210453912Y-79331099D01*
X210443737Y-79227789D01*
X210413602Y-79128449D01*
X210364667Y-79036897D01*
X210298811Y-78956651D01*
X210218565Y-78890795D01*
X210127013Y-78841860D01*
X210027673Y-78811725D01*
X209924363Y-78801550D01*
X207511600Y-78801550D01*
X207511600Y-75780648D01*
X207652182Y-75780648D01*
X207632400Y-75880099D01*
X207632400Y-76062701D01*
X207668024Y-76241796D01*
X207737904Y-76410499D01*
X207839352Y-76562328D01*
X207968472Y-76691448D01*
X208120301Y-76792896D01*
X208289004Y-76862776D01*
X208468099Y-76898400D01*
X208650701Y-76898400D01*
X208829796Y-76862776D01*
X208998499Y-76792896D01*
X209150328Y-76691448D01*
X209279448Y-76562328D01*
X209380896Y-76410499D01*
X209450776Y-76241796D01*
X209486400Y-76062701D01*
X209486400Y-75880099D01*
X209466618Y-75780648D01*
X209924363Y-75780648D01*
X210027673Y-75770473D01*
X210127013Y-75740338D01*
X210218565Y-75691403D01*
X210298811Y-75625547D01*
X210364667Y-75545301D01*
X210413602Y-75453749D01*
X210443737Y-75354409D01*
X210453912Y-75251099D01*
X210453912Y-74251099D01*
X210443737Y-74147789D01*
X210437411Y-74126934D01*
X210523896Y-73997499D01*
X210593776Y-73828796D01*
X210629400Y-73649701D01*
X210629400Y-73467099D01*
X210593776Y-73288004D01*
X210562601Y-73212741D01*
X210621053Y-73230473D01*
X210724363Y-73240648D01*
X211350764Y-73240648D01*
X211350764Y-73631492D01*
X211347722Y-73662377D01*
X211359859Y-73785603D01*
X211395803Y-73904095D01*
X211454173Y-74013297D01*
X211490540Y-74057610D01*
X211532726Y-74109015D01*
X211556709Y-74128697D01*
X212318154Y-74890143D01*
X212318154Y-75019469D01*
X212353778Y-75198564D01*
X212423658Y-75367267D01*
X212525106Y-75519096D01*
X212654226Y-75648216D01*
X212806055Y-75749664D01*
X212974758Y-75819544D01*
X213153853Y-75855168D01*
X213336455Y-75855168D01*
X213515550Y-75819544D01*
X213684253Y-75749664D01*
X213836082Y-75648216D01*
X213965202Y-75519096D01*
X214066650Y-75367267D01*
X214136530Y-75198564D01*
X214172154Y-75019469D01*
X214172154Y-74836867D01*
X214136530Y-74657772D01*
X214066650Y-74489069D01*
X213965202Y-74337240D01*
X213836082Y-74208120D01*
X213684253Y-74106672D01*
X213515550Y-74036792D01*
X213336455Y-74001168D01*
X213207129Y-74001168D01*
X212607963Y-73402003D01*
X212607963Y-73240648D01*
X213234363Y-73240648D01*
X213337673Y-73230473D01*
X213378867Y-73217977D01*
X213470604Y-73255976D01*
X213649699Y-73291600D01*
X213832301Y-73291600D01*
X214011396Y-73255976D01*
X214180099Y-73186096D01*
X214331928Y-73084648D01*
X214461048Y-72955528D01*
X214562496Y-72803699D01*
X214632376Y-72634996D01*
X214668000Y-72455901D01*
X214668000Y-72273299D01*
X214632376Y-72094204D01*
X214562496Y-71925501D01*
X214461048Y-71773672D01*
X214331928Y-71644552D01*
X214180099Y-71543104D01*
X214011396Y-71473224D01*
X213832301Y-71437600D01*
X213685733Y-71437600D01*
X213674667Y-71416897D01*
X213608811Y-71336651D01*
X213528565Y-71270795D01*
X213437013Y-71221860D01*
X213337673Y-71191725D01*
X213234363Y-71181550D01*
X210724363Y-71181550D01*
X210621053Y-71191725D01*
X210521713Y-71221860D01*
X210509358Y-71228464D01*
X210509358Y-66246166D01*
X210600806Y-66154718D01*
X210702254Y-66002889D01*
X210772134Y-65834186D01*
X210807758Y-65655091D01*
X210807758Y-65472489D01*
X210772134Y-65293394D01*
X210702254Y-65124691D01*
X210600806Y-64972862D01*
X210471686Y-64843742D01*
X210319857Y-64742294D01*
X210151154Y-64672414D01*
X209972059Y-64636790D01*
X209789457Y-64636790D01*
X209610362Y-64672414D01*
X209441659Y-64742294D01*
X209289830Y-64843742D01*
X209160710Y-64972862D01*
X209059262Y-65124691D01*
X208989382Y-65293394D01*
X208953758Y-65472489D01*
X208953758Y-65655091D01*
X208989382Y-65834186D01*
X209059262Y-66002889D01*
X209160710Y-66154718D01*
X209252158Y-66246166D01*
X209252158Y-66374362D01*
X209245538Y-66367742D01*
X209093709Y-66266294D01*
X208925006Y-66196414D01*
X208745911Y-66160790D01*
X208563309Y-66160790D01*
X208384214Y-66196414D01*
X208215511Y-66266294D01*
X208063682Y-66367742D01*
X207934562Y-66496862D01*
X207833114Y-66648691D01*
X207763234Y-66817394D01*
X207727610Y-66996489D01*
X207727610Y-67125815D01*
X206460346Y-68393079D01*
X206436363Y-68412762D01*
X206416681Y-68436745D01*
X206357810Y-68508480D01*
X206299440Y-68617682D01*
X206263496Y-68736174D01*
X206251359Y-68859400D01*
X206254401Y-68890285D01*
X206254401Y-72363637D01*
X206143775Y-72317814D01*
X205964680Y-72282190D01*
X205782078Y-72282190D01*
X205606600Y-72317095D01*
X205606600Y-67103376D01*
X205698048Y-67011928D01*
X205799496Y-66860099D01*
X205869376Y-66691396D01*
X205905000Y-66512301D01*
X205905000Y-66329699D01*
X205869376Y-66150604D01*
X205799496Y-65981901D01*
X205698048Y-65830072D01*
X205568928Y-65700952D01*
X205417099Y-65599504D01*
X205248396Y-65529624D01*
X205069301Y-65494000D01*
X204886699Y-65494000D01*
X204707604Y-65529624D01*
X204538901Y-65599504D01*
X204387072Y-65700952D01*
X204257952Y-65830072D01*
X204156504Y-65981901D01*
X204086624Y-66150604D01*
X204051000Y-66329699D01*
X204051000Y-66512301D01*
X204086624Y-66691396D01*
X204156504Y-66860099D01*
X204257952Y-67011928D01*
X204349400Y-67103376D01*
X204349400Y-67712593D01*
X204133672Y-67449728D01*
X203786953Y-67165183D01*
X203391385Y-66953748D01*
X202962169Y-66823547D01*
X202515800Y-66779583D01*
X202069430Y-66823547D01*
X201640214Y-66953748D01*
X201244646Y-67165183D01*
X200897928Y-67449728D01*
X200613383Y-67796447D01*
X200401948Y-68192015D01*
X200271747Y-68621231D01*
X200238800Y-68955745D01*
X200238800Y-70679456D01*
X200271747Y-71013970D01*
X200401948Y-71443186D01*
X200613384Y-71838754D01*
X200897929Y-72185472D01*
X201244647Y-72470017D01*
X201640215Y-72681452D01*
X202069431Y-72811653D01*
X202515800Y-72855617D01*
X202962170Y-72811653D01*
X203391386Y-72681452D01*
X203786954Y-72470017D01*
X204133672Y-72185472D01*
X204349400Y-71922607D01*
X204349401Y-75664282D01*
X204326296Y-75608503D01*
X204224848Y-75456674D01*
X204095728Y-75327554D01*
X203943899Y-75226106D01*
X203775196Y-75156226D01*
X203596101Y-75120602D01*
X203413499Y-75120602D01*
X203234404Y-75156226D01*
X203065701Y-75226106D01*
X202913872Y-75327554D01*
X202784752Y-75456674D01*
X202683304Y-75608503D01*
X202613424Y-75777206D01*
X202577800Y-75956301D01*
X202577800Y-76138903D01*
X202613424Y-76317998D01*
X202683304Y-76486701D01*
X202784752Y-76638530D01*
X202876201Y-76729979D01*
X202876200Y-79899224D01*
X202774928Y-79797952D01*
X202623099Y-79696504D01*
X202454396Y-79626624D01*
X202275301Y-79591000D01*
X202092699Y-79591000D01*
X201913604Y-79626624D01*
X201744901Y-79696504D01*
X201593072Y-79797952D01*
X201463952Y-79927072D01*
X201362504Y-80078901D01*
X201292624Y-80247604D01*
X201257000Y-80426699D01*
X201257000Y-80609301D01*
X201292624Y-80788396D01*
X201362504Y-80957099D01*
X201416784Y-81038335D01*
X201259301Y-81007010D01*
X201076699Y-81007010D01*
X200897604Y-81042634D01*
X200770330Y-81095354D01*
X200742928Y-81067952D01*
X200591099Y-80966504D01*
X200422396Y-80896624D01*
X200243301Y-80861000D01*
X200060699Y-80861000D01*
X199881604Y-80896624D01*
X199712901Y-80966504D01*
X199561072Y-81067952D01*
X199431952Y-81197072D01*
X199330504Y-81348901D01*
X199260624Y-81517604D01*
X199225000Y-81696699D01*
X199225000Y-81879301D01*
X199260624Y-82058396D01*
X199330504Y-82227099D01*
X199431952Y-82378928D01*
X199523400Y-82470376D01*
X199523401Y-86099624D01*
X198113626Y-87509400D01*
X197740604Y-87509400D01*
X197709729Y-87506359D01*
X197678854Y-87509400D01*
X197586502Y-87518496D01*
X197468010Y-87554440D01*
X197358808Y-87612810D01*
X197263091Y-87691362D01*
X197243409Y-87715345D01*
X195869916Y-89088839D01*
X195775210Y-89049610D01*
X195480196Y-88990929D01*
X195179404Y-88990929D01*
X194884390Y-89049610D01*
X194606494Y-89164719D01*
X194356394Y-89331830D01*
X194143701Y-89544523D01*
X193976590Y-89794623D01*
X193861481Y-90072519D01*
X193802800Y-90367533D01*
X187203833Y-90367533D01*
X187168218Y-90300903D01*
X187129037Y-90253161D01*
X187102213Y-90220475D01*
X187102211Y-90220473D01*
X187080143Y-90193583D01*
X187053253Y-90171515D01*
X185362385Y-88480648D01*
X187834363Y-88480648D01*
X187937673Y-88470473D01*
X188037013Y-88440338D01*
X188128565Y-88391403D01*
X188208811Y-88325547D01*
X188274667Y-88245301D01*
X188323602Y-88153749D01*
X188353737Y-88054409D01*
X188363912Y-87951099D01*
X188363912Y-86951099D01*
X188353737Y-86847789D01*
X188323602Y-86748449D01*
X188274667Y-86656897D01*
X188208811Y-86576651D01*
X188128565Y-86510795D01*
X188037013Y-86461860D01*
X187937673Y-86431725D01*
X187834363Y-86421550D01*
X185324363Y-86421550D01*
X185221053Y-86431725D01*
X185121713Y-86461860D01*
X185030161Y-86510795D01*
X184949915Y-86576651D01*
X184884059Y-86656897D01*
X184835124Y-86748449D01*
X184804989Y-86847789D01*
X184794814Y-86951099D01*
X184794814Y-87480606D01*
X184725337Y-87376626D01*
X184581174Y-87232463D01*
X184411656Y-87119195D01*
X184223298Y-87041174D01*
X184023339Y-87001400D01*
X183819461Y-87001400D01*
X183619502Y-87041174D01*
X183431144Y-87119195D01*
X183261626Y-87232463D01*
X183117463Y-87376626D01*
X183004195Y-87546144D01*
X182926174Y-87734502D01*
X182886400Y-87934461D01*
X178935775Y-87934461D01*
X178935775Y-84411099D01*
X181484814Y-84411099D01*
X181484814Y-85411099D01*
X181494989Y-85514409D01*
X181525124Y-85613749D01*
X181574059Y-85705301D01*
X181639915Y-85785547D01*
X181720161Y-85851403D01*
X181811713Y-85900338D01*
X181911053Y-85930473D01*
X182014363Y-85940648D01*
X184524363Y-85940648D01*
X184627673Y-85930473D01*
X184727013Y-85900338D01*
X184818565Y-85851403D01*
X184898811Y-85785547D01*
X184964667Y-85705301D01*
X185013602Y-85613749D01*
X185043737Y-85514409D01*
X185053912Y-85411099D01*
X185053912Y-84411099D01*
X185043737Y-84307789D01*
X185013602Y-84208449D01*
X184964667Y-84116897D01*
X184898811Y-84036651D01*
X184818565Y-83970795D01*
X184727013Y-83921860D01*
X184627673Y-83891725D01*
X184524363Y-83881550D01*
X182014363Y-83881550D01*
X181911053Y-83891725D01*
X181811713Y-83921860D01*
X181720161Y-83970795D01*
X181639915Y-84036651D01*
X181574059Y-84116897D01*
X181525124Y-84208449D01*
X181494989Y-84307789D01*
X181484814Y-84411099D01*
X178935775Y-84411099D01*
X178935775Y-81871099D01*
X184794814Y-81871099D01*
X184794814Y-82871099D01*
X184804989Y-82974409D01*
X184835124Y-83073749D01*
X184884059Y-83165301D01*
X184949915Y-83245547D01*
X185030161Y-83311403D01*
X185121713Y-83360338D01*
X185221053Y-83390473D01*
X185324363Y-83400648D01*
X187834363Y-83400648D01*
X187937673Y-83390473D01*
X188037013Y-83360338D01*
X188128565Y-83311403D01*
X188208811Y-83245547D01*
X188274667Y-83165301D01*
X188323602Y-83073749D01*
X188353737Y-82974409D01*
X188363912Y-82871099D01*
X188363912Y-81871099D01*
X188353737Y-81767789D01*
X188323602Y-81668449D01*
X188274667Y-81576897D01*
X188208811Y-81496651D01*
X188128565Y-81430795D01*
X188037013Y-81381860D01*
X187937673Y-81351725D01*
X187834363Y-81341550D01*
X185324363Y-81341550D01*
X185221053Y-81351725D01*
X185121713Y-81381860D01*
X185030161Y-81430795D01*
X184949915Y-81496651D01*
X184884059Y-81576897D01*
X184835124Y-81668449D01*
X184804989Y-81767789D01*
X184794814Y-81871099D01*
X178935775Y-81871099D01*
X178935775Y-79331099D01*
X181484814Y-79331099D01*
X181484814Y-80331099D01*
X181494989Y-80434409D01*
X181525124Y-80533749D01*
X181574059Y-80625301D01*
X181639915Y-80705547D01*
X181720161Y-80771403D01*
X181811713Y-80820338D01*
X181911053Y-80850473D01*
X182014363Y-80860648D01*
X184524363Y-80860648D01*
X184627673Y-80850473D01*
X184727013Y-80820338D01*
X184818565Y-80771403D01*
X184898811Y-80705547D01*
X184964667Y-80625301D01*
X185013602Y-80533749D01*
X185043737Y-80434409D01*
X185053912Y-80331099D01*
X185053912Y-79331099D01*
X185043737Y-79227789D01*
X185013602Y-79128449D01*
X184981078Y-79067600D01*
X193552728Y-79067600D01*
X193564988Y-79192082D01*
X193601298Y-79311780D01*
X193660263Y-79422094D01*
X193739615Y-79518785D01*
X193836306Y-79598137D01*
X193946620Y-79657102D01*
X194066318Y-79693412D01*
X194190800Y-79705672D01*
X194980050Y-79702600D01*
X195138800Y-79543850D01*
X195138800Y-77444600D01*
X193714550Y-77444600D01*
X193555800Y-77603350D01*
X193552728Y-79067600D01*
X184981078Y-79067600D01*
X184964667Y-79036897D01*
X184898811Y-78956651D01*
X184818565Y-78890795D01*
X184727013Y-78841860D01*
X184627673Y-78811725D01*
X184524363Y-78801550D01*
X182014363Y-78801550D01*
X181911053Y-78811725D01*
X181811713Y-78841860D01*
X181720161Y-78890795D01*
X181639915Y-78956651D01*
X181574059Y-79036897D01*
X181525124Y-79128449D01*
X181494989Y-79227789D01*
X181484814Y-79331099D01*
X178935775Y-79331099D01*
X178935775Y-76791099D01*
X184794814Y-76791099D01*
X184794814Y-77791099D01*
X184804989Y-77894409D01*
X184835124Y-77993749D01*
X184884059Y-78085301D01*
X184949915Y-78165547D01*
X185030161Y-78231403D01*
X185121713Y-78280338D01*
X185221053Y-78310473D01*
X185324363Y-78320648D01*
X187834363Y-78320648D01*
X187937673Y-78310473D01*
X188037013Y-78280338D01*
X188128565Y-78231403D01*
X188208811Y-78165547D01*
X188274667Y-78085301D01*
X188323602Y-77993749D01*
X188353737Y-77894409D01*
X188363912Y-77791099D01*
X188363912Y-76791099D01*
X188353737Y-76687789D01*
X188323602Y-76588449D01*
X188274667Y-76496897D01*
X188208811Y-76416651D01*
X188128565Y-76350795D01*
X188037013Y-76301860D01*
X187937673Y-76271725D01*
X187834363Y-76261550D01*
X185324363Y-76261550D01*
X185221053Y-76271725D01*
X185121713Y-76301860D01*
X185030161Y-76350795D01*
X184949915Y-76416651D01*
X184884059Y-76496897D01*
X184835124Y-76588449D01*
X184804989Y-76687789D01*
X184794814Y-76791099D01*
X178935775Y-76791099D01*
X178935775Y-75611118D01*
X179027223Y-75519670D01*
X179128671Y-75367841D01*
X179198551Y-75199138D01*
X179234175Y-75020043D01*
X179234175Y-74837441D01*
X179198551Y-74658346D01*
X179128671Y-74489643D01*
X179027223Y-74337814D01*
X178940508Y-74251099D01*
X181484814Y-74251099D01*
X181484814Y-75251099D01*
X181494989Y-75354409D01*
X181525124Y-75453749D01*
X181574059Y-75545301D01*
X181639915Y-75625547D01*
X181720161Y-75691403D01*
X181811713Y-75740338D01*
X181911053Y-75770473D01*
X182014363Y-75780648D01*
X184524363Y-75780648D01*
X184627673Y-75770473D01*
X184727013Y-75740338D01*
X184818565Y-75691403D01*
X184898811Y-75625547D01*
X184946366Y-75567600D01*
X193552728Y-75567600D01*
X193555800Y-77031850D01*
X193714550Y-77190600D01*
X195138800Y-77190600D01*
X195138800Y-75091350D01*
X195392800Y-75091350D01*
X195392800Y-77190600D01*
X195412800Y-77190600D01*
X195412800Y-77444600D01*
X195392800Y-77444600D01*
X195392800Y-79543850D01*
X195551550Y-79702600D01*
X196340800Y-79705672D01*
X196465282Y-79693412D01*
X196584980Y-79657102D01*
X196695294Y-79598137D01*
X196791985Y-79518785D01*
X196871337Y-79422094D01*
X196909214Y-79351233D01*
X197149776Y-79479816D01*
X197451754Y-79571420D01*
X197765800Y-79602351D01*
X198079847Y-79571420D01*
X198381825Y-79479816D01*
X198660130Y-79331059D01*
X198904066Y-79130866D01*
X199015801Y-78994717D01*
X199127535Y-79130866D01*
X199371471Y-79331059D01*
X199649776Y-79479816D01*
X199951754Y-79571420D01*
X200265800Y-79602351D01*
X200579847Y-79571420D01*
X200881825Y-79479816D01*
X201160130Y-79331059D01*
X201404066Y-79130866D01*
X201604259Y-78886930D01*
X201753016Y-78608625D01*
X201844620Y-78306647D01*
X201867800Y-78071297D01*
X201867800Y-76563903D01*
X201844620Y-76328553D01*
X201753016Y-76026575D01*
X201604259Y-75748270D01*
X201404066Y-75504334D01*
X201160129Y-75304141D01*
X200881824Y-75155384D01*
X200579846Y-75063780D01*
X200265800Y-75032849D01*
X199951753Y-75063780D01*
X199649775Y-75155384D01*
X199371470Y-75304141D01*
X199127534Y-75504334D01*
X199015800Y-75640483D01*
X198904066Y-75504334D01*
X198660129Y-75304141D01*
X198381824Y-75155384D01*
X198079846Y-75063780D01*
X197765800Y-75032849D01*
X197451753Y-75063780D01*
X197149775Y-75155384D01*
X196909213Y-75283967D01*
X196871337Y-75213106D01*
X196791985Y-75116415D01*
X196695294Y-75037063D01*
X196584980Y-74978098D01*
X196465282Y-74941788D01*
X196340800Y-74929528D01*
X195551550Y-74932600D01*
X195392800Y-75091350D01*
X195138800Y-75091350D01*
X194980050Y-74932600D01*
X194190800Y-74929528D01*
X194066318Y-74941788D01*
X193946620Y-74978098D01*
X193836306Y-75037063D01*
X193739615Y-75116415D01*
X193660263Y-75213106D01*
X193601298Y-75323420D01*
X193564988Y-75443118D01*
X193552728Y-75567600D01*
X184946366Y-75567600D01*
X184964667Y-75545301D01*
X185013602Y-75453749D01*
X185043737Y-75354409D01*
X185053912Y-75251099D01*
X185053912Y-74251099D01*
X185043737Y-74147789D01*
X185013602Y-74048449D01*
X184964667Y-73956897D01*
X184898811Y-73876651D01*
X184818565Y-73810795D01*
X184727013Y-73761860D01*
X184627673Y-73731725D01*
X184524363Y-73721550D01*
X182014363Y-73721550D01*
X181911053Y-73731725D01*
X181811713Y-73761860D01*
X181720161Y-73810795D01*
X181639915Y-73876651D01*
X181574059Y-73956897D01*
X181525124Y-74048449D01*
X181494989Y-74147789D01*
X181484814Y-74251099D01*
X178940508Y-74251099D01*
X178898103Y-74208694D01*
X178746274Y-74107246D01*
X178577571Y-74037366D01*
X178398476Y-74001742D01*
X178215874Y-74001742D01*
X178036779Y-74037366D01*
X177868076Y-74107246D01*
X177716247Y-74208694D01*
X177587127Y-74337814D01*
X177485679Y-74489643D01*
X177415799Y-74658346D01*
X177388355Y-74796319D01*
X177230903Y-74765000D01*
X177048301Y-74765000D01*
X176869206Y-74800624D01*
X176700503Y-74870504D01*
X176548674Y-74971952D01*
X176419554Y-75101072D01*
X176318106Y-75252901D01*
X176248226Y-75421604D01*
X176212602Y-75600699D01*
X176212602Y-75744467D01*
X176156043Y-75850281D01*
X176120099Y-75968773D01*
X176107962Y-76091999D01*
X176120099Y-76215225D01*
X176156043Y-76333717D01*
X176214413Y-76442919D01*
X176265723Y-76505440D01*
X176282401Y-76525763D01*
X176282400Y-111636424D01*
X176241752Y-111677072D01*
X176140304Y-111828901D01*
X176070424Y-111997604D01*
X176034800Y-112176699D01*
X175984320Y-112176699D01*
X175984320Y-71711099D01*
X184794814Y-71711099D01*
X184794814Y-72711099D01*
X184804989Y-72814409D01*
X184835124Y-72913749D01*
X184884059Y-73005301D01*
X184949915Y-73085547D01*
X185030161Y-73151403D01*
X185121713Y-73200338D01*
X185221053Y-73230473D01*
X185324363Y-73240648D01*
X187834363Y-73240648D01*
X187937673Y-73230473D01*
X188037013Y-73200338D01*
X188128565Y-73151403D01*
X188208811Y-73085547D01*
X188274667Y-73005301D01*
X188323602Y-72913749D01*
X188353737Y-72814409D01*
X188363912Y-72711099D01*
X188363912Y-71711099D01*
X188353737Y-71607789D01*
X188323602Y-71508449D01*
X188274667Y-71416897D01*
X188208811Y-71336651D01*
X188128565Y-71270795D01*
X188037013Y-71221860D01*
X187937673Y-71191725D01*
X187834363Y-71181550D01*
X185324363Y-71181550D01*
X185221053Y-71191725D01*
X185121713Y-71221860D01*
X185030161Y-71270795D01*
X184949915Y-71336651D01*
X184884059Y-71416897D01*
X184835124Y-71508449D01*
X184804989Y-71607789D01*
X184794814Y-71711099D01*
X175984320Y-71711099D01*
X175984320Y-68955745D01*
X190738800Y-68955745D01*
X190738800Y-70679456D01*
X190771747Y-71013970D01*
X190901948Y-71443186D01*
X191113384Y-71838754D01*
X191397929Y-72185472D01*
X191744647Y-72470017D01*
X192140215Y-72681452D01*
X192569431Y-72811653D01*
X193015800Y-72855617D01*
X193462170Y-72811653D01*
X193891386Y-72681452D01*
X194286954Y-72470017D01*
X194633672Y-72185472D01*
X194918217Y-71838754D01*
X195129652Y-71443186D01*
X195259853Y-71013969D01*
X195292800Y-70679455D01*
X195292800Y-68955744D01*
X195259853Y-68621230D01*
X195129652Y-68192014D01*
X194918217Y-67796446D01*
X194633672Y-67449728D01*
X194286953Y-67165183D01*
X193891385Y-66953748D01*
X193462169Y-66823547D01*
X193015800Y-66779583D01*
X192569430Y-66823547D01*
X192140214Y-66953748D01*
X191744646Y-67165183D01*
X191397928Y-67449728D01*
X191113383Y-67796447D01*
X190901948Y-68192015D01*
X190771747Y-68621231D01*
X190738800Y-68955745D01*
X175984320Y-68955745D01*
X175984320Y-64399358D01*
X175984779Y-64374378D01*
X175988951Y-64318338D01*
X175995974Y-64270967D01*
X176005816Y-64226182D01*
X176018421Y-64182655D01*
X176033135Y-64141560D01*
X176050178Y-64101501D01*
X176069381Y-64062540D01*
X176090977Y-64024043D01*
X176114741Y-63986350D01*
X176140450Y-63949701D01*
X176169576Y-63912148D01*
X176199350Y-63877217D01*
X176232693Y-63841451D01*
X176265935Y-63808717D01*
X176301903Y-63776072D01*
X176341708Y-63742804D01*
X176381891Y-63711852D01*
X176422994Y-63682608D01*
X176467788Y-63653190D01*
X176512350Y-63626204D01*
X176559373Y-63599961D01*
X176608696Y-63574674D01*
X176659157Y-63550993D01*
X176711233Y-63528697D01*
X176766016Y-63507437D01*
X176823553Y-63487371D01*
X176881934Y-63469241D01*
X176941764Y-63452875D01*
X177003890Y-63438144D01*
X177067911Y-63425269D01*
X177134109Y-63414329D01*
X177203450Y-63405363D01*
X177275579Y-63398667D01*
X177350134Y-63394499D01*
X177432339Y-63392966D01*
X217835877Y-63392966D01*
X217860315Y-63393118D01*
M02*
