G04 #@! TF.GenerationSoftware,KiCad,Pcbnew,(5.1.5-0-10_14)*
G04 #@! TF.CreationDate,2020-01-23T10:54:37-08:00*
G04 #@! TF.ProjectId,AndyCabinets,416e6479-4361-4626-996e-6574732e6b69,rev?*
G04 #@! TF.SameCoordinates,Original*
G04 #@! TF.FileFunction,Soldermask,Top*
G04 #@! TF.FilePolarity,Negative*
%FSLAX46Y46*%
G04 Gerber Fmt 4.6, Leading zero omitted, Abs format (unit mm)*
G04 Created by KiCad (PCBNEW (5.1.5-0-10_14)) date 2020-01-23 10:54:37*
%MOMM*%
%LPD*%
G04 APERTURE LIST*
%ADD10C,0.050000*%
G04 APERTURE END LIST*
D10*
G36*
X185391832Y-128629636D02*
G01*
X185589946Y-128689734D01*
X185589949Y-128689735D01*
X185686775Y-128741490D01*
X185772529Y-128787326D01*
X185932565Y-128918664D01*
X186063903Y-129078700D01*
X186109739Y-129164454D01*
X186161494Y-129261280D01*
X186161495Y-129261283D01*
X186221593Y-129459397D01*
X186236800Y-129613799D01*
X186236800Y-131717059D01*
X186221593Y-131871461D01*
X186161495Y-132069574D01*
X186161494Y-132069578D01*
X186109739Y-132166404D01*
X186063903Y-132252158D01*
X185932565Y-132412194D01*
X185772529Y-132543532D01*
X185655830Y-132605908D01*
X185589948Y-132641123D01*
X185589945Y-132641124D01*
X185391831Y-132701222D01*
X185185800Y-132721514D01*
X184979768Y-132701222D01*
X184781654Y-132641124D01*
X184781651Y-132641123D01*
X184684825Y-132589368D01*
X184599071Y-132543532D01*
X184439035Y-132412194D01*
X184307697Y-132252158D01*
X184210107Y-132069578D01*
X184210106Y-132069577D01*
X184210105Y-132069574D01*
X184150007Y-131871460D01*
X184134800Y-131717058D01*
X184134801Y-129613799D01*
X184150008Y-129459397D01*
X184210106Y-129261283D01*
X184210107Y-129261280D01*
X184261862Y-129164454D01*
X184307698Y-129078700D01*
X184439036Y-128918664D01*
X184599072Y-128787326D01*
X184684826Y-128741490D01*
X184781652Y-128689735D01*
X184781655Y-128689734D01*
X184979769Y-128629636D01*
X185185800Y-128609344D01*
X185391832Y-128629636D01*
G37*
G36*
X190391832Y-128629636D02*
G01*
X190589946Y-128689734D01*
X190589949Y-128689735D01*
X190686775Y-128741490D01*
X190772529Y-128787326D01*
X190932565Y-128918664D01*
X191063903Y-129078700D01*
X191109739Y-129164454D01*
X191161494Y-129261280D01*
X191161495Y-129261283D01*
X191221593Y-129459397D01*
X191236800Y-129613799D01*
X191236800Y-131717059D01*
X191221593Y-131871461D01*
X191161495Y-132069574D01*
X191161494Y-132069578D01*
X191109739Y-132166404D01*
X191063903Y-132252158D01*
X190932565Y-132412194D01*
X190772529Y-132543532D01*
X190655830Y-132605908D01*
X190589948Y-132641123D01*
X190589945Y-132641124D01*
X190391831Y-132701222D01*
X190185800Y-132721514D01*
X189979768Y-132701222D01*
X189781654Y-132641124D01*
X189781651Y-132641123D01*
X189684825Y-132589368D01*
X189599071Y-132543532D01*
X189439035Y-132412194D01*
X189307697Y-132252158D01*
X189210107Y-132069578D01*
X189210106Y-132069577D01*
X189210105Y-132069574D01*
X189150007Y-131871460D01*
X189134800Y-131717058D01*
X189134801Y-129613799D01*
X189150008Y-129459397D01*
X189210106Y-129261283D01*
X189210107Y-129261280D01*
X189261862Y-129164454D01*
X189307698Y-129078700D01*
X189439036Y-128918664D01*
X189599072Y-128787326D01*
X189684826Y-128741490D01*
X189781652Y-128689735D01*
X189781655Y-128689734D01*
X189979769Y-128629636D01*
X190185800Y-128609344D01*
X190391832Y-128629636D01*
G37*
G36*
X203576858Y-120067488D02*
G01*
X203916348Y-120170471D01*
X203916350Y-120170472D01*
X204229222Y-120337706D01*
X204503461Y-120562768D01*
X204668183Y-120763482D01*
X204728522Y-120837006D01*
X204895758Y-121149881D01*
X204998741Y-121489371D01*
X205024800Y-121753954D01*
X205024800Y-123430904D01*
X204998741Y-123695487D01*
X204931719Y-123916429D01*
X204895757Y-124034979D01*
X204728523Y-124347851D01*
X204503461Y-124622090D01*
X204229223Y-124847152D01*
X203916349Y-125014386D01*
X203916347Y-125014387D01*
X203576857Y-125117370D01*
X203223800Y-125152143D01*
X202870742Y-125117370D01*
X202531252Y-125014387D01*
X202531250Y-125014386D01*
X202218378Y-124847152D01*
X201944139Y-124622090D01*
X201719077Y-124347852D01*
X201551843Y-124034978D01*
X201551842Y-124034976D01*
X201448859Y-123695486D01*
X201422800Y-123430903D01*
X201422800Y-121753954D01*
X201448859Y-121489371D01*
X201551843Y-121149881D01*
X201719079Y-120837006D01*
X201779419Y-120763482D01*
X201944140Y-120562768D01*
X202218379Y-120337706D01*
X202531251Y-120170472D01*
X202531253Y-120170471D01*
X202870743Y-120067488D01*
X203223800Y-120032715D01*
X203576858Y-120067488D01*
G37*
G36*
X213076858Y-120067488D02*
G01*
X213416348Y-120170471D01*
X213416350Y-120170472D01*
X213729222Y-120337706D01*
X214003461Y-120562768D01*
X214168183Y-120763482D01*
X214228522Y-120837006D01*
X214395758Y-121149881D01*
X214498741Y-121489371D01*
X214524800Y-121753954D01*
X214524800Y-123430904D01*
X214498741Y-123695487D01*
X214431719Y-123916429D01*
X214395757Y-124034979D01*
X214228523Y-124347851D01*
X214003461Y-124622090D01*
X213729223Y-124847152D01*
X213416349Y-125014386D01*
X213416347Y-125014387D01*
X213076857Y-125117370D01*
X212723800Y-125152143D01*
X212370742Y-125117370D01*
X212031252Y-125014387D01*
X212031250Y-125014386D01*
X211718378Y-124847152D01*
X211444139Y-124622090D01*
X211219077Y-124347852D01*
X211051843Y-124034978D01*
X211051842Y-124034976D01*
X210948859Y-123695486D01*
X210922800Y-123430903D01*
X210922800Y-121753954D01*
X210948859Y-121489371D01*
X211051843Y-121149881D01*
X211219079Y-120837006D01*
X211279419Y-120763482D01*
X211444140Y-120562768D01*
X211718379Y-120337706D01*
X212031251Y-120170472D01*
X212031253Y-120170471D01*
X212370743Y-120067488D01*
X212723800Y-120032715D01*
X213076858Y-120067488D01*
G37*
G36*
X193709041Y-121070189D02*
G01*
X193973105Y-121179568D01*
X194210758Y-121338363D01*
X194412866Y-121540471D01*
X194571661Y-121778124D01*
X194681040Y-122042188D01*
X194736800Y-122322517D01*
X194736800Y-122608341D01*
X194681040Y-122888670D01*
X194571661Y-123152734D01*
X194412866Y-123390387D01*
X194210758Y-123592495D01*
X193973105Y-123751290D01*
X193709041Y-123860669D01*
X193428712Y-123916429D01*
X193142888Y-123916429D01*
X192862559Y-123860669D01*
X192598495Y-123751290D01*
X192360842Y-123592495D01*
X192158734Y-123390387D01*
X191999939Y-123152734D01*
X191890560Y-122888670D01*
X191834800Y-122608341D01*
X191834800Y-122322517D01*
X191890560Y-122042188D01*
X191999939Y-121778124D01*
X192158734Y-121540471D01*
X192360842Y-121338363D01*
X192598495Y-121179568D01*
X192862559Y-121070189D01*
X193142888Y-121014429D01*
X193428712Y-121014429D01*
X193709041Y-121070189D01*
G37*
G36*
X182509041Y-121070189D02*
G01*
X182773105Y-121179568D01*
X183010758Y-121338363D01*
X183212866Y-121540471D01*
X183371661Y-121778124D01*
X183481040Y-122042188D01*
X183536800Y-122322517D01*
X183536800Y-122608341D01*
X183481040Y-122888670D01*
X183371661Y-123152734D01*
X183212866Y-123390387D01*
X183010758Y-123592495D01*
X182773105Y-123751290D01*
X182509041Y-123860669D01*
X182228712Y-123916429D01*
X181942888Y-123916429D01*
X181662559Y-123860669D01*
X181398495Y-123751290D01*
X181160842Y-123592495D01*
X180958734Y-123390387D01*
X180799939Y-123152734D01*
X180690560Y-122888670D01*
X180634800Y-122608341D01*
X180634800Y-122322517D01*
X180690560Y-122042188D01*
X180799939Y-121778124D01*
X180958734Y-121540471D01*
X181160842Y-121338363D01*
X181398495Y-121179568D01*
X181662559Y-121070189D01*
X181942888Y-121014429D01*
X182228712Y-121014429D01*
X182509041Y-121070189D01*
G37*
G36*
X179771038Y-120123645D02*
G01*
X179791657Y-120129900D01*
X179810653Y-120140053D01*
X179827308Y-120153721D01*
X179840976Y-120170376D01*
X179851129Y-120189372D01*
X179857384Y-120209991D01*
X179860100Y-120237569D01*
X179860100Y-120696289D01*
X179857384Y-120723867D01*
X179851129Y-120744486D01*
X179840976Y-120763482D01*
X179827308Y-120780137D01*
X179810653Y-120793805D01*
X179791657Y-120803958D01*
X179771038Y-120810213D01*
X179743460Y-120812929D01*
X179234740Y-120812929D01*
X179207162Y-120810213D01*
X179186543Y-120803958D01*
X179167547Y-120793805D01*
X179150892Y-120780137D01*
X179137224Y-120763482D01*
X179127071Y-120744486D01*
X179120816Y-120723867D01*
X179118100Y-120696289D01*
X179118100Y-120237569D01*
X179120816Y-120209991D01*
X179127071Y-120189372D01*
X179137224Y-120170376D01*
X179150892Y-120153721D01*
X179167547Y-120140053D01*
X179186543Y-120129900D01*
X179207162Y-120123645D01*
X179234740Y-120120929D01*
X179743460Y-120120929D01*
X179771038Y-120123645D01*
G37*
G36*
X178120038Y-120123645D02*
G01*
X178140657Y-120129900D01*
X178159653Y-120140053D01*
X178176308Y-120153721D01*
X178189976Y-120170376D01*
X178200129Y-120189372D01*
X178206384Y-120209991D01*
X178209100Y-120237569D01*
X178209100Y-120696289D01*
X178206384Y-120723867D01*
X178200129Y-120744486D01*
X178189976Y-120763482D01*
X178176308Y-120780137D01*
X178159653Y-120793805D01*
X178140657Y-120803958D01*
X178120038Y-120810213D01*
X178092460Y-120812929D01*
X177583740Y-120812929D01*
X177556162Y-120810213D01*
X177535543Y-120803958D01*
X177516547Y-120793805D01*
X177499892Y-120780137D01*
X177486224Y-120763482D01*
X177476071Y-120744486D01*
X177469816Y-120723867D01*
X177467100Y-120696289D01*
X177467100Y-120237569D01*
X177469816Y-120209991D01*
X177476071Y-120189372D01*
X177486224Y-120170376D01*
X177499892Y-120153721D01*
X177516547Y-120140053D01*
X177535543Y-120129900D01*
X177556162Y-120123645D01*
X177583740Y-120120929D01*
X178092460Y-120120929D01*
X178120038Y-120123645D01*
G37*
G36*
X176405538Y-120123645D02*
G01*
X176426157Y-120129900D01*
X176445153Y-120140053D01*
X176461808Y-120153721D01*
X176475476Y-120170376D01*
X176485629Y-120189372D01*
X176491884Y-120209991D01*
X176494600Y-120237569D01*
X176494600Y-120696289D01*
X176491884Y-120723867D01*
X176485629Y-120744486D01*
X176475476Y-120763482D01*
X176461808Y-120780137D01*
X176445153Y-120793805D01*
X176426157Y-120803958D01*
X176405538Y-120810213D01*
X176377960Y-120812929D01*
X175869240Y-120812929D01*
X175841662Y-120810213D01*
X175821043Y-120803958D01*
X175802047Y-120793805D01*
X175785392Y-120780137D01*
X175771724Y-120763482D01*
X175761571Y-120744486D01*
X175755316Y-120723867D01*
X175752600Y-120696289D01*
X175752600Y-120237569D01*
X175755316Y-120209991D01*
X175761571Y-120189372D01*
X175771724Y-120170376D01*
X175785392Y-120153721D01*
X175802047Y-120140053D01*
X175821043Y-120129900D01*
X175841662Y-120123645D01*
X175869240Y-120120929D01*
X176377960Y-120120929D01*
X176405538Y-120123645D01*
G37*
G36*
X179771038Y-119153645D02*
G01*
X179791657Y-119159900D01*
X179810653Y-119170053D01*
X179827308Y-119183721D01*
X179840976Y-119200376D01*
X179851129Y-119219372D01*
X179857384Y-119239991D01*
X179860100Y-119267569D01*
X179860100Y-119726289D01*
X179857384Y-119753867D01*
X179851129Y-119774486D01*
X179840976Y-119793482D01*
X179827308Y-119810137D01*
X179810653Y-119823805D01*
X179791657Y-119833958D01*
X179771038Y-119840213D01*
X179743460Y-119842929D01*
X179234740Y-119842929D01*
X179207162Y-119840213D01*
X179186543Y-119833958D01*
X179167547Y-119823805D01*
X179150892Y-119810137D01*
X179137224Y-119793482D01*
X179127071Y-119774486D01*
X179120816Y-119753867D01*
X179118100Y-119726289D01*
X179118100Y-119267569D01*
X179120816Y-119239991D01*
X179127071Y-119219372D01*
X179137224Y-119200376D01*
X179150892Y-119183721D01*
X179167547Y-119170053D01*
X179186543Y-119159900D01*
X179207162Y-119153645D01*
X179234740Y-119150929D01*
X179743460Y-119150929D01*
X179771038Y-119153645D01*
G37*
G36*
X178120038Y-119153645D02*
G01*
X178140657Y-119159900D01*
X178159653Y-119170053D01*
X178176308Y-119183721D01*
X178189976Y-119200376D01*
X178200129Y-119219372D01*
X178206384Y-119239991D01*
X178209100Y-119267569D01*
X178209100Y-119726289D01*
X178206384Y-119753867D01*
X178200129Y-119774486D01*
X178189976Y-119793482D01*
X178176308Y-119810137D01*
X178159653Y-119823805D01*
X178140657Y-119833958D01*
X178120038Y-119840213D01*
X178092460Y-119842929D01*
X177583740Y-119842929D01*
X177556162Y-119840213D01*
X177535543Y-119833958D01*
X177516547Y-119823805D01*
X177499892Y-119810137D01*
X177486224Y-119793482D01*
X177476071Y-119774486D01*
X177469816Y-119753867D01*
X177467100Y-119726289D01*
X177467100Y-119267569D01*
X177469816Y-119239991D01*
X177476071Y-119219372D01*
X177486224Y-119200376D01*
X177499892Y-119183721D01*
X177516547Y-119170053D01*
X177535543Y-119159900D01*
X177556162Y-119153645D01*
X177583740Y-119150929D01*
X178092460Y-119150929D01*
X178120038Y-119153645D01*
G37*
G36*
X176405538Y-119153645D02*
G01*
X176426157Y-119159900D01*
X176445153Y-119170053D01*
X176461808Y-119183721D01*
X176475476Y-119200376D01*
X176485629Y-119219372D01*
X176491884Y-119239991D01*
X176494600Y-119267569D01*
X176494600Y-119726289D01*
X176491884Y-119753867D01*
X176485629Y-119774486D01*
X176475476Y-119793482D01*
X176461808Y-119810137D01*
X176445153Y-119823805D01*
X176426157Y-119833958D01*
X176405538Y-119840213D01*
X176377960Y-119842929D01*
X175869240Y-119842929D01*
X175841662Y-119840213D01*
X175821043Y-119833958D01*
X175802047Y-119823805D01*
X175785392Y-119810137D01*
X175771724Y-119793482D01*
X175761571Y-119774486D01*
X175755316Y-119753867D01*
X175752600Y-119726289D01*
X175752600Y-119267569D01*
X175755316Y-119239991D01*
X175761571Y-119219372D01*
X175771724Y-119200376D01*
X175785392Y-119183721D01*
X175802047Y-119170053D01*
X175821043Y-119159900D01*
X175841662Y-119153645D01*
X175869240Y-119150929D01*
X176377960Y-119150929D01*
X176405538Y-119153645D01*
G37*
G36*
X179771038Y-118091645D02*
G01*
X179791657Y-118097900D01*
X179810653Y-118108053D01*
X179827308Y-118121721D01*
X179840976Y-118138376D01*
X179851129Y-118157372D01*
X179857384Y-118177991D01*
X179860100Y-118205569D01*
X179860100Y-118664289D01*
X179857384Y-118691867D01*
X179851129Y-118712486D01*
X179840976Y-118731482D01*
X179827308Y-118748137D01*
X179810653Y-118761805D01*
X179791657Y-118771958D01*
X179771038Y-118778213D01*
X179743460Y-118780929D01*
X179234740Y-118780929D01*
X179207162Y-118778213D01*
X179186543Y-118771958D01*
X179167547Y-118761805D01*
X179150892Y-118748137D01*
X179137224Y-118731482D01*
X179127071Y-118712486D01*
X179120816Y-118691867D01*
X179118100Y-118664289D01*
X179118100Y-118205569D01*
X179120816Y-118177991D01*
X179127071Y-118157372D01*
X179137224Y-118138376D01*
X179150892Y-118121721D01*
X179167547Y-118108053D01*
X179186543Y-118097900D01*
X179207162Y-118091645D01*
X179234740Y-118088929D01*
X179743460Y-118088929D01*
X179771038Y-118091645D01*
G37*
G36*
X178120038Y-118091645D02*
G01*
X178140657Y-118097900D01*
X178159653Y-118108053D01*
X178176308Y-118121721D01*
X178189976Y-118138376D01*
X178200129Y-118157372D01*
X178206384Y-118177991D01*
X178209100Y-118205569D01*
X178209100Y-118664289D01*
X178206384Y-118691867D01*
X178200129Y-118712486D01*
X178189976Y-118731482D01*
X178176308Y-118748137D01*
X178159653Y-118761805D01*
X178140657Y-118771958D01*
X178120038Y-118778213D01*
X178092460Y-118780929D01*
X177583740Y-118780929D01*
X177556162Y-118778213D01*
X177535543Y-118771958D01*
X177516547Y-118761805D01*
X177499892Y-118748137D01*
X177486224Y-118731482D01*
X177476071Y-118712486D01*
X177469816Y-118691867D01*
X177467100Y-118664289D01*
X177467100Y-118205569D01*
X177469816Y-118177991D01*
X177476071Y-118157372D01*
X177486224Y-118138376D01*
X177499892Y-118121721D01*
X177516547Y-118108053D01*
X177535543Y-118097900D01*
X177556162Y-118091645D01*
X177583740Y-118088929D01*
X178092460Y-118088929D01*
X178120038Y-118091645D01*
G37*
G36*
X176405538Y-118091645D02*
G01*
X176426157Y-118097900D01*
X176445153Y-118108053D01*
X176461808Y-118121721D01*
X176475476Y-118138376D01*
X176485629Y-118157372D01*
X176491884Y-118177991D01*
X176494600Y-118205569D01*
X176494600Y-118664289D01*
X176491884Y-118691867D01*
X176485629Y-118712486D01*
X176475476Y-118731482D01*
X176461808Y-118748137D01*
X176445153Y-118761805D01*
X176426157Y-118771958D01*
X176405538Y-118778213D01*
X176377960Y-118780929D01*
X175869240Y-118780929D01*
X175841662Y-118778213D01*
X175821043Y-118771958D01*
X175802047Y-118761805D01*
X175785392Y-118748137D01*
X175771724Y-118731482D01*
X175761571Y-118712486D01*
X175755316Y-118691867D01*
X175752600Y-118664289D01*
X175752600Y-118205569D01*
X175755316Y-118177991D01*
X175761571Y-118157372D01*
X175771724Y-118138376D01*
X175785392Y-118121721D01*
X175802047Y-118108053D01*
X175821043Y-118097900D01*
X175841662Y-118091645D01*
X175869240Y-118088929D01*
X176377960Y-118088929D01*
X176405538Y-118091645D01*
G37*
G36*
X176405538Y-117121645D02*
G01*
X176426157Y-117127900D01*
X176445153Y-117138053D01*
X176461808Y-117151721D01*
X176475476Y-117168376D01*
X176485629Y-117187372D01*
X176491884Y-117207991D01*
X176494600Y-117235569D01*
X176494600Y-117694289D01*
X176491884Y-117721867D01*
X176485629Y-117742486D01*
X176475476Y-117761482D01*
X176461808Y-117778137D01*
X176445153Y-117791805D01*
X176426157Y-117801958D01*
X176405538Y-117808213D01*
X176377960Y-117810929D01*
X175869240Y-117810929D01*
X175841662Y-117808213D01*
X175821043Y-117801958D01*
X175802047Y-117791805D01*
X175785392Y-117778137D01*
X175771724Y-117761482D01*
X175761571Y-117742486D01*
X175755316Y-117721867D01*
X175752600Y-117694289D01*
X175752600Y-117235569D01*
X175755316Y-117207991D01*
X175761571Y-117187372D01*
X175771724Y-117168376D01*
X175785392Y-117151721D01*
X175802047Y-117138053D01*
X175821043Y-117127900D01*
X175841662Y-117121645D01*
X175869240Y-117118929D01*
X176377960Y-117118929D01*
X176405538Y-117121645D01*
G37*
G36*
X178120038Y-117121645D02*
G01*
X178140657Y-117127900D01*
X178159653Y-117138053D01*
X178176308Y-117151721D01*
X178189976Y-117168376D01*
X178200129Y-117187372D01*
X178206384Y-117207991D01*
X178209100Y-117235569D01*
X178209100Y-117694289D01*
X178206384Y-117721867D01*
X178200129Y-117742486D01*
X178189976Y-117761482D01*
X178176308Y-117778137D01*
X178159653Y-117791805D01*
X178140657Y-117801958D01*
X178120038Y-117808213D01*
X178092460Y-117810929D01*
X177583740Y-117810929D01*
X177556162Y-117808213D01*
X177535543Y-117801958D01*
X177516547Y-117791805D01*
X177499892Y-117778137D01*
X177486224Y-117761482D01*
X177476071Y-117742486D01*
X177469816Y-117721867D01*
X177467100Y-117694289D01*
X177467100Y-117235569D01*
X177469816Y-117207991D01*
X177476071Y-117187372D01*
X177486224Y-117168376D01*
X177499892Y-117151721D01*
X177516547Y-117138053D01*
X177535543Y-117127900D01*
X177556162Y-117121645D01*
X177583740Y-117118929D01*
X178092460Y-117118929D01*
X178120038Y-117121645D01*
G37*
G36*
X179771038Y-117121645D02*
G01*
X179791657Y-117127900D01*
X179810653Y-117138053D01*
X179827308Y-117151721D01*
X179840976Y-117168376D01*
X179851129Y-117187372D01*
X179857384Y-117207991D01*
X179860100Y-117235569D01*
X179860100Y-117694289D01*
X179857384Y-117721867D01*
X179851129Y-117742486D01*
X179840976Y-117761482D01*
X179827308Y-117778137D01*
X179810653Y-117791805D01*
X179791657Y-117801958D01*
X179771038Y-117808213D01*
X179743460Y-117810929D01*
X179234740Y-117810929D01*
X179207162Y-117808213D01*
X179186543Y-117801958D01*
X179167547Y-117791805D01*
X179150892Y-117778137D01*
X179137224Y-117761482D01*
X179127071Y-117742486D01*
X179120816Y-117721867D01*
X179118100Y-117694289D01*
X179118100Y-117235569D01*
X179120816Y-117207991D01*
X179127071Y-117187372D01*
X179137224Y-117168376D01*
X179150892Y-117151721D01*
X179167547Y-117138053D01*
X179186543Y-117127900D01*
X179207162Y-117121645D01*
X179234740Y-117118929D01*
X179743460Y-117118929D01*
X179771038Y-117121645D01*
G37*
G36*
X208194535Y-113307721D02*
G01*
X208351559Y-113355354D01*
X208406790Y-113372108D01*
X208602398Y-113476663D01*
X208773855Y-113617374D01*
X208914566Y-113788831D01*
X209019121Y-113984439D01*
X209019122Y-113984443D01*
X209083508Y-114196694D01*
X209083508Y-114196696D01*
X209098404Y-114347938D01*
X209103184Y-114371971D01*
X209112562Y-114394610D01*
X209126175Y-114414985D01*
X209143503Y-114432312D01*
X209163877Y-114445925D01*
X209186516Y-114455303D01*
X209210549Y-114460083D01*
X209235053Y-114460083D01*
X209259086Y-114455303D01*
X209281725Y-114445925D01*
X209302100Y-114432312D01*
X209319427Y-114414984D01*
X209333040Y-114394610D01*
X209342418Y-114371971D01*
X209347800Y-114335686D01*
X209347800Y-113291429D01*
X211599800Y-113291429D01*
X211599800Y-116893429D01*
X209347800Y-116893429D01*
X209347800Y-115849172D01*
X209345398Y-115824786D01*
X209338285Y-115801337D01*
X209326734Y-115779726D01*
X209311189Y-115760784D01*
X209292247Y-115745239D01*
X209270636Y-115733688D01*
X209247187Y-115726575D01*
X209222801Y-115724173D01*
X209198415Y-115726575D01*
X209174966Y-115733688D01*
X209153355Y-115745239D01*
X209134413Y-115760784D01*
X209118868Y-115779726D01*
X209107317Y-115801337D01*
X209098404Y-115836920D01*
X209083508Y-115988164D01*
X209047277Y-116107600D01*
X209019121Y-116200419D01*
X208914566Y-116396027D01*
X208914565Y-116396028D01*
X208773855Y-116567484D01*
X208602399Y-116708194D01*
X208602397Y-116708195D01*
X208406789Y-116812750D01*
X208351558Y-116829504D01*
X208194534Y-116877137D01*
X207973800Y-116898877D01*
X207753065Y-116877137D01*
X207596041Y-116829504D01*
X207540810Y-116812750D01*
X207345202Y-116708195D01*
X207286314Y-116659867D01*
X207173745Y-116567484D01*
X207033035Y-116396028D01*
X207027056Y-116384842D01*
X206928479Y-116200418D01*
X206899952Y-116106376D01*
X206864092Y-115988163D01*
X206848197Y-115826776D01*
X206843417Y-115802743D01*
X206834039Y-115780104D01*
X206820426Y-115759729D01*
X206803098Y-115742402D01*
X206782724Y-115728789D01*
X206760085Y-115719411D01*
X206736052Y-115714631D01*
X206711548Y-115714631D01*
X206687515Y-115719411D01*
X206664876Y-115728789D01*
X206644501Y-115742402D01*
X206627174Y-115759730D01*
X206613561Y-115780104D01*
X206604183Y-115802743D01*
X206599403Y-115826776D01*
X206583508Y-115988164D01*
X206547277Y-116107600D01*
X206519121Y-116200419D01*
X206414566Y-116396027D01*
X206414565Y-116396028D01*
X206273855Y-116567484D01*
X206102399Y-116708194D01*
X206102397Y-116708195D01*
X205906789Y-116812750D01*
X205851558Y-116829504D01*
X205694534Y-116877137D01*
X205473800Y-116898877D01*
X205253065Y-116877137D01*
X205096041Y-116829504D01*
X205040810Y-116812750D01*
X204845202Y-116708195D01*
X204786314Y-116659867D01*
X204673745Y-116567484D01*
X204533035Y-116396028D01*
X204527056Y-116384842D01*
X204428479Y-116200418D01*
X204399952Y-116106376D01*
X204364092Y-115988163D01*
X204347800Y-115822744D01*
X204347800Y-114362113D01*
X204364092Y-114196694D01*
X204413432Y-114034044D01*
X204428479Y-113984440D01*
X204533035Y-113788831D01*
X204673746Y-113617374D01*
X204845203Y-113476663D01*
X205040811Y-113372108D01*
X205096042Y-113355354D01*
X205253066Y-113307721D01*
X205473800Y-113285981D01*
X205694535Y-113307721D01*
X205851559Y-113355354D01*
X205906790Y-113372108D01*
X206102398Y-113476663D01*
X206273855Y-113617374D01*
X206414566Y-113788831D01*
X206519121Y-113984439D01*
X206519122Y-113984443D01*
X206583508Y-114196694D01*
X206583508Y-114196696D01*
X206599403Y-114358081D01*
X206604183Y-114382114D01*
X206613561Y-114404753D01*
X206627174Y-114425128D01*
X206644502Y-114442455D01*
X206664876Y-114456068D01*
X206687515Y-114465446D01*
X206711548Y-114470226D01*
X206736052Y-114470226D01*
X206760085Y-114465446D01*
X206782724Y-114456068D01*
X206803099Y-114442455D01*
X206820426Y-114425127D01*
X206834039Y-114404753D01*
X206843417Y-114382114D01*
X206848197Y-114358081D01*
X206864092Y-114196696D01*
X206864092Y-114196694D01*
X206913432Y-114034044D01*
X206928479Y-113984440D01*
X207033035Y-113788831D01*
X207173746Y-113617374D01*
X207345203Y-113476663D01*
X207540811Y-113372108D01*
X207596042Y-113355354D01*
X207753066Y-113307721D01*
X207973800Y-113285981D01*
X208194535Y-113307721D01*
G37*
G36*
X176405538Y-116059645D02*
G01*
X176426157Y-116065900D01*
X176445153Y-116076053D01*
X176461808Y-116089721D01*
X176475476Y-116106376D01*
X176485629Y-116125372D01*
X176491884Y-116145991D01*
X176494600Y-116173569D01*
X176494600Y-116632289D01*
X176491884Y-116659867D01*
X176485629Y-116680486D01*
X176475476Y-116699482D01*
X176461808Y-116716137D01*
X176445153Y-116729805D01*
X176426157Y-116739958D01*
X176405538Y-116746213D01*
X176377960Y-116748929D01*
X175869240Y-116748929D01*
X175841662Y-116746213D01*
X175821043Y-116739958D01*
X175802047Y-116729805D01*
X175785392Y-116716137D01*
X175771724Y-116699482D01*
X175761571Y-116680486D01*
X175755316Y-116659867D01*
X175752600Y-116632289D01*
X175752600Y-116173569D01*
X175755316Y-116145991D01*
X175761571Y-116125372D01*
X175771724Y-116106376D01*
X175785392Y-116089721D01*
X175802047Y-116076053D01*
X175821043Y-116065900D01*
X175841662Y-116059645D01*
X175869240Y-116056929D01*
X176377960Y-116056929D01*
X176405538Y-116059645D01*
G37*
G36*
X179771038Y-116059645D02*
G01*
X179791657Y-116065900D01*
X179810653Y-116076053D01*
X179827308Y-116089721D01*
X179840976Y-116106376D01*
X179851129Y-116125372D01*
X179857384Y-116145991D01*
X179860100Y-116173569D01*
X179860100Y-116632289D01*
X179857384Y-116659867D01*
X179851129Y-116680486D01*
X179840976Y-116699482D01*
X179827308Y-116716137D01*
X179810653Y-116729805D01*
X179791657Y-116739958D01*
X179771038Y-116746213D01*
X179743460Y-116748929D01*
X179234740Y-116748929D01*
X179207162Y-116746213D01*
X179186543Y-116739958D01*
X179167547Y-116729805D01*
X179150892Y-116716137D01*
X179137224Y-116699482D01*
X179127071Y-116680486D01*
X179120816Y-116659867D01*
X179118100Y-116632289D01*
X179118100Y-116173569D01*
X179120816Y-116145991D01*
X179127071Y-116125372D01*
X179137224Y-116106376D01*
X179150892Y-116089721D01*
X179167547Y-116076053D01*
X179186543Y-116065900D01*
X179207162Y-116059645D01*
X179234740Y-116056929D01*
X179743460Y-116056929D01*
X179771038Y-116059645D01*
G37*
G36*
X178120038Y-116059645D02*
G01*
X178140657Y-116065900D01*
X178159653Y-116076053D01*
X178176308Y-116089721D01*
X178189976Y-116106376D01*
X178200129Y-116125372D01*
X178206384Y-116145991D01*
X178209100Y-116173569D01*
X178209100Y-116632289D01*
X178206384Y-116659867D01*
X178200129Y-116680486D01*
X178189976Y-116699482D01*
X178176308Y-116716137D01*
X178159653Y-116729805D01*
X178140657Y-116739958D01*
X178120038Y-116746213D01*
X178092460Y-116748929D01*
X177583740Y-116748929D01*
X177556162Y-116746213D01*
X177535543Y-116739958D01*
X177516547Y-116729805D01*
X177499892Y-116716137D01*
X177486224Y-116699482D01*
X177476071Y-116680486D01*
X177469816Y-116659867D01*
X177467100Y-116632289D01*
X177467100Y-116173569D01*
X177469816Y-116145991D01*
X177476071Y-116125372D01*
X177486224Y-116106376D01*
X177499892Y-116089721D01*
X177516547Y-116076053D01*
X177535543Y-116065900D01*
X177556162Y-116059645D01*
X177583740Y-116056929D01*
X178092460Y-116056929D01*
X178120038Y-116059645D01*
G37*
G36*
X185492364Y-113954818D02*
G01*
X185683633Y-114034044D01*
X185683635Y-114034045D01*
X185855773Y-114149064D01*
X186002165Y-114295456D01*
X186115749Y-114465446D01*
X186117185Y-114467596D01*
X186196411Y-114658865D01*
X186236800Y-114861913D01*
X186236800Y-115068945D01*
X186196411Y-115271993D01*
X186117185Y-115463262D01*
X186117184Y-115463264D01*
X186002165Y-115635402D01*
X185855773Y-115781794D01*
X185683635Y-115896813D01*
X185683634Y-115896814D01*
X185683633Y-115896814D01*
X185492364Y-115976040D01*
X185289316Y-116016429D01*
X185082284Y-116016429D01*
X184879236Y-115976040D01*
X184687967Y-115896814D01*
X184687966Y-115896814D01*
X184687965Y-115896813D01*
X184515827Y-115781794D01*
X184369435Y-115635402D01*
X184254416Y-115463264D01*
X184254415Y-115463262D01*
X184175189Y-115271993D01*
X184134800Y-115068945D01*
X184134800Y-114861913D01*
X184175189Y-114658865D01*
X184254415Y-114467596D01*
X184255852Y-114465446D01*
X184369435Y-114295456D01*
X184515827Y-114149064D01*
X184687965Y-114034045D01*
X184687967Y-114034044D01*
X184879236Y-113954818D01*
X185082284Y-113914429D01*
X185289316Y-113914429D01*
X185492364Y-113954818D01*
G37*
G36*
X191236800Y-116016429D02*
G01*
X189134800Y-116016429D01*
X189134800Y-113914429D01*
X191236800Y-113914429D01*
X191236800Y-116016429D01*
G37*
G36*
X187992364Y-113954818D02*
G01*
X188183633Y-114034044D01*
X188183635Y-114034045D01*
X188355773Y-114149064D01*
X188502165Y-114295456D01*
X188615749Y-114465446D01*
X188617185Y-114467596D01*
X188696411Y-114658865D01*
X188736800Y-114861913D01*
X188736800Y-115068945D01*
X188696411Y-115271993D01*
X188617185Y-115463262D01*
X188617184Y-115463264D01*
X188502165Y-115635402D01*
X188355773Y-115781794D01*
X188183635Y-115896813D01*
X188183634Y-115896814D01*
X188183633Y-115896814D01*
X187992364Y-115976040D01*
X187789316Y-116016429D01*
X187582284Y-116016429D01*
X187379236Y-115976040D01*
X187187967Y-115896814D01*
X187187966Y-115896814D01*
X187187965Y-115896813D01*
X187015827Y-115781794D01*
X186869435Y-115635402D01*
X186754416Y-115463264D01*
X186754415Y-115463262D01*
X186675189Y-115271993D01*
X186634800Y-115068945D01*
X186634800Y-114861913D01*
X186675189Y-114658865D01*
X186754415Y-114467596D01*
X186755852Y-114465446D01*
X186869435Y-114295456D01*
X187015827Y-114149064D01*
X187187965Y-114034045D01*
X187187967Y-114034044D01*
X187379236Y-113954818D01*
X187582284Y-113914429D01*
X187789316Y-113914429D01*
X187992364Y-113954818D01*
G37*
G36*
X199429468Y-114472994D02*
G01*
X199468138Y-114484725D01*
X199503777Y-114503775D01*
X199535017Y-114529412D01*
X199560654Y-114560652D01*
X199579704Y-114596291D01*
X199591435Y-114634961D01*
X199596000Y-114681317D01*
X199596000Y-115757541D01*
X199591435Y-115803897D01*
X199579704Y-115842567D01*
X199560654Y-115878206D01*
X199535017Y-115909446D01*
X199503777Y-115935083D01*
X199468138Y-115954133D01*
X199429468Y-115965864D01*
X199383112Y-115970429D01*
X198731888Y-115970429D01*
X198685532Y-115965864D01*
X198646862Y-115954133D01*
X198611223Y-115935083D01*
X198579983Y-115909446D01*
X198554346Y-115878206D01*
X198535296Y-115842567D01*
X198523565Y-115803897D01*
X198519000Y-115757541D01*
X198519000Y-114681317D01*
X198523565Y-114634961D01*
X198535296Y-114596291D01*
X198554346Y-114560652D01*
X198579983Y-114529412D01*
X198611223Y-114503775D01*
X198646862Y-114484725D01*
X198685532Y-114472994D01*
X198731888Y-114468429D01*
X199383112Y-114468429D01*
X199429468Y-114472994D01*
G37*
G36*
X197554468Y-114472994D02*
G01*
X197593138Y-114484725D01*
X197628777Y-114503775D01*
X197660017Y-114529412D01*
X197685654Y-114560652D01*
X197704704Y-114596291D01*
X197716435Y-114634961D01*
X197721000Y-114681317D01*
X197721000Y-115757541D01*
X197716435Y-115803897D01*
X197704704Y-115842567D01*
X197685654Y-115878206D01*
X197660017Y-115909446D01*
X197628777Y-115935083D01*
X197593138Y-115954133D01*
X197554468Y-115965864D01*
X197508112Y-115970429D01*
X196856888Y-115970429D01*
X196810532Y-115965864D01*
X196771862Y-115954133D01*
X196736223Y-115935083D01*
X196704983Y-115909446D01*
X196679346Y-115878206D01*
X196660296Y-115842567D01*
X196648565Y-115803897D01*
X196644000Y-115757541D01*
X196644000Y-114681317D01*
X196648565Y-114634961D01*
X196660296Y-114596291D01*
X196679346Y-114560652D01*
X196704983Y-114529412D01*
X196736223Y-114503775D01*
X196771862Y-114484725D01*
X196810532Y-114472994D01*
X196856888Y-114468429D01*
X197508112Y-114468429D01*
X197554468Y-114472994D01*
G37*
G36*
X178120038Y-115089645D02*
G01*
X178140657Y-115095900D01*
X178159653Y-115106053D01*
X178176308Y-115119721D01*
X178189976Y-115136376D01*
X178200129Y-115155372D01*
X178206384Y-115175991D01*
X178209100Y-115203569D01*
X178209100Y-115662289D01*
X178206384Y-115689867D01*
X178200129Y-115710486D01*
X178189976Y-115729482D01*
X178176308Y-115746137D01*
X178159653Y-115759805D01*
X178140657Y-115769958D01*
X178120038Y-115776213D01*
X178092460Y-115778929D01*
X177583740Y-115778929D01*
X177556162Y-115776213D01*
X177535543Y-115769958D01*
X177516547Y-115759805D01*
X177499892Y-115746137D01*
X177486224Y-115729482D01*
X177476071Y-115710486D01*
X177469816Y-115689867D01*
X177467100Y-115662289D01*
X177467100Y-115203569D01*
X177469816Y-115175991D01*
X177476071Y-115155372D01*
X177486224Y-115136376D01*
X177499892Y-115119721D01*
X177516547Y-115106053D01*
X177535543Y-115095900D01*
X177556162Y-115089645D01*
X177583740Y-115086929D01*
X178092460Y-115086929D01*
X178120038Y-115089645D01*
G37*
G36*
X176405538Y-115089645D02*
G01*
X176426157Y-115095900D01*
X176445153Y-115106053D01*
X176461808Y-115119721D01*
X176475476Y-115136376D01*
X176485629Y-115155372D01*
X176491884Y-115175991D01*
X176494600Y-115203569D01*
X176494600Y-115662289D01*
X176491884Y-115689867D01*
X176485629Y-115710486D01*
X176475476Y-115729482D01*
X176461808Y-115746137D01*
X176445153Y-115759805D01*
X176426157Y-115769958D01*
X176405538Y-115776213D01*
X176377960Y-115778929D01*
X175869240Y-115778929D01*
X175841662Y-115776213D01*
X175821043Y-115769958D01*
X175802047Y-115759805D01*
X175785392Y-115746137D01*
X175771724Y-115729482D01*
X175761571Y-115710486D01*
X175755316Y-115689867D01*
X175752600Y-115662289D01*
X175752600Y-115203569D01*
X175755316Y-115175991D01*
X175761571Y-115155372D01*
X175771724Y-115136376D01*
X175785392Y-115119721D01*
X175802047Y-115106053D01*
X175821043Y-115095900D01*
X175841662Y-115089645D01*
X175869240Y-115086929D01*
X176377960Y-115086929D01*
X176405538Y-115089645D01*
G37*
G36*
X179771038Y-115089645D02*
G01*
X179791657Y-115095900D01*
X179810653Y-115106053D01*
X179827308Y-115119721D01*
X179840976Y-115136376D01*
X179851129Y-115155372D01*
X179857384Y-115175991D01*
X179860100Y-115203569D01*
X179860100Y-115662289D01*
X179857384Y-115689867D01*
X179851129Y-115710486D01*
X179840976Y-115729482D01*
X179827308Y-115746137D01*
X179810653Y-115759805D01*
X179791657Y-115769958D01*
X179771038Y-115776213D01*
X179743460Y-115778929D01*
X179234740Y-115778929D01*
X179207162Y-115776213D01*
X179186543Y-115769958D01*
X179167547Y-115759805D01*
X179150892Y-115746137D01*
X179137224Y-115729482D01*
X179127071Y-115710486D01*
X179120816Y-115689867D01*
X179118100Y-115662289D01*
X179118100Y-115203569D01*
X179120816Y-115175991D01*
X179127071Y-115155372D01*
X179137224Y-115136376D01*
X179150892Y-115119721D01*
X179167547Y-115106053D01*
X179186543Y-115095900D01*
X179207162Y-115089645D01*
X179234740Y-115086929D01*
X179743460Y-115086929D01*
X179771038Y-115089645D01*
G37*
G36*
X197299023Y-113535959D02*
G01*
X196347023Y-113535959D01*
X196347023Y-111833959D01*
X197299023Y-111833959D01*
X197299023Y-113535959D01*
G37*
G36*
X199049023Y-113535959D02*
G01*
X198097023Y-113535959D01*
X198097023Y-111833959D01*
X199049023Y-111833959D01*
X199049023Y-113535959D01*
G37*
G36*
X203299757Y-112520459D02*
G01*
X202420224Y-112884774D01*
X201768897Y-111312331D01*
X202648430Y-110948016D01*
X203299757Y-112520459D01*
G37*
G36*
X193634769Y-111271691D02*
G01*
X192983442Y-112844134D01*
X192103909Y-112479819D01*
X192755236Y-110907376D01*
X193634769Y-111271691D01*
G37*
G36*
X204916547Y-111850763D02*
G01*
X204037014Y-112215078D01*
X203385687Y-110642635D01*
X204265220Y-110278320D01*
X204916547Y-111850763D01*
G37*
G36*
X209603338Y-111495316D02*
G01*
X209623957Y-111501571D01*
X209642953Y-111511724D01*
X209659608Y-111525392D01*
X209673276Y-111542047D01*
X209683429Y-111561043D01*
X209689684Y-111581662D01*
X209692400Y-111609240D01*
X209692400Y-112067960D01*
X209689684Y-112095538D01*
X209683429Y-112116157D01*
X209673276Y-112135153D01*
X209659608Y-112151808D01*
X209642953Y-112165476D01*
X209623957Y-112175629D01*
X209603338Y-112181884D01*
X209575760Y-112184600D01*
X209067040Y-112184600D01*
X209039462Y-112181884D01*
X209018843Y-112175629D01*
X208999847Y-112165476D01*
X208983192Y-112151808D01*
X208969524Y-112135153D01*
X208959371Y-112116157D01*
X208953116Y-112095538D01*
X208950400Y-112067960D01*
X208950400Y-111609240D01*
X208953116Y-111581662D01*
X208959371Y-111561043D01*
X208969524Y-111542047D01*
X208983192Y-111525392D01*
X208999847Y-111511724D01*
X209018843Y-111501571D01*
X209039462Y-111495316D01*
X209067040Y-111492600D01*
X209575760Y-111492600D01*
X209603338Y-111495316D01*
G37*
G36*
X210746338Y-111495316D02*
G01*
X210766957Y-111501571D01*
X210785953Y-111511724D01*
X210802608Y-111525392D01*
X210816276Y-111542047D01*
X210826429Y-111561043D01*
X210832684Y-111581662D01*
X210835400Y-111609240D01*
X210835400Y-112067960D01*
X210832684Y-112095538D01*
X210826429Y-112116157D01*
X210816276Y-112135153D01*
X210802608Y-112151808D01*
X210785953Y-112165476D01*
X210766957Y-112175629D01*
X210746338Y-112181884D01*
X210718760Y-112184600D01*
X210210040Y-112184600D01*
X210182462Y-112181884D01*
X210161843Y-112175629D01*
X210142847Y-112165476D01*
X210126192Y-112151808D01*
X210112524Y-112135153D01*
X210102371Y-112116157D01*
X210096116Y-112095538D01*
X210093400Y-112067960D01*
X210093400Y-111609240D01*
X210096116Y-111581662D01*
X210102371Y-111561043D01*
X210112524Y-111542047D01*
X210126192Y-111525392D01*
X210142847Y-111511724D01*
X210161843Y-111501571D01*
X210182462Y-111495316D01*
X210210040Y-111492600D01*
X210718760Y-111492600D01*
X210746338Y-111495316D01*
G37*
G36*
X192017979Y-110601995D02*
G01*
X191366652Y-112174438D01*
X190487119Y-111810123D01*
X191138446Y-110237680D01*
X192017979Y-110601995D01*
G37*
G36*
X209603338Y-110525316D02*
G01*
X209623957Y-110531571D01*
X209642953Y-110541724D01*
X209659608Y-110555392D01*
X209673276Y-110572047D01*
X209683429Y-110591043D01*
X209689684Y-110611662D01*
X209692400Y-110639240D01*
X209692400Y-111097960D01*
X209689684Y-111125538D01*
X209683429Y-111146157D01*
X209673276Y-111165153D01*
X209659608Y-111181808D01*
X209642953Y-111195476D01*
X209623957Y-111205629D01*
X209603338Y-111211884D01*
X209575760Y-111214600D01*
X209067040Y-111214600D01*
X209039462Y-111211884D01*
X209018843Y-111205629D01*
X208999847Y-111195476D01*
X208983192Y-111181808D01*
X208969524Y-111165153D01*
X208959371Y-111146157D01*
X208953116Y-111125538D01*
X208950400Y-111097960D01*
X208950400Y-110639240D01*
X208953116Y-110611662D01*
X208959371Y-110591043D01*
X208969524Y-110572047D01*
X208983192Y-110555392D01*
X208999847Y-110541724D01*
X209018843Y-110531571D01*
X209039462Y-110525316D01*
X209067040Y-110522600D01*
X209575760Y-110522600D01*
X209603338Y-110525316D01*
G37*
G36*
X210746338Y-110525316D02*
G01*
X210766957Y-110531571D01*
X210785953Y-110541724D01*
X210802608Y-110555392D01*
X210816276Y-110572047D01*
X210826429Y-110591043D01*
X210832684Y-110611662D01*
X210835400Y-110639240D01*
X210835400Y-111097960D01*
X210832684Y-111125538D01*
X210826429Y-111146157D01*
X210816276Y-111165153D01*
X210802608Y-111181808D01*
X210785953Y-111195476D01*
X210766957Y-111205629D01*
X210746338Y-111211884D01*
X210718760Y-111214600D01*
X210210040Y-111214600D01*
X210182462Y-111211884D01*
X210161843Y-111205629D01*
X210142847Y-111195476D01*
X210126192Y-111181808D01*
X210112524Y-111165153D01*
X210102371Y-111146157D01*
X210096116Y-111125538D01*
X210093400Y-111097960D01*
X210093400Y-110639240D01*
X210096116Y-110611662D01*
X210102371Y-110591043D01*
X210112524Y-110572047D01*
X210126192Y-110555392D01*
X210142847Y-110541724D01*
X210161843Y-110531571D01*
X210182462Y-110525316D01*
X210210040Y-110522600D01*
X210718760Y-110522600D01*
X210746338Y-110525316D01*
G37*
G36*
X199049023Y-110035959D02*
G01*
X198097023Y-110035959D01*
X198097023Y-108333959D01*
X199049023Y-108333959D01*
X199049023Y-110035959D01*
G37*
G36*
X197299023Y-110035959D02*
G01*
X196347023Y-110035959D01*
X196347023Y-108333959D01*
X197299023Y-108333959D01*
X197299023Y-110035959D01*
G37*
G36*
X208448318Y-109291205D02*
G01*
X207775152Y-109964371D01*
X206571656Y-108760875D01*
X207244822Y-108087709D01*
X208448318Y-109291205D01*
G37*
G36*
X188849790Y-108677055D02*
G01*
X187646294Y-109880551D01*
X186973128Y-109207385D01*
X188176624Y-108003889D01*
X188849790Y-108677055D01*
G37*
G36*
X201960365Y-109286881D02*
G01*
X201080832Y-109651196D01*
X200429505Y-108078753D01*
X201309038Y-107714438D01*
X201960365Y-109286881D01*
G37*
G36*
X194974161Y-108038113D02*
G01*
X194322834Y-109610556D01*
X193443301Y-109246241D01*
X194094628Y-107673798D01*
X194974161Y-108038113D01*
G37*
G36*
X203577155Y-108617185D02*
G01*
X202697622Y-108981500D01*
X202046295Y-107409057D01*
X202925828Y-107044742D01*
X203577155Y-108617185D01*
G37*
G36*
X193357371Y-107368417D02*
G01*
X192706044Y-108940860D01*
X191826511Y-108576545D01*
X192477838Y-107004102D01*
X193357371Y-107368417D01*
G37*
G36*
X209685755Y-108053768D02*
G01*
X209012589Y-108726934D01*
X207809093Y-107523438D01*
X208482259Y-106850272D01*
X209685755Y-108053768D01*
G37*
G36*
X187612353Y-107439618D02*
G01*
X186408857Y-108643114D01*
X185735691Y-107969948D01*
X186939187Y-106766452D01*
X187612353Y-107439618D01*
G37*
G36*
X205973445Y-106816332D02*
G01*
X205300279Y-107489498D01*
X204096783Y-106286002D01*
X204769949Y-105612836D01*
X205973445Y-106816332D01*
G37*
G36*
X191324663Y-106202182D02*
G01*
X190121167Y-107405678D01*
X189448001Y-106732512D01*
X190651497Y-105529016D01*
X191324663Y-106202182D01*
G37*
G36*
X207210882Y-105578895D02*
G01*
X206537716Y-106252061D01*
X205334220Y-105048565D01*
X206007386Y-104375399D01*
X207210882Y-105578895D01*
G37*
G36*
X190087226Y-104964745D02*
G01*
X188883730Y-106168241D01*
X188210564Y-105495075D01*
X189414060Y-104291579D01*
X190087226Y-104964745D01*
G37*
G36*
X195636364Y-104007318D02*
G01*
X195827633Y-104086544D01*
X195827635Y-104086545D01*
X195999773Y-104201564D01*
X196146165Y-104347956D01*
X196164503Y-104375400D01*
X196261185Y-104520096D01*
X196340411Y-104711365D01*
X196380800Y-104914413D01*
X196380800Y-105121445D01*
X196340411Y-105324493D01*
X196269754Y-105495075D01*
X196261184Y-105515764D01*
X196146165Y-105687902D01*
X195999773Y-105834294D01*
X195827635Y-105949313D01*
X195827634Y-105949314D01*
X195827633Y-105949314D01*
X195636364Y-106028540D01*
X195433316Y-106068929D01*
X195226284Y-106068929D01*
X195023236Y-106028540D01*
X194831967Y-105949314D01*
X194831966Y-105949314D01*
X194831965Y-105949313D01*
X194659827Y-105834294D01*
X194513435Y-105687902D01*
X194398416Y-105515764D01*
X194389846Y-105495075D01*
X194319189Y-105324493D01*
X194278800Y-105121445D01*
X194278800Y-104914413D01*
X194319189Y-104711365D01*
X194398415Y-104520096D01*
X194495098Y-104375400D01*
X194513435Y-104347956D01*
X194659827Y-104201564D01*
X194831965Y-104086545D01*
X194831967Y-104086544D01*
X195023236Y-104007318D01*
X195226284Y-103966929D01*
X195433316Y-103966929D01*
X195636364Y-104007318D01*
G37*
G36*
X200636364Y-104007318D02*
G01*
X200827633Y-104086544D01*
X200827635Y-104086545D01*
X200999773Y-104201564D01*
X201146165Y-104347956D01*
X201164503Y-104375400D01*
X201261185Y-104520096D01*
X201340411Y-104711365D01*
X201380800Y-104914413D01*
X201380800Y-105121445D01*
X201340411Y-105324493D01*
X201269754Y-105495075D01*
X201261184Y-105515764D01*
X201146165Y-105687902D01*
X200999773Y-105834294D01*
X200827635Y-105949313D01*
X200827634Y-105949314D01*
X200827633Y-105949314D01*
X200636364Y-106028540D01*
X200433316Y-106068929D01*
X200226284Y-106068929D01*
X200023236Y-106028540D01*
X199831967Y-105949314D01*
X199831966Y-105949314D01*
X199831965Y-105949313D01*
X199659827Y-105834294D01*
X199513435Y-105687902D01*
X199398416Y-105515764D01*
X199389846Y-105495075D01*
X199319189Y-105324493D01*
X199278800Y-105121445D01*
X199278800Y-104914413D01*
X199319189Y-104711365D01*
X199398415Y-104520096D01*
X199495098Y-104375400D01*
X199513435Y-104347956D01*
X199659827Y-104201564D01*
X199831965Y-104086545D01*
X199831967Y-104086544D01*
X200023236Y-104007318D01*
X200226284Y-103966929D01*
X200433316Y-103966929D01*
X200636364Y-104007318D01*
G37*
G36*
X211979642Y-104325790D02*
G01*
X211615327Y-105205323D01*
X210042884Y-104553996D01*
X210407199Y-103674463D01*
X211979642Y-104325790D01*
G37*
G36*
X185419202Y-104460016D02*
G01*
X183846759Y-105111343D01*
X183482444Y-104231810D01*
X185054887Y-103580483D01*
X185419202Y-104460016D01*
G37*
G36*
X208746064Y-102986398D02*
G01*
X208381749Y-103865931D01*
X206809306Y-103214604D01*
X207173621Y-102335071D01*
X208746064Y-102986398D01*
G37*
G36*
X188652780Y-103120624D02*
G01*
X187080337Y-103771951D01*
X186716022Y-102892418D01*
X188288465Y-102241091D01*
X188652780Y-103120624D01*
G37*
G36*
X212649338Y-102709000D02*
G01*
X212285023Y-103588533D01*
X210712580Y-102937206D01*
X211076895Y-102057673D01*
X212649338Y-102709000D01*
G37*
G36*
X184749506Y-102843226D02*
G01*
X183177063Y-103494553D01*
X182812748Y-102615020D01*
X184385191Y-101963693D01*
X184749506Y-102843226D01*
G37*
G36*
X209415760Y-101369608D02*
G01*
X209051445Y-102249141D01*
X207479002Y-101597814D01*
X207843317Y-100718281D01*
X209415760Y-101369608D01*
G37*
G36*
X187983084Y-101503834D02*
G01*
X186410641Y-102155161D01*
X186046326Y-101275628D01*
X187618769Y-100624301D01*
X187983084Y-101503834D01*
G37*
G36*
X203853041Y-96622689D02*
G01*
X204117105Y-96732068D01*
X204354758Y-96890863D01*
X204556866Y-97092971D01*
X204715661Y-97330624D01*
X204825040Y-97594688D01*
X204880800Y-97875017D01*
X204880800Y-98160841D01*
X204825040Y-98441170D01*
X204715661Y-98705234D01*
X204556866Y-98942887D01*
X204354758Y-99144995D01*
X204117105Y-99303790D01*
X203853041Y-99413169D01*
X203572712Y-99468929D01*
X203286888Y-99468929D01*
X203006559Y-99413169D01*
X202742495Y-99303790D01*
X202504842Y-99144995D01*
X202302734Y-98942887D01*
X202143939Y-98705234D01*
X202034560Y-98441170D01*
X201978800Y-98160841D01*
X201978800Y-97875017D01*
X202034560Y-97594688D01*
X202143939Y-97330624D01*
X202302734Y-97092971D01*
X202504842Y-96890863D01*
X202742495Y-96732068D01*
X203006559Y-96622689D01*
X203286888Y-96566929D01*
X203572712Y-96566929D01*
X203853041Y-96622689D01*
G37*
G36*
X192653041Y-96622689D02*
G01*
X192917105Y-96732068D01*
X193154758Y-96890863D01*
X193356866Y-97092971D01*
X193515661Y-97330624D01*
X193625040Y-97594688D01*
X193680800Y-97875017D01*
X193680800Y-98160841D01*
X193625040Y-98441170D01*
X193515661Y-98705234D01*
X193356866Y-98942887D01*
X193154758Y-99144995D01*
X192917105Y-99303790D01*
X192653041Y-99413169D01*
X192372712Y-99468929D01*
X192086888Y-99468929D01*
X191806559Y-99413169D01*
X191542495Y-99303790D01*
X191304842Y-99144995D01*
X191102734Y-98942887D01*
X190943939Y-98705234D01*
X190834560Y-98441170D01*
X190778800Y-98160841D01*
X190778800Y-97875017D01*
X190834560Y-97594688D01*
X190943939Y-97330624D01*
X191102734Y-97092971D01*
X191304842Y-96890863D01*
X191542495Y-96732068D01*
X191806559Y-96622689D01*
X192086888Y-96566929D01*
X192372712Y-96566929D01*
X192653041Y-96622689D01*
G37*
G36*
X207010268Y-98350994D02*
G01*
X207048938Y-98362725D01*
X207084577Y-98381775D01*
X207115817Y-98407412D01*
X207141454Y-98438652D01*
X207160504Y-98474291D01*
X207172235Y-98512961D01*
X207176800Y-98559317D01*
X207176800Y-99210541D01*
X207172235Y-99256897D01*
X207160504Y-99295567D01*
X207141454Y-99331206D01*
X207115817Y-99362446D01*
X207084577Y-99388083D01*
X207048938Y-99407133D01*
X207010268Y-99418864D01*
X206963912Y-99423429D01*
X205887688Y-99423429D01*
X205841332Y-99418864D01*
X205802662Y-99407133D01*
X205767023Y-99388083D01*
X205735783Y-99362446D01*
X205710146Y-99331206D01*
X205691096Y-99295567D01*
X205679365Y-99256897D01*
X205674800Y-99210541D01*
X205674800Y-98559317D01*
X205679365Y-98512961D01*
X205691096Y-98474291D01*
X205710146Y-98438652D01*
X205735783Y-98407412D01*
X205767023Y-98381775D01*
X205802662Y-98362725D01*
X205841332Y-98350994D01*
X205887688Y-98346429D01*
X206963912Y-98346429D01*
X207010268Y-98350994D01*
G37*
G36*
X209838623Y-99347959D02*
G01*
X208136623Y-99347959D01*
X208136623Y-98395959D01*
X209838623Y-98395959D01*
X209838623Y-99347959D01*
G37*
G36*
X213338623Y-99347959D02*
G01*
X211636623Y-99347959D01*
X211636623Y-98395959D01*
X213338623Y-98395959D01*
X213338623Y-99347959D01*
G37*
G36*
X183863563Y-99246359D02*
G01*
X182161563Y-99246359D01*
X182161563Y-98294359D01*
X183863563Y-98294359D01*
X183863563Y-99246359D01*
G37*
G36*
X187363563Y-99246359D02*
G01*
X185661563Y-99246359D01*
X185661563Y-98294359D01*
X187363563Y-98294359D01*
X187363563Y-99246359D01*
G37*
G36*
X189674768Y-98160494D02*
G01*
X189713438Y-98172225D01*
X189749077Y-98191275D01*
X189780317Y-98216912D01*
X189805954Y-98248152D01*
X189825004Y-98283791D01*
X189836735Y-98322461D01*
X189841300Y-98368817D01*
X189841300Y-99020041D01*
X189836735Y-99066397D01*
X189825004Y-99105067D01*
X189805954Y-99140706D01*
X189780317Y-99171946D01*
X189749077Y-99197583D01*
X189713438Y-99216633D01*
X189674768Y-99228364D01*
X189628412Y-99232929D01*
X188552188Y-99232929D01*
X188505832Y-99228364D01*
X188467162Y-99216633D01*
X188431523Y-99197583D01*
X188400283Y-99171946D01*
X188374646Y-99140706D01*
X188355596Y-99105067D01*
X188343865Y-99066397D01*
X188339300Y-99020041D01*
X188339300Y-98368817D01*
X188343865Y-98322461D01*
X188355596Y-98283791D01*
X188374646Y-98248152D01*
X188400283Y-98216912D01*
X188431523Y-98191275D01*
X188467162Y-98172225D01*
X188505832Y-98160494D01*
X188552188Y-98155929D01*
X189628412Y-98155929D01*
X189674768Y-98160494D01*
G37*
G36*
X209838623Y-97597959D02*
G01*
X208136623Y-97597959D01*
X208136623Y-96645959D01*
X209838623Y-96645959D01*
X209838623Y-97597959D01*
G37*
G36*
X213338623Y-97597959D02*
G01*
X211636623Y-97597959D01*
X211636623Y-96645959D01*
X213338623Y-96645959D01*
X213338623Y-97597959D01*
G37*
G36*
X207010268Y-96475994D02*
G01*
X207048938Y-96487725D01*
X207084577Y-96506775D01*
X207115817Y-96532412D01*
X207141454Y-96563652D01*
X207160504Y-96599291D01*
X207172235Y-96637961D01*
X207176800Y-96684317D01*
X207176800Y-97335541D01*
X207172235Y-97381897D01*
X207160504Y-97420567D01*
X207141454Y-97456206D01*
X207115817Y-97487446D01*
X207084577Y-97513083D01*
X207048938Y-97532133D01*
X207010268Y-97543864D01*
X206963912Y-97548429D01*
X205887688Y-97548429D01*
X205841332Y-97543864D01*
X205802662Y-97532133D01*
X205767023Y-97513083D01*
X205735783Y-97487446D01*
X205710146Y-97456206D01*
X205691096Y-97420567D01*
X205679365Y-97381897D01*
X205674800Y-97335541D01*
X205674800Y-96684317D01*
X205679365Y-96637961D01*
X205691096Y-96599291D01*
X205710146Y-96563652D01*
X205735783Y-96532412D01*
X205767023Y-96506775D01*
X205802662Y-96487725D01*
X205841332Y-96475994D01*
X205887688Y-96471429D01*
X206963912Y-96471429D01*
X207010268Y-96475994D01*
G37*
G36*
X187363563Y-97496359D02*
G01*
X185661563Y-97496359D01*
X185661563Y-96544359D01*
X187363563Y-96544359D01*
X187363563Y-97496359D01*
G37*
G36*
X183863563Y-97496359D02*
G01*
X182161563Y-97496359D01*
X182161563Y-96544359D01*
X183863563Y-96544359D01*
X183863563Y-97496359D01*
G37*
G36*
X189674768Y-96285494D02*
G01*
X189713438Y-96297225D01*
X189749077Y-96316275D01*
X189780317Y-96341912D01*
X189805954Y-96373152D01*
X189825004Y-96408791D01*
X189836735Y-96447461D01*
X189841300Y-96493817D01*
X189841300Y-97145041D01*
X189836735Y-97191397D01*
X189825004Y-97230067D01*
X189805954Y-97265706D01*
X189780317Y-97296946D01*
X189749077Y-97322583D01*
X189713438Y-97341633D01*
X189674768Y-97353364D01*
X189628412Y-97357929D01*
X188552188Y-97357929D01*
X188505832Y-97353364D01*
X188467162Y-97341633D01*
X188431523Y-97322583D01*
X188400283Y-97296946D01*
X188374646Y-97265706D01*
X188355596Y-97230067D01*
X188343865Y-97191397D01*
X188339300Y-97145041D01*
X188339300Y-96493817D01*
X188343865Y-96447461D01*
X188355596Y-96408791D01*
X188374646Y-96373152D01*
X188400283Y-96341912D01*
X188431523Y-96316275D01*
X188467162Y-96297225D01*
X188505832Y-96285494D01*
X188552188Y-96280929D01*
X189628412Y-96280929D01*
X189674768Y-96285494D01*
G37*
G36*
X209453860Y-94619230D02*
G01*
X207881417Y-95270557D01*
X207517102Y-94391024D01*
X209089545Y-93739697D01*
X209453860Y-94619230D01*
G37*
G36*
X188023724Y-94291964D02*
G01*
X187659409Y-95171497D01*
X186086966Y-94520170D01*
X186451281Y-93640637D01*
X188023724Y-94291964D01*
G37*
G36*
X212687438Y-93279838D02*
G01*
X211114995Y-93931165D01*
X210750680Y-93051632D01*
X212323123Y-92400305D01*
X212687438Y-93279838D01*
G37*
G36*
X184790146Y-92952572D02*
G01*
X184425831Y-93832105D01*
X182853388Y-93180778D01*
X183217703Y-92301245D01*
X184790146Y-92952572D01*
G37*
G36*
X208784164Y-93002440D02*
G01*
X207211721Y-93653767D01*
X206847406Y-92774234D01*
X208419849Y-92122907D01*
X208784164Y-93002440D01*
G37*
G36*
X188693420Y-92675174D02*
G01*
X188329105Y-93554707D01*
X186756662Y-92903380D01*
X187120977Y-92023847D01*
X188693420Y-92675174D01*
G37*
G36*
X212017742Y-91663048D02*
G01*
X210445299Y-92314375D01*
X210080984Y-91434842D01*
X211653427Y-90783515D01*
X212017742Y-91663048D01*
G37*
G36*
X185459842Y-91335782D02*
G01*
X185095527Y-92215315D01*
X183523084Y-91563988D01*
X183887399Y-90684455D01*
X185459842Y-91335782D01*
G37*
G36*
X207289622Y-90399783D02*
G01*
X206086126Y-91603279D01*
X205412960Y-90930113D01*
X206616456Y-89726617D01*
X207289622Y-90399783D01*
G37*
G36*
X201380800Y-91568929D02*
G01*
X199278800Y-91568929D01*
X199278800Y-89466929D01*
X201380800Y-89466929D01*
X201380800Y-91568929D01*
G37*
G36*
X198136364Y-89507318D02*
G01*
X198327633Y-89586544D01*
X198327635Y-89586545D01*
X198486471Y-89692676D01*
X198499773Y-89701564D01*
X198646165Y-89847956D01*
X198761185Y-90020096D01*
X198840411Y-90211365D01*
X198880800Y-90414413D01*
X198880800Y-90621445D01*
X198840411Y-90824493D01*
X198831381Y-90846293D01*
X198761184Y-91015764D01*
X198646165Y-91187902D01*
X198499773Y-91334294D01*
X198327635Y-91449313D01*
X198327634Y-91449314D01*
X198327633Y-91449314D01*
X198136364Y-91528540D01*
X197933316Y-91568929D01*
X197726284Y-91568929D01*
X197523236Y-91528540D01*
X197331967Y-91449314D01*
X197331966Y-91449314D01*
X197331965Y-91449313D01*
X197159827Y-91334294D01*
X197013435Y-91187902D01*
X196898416Y-91015764D01*
X196828219Y-90846293D01*
X196819189Y-90824493D01*
X196778800Y-90621445D01*
X196778800Y-90414413D01*
X196819189Y-90211365D01*
X196898415Y-90020096D01*
X197013435Y-89847956D01*
X197159827Y-89701564D01*
X197173129Y-89692676D01*
X197331965Y-89586545D01*
X197331967Y-89586544D01*
X197523236Y-89507318D01*
X197726284Y-89466929D01*
X197933316Y-89466929D01*
X198136364Y-89507318D01*
G37*
G36*
X195636364Y-89507318D02*
G01*
X195827633Y-89586544D01*
X195827635Y-89586545D01*
X195986471Y-89692676D01*
X195999773Y-89701564D01*
X196146165Y-89847956D01*
X196261185Y-90020096D01*
X196340411Y-90211365D01*
X196380800Y-90414413D01*
X196380800Y-90621445D01*
X196340411Y-90824493D01*
X196331381Y-90846293D01*
X196261184Y-91015764D01*
X196146165Y-91187902D01*
X195999773Y-91334294D01*
X195827635Y-91449313D01*
X195827634Y-91449314D01*
X195827633Y-91449314D01*
X195636364Y-91528540D01*
X195433316Y-91568929D01*
X195226284Y-91568929D01*
X195023236Y-91528540D01*
X194831967Y-91449314D01*
X194831966Y-91449314D01*
X194831965Y-91449313D01*
X194659827Y-91334294D01*
X194513435Y-91187902D01*
X194398416Y-91015764D01*
X194328219Y-90846293D01*
X194319189Y-90824493D01*
X194278800Y-90621445D01*
X194278800Y-90414413D01*
X194319189Y-90211365D01*
X194398415Y-90020096D01*
X194513435Y-89847956D01*
X194659827Y-89701564D01*
X194673129Y-89692676D01*
X194831965Y-89586545D01*
X194831967Y-89586544D01*
X195023236Y-89507318D01*
X195226284Y-89466929D01*
X195433316Y-89466929D01*
X195636364Y-89507318D01*
G37*
G36*
X190160886Y-90846293D02*
G01*
X189487720Y-91519459D01*
X188284224Y-90315963D01*
X188957390Y-89642797D01*
X190160886Y-90846293D01*
G37*
G36*
X206052185Y-89162346D02*
G01*
X204848689Y-90365842D01*
X204175523Y-89692676D01*
X205379019Y-88489180D01*
X206052185Y-89162346D01*
G37*
G36*
X191398323Y-89608856D02*
G01*
X190725157Y-90282022D01*
X189521661Y-89078526D01*
X190194827Y-88405360D01*
X191398323Y-89608856D01*
G37*
G36*
X209764495Y-87924910D02*
G01*
X208560999Y-89128406D01*
X207887833Y-88455240D01*
X209091329Y-87251744D01*
X209764495Y-87924910D01*
G37*
G36*
X187686013Y-88371420D02*
G01*
X187012847Y-89044586D01*
X185809351Y-87841090D01*
X186482517Y-87167924D01*
X187686013Y-88371420D01*
G37*
G36*
X203673675Y-87323393D02*
G01*
X203022348Y-88895836D01*
X202142815Y-88531521D01*
X202794142Y-86959078D01*
X203673675Y-87323393D01*
G37*
G36*
X193456431Y-88483261D02*
G01*
X192576898Y-88847576D01*
X191925571Y-87275133D01*
X192805104Y-86910818D01*
X193456431Y-88483261D01*
G37*
G36*
X202056885Y-86653697D02*
G01*
X201405558Y-88226140D01*
X200526025Y-87861825D01*
X201177352Y-86289382D01*
X202056885Y-86653697D01*
G37*
G36*
X195073221Y-87813565D02*
G01*
X194193688Y-88177880D01*
X193542361Y-86605437D01*
X194421894Y-86241122D01*
X195073221Y-87813565D01*
G37*
G36*
X208527058Y-86687473D02*
G01*
X207323562Y-87890969D01*
X206650396Y-87217803D01*
X207853892Y-86014307D01*
X208527058Y-86687473D01*
G37*
G36*
X188923450Y-87133983D02*
G01*
X188250284Y-87807149D01*
X187046788Y-86603653D01*
X187719954Y-85930487D01*
X188923450Y-87133983D01*
G37*
G36*
X199153163Y-87560899D02*
G01*
X198201163Y-87560899D01*
X198201163Y-85858899D01*
X199153163Y-85858899D01*
X199153163Y-87560899D01*
G37*
G36*
X197403163Y-87560899D02*
G01*
X196451163Y-87560899D01*
X196451163Y-85858899D01*
X197403163Y-85858899D01*
X197403163Y-87560899D01*
G37*
G36*
X205013067Y-84089815D02*
G01*
X204361740Y-85662258D01*
X203482207Y-85297943D01*
X204133534Y-83725500D01*
X205013067Y-84089815D01*
G37*
G36*
X192117039Y-85249683D02*
G01*
X191237506Y-85613998D01*
X190586179Y-84041555D01*
X191465712Y-83677240D01*
X192117039Y-85249683D01*
G37*
G36*
X203396277Y-83420119D02*
G01*
X202744950Y-84992562D01*
X201865417Y-84628247D01*
X202516744Y-83055804D01*
X203396277Y-83420119D01*
G37*
G36*
X193733829Y-84579987D02*
G01*
X192854296Y-84944302D01*
X192202969Y-83371859D01*
X193082502Y-83007544D01*
X193733829Y-84579987D01*
G37*
G36*
X199153163Y-84060899D02*
G01*
X198201163Y-84060899D01*
X198201163Y-82358899D01*
X199153163Y-82358899D01*
X199153163Y-84060899D01*
G37*
G36*
X197403163Y-84060899D02*
G01*
X196451163Y-84060899D01*
X196451163Y-82358899D01*
X197403163Y-82358899D01*
X197403163Y-84060899D01*
G37*
G36*
X199099268Y-80182994D02*
G01*
X199137938Y-80194725D01*
X199173577Y-80213775D01*
X199204817Y-80239412D01*
X199230454Y-80270652D01*
X199249504Y-80306291D01*
X199261235Y-80344961D01*
X199265800Y-80391317D01*
X199265800Y-81467541D01*
X199261235Y-81513897D01*
X199249504Y-81552567D01*
X199230454Y-81588206D01*
X199204817Y-81619446D01*
X199173577Y-81645083D01*
X199137938Y-81664133D01*
X199099268Y-81675864D01*
X199052912Y-81680429D01*
X198401688Y-81680429D01*
X198355332Y-81675864D01*
X198316662Y-81664133D01*
X198281023Y-81645083D01*
X198249783Y-81619446D01*
X198224146Y-81588206D01*
X198205096Y-81552567D01*
X198193365Y-81513897D01*
X198188800Y-81467541D01*
X198188800Y-80391317D01*
X198193365Y-80344961D01*
X198205096Y-80306291D01*
X198224146Y-80270652D01*
X198249783Y-80239412D01*
X198281023Y-80213775D01*
X198316662Y-80194725D01*
X198355332Y-80182994D01*
X198401688Y-80178429D01*
X199052912Y-80178429D01*
X199099268Y-80182994D01*
G37*
G36*
X197224268Y-80182994D02*
G01*
X197262938Y-80194725D01*
X197298577Y-80213775D01*
X197329817Y-80239412D01*
X197355454Y-80270652D01*
X197374504Y-80306291D01*
X197386235Y-80344961D01*
X197390800Y-80391317D01*
X197390800Y-81467541D01*
X197386235Y-81513897D01*
X197374504Y-81552567D01*
X197355454Y-81588206D01*
X197329817Y-81619446D01*
X197298577Y-81645083D01*
X197262938Y-81664133D01*
X197224268Y-81675864D01*
X197177912Y-81680429D01*
X196526688Y-81680429D01*
X196480332Y-81675864D01*
X196441662Y-81664133D01*
X196406023Y-81645083D01*
X196374783Y-81619446D01*
X196349146Y-81588206D01*
X196330096Y-81552567D01*
X196318365Y-81513897D01*
X196313800Y-81467541D01*
X196313800Y-80391317D01*
X196318365Y-80344961D01*
X196330096Y-80306291D01*
X196349146Y-80270652D01*
X196374783Y-80239412D01*
X196406023Y-80213775D01*
X196441662Y-80194725D01*
X196480332Y-80182994D01*
X196526688Y-80178429D01*
X197177912Y-80178429D01*
X197224268Y-80182994D01*
G37*
G36*
X217805915Y-78926378D02*
G01*
X217826996Y-78932774D01*
X217846432Y-78943162D01*
X217863463Y-78957138D01*
X217877439Y-78974169D01*
X217887827Y-78993605D01*
X217894223Y-79014686D01*
X217896987Y-79042754D01*
X217896987Y-79506474D01*
X217894223Y-79534542D01*
X217887827Y-79555623D01*
X217877439Y-79575059D01*
X217863463Y-79592090D01*
X217846432Y-79606066D01*
X217826996Y-79616454D01*
X217805915Y-79622850D01*
X217777847Y-79625614D01*
X215964127Y-79625614D01*
X215936059Y-79622850D01*
X215914978Y-79616454D01*
X215895542Y-79606066D01*
X215878511Y-79592090D01*
X215864535Y-79575059D01*
X215854147Y-79555623D01*
X215847751Y-79534542D01*
X215844987Y-79506474D01*
X215844987Y-79042754D01*
X215847751Y-79014686D01*
X215854147Y-78993605D01*
X215864535Y-78974169D01*
X215878511Y-78957138D01*
X215895542Y-78943162D01*
X215914978Y-78932774D01*
X215936059Y-78926378D01*
X215964127Y-78923614D01*
X217777847Y-78923614D01*
X217805915Y-78926378D01*
G37*
G36*
X212855915Y-78926378D02*
G01*
X212876996Y-78932774D01*
X212896432Y-78943162D01*
X212913463Y-78957138D01*
X212927439Y-78974169D01*
X212937827Y-78993605D01*
X212944223Y-79014686D01*
X212946987Y-79042754D01*
X212946987Y-79506474D01*
X212944223Y-79534542D01*
X212937827Y-79555623D01*
X212927439Y-79575059D01*
X212913463Y-79592090D01*
X212896432Y-79606066D01*
X212876996Y-79616454D01*
X212855915Y-79622850D01*
X212827847Y-79625614D01*
X211014127Y-79625614D01*
X210986059Y-79622850D01*
X210964978Y-79616454D01*
X210945542Y-79606066D01*
X210928511Y-79592090D01*
X210914535Y-79575059D01*
X210904147Y-79555623D01*
X210897751Y-79534542D01*
X210894987Y-79506474D01*
X210894987Y-79042754D01*
X210897751Y-79014686D01*
X210904147Y-78993605D01*
X210914535Y-78974169D01*
X210928511Y-78957138D01*
X210945542Y-78943162D01*
X210964978Y-78932774D01*
X210986059Y-78926378D01*
X211014127Y-78923614D01*
X212827847Y-78923614D01*
X212855915Y-78926378D01*
G37*
G36*
X204856338Y-78625716D02*
G01*
X204876957Y-78631971D01*
X204895953Y-78642124D01*
X204912608Y-78655792D01*
X204926276Y-78672447D01*
X204936429Y-78691443D01*
X204942684Y-78712062D01*
X204945400Y-78739640D01*
X204945400Y-79248360D01*
X204942684Y-79275938D01*
X204936429Y-79296557D01*
X204926276Y-79315553D01*
X204912608Y-79332208D01*
X204895953Y-79345876D01*
X204876957Y-79356029D01*
X204856338Y-79362284D01*
X204828760Y-79365000D01*
X204370040Y-79365000D01*
X204342462Y-79362284D01*
X204321843Y-79356029D01*
X204302847Y-79345876D01*
X204286192Y-79332208D01*
X204272524Y-79315553D01*
X204262371Y-79296557D01*
X204256116Y-79275938D01*
X204253400Y-79248360D01*
X204253400Y-78739640D01*
X204256116Y-78712062D01*
X204262371Y-78691443D01*
X204272524Y-78672447D01*
X204286192Y-78655792D01*
X204302847Y-78642124D01*
X204321843Y-78631971D01*
X204342462Y-78625716D01*
X204370040Y-78623000D01*
X204828760Y-78623000D01*
X204856338Y-78625716D01*
G37*
G36*
X203886338Y-78625716D02*
G01*
X203906957Y-78631971D01*
X203925953Y-78642124D01*
X203942608Y-78655792D01*
X203956276Y-78672447D01*
X203966429Y-78691443D01*
X203972684Y-78712062D01*
X203975400Y-78739640D01*
X203975400Y-79248360D01*
X203972684Y-79275938D01*
X203966429Y-79296557D01*
X203956276Y-79315553D01*
X203942608Y-79332208D01*
X203925953Y-79345876D01*
X203906957Y-79356029D01*
X203886338Y-79362284D01*
X203858760Y-79365000D01*
X203400040Y-79365000D01*
X203372462Y-79362284D01*
X203351843Y-79356029D01*
X203332847Y-79345876D01*
X203316192Y-79332208D01*
X203302524Y-79315553D01*
X203292371Y-79296557D01*
X203286116Y-79275938D01*
X203283400Y-79248360D01*
X203283400Y-78739640D01*
X203286116Y-78712062D01*
X203292371Y-78691443D01*
X203302524Y-78672447D01*
X203316192Y-78655792D01*
X203332847Y-78642124D01*
X203351843Y-78631971D01*
X203372462Y-78625716D01*
X203400040Y-78623000D01*
X203858760Y-78623000D01*
X203886338Y-78625716D01*
G37*
G36*
X200486534Y-75532892D02*
G01*
X200643558Y-75580525D01*
X200698789Y-75597279D01*
X200883213Y-75695856D01*
X200894399Y-75701835D01*
X201065855Y-75842545D01*
X201181333Y-75983256D01*
X201206566Y-76014002D01*
X201311121Y-76209610D01*
X201327875Y-76264841D01*
X201375508Y-76421865D01*
X201380710Y-76474686D01*
X201391800Y-76587283D01*
X201391800Y-78047917D01*
X201386369Y-78103056D01*
X201375508Y-78213335D01*
X201333371Y-78352242D01*
X201311121Y-78425590D01*
X201206566Y-78621198D01*
X201065855Y-78792655D01*
X200894398Y-78933366D01*
X200698790Y-79037921D01*
X200643559Y-79054675D01*
X200486535Y-79102308D01*
X200265800Y-79124048D01*
X200045066Y-79102308D01*
X199888042Y-79054675D01*
X199832811Y-79037921D01*
X199637203Y-78933366D01*
X199465746Y-78792655D01*
X199325035Y-78621198D01*
X199220479Y-78425589D01*
X199166388Y-78247275D01*
X199156092Y-78213335D01*
X199145672Y-78107538D01*
X199140197Y-78051948D01*
X199135417Y-78027915D01*
X199126039Y-78005276D01*
X199112426Y-77984901D01*
X199095098Y-77967574D01*
X199074724Y-77953961D01*
X199052085Y-77944583D01*
X199028052Y-77939803D01*
X199003548Y-77939803D01*
X198979515Y-77944583D01*
X198956876Y-77953961D01*
X198936501Y-77967574D01*
X198919174Y-77984902D01*
X198905561Y-78005276D01*
X198896183Y-78027915D01*
X198891403Y-78051948D01*
X198885928Y-78107538D01*
X198875508Y-78213335D01*
X198833371Y-78352242D01*
X198811121Y-78425590D01*
X198706566Y-78621198D01*
X198565855Y-78792655D01*
X198394398Y-78933366D01*
X198198790Y-79037921D01*
X198143559Y-79054675D01*
X197986535Y-79102308D01*
X197765800Y-79124048D01*
X197545066Y-79102308D01*
X197388042Y-79054675D01*
X197332811Y-79037921D01*
X197137203Y-78933366D01*
X196965746Y-78792655D01*
X196825035Y-78621198D01*
X196720479Y-78425589D01*
X196666388Y-78247275D01*
X196656092Y-78213335D01*
X196645672Y-78107538D01*
X196641196Y-78062091D01*
X196636416Y-78038058D01*
X196627038Y-78015419D01*
X196613425Y-77995044D01*
X196596097Y-77977717D01*
X196575723Y-77964104D01*
X196553084Y-77954726D01*
X196529051Y-77949946D01*
X196504547Y-77949946D01*
X196480514Y-77954726D01*
X196457875Y-77964104D01*
X196437500Y-77977717D01*
X196420173Y-77995045D01*
X196406560Y-78015419D01*
X196397182Y-78038058D01*
X196391800Y-78074343D01*
X196391800Y-79118600D01*
X194139800Y-79118600D01*
X194139800Y-75516600D01*
X196391800Y-75516600D01*
X196391800Y-76560858D01*
X196394202Y-76585244D01*
X196401315Y-76608693D01*
X196412866Y-76630304D01*
X196428411Y-76649246D01*
X196447353Y-76664791D01*
X196468964Y-76676342D01*
X196492413Y-76683455D01*
X196516799Y-76685857D01*
X196541185Y-76683455D01*
X196564634Y-76676342D01*
X196586245Y-76664791D01*
X196605187Y-76649246D01*
X196620732Y-76630304D01*
X196632283Y-76608693D01*
X196641196Y-76573110D01*
X196656092Y-76421868D01*
X196656092Y-76421866D01*
X196720478Y-76209615D01*
X196720479Y-76209611D01*
X196825034Y-76014003D01*
X196825035Y-76014001D01*
X196965745Y-75842545D01*
X197137201Y-75701835D01*
X197137200Y-75701835D01*
X197137202Y-75701834D01*
X197332810Y-75597279D01*
X197388041Y-75580525D01*
X197545065Y-75532892D01*
X197765800Y-75511152D01*
X197986534Y-75532892D01*
X198143558Y-75580525D01*
X198198789Y-75597279D01*
X198383213Y-75695856D01*
X198394399Y-75701835D01*
X198565855Y-75842545D01*
X198681333Y-75983256D01*
X198706566Y-76014002D01*
X198811121Y-76209610D01*
X198827875Y-76264841D01*
X198875508Y-76421865D01*
X198880710Y-76474686D01*
X198891403Y-76583253D01*
X198896183Y-76607286D01*
X198905561Y-76629925D01*
X198919174Y-76650300D01*
X198936501Y-76667627D01*
X198956876Y-76681240D01*
X198979515Y-76690618D01*
X199003548Y-76695398D01*
X199028052Y-76695398D01*
X199052085Y-76690618D01*
X199074724Y-76681240D01*
X199095099Y-76667627D01*
X199112426Y-76650300D01*
X199126039Y-76629925D01*
X199135417Y-76607286D01*
X199140197Y-76583253D01*
X199156092Y-76421868D01*
X199156092Y-76421866D01*
X199220478Y-76209615D01*
X199220479Y-76209611D01*
X199325034Y-76014003D01*
X199325035Y-76014001D01*
X199465745Y-75842545D01*
X199637201Y-75701835D01*
X199637200Y-75701835D01*
X199637202Y-75701834D01*
X199832810Y-75597279D01*
X199888041Y-75580525D01*
X200045065Y-75532892D01*
X200265800Y-75511152D01*
X200486534Y-75532892D01*
G37*
G36*
X217805915Y-77656378D02*
G01*
X217826996Y-77662774D01*
X217846432Y-77673162D01*
X217863463Y-77687138D01*
X217877439Y-77704169D01*
X217887827Y-77723605D01*
X217894223Y-77744686D01*
X217896987Y-77772754D01*
X217896987Y-78236474D01*
X217894223Y-78264542D01*
X217887827Y-78285623D01*
X217877439Y-78305059D01*
X217863463Y-78322090D01*
X217846432Y-78336066D01*
X217826996Y-78346454D01*
X217805915Y-78352850D01*
X217777847Y-78355614D01*
X215964127Y-78355614D01*
X215936059Y-78352850D01*
X215914978Y-78346454D01*
X215895542Y-78336066D01*
X215878511Y-78322090D01*
X215864535Y-78305059D01*
X215854147Y-78285623D01*
X215847751Y-78264542D01*
X215844987Y-78236474D01*
X215844987Y-77772754D01*
X215847751Y-77744686D01*
X215854147Y-77723605D01*
X215864535Y-77704169D01*
X215878511Y-77687138D01*
X215895542Y-77673162D01*
X215914978Y-77662774D01*
X215936059Y-77656378D01*
X215964127Y-77653614D01*
X217777847Y-77653614D01*
X217805915Y-77656378D01*
G37*
G36*
X212855915Y-77656378D02*
G01*
X212876996Y-77662774D01*
X212896432Y-77673162D01*
X212913463Y-77687138D01*
X212927439Y-77704169D01*
X212937827Y-77723605D01*
X212944223Y-77744686D01*
X212946987Y-77772754D01*
X212946987Y-78236474D01*
X212944223Y-78264542D01*
X212937827Y-78285623D01*
X212927439Y-78305059D01*
X212913463Y-78322090D01*
X212896432Y-78336066D01*
X212876996Y-78346454D01*
X212855915Y-78352850D01*
X212827847Y-78355614D01*
X211014127Y-78355614D01*
X210986059Y-78352850D01*
X210964978Y-78346454D01*
X210945542Y-78336066D01*
X210928511Y-78322090D01*
X210914535Y-78305059D01*
X210904147Y-78285623D01*
X210897751Y-78264542D01*
X210894987Y-78236474D01*
X210894987Y-77772754D01*
X210897751Y-77744686D01*
X210904147Y-77723605D01*
X210914535Y-77704169D01*
X210928511Y-77687138D01*
X210945542Y-77673162D01*
X210964978Y-77662774D01*
X210986059Y-77656378D01*
X211014127Y-77653614D01*
X212827847Y-77653614D01*
X212855915Y-77656378D01*
G37*
G36*
X204856338Y-77457316D02*
G01*
X204876957Y-77463571D01*
X204895953Y-77473724D01*
X204912608Y-77487392D01*
X204926276Y-77504047D01*
X204936429Y-77523043D01*
X204942684Y-77543662D01*
X204945400Y-77571240D01*
X204945400Y-78079960D01*
X204942684Y-78107538D01*
X204936429Y-78128157D01*
X204926276Y-78147153D01*
X204912608Y-78163808D01*
X204895953Y-78177476D01*
X204876957Y-78187629D01*
X204856338Y-78193884D01*
X204828760Y-78196600D01*
X204370040Y-78196600D01*
X204342462Y-78193884D01*
X204321843Y-78187629D01*
X204302847Y-78177476D01*
X204286192Y-78163808D01*
X204272524Y-78147153D01*
X204262371Y-78128157D01*
X204256116Y-78107538D01*
X204253400Y-78079960D01*
X204253400Y-77571240D01*
X204256116Y-77543662D01*
X204262371Y-77523043D01*
X204272524Y-77504047D01*
X204286192Y-77487392D01*
X204302847Y-77473724D01*
X204321843Y-77463571D01*
X204342462Y-77457316D01*
X204370040Y-77454600D01*
X204828760Y-77454600D01*
X204856338Y-77457316D01*
G37*
G36*
X203886338Y-77457316D02*
G01*
X203906957Y-77463571D01*
X203925953Y-77473724D01*
X203942608Y-77487392D01*
X203956276Y-77504047D01*
X203966429Y-77523043D01*
X203972684Y-77543662D01*
X203975400Y-77571240D01*
X203975400Y-78079960D01*
X203972684Y-78107538D01*
X203966429Y-78128157D01*
X203956276Y-78147153D01*
X203942608Y-78163808D01*
X203925953Y-78177476D01*
X203906957Y-78187629D01*
X203886338Y-78193884D01*
X203858760Y-78196600D01*
X203400040Y-78196600D01*
X203372462Y-78193884D01*
X203351843Y-78187629D01*
X203332847Y-78177476D01*
X203316192Y-78163808D01*
X203302524Y-78147153D01*
X203292371Y-78128157D01*
X203286116Y-78107538D01*
X203283400Y-78079960D01*
X203283400Y-77571240D01*
X203286116Y-77543662D01*
X203292371Y-77523043D01*
X203302524Y-77504047D01*
X203316192Y-77487392D01*
X203332847Y-77473724D01*
X203351843Y-77463571D01*
X203372462Y-77457316D01*
X203400040Y-77454600D01*
X203858760Y-77454600D01*
X203886338Y-77457316D01*
G37*
G36*
X217805915Y-76386378D02*
G01*
X217826996Y-76392774D01*
X217846432Y-76403162D01*
X217863463Y-76417138D01*
X217877439Y-76434169D01*
X217887827Y-76453605D01*
X217894223Y-76474686D01*
X217896987Y-76502754D01*
X217896987Y-76966474D01*
X217894223Y-76994542D01*
X217887827Y-77015623D01*
X217877439Y-77035059D01*
X217863463Y-77052090D01*
X217846432Y-77066066D01*
X217826996Y-77076454D01*
X217805915Y-77082850D01*
X217777847Y-77085614D01*
X215964127Y-77085614D01*
X215936059Y-77082850D01*
X215914978Y-77076454D01*
X215895542Y-77066066D01*
X215878511Y-77052090D01*
X215864535Y-77035059D01*
X215854147Y-77015623D01*
X215847751Y-76994542D01*
X215844987Y-76966474D01*
X215844987Y-76502754D01*
X215847751Y-76474686D01*
X215854147Y-76453605D01*
X215864535Y-76434169D01*
X215878511Y-76417138D01*
X215895542Y-76403162D01*
X215914978Y-76392774D01*
X215936059Y-76386378D01*
X215964127Y-76383614D01*
X217777847Y-76383614D01*
X217805915Y-76386378D01*
G37*
G36*
X212855915Y-76386378D02*
G01*
X212876996Y-76392774D01*
X212896432Y-76403162D01*
X212913463Y-76417138D01*
X212927439Y-76434169D01*
X212937827Y-76453605D01*
X212944223Y-76474686D01*
X212946987Y-76502754D01*
X212946987Y-76966474D01*
X212944223Y-76994542D01*
X212937827Y-77015623D01*
X212927439Y-77035059D01*
X212913463Y-77052090D01*
X212896432Y-77066066D01*
X212876996Y-77076454D01*
X212855915Y-77082850D01*
X212827847Y-77085614D01*
X211014127Y-77085614D01*
X210986059Y-77082850D01*
X210964978Y-77076454D01*
X210945542Y-77066066D01*
X210928511Y-77052090D01*
X210914535Y-77035059D01*
X210904147Y-77015623D01*
X210897751Y-76994542D01*
X210894987Y-76966474D01*
X210894987Y-76502754D01*
X210897751Y-76474686D01*
X210904147Y-76453605D01*
X210914535Y-76434169D01*
X210928511Y-76417138D01*
X210945542Y-76403162D01*
X210964978Y-76392774D01*
X210986059Y-76386378D01*
X211014127Y-76383614D01*
X212827847Y-76383614D01*
X212855915Y-76386378D01*
G37*
G36*
X217805915Y-75116378D02*
G01*
X217826996Y-75122774D01*
X217846432Y-75133162D01*
X217863463Y-75147138D01*
X217877439Y-75164169D01*
X217887827Y-75183605D01*
X217894223Y-75204686D01*
X217896987Y-75232754D01*
X217896987Y-75696474D01*
X217894223Y-75724542D01*
X217887827Y-75745623D01*
X217877439Y-75765059D01*
X217863463Y-75782090D01*
X217846432Y-75796066D01*
X217826996Y-75806454D01*
X217805915Y-75812850D01*
X217777847Y-75815614D01*
X215964127Y-75815614D01*
X215936059Y-75812850D01*
X215914978Y-75806454D01*
X215895542Y-75796066D01*
X215878511Y-75782090D01*
X215864535Y-75765059D01*
X215854147Y-75745623D01*
X215847751Y-75724542D01*
X215844987Y-75696474D01*
X215844987Y-75232754D01*
X215847751Y-75204686D01*
X215854147Y-75183605D01*
X215864535Y-75164169D01*
X215878511Y-75147138D01*
X215895542Y-75133162D01*
X215914978Y-75122774D01*
X215936059Y-75116378D01*
X215964127Y-75113614D01*
X217777847Y-75113614D01*
X217805915Y-75116378D01*
G37*
G36*
X212855915Y-75116378D02*
G01*
X212876996Y-75122774D01*
X212896432Y-75133162D01*
X212913463Y-75147138D01*
X212927439Y-75164169D01*
X212937827Y-75183605D01*
X212944223Y-75204686D01*
X212946987Y-75232754D01*
X212946987Y-75696474D01*
X212944223Y-75724542D01*
X212937827Y-75745623D01*
X212927439Y-75765059D01*
X212913463Y-75782090D01*
X212896432Y-75796066D01*
X212876996Y-75806454D01*
X212855915Y-75812850D01*
X212827847Y-75815614D01*
X211014127Y-75815614D01*
X210986059Y-75812850D01*
X210964978Y-75806454D01*
X210945542Y-75796066D01*
X210928511Y-75782090D01*
X210914535Y-75765059D01*
X210904147Y-75745623D01*
X210897751Y-75724542D01*
X210894987Y-75696474D01*
X210894987Y-75232754D01*
X210897751Y-75204686D01*
X210904147Y-75183605D01*
X210914535Y-75164169D01*
X210928511Y-75147138D01*
X210945542Y-75133162D01*
X210964978Y-75122774D01*
X210986059Y-75116378D01*
X211014127Y-75113614D01*
X212827847Y-75113614D01*
X212855915Y-75116378D01*
G37*
G36*
X212855915Y-73846378D02*
G01*
X212876996Y-73852774D01*
X212896432Y-73863162D01*
X212913463Y-73877138D01*
X212927439Y-73894169D01*
X212937827Y-73913605D01*
X212944223Y-73934686D01*
X212946987Y-73962754D01*
X212946987Y-74426474D01*
X212944223Y-74454542D01*
X212937827Y-74475623D01*
X212927439Y-74495059D01*
X212913463Y-74512090D01*
X212896432Y-74526066D01*
X212876996Y-74536454D01*
X212855915Y-74542850D01*
X212827847Y-74545614D01*
X211014127Y-74545614D01*
X210986059Y-74542850D01*
X210964978Y-74536454D01*
X210945542Y-74526066D01*
X210928511Y-74512090D01*
X210914535Y-74495059D01*
X210904147Y-74475623D01*
X210897751Y-74454542D01*
X210894987Y-74426474D01*
X210894987Y-73962754D01*
X210897751Y-73934686D01*
X210904147Y-73913605D01*
X210914535Y-73894169D01*
X210928511Y-73877138D01*
X210945542Y-73863162D01*
X210964978Y-73852774D01*
X210986059Y-73846378D01*
X211014127Y-73843614D01*
X212827847Y-73843614D01*
X212855915Y-73846378D01*
G37*
G36*
X217805915Y-73846378D02*
G01*
X217826996Y-73852774D01*
X217846432Y-73863162D01*
X217863463Y-73877138D01*
X217877439Y-73894169D01*
X217887827Y-73913605D01*
X217894223Y-73934686D01*
X217896987Y-73962754D01*
X217896987Y-74426474D01*
X217894223Y-74454542D01*
X217887827Y-74475623D01*
X217877439Y-74495059D01*
X217863463Y-74512090D01*
X217846432Y-74526066D01*
X217826996Y-74536454D01*
X217805915Y-74542850D01*
X217777847Y-74545614D01*
X215964127Y-74545614D01*
X215936059Y-74542850D01*
X215914978Y-74536454D01*
X215895542Y-74526066D01*
X215878511Y-74512090D01*
X215864535Y-74495059D01*
X215854147Y-74475623D01*
X215847751Y-74454542D01*
X215844987Y-74426474D01*
X215844987Y-73962754D01*
X215847751Y-73934686D01*
X215854147Y-73913605D01*
X215864535Y-73894169D01*
X215878511Y-73877138D01*
X215895542Y-73863162D01*
X215914978Y-73852774D01*
X215936059Y-73846378D01*
X215964127Y-73843614D01*
X217777847Y-73843614D01*
X217805915Y-73846378D01*
G37*
G36*
X212855915Y-72576378D02*
G01*
X212876996Y-72582774D01*
X212896432Y-72593162D01*
X212913463Y-72607138D01*
X212927439Y-72624169D01*
X212937827Y-72643605D01*
X212944223Y-72664686D01*
X212946987Y-72692754D01*
X212946987Y-73156474D01*
X212944223Y-73184542D01*
X212937827Y-73205623D01*
X212927439Y-73225059D01*
X212913463Y-73242090D01*
X212896432Y-73256066D01*
X212876996Y-73266454D01*
X212855915Y-73272850D01*
X212827847Y-73275614D01*
X211014127Y-73275614D01*
X210986059Y-73272850D01*
X210964978Y-73266454D01*
X210945542Y-73256066D01*
X210928511Y-73242090D01*
X210914535Y-73225059D01*
X210904147Y-73205623D01*
X210897751Y-73184542D01*
X210894987Y-73156474D01*
X210894987Y-72692754D01*
X210897751Y-72664686D01*
X210904147Y-72643605D01*
X210914535Y-72624169D01*
X210928511Y-72607138D01*
X210945542Y-72593162D01*
X210964978Y-72582774D01*
X210986059Y-72576378D01*
X211014127Y-72573614D01*
X212827847Y-72573614D01*
X212855915Y-72576378D01*
G37*
G36*
X217805915Y-72576378D02*
G01*
X217826996Y-72582774D01*
X217846432Y-72593162D01*
X217863463Y-72607138D01*
X217877439Y-72624169D01*
X217887827Y-72643605D01*
X217894223Y-72664686D01*
X217896987Y-72692754D01*
X217896987Y-73156474D01*
X217894223Y-73184542D01*
X217887827Y-73205623D01*
X217877439Y-73225059D01*
X217863463Y-73242090D01*
X217846432Y-73256066D01*
X217826996Y-73266454D01*
X217805915Y-73272850D01*
X217777847Y-73275614D01*
X215964127Y-73275614D01*
X215936059Y-73272850D01*
X215914978Y-73266454D01*
X215895542Y-73256066D01*
X215878511Y-73242090D01*
X215864535Y-73225059D01*
X215854147Y-73205623D01*
X215847751Y-73184542D01*
X215844987Y-73156474D01*
X215844987Y-72692754D01*
X215847751Y-72664686D01*
X215854147Y-72643605D01*
X215864535Y-72624169D01*
X215878511Y-72607138D01*
X215895542Y-72593162D01*
X215914978Y-72582774D01*
X215936059Y-72576378D01*
X215964127Y-72573614D01*
X217777847Y-72573614D01*
X217805915Y-72576378D01*
G37*
G36*
X193368857Y-67292659D02*
G01*
X193708347Y-67395642D01*
X193708349Y-67395643D01*
X194021223Y-67562877D01*
X194295461Y-67787939D01*
X194520523Y-68062178D01*
X194583288Y-68179603D01*
X194687758Y-68375052D01*
X194790741Y-68714542D01*
X194816800Y-68979125D01*
X194816800Y-70656075D01*
X194790741Y-70920658D01*
X194687758Y-71260148D01*
X194687757Y-71260150D01*
X194520523Y-71573022D01*
X194295461Y-71847261D01*
X194021222Y-72072323D01*
X193708350Y-72239557D01*
X193708348Y-72239558D01*
X193368858Y-72342541D01*
X193015800Y-72377314D01*
X192662743Y-72342541D01*
X192323253Y-72239558D01*
X192323251Y-72239557D01*
X192010379Y-72072323D01*
X191736140Y-71847261D01*
X191511078Y-71573022D01*
X191343844Y-71260150D01*
X191343843Y-71260148D01*
X191240859Y-70920658D01*
X191214800Y-70656075D01*
X191214800Y-68979126D01*
X191240859Y-68714543D01*
X191343842Y-68375053D01*
X191343844Y-68375050D01*
X191511077Y-68062177D01*
X191736139Y-67787939D01*
X192010378Y-67562877D01*
X192323250Y-67395643D01*
X192323252Y-67395642D01*
X192662742Y-67292659D01*
X193015800Y-67257886D01*
X193368857Y-67292659D01*
G37*
G36*
X202868857Y-67292659D02*
G01*
X203208347Y-67395642D01*
X203208349Y-67395643D01*
X203521223Y-67562877D01*
X203795461Y-67787939D01*
X204020523Y-68062178D01*
X204083288Y-68179603D01*
X204187758Y-68375052D01*
X204290741Y-68714542D01*
X204316800Y-68979125D01*
X204316800Y-70656075D01*
X204290741Y-70920658D01*
X204187758Y-71260148D01*
X204187757Y-71260150D01*
X204020523Y-71573022D01*
X203795461Y-71847261D01*
X203521222Y-72072323D01*
X203208350Y-72239557D01*
X203208348Y-72239558D01*
X202868858Y-72342541D01*
X202515800Y-72377314D01*
X202162743Y-72342541D01*
X201823253Y-72239558D01*
X201823251Y-72239557D01*
X201510379Y-72072323D01*
X201236140Y-71847261D01*
X201011078Y-71573022D01*
X200843844Y-71260150D01*
X200843843Y-71260148D01*
X200740859Y-70920658D01*
X200714800Y-70656075D01*
X200714800Y-68979126D01*
X200740859Y-68714543D01*
X200843842Y-68375053D01*
X200843844Y-68375050D01*
X201011077Y-68062177D01*
X201236139Y-67787939D01*
X201510378Y-67562877D01*
X201823250Y-67395643D01*
X201823252Y-67395642D01*
X202162742Y-67292659D01*
X202515800Y-67257886D01*
X202868857Y-67292659D01*
G37*
G36*
X212855915Y-71306378D02*
G01*
X212876996Y-71312774D01*
X212896432Y-71323162D01*
X212913463Y-71337138D01*
X212927439Y-71354169D01*
X212937827Y-71373605D01*
X212944223Y-71394686D01*
X212946987Y-71422754D01*
X212946987Y-71886474D01*
X212944223Y-71914542D01*
X212937827Y-71935623D01*
X212927439Y-71955059D01*
X212913463Y-71972090D01*
X212896432Y-71986066D01*
X212876996Y-71996454D01*
X212855915Y-72002850D01*
X212827847Y-72005614D01*
X211014127Y-72005614D01*
X210986059Y-72002850D01*
X210964978Y-71996454D01*
X210945542Y-71986066D01*
X210928511Y-71972090D01*
X210914535Y-71955059D01*
X210904147Y-71935623D01*
X210897751Y-71914542D01*
X210894987Y-71886474D01*
X210894987Y-71422754D01*
X210897751Y-71394686D01*
X210904147Y-71373605D01*
X210914535Y-71354169D01*
X210928511Y-71337138D01*
X210945542Y-71323162D01*
X210964978Y-71312774D01*
X210986059Y-71306378D01*
X211014127Y-71303614D01*
X212827847Y-71303614D01*
X212855915Y-71306378D01*
G37*
G36*
X217805915Y-71306378D02*
G01*
X217826996Y-71312774D01*
X217846432Y-71323162D01*
X217863463Y-71337138D01*
X217877439Y-71354169D01*
X217887827Y-71373605D01*
X217894223Y-71394686D01*
X217896987Y-71422754D01*
X217896987Y-71886474D01*
X217894223Y-71914542D01*
X217887827Y-71935623D01*
X217877439Y-71955059D01*
X217863463Y-71972090D01*
X217846432Y-71986066D01*
X217826996Y-71996454D01*
X217805915Y-72002850D01*
X217777847Y-72005614D01*
X215964127Y-72005614D01*
X215936059Y-72002850D01*
X215914978Y-71996454D01*
X215895542Y-71986066D01*
X215878511Y-71972090D01*
X215864535Y-71955059D01*
X215854147Y-71935623D01*
X215847751Y-71914542D01*
X215844987Y-71886474D01*
X215844987Y-71422754D01*
X215847751Y-71394686D01*
X215854147Y-71373605D01*
X215864535Y-71354169D01*
X215878511Y-71337138D01*
X215895542Y-71323162D01*
X215914978Y-71312774D01*
X215936059Y-71306378D01*
X215964127Y-71303614D01*
X217777847Y-71303614D01*
X217805915Y-71306378D01*
G37*
G36*
X213810468Y-68849565D02*
G01*
X213849138Y-68861296D01*
X213884777Y-68880346D01*
X213916017Y-68905983D01*
X213941654Y-68937223D01*
X213960704Y-68972862D01*
X213972435Y-69011532D01*
X213977000Y-69057888D01*
X213977000Y-70134112D01*
X213972435Y-70180468D01*
X213960704Y-70219138D01*
X213941654Y-70254777D01*
X213916017Y-70286017D01*
X213884777Y-70311654D01*
X213849138Y-70330704D01*
X213810468Y-70342435D01*
X213764112Y-70347000D01*
X213112888Y-70347000D01*
X213066532Y-70342435D01*
X213027862Y-70330704D01*
X212992223Y-70311654D01*
X212960983Y-70286017D01*
X212935346Y-70254777D01*
X212916296Y-70219138D01*
X212904565Y-70180468D01*
X212900000Y-70134112D01*
X212900000Y-69057888D01*
X212904565Y-69011532D01*
X212916296Y-68972862D01*
X212935346Y-68937223D01*
X212960983Y-68905983D01*
X212992223Y-68880346D01*
X213027862Y-68861296D01*
X213066532Y-68849565D01*
X213112888Y-68845000D01*
X213764112Y-68845000D01*
X213810468Y-68849565D01*
G37*
G36*
X215685468Y-68849565D02*
G01*
X215724138Y-68861296D01*
X215759777Y-68880346D01*
X215791017Y-68905983D01*
X215816654Y-68937223D01*
X215835704Y-68972862D01*
X215847435Y-69011532D01*
X215852000Y-69057888D01*
X215852000Y-70134112D01*
X215847435Y-70180468D01*
X215835704Y-70219138D01*
X215816654Y-70254777D01*
X215791017Y-70286017D01*
X215759777Y-70311654D01*
X215724138Y-70330704D01*
X215685468Y-70342435D01*
X215639112Y-70347000D01*
X214987888Y-70347000D01*
X214941532Y-70342435D01*
X214902862Y-70330704D01*
X214867223Y-70311654D01*
X214835983Y-70286017D01*
X214810346Y-70254777D01*
X214791296Y-70219138D01*
X214779565Y-70180468D01*
X214775000Y-70134112D01*
X214775000Y-69057888D01*
X214779565Y-69011532D01*
X214791296Y-68972862D01*
X214810346Y-68937223D01*
X214835983Y-68905983D01*
X214867223Y-68880346D01*
X214902862Y-68861296D01*
X214941532Y-68849565D01*
X214987888Y-68845000D01*
X215639112Y-68845000D01*
X215685468Y-68849565D01*
G37*
G36*
X216848610Y-67443643D02*
G01*
X216869229Y-67449898D01*
X216888225Y-67460051D01*
X216904880Y-67473719D01*
X216918548Y-67490374D01*
X216928701Y-67509370D01*
X216934956Y-67529989D01*
X216937672Y-67557567D01*
X216937672Y-68066287D01*
X216934956Y-68093865D01*
X216928701Y-68114484D01*
X216918548Y-68133480D01*
X216904880Y-68150135D01*
X216888225Y-68163803D01*
X216869229Y-68173956D01*
X216848610Y-68180211D01*
X216821032Y-68182927D01*
X216362312Y-68182927D01*
X216334734Y-68180211D01*
X216314115Y-68173956D01*
X216295119Y-68163803D01*
X216278464Y-68150135D01*
X216264796Y-68133480D01*
X216254643Y-68114484D01*
X216248388Y-68093865D01*
X216245672Y-68066287D01*
X216245672Y-67557567D01*
X216248388Y-67529989D01*
X216254643Y-67509370D01*
X216264796Y-67490374D01*
X216278464Y-67473719D01*
X216295119Y-67460051D01*
X216314115Y-67449898D01*
X216334734Y-67443643D01*
X216362312Y-67440927D01*
X216821032Y-67440927D01*
X216848610Y-67443643D01*
G37*
G36*
X215878610Y-67443643D02*
G01*
X215899229Y-67449898D01*
X215918225Y-67460051D01*
X215934880Y-67473719D01*
X215948548Y-67490374D01*
X215958701Y-67509370D01*
X215964956Y-67529989D01*
X215967672Y-67557567D01*
X215967672Y-68066287D01*
X215964956Y-68093865D01*
X215958701Y-68114484D01*
X215948548Y-68133480D01*
X215934880Y-68150135D01*
X215918225Y-68163803D01*
X215899229Y-68173956D01*
X215878610Y-68180211D01*
X215851032Y-68182927D01*
X215392312Y-68182927D01*
X215364734Y-68180211D01*
X215344115Y-68173956D01*
X215325119Y-68163803D01*
X215308464Y-68150135D01*
X215294796Y-68133480D01*
X215284643Y-68114484D01*
X215278388Y-68093865D01*
X215275672Y-68066287D01*
X215275672Y-67557567D01*
X215278388Y-67529989D01*
X215284643Y-67509370D01*
X215294796Y-67490374D01*
X215308464Y-67473719D01*
X215325119Y-67460051D01*
X215344115Y-67449898D01*
X215364734Y-67443643D01*
X215392312Y-67440927D01*
X215851032Y-67440927D01*
X215878610Y-67443643D01*
G37*
G36*
X214816610Y-67443643D02*
G01*
X214837229Y-67449898D01*
X214856225Y-67460051D01*
X214872880Y-67473719D01*
X214886548Y-67490374D01*
X214896701Y-67509370D01*
X214902956Y-67529989D01*
X214905672Y-67557567D01*
X214905672Y-68066287D01*
X214902956Y-68093865D01*
X214896701Y-68114484D01*
X214886548Y-68133480D01*
X214872880Y-68150135D01*
X214856225Y-68163803D01*
X214837229Y-68173956D01*
X214816610Y-68180211D01*
X214789032Y-68182927D01*
X214330312Y-68182927D01*
X214302734Y-68180211D01*
X214282115Y-68173956D01*
X214263119Y-68163803D01*
X214246464Y-68150135D01*
X214232796Y-68133480D01*
X214222643Y-68114484D01*
X214216388Y-68093865D01*
X214213672Y-68066287D01*
X214213672Y-67557567D01*
X214216388Y-67529989D01*
X214222643Y-67509370D01*
X214232796Y-67490374D01*
X214246464Y-67473719D01*
X214263119Y-67460051D01*
X214282115Y-67449898D01*
X214302734Y-67443643D01*
X214330312Y-67440927D01*
X214789032Y-67440927D01*
X214816610Y-67443643D01*
G37*
G36*
X213846610Y-67443643D02*
G01*
X213867229Y-67449898D01*
X213886225Y-67460051D01*
X213902880Y-67473719D01*
X213916548Y-67490374D01*
X213926701Y-67509370D01*
X213932956Y-67529989D01*
X213935672Y-67557567D01*
X213935672Y-68066287D01*
X213932956Y-68093865D01*
X213926701Y-68114484D01*
X213916548Y-68133480D01*
X213902880Y-68150135D01*
X213886225Y-68163803D01*
X213867229Y-68173956D01*
X213846610Y-68180211D01*
X213819032Y-68182927D01*
X213360312Y-68182927D01*
X213332734Y-68180211D01*
X213312115Y-68173956D01*
X213293119Y-68163803D01*
X213276464Y-68150135D01*
X213262796Y-68133480D01*
X213252643Y-68114484D01*
X213246388Y-68093865D01*
X213243672Y-68066287D01*
X213243672Y-67557567D01*
X213246388Y-67529989D01*
X213252643Y-67509370D01*
X213262796Y-67490374D01*
X213276464Y-67473719D01*
X213293119Y-67460051D01*
X213312115Y-67449898D01*
X213332734Y-67443643D01*
X213360312Y-67440927D01*
X213819032Y-67440927D01*
X213846610Y-67443643D01*
G37*
G36*
X212784610Y-67443643D02*
G01*
X212805229Y-67449898D01*
X212824225Y-67460051D01*
X212840880Y-67473719D01*
X212854548Y-67490374D01*
X212864701Y-67509370D01*
X212870956Y-67529989D01*
X212873672Y-67557567D01*
X212873672Y-68066287D01*
X212870956Y-68093865D01*
X212864701Y-68114484D01*
X212854548Y-68133480D01*
X212840880Y-68150135D01*
X212824225Y-68163803D01*
X212805229Y-68173956D01*
X212784610Y-68180211D01*
X212757032Y-68182927D01*
X212298312Y-68182927D01*
X212270734Y-68180211D01*
X212250115Y-68173956D01*
X212231119Y-68163803D01*
X212214464Y-68150135D01*
X212200796Y-68133480D01*
X212190643Y-68114484D01*
X212184388Y-68093865D01*
X212181672Y-68066287D01*
X212181672Y-67557567D01*
X212184388Y-67529989D01*
X212190643Y-67509370D01*
X212200796Y-67490374D01*
X212214464Y-67473719D01*
X212231119Y-67460051D01*
X212250115Y-67449898D01*
X212270734Y-67443643D01*
X212298312Y-67440927D01*
X212757032Y-67440927D01*
X212784610Y-67443643D01*
G37*
G36*
X211814610Y-67443643D02*
G01*
X211835229Y-67449898D01*
X211854225Y-67460051D01*
X211870880Y-67473719D01*
X211884548Y-67490374D01*
X211894701Y-67509370D01*
X211900956Y-67529989D01*
X211903672Y-67557567D01*
X211903672Y-68066287D01*
X211900956Y-68093865D01*
X211894701Y-68114484D01*
X211884548Y-68133480D01*
X211870880Y-68150135D01*
X211854225Y-68163803D01*
X211835229Y-68173956D01*
X211814610Y-68180211D01*
X211787032Y-68182927D01*
X211328312Y-68182927D01*
X211300734Y-68180211D01*
X211280115Y-68173956D01*
X211261119Y-68163803D01*
X211244464Y-68150135D01*
X211230796Y-68133480D01*
X211220643Y-68114484D01*
X211214388Y-68093865D01*
X211211672Y-68066287D01*
X211211672Y-67557567D01*
X211214388Y-67529989D01*
X211220643Y-67509370D01*
X211230796Y-67490374D01*
X211244464Y-67473719D01*
X211261119Y-67460051D01*
X211280115Y-67449898D01*
X211300734Y-67443643D01*
X211328312Y-67440927D01*
X211787032Y-67440927D01*
X211814610Y-67443643D01*
G37*
G36*
X216848610Y-65983143D02*
G01*
X216869229Y-65989398D01*
X216888225Y-65999551D01*
X216904880Y-66013219D01*
X216918548Y-66029874D01*
X216928701Y-66048870D01*
X216934956Y-66069489D01*
X216937672Y-66097067D01*
X216937672Y-66605787D01*
X216934956Y-66633365D01*
X216928701Y-66653984D01*
X216918548Y-66672980D01*
X216904880Y-66689635D01*
X216888225Y-66703303D01*
X216869229Y-66713456D01*
X216848610Y-66719711D01*
X216821032Y-66722427D01*
X216362312Y-66722427D01*
X216334734Y-66719711D01*
X216314115Y-66713456D01*
X216295119Y-66703303D01*
X216278464Y-66689635D01*
X216264796Y-66672980D01*
X216254643Y-66653984D01*
X216248388Y-66633365D01*
X216245672Y-66605787D01*
X216245672Y-66097067D01*
X216248388Y-66069489D01*
X216254643Y-66048870D01*
X216264796Y-66029874D01*
X216278464Y-66013219D01*
X216295119Y-65999551D01*
X216314115Y-65989398D01*
X216334734Y-65983143D01*
X216362312Y-65980427D01*
X216821032Y-65980427D01*
X216848610Y-65983143D01*
G37*
G36*
X215878610Y-65983143D02*
G01*
X215899229Y-65989398D01*
X215918225Y-65999551D01*
X215934880Y-66013219D01*
X215948548Y-66029874D01*
X215958701Y-66048870D01*
X215964956Y-66069489D01*
X215967672Y-66097067D01*
X215967672Y-66605787D01*
X215964956Y-66633365D01*
X215958701Y-66653984D01*
X215948548Y-66672980D01*
X215934880Y-66689635D01*
X215918225Y-66703303D01*
X215899229Y-66713456D01*
X215878610Y-66719711D01*
X215851032Y-66722427D01*
X215392312Y-66722427D01*
X215364734Y-66719711D01*
X215344115Y-66713456D01*
X215325119Y-66703303D01*
X215308464Y-66689635D01*
X215294796Y-66672980D01*
X215284643Y-66653984D01*
X215278388Y-66633365D01*
X215275672Y-66605787D01*
X215275672Y-66097067D01*
X215278388Y-66069489D01*
X215284643Y-66048870D01*
X215294796Y-66029874D01*
X215308464Y-66013219D01*
X215325119Y-65999551D01*
X215344115Y-65989398D01*
X215364734Y-65983143D01*
X215392312Y-65980427D01*
X215851032Y-65980427D01*
X215878610Y-65983143D01*
G37*
G36*
X214816610Y-65983143D02*
G01*
X214837229Y-65989398D01*
X214856225Y-65999551D01*
X214872880Y-66013219D01*
X214886548Y-66029874D01*
X214896701Y-66048870D01*
X214902956Y-66069489D01*
X214905672Y-66097067D01*
X214905672Y-66605787D01*
X214902956Y-66633365D01*
X214896701Y-66653984D01*
X214886548Y-66672980D01*
X214872880Y-66689635D01*
X214856225Y-66703303D01*
X214837229Y-66713456D01*
X214816610Y-66719711D01*
X214789032Y-66722427D01*
X214330312Y-66722427D01*
X214302734Y-66719711D01*
X214282115Y-66713456D01*
X214263119Y-66703303D01*
X214246464Y-66689635D01*
X214232796Y-66672980D01*
X214222643Y-66653984D01*
X214216388Y-66633365D01*
X214213672Y-66605787D01*
X214213672Y-66097067D01*
X214216388Y-66069489D01*
X214222643Y-66048870D01*
X214232796Y-66029874D01*
X214246464Y-66013219D01*
X214263119Y-65999551D01*
X214282115Y-65989398D01*
X214302734Y-65983143D01*
X214330312Y-65980427D01*
X214789032Y-65980427D01*
X214816610Y-65983143D01*
G37*
G36*
X213846610Y-65983143D02*
G01*
X213867229Y-65989398D01*
X213886225Y-65999551D01*
X213902880Y-66013219D01*
X213916548Y-66029874D01*
X213926701Y-66048870D01*
X213932956Y-66069489D01*
X213935672Y-66097067D01*
X213935672Y-66605787D01*
X213932956Y-66633365D01*
X213926701Y-66653984D01*
X213916548Y-66672980D01*
X213902880Y-66689635D01*
X213886225Y-66703303D01*
X213867229Y-66713456D01*
X213846610Y-66719711D01*
X213819032Y-66722427D01*
X213360312Y-66722427D01*
X213332734Y-66719711D01*
X213312115Y-66713456D01*
X213293119Y-66703303D01*
X213276464Y-66689635D01*
X213262796Y-66672980D01*
X213252643Y-66653984D01*
X213246388Y-66633365D01*
X213243672Y-66605787D01*
X213243672Y-66097067D01*
X213246388Y-66069489D01*
X213252643Y-66048870D01*
X213262796Y-66029874D01*
X213276464Y-66013219D01*
X213293119Y-65999551D01*
X213312115Y-65989398D01*
X213332734Y-65983143D01*
X213360312Y-65980427D01*
X213819032Y-65980427D01*
X213846610Y-65983143D01*
G37*
G36*
X212784610Y-65983143D02*
G01*
X212805229Y-65989398D01*
X212824225Y-65999551D01*
X212840880Y-66013219D01*
X212854548Y-66029874D01*
X212864701Y-66048870D01*
X212870956Y-66069489D01*
X212873672Y-66097067D01*
X212873672Y-66605787D01*
X212870956Y-66633365D01*
X212864701Y-66653984D01*
X212854548Y-66672980D01*
X212840880Y-66689635D01*
X212824225Y-66703303D01*
X212805229Y-66713456D01*
X212784610Y-66719711D01*
X212757032Y-66722427D01*
X212298312Y-66722427D01*
X212270734Y-66719711D01*
X212250115Y-66713456D01*
X212231119Y-66703303D01*
X212214464Y-66689635D01*
X212200796Y-66672980D01*
X212190643Y-66653984D01*
X212184388Y-66633365D01*
X212181672Y-66605787D01*
X212181672Y-66097067D01*
X212184388Y-66069489D01*
X212190643Y-66048870D01*
X212200796Y-66029874D01*
X212214464Y-66013219D01*
X212231119Y-65999551D01*
X212250115Y-65989398D01*
X212270734Y-65983143D01*
X212298312Y-65980427D01*
X212757032Y-65980427D01*
X212784610Y-65983143D01*
G37*
G36*
X211814610Y-65983143D02*
G01*
X211835229Y-65989398D01*
X211854225Y-65999551D01*
X211870880Y-66013219D01*
X211884548Y-66029874D01*
X211894701Y-66048870D01*
X211900956Y-66069489D01*
X211903672Y-66097067D01*
X211903672Y-66605787D01*
X211900956Y-66633365D01*
X211894701Y-66653984D01*
X211884548Y-66672980D01*
X211870880Y-66689635D01*
X211854225Y-66703303D01*
X211835229Y-66713456D01*
X211814610Y-66719711D01*
X211787032Y-66722427D01*
X211328312Y-66722427D01*
X211300734Y-66719711D01*
X211280115Y-66713456D01*
X211261119Y-66703303D01*
X211244464Y-66689635D01*
X211230796Y-66672980D01*
X211220643Y-66653984D01*
X211214388Y-66633365D01*
X211211672Y-66605787D01*
X211211672Y-66097067D01*
X211214388Y-66069489D01*
X211220643Y-66048870D01*
X211230796Y-66029874D01*
X211244464Y-66013219D01*
X211261119Y-65999551D01*
X211280115Y-65989398D01*
X211300734Y-65983143D01*
X211328312Y-65980427D01*
X211787032Y-65980427D01*
X211814610Y-65983143D01*
G37*
G36*
X216848610Y-64522643D02*
G01*
X216869229Y-64528898D01*
X216888225Y-64539051D01*
X216904880Y-64552719D01*
X216918548Y-64569374D01*
X216928701Y-64588370D01*
X216934956Y-64608989D01*
X216937672Y-64636567D01*
X216937672Y-65145287D01*
X216934956Y-65172865D01*
X216928701Y-65193484D01*
X216918548Y-65212480D01*
X216904880Y-65229135D01*
X216888225Y-65242803D01*
X216869229Y-65252956D01*
X216848610Y-65259211D01*
X216821032Y-65261927D01*
X216362312Y-65261927D01*
X216334734Y-65259211D01*
X216314115Y-65252956D01*
X216295119Y-65242803D01*
X216278464Y-65229135D01*
X216264796Y-65212480D01*
X216254643Y-65193484D01*
X216248388Y-65172865D01*
X216245672Y-65145287D01*
X216245672Y-64636567D01*
X216248388Y-64608989D01*
X216254643Y-64588370D01*
X216264796Y-64569374D01*
X216278464Y-64552719D01*
X216295119Y-64539051D01*
X216314115Y-64528898D01*
X216334734Y-64522643D01*
X216362312Y-64519927D01*
X216821032Y-64519927D01*
X216848610Y-64522643D01*
G37*
G36*
X215878610Y-64522643D02*
G01*
X215899229Y-64528898D01*
X215918225Y-64539051D01*
X215934880Y-64552719D01*
X215948548Y-64569374D01*
X215958701Y-64588370D01*
X215964956Y-64608989D01*
X215967672Y-64636567D01*
X215967672Y-65145287D01*
X215964956Y-65172865D01*
X215958701Y-65193484D01*
X215948548Y-65212480D01*
X215934880Y-65229135D01*
X215918225Y-65242803D01*
X215899229Y-65252956D01*
X215878610Y-65259211D01*
X215851032Y-65261927D01*
X215392312Y-65261927D01*
X215364734Y-65259211D01*
X215344115Y-65252956D01*
X215325119Y-65242803D01*
X215308464Y-65229135D01*
X215294796Y-65212480D01*
X215284643Y-65193484D01*
X215278388Y-65172865D01*
X215275672Y-65145287D01*
X215275672Y-64636567D01*
X215278388Y-64608989D01*
X215284643Y-64588370D01*
X215294796Y-64569374D01*
X215308464Y-64552719D01*
X215325119Y-64539051D01*
X215344115Y-64528898D01*
X215364734Y-64522643D01*
X215392312Y-64519927D01*
X215851032Y-64519927D01*
X215878610Y-64522643D01*
G37*
G36*
X214816610Y-64522643D02*
G01*
X214837229Y-64528898D01*
X214856225Y-64539051D01*
X214872880Y-64552719D01*
X214886548Y-64569374D01*
X214896701Y-64588370D01*
X214902956Y-64608989D01*
X214905672Y-64636567D01*
X214905672Y-65145287D01*
X214902956Y-65172865D01*
X214896701Y-65193484D01*
X214886548Y-65212480D01*
X214872880Y-65229135D01*
X214856225Y-65242803D01*
X214837229Y-65252956D01*
X214816610Y-65259211D01*
X214789032Y-65261927D01*
X214330312Y-65261927D01*
X214302734Y-65259211D01*
X214282115Y-65252956D01*
X214263119Y-65242803D01*
X214246464Y-65229135D01*
X214232796Y-65212480D01*
X214222643Y-65193484D01*
X214216388Y-65172865D01*
X214213672Y-65145287D01*
X214213672Y-64636567D01*
X214216388Y-64608989D01*
X214222643Y-64588370D01*
X214232796Y-64569374D01*
X214246464Y-64552719D01*
X214263119Y-64539051D01*
X214282115Y-64528898D01*
X214302734Y-64522643D01*
X214330312Y-64519927D01*
X214789032Y-64519927D01*
X214816610Y-64522643D01*
G37*
G36*
X213846610Y-64522643D02*
G01*
X213867229Y-64528898D01*
X213886225Y-64539051D01*
X213902880Y-64552719D01*
X213916548Y-64569374D01*
X213926701Y-64588370D01*
X213932956Y-64608989D01*
X213935672Y-64636567D01*
X213935672Y-65145287D01*
X213932956Y-65172865D01*
X213926701Y-65193484D01*
X213916548Y-65212480D01*
X213902880Y-65229135D01*
X213886225Y-65242803D01*
X213867229Y-65252956D01*
X213846610Y-65259211D01*
X213819032Y-65261927D01*
X213360312Y-65261927D01*
X213332734Y-65259211D01*
X213312115Y-65252956D01*
X213293119Y-65242803D01*
X213276464Y-65229135D01*
X213262796Y-65212480D01*
X213252643Y-65193484D01*
X213246388Y-65172865D01*
X213243672Y-65145287D01*
X213243672Y-64636567D01*
X213246388Y-64608989D01*
X213252643Y-64588370D01*
X213262796Y-64569374D01*
X213276464Y-64552719D01*
X213293119Y-64539051D01*
X213312115Y-64528898D01*
X213332734Y-64522643D01*
X213360312Y-64519927D01*
X213819032Y-64519927D01*
X213846610Y-64522643D01*
G37*
G36*
X211814610Y-64522643D02*
G01*
X211835229Y-64528898D01*
X211854225Y-64539051D01*
X211870880Y-64552719D01*
X211884548Y-64569374D01*
X211894701Y-64588370D01*
X211900956Y-64608989D01*
X211903672Y-64636567D01*
X211903672Y-65145287D01*
X211900956Y-65172865D01*
X211894701Y-65193484D01*
X211884548Y-65212480D01*
X211870880Y-65229135D01*
X211854225Y-65242803D01*
X211835229Y-65252956D01*
X211814610Y-65259211D01*
X211787032Y-65261927D01*
X211328312Y-65261927D01*
X211300734Y-65259211D01*
X211280115Y-65252956D01*
X211261119Y-65242803D01*
X211244464Y-65229135D01*
X211230796Y-65212480D01*
X211220643Y-65193484D01*
X211214388Y-65172865D01*
X211211672Y-65145287D01*
X211211672Y-64636567D01*
X211214388Y-64608989D01*
X211220643Y-64588370D01*
X211230796Y-64569374D01*
X211244464Y-64552719D01*
X211261119Y-64539051D01*
X211280115Y-64528898D01*
X211300734Y-64522643D01*
X211328312Y-64519927D01*
X211787032Y-64519927D01*
X211814610Y-64522643D01*
G37*
G36*
X212784610Y-64522643D02*
G01*
X212805229Y-64528898D01*
X212824225Y-64539051D01*
X212840880Y-64552719D01*
X212854548Y-64569374D01*
X212864701Y-64588370D01*
X212870956Y-64608989D01*
X212873672Y-64636567D01*
X212873672Y-65145287D01*
X212870956Y-65172865D01*
X212864701Y-65193484D01*
X212854548Y-65212480D01*
X212840880Y-65229135D01*
X212824225Y-65242803D01*
X212805229Y-65252956D01*
X212784610Y-65259211D01*
X212757032Y-65261927D01*
X212298312Y-65261927D01*
X212270734Y-65259211D01*
X212250115Y-65252956D01*
X212231119Y-65242803D01*
X212214464Y-65229135D01*
X212200796Y-65212480D01*
X212190643Y-65193484D01*
X212184388Y-65172865D01*
X212181672Y-65145287D01*
X212181672Y-64636567D01*
X212184388Y-64608989D01*
X212190643Y-64588370D01*
X212200796Y-64569374D01*
X212214464Y-64552719D01*
X212231119Y-64539051D01*
X212250115Y-64528898D01*
X212270734Y-64522643D01*
X212298312Y-64519927D01*
X212757032Y-64519927D01*
X212784610Y-64522643D01*
G37*
M02*
