G04 #@! TF.GenerationSoftware,KiCad,Pcbnew,(5.1.5-0-10_14)*
G04 #@! TF.CreationDate,2020-01-23T10:54:37-08:00*
G04 #@! TF.ProjectId,AndyCabinets,416e6479-4361-4626-996e-6574732e6b69,rev?*
G04 #@! TF.SameCoordinates,Original*
G04 #@! TF.FileFunction,Paste,Top*
G04 #@! TF.FilePolarity,Positive*
%FSLAX46Y46*%
G04 Gerber Fmt 4.6, Leading zero omitted, Abs format (unit mm)*
G04 Created by KiCad (PCBNEW (5.1.5-0-10_14)) date 2020-01-23 10:54:37*
%MOMM*%
%LPD*%
G04 APERTURE LIST*
%ADD10O,2.000000X4.000000*%
%ADD11C,0.050000*%
%ADD12R,0.850000X1.600000*%
%ADD13R,1.600000X0.850000*%
G04 APERTURE END LIST*
D10*
X185185800Y-130665429D03*
X190185800Y-130665429D03*
D11*
G36*
X201377957Y-88159505D02*
G01*
X200592659Y-87834224D01*
X201204953Y-86356017D01*
X201990251Y-86681298D01*
X201377957Y-88159505D01*
G37*
G36*
X202994747Y-88829201D02*
G01*
X202209449Y-88503920D01*
X202821743Y-87025713D01*
X203607041Y-87350994D01*
X202994747Y-88829201D01*
G37*
G36*
X202717349Y-84925927D02*
G01*
X201932051Y-84600646D01*
X202544345Y-83122439D01*
X203329643Y-83447720D01*
X202717349Y-84925927D01*
G37*
G36*
X204334139Y-85595623D02*
G01*
X203548841Y-85270342D01*
X204161135Y-83792135D01*
X204946433Y-84117416D01*
X204334139Y-85595623D01*
G37*
G36*
X193389797Y-88455660D02*
G01*
X192604499Y-88780941D01*
X191992205Y-87302734D01*
X192777503Y-86977453D01*
X193389797Y-88455660D01*
G37*
G36*
X195006587Y-87785964D02*
G01*
X194221289Y-88111245D01*
X193608995Y-86633038D01*
X194394293Y-86307757D01*
X195006587Y-87785964D01*
G37*
G36*
X192050405Y-85222082D02*
G01*
X191265107Y-85547363D01*
X190652813Y-84069156D01*
X191438111Y-83743875D01*
X192050405Y-85222082D01*
G37*
G36*
X193667195Y-84552386D02*
G01*
X192881897Y-84877667D01*
X192269603Y-83399460D01*
X193054901Y-83074179D01*
X193667195Y-84552386D01*
G37*
G36*
X204761358Y-77506310D02*
G01*
X204775676Y-77508434D01*
X204789717Y-77511951D01*
X204803346Y-77516828D01*
X204816431Y-77523017D01*
X204828847Y-77530458D01*
X204840473Y-77539081D01*
X204851198Y-77548802D01*
X204860919Y-77559527D01*
X204869542Y-77571153D01*
X204876983Y-77583569D01*
X204883172Y-77596654D01*
X204888049Y-77610283D01*
X204891566Y-77624324D01*
X204893690Y-77638642D01*
X204894400Y-77653100D01*
X204894400Y-77998100D01*
X204893690Y-78012558D01*
X204891566Y-78026876D01*
X204888049Y-78040917D01*
X204883172Y-78054546D01*
X204876983Y-78067631D01*
X204869542Y-78080047D01*
X204860919Y-78091673D01*
X204851198Y-78102398D01*
X204840473Y-78112119D01*
X204828847Y-78120742D01*
X204816431Y-78128183D01*
X204803346Y-78134372D01*
X204789717Y-78139249D01*
X204775676Y-78142766D01*
X204761358Y-78144890D01*
X204746900Y-78145600D01*
X204451900Y-78145600D01*
X204437442Y-78144890D01*
X204423124Y-78142766D01*
X204409083Y-78139249D01*
X204395454Y-78134372D01*
X204382369Y-78128183D01*
X204369953Y-78120742D01*
X204358327Y-78112119D01*
X204347602Y-78102398D01*
X204337881Y-78091673D01*
X204329258Y-78080047D01*
X204321817Y-78067631D01*
X204315628Y-78054546D01*
X204310751Y-78040917D01*
X204307234Y-78026876D01*
X204305110Y-78012558D01*
X204304400Y-77998100D01*
X204304400Y-77653100D01*
X204305110Y-77638642D01*
X204307234Y-77624324D01*
X204310751Y-77610283D01*
X204315628Y-77596654D01*
X204321817Y-77583569D01*
X204329258Y-77571153D01*
X204337881Y-77559527D01*
X204347602Y-77548802D01*
X204358327Y-77539081D01*
X204369953Y-77530458D01*
X204382369Y-77523017D01*
X204395454Y-77516828D01*
X204409083Y-77511951D01*
X204423124Y-77508434D01*
X204437442Y-77506310D01*
X204451900Y-77505600D01*
X204746900Y-77505600D01*
X204761358Y-77506310D01*
G37*
G36*
X203791358Y-77506310D02*
G01*
X203805676Y-77508434D01*
X203819717Y-77511951D01*
X203833346Y-77516828D01*
X203846431Y-77523017D01*
X203858847Y-77530458D01*
X203870473Y-77539081D01*
X203881198Y-77548802D01*
X203890919Y-77559527D01*
X203899542Y-77571153D01*
X203906983Y-77583569D01*
X203913172Y-77596654D01*
X203918049Y-77610283D01*
X203921566Y-77624324D01*
X203923690Y-77638642D01*
X203924400Y-77653100D01*
X203924400Y-77998100D01*
X203923690Y-78012558D01*
X203921566Y-78026876D01*
X203918049Y-78040917D01*
X203913172Y-78054546D01*
X203906983Y-78067631D01*
X203899542Y-78080047D01*
X203890919Y-78091673D01*
X203881198Y-78102398D01*
X203870473Y-78112119D01*
X203858847Y-78120742D01*
X203846431Y-78128183D01*
X203833346Y-78134372D01*
X203819717Y-78139249D01*
X203805676Y-78142766D01*
X203791358Y-78144890D01*
X203776900Y-78145600D01*
X203481900Y-78145600D01*
X203467442Y-78144890D01*
X203453124Y-78142766D01*
X203439083Y-78139249D01*
X203425454Y-78134372D01*
X203412369Y-78128183D01*
X203399953Y-78120742D01*
X203388327Y-78112119D01*
X203377602Y-78102398D01*
X203367881Y-78091673D01*
X203359258Y-78080047D01*
X203351817Y-78067631D01*
X203345628Y-78054546D01*
X203340751Y-78040917D01*
X203337234Y-78026876D01*
X203335110Y-78012558D01*
X203334400Y-77998100D01*
X203334400Y-77653100D01*
X203335110Y-77638642D01*
X203337234Y-77624324D01*
X203340751Y-77610283D01*
X203345628Y-77596654D01*
X203351817Y-77583569D01*
X203359258Y-77571153D01*
X203367881Y-77559527D01*
X203377602Y-77548802D01*
X203388327Y-77539081D01*
X203399953Y-77530458D01*
X203412369Y-77523017D01*
X203425454Y-77516828D01*
X203439083Y-77511951D01*
X203453124Y-77508434D01*
X203467442Y-77506310D01*
X203481900Y-77505600D01*
X203776900Y-77505600D01*
X203791358Y-77506310D01*
G37*
G36*
X209508358Y-110574310D02*
G01*
X209522676Y-110576434D01*
X209536717Y-110579951D01*
X209550346Y-110584828D01*
X209563431Y-110591017D01*
X209575847Y-110598458D01*
X209587473Y-110607081D01*
X209598198Y-110616802D01*
X209607919Y-110627527D01*
X209616542Y-110639153D01*
X209623983Y-110651569D01*
X209630172Y-110664654D01*
X209635049Y-110678283D01*
X209638566Y-110692324D01*
X209640690Y-110706642D01*
X209641400Y-110721100D01*
X209641400Y-111016100D01*
X209640690Y-111030558D01*
X209638566Y-111044876D01*
X209635049Y-111058917D01*
X209630172Y-111072546D01*
X209623983Y-111085631D01*
X209616542Y-111098047D01*
X209607919Y-111109673D01*
X209598198Y-111120398D01*
X209587473Y-111130119D01*
X209575847Y-111138742D01*
X209563431Y-111146183D01*
X209550346Y-111152372D01*
X209536717Y-111157249D01*
X209522676Y-111160766D01*
X209508358Y-111162890D01*
X209493900Y-111163600D01*
X209148900Y-111163600D01*
X209134442Y-111162890D01*
X209120124Y-111160766D01*
X209106083Y-111157249D01*
X209092454Y-111152372D01*
X209079369Y-111146183D01*
X209066953Y-111138742D01*
X209055327Y-111130119D01*
X209044602Y-111120398D01*
X209034881Y-111109673D01*
X209026258Y-111098047D01*
X209018817Y-111085631D01*
X209012628Y-111072546D01*
X209007751Y-111058917D01*
X209004234Y-111044876D01*
X209002110Y-111030558D01*
X209001400Y-111016100D01*
X209001400Y-110721100D01*
X209002110Y-110706642D01*
X209004234Y-110692324D01*
X209007751Y-110678283D01*
X209012628Y-110664654D01*
X209018817Y-110651569D01*
X209026258Y-110639153D01*
X209034881Y-110627527D01*
X209044602Y-110616802D01*
X209055327Y-110607081D01*
X209066953Y-110598458D01*
X209079369Y-110591017D01*
X209092454Y-110584828D01*
X209106083Y-110579951D01*
X209120124Y-110576434D01*
X209134442Y-110574310D01*
X209148900Y-110573600D01*
X209493900Y-110573600D01*
X209508358Y-110574310D01*
G37*
G36*
X209508358Y-111544310D02*
G01*
X209522676Y-111546434D01*
X209536717Y-111549951D01*
X209550346Y-111554828D01*
X209563431Y-111561017D01*
X209575847Y-111568458D01*
X209587473Y-111577081D01*
X209598198Y-111586802D01*
X209607919Y-111597527D01*
X209616542Y-111609153D01*
X209623983Y-111621569D01*
X209630172Y-111634654D01*
X209635049Y-111648283D01*
X209638566Y-111662324D01*
X209640690Y-111676642D01*
X209641400Y-111691100D01*
X209641400Y-111986100D01*
X209640690Y-112000558D01*
X209638566Y-112014876D01*
X209635049Y-112028917D01*
X209630172Y-112042546D01*
X209623983Y-112055631D01*
X209616542Y-112068047D01*
X209607919Y-112079673D01*
X209598198Y-112090398D01*
X209587473Y-112100119D01*
X209575847Y-112108742D01*
X209563431Y-112116183D01*
X209550346Y-112122372D01*
X209536717Y-112127249D01*
X209522676Y-112130766D01*
X209508358Y-112132890D01*
X209493900Y-112133600D01*
X209148900Y-112133600D01*
X209134442Y-112132890D01*
X209120124Y-112130766D01*
X209106083Y-112127249D01*
X209092454Y-112122372D01*
X209079369Y-112116183D01*
X209066953Y-112108742D01*
X209055327Y-112100119D01*
X209044602Y-112090398D01*
X209034881Y-112079673D01*
X209026258Y-112068047D01*
X209018817Y-112055631D01*
X209012628Y-112042546D01*
X209007751Y-112028917D01*
X209004234Y-112014876D01*
X209002110Y-112000558D01*
X209001400Y-111986100D01*
X209001400Y-111691100D01*
X209002110Y-111676642D01*
X209004234Y-111662324D01*
X209007751Y-111648283D01*
X209012628Y-111634654D01*
X209018817Y-111621569D01*
X209026258Y-111609153D01*
X209034881Y-111597527D01*
X209044602Y-111586802D01*
X209055327Y-111577081D01*
X209066953Y-111568458D01*
X209079369Y-111561017D01*
X209092454Y-111554828D01*
X209106083Y-111549951D01*
X209120124Y-111546434D01*
X209134442Y-111544310D01*
X209148900Y-111543600D01*
X209493900Y-111543600D01*
X209508358Y-111544310D01*
G37*
G36*
X203791358Y-78674710D02*
G01*
X203805676Y-78676834D01*
X203819717Y-78680351D01*
X203833346Y-78685228D01*
X203846431Y-78691417D01*
X203858847Y-78698858D01*
X203870473Y-78707481D01*
X203881198Y-78717202D01*
X203890919Y-78727927D01*
X203899542Y-78739553D01*
X203906983Y-78751969D01*
X203913172Y-78765054D01*
X203918049Y-78778683D01*
X203921566Y-78792724D01*
X203923690Y-78807042D01*
X203924400Y-78821500D01*
X203924400Y-79166500D01*
X203923690Y-79180958D01*
X203921566Y-79195276D01*
X203918049Y-79209317D01*
X203913172Y-79222946D01*
X203906983Y-79236031D01*
X203899542Y-79248447D01*
X203890919Y-79260073D01*
X203881198Y-79270798D01*
X203870473Y-79280519D01*
X203858847Y-79289142D01*
X203846431Y-79296583D01*
X203833346Y-79302772D01*
X203819717Y-79307649D01*
X203805676Y-79311166D01*
X203791358Y-79313290D01*
X203776900Y-79314000D01*
X203481900Y-79314000D01*
X203467442Y-79313290D01*
X203453124Y-79311166D01*
X203439083Y-79307649D01*
X203425454Y-79302772D01*
X203412369Y-79296583D01*
X203399953Y-79289142D01*
X203388327Y-79280519D01*
X203377602Y-79270798D01*
X203367881Y-79260073D01*
X203359258Y-79248447D01*
X203351817Y-79236031D01*
X203345628Y-79222946D01*
X203340751Y-79209317D01*
X203337234Y-79195276D01*
X203335110Y-79180958D01*
X203334400Y-79166500D01*
X203334400Y-78821500D01*
X203335110Y-78807042D01*
X203337234Y-78792724D01*
X203340751Y-78778683D01*
X203345628Y-78765054D01*
X203351817Y-78751969D01*
X203359258Y-78739553D01*
X203367881Y-78727927D01*
X203377602Y-78717202D01*
X203388327Y-78707481D01*
X203399953Y-78698858D01*
X203412369Y-78691417D01*
X203425454Y-78685228D01*
X203439083Y-78680351D01*
X203453124Y-78676834D01*
X203467442Y-78674710D01*
X203481900Y-78674000D01*
X203776900Y-78674000D01*
X203791358Y-78674710D01*
G37*
G36*
X204761358Y-78674710D02*
G01*
X204775676Y-78676834D01*
X204789717Y-78680351D01*
X204803346Y-78685228D01*
X204816431Y-78691417D01*
X204828847Y-78698858D01*
X204840473Y-78707481D01*
X204851198Y-78717202D01*
X204860919Y-78727927D01*
X204869542Y-78739553D01*
X204876983Y-78751969D01*
X204883172Y-78765054D01*
X204888049Y-78778683D01*
X204891566Y-78792724D01*
X204893690Y-78807042D01*
X204894400Y-78821500D01*
X204894400Y-79166500D01*
X204893690Y-79180958D01*
X204891566Y-79195276D01*
X204888049Y-79209317D01*
X204883172Y-79222946D01*
X204876983Y-79236031D01*
X204869542Y-79248447D01*
X204860919Y-79260073D01*
X204851198Y-79270798D01*
X204840473Y-79280519D01*
X204828847Y-79289142D01*
X204816431Y-79296583D01*
X204803346Y-79302772D01*
X204789717Y-79307649D01*
X204775676Y-79311166D01*
X204761358Y-79313290D01*
X204746900Y-79314000D01*
X204451900Y-79314000D01*
X204437442Y-79313290D01*
X204423124Y-79311166D01*
X204409083Y-79307649D01*
X204395454Y-79302772D01*
X204382369Y-79296583D01*
X204369953Y-79289142D01*
X204358327Y-79280519D01*
X204347602Y-79270798D01*
X204337881Y-79260073D01*
X204329258Y-79248447D01*
X204321817Y-79236031D01*
X204315628Y-79222946D01*
X204310751Y-79209317D01*
X204307234Y-79195276D01*
X204305110Y-79180958D01*
X204304400Y-79166500D01*
X204304400Y-78821500D01*
X204305110Y-78807042D01*
X204307234Y-78792724D01*
X204310751Y-78778683D01*
X204315628Y-78765054D01*
X204321817Y-78751969D01*
X204329258Y-78739553D01*
X204337881Y-78727927D01*
X204347602Y-78717202D01*
X204358327Y-78707481D01*
X204369953Y-78698858D01*
X204382369Y-78691417D01*
X204395454Y-78685228D01*
X204409083Y-78680351D01*
X204423124Y-78676834D01*
X204437442Y-78674710D01*
X204451900Y-78674000D01*
X204746900Y-78674000D01*
X204761358Y-78674710D01*
G37*
G36*
X210651358Y-111544310D02*
G01*
X210665676Y-111546434D01*
X210679717Y-111549951D01*
X210693346Y-111554828D01*
X210706431Y-111561017D01*
X210718847Y-111568458D01*
X210730473Y-111577081D01*
X210741198Y-111586802D01*
X210750919Y-111597527D01*
X210759542Y-111609153D01*
X210766983Y-111621569D01*
X210773172Y-111634654D01*
X210778049Y-111648283D01*
X210781566Y-111662324D01*
X210783690Y-111676642D01*
X210784400Y-111691100D01*
X210784400Y-111986100D01*
X210783690Y-112000558D01*
X210781566Y-112014876D01*
X210778049Y-112028917D01*
X210773172Y-112042546D01*
X210766983Y-112055631D01*
X210759542Y-112068047D01*
X210750919Y-112079673D01*
X210741198Y-112090398D01*
X210730473Y-112100119D01*
X210718847Y-112108742D01*
X210706431Y-112116183D01*
X210693346Y-112122372D01*
X210679717Y-112127249D01*
X210665676Y-112130766D01*
X210651358Y-112132890D01*
X210636900Y-112133600D01*
X210291900Y-112133600D01*
X210277442Y-112132890D01*
X210263124Y-112130766D01*
X210249083Y-112127249D01*
X210235454Y-112122372D01*
X210222369Y-112116183D01*
X210209953Y-112108742D01*
X210198327Y-112100119D01*
X210187602Y-112090398D01*
X210177881Y-112079673D01*
X210169258Y-112068047D01*
X210161817Y-112055631D01*
X210155628Y-112042546D01*
X210150751Y-112028917D01*
X210147234Y-112014876D01*
X210145110Y-112000558D01*
X210144400Y-111986100D01*
X210144400Y-111691100D01*
X210145110Y-111676642D01*
X210147234Y-111662324D01*
X210150751Y-111648283D01*
X210155628Y-111634654D01*
X210161817Y-111621569D01*
X210169258Y-111609153D01*
X210177881Y-111597527D01*
X210187602Y-111586802D01*
X210198327Y-111577081D01*
X210209953Y-111568458D01*
X210222369Y-111561017D01*
X210235454Y-111554828D01*
X210249083Y-111549951D01*
X210263124Y-111546434D01*
X210277442Y-111544310D01*
X210291900Y-111543600D01*
X210636900Y-111543600D01*
X210651358Y-111544310D01*
G37*
G36*
X210651358Y-110574310D02*
G01*
X210665676Y-110576434D01*
X210679717Y-110579951D01*
X210693346Y-110584828D01*
X210706431Y-110591017D01*
X210718847Y-110598458D01*
X210730473Y-110607081D01*
X210741198Y-110616802D01*
X210750919Y-110627527D01*
X210759542Y-110639153D01*
X210766983Y-110651569D01*
X210773172Y-110664654D01*
X210778049Y-110678283D01*
X210781566Y-110692324D01*
X210783690Y-110706642D01*
X210784400Y-110721100D01*
X210784400Y-111016100D01*
X210783690Y-111030558D01*
X210781566Y-111044876D01*
X210778049Y-111058917D01*
X210773172Y-111072546D01*
X210766983Y-111085631D01*
X210759542Y-111098047D01*
X210750919Y-111109673D01*
X210741198Y-111120398D01*
X210730473Y-111130119D01*
X210718847Y-111138742D01*
X210706431Y-111146183D01*
X210693346Y-111152372D01*
X210679717Y-111157249D01*
X210665676Y-111160766D01*
X210651358Y-111162890D01*
X210636900Y-111163600D01*
X210291900Y-111163600D01*
X210277442Y-111162890D01*
X210263124Y-111160766D01*
X210249083Y-111157249D01*
X210235454Y-111152372D01*
X210222369Y-111146183D01*
X210209953Y-111138742D01*
X210198327Y-111130119D01*
X210187602Y-111120398D01*
X210177881Y-111109673D01*
X210169258Y-111098047D01*
X210161817Y-111085631D01*
X210155628Y-111072546D01*
X210150751Y-111058917D01*
X210147234Y-111044876D01*
X210145110Y-111030558D01*
X210144400Y-111016100D01*
X210144400Y-110721100D01*
X210145110Y-110706642D01*
X210147234Y-110692324D01*
X210150751Y-110678283D01*
X210155628Y-110664654D01*
X210161817Y-110651569D01*
X210169258Y-110639153D01*
X210177881Y-110627527D01*
X210187602Y-110616802D01*
X210198327Y-110607081D01*
X210209953Y-110598458D01*
X210222369Y-110591017D01*
X210235454Y-110584828D01*
X210249083Y-110579951D01*
X210263124Y-110576434D01*
X210277442Y-110574310D01*
X210291900Y-110573600D01*
X210636900Y-110573600D01*
X210651358Y-110574310D01*
G37*
G36*
X215581142Y-68897174D02*
G01*
X215604803Y-68900684D01*
X215628007Y-68906496D01*
X215650529Y-68914554D01*
X215672153Y-68924782D01*
X215692670Y-68937079D01*
X215711883Y-68951329D01*
X215729607Y-68967393D01*
X215745671Y-68985117D01*
X215759921Y-69004330D01*
X215772218Y-69024847D01*
X215782446Y-69046471D01*
X215790504Y-69068993D01*
X215796316Y-69092197D01*
X215799826Y-69115858D01*
X215801000Y-69139750D01*
X215801000Y-70052250D01*
X215799826Y-70076142D01*
X215796316Y-70099803D01*
X215790504Y-70123007D01*
X215782446Y-70145529D01*
X215772218Y-70167153D01*
X215759921Y-70187670D01*
X215745671Y-70206883D01*
X215729607Y-70224607D01*
X215711883Y-70240671D01*
X215692670Y-70254921D01*
X215672153Y-70267218D01*
X215650529Y-70277446D01*
X215628007Y-70285504D01*
X215604803Y-70291316D01*
X215581142Y-70294826D01*
X215557250Y-70296000D01*
X215069750Y-70296000D01*
X215045858Y-70294826D01*
X215022197Y-70291316D01*
X214998993Y-70285504D01*
X214976471Y-70277446D01*
X214954847Y-70267218D01*
X214934330Y-70254921D01*
X214915117Y-70240671D01*
X214897393Y-70224607D01*
X214881329Y-70206883D01*
X214867079Y-70187670D01*
X214854782Y-70167153D01*
X214844554Y-70145529D01*
X214836496Y-70123007D01*
X214830684Y-70099803D01*
X214827174Y-70076142D01*
X214826000Y-70052250D01*
X214826000Y-69139750D01*
X214827174Y-69115858D01*
X214830684Y-69092197D01*
X214836496Y-69068993D01*
X214844554Y-69046471D01*
X214854782Y-69024847D01*
X214867079Y-69004330D01*
X214881329Y-68985117D01*
X214897393Y-68967393D01*
X214915117Y-68951329D01*
X214934330Y-68937079D01*
X214954847Y-68924782D01*
X214976471Y-68914554D01*
X214998993Y-68906496D01*
X215022197Y-68900684D01*
X215045858Y-68897174D01*
X215069750Y-68896000D01*
X215557250Y-68896000D01*
X215581142Y-68897174D01*
G37*
G36*
X213706142Y-68897174D02*
G01*
X213729803Y-68900684D01*
X213753007Y-68906496D01*
X213775529Y-68914554D01*
X213797153Y-68924782D01*
X213817670Y-68937079D01*
X213836883Y-68951329D01*
X213854607Y-68967393D01*
X213870671Y-68985117D01*
X213884921Y-69004330D01*
X213897218Y-69024847D01*
X213907446Y-69046471D01*
X213915504Y-69068993D01*
X213921316Y-69092197D01*
X213924826Y-69115858D01*
X213926000Y-69139750D01*
X213926000Y-70052250D01*
X213924826Y-70076142D01*
X213921316Y-70099803D01*
X213915504Y-70123007D01*
X213907446Y-70145529D01*
X213897218Y-70167153D01*
X213884921Y-70187670D01*
X213870671Y-70206883D01*
X213854607Y-70224607D01*
X213836883Y-70240671D01*
X213817670Y-70254921D01*
X213797153Y-70267218D01*
X213775529Y-70277446D01*
X213753007Y-70285504D01*
X213729803Y-70291316D01*
X213706142Y-70294826D01*
X213682250Y-70296000D01*
X213194750Y-70296000D01*
X213170858Y-70294826D01*
X213147197Y-70291316D01*
X213123993Y-70285504D01*
X213101471Y-70277446D01*
X213079847Y-70267218D01*
X213059330Y-70254921D01*
X213040117Y-70240671D01*
X213022393Y-70224607D01*
X213006329Y-70206883D01*
X212992079Y-70187670D01*
X212979782Y-70167153D01*
X212969554Y-70145529D01*
X212961496Y-70123007D01*
X212955684Y-70099803D01*
X212952174Y-70076142D01*
X212951000Y-70052250D01*
X212951000Y-69139750D01*
X212952174Y-69115858D01*
X212955684Y-69092197D01*
X212961496Y-69068993D01*
X212969554Y-69046471D01*
X212979782Y-69024847D01*
X212992079Y-69004330D01*
X213006329Y-68985117D01*
X213022393Y-68967393D01*
X213040117Y-68951329D01*
X213059330Y-68937079D01*
X213079847Y-68924782D01*
X213101471Y-68914554D01*
X213123993Y-68906496D01*
X213147197Y-68900684D01*
X213170858Y-68897174D01*
X213194750Y-68896000D01*
X213682250Y-68896000D01*
X213706142Y-68897174D01*
G37*
G36*
X217710690Y-71355336D02*
G01*
X217725251Y-71357496D01*
X217739530Y-71361073D01*
X217753390Y-71366032D01*
X217766697Y-71372326D01*
X217779323Y-71379894D01*
X217791146Y-71388662D01*
X217802053Y-71398548D01*
X217811939Y-71409455D01*
X217820707Y-71421278D01*
X217828275Y-71433904D01*
X217834569Y-71447211D01*
X217839528Y-71461071D01*
X217843105Y-71475350D01*
X217845265Y-71489911D01*
X217845987Y-71504614D01*
X217845987Y-71804614D01*
X217845265Y-71819317D01*
X217843105Y-71833878D01*
X217839528Y-71848157D01*
X217834569Y-71862017D01*
X217828275Y-71875324D01*
X217820707Y-71887950D01*
X217811939Y-71899773D01*
X217802053Y-71910680D01*
X217791146Y-71920566D01*
X217779323Y-71929334D01*
X217766697Y-71936902D01*
X217753390Y-71943196D01*
X217739530Y-71948155D01*
X217725251Y-71951732D01*
X217710690Y-71953892D01*
X217695987Y-71954614D01*
X216045987Y-71954614D01*
X216031284Y-71953892D01*
X216016723Y-71951732D01*
X216002444Y-71948155D01*
X215988584Y-71943196D01*
X215975277Y-71936902D01*
X215962651Y-71929334D01*
X215950828Y-71920566D01*
X215939921Y-71910680D01*
X215930035Y-71899773D01*
X215921267Y-71887950D01*
X215913699Y-71875324D01*
X215907405Y-71862017D01*
X215902446Y-71848157D01*
X215898869Y-71833878D01*
X215896709Y-71819317D01*
X215895987Y-71804614D01*
X215895987Y-71504614D01*
X215896709Y-71489911D01*
X215898869Y-71475350D01*
X215902446Y-71461071D01*
X215907405Y-71447211D01*
X215913699Y-71433904D01*
X215921267Y-71421278D01*
X215930035Y-71409455D01*
X215939921Y-71398548D01*
X215950828Y-71388662D01*
X215962651Y-71379894D01*
X215975277Y-71372326D01*
X215988584Y-71366032D01*
X216002444Y-71361073D01*
X216016723Y-71357496D01*
X216031284Y-71355336D01*
X216045987Y-71354614D01*
X217695987Y-71354614D01*
X217710690Y-71355336D01*
G37*
G36*
X217710690Y-72625336D02*
G01*
X217725251Y-72627496D01*
X217739530Y-72631073D01*
X217753390Y-72636032D01*
X217766697Y-72642326D01*
X217779323Y-72649894D01*
X217791146Y-72658662D01*
X217802053Y-72668548D01*
X217811939Y-72679455D01*
X217820707Y-72691278D01*
X217828275Y-72703904D01*
X217834569Y-72717211D01*
X217839528Y-72731071D01*
X217843105Y-72745350D01*
X217845265Y-72759911D01*
X217845987Y-72774614D01*
X217845987Y-73074614D01*
X217845265Y-73089317D01*
X217843105Y-73103878D01*
X217839528Y-73118157D01*
X217834569Y-73132017D01*
X217828275Y-73145324D01*
X217820707Y-73157950D01*
X217811939Y-73169773D01*
X217802053Y-73180680D01*
X217791146Y-73190566D01*
X217779323Y-73199334D01*
X217766697Y-73206902D01*
X217753390Y-73213196D01*
X217739530Y-73218155D01*
X217725251Y-73221732D01*
X217710690Y-73223892D01*
X217695987Y-73224614D01*
X216045987Y-73224614D01*
X216031284Y-73223892D01*
X216016723Y-73221732D01*
X216002444Y-73218155D01*
X215988584Y-73213196D01*
X215975277Y-73206902D01*
X215962651Y-73199334D01*
X215950828Y-73190566D01*
X215939921Y-73180680D01*
X215930035Y-73169773D01*
X215921267Y-73157950D01*
X215913699Y-73145324D01*
X215907405Y-73132017D01*
X215902446Y-73118157D01*
X215898869Y-73103878D01*
X215896709Y-73089317D01*
X215895987Y-73074614D01*
X215895987Y-72774614D01*
X215896709Y-72759911D01*
X215898869Y-72745350D01*
X215902446Y-72731071D01*
X215907405Y-72717211D01*
X215913699Y-72703904D01*
X215921267Y-72691278D01*
X215930035Y-72679455D01*
X215939921Y-72668548D01*
X215950828Y-72658662D01*
X215962651Y-72649894D01*
X215975277Y-72642326D01*
X215988584Y-72636032D01*
X216002444Y-72631073D01*
X216016723Y-72627496D01*
X216031284Y-72625336D01*
X216045987Y-72624614D01*
X217695987Y-72624614D01*
X217710690Y-72625336D01*
G37*
G36*
X217710690Y-73895336D02*
G01*
X217725251Y-73897496D01*
X217739530Y-73901073D01*
X217753390Y-73906032D01*
X217766697Y-73912326D01*
X217779323Y-73919894D01*
X217791146Y-73928662D01*
X217802053Y-73938548D01*
X217811939Y-73949455D01*
X217820707Y-73961278D01*
X217828275Y-73973904D01*
X217834569Y-73987211D01*
X217839528Y-74001071D01*
X217843105Y-74015350D01*
X217845265Y-74029911D01*
X217845987Y-74044614D01*
X217845987Y-74344614D01*
X217845265Y-74359317D01*
X217843105Y-74373878D01*
X217839528Y-74388157D01*
X217834569Y-74402017D01*
X217828275Y-74415324D01*
X217820707Y-74427950D01*
X217811939Y-74439773D01*
X217802053Y-74450680D01*
X217791146Y-74460566D01*
X217779323Y-74469334D01*
X217766697Y-74476902D01*
X217753390Y-74483196D01*
X217739530Y-74488155D01*
X217725251Y-74491732D01*
X217710690Y-74493892D01*
X217695987Y-74494614D01*
X216045987Y-74494614D01*
X216031284Y-74493892D01*
X216016723Y-74491732D01*
X216002444Y-74488155D01*
X215988584Y-74483196D01*
X215975277Y-74476902D01*
X215962651Y-74469334D01*
X215950828Y-74460566D01*
X215939921Y-74450680D01*
X215930035Y-74439773D01*
X215921267Y-74427950D01*
X215913699Y-74415324D01*
X215907405Y-74402017D01*
X215902446Y-74388157D01*
X215898869Y-74373878D01*
X215896709Y-74359317D01*
X215895987Y-74344614D01*
X215895987Y-74044614D01*
X215896709Y-74029911D01*
X215898869Y-74015350D01*
X215902446Y-74001071D01*
X215907405Y-73987211D01*
X215913699Y-73973904D01*
X215921267Y-73961278D01*
X215930035Y-73949455D01*
X215939921Y-73938548D01*
X215950828Y-73928662D01*
X215962651Y-73919894D01*
X215975277Y-73912326D01*
X215988584Y-73906032D01*
X216002444Y-73901073D01*
X216016723Y-73897496D01*
X216031284Y-73895336D01*
X216045987Y-73894614D01*
X217695987Y-73894614D01*
X217710690Y-73895336D01*
G37*
G36*
X217710690Y-75165336D02*
G01*
X217725251Y-75167496D01*
X217739530Y-75171073D01*
X217753390Y-75176032D01*
X217766697Y-75182326D01*
X217779323Y-75189894D01*
X217791146Y-75198662D01*
X217802053Y-75208548D01*
X217811939Y-75219455D01*
X217820707Y-75231278D01*
X217828275Y-75243904D01*
X217834569Y-75257211D01*
X217839528Y-75271071D01*
X217843105Y-75285350D01*
X217845265Y-75299911D01*
X217845987Y-75314614D01*
X217845987Y-75614614D01*
X217845265Y-75629317D01*
X217843105Y-75643878D01*
X217839528Y-75658157D01*
X217834569Y-75672017D01*
X217828275Y-75685324D01*
X217820707Y-75697950D01*
X217811939Y-75709773D01*
X217802053Y-75720680D01*
X217791146Y-75730566D01*
X217779323Y-75739334D01*
X217766697Y-75746902D01*
X217753390Y-75753196D01*
X217739530Y-75758155D01*
X217725251Y-75761732D01*
X217710690Y-75763892D01*
X217695987Y-75764614D01*
X216045987Y-75764614D01*
X216031284Y-75763892D01*
X216016723Y-75761732D01*
X216002444Y-75758155D01*
X215988584Y-75753196D01*
X215975277Y-75746902D01*
X215962651Y-75739334D01*
X215950828Y-75730566D01*
X215939921Y-75720680D01*
X215930035Y-75709773D01*
X215921267Y-75697950D01*
X215913699Y-75685324D01*
X215907405Y-75672017D01*
X215902446Y-75658157D01*
X215898869Y-75643878D01*
X215896709Y-75629317D01*
X215895987Y-75614614D01*
X215895987Y-75314614D01*
X215896709Y-75299911D01*
X215898869Y-75285350D01*
X215902446Y-75271071D01*
X215907405Y-75257211D01*
X215913699Y-75243904D01*
X215921267Y-75231278D01*
X215930035Y-75219455D01*
X215939921Y-75208548D01*
X215950828Y-75198662D01*
X215962651Y-75189894D01*
X215975277Y-75182326D01*
X215988584Y-75176032D01*
X216002444Y-75171073D01*
X216016723Y-75167496D01*
X216031284Y-75165336D01*
X216045987Y-75164614D01*
X217695987Y-75164614D01*
X217710690Y-75165336D01*
G37*
G36*
X217710690Y-76435336D02*
G01*
X217725251Y-76437496D01*
X217739530Y-76441073D01*
X217753390Y-76446032D01*
X217766697Y-76452326D01*
X217779323Y-76459894D01*
X217791146Y-76468662D01*
X217802053Y-76478548D01*
X217811939Y-76489455D01*
X217820707Y-76501278D01*
X217828275Y-76513904D01*
X217834569Y-76527211D01*
X217839528Y-76541071D01*
X217843105Y-76555350D01*
X217845265Y-76569911D01*
X217845987Y-76584614D01*
X217845987Y-76884614D01*
X217845265Y-76899317D01*
X217843105Y-76913878D01*
X217839528Y-76928157D01*
X217834569Y-76942017D01*
X217828275Y-76955324D01*
X217820707Y-76967950D01*
X217811939Y-76979773D01*
X217802053Y-76990680D01*
X217791146Y-77000566D01*
X217779323Y-77009334D01*
X217766697Y-77016902D01*
X217753390Y-77023196D01*
X217739530Y-77028155D01*
X217725251Y-77031732D01*
X217710690Y-77033892D01*
X217695987Y-77034614D01*
X216045987Y-77034614D01*
X216031284Y-77033892D01*
X216016723Y-77031732D01*
X216002444Y-77028155D01*
X215988584Y-77023196D01*
X215975277Y-77016902D01*
X215962651Y-77009334D01*
X215950828Y-77000566D01*
X215939921Y-76990680D01*
X215930035Y-76979773D01*
X215921267Y-76967950D01*
X215913699Y-76955324D01*
X215907405Y-76942017D01*
X215902446Y-76928157D01*
X215898869Y-76913878D01*
X215896709Y-76899317D01*
X215895987Y-76884614D01*
X215895987Y-76584614D01*
X215896709Y-76569911D01*
X215898869Y-76555350D01*
X215902446Y-76541071D01*
X215907405Y-76527211D01*
X215913699Y-76513904D01*
X215921267Y-76501278D01*
X215930035Y-76489455D01*
X215939921Y-76478548D01*
X215950828Y-76468662D01*
X215962651Y-76459894D01*
X215975277Y-76452326D01*
X215988584Y-76446032D01*
X216002444Y-76441073D01*
X216016723Y-76437496D01*
X216031284Y-76435336D01*
X216045987Y-76434614D01*
X217695987Y-76434614D01*
X217710690Y-76435336D01*
G37*
G36*
X217710690Y-77705336D02*
G01*
X217725251Y-77707496D01*
X217739530Y-77711073D01*
X217753390Y-77716032D01*
X217766697Y-77722326D01*
X217779323Y-77729894D01*
X217791146Y-77738662D01*
X217802053Y-77748548D01*
X217811939Y-77759455D01*
X217820707Y-77771278D01*
X217828275Y-77783904D01*
X217834569Y-77797211D01*
X217839528Y-77811071D01*
X217843105Y-77825350D01*
X217845265Y-77839911D01*
X217845987Y-77854614D01*
X217845987Y-78154614D01*
X217845265Y-78169317D01*
X217843105Y-78183878D01*
X217839528Y-78198157D01*
X217834569Y-78212017D01*
X217828275Y-78225324D01*
X217820707Y-78237950D01*
X217811939Y-78249773D01*
X217802053Y-78260680D01*
X217791146Y-78270566D01*
X217779323Y-78279334D01*
X217766697Y-78286902D01*
X217753390Y-78293196D01*
X217739530Y-78298155D01*
X217725251Y-78301732D01*
X217710690Y-78303892D01*
X217695987Y-78304614D01*
X216045987Y-78304614D01*
X216031284Y-78303892D01*
X216016723Y-78301732D01*
X216002444Y-78298155D01*
X215988584Y-78293196D01*
X215975277Y-78286902D01*
X215962651Y-78279334D01*
X215950828Y-78270566D01*
X215939921Y-78260680D01*
X215930035Y-78249773D01*
X215921267Y-78237950D01*
X215913699Y-78225324D01*
X215907405Y-78212017D01*
X215902446Y-78198157D01*
X215898869Y-78183878D01*
X215896709Y-78169317D01*
X215895987Y-78154614D01*
X215895987Y-77854614D01*
X215896709Y-77839911D01*
X215898869Y-77825350D01*
X215902446Y-77811071D01*
X215907405Y-77797211D01*
X215913699Y-77783904D01*
X215921267Y-77771278D01*
X215930035Y-77759455D01*
X215939921Y-77748548D01*
X215950828Y-77738662D01*
X215962651Y-77729894D01*
X215975277Y-77722326D01*
X215988584Y-77716032D01*
X216002444Y-77711073D01*
X216016723Y-77707496D01*
X216031284Y-77705336D01*
X216045987Y-77704614D01*
X217695987Y-77704614D01*
X217710690Y-77705336D01*
G37*
G36*
X217710690Y-78975336D02*
G01*
X217725251Y-78977496D01*
X217739530Y-78981073D01*
X217753390Y-78986032D01*
X217766697Y-78992326D01*
X217779323Y-78999894D01*
X217791146Y-79008662D01*
X217802053Y-79018548D01*
X217811939Y-79029455D01*
X217820707Y-79041278D01*
X217828275Y-79053904D01*
X217834569Y-79067211D01*
X217839528Y-79081071D01*
X217843105Y-79095350D01*
X217845265Y-79109911D01*
X217845987Y-79124614D01*
X217845987Y-79424614D01*
X217845265Y-79439317D01*
X217843105Y-79453878D01*
X217839528Y-79468157D01*
X217834569Y-79482017D01*
X217828275Y-79495324D01*
X217820707Y-79507950D01*
X217811939Y-79519773D01*
X217802053Y-79530680D01*
X217791146Y-79540566D01*
X217779323Y-79549334D01*
X217766697Y-79556902D01*
X217753390Y-79563196D01*
X217739530Y-79568155D01*
X217725251Y-79571732D01*
X217710690Y-79573892D01*
X217695987Y-79574614D01*
X216045987Y-79574614D01*
X216031284Y-79573892D01*
X216016723Y-79571732D01*
X216002444Y-79568155D01*
X215988584Y-79563196D01*
X215975277Y-79556902D01*
X215962651Y-79549334D01*
X215950828Y-79540566D01*
X215939921Y-79530680D01*
X215930035Y-79519773D01*
X215921267Y-79507950D01*
X215913699Y-79495324D01*
X215907405Y-79482017D01*
X215902446Y-79468157D01*
X215898869Y-79453878D01*
X215896709Y-79439317D01*
X215895987Y-79424614D01*
X215895987Y-79124614D01*
X215896709Y-79109911D01*
X215898869Y-79095350D01*
X215902446Y-79081071D01*
X215907405Y-79067211D01*
X215913699Y-79053904D01*
X215921267Y-79041278D01*
X215930035Y-79029455D01*
X215939921Y-79018548D01*
X215950828Y-79008662D01*
X215962651Y-78999894D01*
X215975277Y-78992326D01*
X215988584Y-78986032D01*
X216002444Y-78981073D01*
X216016723Y-78977496D01*
X216031284Y-78975336D01*
X216045987Y-78974614D01*
X217695987Y-78974614D01*
X217710690Y-78975336D01*
G37*
G36*
X212760690Y-78975336D02*
G01*
X212775251Y-78977496D01*
X212789530Y-78981073D01*
X212803390Y-78986032D01*
X212816697Y-78992326D01*
X212829323Y-78999894D01*
X212841146Y-79008662D01*
X212852053Y-79018548D01*
X212861939Y-79029455D01*
X212870707Y-79041278D01*
X212878275Y-79053904D01*
X212884569Y-79067211D01*
X212889528Y-79081071D01*
X212893105Y-79095350D01*
X212895265Y-79109911D01*
X212895987Y-79124614D01*
X212895987Y-79424614D01*
X212895265Y-79439317D01*
X212893105Y-79453878D01*
X212889528Y-79468157D01*
X212884569Y-79482017D01*
X212878275Y-79495324D01*
X212870707Y-79507950D01*
X212861939Y-79519773D01*
X212852053Y-79530680D01*
X212841146Y-79540566D01*
X212829323Y-79549334D01*
X212816697Y-79556902D01*
X212803390Y-79563196D01*
X212789530Y-79568155D01*
X212775251Y-79571732D01*
X212760690Y-79573892D01*
X212745987Y-79574614D01*
X211095987Y-79574614D01*
X211081284Y-79573892D01*
X211066723Y-79571732D01*
X211052444Y-79568155D01*
X211038584Y-79563196D01*
X211025277Y-79556902D01*
X211012651Y-79549334D01*
X211000828Y-79540566D01*
X210989921Y-79530680D01*
X210980035Y-79519773D01*
X210971267Y-79507950D01*
X210963699Y-79495324D01*
X210957405Y-79482017D01*
X210952446Y-79468157D01*
X210948869Y-79453878D01*
X210946709Y-79439317D01*
X210945987Y-79424614D01*
X210945987Y-79124614D01*
X210946709Y-79109911D01*
X210948869Y-79095350D01*
X210952446Y-79081071D01*
X210957405Y-79067211D01*
X210963699Y-79053904D01*
X210971267Y-79041278D01*
X210980035Y-79029455D01*
X210989921Y-79018548D01*
X211000828Y-79008662D01*
X211012651Y-78999894D01*
X211025277Y-78992326D01*
X211038584Y-78986032D01*
X211052444Y-78981073D01*
X211066723Y-78977496D01*
X211081284Y-78975336D01*
X211095987Y-78974614D01*
X212745987Y-78974614D01*
X212760690Y-78975336D01*
G37*
G36*
X212760690Y-77705336D02*
G01*
X212775251Y-77707496D01*
X212789530Y-77711073D01*
X212803390Y-77716032D01*
X212816697Y-77722326D01*
X212829323Y-77729894D01*
X212841146Y-77738662D01*
X212852053Y-77748548D01*
X212861939Y-77759455D01*
X212870707Y-77771278D01*
X212878275Y-77783904D01*
X212884569Y-77797211D01*
X212889528Y-77811071D01*
X212893105Y-77825350D01*
X212895265Y-77839911D01*
X212895987Y-77854614D01*
X212895987Y-78154614D01*
X212895265Y-78169317D01*
X212893105Y-78183878D01*
X212889528Y-78198157D01*
X212884569Y-78212017D01*
X212878275Y-78225324D01*
X212870707Y-78237950D01*
X212861939Y-78249773D01*
X212852053Y-78260680D01*
X212841146Y-78270566D01*
X212829323Y-78279334D01*
X212816697Y-78286902D01*
X212803390Y-78293196D01*
X212789530Y-78298155D01*
X212775251Y-78301732D01*
X212760690Y-78303892D01*
X212745987Y-78304614D01*
X211095987Y-78304614D01*
X211081284Y-78303892D01*
X211066723Y-78301732D01*
X211052444Y-78298155D01*
X211038584Y-78293196D01*
X211025277Y-78286902D01*
X211012651Y-78279334D01*
X211000828Y-78270566D01*
X210989921Y-78260680D01*
X210980035Y-78249773D01*
X210971267Y-78237950D01*
X210963699Y-78225324D01*
X210957405Y-78212017D01*
X210952446Y-78198157D01*
X210948869Y-78183878D01*
X210946709Y-78169317D01*
X210945987Y-78154614D01*
X210945987Y-77854614D01*
X210946709Y-77839911D01*
X210948869Y-77825350D01*
X210952446Y-77811071D01*
X210957405Y-77797211D01*
X210963699Y-77783904D01*
X210971267Y-77771278D01*
X210980035Y-77759455D01*
X210989921Y-77748548D01*
X211000828Y-77738662D01*
X211012651Y-77729894D01*
X211025277Y-77722326D01*
X211038584Y-77716032D01*
X211052444Y-77711073D01*
X211066723Y-77707496D01*
X211081284Y-77705336D01*
X211095987Y-77704614D01*
X212745987Y-77704614D01*
X212760690Y-77705336D01*
G37*
G36*
X212760690Y-76435336D02*
G01*
X212775251Y-76437496D01*
X212789530Y-76441073D01*
X212803390Y-76446032D01*
X212816697Y-76452326D01*
X212829323Y-76459894D01*
X212841146Y-76468662D01*
X212852053Y-76478548D01*
X212861939Y-76489455D01*
X212870707Y-76501278D01*
X212878275Y-76513904D01*
X212884569Y-76527211D01*
X212889528Y-76541071D01*
X212893105Y-76555350D01*
X212895265Y-76569911D01*
X212895987Y-76584614D01*
X212895987Y-76884614D01*
X212895265Y-76899317D01*
X212893105Y-76913878D01*
X212889528Y-76928157D01*
X212884569Y-76942017D01*
X212878275Y-76955324D01*
X212870707Y-76967950D01*
X212861939Y-76979773D01*
X212852053Y-76990680D01*
X212841146Y-77000566D01*
X212829323Y-77009334D01*
X212816697Y-77016902D01*
X212803390Y-77023196D01*
X212789530Y-77028155D01*
X212775251Y-77031732D01*
X212760690Y-77033892D01*
X212745987Y-77034614D01*
X211095987Y-77034614D01*
X211081284Y-77033892D01*
X211066723Y-77031732D01*
X211052444Y-77028155D01*
X211038584Y-77023196D01*
X211025277Y-77016902D01*
X211012651Y-77009334D01*
X211000828Y-77000566D01*
X210989921Y-76990680D01*
X210980035Y-76979773D01*
X210971267Y-76967950D01*
X210963699Y-76955324D01*
X210957405Y-76942017D01*
X210952446Y-76928157D01*
X210948869Y-76913878D01*
X210946709Y-76899317D01*
X210945987Y-76884614D01*
X210945987Y-76584614D01*
X210946709Y-76569911D01*
X210948869Y-76555350D01*
X210952446Y-76541071D01*
X210957405Y-76527211D01*
X210963699Y-76513904D01*
X210971267Y-76501278D01*
X210980035Y-76489455D01*
X210989921Y-76478548D01*
X211000828Y-76468662D01*
X211012651Y-76459894D01*
X211025277Y-76452326D01*
X211038584Y-76446032D01*
X211052444Y-76441073D01*
X211066723Y-76437496D01*
X211081284Y-76435336D01*
X211095987Y-76434614D01*
X212745987Y-76434614D01*
X212760690Y-76435336D01*
G37*
G36*
X212760690Y-75165336D02*
G01*
X212775251Y-75167496D01*
X212789530Y-75171073D01*
X212803390Y-75176032D01*
X212816697Y-75182326D01*
X212829323Y-75189894D01*
X212841146Y-75198662D01*
X212852053Y-75208548D01*
X212861939Y-75219455D01*
X212870707Y-75231278D01*
X212878275Y-75243904D01*
X212884569Y-75257211D01*
X212889528Y-75271071D01*
X212893105Y-75285350D01*
X212895265Y-75299911D01*
X212895987Y-75314614D01*
X212895987Y-75614614D01*
X212895265Y-75629317D01*
X212893105Y-75643878D01*
X212889528Y-75658157D01*
X212884569Y-75672017D01*
X212878275Y-75685324D01*
X212870707Y-75697950D01*
X212861939Y-75709773D01*
X212852053Y-75720680D01*
X212841146Y-75730566D01*
X212829323Y-75739334D01*
X212816697Y-75746902D01*
X212803390Y-75753196D01*
X212789530Y-75758155D01*
X212775251Y-75761732D01*
X212760690Y-75763892D01*
X212745987Y-75764614D01*
X211095987Y-75764614D01*
X211081284Y-75763892D01*
X211066723Y-75761732D01*
X211052444Y-75758155D01*
X211038584Y-75753196D01*
X211025277Y-75746902D01*
X211012651Y-75739334D01*
X211000828Y-75730566D01*
X210989921Y-75720680D01*
X210980035Y-75709773D01*
X210971267Y-75697950D01*
X210963699Y-75685324D01*
X210957405Y-75672017D01*
X210952446Y-75658157D01*
X210948869Y-75643878D01*
X210946709Y-75629317D01*
X210945987Y-75614614D01*
X210945987Y-75314614D01*
X210946709Y-75299911D01*
X210948869Y-75285350D01*
X210952446Y-75271071D01*
X210957405Y-75257211D01*
X210963699Y-75243904D01*
X210971267Y-75231278D01*
X210980035Y-75219455D01*
X210989921Y-75208548D01*
X211000828Y-75198662D01*
X211012651Y-75189894D01*
X211025277Y-75182326D01*
X211038584Y-75176032D01*
X211052444Y-75171073D01*
X211066723Y-75167496D01*
X211081284Y-75165336D01*
X211095987Y-75164614D01*
X212745987Y-75164614D01*
X212760690Y-75165336D01*
G37*
G36*
X212760690Y-73895336D02*
G01*
X212775251Y-73897496D01*
X212789530Y-73901073D01*
X212803390Y-73906032D01*
X212816697Y-73912326D01*
X212829323Y-73919894D01*
X212841146Y-73928662D01*
X212852053Y-73938548D01*
X212861939Y-73949455D01*
X212870707Y-73961278D01*
X212878275Y-73973904D01*
X212884569Y-73987211D01*
X212889528Y-74001071D01*
X212893105Y-74015350D01*
X212895265Y-74029911D01*
X212895987Y-74044614D01*
X212895987Y-74344614D01*
X212895265Y-74359317D01*
X212893105Y-74373878D01*
X212889528Y-74388157D01*
X212884569Y-74402017D01*
X212878275Y-74415324D01*
X212870707Y-74427950D01*
X212861939Y-74439773D01*
X212852053Y-74450680D01*
X212841146Y-74460566D01*
X212829323Y-74469334D01*
X212816697Y-74476902D01*
X212803390Y-74483196D01*
X212789530Y-74488155D01*
X212775251Y-74491732D01*
X212760690Y-74493892D01*
X212745987Y-74494614D01*
X211095987Y-74494614D01*
X211081284Y-74493892D01*
X211066723Y-74491732D01*
X211052444Y-74488155D01*
X211038584Y-74483196D01*
X211025277Y-74476902D01*
X211012651Y-74469334D01*
X211000828Y-74460566D01*
X210989921Y-74450680D01*
X210980035Y-74439773D01*
X210971267Y-74427950D01*
X210963699Y-74415324D01*
X210957405Y-74402017D01*
X210952446Y-74388157D01*
X210948869Y-74373878D01*
X210946709Y-74359317D01*
X210945987Y-74344614D01*
X210945987Y-74044614D01*
X210946709Y-74029911D01*
X210948869Y-74015350D01*
X210952446Y-74001071D01*
X210957405Y-73987211D01*
X210963699Y-73973904D01*
X210971267Y-73961278D01*
X210980035Y-73949455D01*
X210989921Y-73938548D01*
X211000828Y-73928662D01*
X211012651Y-73919894D01*
X211025277Y-73912326D01*
X211038584Y-73906032D01*
X211052444Y-73901073D01*
X211066723Y-73897496D01*
X211081284Y-73895336D01*
X211095987Y-73894614D01*
X212745987Y-73894614D01*
X212760690Y-73895336D01*
G37*
G36*
X212760690Y-72625336D02*
G01*
X212775251Y-72627496D01*
X212789530Y-72631073D01*
X212803390Y-72636032D01*
X212816697Y-72642326D01*
X212829323Y-72649894D01*
X212841146Y-72658662D01*
X212852053Y-72668548D01*
X212861939Y-72679455D01*
X212870707Y-72691278D01*
X212878275Y-72703904D01*
X212884569Y-72717211D01*
X212889528Y-72731071D01*
X212893105Y-72745350D01*
X212895265Y-72759911D01*
X212895987Y-72774614D01*
X212895987Y-73074614D01*
X212895265Y-73089317D01*
X212893105Y-73103878D01*
X212889528Y-73118157D01*
X212884569Y-73132017D01*
X212878275Y-73145324D01*
X212870707Y-73157950D01*
X212861939Y-73169773D01*
X212852053Y-73180680D01*
X212841146Y-73190566D01*
X212829323Y-73199334D01*
X212816697Y-73206902D01*
X212803390Y-73213196D01*
X212789530Y-73218155D01*
X212775251Y-73221732D01*
X212760690Y-73223892D01*
X212745987Y-73224614D01*
X211095987Y-73224614D01*
X211081284Y-73223892D01*
X211066723Y-73221732D01*
X211052444Y-73218155D01*
X211038584Y-73213196D01*
X211025277Y-73206902D01*
X211012651Y-73199334D01*
X211000828Y-73190566D01*
X210989921Y-73180680D01*
X210980035Y-73169773D01*
X210971267Y-73157950D01*
X210963699Y-73145324D01*
X210957405Y-73132017D01*
X210952446Y-73118157D01*
X210948869Y-73103878D01*
X210946709Y-73089317D01*
X210945987Y-73074614D01*
X210945987Y-72774614D01*
X210946709Y-72759911D01*
X210948869Y-72745350D01*
X210952446Y-72731071D01*
X210957405Y-72717211D01*
X210963699Y-72703904D01*
X210971267Y-72691278D01*
X210980035Y-72679455D01*
X210989921Y-72668548D01*
X211000828Y-72658662D01*
X211012651Y-72649894D01*
X211025277Y-72642326D01*
X211038584Y-72636032D01*
X211052444Y-72631073D01*
X211066723Y-72627496D01*
X211081284Y-72625336D01*
X211095987Y-72624614D01*
X212745987Y-72624614D01*
X212760690Y-72625336D01*
G37*
G36*
X212760690Y-71355336D02*
G01*
X212775251Y-71357496D01*
X212789530Y-71361073D01*
X212803390Y-71366032D01*
X212816697Y-71372326D01*
X212829323Y-71379894D01*
X212841146Y-71388662D01*
X212852053Y-71398548D01*
X212861939Y-71409455D01*
X212870707Y-71421278D01*
X212878275Y-71433904D01*
X212884569Y-71447211D01*
X212889528Y-71461071D01*
X212893105Y-71475350D01*
X212895265Y-71489911D01*
X212895987Y-71504614D01*
X212895987Y-71804614D01*
X212895265Y-71819317D01*
X212893105Y-71833878D01*
X212889528Y-71848157D01*
X212884569Y-71862017D01*
X212878275Y-71875324D01*
X212870707Y-71887950D01*
X212861939Y-71899773D01*
X212852053Y-71910680D01*
X212841146Y-71920566D01*
X212829323Y-71929334D01*
X212816697Y-71936902D01*
X212803390Y-71943196D01*
X212789530Y-71948155D01*
X212775251Y-71951732D01*
X212760690Y-71953892D01*
X212745987Y-71954614D01*
X211095987Y-71954614D01*
X211081284Y-71953892D01*
X211066723Y-71951732D01*
X211052444Y-71948155D01*
X211038584Y-71943196D01*
X211025277Y-71936902D01*
X211012651Y-71929334D01*
X211000828Y-71920566D01*
X210989921Y-71910680D01*
X210980035Y-71899773D01*
X210971267Y-71887950D01*
X210963699Y-71875324D01*
X210957405Y-71862017D01*
X210952446Y-71848157D01*
X210948869Y-71833878D01*
X210946709Y-71819317D01*
X210945987Y-71804614D01*
X210945987Y-71504614D01*
X210946709Y-71489911D01*
X210948869Y-71475350D01*
X210952446Y-71461071D01*
X210957405Y-71447211D01*
X210963699Y-71433904D01*
X210971267Y-71421278D01*
X210980035Y-71409455D01*
X210989921Y-71398548D01*
X211000828Y-71388662D01*
X211012651Y-71379894D01*
X211025277Y-71372326D01*
X211038584Y-71366032D01*
X211052444Y-71361073D01*
X211066723Y-71357496D01*
X211081284Y-71355336D01*
X211095987Y-71354614D01*
X212745987Y-71354614D01*
X212760690Y-71355336D01*
G37*
G36*
X213751630Y-67492637D02*
G01*
X213765948Y-67494761D01*
X213779989Y-67498278D01*
X213793618Y-67503155D01*
X213806703Y-67509344D01*
X213819119Y-67516785D01*
X213830745Y-67525408D01*
X213841470Y-67535129D01*
X213851191Y-67545854D01*
X213859814Y-67557480D01*
X213867255Y-67569896D01*
X213873444Y-67582981D01*
X213878321Y-67596610D01*
X213881838Y-67610651D01*
X213883962Y-67624969D01*
X213884672Y-67639427D01*
X213884672Y-67984427D01*
X213883962Y-67998885D01*
X213881838Y-68013203D01*
X213878321Y-68027244D01*
X213873444Y-68040873D01*
X213867255Y-68053958D01*
X213859814Y-68066374D01*
X213851191Y-68078000D01*
X213841470Y-68088725D01*
X213830745Y-68098446D01*
X213819119Y-68107069D01*
X213806703Y-68114510D01*
X213793618Y-68120699D01*
X213779989Y-68125576D01*
X213765948Y-68129093D01*
X213751630Y-68131217D01*
X213737172Y-68131927D01*
X213442172Y-68131927D01*
X213427714Y-68131217D01*
X213413396Y-68129093D01*
X213399355Y-68125576D01*
X213385726Y-68120699D01*
X213372641Y-68114510D01*
X213360225Y-68107069D01*
X213348599Y-68098446D01*
X213337874Y-68088725D01*
X213328153Y-68078000D01*
X213319530Y-68066374D01*
X213312089Y-68053958D01*
X213305900Y-68040873D01*
X213301023Y-68027244D01*
X213297506Y-68013203D01*
X213295382Y-67998885D01*
X213294672Y-67984427D01*
X213294672Y-67639427D01*
X213295382Y-67624969D01*
X213297506Y-67610651D01*
X213301023Y-67596610D01*
X213305900Y-67582981D01*
X213312089Y-67569896D01*
X213319530Y-67557480D01*
X213328153Y-67545854D01*
X213337874Y-67535129D01*
X213348599Y-67525408D01*
X213360225Y-67516785D01*
X213372641Y-67509344D01*
X213385726Y-67503155D01*
X213399355Y-67498278D01*
X213413396Y-67494761D01*
X213427714Y-67492637D01*
X213442172Y-67491927D01*
X213737172Y-67491927D01*
X213751630Y-67492637D01*
G37*
G36*
X214721630Y-67492637D02*
G01*
X214735948Y-67494761D01*
X214749989Y-67498278D01*
X214763618Y-67503155D01*
X214776703Y-67509344D01*
X214789119Y-67516785D01*
X214800745Y-67525408D01*
X214811470Y-67535129D01*
X214821191Y-67545854D01*
X214829814Y-67557480D01*
X214837255Y-67569896D01*
X214843444Y-67582981D01*
X214848321Y-67596610D01*
X214851838Y-67610651D01*
X214853962Y-67624969D01*
X214854672Y-67639427D01*
X214854672Y-67984427D01*
X214853962Y-67998885D01*
X214851838Y-68013203D01*
X214848321Y-68027244D01*
X214843444Y-68040873D01*
X214837255Y-68053958D01*
X214829814Y-68066374D01*
X214821191Y-68078000D01*
X214811470Y-68088725D01*
X214800745Y-68098446D01*
X214789119Y-68107069D01*
X214776703Y-68114510D01*
X214763618Y-68120699D01*
X214749989Y-68125576D01*
X214735948Y-68129093D01*
X214721630Y-68131217D01*
X214707172Y-68131927D01*
X214412172Y-68131927D01*
X214397714Y-68131217D01*
X214383396Y-68129093D01*
X214369355Y-68125576D01*
X214355726Y-68120699D01*
X214342641Y-68114510D01*
X214330225Y-68107069D01*
X214318599Y-68098446D01*
X214307874Y-68088725D01*
X214298153Y-68078000D01*
X214289530Y-68066374D01*
X214282089Y-68053958D01*
X214275900Y-68040873D01*
X214271023Y-68027244D01*
X214267506Y-68013203D01*
X214265382Y-67998885D01*
X214264672Y-67984427D01*
X214264672Y-67639427D01*
X214265382Y-67624969D01*
X214267506Y-67610651D01*
X214271023Y-67596610D01*
X214275900Y-67582981D01*
X214282089Y-67569896D01*
X214289530Y-67557480D01*
X214298153Y-67545854D01*
X214307874Y-67535129D01*
X214318599Y-67525408D01*
X214330225Y-67516785D01*
X214342641Y-67509344D01*
X214355726Y-67503155D01*
X214369355Y-67498278D01*
X214383396Y-67494761D01*
X214397714Y-67492637D01*
X214412172Y-67491927D01*
X214707172Y-67491927D01*
X214721630Y-67492637D01*
G37*
G36*
X212689630Y-67492637D02*
G01*
X212703948Y-67494761D01*
X212717989Y-67498278D01*
X212731618Y-67503155D01*
X212744703Y-67509344D01*
X212757119Y-67516785D01*
X212768745Y-67525408D01*
X212779470Y-67535129D01*
X212789191Y-67545854D01*
X212797814Y-67557480D01*
X212805255Y-67569896D01*
X212811444Y-67582981D01*
X212816321Y-67596610D01*
X212819838Y-67610651D01*
X212821962Y-67624969D01*
X212822672Y-67639427D01*
X212822672Y-67984427D01*
X212821962Y-67998885D01*
X212819838Y-68013203D01*
X212816321Y-68027244D01*
X212811444Y-68040873D01*
X212805255Y-68053958D01*
X212797814Y-68066374D01*
X212789191Y-68078000D01*
X212779470Y-68088725D01*
X212768745Y-68098446D01*
X212757119Y-68107069D01*
X212744703Y-68114510D01*
X212731618Y-68120699D01*
X212717989Y-68125576D01*
X212703948Y-68129093D01*
X212689630Y-68131217D01*
X212675172Y-68131927D01*
X212380172Y-68131927D01*
X212365714Y-68131217D01*
X212351396Y-68129093D01*
X212337355Y-68125576D01*
X212323726Y-68120699D01*
X212310641Y-68114510D01*
X212298225Y-68107069D01*
X212286599Y-68098446D01*
X212275874Y-68088725D01*
X212266153Y-68078000D01*
X212257530Y-68066374D01*
X212250089Y-68053958D01*
X212243900Y-68040873D01*
X212239023Y-68027244D01*
X212235506Y-68013203D01*
X212233382Y-67998885D01*
X212232672Y-67984427D01*
X212232672Y-67639427D01*
X212233382Y-67624969D01*
X212235506Y-67610651D01*
X212239023Y-67596610D01*
X212243900Y-67582981D01*
X212250089Y-67569896D01*
X212257530Y-67557480D01*
X212266153Y-67545854D01*
X212275874Y-67535129D01*
X212286599Y-67525408D01*
X212298225Y-67516785D01*
X212310641Y-67509344D01*
X212323726Y-67503155D01*
X212337355Y-67498278D01*
X212351396Y-67494761D01*
X212365714Y-67492637D01*
X212380172Y-67491927D01*
X212675172Y-67491927D01*
X212689630Y-67492637D01*
G37*
G36*
X211719630Y-67492637D02*
G01*
X211733948Y-67494761D01*
X211747989Y-67498278D01*
X211761618Y-67503155D01*
X211774703Y-67509344D01*
X211787119Y-67516785D01*
X211798745Y-67525408D01*
X211809470Y-67535129D01*
X211819191Y-67545854D01*
X211827814Y-67557480D01*
X211835255Y-67569896D01*
X211841444Y-67582981D01*
X211846321Y-67596610D01*
X211849838Y-67610651D01*
X211851962Y-67624969D01*
X211852672Y-67639427D01*
X211852672Y-67984427D01*
X211851962Y-67998885D01*
X211849838Y-68013203D01*
X211846321Y-68027244D01*
X211841444Y-68040873D01*
X211835255Y-68053958D01*
X211827814Y-68066374D01*
X211819191Y-68078000D01*
X211809470Y-68088725D01*
X211798745Y-68098446D01*
X211787119Y-68107069D01*
X211774703Y-68114510D01*
X211761618Y-68120699D01*
X211747989Y-68125576D01*
X211733948Y-68129093D01*
X211719630Y-68131217D01*
X211705172Y-68131927D01*
X211410172Y-68131927D01*
X211395714Y-68131217D01*
X211381396Y-68129093D01*
X211367355Y-68125576D01*
X211353726Y-68120699D01*
X211340641Y-68114510D01*
X211328225Y-68107069D01*
X211316599Y-68098446D01*
X211305874Y-68088725D01*
X211296153Y-68078000D01*
X211287530Y-68066374D01*
X211280089Y-68053958D01*
X211273900Y-68040873D01*
X211269023Y-68027244D01*
X211265506Y-68013203D01*
X211263382Y-67998885D01*
X211262672Y-67984427D01*
X211262672Y-67639427D01*
X211263382Y-67624969D01*
X211265506Y-67610651D01*
X211269023Y-67596610D01*
X211273900Y-67582981D01*
X211280089Y-67569896D01*
X211287530Y-67557480D01*
X211296153Y-67545854D01*
X211305874Y-67535129D01*
X211316599Y-67525408D01*
X211328225Y-67516785D01*
X211340641Y-67509344D01*
X211353726Y-67503155D01*
X211367355Y-67498278D01*
X211381396Y-67494761D01*
X211395714Y-67492637D01*
X211410172Y-67491927D01*
X211705172Y-67491927D01*
X211719630Y-67492637D01*
G37*
G36*
X179676058Y-118140639D02*
G01*
X179690376Y-118142763D01*
X179704417Y-118146280D01*
X179718046Y-118151157D01*
X179731131Y-118157346D01*
X179743547Y-118164787D01*
X179755173Y-118173410D01*
X179765898Y-118183131D01*
X179775619Y-118193856D01*
X179784242Y-118205482D01*
X179791683Y-118217898D01*
X179797872Y-118230983D01*
X179802749Y-118244612D01*
X179806266Y-118258653D01*
X179808390Y-118272971D01*
X179809100Y-118287429D01*
X179809100Y-118582429D01*
X179808390Y-118596887D01*
X179806266Y-118611205D01*
X179802749Y-118625246D01*
X179797872Y-118638875D01*
X179791683Y-118651960D01*
X179784242Y-118664376D01*
X179775619Y-118676002D01*
X179765898Y-118686727D01*
X179755173Y-118696448D01*
X179743547Y-118705071D01*
X179731131Y-118712512D01*
X179718046Y-118718701D01*
X179704417Y-118723578D01*
X179690376Y-118727095D01*
X179676058Y-118729219D01*
X179661600Y-118729929D01*
X179316600Y-118729929D01*
X179302142Y-118729219D01*
X179287824Y-118727095D01*
X179273783Y-118723578D01*
X179260154Y-118718701D01*
X179247069Y-118712512D01*
X179234653Y-118705071D01*
X179223027Y-118696448D01*
X179212302Y-118686727D01*
X179202581Y-118676002D01*
X179193958Y-118664376D01*
X179186517Y-118651960D01*
X179180328Y-118638875D01*
X179175451Y-118625246D01*
X179171934Y-118611205D01*
X179169810Y-118596887D01*
X179169100Y-118582429D01*
X179169100Y-118287429D01*
X179169810Y-118272971D01*
X179171934Y-118258653D01*
X179175451Y-118244612D01*
X179180328Y-118230983D01*
X179186517Y-118217898D01*
X179193958Y-118205482D01*
X179202581Y-118193856D01*
X179212302Y-118183131D01*
X179223027Y-118173410D01*
X179234653Y-118164787D01*
X179247069Y-118157346D01*
X179260154Y-118151157D01*
X179273783Y-118146280D01*
X179287824Y-118142763D01*
X179302142Y-118140639D01*
X179316600Y-118139929D01*
X179661600Y-118139929D01*
X179676058Y-118140639D01*
G37*
G36*
X179676058Y-117170639D02*
G01*
X179690376Y-117172763D01*
X179704417Y-117176280D01*
X179718046Y-117181157D01*
X179731131Y-117187346D01*
X179743547Y-117194787D01*
X179755173Y-117203410D01*
X179765898Y-117213131D01*
X179775619Y-117223856D01*
X179784242Y-117235482D01*
X179791683Y-117247898D01*
X179797872Y-117260983D01*
X179802749Y-117274612D01*
X179806266Y-117288653D01*
X179808390Y-117302971D01*
X179809100Y-117317429D01*
X179809100Y-117612429D01*
X179808390Y-117626887D01*
X179806266Y-117641205D01*
X179802749Y-117655246D01*
X179797872Y-117668875D01*
X179791683Y-117681960D01*
X179784242Y-117694376D01*
X179775619Y-117706002D01*
X179765898Y-117716727D01*
X179755173Y-117726448D01*
X179743547Y-117735071D01*
X179731131Y-117742512D01*
X179718046Y-117748701D01*
X179704417Y-117753578D01*
X179690376Y-117757095D01*
X179676058Y-117759219D01*
X179661600Y-117759929D01*
X179316600Y-117759929D01*
X179302142Y-117759219D01*
X179287824Y-117757095D01*
X179273783Y-117753578D01*
X179260154Y-117748701D01*
X179247069Y-117742512D01*
X179234653Y-117735071D01*
X179223027Y-117726448D01*
X179212302Y-117716727D01*
X179202581Y-117706002D01*
X179193958Y-117694376D01*
X179186517Y-117681960D01*
X179180328Y-117668875D01*
X179175451Y-117655246D01*
X179171934Y-117641205D01*
X179169810Y-117626887D01*
X179169100Y-117612429D01*
X179169100Y-117317429D01*
X179169810Y-117302971D01*
X179171934Y-117288653D01*
X179175451Y-117274612D01*
X179180328Y-117260983D01*
X179186517Y-117247898D01*
X179193958Y-117235482D01*
X179202581Y-117223856D01*
X179212302Y-117213131D01*
X179223027Y-117203410D01*
X179234653Y-117194787D01*
X179247069Y-117187346D01*
X179260154Y-117181157D01*
X179273783Y-117176280D01*
X179287824Y-117172763D01*
X179302142Y-117170639D01*
X179316600Y-117169929D01*
X179661600Y-117169929D01*
X179676058Y-117170639D01*
G37*
G36*
X179676058Y-119202639D02*
G01*
X179690376Y-119204763D01*
X179704417Y-119208280D01*
X179718046Y-119213157D01*
X179731131Y-119219346D01*
X179743547Y-119226787D01*
X179755173Y-119235410D01*
X179765898Y-119245131D01*
X179775619Y-119255856D01*
X179784242Y-119267482D01*
X179791683Y-119279898D01*
X179797872Y-119292983D01*
X179802749Y-119306612D01*
X179806266Y-119320653D01*
X179808390Y-119334971D01*
X179809100Y-119349429D01*
X179809100Y-119644429D01*
X179808390Y-119658887D01*
X179806266Y-119673205D01*
X179802749Y-119687246D01*
X179797872Y-119700875D01*
X179791683Y-119713960D01*
X179784242Y-119726376D01*
X179775619Y-119738002D01*
X179765898Y-119748727D01*
X179755173Y-119758448D01*
X179743547Y-119767071D01*
X179731131Y-119774512D01*
X179718046Y-119780701D01*
X179704417Y-119785578D01*
X179690376Y-119789095D01*
X179676058Y-119791219D01*
X179661600Y-119791929D01*
X179316600Y-119791929D01*
X179302142Y-119791219D01*
X179287824Y-119789095D01*
X179273783Y-119785578D01*
X179260154Y-119780701D01*
X179247069Y-119774512D01*
X179234653Y-119767071D01*
X179223027Y-119758448D01*
X179212302Y-119748727D01*
X179202581Y-119738002D01*
X179193958Y-119726376D01*
X179186517Y-119713960D01*
X179180328Y-119700875D01*
X179175451Y-119687246D01*
X179171934Y-119673205D01*
X179169810Y-119658887D01*
X179169100Y-119644429D01*
X179169100Y-119349429D01*
X179169810Y-119334971D01*
X179171934Y-119320653D01*
X179175451Y-119306612D01*
X179180328Y-119292983D01*
X179186517Y-119279898D01*
X179193958Y-119267482D01*
X179202581Y-119255856D01*
X179212302Y-119245131D01*
X179223027Y-119235410D01*
X179234653Y-119226787D01*
X179247069Y-119219346D01*
X179260154Y-119213157D01*
X179273783Y-119208280D01*
X179287824Y-119204763D01*
X179302142Y-119202639D01*
X179316600Y-119201929D01*
X179661600Y-119201929D01*
X179676058Y-119202639D01*
G37*
G36*
X179676058Y-120172639D02*
G01*
X179690376Y-120174763D01*
X179704417Y-120178280D01*
X179718046Y-120183157D01*
X179731131Y-120189346D01*
X179743547Y-120196787D01*
X179755173Y-120205410D01*
X179765898Y-120215131D01*
X179775619Y-120225856D01*
X179784242Y-120237482D01*
X179791683Y-120249898D01*
X179797872Y-120262983D01*
X179802749Y-120276612D01*
X179806266Y-120290653D01*
X179808390Y-120304971D01*
X179809100Y-120319429D01*
X179809100Y-120614429D01*
X179808390Y-120628887D01*
X179806266Y-120643205D01*
X179802749Y-120657246D01*
X179797872Y-120670875D01*
X179791683Y-120683960D01*
X179784242Y-120696376D01*
X179775619Y-120708002D01*
X179765898Y-120718727D01*
X179755173Y-120728448D01*
X179743547Y-120737071D01*
X179731131Y-120744512D01*
X179718046Y-120750701D01*
X179704417Y-120755578D01*
X179690376Y-120759095D01*
X179676058Y-120761219D01*
X179661600Y-120761929D01*
X179316600Y-120761929D01*
X179302142Y-120761219D01*
X179287824Y-120759095D01*
X179273783Y-120755578D01*
X179260154Y-120750701D01*
X179247069Y-120744512D01*
X179234653Y-120737071D01*
X179223027Y-120728448D01*
X179212302Y-120718727D01*
X179202581Y-120708002D01*
X179193958Y-120696376D01*
X179186517Y-120683960D01*
X179180328Y-120670875D01*
X179175451Y-120657246D01*
X179171934Y-120643205D01*
X179169810Y-120628887D01*
X179169100Y-120614429D01*
X179169100Y-120319429D01*
X179169810Y-120304971D01*
X179171934Y-120290653D01*
X179175451Y-120276612D01*
X179180328Y-120262983D01*
X179186517Y-120249898D01*
X179193958Y-120237482D01*
X179202581Y-120225856D01*
X179212302Y-120215131D01*
X179223027Y-120205410D01*
X179234653Y-120196787D01*
X179247069Y-120189346D01*
X179260154Y-120183157D01*
X179273783Y-120178280D01*
X179287824Y-120174763D01*
X179302142Y-120172639D01*
X179316600Y-120171929D01*
X179661600Y-120171929D01*
X179676058Y-120172639D01*
G37*
G36*
X213751630Y-66032137D02*
G01*
X213765948Y-66034261D01*
X213779989Y-66037778D01*
X213793618Y-66042655D01*
X213806703Y-66048844D01*
X213819119Y-66056285D01*
X213830745Y-66064908D01*
X213841470Y-66074629D01*
X213851191Y-66085354D01*
X213859814Y-66096980D01*
X213867255Y-66109396D01*
X213873444Y-66122481D01*
X213878321Y-66136110D01*
X213881838Y-66150151D01*
X213883962Y-66164469D01*
X213884672Y-66178927D01*
X213884672Y-66523927D01*
X213883962Y-66538385D01*
X213881838Y-66552703D01*
X213878321Y-66566744D01*
X213873444Y-66580373D01*
X213867255Y-66593458D01*
X213859814Y-66605874D01*
X213851191Y-66617500D01*
X213841470Y-66628225D01*
X213830745Y-66637946D01*
X213819119Y-66646569D01*
X213806703Y-66654010D01*
X213793618Y-66660199D01*
X213779989Y-66665076D01*
X213765948Y-66668593D01*
X213751630Y-66670717D01*
X213737172Y-66671427D01*
X213442172Y-66671427D01*
X213427714Y-66670717D01*
X213413396Y-66668593D01*
X213399355Y-66665076D01*
X213385726Y-66660199D01*
X213372641Y-66654010D01*
X213360225Y-66646569D01*
X213348599Y-66637946D01*
X213337874Y-66628225D01*
X213328153Y-66617500D01*
X213319530Y-66605874D01*
X213312089Y-66593458D01*
X213305900Y-66580373D01*
X213301023Y-66566744D01*
X213297506Y-66552703D01*
X213295382Y-66538385D01*
X213294672Y-66523927D01*
X213294672Y-66178927D01*
X213295382Y-66164469D01*
X213297506Y-66150151D01*
X213301023Y-66136110D01*
X213305900Y-66122481D01*
X213312089Y-66109396D01*
X213319530Y-66096980D01*
X213328153Y-66085354D01*
X213337874Y-66074629D01*
X213348599Y-66064908D01*
X213360225Y-66056285D01*
X213372641Y-66048844D01*
X213385726Y-66042655D01*
X213399355Y-66037778D01*
X213413396Y-66034261D01*
X213427714Y-66032137D01*
X213442172Y-66031427D01*
X213737172Y-66031427D01*
X213751630Y-66032137D01*
G37*
G36*
X214721630Y-66032137D02*
G01*
X214735948Y-66034261D01*
X214749989Y-66037778D01*
X214763618Y-66042655D01*
X214776703Y-66048844D01*
X214789119Y-66056285D01*
X214800745Y-66064908D01*
X214811470Y-66074629D01*
X214821191Y-66085354D01*
X214829814Y-66096980D01*
X214837255Y-66109396D01*
X214843444Y-66122481D01*
X214848321Y-66136110D01*
X214851838Y-66150151D01*
X214853962Y-66164469D01*
X214854672Y-66178927D01*
X214854672Y-66523927D01*
X214853962Y-66538385D01*
X214851838Y-66552703D01*
X214848321Y-66566744D01*
X214843444Y-66580373D01*
X214837255Y-66593458D01*
X214829814Y-66605874D01*
X214821191Y-66617500D01*
X214811470Y-66628225D01*
X214800745Y-66637946D01*
X214789119Y-66646569D01*
X214776703Y-66654010D01*
X214763618Y-66660199D01*
X214749989Y-66665076D01*
X214735948Y-66668593D01*
X214721630Y-66670717D01*
X214707172Y-66671427D01*
X214412172Y-66671427D01*
X214397714Y-66670717D01*
X214383396Y-66668593D01*
X214369355Y-66665076D01*
X214355726Y-66660199D01*
X214342641Y-66654010D01*
X214330225Y-66646569D01*
X214318599Y-66637946D01*
X214307874Y-66628225D01*
X214298153Y-66617500D01*
X214289530Y-66605874D01*
X214282089Y-66593458D01*
X214275900Y-66580373D01*
X214271023Y-66566744D01*
X214267506Y-66552703D01*
X214265382Y-66538385D01*
X214264672Y-66523927D01*
X214264672Y-66178927D01*
X214265382Y-66164469D01*
X214267506Y-66150151D01*
X214271023Y-66136110D01*
X214275900Y-66122481D01*
X214282089Y-66109396D01*
X214289530Y-66096980D01*
X214298153Y-66085354D01*
X214307874Y-66074629D01*
X214318599Y-66064908D01*
X214330225Y-66056285D01*
X214342641Y-66048844D01*
X214355726Y-66042655D01*
X214369355Y-66037778D01*
X214383396Y-66034261D01*
X214397714Y-66032137D01*
X214412172Y-66031427D01*
X214707172Y-66031427D01*
X214721630Y-66032137D01*
G37*
G36*
X214721630Y-64571637D02*
G01*
X214735948Y-64573761D01*
X214749989Y-64577278D01*
X214763618Y-64582155D01*
X214776703Y-64588344D01*
X214789119Y-64595785D01*
X214800745Y-64604408D01*
X214811470Y-64614129D01*
X214821191Y-64624854D01*
X214829814Y-64636480D01*
X214837255Y-64648896D01*
X214843444Y-64661981D01*
X214848321Y-64675610D01*
X214851838Y-64689651D01*
X214853962Y-64703969D01*
X214854672Y-64718427D01*
X214854672Y-65063427D01*
X214853962Y-65077885D01*
X214851838Y-65092203D01*
X214848321Y-65106244D01*
X214843444Y-65119873D01*
X214837255Y-65132958D01*
X214829814Y-65145374D01*
X214821191Y-65157000D01*
X214811470Y-65167725D01*
X214800745Y-65177446D01*
X214789119Y-65186069D01*
X214776703Y-65193510D01*
X214763618Y-65199699D01*
X214749989Y-65204576D01*
X214735948Y-65208093D01*
X214721630Y-65210217D01*
X214707172Y-65210927D01*
X214412172Y-65210927D01*
X214397714Y-65210217D01*
X214383396Y-65208093D01*
X214369355Y-65204576D01*
X214355726Y-65199699D01*
X214342641Y-65193510D01*
X214330225Y-65186069D01*
X214318599Y-65177446D01*
X214307874Y-65167725D01*
X214298153Y-65157000D01*
X214289530Y-65145374D01*
X214282089Y-65132958D01*
X214275900Y-65119873D01*
X214271023Y-65106244D01*
X214267506Y-65092203D01*
X214265382Y-65077885D01*
X214264672Y-65063427D01*
X214264672Y-64718427D01*
X214265382Y-64703969D01*
X214267506Y-64689651D01*
X214271023Y-64675610D01*
X214275900Y-64661981D01*
X214282089Y-64648896D01*
X214289530Y-64636480D01*
X214298153Y-64624854D01*
X214307874Y-64614129D01*
X214318599Y-64604408D01*
X214330225Y-64595785D01*
X214342641Y-64588344D01*
X214355726Y-64582155D01*
X214369355Y-64577278D01*
X214383396Y-64573761D01*
X214397714Y-64571637D01*
X214412172Y-64570927D01*
X214707172Y-64570927D01*
X214721630Y-64571637D01*
G37*
G36*
X213751630Y-64571637D02*
G01*
X213765948Y-64573761D01*
X213779989Y-64577278D01*
X213793618Y-64582155D01*
X213806703Y-64588344D01*
X213819119Y-64595785D01*
X213830745Y-64604408D01*
X213841470Y-64614129D01*
X213851191Y-64624854D01*
X213859814Y-64636480D01*
X213867255Y-64648896D01*
X213873444Y-64661981D01*
X213878321Y-64675610D01*
X213881838Y-64689651D01*
X213883962Y-64703969D01*
X213884672Y-64718427D01*
X213884672Y-65063427D01*
X213883962Y-65077885D01*
X213881838Y-65092203D01*
X213878321Y-65106244D01*
X213873444Y-65119873D01*
X213867255Y-65132958D01*
X213859814Y-65145374D01*
X213851191Y-65157000D01*
X213841470Y-65167725D01*
X213830745Y-65177446D01*
X213819119Y-65186069D01*
X213806703Y-65193510D01*
X213793618Y-65199699D01*
X213779989Y-65204576D01*
X213765948Y-65208093D01*
X213751630Y-65210217D01*
X213737172Y-65210927D01*
X213442172Y-65210927D01*
X213427714Y-65210217D01*
X213413396Y-65208093D01*
X213399355Y-65204576D01*
X213385726Y-65199699D01*
X213372641Y-65193510D01*
X213360225Y-65186069D01*
X213348599Y-65177446D01*
X213337874Y-65167725D01*
X213328153Y-65157000D01*
X213319530Y-65145374D01*
X213312089Y-65132958D01*
X213305900Y-65119873D01*
X213301023Y-65106244D01*
X213297506Y-65092203D01*
X213295382Y-65077885D01*
X213294672Y-65063427D01*
X213294672Y-64718427D01*
X213295382Y-64703969D01*
X213297506Y-64689651D01*
X213301023Y-64675610D01*
X213305900Y-64661981D01*
X213312089Y-64648896D01*
X213319530Y-64636480D01*
X213328153Y-64624854D01*
X213337874Y-64614129D01*
X213348599Y-64604408D01*
X213360225Y-64595785D01*
X213372641Y-64588344D01*
X213385726Y-64582155D01*
X213399355Y-64577278D01*
X213413396Y-64573761D01*
X213427714Y-64571637D01*
X213442172Y-64570927D01*
X213737172Y-64570927D01*
X213751630Y-64571637D01*
G37*
G36*
X176310558Y-118140639D02*
G01*
X176324876Y-118142763D01*
X176338917Y-118146280D01*
X176352546Y-118151157D01*
X176365631Y-118157346D01*
X176378047Y-118164787D01*
X176389673Y-118173410D01*
X176400398Y-118183131D01*
X176410119Y-118193856D01*
X176418742Y-118205482D01*
X176426183Y-118217898D01*
X176432372Y-118230983D01*
X176437249Y-118244612D01*
X176440766Y-118258653D01*
X176442890Y-118272971D01*
X176443600Y-118287429D01*
X176443600Y-118582429D01*
X176442890Y-118596887D01*
X176440766Y-118611205D01*
X176437249Y-118625246D01*
X176432372Y-118638875D01*
X176426183Y-118651960D01*
X176418742Y-118664376D01*
X176410119Y-118676002D01*
X176400398Y-118686727D01*
X176389673Y-118696448D01*
X176378047Y-118705071D01*
X176365631Y-118712512D01*
X176352546Y-118718701D01*
X176338917Y-118723578D01*
X176324876Y-118727095D01*
X176310558Y-118729219D01*
X176296100Y-118729929D01*
X175951100Y-118729929D01*
X175936642Y-118729219D01*
X175922324Y-118727095D01*
X175908283Y-118723578D01*
X175894654Y-118718701D01*
X175881569Y-118712512D01*
X175869153Y-118705071D01*
X175857527Y-118696448D01*
X175846802Y-118686727D01*
X175837081Y-118676002D01*
X175828458Y-118664376D01*
X175821017Y-118651960D01*
X175814828Y-118638875D01*
X175809951Y-118625246D01*
X175806434Y-118611205D01*
X175804310Y-118596887D01*
X175803600Y-118582429D01*
X175803600Y-118287429D01*
X175804310Y-118272971D01*
X175806434Y-118258653D01*
X175809951Y-118244612D01*
X175814828Y-118230983D01*
X175821017Y-118217898D01*
X175828458Y-118205482D01*
X175837081Y-118193856D01*
X175846802Y-118183131D01*
X175857527Y-118173410D01*
X175869153Y-118164787D01*
X175881569Y-118157346D01*
X175894654Y-118151157D01*
X175908283Y-118146280D01*
X175922324Y-118142763D01*
X175936642Y-118140639D01*
X175951100Y-118139929D01*
X176296100Y-118139929D01*
X176310558Y-118140639D01*
G37*
G36*
X176310558Y-117170639D02*
G01*
X176324876Y-117172763D01*
X176338917Y-117176280D01*
X176352546Y-117181157D01*
X176365631Y-117187346D01*
X176378047Y-117194787D01*
X176389673Y-117203410D01*
X176400398Y-117213131D01*
X176410119Y-117223856D01*
X176418742Y-117235482D01*
X176426183Y-117247898D01*
X176432372Y-117260983D01*
X176437249Y-117274612D01*
X176440766Y-117288653D01*
X176442890Y-117302971D01*
X176443600Y-117317429D01*
X176443600Y-117612429D01*
X176442890Y-117626887D01*
X176440766Y-117641205D01*
X176437249Y-117655246D01*
X176432372Y-117668875D01*
X176426183Y-117681960D01*
X176418742Y-117694376D01*
X176410119Y-117706002D01*
X176400398Y-117716727D01*
X176389673Y-117726448D01*
X176378047Y-117735071D01*
X176365631Y-117742512D01*
X176352546Y-117748701D01*
X176338917Y-117753578D01*
X176324876Y-117757095D01*
X176310558Y-117759219D01*
X176296100Y-117759929D01*
X175951100Y-117759929D01*
X175936642Y-117759219D01*
X175922324Y-117757095D01*
X175908283Y-117753578D01*
X175894654Y-117748701D01*
X175881569Y-117742512D01*
X175869153Y-117735071D01*
X175857527Y-117726448D01*
X175846802Y-117716727D01*
X175837081Y-117706002D01*
X175828458Y-117694376D01*
X175821017Y-117681960D01*
X175814828Y-117668875D01*
X175809951Y-117655246D01*
X175806434Y-117641205D01*
X175804310Y-117626887D01*
X175803600Y-117612429D01*
X175803600Y-117317429D01*
X175804310Y-117302971D01*
X175806434Y-117288653D01*
X175809951Y-117274612D01*
X175814828Y-117260983D01*
X175821017Y-117247898D01*
X175828458Y-117235482D01*
X175837081Y-117223856D01*
X175846802Y-117213131D01*
X175857527Y-117203410D01*
X175869153Y-117194787D01*
X175881569Y-117187346D01*
X175894654Y-117181157D01*
X175908283Y-117176280D01*
X175922324Y-117172763D01*
X175936642Y-117170639D01*
X175951100Y-117169929D01*
X176296100Y-117169929D01*
X176310558Y-117170639D01*
G37*
G36*
X178025058Y-117170639D02*
G01*
X178039376Y-117172763D01*
X178053417Y-117176280D01*
X178067046Y-117181157D01*
X178080131Y-117187346D01*
X178092547Y-117194787D01*
X178104173Y-117203410D01*
X178114898Y-117213131D01*
X178124619Y-117223856D01*
X178133242Y-117235482D01*
X178140683Y-117247898D01*
X178146872Y-117260983D01*
X178151749Y-117274612D01*
X178155266Y-117288653D01*
X178157390Y-117302971D01*
X178158100Y-117317429D01*
X178158100Y-117612429D01*
X178157390Y-117626887D01*
X178155266Y-117641205D01*
X178151749Y-117655246D01*
X178146872Y-117668875D01*
X178140683Y-117681960D01*
X178133242Y-117694376D01*
X178124619Y-117706002D01*
X178114898Y-117716727D01*
X178104173Y-117726448D01*
X178092547Y-117735071D01*
X178080131Y-117742512D01*
X178067046Y-117748701D01*
X178053417Y-117753578D01*
X178039376Y-117757095D01*
X178025058Y-117759219D01*
X178010600Y-117759929D01*
X177665600Y-117759929D01*
X177651142Y-117759219D01*
X177636824Y-117757095D01*
X177622783Y-117753578D01*
X177609154Y-117748701D01*
X177596069Y-117742512D01*
X177583653Y-117735071D01*
X177572027Y-117726448D01*
X177561302Y-117716727D01*
X177551581Y-117706002D01*
X177542958Y-117694376D01*
X177535517Y-117681960D01*
X177529328Y-117668875D01*
X177524451Y-117655246D01*
X177520934Y-117641205D01*
X177518810Y-117626887D01*
X177518100Y-117612429D01*
X177518100Y-117317429D01*
X177518810Y-117302971D01*
X177520934Y-117288653D01*
X177524451Y-117274612D01*
X177529328Y-117260983D01*
X177535517Y-117247898D01*
X177542958Y-117235482D01*
X177551581Y-117223856D01*
X177561302Y-117213131D01*
X177572027Y-117203410D01*
X177583653Y-117194787D01*
X177596069Y-117187346D01*
X177609154Y-117181157D01*
X177622783Y-117176280D01*
X177636824Y-117172763D01*
X177651142Y-117170639D01*
X177665600Y-117169929D01*
X178010600Y-117169929D01*
X178025058Y-117170639D01*
G37*
G36*
X178025058Y-118140639D02*
G01*
X178039376Y-118142763D01*
X178053417Y-118146280D01*
X178067046Y-118151157D01*
X178080131Y-118157346D01*
X178092547Y-118164787D01*
X178104173Y-118173410D01*
X178114898Y-118183131D01*
X178124619Y-118193856D01*
X178133242Y-118205482D01*
X178140683Y-118217898D01*
X178146872Y-118230983D01*
X178151749Y-118244612D01*
X178155266Y-118258653D01*
X178157390Y-118272971D01*
X178158100Y-118287429D01*
X178158100Y-118582429D01*
X178157390Y-118596887D01*
X178155266Y-118611205D01*
X178151749Y-118625246D01*
X178146872Y-118638875D01*
X178140683Y-118651960D01*
X178133242Y-118664376D01*
X178124619Y-118676002D01*
X178114898Y-118686727D01*
X178104173Y-118696448D01*
X178092547Y-118705071D01*
X178080131Y-118712512D01*
X178067046Y-118718701D01*
X178053417Y-118723578D01*
X178039376Y-118727095D01*
X178025058Y-118729219D01*
X178010600Y-118729929D01*
X177665600Y-118729929D01*
X177651142Y-118729219D01*
X177636824Y-118727095D01*
X177622783Y-118723578D01*
X177609154Y-118718701D01*
X177596069Y-118712512D01*
X177583653Y-118705071D01*
X177572027Y-118696448D01*
X177561302Y-118686727D01*
X177551581Y-118676002D01*
X177542958Y-118664376D01*
X177535517Y-118651960D01*
X177529328Y-118638875D01*
X177524451Y-118625246D01*
X177520934Y-118611205D01*
X177518810Y-118596887D01*
X177518100Y-118582429D01*
X177518100Y-118287429D01*
X177518810Y-118272971D01*
X177520934Y-118258653D01*
X177524451Y-118244612D01*
X177529328Y-118230983D01*
X177535517Y-118217898D01*
X177542958Y-118205482D01*
X177551581Y-118193856D01*
X177561302Y-118183131D01*
X177572027Y-118173410D01*
X177583653Y-118164787D01*
X177596069Y-118157346D01*
X177609154Y-118151157D01*
X177622783Y-118146280D01*
X177636824Y-118142763D01*
X177651142Y-118140639D01*
X177665600Y-118139929D01*
X178010600Y-118139929D01*
X178025058Y-118140639D01*
G37*
G36*
X212689630Y-66032137D02*
G01*
X212703948Y-66034261D01*
X212717989Y-66037778D01*
X212731618Y-66042655D01*
X212744703Y-66048844D01*
X212757119Y-66056285D01*
X212768745Y-66064908D01*
X212779470Y-66074629D01*
X212789191Y-66085354D01*
X212797814Y-66096980D01*
X212805255Y-66109396D01*
X212811444Y-66122481D01*
X212816321Y-66136110D01*
X212819838Y-66150151D01*
X212821962Y-66164469D01*
X212822672Y-66178927D01*
X212822672Y-66523927D01*
X212821962Y-66538385D01*
X212819838Y-66552703D01*
X212816321Y-66566744D01*
X212811444Y-66580373D01*
X212805255Y-66593458D01*
X212797814Y-66605874D01*
X212789191Y-66617500D01*
X212779470Y-66628225D01*
X212768745Y-66637946D01*
X212757119Y-66646569D01*
X212744703Y-66654010D01*
X212731618Y-66660199D01*
X212717989Y-66665076D01*
X212703948Y-66668593D01*
X212689630Y-66670717D01*
X212675172Y-66671427D01*
X212380172Y-66671427D01*
X212365714Y-66670717D01*
X212351396Y-66668593D01*
X212337355Y-66665076D01*
X212323726Y-66660199D01*
X212310641Y-66654010D01*
X212298225Y-66646569D01*
X212286599Y-66637946D01*
X212275874Y-66628225D01*
X212266153Y-66617500D01*
X212257530Y-66605874D01*
X212250089Y-66593458D01*
X212243900Y-66580373D01*
X212239023Y-66566744D01*
X212235506Y-66552703D01*
X212233382Y-66538385D01*
X212232672Y-66523927D01*
X212232672Y-66178927D01*
X212233382Y-66164469D01*
X212235506Y-66150151D01*
X212239023Y-66136110D01*
X212243900Y-66122481D01*
X212250089Y-66109396D01*
X212257530Y-66096980D01*
X212266153Y-66085354D01*
X212275874Y-66074629D01*
X212286599Y-66064908D01*
X212298225Y-66056285D01*
X212310641Y-66048844D01*
X212323726Y-66042655D01*
X212337355Y-66037778D01*
X212351396Y-66034261D01*
X212365714Y-66032137D01*
X212380172Y-66031427D01*
X212675172Y-66031427D01*
X212689630Y-66032137D01*
G37*
G36*
X211719630Y-66032137D02*
G01*
X211733948Y-66034261D01*
X211747989Y-66037778D01*
X211761618Y-66042655D01*
X211774703Y-66048844D01*
X211787119Y-66056285D01*
X211798745Y-66064908D01*
X211809470Y-66074629D01*
X211819191Y-66085354D01*
X211827814Y-66096980D01*
X211835255Y-66109396D01*
X211841444Y-66122481D01*
X211846321Y-66136110D01*
X211849838Y-66150151D01*
X211851962Y-66164469D01*
X211852672Y-66178927D01*
X211852672Y-66523927D01*
X211851962Y-66538385D01*
X211849838Y-66552703D01*
X211846321Y-66566744D01*
X211841444Y-66580373D01*
X211835255Y-66593458D01*
X211827814Y-66605874D01*
X211819191Y-66617500D01*
X211809470Y-66628225D01*
X211798745Y-66637946D01*
X211787119Y-66646569D01*
X211774703Y-66654010D01*
X211761618Y-66660199D01*
X211747989Y-66665076D01*
X211733948Y-66668593D01*
X211719630Y-66670717D01*
X211705172Y-66671427D01*
X211410172Y-66671427D01*
X211395714Y-66670717D01*
X211381396Y-66668593D01*
X211367355Y-66665076D01*
X211353726Y-66660199D01*
X211340641Y-66654010D01*
X211328225Y-66646569D01*
X211316599Y-66637946D01*
X211305874Y-66628225D01*
X211296153Y-66617500D01*
X211287530Y-66605874D01*
X211280089Y-66593458D01*
X211273900Y-66580373D01*
X211269023Y-66566744D01*
X211265506Y-66552703D01*
X211263382Y-66538385D01*
X211262672Y-66523927D01*
X211262672Y-66178927D01*
X211263382Y-66164469D01*
X211265506Y-66150151D01*
X211269023Y-66136110D01*
X211273900Y-66122481D01*
X211280089Y-66109396D01*
X211287530Y-66096980D01*
X211296153Y-66085354D01*
X211305874Y-66074629D01*
X211316599Y-66064908D01*
X211328225Y-66056285D01*
X211340641Y-66048844D01*
X211353726Y-66042655D01*
X211367355Y-66037778D01*
X211381396Y-66034261D01*
X211395714Y-66032137D01*
X211410172Y-66031427D01*
X211705172Y-66031427D01*
X211719630Y-66032137D01*
G37*
G36*
X212689630Y-64571637D02*
G01*
X212703948Y-64573761D01*
X212717989Y-64577278D01*
X212731618Y-64582155D01*
X212744703Y-64588344D01*
X212757119Y-64595785D01*
X212768745Y-64604408D01*
X212779470Y-64614129D01*
X212789191Y-64624854D01*
X212797814Y-64636480D01*
X212805255Y-64648896D01*
X212811444Y-64661981D01*
X212816321Y-64675610D01*
X212819838Y-64689651D01*
X212821962Y-64703969D01*
X212822672Y-64718427D01*
X212822672Y-65063427D01*
X212821962Y-65077885D01*
X212819838Y-65092203D01*
X212816321Y-65106244D01*
X212811444Y-65119873D01*
X212805255Y-65132958D01*
X212797814Y-65145374D01*
X212789191Y-65157000D01*
X212779470Y-65167725D01*
X212768745Y-65177446D01*
X212757119Y-65186069D01*
X212744703Y-65193510D01*
X212731618Y-65199699D01*
X212717989Y-65204576D01*
X212703948Y-65208093D01*
X212689630Y-65210217D01*
X212675172Y-65210927D01*
X212380172Y-65210927D01*
X212365714Y-65210217D01*
X212351396Y-65208093D01*
X212337355Y-65204576D01*
X212323726Y-65199699D01*
X212310641Y-65193510D01*
X212298225Y-65186069D01*
X212286599Y-65177446D01*
X212275874Y-65167725D01*
X212266153Y-65157000D01*
X212257530Y-65145374D01*
X212250089Y-65132958D01*
X212243900Y-65119873D01*
X212239023Y-65106244D01*
X212235506Y-65092203D01*
X212233382Y-65077885D01*
X212232672Y-65063427D01*
X212232672Y-64718427D01*
X212233382Y-64703969D01*
X212235506Y-64689651D01*
X212239023Y-64675610D01*
X212243900Y-64661981D01*
X212250089Y-64648896D01*
X212257530Y-64636480D01*
X212266153Y-64624854D01*
X212275874Y-64614129D01*
X212286599Y-64604408D01*
X212298225Y-64595785D01*
X212310641Y-64588344D01*
X212323726Y-64582155D01*
X212337355Y-64577278D01*
X212351396Y-64573761D01*
X212365714Y-64571637D01*
X212380172Y-64570927D01*
X212675172Y-64570927D01*
X212689630Y-64571637D01*
G37*
G36*
X211719630Y-64571637D02*
G01*
X211733948Y-64573761D01*
X211747989Y-64577278D01*
X211761618Y-64582155D01*
X211774703Y-64588344D01*
X211787119Y-64595785D01*
X211798745Y-64604408D01*
X211809470Y-64614129D01*
X211819191Y-64624854D01*
X211827814Y-64636480D01*
X211835255Y-64648896D01*
X211841444Y-64661981D01*
X211846321Y-64675610D01*
X211849838Y-64689651D01*
X211851962Y-64703969D01*
X211852672Y-64718427D01*
X211852672Y-65063427D01*
X211851962Y-65077885D01*
X211849838Y-65092203D01*
X211846321Y-65106244D01*
X211841444Y-65119873D01*
X211835255Y-65132958D01*
X211827814Y-65145374D01*
X211819191Y-65157000D01*
X211809470Y-65167725D01*
X211798745Y-65177446D01*
X211787119Y-65186069D01*
X211774703Y-65193510D01*
X211761618Y-65199699D01*
X211747989Y-65204576D01*
X211733948Y-65208093D01*
X211719630Y-65210217D01*
X211705172Y-65210927D01*
X211410172Y-65210927D01*
X211395714Y-65210217D01*
X211381396Y-65208093D01*
X211367355Y-65204576D01*
X211353726Y-65199699D01*
X211340641Y-65193510D01*
X211328225Y-65186069D01*
X211316599Y-65177446D01*
X211305874Y-65167725D01*
X211296153Y-65157000D01*
X211287530Y-65145374D01*
X211280089Y-65132958D01*
X211273900Y-65119873D01*
X211269023Y-65106244D01*
X211265506Y-65092203D01*
X211263382Y-65077885D01*
X211262672Y-65063427D01*
X211262672Y-64718427D01*
X211263382Y-64703969D01*
X211265506Y-64689651D01*
X211269023Y-64675610D01*
X211273900Y-64661981D01*
X211280089Y-64648896D01*
X211287530Y-64636480D01*
X211296153Y-64624854D01*
X211305874Y-64614129D01*
X211316599Y-64604408D01*
X211328225Y-64595785D01*
X211340641Y-64588344D01*
X211353726Y-64582155D01*
X211367355Y-64577278D01*
X211381396Y-64573761D01*
X211395714Y-64571637D01*
X211410172Y-64570927D01*
X211705172Y-64570927D01*
X211719630Y-64571637D01*
G37*
G36*
X176310558Y-119202639D02*
G01*
X176324876Y-119204763D01*
X176338917Y-119208280D01*
X176352546Y-119213157D01*
X176365631Y-119219346D01*
X176378047Y-119226787D01*
X176389673Y-119235410D01*
X176400398Y-119245131D01*
X176410119Y-119255856D01*
X176418742Y-119267482D01*
X176426183Y-119279898D01*
X176432372Y-119292983D01*
X176437249Y-119306612D01*
X176440766Y-119320653D01*
X176442890Y-119334971D01*
X176443600Y-119349429D01*
X176443600Y-119644429D01*
X176442890Y-119658887D01*
X176440766Y-119673205D01*
X176437249Y-119687246D01*
X176432372Y-119700875D01*
X176426183Y-119713960D01*
X176418742Y-119726376D01*
X176410119Y-119738002D01*
X176400398Y-119748727D01*
X176389673Y-119758448D01*
X176378047Y-119767071D01*
X176365631Y-119774512D01*
X176352546Y-119780701D01*
X176338917Y-119785578D01*
X176324876Y-119789095D01*
X176310558Y-119791219D01*
X176296100Y-119791929D01*
X175951100Y-119791929D01*
X175936642Y-119791219D01*
X175922324Y-119789095D01*
X175908283Y-119785578D01*
X175894654Y-119780701D01*
X175881569Y-119774512D01*
X175869153Y-119767071D01*
X175857527Y-119758448D01*
X175846802Y-119748727D01*
X175837081Y-119738002D01*
X175828458Y-119726376D01*
X175821017Y-119713960D01*
X175814828Y-119700875D01*
X175809951Y-119687246D01*
X175806434Y-119673205D01*
X175804310Y-119658887D01*
X175803600Y-119644429D01*
X175803600Y-119349429D01*
X175804310Y-119334971D01*
X175806434Y-119320653D01*
X175809951Y-119306612D01*
X175814828Y-119292983D01*
X175821017Y-119279898D01*
X175828458Y-119267482D01*
X175837081Y-119255856D01*
X175846802Y-119245131D01*
X175857527Y-119235410D01*
X175869153Y-119226787D01*
X175881569Y-119219346D01*
X175894654Y-119213157D01*
X175908283Y-119208280D01*
X175922324Y-119204763D01*
X175936642Y-119202639D01*
X175951100Y-119201929D01*
X176296100Y-119201929D01*
X176310558Y-119202639D01*
G37*
G36*
X176310558Y-120172639D02*
G01*
X176324876Y-120174763D01*
X176338917Y-120178280D01*
X176352546Y-120183157D01*
X176365631Y-120189346D01*
X176378047Y-120196787D01*
X176389673Y-120205410D01*
X176400398Y-120215131D01*
X176410119Y-120225856D01*
X176418742Y-120237482D01*
X176426183Y-120249898D01*
X176432372Y-120262983D01*
X176437249Y-120276612D01*
X176440766Y-120290653D01*
X176442890Y-120304971D01*
X176443600Y-120319429D01*
X176443600Y-120614429D01*
X176442890Y-120628887D01*
X176440766Y-120643205D01*
X176437249Y-120657246D01*
X176432372Y-120670875D01*
X176426183Y-120683960D01*
X176418742Y-120696376D01*
X176410119Y-120708002D01*
X176400398Y-120718727D01*
X176389673Y-120728448D01*
X176378047Y-120737071D01*
X176365631Y-120744512D01*
X176352546Y-120750701D01*
X176338917Y-120755578D01*
X176324876Y-120759095D01*
X176310558Y-120761219D01*
X176296100Y-120761929D01*
X175951100Y-120761929D01*
X175936642Y-120761219D01*
X175922324Y-120759095D01*
X175908283Y-120755578D01*
X175894654Y-120750701D01*
X175881569Y-120744512D01*
X175869153Y-120737071D01*
X175857527Y-120728448D01*
X175846802Y-120718727D01*
X175837081Y-120708002D01*
X175828458Y-120696376D01*
X175821017Y-120683960D01*
X175814828Y-120670875D01*
X175809951Y-120657246D01*
X175806434Y-120643205D01*
X175804310Y-120628887D01*
X175803600Y-120614429D01*
X175803600Y-120319429D01*
X175804310Y-120304971D01*
X175806434Y-120290653D01*
X175809951Y-120276612D01*
X175814828Y-120262983D01*
X175821017Y-120249898D01*
X175828458Y-120237482D01*
X175837081Y-120225856D01*
X175846802Y-120215131D01*
X175857527Y-120205410D01*
X175869153Y-120196787D01*
X175881569Y-120189346D01*
X175894654Y-120183157D01*
X175908283Y-120178280D01*
X175922324Y-120174763D01*
X175936642Y-120172639D01*
X175951100Y-120171929D01*
X176296100Y-120171929D01*
X176310558Y-120172639D01*
G37*
G36*
X178025058Y-119202639D02*
G01*
X178039376Y-119204763D01*
X178053417Y-119208280D01*
X178067046Y-119213157D01*
X178080131Y-119219346D01*
X178092547Y-119226787D01*
X178104173Y-119235410D01*
X178114898Y-119245131D01*
X178124619Y-119255856D01*
X178133242Y-119267482D01*
X178140683Y-119279898D01*
X178146872Y-119292983D01*
X178151749Y-119306612D01*
X178155266Y-119320653D01*
X178157390Y-119334971D01*
X178158100Y-119349429D01*
X178158100Y-119644429D01*
X178157390Y-119658887D01*
X178155266Y-119673205D01*
X178151749Y-119687246D01*
X178146872Y-119700875D01*
X178140683Y-119713960D01*
X178133242Y-119726376D01*
X178124619Y-119738002D01*
X178114898Y-119748727D01*
X178104173Y-119758448D01*
X178092547Y-119767071D01*
X178080131Y-119774512D01*
X178067046Y-119780701D01*
X178053417Y-119785578D01*
X178039376Y-119789095D01*
X178025058Y-119791219D01*
X178010600Y-119791929D01*
X177665600Y-119791929D01*
X177651142Y-119791219D01*
X177636824Y-119789095D01*
X177622783Y-119785578D01*
X177609154Y-119780701D01*
X177596069Y-119774512D01*
X177583653Y-119767071D01*
X177572027Y-119758448D01*
X177561302Y-119748727D01*
X177551581Y-119738002D01*
X177542958Y-119726376D01*
X177535517Y-119713960D01*
X177529328Y-119700875D01*
X177524451Y-119687246D01*
X177520934Y-119673205D01*
X177518810Y-119658887D01*
X177518100Y-119644429D01*
X177518100Y-119349429D01*
X177518810Y-119334971D01*
X177520934Y-119320653D01*
X177524451Y-119306612D01*
X177529328Y-119292983D01*
X177535517Y-119279898D01*
X177542958Y-119267482D01*
X177551581Y-119255856D01*
X177561302Y-119245131D01*
X177572027Y-119235410D01*
X177583653Y-119226787D01*
X177596069Y-119219346D01*
X177609154Y-119213157D01*
X177622783Y-119208280D01*
X177636824Y-119204763D01*
X177651142Y-119202639D01*
X177665600Y-119201929D01*
X178010600Y-119201929D01*
X178025058Y-119202639D01*
G37*
G36*
X178025058Y-120172639D02*
G01*
X178039376Y-120174763D01*
X178053417Y-120178280D01*
X178067046Y-120183157D01*
X178080131Y-120189346D01*
X178092547Y-120196787D01*
X178104173Y-120205410D01*
X178114898Y-120215131D01*
X178124619Y-120225856D01*
X178133242Y-120237482D01*
X178140683Y-120249898D01*
X178146872Y-120262983D01*
X178151749Y-120276612D01*
X178155266Y-120290653D01*
X178157390Y-120304971D01*
X178158100Y-120319429D01*
X178158100Y-120614429D01*
X178157390Y-120628887D01*
X178155266Y-120643205D01*
X178151749Y-120657246D01*
X178146872Y-120670875D01*
X178140683Y-120683960D01*
X178133242Y-120696376D01*
X178124619Y-120708002D01*
X178114898Y-120718727D01*
X178104173Y-120728448D01*
X178092547Y-120737071D01*
X178080131Y-120744512D01*
X178067046Y-120750701D01*
X178053417Y-120755578D01*
X178039376Y-120759095D01*
X178025058Y-120761219D01*
X178010600Y-120761929D01*
X177665600Y-120761929D01*
X177651142Y-120761219D01*
X177636824Y-120759095D01*
X177622783Y-120755578D01*
X177609154Y-120750701D01*
X177596069Y-120744512D01*
X177583653Y-120737071D01*
X177572027Y-120728448D01*
X177561302Y-120718727D01*
X177551581Y-120708002D01*
X177542958Y-120696376D01*
X177535517Y-120683960D01*
X177529328Y-120670875D01*
X177524451Y-120657246D01*
X177520934Y-120643205D01*
X177518810Y-120628887D01*
X177518100Y-120614429D01*
X177518100Y-120319429D01*
X177518810Y-120304971D01*
X177520934Y-120290653D01*
X177524451Y-120276612D01*
X177529328Y-120262983D01*
X177535517Y-120249898D01*
X177542958Y-120237482D01*
X177551581Y-120225856D01*
X177561302Y-120215131D01*
X177572027Y-120205410D01*
X177583653Y-120196787D01*
X177596069Y-120189346D01*
X177609154Y-120183157D01*
X177622783Y-120178280D01*
X177636824Y-120174763D01*
X177651142Y-120172639D01*
X177665600Y-120171929D01*
X178010600Y-120171929D01*
X178025058Y-120172639D01*
G37*
G36*
X216753630Y-67492637D02*
G01*
X216767948Y-67494761D01*
X216781989Y-67498278D01*
X216795618Y-67503155D01*
X216808703Y-67509344D01*
X216821119Y-67516785D01*
X216832745Y-67525408D01*
X216843470Y-67535129D01*
X216853191Y-67545854D01*
X216861814Y-67557480D01*
X216869255Y-67569896D01*
X216875444Y-67582981D01*
X216880321Y-67596610D01*
X216883838Y-67610651D01*
X216885962Y-67624969D01*
X216886672Y-67639427D01*
X216886672Y-67984427D01*
X216885962Y-67998885D01*
X216883838Y-68013203D01*
X216880321Y-68027244D01*
X216875444Y-68040873D01*
X216869255Y-68053958D01*
X216861814Y-68066374D01*
X216853191Y-68078000D01*
X216843470Y-68088725D01*
X216832745Y-68098446D01*
X216821119Y-68107069D01*
X216808703Y-68114510D01*
X216795618Y-68120699D01*
X216781989Y-68125576D01*
X216767948Y-68129093D01*
X216753630Y-68131217D01*
X216739172Y-68131927D01*
X216444172Y-68131927D01*
X216429714Y-68131217D01*
X216415396Y-68129093D01*
X216401355Y-68125576D01*
X216387726Y-68120699D01*
X216374641Y-68114510D01*
X216362225Y-68107069D01*
X216350599Y-68098446D01*
X216339874Y-68088725D01*
X216330153Y-68078000D01*
X216321530Y-68066374D01*
X216314089Y-68053958D01*
X216307900Y-68040873D01*
X216303023Y-68027244D01*
X216299506Y-68013203D01*
X216297382Y-67998885D01*
X216296672Y-67984427D01*
X216296672Y-67639427D01*
X216297382Y-67624969D01*
X216299506Y-67610651D01*
X216303023Y-67596610D01*
X216307900Y-67582981D01*
X216314089Y-67569896D01*
X216321530Y-67557480D01*
X216330153Y-67545854D01*
X216339874Y-67535129D01*
X216350599Y-67525408D01*
X216362225Y-67516785D01*
X216374641Y-67509344D01*
X216387726Y-67503155D01*
X216401355Y-67498278D01*
X216415396Y-67494761D01*
X216429714Y-67492637D01*
X216444172Y-67491927D01*
X216739172Y-67491927D01*
X216753630Y-67492637D01*
G37*
G36*
X215783630Y-67492637D02*
G01*
X215797948Y-67494761D01*
X215811989Y-67498278D01*
X215825618Y-67503155D01*
X215838703Y-67509344D01*
X215851119Y-67516785D01*
X215862745Y-67525408D01*
X215873470Y-67535129D01*
X215883191Y-67545854D01*
X215891814Y-67557480D01*
X215899255Y-67569896D01*
X215905444Y-67582981D01*
X215910321Y-67596610D01*
X215913838Y-67610651D01*
X215915962Y-67624969D01*
X215916672Y-67639427D01*
X215916672Y-67984427D01*
X215915962Y-67998885D01*
X215913838Y-68013203D01*
X215910321Y-68027244D01*
X215905444Y-68040873D01*
X215899255Y-68053958D01*
X215891814Y-68066374D01*
X215883191Y-68078000D01*
X215873470Y-68088725D01*
X215862745Y-68098446D01*
X215851119Y-68107069D01*
X215838703Y-68114510D01*
X215825618Y-68120699D01*
X215811989Y-68125576D01*
X215797948Y-68129093D01*
X215783630Y-68131217D01*
X215769172Y-68131927D01*
X215474172Y-68131927D01*
X215459714Y-68131217D01*
X215445396Y-68129093D01*
X215431355Y-68125576D01*
X215417726Y-68120699D01*
X215404641Y-68114510D01*
X215392225Y-68107069D01*
X215380599Y-68098446D01*
X215369874Y-68088725D01*
X215360153Y-68078000D01*
X215351530Y-68066374D01*
X215344089Y-68053958D01*
X215337900Y-68040873D01*
X215333023Y-68027244D01*
X215329506Y-68013203D01*
X215327382Y-67998885D01*
X215326672Y-67984427D01*
X215326672Y-67639427D01*
X215327382Y-67624969D01*
X215329506Y-67610651D01*
X215333023Y-67596610D01*
X215337900Y-67582981D01*
X215344089Y-67569896D01*
X215351530Y-67557480D01*
X215360153Y-67545854D01*
X215369874Y-67535129D01*
X215380599Y-67525408D01*
X215392225Y-67516785D01*
X215404641Y-67509344D01*
X215417726Y-67503155D01*
X215431355Y-67498278D01*
X215445396Y-67494761D01*
X215459714Y-67492637D01*
X215474172Y-67491927D01*
X215769172Y-67491927D01*
X215783630Y-67492637D01*
G37*
G36*
X179676058Y-115138639D02*
G01*
X179690376Y-115140763D01*
X179704417Y-115144280D01*
X179718046Y-115149157D01*
X179731131Y-115155346D01*
X179743547Y-115162787D01*
X179755173Y-115171410D01*
X179765898Y-115181131D01*
X179775619Y-115191856D01*
X179784242Y-115203482D01*
X179791683Y-115215898D01*
X179797872Y-115228983D01*
X179802749Y-115242612D01*
X179806266Y-115256653D01*
X179808390Y-115270971D01*
X179809100Y-115285429D01*
X179809100Y-115580429D01*
X179808390Y-115594887D01*
X179806266Y-115609205D01*
X179802749Y-115623246D01*
X179797872Y-115636875D01*
X179791683Y-115649960D01*
X179784242Y-115662376D01*
X179775619Y-115674002D01*
X179765898Y-115684727D01*
X179755173Y-115694448D01*
X179743547Y-115703071D01*
X179731131Y-115710512D01*
X179718046Y-115716701D01*
X179704417Y-115721578D01*
X179690376Y-115725095D01*
X179676058Y-115727219D01*
X179661600Y-115727929D01*
X179316600Y-115727929D01*
X179302142Y-115727219D01*
X179287824Y-115725095D01*
X179273783Y-115721578D01*
X179260154Y-115716701D01*
X179247069Y-115710512D01*
X179234653Y-115703071D01*
X179223027Y-115694448D01*
X179212302Y-115684727D01*
X179202581Y-115674002D01*
X179193958Y-115662376D01*
X179186517Y-115649960D01*
X179180328Y-115636875D01*
X179175451Y-115623246D01*
X179171934Y-115609205D01*
X179169810Y-115594887D01*
X179169100Y-115580429D01*
X179169100Y-115285429D01*
X179169810Y-115270971D01*
X179171934Y-115256653D01*
X179175451Y-115242612D01*
X179180328Y-115228983D01*
X179186517Y-115215898D01*
X179193958Y-115203482D01*
X179202581Y-115191856D01*
X179212302Y-115181131D01*
X179223027Y-115171410D01*
X179234653Y-115162787D01*
X179247069Y-115155346D01*
X179260154Y-115149157D01*
X179273783Y-115144280D01*
X179287824Y-115140763D01*
X179302142Y-115138639D01*
X179316600Y-115137929D01*
X179661600Y-115137929D01*
X179676058Y-115138639D01*
G37*
G36*
X179676058Y-116108639D02*
G01*
X179690376Y-116110763D01*
X179704417Y-116114280D01*
X179718046Y-116119157D01*
X179731131Y-116125346D01*
X179743547Y-116132787D01*
X179755173Y-116141410D01*
X179765898Y-116151131D01*
X179775619Y-116161856D01*
X179784242Y-116173482D01*
X179791683Y-116185898D01*
X179797872Y-116198983D01*
X179802749Y-116212612D01*
X179806266Y-116226653D01*
X179808390Y-116240971D01*
X179809100Y-116255429D01*
X179809100Y-116550429D01*
X179808390Y-116564887D01*
X179806266Y-116579205D01*
X179802749Y-116593246D01*
X179797872Y-116606875D01*
X179791683Y-116619960D01*
X179784242Y-116632376D01*
X179775619Y-116644002D01*
X179765898Y-116654727D01*
X179755173Y-116664448D01*
X179743547Y-116673071D01*
X179731131Y-116680512D01*
X179718046Y-116686701D01*
X179704417Y-116691578D01*
X179690376Y-116695095D01*
X179676058Y-116697219D01*
X179661600Y-116697929D01*
X179316600Y-116697929D01*
X179302142Y-116697219D01*
X179287824Y-116695095D01*
X179273783Y-116691578D01*
X179260154Y-116686701D01*
X179247069Y-116680512D01*
X179234653Y-116673071D01*
X179223027Y-116664448D01*
X179212302Y-116654727D01*
X179202581Y-116644002D01*
X179193958Y-116632376D01*
X179186517Y-116619960D01*
X179180328Y-116606875D01*
X179175451Y-116593246D01*
X179171934Y-116579205D01*
X179169810Y-116564887D01*
X179169100Y-116550429D01*
X179169100Y-116255429D01*
X179169810Y-116240971D01*
X179171934Y-116226653D01*
X179175451Y-116212612D01*
X179180328Y-116198983D01*
X179186517Y-116185898D01*
X179193958Y-116173482D01*
X179202581Y-116161856D01*
X179212302Y-116151131D01*
X179223027Y-116141410D01*
X179234653Y-116132787D01*
X179247069Y-116125346D01*
X179260154Y-116119157D01*
X179273783Y-116114280D01*
X179287824Y-116110763D01*
X179302142Y-116108639D01*
X179316600Y-116107929D01*
X179661600Y-116107929D01*
X179676058Y-116108639D01*
G37*
G36*
X216753630Y-66032137D02*
G01*
X216767948Y-66034261D01*
X216781989Y-66037778D01*
X216795618Y-66042655D01*
X216808703Y-66048844D01*
X216821119Y-66056285D01*
X216832745Y-66064908D01*
X216843470Y-66074629D01*
X216853191Y-66085354D01*
X216861814Y-66096980D01*
X216869255Y-66109396D01*
X216875444Y-66122481D01*
X216880321Y-66136110D01*
X216883838Y-66150151D01*
X216885962Y-66164469D01*
X216886672Y-66178927D01*
X216886672Y-66523927D01*
X216885962Y-66538385D01*
X216883838Y-66552703D01*
X216880321Y-66566744D01*
X216875444Y-66580373D01*
X216869255Y-66593458D01*
X216861814Y-66605874D01*
X216853191Y-66617500D01*
X216843470Y-66628225D01*
X216832745Y-66637946D01*
X216821119Y-66646569D01*
X216808703Y-66654010D01*
X216795618Y-66660199D01*
X216781989Y-66665076D01*
X216767948Y-66668593D01*
X216753630Y-66670717D01*
X216739172Y-66671427D01*
X216444172Y-66671427D01*
X216429714Y-66670717D01*
X216415396Y-66668593D01*
X216401355Y-66665076D01*
X216387726Y-66660199D01*
X216374641Y-66654010D01*
X216362225Y-66646569D01*
X216350599Y-66637946D01*
X216339874Y-66628225D01*
X216330153Y-66617500D01*
X216321530Y-66605874D01*
X216314089Y-66593458D01*
X216307900Y-66580373D01*
X216303023Y-66566744D01*
X216299506Y-66552703D01*
X216297382Y-66538385D01*
X216296672Y-66523927D01*
X216296672Y-66178927D01*
X216297382Y-66164469D01*
X216299506Y-66150151D01*
X216303023Y-66136110D01*
X216307900Y-66122481D01*
X216314089Y-66109396D01*
X216321530Y-66096980D01*
X216330153Y-66085354D01*
X216339874Y-66074629D01*
X216350599Y-66064908D01*
X216362225Y-66056285D01*
X216374641Y-66048844D01*
X216387726Y-66042655D01*
X216401355Y-66037778D01*
X216415396Y-66034261D01*
X216429714Y-66032137D01*
X216444172Y-66031427D01*
X216739172Y-66031427D01*
X216753630Y-66032137D01*
G37*
G36*
X215783630Y-66032137D02*
G01*
X215797948Y-66034261D01*
X215811989Y-66037778D01*
X215825618Y-66042655D01*
X215838703Y-66048844D01*
X215851119Y-66056285D01*
X215862745Y-66064908D01*
X215873470Y-66074629D01*
X215883191Y-66085354D01*
X215891814Y-66096980D01*
X215899255Y-66109396D01*
X215905444Y-66122481D01*
X215910321Y-66136110D01*
X215913838Y-66150151D01*
X215915962Y-66164469D01*
X215916672Y-66178927D01*
X215916672Y-66523927D01*
X215915962Y-66538385D01*
X215913838Y-66552703D01*
X215910321Y-66566744D01*
X215905444Y-66580373D01*
X215899255Y-66593458D01*
X215891814Y-66605874D01*
X215883191Y-66617500D01*
X215873470Y-66628225D01*
X215862745Y-66637946D01*
X215851119Y-66646569D01*
X215838703Y-66654010D01*
X215825618Y-66660199D01*
X215811989Y-66665076D01*
X215797948Y-66668593D01*
X215783630Y-66670717D01*
X215769172Y-66671427D01*
X215474172Y-66671427D01*
X215459714Y-66670717D01*
X215445396Y-66668593D01*
X215431355Y-66665076D01*
X215417726Y-66660199D01*
X215404641Y-66654010D01*
X215392225Y-66646569D01*
X215380599Y-66637946D01*
X215369874Y-66628225D01*
X215360153Y-66617500D01*
X215351530Y-66605874D01*
X215344089Y-66593458D01*
X215337900Y-66580373D01*
X215333023Y-66566744D01*
X215329506Y-66552703D01*
X215327382Y-66538385D01*
X215326672Y-66523927D01*
X215326672Y-66178927D01*
X215327382Y-66164469D01*
X215329506Y-66150151D01*
X215333023Y-66136110D01*
X215337900Y-66122481D01*
X215344089Y-66109396D01*
X215351530Y-66096980D01*
X215360153Y-66085354D01*
X215369874Y-66074629D01*
X215380599Y-66064908D01*
X215392225Y-66056285D01*
X215404641Y-66048844D01*
X215417726Y-66042655D01*
X215431355Y-66037778D01*
X215445396Y-66034261D01*
X215459714Y-66032137D01*
X215474172Y-66031427D01*
X215769172Y-66031427D01*
X215783630Y-66032137D01*
G37*
G36*
X216753630Y-64571637D02*
G01*
X216767948Y-64573761D01*
X216781989Y-64577278D01*
X216795618Y-64582155D01*
X216808703Y-64588344D01*
X216821119Y-64595785D01*
X216832745Y-64604408D01*
X216843470Y-64614129D01*
X216853191Y-64624854D01*
X216861814Y-64636480D01*
X216869255Y-64648896D01*
X216875444Y-64661981D01*
X216880321Y-64675610D01*
X216883838Y-64689651D01*
X216885962Y-64703969D01*
X216886672Y-64718427D01*
X216886672Y-65063427D01*
X216885962Y-65077885D01*
X216883838Y-65092203D01*
X216880321Y-65106244D01*
X216875444Y-65119873D01*
X216869255Y-65132958D01*
X216861814Y-65145374D01*
X216853191Y-65157000D01*
X216843470Y-65167725D01*
X216832745Y-65177446D01*
X216821119Y-65186069D01*
X216808703Y-65193510D01*
X216795618Y-65199699D01*
X216781989Y-65204576D01*
X216767948Y-65208093D01*
X216753630Y-65210217D01*
X216739172Y-65210927D01*
X216444172Y-65210927D01*
X216429714Y-65210217D01*
X216415396Y-65208093D01*
X216401355Y-65204576D01*
X216387726Y-65199699D01*
X216374641Y-65193510D01*
X216362225Y-65186069D01*
X216350599Y-65177446D01*
X216339874Y-65167725D01*
X216330153Y-65157000D01*
X216321530Y-65145374D01*
X216314089Y-65132958D01*
X216307900Y-65119873D01*
X216303023Y-65106244D01*
X216299506Y-65092203D01*
X216297382Y-65077885D01*
X216296672Y-65063427D01*
X216296672Y-64718427D01*
X216297382Y-64703969D01*
X216299506Y-64689651D01*
X216303023Y-64675610D01*
X216307900Y-64661981D01*
X216314089Y-64648896D01*
X216321530Y-64636480D01*
X216330153Y-64624854D01*
X216339874Y-64614129D01*
X216350599Y-64604408D01*
X216362225Y-64595785D01*
X216374641Y-64588344D01*
X216387726Y-64582155D01*
X216401355Y-64577278D01*
X216415396Y-64573761D01*
X216429714Y-64571637D01*
X216444172Y-64570927D01*
X216739172Y-64570927D01*
X216753630Y-64571637D01*
G37*
G36*
X215783630Y-64571637D02*
G01*
X215797948Y-64573761D01*
X215811989Y-64577278D01*
X215825618Y-64582155D01*
X215838703Y-64588344D01*
X215851119Y-64595785D01*
X215862745Y-64604408D01*
X215873470Y-64614129D01*
X215883191Y-64624854D01*
X215891814Y-64636480D01*
X215899255Y-64648896D01*
X215905444Y-64661981D01*
X215910321Y-64675610D01*
X215913838Y-64689651D01*
X215915962Y-64703969D01*
X215916672Y-64718427D01*
X215916672Y-65063427D01*
X215915962Y-65077885D01*
X215913838Y-65092203D01*
X215910321Y-65106244D01*
X215905444Y-65119873D01*
X215899255Y-65132958D01*
X215891814Y-65145374D01*
X215883191Y-65157000D01*
X215873470Y-65167725D01*
X215862745Y-65177446D01*
X215851119Y-65186069D01*
X215838703Y-65193510D01*
X215825618Y-65199699D01*
X215811989Y-65204576D01*
X215797948Y-65208093D01*
X215783630Y-65210217D01*
X215769172Y-65210927D01*
X215474172Y-65210927D01*
X215459714Y-65210217D01*
X215445396Y-65208093D01*
X215431355Y-65204576D01*
X215417726Y-65199699D01*
X215404641Y-65193510D01*
X215392225Y-65186069D01*
X215380599Y-65177446D01*
X215369874Y-65167725D01*
X215360153Y-65157000D01*
X215351530Y-65145374D01*
X215344089Y-65132958D01*
X215337900Y-65119873D01*
X215333023Y-65106244D01*
X215329506Y-65092203D01*
X215327382Y-65077885D01*
X215326672Y-65063427D01*
X215326672Y-64718427D01*
X215327382Y-64703969D01*
X215329506Y-64689651D01*
X215333023Y-64675610D01*
X215337900Y-64661981D01*
X215344089Y-64648896D01*
X215351530Y-64636480D01*
X215360153Y-64624854D01*
X215369874Y-64614129D01*
X215380599Y-64604408D01*
X215392225Y-64595785D01*
X215404641Y-64588344D01*
X215417726Y-64582155D01*
X215431355Y-64577278D01*
X215445396Y-64573761D01*
X215459714Y-64571637D01*
X215474172Y-64570927D01*
X215769172Y-64570927D01*
X215783630Y-64571637D01*
G37*
G36*
X176310558Y-115138639D02*
G01*
X176324876Y-115140763D01*
X176338917Y-115144280D01*
X176352546Y-115149157D01*
X176365631Y-115155346D01*
X176378047Y-115162787D01*
X176389673Y-115171410D01*
X176400398Y-115181131D01*
X176410119Y-115191856D01*
X176418742Y-115203482D01*
X176426183Y-115215898D01*
X176432372Y-115228983D01*
X176437249Y-115242612D01*
X176440766Y-115256653D01*
X176442890Y-115270971D01*
X176443600Y-115285429D01*
X176443600Y-115580429D01*
X176442890Y-115594887D01*
X176440766Y-115609205D01*
X176437249Y-115623246D01*
X176432372Y-115636875D01*
X176426183Y-115649960D01*
X176418742Y-115662376D01*
X176410119Y-115674002D01*
X176400398Y-115684727D01*
X176389673Y-115694448D01*
X176378047Y-115703071D01*
X176365631Y-115710512D01*
X176352546Y-115716701D01*
X176338917Y-115721578D01*
X176324876Y-115725095D01*
X176310558Y-115727219D01*
X176296100Y-115727929D01*
X175951100Y-115727929D01*
X175936642Y-115727219D01*
X175922324Y-115725095D01*
X175908283Y-115721578D01*
X175894654Y-115716701D01*
X175881569Y-115710512D01*
X175869153Y-115703071D01*
X175857527Y-115694448D01*
X175846802Y-115684727D01*
X175837081Y-115674002D01*
X175828458Y-115662376D01*
X175821017Y-115649960D01*
X175814828Y-115636875D01*
X175809951Y-115623246D01*
X175806434Y-115609205D01*
X175804310Y-115594887D01*
X175803600Y-115580429D01*
X175803600Y-115285429D01*
X175804310Y-115270971D01*
X175806434Y-115256653D01*
X175809951Y-115242612D01*
X175814828Y-115228983D01*
X175821017Y-115215898D01*
X175828458Y-115203482D01*
X175837081Y-115191856D01*
X175846802Y-115181131D01*
X175857527Y-115171410D01*
X175869153Y-115162787D01*
X175881569Y-115155346D01*
X175894654Y-115149157D01*
X175908283Y-115144280D01*
X175922324Y-115140763D01*
X175936642Y-115138639D01*
X175951100Y-115137929D01*
X176296100Y-115137929D01*
X176310558Y-115138639D01*
G37*
G36*
X176310558Y-116108639D02*
G01*
X176324876Y-116110763D01*
X176338917Y-116114280D01*
X176352546Y-116119157D01*
X176365631Y-116125346D01*
X176378047Y-116132787D01*
X176389673Y-116141410D01*
X176400398Y-116151131D01*
X176410119Y-116161856D01*
X176418742Y-116173482D01*
X176426183Y-116185898D01*
X176432372Y-116198983D01*
X176437249Y-116212612D01*
X176440766Y-116226653D01*
X176442890Y-116240971D01*
X176443600Y-116255429D01*
X176443600Y-116550429D01*
X176442890Y-116564887D01*
X176440766Y-116579205D01*
X176437249Y-116593246D01*
X176432372Y-116606875D01*
X176426183Y-116619960D01*
X176418742Y-116632376D01*
X176410119Y-116644002D01*
X176400398Y-116654727D01*
X176389673Y-116664448D01*
X176378047Y-116673071D01*
X176365631Y-116680512D01*
X176352546Y-116686701D01*
X176338917Y-116691578D01*
X176324876Y-116695095D01*
X176310558Y-116697219D01*
X176296100Y-116697929D01*
X175951100Y-116697929D01*
X175936642Y-116697219D01*
X175922324Y-116695095D01*
X175908283Y-116691578D01*
X175894654Y-116686701D01*
X175881569Y-116680512D01*
X175869153Y-116673071D01*
X175857527Y-116664448D01*
X175846802Y-116654727D01*
X175837081Y-116644002D01*
X175828458Y-116632376D01*
X175821017Y-116619960D01*
X175814828Y-116606875D01*
X175809951Y-116593246D01*
X175806434Y-116579205D01*
X175804310Y-116564887D01*
X175803600Y-116550429D01*
X175803600Y-116255429D01*
X175804310Y-116240971D01*
X175806434Y-116226653D01*
X175809951Y-116212612D01*
X175814828Y-116198983D01*
X175821017Y-116185898D01*
X175828458Y-116173482D01*
X175837081Y-116161856D01*
X175846802Y-116151131D01*
X175857527Y-116141410D01*
X175869153Y-116132787D01*
X175881569Y-116125346D01*
X175894654Y-116119157D01*
X175908283Y-116114280D01*
X175922324Y-116110763D01*
X175936642Y-116108639D01*
X175951100Y-116107929D01*
X176296100Y-116107929D01*
X176310558Y-116108639D01*
G37*
G36*
X178025058Y-115138639D02*
G01*
X178039376Y-115140763D01*
X178053417Y-115144280D01*
X178067046Y-115149157D01*
X178080131Y-115155346D01*
X178092547Y-115162787D01*
X178104173Y-115171410D01*
X178114898Y-115181131D01*
X178124619Y-115191856D01*
X178133242Y-115203482D01*
X178140683Y-115215898D01*
X178146872Y-115228983D01*
X178151749Y-115242612D01*
X178155266Y-115256653D01*
X178157390Y-115270971D01*
X178158100Y-115285429D01*
X178158100Y-115580429D01*
X178157390Y-115594887D01*
X178155266Y-115609205D01*
X178151749Y-115623246D01*
X178146872Y-115636875D01*
X178140683Y-115649960D01*
X178133242Y-115662376D01*
X178124619Y-115674002D01*
X178114898Y-115684727D01*
X178104173Y-115694448D01*
X178092547Y-115703071D01*
X178080131Y-115710512D01*
X178067046Y-115716701D01*
X178053417Y-115721578D01*
X178039376Y-115725095D01*
X178025058Y-115727219D01*
X178010600Y-115727929D01*
X177665600Y-115727929D01*
X177651142Y-115727219D01*
X177636824Y-115725095D01*
X177622783Y-115721578D01*
X177609154Y-115716701D01*
X177596069Y-115710512D01*
X177583653Y-115703071D01*
X177572027Y-115694448D01*
X177561302Y-115684727D01*
X177551581Y-115674002D01*
X177542958Y-115662376D01*
X177535517Y-115649960D01*
X177529328Y-115636875D01*
X177524451Y-115623246D01*
X177520934Y-115609205D01*
X177518810Y-115594887D01*
X177518100Y-115580429D01*
X177518100Y-115285429D01*
X177518810Y-115270971D01*
X177520934Y-115256653D01*
X177524451Y-115242612D01*
X177529328Y-115228983D01*
X177535517Y-115215898D01*
X177542958Y-115203482D01*
X177551581Y-115191856D01*
X177561302Y-115181131D01*
X177572027Y-115171410D01*
X177583653Y-115162787D01*
X177596069Y-115155346D01*
X177609154Y-115149157D01*
X177622783Y-115144280D01*
X177636824Y-115140763D01*
X177651142Y-115138639D01*
X177665600Y-115137929D01*
X178010600Y-115137929D01*
X178025058Y-115138639D01*
G37*
G36*
X178025058Y-116108639D02*
G01*
X178039376Y-116110763D01*
X178053417Y-116114280D01*
X178067046Y-116119157D01*
X178080131Y-116125346D01*
X178092547Y-116132787D01*
X178104173Y-116141410D01*
X178114898Y-116151131D01*
X178124619Y-116161856D01*
X178133242Y-116173482D01*
X178140683Y-116185898D01*
X178146872Y-116198983D01*
X178151749Y-116212612D01*
X178155266Y-116226653D01*
X178157390Y-116240971D01*
X178158100Y-116255429D01*
X178158100Y-116550429D01*
X178157390Y-116564887D01*
X178155266Y-116579205D01*
X178151749Y-116593246D01*
X178146872Y-116606875D01*
X178140683Y-116619960D01*
X178133242Y-116632376D01*
X178124619Y-116644002D01*
X178114898Y-116654727D01*
X178104173Y-116664448D01*
X178092547Y-116673071D01*
X178080131Y-116680512D01*
X178067046Y-116686701D01*
X178053417Y-116691578D01*
X178039376Y-116695095D01*
X178025058Y-116697219D01*
X178010600Y-116697929D01*
X177665600Y-116697929D01*
X177651142Y-116697219D01*
X177636824Y-116695095D01*
X177622783Y-116691578D01*
X177609154Y-116686701D01*
X177596069Y-116680512D01*
X177583653Y-116673071D01*
X177572027Y-116664448D01*
X177561302Y-116654727D01*
X177551581Y-116644002D01*
X177542958Y-116632376D01*
X177535517Y-116619960D01*
X177529328Y-116606875D01*
X177524451Y-116593246D01*
X177520934Y-116579205D01*
X177518810Y-116564887D01*
X177518100Y-116550429D01*
X177518100Y-116255429D01*
X177518810Y-116240971D01*
X177520934Y-116226653D01*
X177524451Y-116212612D01*
X177529328Y-116198983D01*
X177535517Y-116185898D01*
X177542958Y-116173482D01*
X177551581Y-116161856D01*
X177561302Y-116151131D01*
X177572027Y-116141410D01*
X177583653Y-116132787D01*
X177596069Y-116125346D01*
X177609154Y-116119157D01*
X177622783Y-116114280D01*
X177636824Y-116110763D01*
X177651142Y-116108639D01*
X177665600Y-116107929D01*
X178010600Y-116107929D01*
X178025058Y-116108639D01*
G37*
G36*
X198994942Y-80230603D02*
G01*
X199018603Y-80234113D01*
X199041807Y-80239925D01*
X199064329Y-80247983D01*
X199085953Y-80258211D01*
X199106470Y-80270508D01*
X199125683Y-80284758D01*
X199143407Y-80300822D01*
X199159471Y-80318546D01*
X199173721Y-80337759D01*
X199186018Y-80358276D01*
X199196246Y-80379900D01*
X199204304Y-80402422D01*
X199210116Y-80425626D01*
X199213626Y-80449287D01*
X199214800Y-80473179D01*
X199214800Y-81385679D01*
X199213626Y-81409571D01*
X199210116Y-81433232D01*
X199204304Y-81456436D01*
X199196246Y-81478958D01*
X199186018Y-81500582D01*
X199173721Y-81521099D01*
X199159471Y-81540312D01*
X199143407Y-81558036D01*
X199125683Y-81574100D01*
X199106470Y-81588350D01*
X199085953Y-81600647D01*
X199064329Y-81610875D01*
X199041807Y-81618933D01*
X199018603Y-81624745D01*
X198994942Y-81628255D01*
X198971050Y-81629429D01*
X198483550Y-81629429D01*
X198459658Y-81628255D01*
X198435997Y-81624745D01*
X198412793Y-81618933D01*
X198390271Y-81610875D01*
X198368647Y-81600647D01*
X198348130Y-81588350D01*
X198328917Y-81574100D01*
X198311193Y-81558036D01*
X198295129Y-81540312D01*
X198280879Y-81521099D01*
X198268582Y-81500582D01*
X198258354Y-81478958D01*
X198250296Y-81456436D01*
X198244484Y-81433232D01*
X198240974Y-81409571D01*
X198239800Y-81385679D01*
X198239800Y-80473179D01*
X198240974Y-80449287D01*
X198244484Y-80425626D01*
X198250296Y-80402422D01*
X198258354Y-80379900D01*
X198268582Y-80358276D01*
X198280879Y-80337759D01*
X198295129Y-80318546D01*
X198311193Y-80300822D01*
X198328917Y-80284758D01*
X198348130Y-80270508D01*
X198368647Y-80258211D01*
X198390271Y-80247983D01*
X198412793Y-80239925D01*
X198435997Y-80234113D01*
X198459658Y-80230603D01*
X198483550Y-80229429D01*
X198971050Y-80229429D01*
X198994942Y-80230603D01*
G37*
G36*
X197119942Y-80230603D02*
G01*
X197143603Y-80234113D01*
X197166807Y-80239925D01*
X197189329Y-80247983D01*
X197210953Y-80258211D01*
X197231470Y-80270508D01*
X197250683Y-80284758D01*
X197268407Y-80300822D01*
X197284471Y-80318546D01*
X197298721Y-80337759D01*
X197311018Y-80358276D01*
X197321246Y-80379900D01*
X197329304Y-80402422D01*
X197335116Y-80425626D01*
X197338626Y-80449287D01*
X197339800Y-80473179D01*
X197339800Y-81385679D01*
X197338626Y-81409571D01*
X197335116Y-81433232D01*
X197329304Y-81456436D01*
X197321246Y-81478958D01*
X197311018Y-81500582D01*
X197298721Y-81521099D01*
X197284471Y-81540312D01*
X197268407Y-81558036D01*
X197250683Y-81574100D01*
X197231470Y-81588350D01*
X197210953Y-81600647D01*
X197189329Y-81610875D01*
X197166807Y-81618933D01*
X197143603Y-81624745D01*
X197119942Y-81628255D01*
X197096050Y-81629429D01*
X196608550Y-81629429D01*
X196584658Y-81628255D01*
X196560997Y-81624745D01*
X196537793Y-81618933D01*
X196515271Y-81610875D01*
X196493647Y-81600647D01*
X196473130Y-81588350D01*
X196453917Y-81574100D01*
X196436193Y-81558036D01*
X196420129Y-81540312D01*
X196405879Y-81521099D01*
X196393582Y-81500582D01*
X196383354Y-81478958D01*
X196375296Y-81456436D01*
X196369484Y-81433232D01*
X196365974Y-81409571D01*
X196364800Y-81385679D01*
X196364800Y-80473179D01*
X196365974Y-80449287D01*
X196369484Y-80425626D01*
X196375296Y-80402422D01*
X196383354Y-80379900D01*
X196393582Y-80358276D01*
X196405879Y-80337759D01*
X196420129Y-80318546D01*
X196436193Y-80300822D01*
X196453917Y-80284758D01*
X196473130Y-80270508D01*
X196493647Y-80258211D01*
X196515271Y-80247983D01*
X196537793Y-80239925D01*
X196560997Y-80234113D01*
X196584658Y-80230603D01*
X196608550Y-80229429D01*
X197096050Y-80229429D01*
X197119942Y-80230603D01*
G37*
G36*
X206905942Y-98398603D02*
G01*
X206929603Y-98402113D01*
X206952807Y-98407925D01*
X206975329Y-98415983D01*
X206996953Y-98426211D01*
X207017470Y-98438508D01*
X207036683Y-98452758D01*
X207054407Y-98468822D01*
X207070471Y-98486546D01*
X207084721Y-98505759D01*
X207097018Y-98526276D01*
X207107246Y-98547900D01*
X207115304Y-98570422D01*
X207121116Y-98593626D01*
X207124626Y-98617287D01*
X207125800Y-98641179D01*
X207125800Y-99128679D01*
X207124626Y-99152571D01*
X207121116Y-99176232D01*
X207115304Y-99199436D01*
X207107246Y-99221958D01*
X207097018Y-99243582D01*
X207084721Y-99264099D01*
X207070471Y-99283312D01*
X207054407Y-99301036D01*
X207036683Y-99317100D01*
X207017470Y-99331350D01*
X206996953Y-99343647D01*
X206975329Y-99353875D01*
X206952807Y-99361933D01*
X206929603Y-99367745D01*
X206905942Y-99371255D01*
X206882050Y-99372429D01*
X205969550Y-99372429D01*
X205945658Y-99371255D01*
X205921997Y-99367745D01*
X205898793Y-99361933D01*
X205876271Y-99353875D01*
X205854647Y-99343647D01*
X205834130Y-99331350D01*
X205814917Y-99317100D01*
X205797193Y-99301036D01*
X205781129Y-99283312D01*
X205766879Y-99264099D01*
X205754582Y-99243582D01*
X205744354Y-99221958D01*
X205736296Y-99199436D01*
X205730484Y-99176232D01*
X205726974Y-99152571D01*
X205725800Y-99128679D01*
X205725800Y-98641179D01*
X205726974Y-98617287D01*
X205730484Y-98593626D01*
X205736296Y-98570422D01*
X205744354Y-98547900D01*
X205754582Y-98526276D01*
X205766879Y-98505759D01*
X205781129Y-98486546D01*
X205797193Y-98468822D01*
X205814917Y-98452758D01*
X205834130Y-98438508D01*
X205854647Y-98426211D01*
X205876271Y-98415983D01*
X205898793Y-98407925D01*
X205921997Y-98402113D01*
X205945658Y-98398603D01*
X205969550Y-98397429D01*
X206882050Y-98397429D01*
X206905942Y-98398603D01*
G37*
G36*
X206905942Y-96523603D02*
G01*
X206929603Y-96527113D01*
X206952807Y-96532925D01*
X206975329Y-96540983D01*
X206996953Y-96551211D01*
X207017470Y-96563508D01*
X207036683Y-96577758D01*
X207054407Y-96593822D01*
X207070471Y-96611546D01*
X207084721Y-96630759D01*
X207097018Y-96651276D01*
X207107246Y-96672900D01*
X207115304Y-96695422D01*
X207121116Y-96718626D01*
X207124626Y-96742287D01*
X207125800Y-96766179D01*
X207125800Y-97253679D01*
X207124626Y-97277571D01*
X207121116Y-97301232D01*
X207115304Y-97324436D01*
X207107246Y-97346958D01*
X207097018Y-97368582D01*
X207084721Y-97389099D01*
X207070471Y-97408312D01*
X207054407Y-97426036D01*
X207036683Y-97442100D01*
X207017470Y-97456350D01*
X206996953Y-97468647D01*
X206975329Y-97478875D01*
X206952807Y-97486933D01*
X206929603Y-97492745D01*
X206905942Y-97496255D01*
X206882050Y-97497429D01*
X205969550Y-97497429D01*
X205945658Y-97496255D01*
X205921997Y-97492745D01*
X205898793Y-97486933D01*
X205876271Y-97478875D01*
X205854647Y-97468647D01*
X205834130Y-97456350D01*
X205814917Y-97442100D01*
X205797193Y-97426036D01*
X205781129Y-97408312D01*
X205766879Y-97389099D01*
X205754582Y-97368582D01*
X205744354Y-97346958D01*
X205736296Y-97324436D01*
X205730484Y-97301232D01*
X205726974Y-97277571D01*
X205725800Y-97253679D01*
X205725800Y-96766179D01*
X205726974Y-96742287D01*
X205730484Y-96718626D01*
X205736296Y-96695422D01*
X205744354Y-96672900D01*
X205754582Y-96651276D01*
X205766879Y-96630759D01*
X205781129Y-96611546D01*
X205797193Y-96593822D01*
X205814917Y-96577758D01*
X205834130Y-96563508D01*
X205854647Y-96551211D01*
X205876271Y-96540983D01*
X205898793Y-96532925D01*
X205921997Y-96527113D01*
X205945658Y-96523603D01*
X205969550Y-96522429D01*
X206882050Y-96522429D01*
X206905942Y-96523603D01*
G37*
G36*
X199325142Y-114520603D02*
G01*
X199348803Y-114524113D01*
X199372007Y-114529925D01*
X199394529Y-114537983D01*
X199416153Y-114548211D01*
X199436670Y-114560508D01*
X199455883Y-114574758D01*
X199473607Y-114590822D01*
X199489671Y-114608546D01*
X199503921Y-114627759D01*
X199516218Y-114648276D01*
X199526446Y-114669900D01*
X199534504Y-114692422D01*
X199540316Y-114715626D01*
X199543826Y-114739287D01*
X199545000Y-114763179D01*
X199545000Y-115675679D01*
X199543826Y-115699571D01*
X199540316Y-115723232D01*
X199534504Y-115746436D01*
X199526446Y-115768958D01*
X199516218Y-115790582D01*
X199503921Y-115811099D01*
X199489671Y-115830312D01*
X199473607Y-115848036D01*
X199455883Y-115864100D01*
X199436670Y-115878350D01*
X199416153Y-115890647D01*
X199394529Y-115900875D01*
X199372007Y-115908933D01*
X199348803Y-115914745D01*
X199325142Y-115918255D01*
X199301250Y-115919429D01*
X198813750Y-115919429D01*
X198789858Y-115918255D01*
X198766197Y-115914745D01*
X198742993Y-115908933D01*
X198720471Y-115900875D01*
X198698847Y-115890647D01*
X198678330Y-115878350D01*
X198659117Y-115864100D01*
X198641393Y-115848036D01*
X198625329Y-115830312D01*
X198611079Y-115811099D01*
X198598782Y-115790582D01*
X198588554Y-115768958D01*
X198580496Y-115746436D01*
X198574684Y-115723232D01*
X198571174Y-115699571D01*
X198570000Y-115675679D01*
X198570000Y-114763179D01*
X198571174Y-114739287D01*
X198574684Y-114715626D01*
X198580496Y-114692422D01*
X198588554Y-114669900D01*
X198598782Y-114648276D01*
X198611079Y-114627759D01*
X198625329Y-114608546D01*
X198641393Y-114590822D01*
X198659117Y-114574758D01*
X198678330Y-114560508D01*
X198698847Y-114548211D01*
X198720471Y-114537983D01*
X198742993Y-114529925D01*
X198766197Y-114524113D01*
X198789858Y-114520603D01*
X198813750Y-114519429D01*
X199301250Y-114519429D01*
X199325142Y-114520603D01*
G37*
G36*
X197450142Y-114520603D02*
G01*
X197473803Y-114524113D01*
X197497007Y-114529925D01*
X197519529Y-114537983D01*
X197541153Y-114548211D01*
X197561670Y-114560508D01*
X197580883Y-114574758D01*
X197598607Y-114590822D01*
X197614671Y-114608546D01*
X197628921Y-114627759D01*
X197641218Y-114648276D01*
X197651446Y-114669900D01*
X197659504Y-114692422D01*
X197665316Y-114715626D01*
X197668826Y-114739287D01*
X197670000Y-114763179D01*
X197670000Y-115675679D01*
X197668826Y-115699571D01*
X197665316Y-115723232D01*
X197659504Y-115746436D01*
X197651446Y-115768958D01*
X197641218Y-115790582D01*
X197628921Y-115811099D01*
X197614671Y-115830312D01*
X197598607Y-115848036D01*
X197580883Y-115864100D01*
X197561670Y-115878350D01*
X197541153Y-115890647D01*
X197519529Y-115900875D01*
X197497007Y-115908933D01*
X197473803Y-115914745D01*
X197450142Y-115918255D01*
X197426250Y-115919429D01*
X196938750Y-115919429D01*
X196914858Y-115918255D01*
X196891197Y-115914745D01*
X196867993Y-115908933D01*
X196845471Y-115900875D01*
X196823847Y-115890647D01*
X196803330Y-115878350D01*
X196784117Y-115864100D01*
X196766393Y-115848036D01*
X196750329Y-115830312D01*
X196736079Y-115811099D01*
X196723782Y-115790582D01*
X196713554Y-115768958D01*
X196705496Y-115746436D01*
X196699684Y-115723232D01*
X196696174Y-115699571D01*
X196695000Y-115675679D01*
X196695000Y-114763179D01*
X196696174Y-114739287D01*
X196699684Y-114715626D01*
X196705496Y-114692422D01*
X196713554Y-114669900D01*
X196723782Y-114648276D01*
X196736079Y-114627759D01*
X196750329Y-114608546D01*
X196766393Y-114590822D01*
X196784117Y-114574758D01*
X196803330Y-114560508D01*
X196823847Y-114548211D01*
X196845471Y-114537983D01*
X196867993Y-114529925D01*
X196891197Y-114524113D01*
X196914858Y-114520603D01*
X196938750Y-114519429D01*
X197426250Y-114519429D01*
X197450142Y-114520603D01*
G37*
G36*
X189570442Y-96333103D02*
G01*
X189594103Y-96336613D01*
X189617307Y-96342425D01*
X189639829Y-96350483D01*
X189661453Y-96360711D01*
X189681970Y-96373008D01*
X189701183Y-96387258D01*
X189718907Y-96403322D01*
X189734971Y-96421046D01*
X189749221Y-96440259D01*
X189761518Y-96460776D01*
X189771746Y-96482400D01*
X189779804Y-96504922D01*
X189785616Y-96528126D01*
X189789126Y-96551787D01*
X189790300Y-96575679D01*
X189790300Y-97063179D01*
X189789126Y-97087071D01*
X189785616Y-97110732D01*
X189779804Y-97133936D01*
X189771746Y-97156458D01*
X189761518Y-97178082D01*
X189749221Y-97198599D01*
X189734971Y-97217812D01*
X189718907Y-97235536D01*
X189701183Y-97251600D01*
X189681970Y-97265850D01*
X189661453Y-97278147D01*
X189639829Y-97288375D01*
X189617307Y-97296433D01*
X189594103Y-97302245D01*
X189570442Y-97305755D01*
X189546550Y-97306929D01*
X188634050Y-97306929D01*
X188610158Y-97305755D01*
X188586497Y-97302245D01*
X188563293Y-97296433D01*
X188540771Y-97288375D01*
X188519147Y-97278147D01*
X188498630Y-97265850D01*
X188479417Y-97251600D01*
X188461693Y-97235536D01*
X188445629Y-97217812D01*
X188431379Y-97198599D01*
X188419082Y-97178082D01*
X188408854Y-97156458D01*
X188400796Y-97133936D01*
X188394984Y-97110732D01*
X188391474Y-97087071D01*
X188390300Y-97063179D01*
X188390300Y-96575679D01*
X188391474Y-96551787D01*
X188394984Y-96528126D01*
X188400796Y-96504922D01*
X188408854Y-96482400D01*
X188419082Y-96460776D01*
X188431379Y-96440259D01*
X188445629Y-96421046D01*
X188461693Y-96403322D01*
X188479417Y-96387258D01*
X188498630Y-96373008D01*
X188519147Y-96360711D01*
X188540771Y-96350483D01*
X188563293Y-96342425D01*
X188586497Y-96336613D01*
X188610158Y-96333103D01*
X188634050Y-96331929D01*
X189546550Y-96331929D01*
X189570442Y-96333103D01*
G37*
G36*
X189570442Y-98208103D02*
G01*
X189594103Y-98211613D01*
X189617307Y-98217425D01*
X189639829Y-98225483D01*
X189661453Y-98235711D01*
X189681970Y-98248008D01*
X189701183Y-98262258D01*
X189718907Y-98278322D01*
X189734971Y-98296046D01*
X189749221Y-98315259D01*
X189761518Y-98335776D01*
X189771746Y-98357400D01*
X189779804Y-98379922D01*
X189785616Y-98403126D01*
X189789126Y-98426787D01*
X189790300Y-98450679D01*
X189790300Y-98938179D01*
X189789126Y-98962071D01*
X189785616Y-98985732D01*
X189779804Y-99008936D01*
X189771746Y-99031458D01*
X189761518Y-99053082D01*
X189749221Y-99073599D01*
X189734971Y-99092812D01*
X189718907Y-99110536D01*
X189701183Y-99126600D01*
X189681970Y-99140850D01*
X189661453Y-99153147D01*
X189639829Y-99163375D01*
X189617307Y-99171433D01*
X189594103Y-99177245D01*
X189570442Y-99180755D01*
X189546550Y-99181929D01*
X188634050Y-99181929D01*
X188610158Y-99180755D01*
X188586497Y-99177245D01*
X188563293Y-99171433D01*
X188540771Y-99163375D01*
X188519147Y-99153147D01*
X188498630Y-99140850D01*
X188479417Y-99126600D01*
X188461693Y-99110536D01*
X188445629Y-99092812D01*
X188431379Y-99073599D01*
X188419082Y-99053082D01*
X188408854Y-99031458D01*
X188400796Y-99008936D01*
X188394984Y-98985732D01*
X188391474Y-98962071D01*
X188390300Y-98938179D01*
X188390300Y-98450679D01*
X188391474Y-98426787D01*
X188394984Y-98403126D01*
X188400796Y-98379922D01*
X188408854Y-98357400D01*
X188419082Y-98335776D01*
X188431379Y-98315259D01*
X188445629Y-98296046D01*
X188461693Y-98278322D01*
X188479417Y-98262258D01*
X188498630Y-98248008D01*
X188519147Y-98235711D01*
X188540771Y-98225483D01*
X188563293Y-98217425D01*
X188586497Y-98211613D01*
X188610158Y-98208103D01*
X188634050Y-98206929D01*
X189546550Y-98206929D01*
X189570442Y-98208103D01*
G37*
G36*
X190088761Y-90846293D02*
G01*
X189487720Y-91447334D01*
X188356349Y-90315963D01*
X188957390Y-89714922D01*
X190088761Y-90846293D01*
G37*
G36*
X191326198Y-89608856D02*
G01*
X190725157Y-90209897D01*
X189593786Y-89078526D01*
X190194827Y-88477485D01*
X191326198Y-89608856D01*
G37*
G36*
X187613888Y-88371420D02*
G01*
X187012847Y-88972461D01*
X185881476Y-87841090D01*
X186482517Y-87240049D01*
X187613888Y-88371420D01*
G37*
G36*
X188851325Y-87133983D02*
G01*
X188250284Y-87735024D01*
X187118913Y-86603653D01*
X187719954Y-86002612D01*
X188851325Y-87133983D01*
G37*
D12*
X196927163Y-86709899D03*
X198677163Y-86709899D03*
X196927163Y-83209899D03*
X198677163Y-83209899D03*
D11*
G36*
X187957089Y-94319565D02*
G01*
X187631808Y-95104863D01*
X186153601Y-94492569D01*
X186478882Y-93707271D01*
X187957089Y-94319565D01*
G37*
G36*
X188626785Y-92702775D02*
G01*
X188301504Y-93488073D01*
X186823297Y-92875779D01*
X187148578Y-92090481D01*
X188626785Y-92702775D01*
G37*
G36*
X184723511Y-92980173D02*
G01*
X184398230Y-93765471D01*
X182920023Y-93153177D01*
X183245304Y-92367879D01*
X184723511Y-92980173D01*
G37*
G36*
X185393207Y-91363383D02*
G01*
X185067926Y-92148681D01*
X183589719Y-91536387D01*
X183915000Y-90751089D01*
X185393207Y-91363383D01*
G37*
D13*
X186512563Y-98770359D03*
X186512563Y-97020359D03*
X183012563Y-98770359D03*
X183012563Y-97020359D03*
D11*
G36*
X188260864Y-102307725D02*
G01*
X188586145Y-103093023D01*
X187107938Y-103705317D01*
X186782657Y-102920019D01*
X188260864Y-102307725D01*
G37*
G36*
X187591168Y-100690935D02*
G01*
X187916449Y-101476233D01*
X186438242Y-102088527D01*
X186112961Y-101303229D01*
X187591168Y-100690935D01*
G37*
G36*
X185027286Y-103647117D02*
G01*
X185352567Y-104432415D01*
X183874360Y-105044709D01*
X183549079Y-104259411D01*
X185027286Y-103647117D01*
G37*
G36*
X184357590Y-102030327D02*
G01*
X184682871Y-102815625D01*
X183204664Y-103427919D01*
X182879383Y-102642621D01*
X184357590Y-102030327D01*
G37*
G36*
X190651497Y-105601141D02*
G01*
X191252538Y-106202182D01*
X190121167Y-107333553D01*
X189520126Y-106732512D01*
X190651497Y-105601141D01*
G37*
G36*
X189414060Y-104363704D02*
G01*
X190015101Y-104964745D01*
X188883730Y-106096116D01*
X188282689Y-105495075D01*
X189414060Y-104363704D01*
G37*
G36*
X188176624Y-108076014D02*
G01*
X188777665Y-108677055D01*
X187646294Y-109808426D01*
X187045253Y-109207385D01*
X188176624Y-108076014D01*
G37*
G36*
X186939187Y-106838577D02*
G01*
X187540228Y-107439618D01*
X186408857Y-108570989D01*
X185807816Y-107969948D01*
X186939187Y-106838577D01*
G37*
G36*
X194122229Y-107740433D02*
G01*
X194907527Y-108065714D01*
X194295233Y-109543921D01*
X193509935Y-109218640D01*
X194122229Y-107740433D01*
G37*
G36*
X192505439Y-107070737D02*
G01*
X193290737Y-107396018D01*
X192678443Y-108874225D01*
X191893145Y-108548944D01*
X192505439Y-107070737D01*
G37*
G36*
X192782837Y-110974011D02*
G01*
X193568135Y-111299292D01*
X192955841Y-112777499D01*
X192170543Y-112452218D01*
X192782837Y-110974011D01*
G37*
G36*
X191166047Y-110304315D02*
G01*
X191951345Y-110629596D01*
X191339051Y-112107803D01*
X190553753Y-111782522D01*
X191166047Y-110304315D01*
G37*
D12*
X198573023Y-109184959D03*
X196823023Y-109184959D03*
X198573023Y-112684959D03*
X196823023Y-112684959D03*
D11*
G36*
X202112929Y-107436658D02*
G01*
X202898227Y-107111377D01*
X203510521Y-108589584D01*
X202725223Y-108914865D01*
X202112929Y-107436658D01*
G37*
G36*
X200496139Y-108106354D02*
G01*
X201281437Y-107781073D01*
X201893731Y-109259280D01*
X201108433Y-109584561D01*
X200496139Y-108106354D01*
G37*
G36*
X203452321Y-110670236D02*
G01*
X204237619Y-110344955D01*
X204849913Y-111823162D01*
X204064615Y-112148443D01*
X203452321Y-110670236D01*
G37*
G36*
X201835531Y-111339932D02*
G01*
X202620829Y-111014651D01*
X203233123Y-112492858D01*
X202447825Y-112818139D01*
X201835531Y-111339932D01*
G37*
G36*
X205406345Y-105048565D02*
G01*
X206007386Y-104447524D01*
X207138757Y-105578895D01*
X206537716Y-106179936D01*
X205406345Y-105048565D01*
G37*
G36*
X204168908Y-106286002D02*
G01*
X204769949Y-105684961D01*
X205901320Y-106816332D01*
X205300279Y-107417373D01*
X204168908Y-106286002D01*
G37*
G36*
X207881218Y-107523438D02*
G01*
X208482259Y-106922397D01*
X209613630Y-108053768D01*
X209012589Y-108654809D01*
X207881218Y-107523438D01*
G37*
G36*
X206643781Y-108760875D02*
G01*
X207244822Y-108159834D01*
X208376193Y-109291205D01*
X207775152Y-109892246D01*
X206643781Y-108760875D01*
G37*
G36*
X207545637Y-101570213D02*
G01*
X207870918Y-100784915D01*
X209349125Y-101397209D01*
X209023844Y-102182507D01*
X207545637Y-101570213D01*
G37*
G36*
X206875941Y-103187003D02*
G01*
X207201222Y-102401705D01*
X208679429Y-103013999D01*
X208354148Y-103799297D01*
X206875941Y-103187003D01*
G37*
G36*
X210779215Y-102909605D02*
G01*
X211104496Y-102124307D01*
X212582703Y-102736601D01*
X212257422Y-103521899D01*
X210779215Y-102909605D01*
G37*
G36*
X210109519Y-104526395D02*
G01*
X210434800Y-103741097D01*
X211913007Y-104353391D01*
X211587726Y-105138689D01*
X210109519Y-104526395D01*
G37*
D13*
X208987623Y-97121959D03*
X208987623Y-98871959D03*
X212487623Y-97121959D03*
X212487623Y-98871959D03*
D11*
G36*
X207239322Y-93587133D02*
G01*
X206914041Y-92801835D01*
X208392248Y-92189541D01*
X208717529Y-92974839D01*
X207239322Y-93587133D01*
G37*
G36*
X207909018Y-95203923D02*
G01*
X207583737Y-94418625D01*
X209061944Y-93806331D01*
X209387225Y-94591629D01*
X207909018Y-95203923D01*
G37*
G36*
X210472900Y-92247741D02*
G01*
X210147619Y-91462443D01*
X211625826Y-90850149D01*
X211951107Y-91635447D01*
X210472900Y-92247741D01*
G37*
G36*
X211142596Y-93864531D02*
G01*
X210817315Y-93079233D01*
X212295522Y-92466939D01*
X212620803Y-93252237D01*
X211142596Y-93864531D01*
G37*
G36*
X204848689Y-90293717D02*
G01*
X204247648Y-89692676D01*
X205379019Y-88561305D01*
X205980060Y-89162346D01*
X204848689Y-90293717D01*
G37*
G36*
X206086126Y-91531154D02*
G01*
X205485085Y-90930113D01*
X206616456Y-89798742D01*
X207217497Y-90399783D01*
X206086126Y-91531154D01*
G37*
G36*
X207323562Y-87818844D02*
G01*
X206722521Y-87217803D01*
X207853892Y-86086432D01*
X208454933Y-86687473D01*
X207323562Y-87818844D01*
G37*
G36*
X208560999Y-89056281D02*
G01*
X207959958Y-88455240D01*
X209091329Y-87323869D01*
X209692370Y-87924910D01*
X208560999Y-89056281D01*
G37*
M02*
