M48
INCH,TZ
T1C0.0157
T2C0.0394
T3C0.0787
T4C0.0866
%
G90
G05
T1
X69370Y-44900
X69670Y-44200
X69670Y-48200
X69910Y-29830
X69970Y-44800
X70270Y-43600
X70348Y-47978
X70355Y-30300
X70670Y-44200
X70900Y-29100
X70970Y-43500
X71108Y-38210
X71500Y-36000
X71680Y-40740
X72180Y-45350
X72190Y-46200
X72410Y-34660
X72960Y-42950
X73000Y-47200
X73208Y-33510
X73550Y-37610
X75508Y-32310
X78800Y-32200
X79200Y-32257
X79308Y-45110
X79600Y-31700
X80580Y-31860
X80600Y-32700
X80600Y-39700
X80700Y-26150
X81053Y-28823
X81053Y-29900
X81100Y-43600
X81300Y-32100
X82110Y-30800
X82147Y-26413
X82240Y-32930
X82511Y-34101
X82560Y-28960
X82630Y-25813
X83000Y-35370
X83656Y-31734
X84023Y-41688
X84050Y-36990
X84195Y-34440
X84557Y-30790
X84593Y-28685
X84600Y-28110
X84600Y-29200
X84657Y-29995
X84710Y-33190
X84710Y-35510
X85157Y-31617
X85227Y-36430
X85340Y-27520
X85408Y-32710
X85708Y-25510
X85760Y-34470
X85805Y-26793
X85808Y-27210
X85908Y-26049
X85943Y-28700
X85943Y-29710
X85943Y-30200
X86214Y-26709
T2
X72908Y-45262
X72908Y-50971
X73892Y-45262
X74876Y-45262
X74876Y-50971
X76901Y-35637
X76901Y-41346
X77886Y-35637
X78870Y-35637
X78870Y-41346
T3
X76876Y-30440
X77861Y-30440
X78845Y-30440
X80895Y-45312
X81879Y-45312
X82864Y-45312
T4
X71687Y-48215
X76097Y-48215
X75681Y-38590
X80090Y-38590
T3
G00X75990Y-27192
M15
G01X75990Y-27783
M16
G05
G00X79731Y-27192
M15
G01X79731Y-27783
M16
G05
G00X80009Y-48560
M15
G01X80009Y-47969
M16
G05
G00X83750Y-48560
M15
G01X83750Y-47969
M16
G05
T0
M30
