M48
INCH,TZ
T1C0.0157
T2C0.0394
T3C0.0787
T4C0.0866
%
G90
G05
T1
X69370Y-44900
X69640Y-46470
X69670Y-44200
X69740Y-29800
X69907Y-30330
X69970Y-44800
X70200Y-29500
X70270Y-43600
X70320Y-46820
X70670Y-44200
X70960Y-51380
X70970Y-43500
X70980Y-47030
X71108Y-38210
X71141Y-46389
X71500Y-36000
X71680Y-40740
X71680Y-46840
X71980Y-49970
X72410Y-34660
X72910Y-46480
X72960Y-42950
X73208Y-33510
X73550Y-37610
X74840Y-52480
X74920Y-46810
X75508Y-32310
X76790Y-50360
X76810Y-52270
X78390Y-47240
X78800Y-32200
X78880Y-50070
X79200Y-32257
X79308Y-45110
X79308Y-52042
X79600Y-31700
X79840Y-32470
X79870Y-50717
X80120Y-29940
X80580Y-31860
X80600Y-32700
X80600Y-39700
X80700Y-26150
X80800Y-50010
X80850Y-52160
X80870Y-36600
X81053Y-28823
X81053Y-30167
X81100Y-43600
X81300Y-32100
X81850Y-49850
X82110Y-29910
X82147Y-26413
X82290Y-48770
X82511Y-34101
X82560Y-28960
X82560Y-32690
X82630Y-25813
X82973Y-33437
X83000Y-35370
X83010Y-41940
X83140Y-37400
X83520Y-34860
X83646Y-31970
X83890Y-49707
X83955Y-29499
X84023Y-36995
X84134Y-49993
X84150Y-28490
X84161Y-32574
X84178Y-30418
X84220Y-51810
X84223Y-31030
X84330Y-34860
X84500Y-30100
X84640Y-29080
X84660Y-51900
X84790Y-27980
X84817Y-29411
X84823Y-33620
X84907Y-32306
X84907Y-37729
X85080Y-51870
X85242Y-49905
X85243Y-43682
X85260Y-50280
X85337Y-35816
X85340Y-27520
X85376Y-32034
X85408Y-32710
X85447Y-50605
X85460Y-52050
X85477Y-36191
X85708Y-25510
X85805Y-26793
X85808Y-27210
X85908Y-26049
X85943Y-28700
X85943Y-29710
X86140Y-30100
X86214Y-26709
X86220Y-31050
T2
X72908Y-45262
X73892Y-45262
X74876Y-45262
X76901Y-35637
X76901Y-41346
X77886Y-35637
X78870Y-35637
X78870Y-41346
T3
X76876Y-30440
X77861Y-30440
X78845Y-30440
X80895Y-45312
X81879Y-45312
X82864Y-45312
T4
X71687Y-48215
X76097Y-48215
X75681Y-38590
X80090Y-38590
T3
G00X75990Y-27192
M15
G01X75990Y-27783
M16
G05
G00X79731Y-27192
M15
G01X79731Y-27783
M16
G05
G00X80009Y-48560
M15
G01X80009Y-47969
M16
G05
G00X83750Y-48560
M15
G01X83750Y-47969
M16
G05
T0
M30
