G04 #@! TF.GenerationSoftware,KiCad,Pcbnew,(5.1.5-0-10_14)*
G04 #@! TF.CreationDate,2020-01-23T10:54:37-08:00*
G04 #@! TF.ProjectId,AndyCabinets,416e6479-4361-4626-996e-6574732e6b69,rev?*
G04 #@! TF.SameCoordinates,Original*
G04 #@! TF.FileFunction,Legend,Bot*
G04 #@! TF.FilePolarity,Positive*
%FSLAX46Y46*%
G04 Gerber Fmt 4.6, Leading zero omitted, Abs format (unit mm)*
G04 Created by KiCad (PCBNEW (5.1.5-0-10_14)) date 2020-01-23 10:54:37*
%MOMM*%
%LPD*%
G04 APERTURE LIST*
%ADD10C,0.150000*%
%ADD11C,0.120000*%
G04 APERTURE END LIST*
D10*
X211872485Y-131103042D02*
X211205819Y-130912566D01*
X211682009Y-130722090D01*
X211205819Y-130531614D01*
X211872485Y-130341138D01*
X211729628Y-129960185D02*
X211729628Y-129626852D01*
X211205819Y-129483995D02*
X211205819Y-129960185D01*
X212205819Y-129960185D01*
X212205819Y-129483995D01*
X211253438Y-129103042D02*
X211205819Y-128960185D01*
X211205819Y-128722090D01*
X211253438Y-128626852D01*
X211301057Y-128579233D01*
X211396295Y-128531614D01*
X211491533Y-128531614D01*
X211586771Y-128579233D01*
X211634390Y-128626852D01*
X211682009Y-128722090D01*
X211729628Y-128912566D01*
X211777247Y-129007804D01*
X211824866Y-129055423D01*
X211920104Y-129103042D01*
X212015342Y-129103042D01*
X212110580Y-129055423D01*
X212158200Y-129007804D01*
X212205819Y-128912566D01*
X212205819Y-128674471D01*
X212158200Y-128531614D01*
X211205819Y-128103042D02*
X212205819Y-128103042D01*
X212205819Y-127722090D01*
X212158200Y-127626852D01*
X212110580Y-127579233D01*
X212015342Y-127531614D01*
X211872485Y-127531614D01*
X211777247Y-127579233D01*
X211729628Y-127626852D01*
X211682009Y-127722090D01*
X211682009Y-128103042D01*
X184875419Y-127950261D02*
X183875419Y-127616928D01*
X184875419Y-127283595D01*
X184256371Y-126950261D02*
X184256371Y-126188357D01*
X183875419Y-126569309D02*
X184637323Y-126569309D01*
X184700800Y-132947795D02*
X184748419Y-133043033D01*
X184748419Y-133185890D01*
X184700800Y-133328747D01*
X184605561Y-133423985D01*
X184510323Y-133471604D01*
X184319847Y-133519223D01*
X184176990Y-133519223D01*
X183986514Y-133471604D01*
X183891276Y-133423985D01*
X183796038Y-133328747D01*
X183748419Y-133185890D01*
X183748419Y-133090652D01*
X183796038Y-132947795D01*
X183843657Y-132900176D01*
X184176990Y-132900176D01*
X184176990Y-133090652D01*
X183748419Y-132471604D02*
X184748419Y-132471604D01*
X183748419Y-131900176D01*
X184748419Y-131900176D01*
X183748419Y-131423985D02*
X184748419Y-131423985D01*
X184748419Y-131185890D01*
X184700800Y-131043033D01*
X184605561Y-130947795D01*
X184510323Y-130900176D01*
X184319847Y-130852557D01*
X184176990Y-130852557D01*
X183986514Y-130900176D01*
X183891276Y-130947795D01*
X183796038Y-131043033D01*
X183748419Y-131185890D01*
X183748419Y-131423985D01*
X209564219Y-125184842D02*
X209564219Y-124565795D01*
X209183266Y-124899128D01*
X209183266Y-124756271D01*
X209135647Y-124661033D01*
X209088028Y-124613414D01*
X208992790Y-124565795D01*
X208754695Y-124565795D01*
X208659457Y-124613414D01*
X208611838Y-124661033D01*
X208564219Y-124756271D01*
X208564219Y-125041985D01*
X208611838Y-125137223D01*
X208659457Y-125184842D01*
X208659457Y-124137223D02*
X208611838Y-124089604D01*
X208564219Y-124137223D01*
X208611838Y-124184842D01*
X208659457Y-124137223D01*
X208564219Y-124137223D01*
X209564219Y-123756271D02*
X209564219Y-123137223D01*
X209183266Y-123470557D01*
X209183266Y-123327700D01*
X209135647Y-123232461D01*
X209088028Y-123184842D01*
X208992790Y-123137223D01*
X208754695Y-123137223D01*
X208659457Y-123184842D01*
X208611838Y-123232461D01*
X208564219Y-123327700D01*
X208564219Y-123613414D01*
X208611838Y-123708652D01*
X208659457Y-123756271D01*
X209230885Y-122803890D02*
X208564219Y-122565795D01*
X209230885Y-122327700D01*
D11*
X206832200Y-90068400D02*
X207238600Y-90068400D01*
X206806800Y-88138000D02*
X206806800Y-90068400D01*
X206425800Y-88138000D02*
X206806800Y-88138000D01*
X206819500Y-72217229D02*
X206819500Y-73202800D01*
X206375000Y-74422000D02*
X206171800Y-74422000D01*
X206375000Y-74757229D02*
X206375000Y-74422000D01*
X206476600Y-80822800D02*
X206222600Y-80822800D01*
X206476600Y-77292200D02*
X206476600Y-80817771D01*
X206933800Y-82245200D02*
X206324200Y-82245200D01*
X206933800Y-79964229D02*
X206933800Y-82245200D01*
X188163200Y-72237600D02*
X188010800Y-72237600D01*
X188163200Y-73304400D02*
X188163200Y-72237600D01*
X188620400Y-73304400D02*
X188163200Y-73304400D01*
X188468000Y-76801929D02*
X188722000Y-76801929D01*
X188468000Y-80797400D02*
X188722000Y-80797400D01*
X188341000Y-90009929D02*
X188658500Y-90009929D01*
X188595000Y-87469929D02*
X188722000Y-87469929D01*
X188531500Y-85247429D02*
X188722000Y-85247429D01*
X188468000Y-83723429D02*
X188722000Y-83723429D01*
X208153000Y-83456729D02*
X206502000Y-83456729D01*
X208153000Y-82377229D02*
X208153000Y-83456729D01*
X206502000Y-84980729D02*
X207137000Y-84980729D01*
X208407000Y-86441229D02*
X206502000Y-86441229D01*
X208407000Y-87457229D02*
X208407000Y-86441229D01*
X210439000Y-92537229D02*
X206819500Y-92537229D01*
X207200500Y-95140729D02*
X206819500Y-95140729D01*
X206819500Y-72217229D02*
X210439000Y-72217229D01*
X206248000Y-73202800D02*
X206819500Y-73202800D01*
X184785000Y-74769929D02*
X188658500Y-74769929D01*
X188468000Y-77246429D02*
X188468000Y-76801929D01*
X188150500Y-77246429D02*
X188468000Y-77246429D01*
X188468000Y-80797400D02*
X188468000Y-79849929D01*
X184848500Y-79849929D02*
X188468000Y-79849929D01*
X188468000Y-82326429D02*
X188468000Y-83723429D01*
X188087000Y-82326429D02*
X188468000Y-82326429D01*
X187769500Y-85247429D02*
X188531500Y-85247429D01*
X187769500Y-84866429D02*
X187769500Y-85247429D01*
X184785000Y-84866429D02*
X187769500Y-84866429D01*
X188595000Y-87469929D02*
X188150500Y-87469929D01*
X188341000Y-90009929D02*
X184785000Y-90009929D01*
X188150500Y-92549929D02*
X188658500Y-92549929D01*
X184912000Y-95089929D02*
X188658500Y-95089929D01*
X206375000Y-74757229D02*
X207137000Y-74757229D01*
X206476600Y-77297229D02*
X210439000Y-77297229D01*
X206933800Y-79964229D02*
X207137000Y-79964229D01*
X208153000Y-82377229D02*
X210439000Y-82377229D01*
X208407000Y-87457229D02*
X210439000Y-87457229D01*
D10*
X206054189Y-92116609D02*
X205435142Y-92116609D01*
X205768475Y-92497562D01*
X205625618Y-92497562D01*
X205530380Y-92545181D01*
X205482761Y-92592800D01*
X205435142Y-92688038D01*
X205435142Y-92926133D01*
X205482761Y-93021371D01*
X205530380Y-93068990D01*
X205625618Y-93116609D01*
X205911332Y-93116609D01*
X206006570Y-93068990D01*
X206054189Y-93021371D01*
X204577999Y-92116609D02*
X204768475Y-92116609D01*
X204863713Y-92164229D01*
X204911332Y-92211848D01*
X205006570Y-92354705D01*
X205054189Y-92545181D01*
X205054189Y-92926133D01*
X205006570Y-93021371D01*
X204958951Y-93068990D01*
X204863713Y-93116609D01*
X204673237Y-93116609D01*
X204577999Y-93068990D01*
X204530380Y-93021371D01*
X204482761Y-92926133D01*
X204482761Y-92688038D01*
X204530380Y-92592800D01*
X204577999Y-92545181D01*
X204673237Y-92497562D01*
X204863713Y-92497562D01*
X204958951Y-92545181D01*
X205006570Y-92592800D01*
X205054189Y-92688038D01*
X202720856Y-93021371D02*
X202768475Y-93068990D01*
X202911332Y-93116609D01*
X203006570Y-93116609D01*
X203149427Y-93068990D01*
X203244666Y-92973752D01*
X203292285Y-92878514D01*
X203339904Y-92688038D01*
X203339904Y-92545181D01*
X203292285Y-92354705D01*
X203244666Y-92259467D01*
X203149427Y-92164229D01*
X203006570Y-92116609D01*
X202911332Y-92116609D01*
X202768475Y-92164229D01*
X202720856Y-92211848D01*
X202101808Y-92116609D02*
X201911332Y-92116609D01*
X201816094Y-92164229D01*
X201720856Y-92259467D01*
X201673237Y-92449943D01*
X201673237Y-92783276D01*
X201720856Y-92973752D01*
X201816094Y-93068990D01*
X201911332Y-93116609D01*
X202101808Y-93116609D01*
X202197047Y-93068990D01*
X202292285Y-92973752D01*
X202339904Y-92783276D01*
X202339904Y-92449943D01*
X202292285Y-92259467D01*
X202197047Y-92164229D01*
X202101808Y-92116609D01*
X200768475Y-93116609D02*
X201244666Y-93116609D01*
X201244666Y-92116609D01*
X200244666Y-92116609D02*
X200054189Y-92116609D01*
X199958951Y-92164229D01*
X199863713Y-92259467D01*
X199816094Y-92449943D01*
X199816094Y-92783276D01*
X199863713Y-92973752D01*
X199958951Y-93068990D01*
X200054189Y-93116609D01*
X200244666Y-93116609D01*
X200339904Y-93068990D01*
X200435142Y-92973752D01*
X200482761Y-92783276D01*
X200482761Y-92449943D01*
X200435142Y-92259467D01*
X200339904Y-92164229D01*
X200244666Y-92116609D01*
X198816094Y-93116609D02*
X199149427Y-92640419D01*
X199387523Y-93116609D02*
X199387523Y-92116609D01*
X199006570Y-92116609D01*
X198911332Y-92164229D01*
X198863713Y-92211848D01*
X198816094Y-92307086D01*
X198816094Y-92449943D01*
X198863713Y-92545181D01*
X198911332Y-92592800D01*
X199006570Y-92640419D01*
X199387523Y-92640419D01*
X198625618Y-93211848D02*
X197863713Y-93211848D01*
X197673237Y-92830895D02*
X197197047Y-92830895D01*
X197768475Y-93116609D02*
X197435142Y-92116609D01*
X197101808Y-93116609D01*
X205435142Y-73655180D02*
X206006570Y-73655180D01*
X205720856Y-73655180D02*
X205720856Y-72655180D01*
X205816094Y-72798038D01*
X205911332Y-72893276D01*
X206006570Y-72940895D01*
X205101808Y-72655180D02*
X204482761Y-72655180D01*
X204816094Y-73036133D01*
X204673237Y-73036133D01*
X204577999Y-73083752D01*
X204530380Y-73131371D01*
X204482761Y-73226609D01*
X204482761Y-73464704D01*
X204530380Y-73559942D01*
X204577999Y-73607561D01*
X204673237Y-73655180D01*
X204958951Y-73655180D01*
X205054189Y-73607561D01*
X205101808Y-73559942D01*
X203292285Y-73655180D02*
X203292285Y-72655180D01*
X202958951Y-73369466D01*
X202625618Y-72655180D01*
X202625618Y-73655180D01*
X201958951Y-72655180D02*
X201768475Y-72655180D01*
X201673237Y-72702800D01*
X201577999Y-72798038D01*
X201530380Y-72988514D01*
X201530380Y-73321847D01*
X201577999Y-73512323D01*
X201673237Y-73607561D01*
X201768475Y-73655180D01*
X201958951Y-73655180D01*
X202054189Y-73607561D01*
X202149427Y-73512323D01*
X202197047Y-73321847D01*
X202197047Y-72988514D01*
X202149427Y-72798038D01*
X202054189Y-72702800D01*
X201958951Y-72655180D01*
X201101808Y-73655180D02*
X201101808Y-72655180D01*
X200863713Y-72655180D01*
X200720856Y-72702800D01*
X200625618Y-72798038D01*
X200577999Y-72893276D01*
X200530380Y-73083752D01*
X200530380Y-73226609D01*
X200577999Y-73417085D01*
X200625618Y-73512323D01*
X200720856Y-73607561D01*
X200863713Y-73655180D01*
X201101808Y-73655180D01*
X200101808Y-73131371D02*
X199768475Y-73131371D01*
X199625618Y-73655180D02*
X200101808Y-73655180D01*
X200101808Y-72655180D01*
X199625618Y-72655180D01*
X199435142Y-73750419D02*
X198673237Y-73750419D01*
X198101808Y-73131371D02*
X197958951Y-73178990D01*
X197911332Y-73226609D01*
X197863713Y-73321847D01*
X197863713Y-73464704D01*
X197911332Y-73559942D01*
X197958951Y-73607561D01*
X198054189Y-73655180D01*
X198435142Y-73655180D01*
X198435142Y-72655180D01*
X198101808Y-72655180D01*
X198006570Y-72702800D01*
X197958951Y-72750419D01*
X197911332Y-72845657D01*
X197911332Y-72940895D01*
X197958951Y-73036133D01*
X198006570Y-73083752D01*
X198101808Y-73131371D01*
X198435142Y-73131371D01*
X205363195Y-74975980D02*
X205934623Y-74975980D01*
X205648909Y-74975980D02*
X205648909Y-73975980D01*
X205744147Y-74118838D01*
X205839385Y-74214076D01*
X205934623Y-74261695D01*
X204506052Y-74309314D02*
X204506052Y-74975980D01*
X204744147Y-73928361D02*
X204982242Y-74642647D01*
X204363195Y-74642647D01*
X203220338Y-74975980D02*
X203220338Y-73975980D01*
X202839385Y-73975980D01*
X202744147Y-74023600D01*
X202696528Y-74071219D01*
X202648909Y-74166457D01*
X202648909Y-74309314D01*
X202696528Y-74404552D01*
X202744147Y-74452171D01*
X202839385Y-74499790D01*
X203220338Y-74499790D01*
X201648909Y-74975980D02*
X201982242Y-74499790D01*
X202220338Y-74975980D02*
X202220338Y-73975980D01*
X201839385Y-73975980D01*
X201744147Y-74023600D01*
X201696528Y-74071219D01*
X201648909Y-74166457D01*
X201648909Y-74309314D01*
X201696528Y-74404552D01*
X201744147Y-74452171D01*
X201839385Y-74499790D01*
X202220338Y-74499790D01*
X201220338Y-74452171D02*
X200887004Y-74452171D01*
X200744147Y-74975980D02*
X201220338Y-74975980D01*
X201220338Y-73975980D01*
X200744147Y-73975980D01*
X200458433Y-73975980D02*
X200125100Y-74975980D01*
X199791766Y-73975980D01*
X199458433Y-74975980D02*
X199458433Y-73975980D01*
X198982242Y-74452171D02*
X198648909Y-74452171D01*
X198506052Y-74975980D02*
X198982242Y-74975980D01*
X198982242Y-73975980D01*
X198506052Y-73975980D01*
X198172719Y-73975980D02*
X197934623Y-74975980D01*
X197744147Y-74261695D01*
X197553671Y-74975980D01*
X197315576Y-73975980D01*
X205435142Y-81254809D02*
X206006570Y-81254809D01*
X205720856Y-81254809D02*
X205720856Y-80254809D01*
X205816094Y-80397667D01*
X205911332Y-80492905D01*
X206006570Y-80540524D01*
X204530380Y-80254809D02*
X205006570Y-80254809D01*
X205054189Y-80731000D01*
X205006570Y-80683381D01*
X204911332Y-80635762D01*
X204673237Y-80635762D01*
X204577999Y-80683381D01*
X204530380Y-80731000D01*
X204482761Y-80826238D01*
X204482761Y-81064333D01*
X204530380Y-81159571D01*
X204577999Y-81207190D01*
X204673237Y-81254809D01*
X204911332Y-81254809D01*
X205006570Y-81207190D01*
X205054189Y-81159571D01*
X203292285Y-81254809D02*
X203292285Y-80254809D01*
X202958951Y-80969095D01*
X202625618Y-80254809D01*
X202625618Y-81254809D01*
X201958951Y-80254809D02*
X201768475Y-80254809D01*
X201673237Y-80302429D01*
X201577999Y-80397667D01*
X201530380Y-80588143D01*
X201530380Y-80921476D01*
X201577999Y-81111952D01*
X201673237Y-81207190D01*
X201768475Y-81254809D01*
X201958951Y-81254809D01*
X202054189Y-81207190D01*
X202149427Y-81111952D01*
X202197047Y-80921476D01*
X202197047Y-80588143D01*
X202149427Y-80397667D01*
X202054189Y-80302429D01*
X201958951Y-80254809D01*
X201101808Y-81254809D02*
X201101808Y-80254809D01*
X200863713Y-80254809D01*
X200720856Y-80302429D01*
X200625618Y-80397667D01*
X200577999Y-80492905D01*
X200530380Y-80683381D01*
X200530380Y-80826238D01*
X200577999Y-81016714D01*
X200625618Y-81111952D01*
X200720856Y-81207190D01*
X200863713Y-81254809D01*
X201101808Y-81254809D01*
X200101808Y-80731000D02*
X199768475Y-80731000D01*
X199625618Y-81254809D02*
X200101808Y-81254809D01*
X200101808Y-80254809D01*
X199625618Y-80254809D01*
X199435142Y-81350048D02*
X198673237Y-81350048D01*
X198482761Y-80969095D02*
X198006570Y-80969095D01*
X198577999Y-81254809D02*
X198244666Y-80254809D01*
X197911332Y-81254809D01*
X205452095Y-82651809D02*
X206023523Y-82651809D01*
X205737809Y-82651809D02*
X205737809Y-81651809D01*
X205833047Y-81794667D01*
X205928285Y-81889905D01*
X206023523Y-81937524D01*
X204594952Y-81651809D02*
X204785428Y-81651809D01*
X204880666Y-81699429D01*
X204928285Y-81747048D01*
X205023523Y-81889905D01*
X205071142Y-82080381D01*
X205071142Y-82461333D01*
X205023523Y-82556571D01*
X204975904Y-82604190D01*
X204880666Y-82651809D01*
X204690190Y-82651809D01*
X204594952Y-82604190D01*
X204547333Y-82556571D01*
X204499714Y-82461333D01*
X204499714Y-82223238D01*
X204547333Y-82128000D01*
X204594952Y-82080381D01*
X204690190Y-82032762D01*
X204880666Y-82032762D01*
X204975904Y-82080381D01*
X205023523Y-82128000D01*
X205071142Y-82223238D01*
X203309238Y-82651809D02*
X203309238Y-81651809D01*
X202737809Y-82651809D01*
X202737809Y-81651809D01*
X201547333Y-81604190D02*
X202404476Y-82889905D01*
X200642571Y-82556571D02*
X200690190Y-82604190D01*
X200833047Y-82651809D01*
X200928285Y-82651809D01*
X201071142Y-82604190D01*
X201166380Y-82508952D01*
X201213999Y-82413714D01*
X201261619Y-82223238D01*
X201261619Y-82080381D01*
X201213999Y-81889905D01*
X201166380Y-81794667D01*
X201071142Y-81699429D01*
X200928285Y-81651809D01*
X200833047Y-81651809D01*
X200690190Y-81699429D01*
X200642571Y-81747048D01*
X193793423Y-73759961D02*
X193650566Y-73807580D01*
X193412471Y-73807580D01*
X193317233Y-73759961D01*
X193269614Y-73712342D01*
X193221995Y-73617104D01*
X193221995Y-73521866D01*
X193269614Y-73426628D01*
X193317233Y-73379009D01*
X193412471Y-73331390D01*
X193602947Y-73283771D01*
X193698185Y-73236152D01*
X193745804Y-73188533D01*
X193793423Y-73093295D01*
X193793423Y-72998057D01*
X193745804Y-72902819D01*
X193698185Y-72855200D01*
X193602947Y-72807580D01*
X193364852Y-72807580D01*
X193221995Y-72855200D01*
X192793423Y-73807580D02*
X192793423Y-72807580D01*
X192412471Y-72807580D01*
X192317233Y-72855200D01*
X192269614Y-72902819D01*
X192221995Y-72998057D01*
X192221995Y-73140914D01*
X192269614Y-73236152D01*
X192317233Y-73283771D01*
X192412471Y-73331390D01*
X192793423Y-73331390D01*
X191793423Y-73807580D02*
X191793423Y-72807580D01*
X191555328Y-73902819D02*
X190793423Y-73902819D01*
X189983900Y-73712342D02*
X190031519Y-73759961D01*
X190174376Y-73807580D01*
X190269614Y-73807580D01*
X190412471Y-73759961D01*
X190507709Y-73664723D01*
X190555328Y-73569485D01*
X190602947Y-73379009D01*
X190602947Y-73236152D01*
X190555328Y-73045676D01*
X190507709Y-72950438D01*
X190412471Y-72855200D01*
X190269614Y-72807580D01*
X190174376Y-72807580D01*
X190031519Y-72855200D01*
X189983900Y-72902819D01*
X189602947Y-73759961D02*
X189460090Y-73807580D01*
X189221995Y-73807580D01*
X189126757Y-73759961D01*
X189079138Y-73712342D01*
X189031519Y-73617104D01*
X189031519Y-73521866D01*
X189079138Y-73426628D01*
X189126757Y-73379009D01*
X189221995Y-73331390D01*
X189412471Y-73283771D01*
X189507709Y-73236152D01*
X189555328Y-73188533D01*
X189602947Y-73093295D01*
X189602947Y-72998057D01*
X189555328Y-72902819D01*
X189507709Y-72855200D01*
X189412471Y-72807580D01*
X189174376Y-72807580D01*
X189031519Y-72855200D01*
X193291404Y-74285809D02*
X193291404Y-75095333D01*
X193243785Y-75190571D01*
X193196166Y-75238190D01*
X193100928Y-75285809D01*
X192910452Y-75285809D01*
X192815214Y-75238190D01*
X192767595Y-75190571D01*
X192719976Y-75095333D01*
X192719976Y-74285809D01*
X191719976Y-75285809D02*
X192291404Y-75285809D01*
X192005690Y-75285809D02*
X192005690Y-74285809D01*
X192100928Y-74428667D01*
X192196166Y-74523905D01*
X192291404Y-74571524D01*
X191434261Y-74285809D02*
X190862833Y-74285809D01*
X191148547Y-75285809D02*
X191148547Y-74285809D01*
X190624738Y-74285809D02*
X189958071Y-75285809D01*
X189958071Y-74285809D02*
X190624738Y-75285809D01*
X189577119Y-75285809D02*
X189577119Y-74285809D01*
X189339023Y-74285809D01*
X189196166Y-74333429D01*
X189100928Y-74428667D01*
X189053309Y-74523905D01*
X189005690Y-74714381D01*
X189005690Y-74857238D01*
X189053309Y-75047714D01*
X189100928Y-75142952D01*
X189196166Y-75238190D01*
X189339023Y-75285809D01*
X189577119Y-75285809D01*
X193529499Y-76317809D02*
X193529499Y-77127333D01*
X193481880Y-77222571D01*
X193434261Y-77270190D01*
X193339023Y-77317809D01*
X193148547Y-77317809D01*
X193053309Y-77270190D01*
X193005690Y-77222571D01*
X192958071Y-77127333D01*
X192958071Y-76317809D01*
X192291404Y-76317809D02*
X192196166Y-76317809D01*
X192100928Y-76365429D01*
X192053309Y-76413048D01*
X192005690Y-76508286D01*
X191958071Y-76698762D01*
X191958071Y-76936857D01*
X192005690Y-77127333D01*
X192053309Y-77222571D01*
X192100928Y-77270190D01*
X192196166Y-77317809D01*
X192291404Y-77317809D01*
X192386642Y-77270190D01*
X192434261Y-77222571D01*
X192481880Y-77127333D01*
X192529499Y-76936857D01*
X192529499Y-76698762D01*
X192481880Y-76508286D01*
X192434261Y-76413048D01*
X192386642Y-76365429D01*
X192291404Y-76317809D01*
X190958071Y-77317809D02*
X191291404Y-76841619D01*
X191529499Y-77317809D02*
X191529499Y-76317809D01*
X191148547Y-76317809D01*
X191053309Y-76365429D01*
X191005690Y-76413048D01*
X190958071Y-76508286D01*
X190958071Y-76651143D01*
X191005690Y-76746381D01*
X191053309Y-76794000D01*
X191148547Y-76841619D01*
X191529499Y-76841619D01*
X190624737Y-76317809D02*
X189958071Y-77317809D01*
X189958071Y-76317809D02*
X190624737Y-77317809D01*
X189577118Y-77317809D02*
X189577118Y-76317809D01*
X189339023Y-76317809D01*
X189196166Y-76365429D01*
X189100928Y-76460667D01*
X189053309Y-76555905D01*
X189005690Y-76746381D01*
X189005690Y-76889238D01*
X189053309Y-77079714D01*
X189100928Y-77174952D01*
X189196166Y-77270190D01*
X189339023Y-77317809D01*
X189577118Y-77317809D01*
X196719975Y-81300580D02*
X196719975Y-80300580D01*
X196719975Y-80776771D02*
X196148547Y-80776771D01*
X196148547Y-81300580D02*
X196148547Y-80300580D01*
X195719975Y-81252961D02*
X195577118Y-81300580D01*
X195339023Y-81300580D01*
X195243785Y-81252961D01*
X195196166Y-81205342D01*
X195148547Y-81110104D01*
X195148547Y-81014866D01*
X195196166Y-80919628D01*
X195243785Y-80872009D01*
X195339023Y-80824390D01*
X195529499Y-80776771D01*
X195624737Y-80729152D01*
X195672356Y-80681533D01*
X195719975Y-80586295D01*
X195719975Y-80491057D01*
X195672356Y-80395819D01*
X195624737Y-80348200D01*
X195529499Y-80300580D01*
X195291404Y-80300580D01*
X195148547Y-80348200D01*
X194767594Y-80395819D02*
X194719975Y-80348200D01*
X194624737Y-80300580D01*
X194386642Y-80300580D01*
X194291404Y-80348200D01*
X194243785Y-80395819D01*
X194196166Y-80491057D01*
X194196166Y-80586295D01*
X194243785Y-80729152D01*
X194815213Y-81300580D01*
X194196166Y-81300580D01*
X194005690Y-81395819D02*
X193243785Y-81395819D01*
X193005690Y-81300580D02*
X193005690Y-80300580D01*
X192767594Y-80300580D01*
X192624737Y-80348200D01*
X192529499Y-80443438D01*
X192481880Y-80538676D01*
X192434261Y-80729152D01*
X192434261Y-80872009D01*
X192481880Y-81062485D01*
X192529499Y-81157723D01*
X192624737Y-81252961D01*
X192767594Y-81300580D01*
X193005690Y-81300580D01*
X192053309Y-81014866D02*
X191577118Y-81014866D01*
X192148547Y-81300580D02*
X191815213Y-80300580D01*
X191481880Y-81300580D01*
X191291404Y-80300580D02*
X190719975Y-80300580D01*
X191005690Y-81300580D02*
X191005690Y-80300580D01*
X190434261Y-81014866D02*
X189958071Y-81014866D01*
X190529499Y-81300580D02*
X190196166Y-80300580D01*
X189862832Y-81300580D01*
X189339023Y-80300580D02*
X189243785Y-80300580D01*
X189148547Y-80348200D01*
X189100928Y-80395819D01*
X189053309Y-80491057D01*
X189005690Y-80681533D01*
X189005690Y-80919628D01*
X189053309Y-81110104D01*
X189100928Y-81205342D01*
X189148547Y-81252961D01*
X189243785Y-81300580D01*
X189339023Y-81300580D01*
X189434261Y-81252961D01*
X189481880Y-81205342D01*
X189529499Y-81110104D01*
X189577118Y-80919628D01*
X189577118Y-80681533D01*
X189529499Y-80491057D01*
X189481880Y-80395819D01*
X189434261Y-80348200D01*
X189339023Y-80300580D01*
X193291404Y-83175809D02*
X193291404Y-83985333D01*
X193243785Y-84080571D01*
X193196166Y-84128190D01*
X193100928Y-84175809D01*
X192910452Y-84175809D01*
X192815214Y-84128190D01*
X192767595Y-84080571D01*
X192719976Y-83985333D01*
X192719976Y-83175809D01*
X192053309Y-83175809D02*
X191958071Y-83175809D01*
X191862833Y-83223429D01*
X191815214Y-83271048D01*
X191767595Y-83366286D01*
X191719976Y-83556762D01*
X191719976Y-83794857D01*
X191767595Y-83985333D01*
X191815214Y-84080571D01*
X191862833Y-84128190D01*
X191958071Y-84175809D01*
X192053309Y-84175809D01*
X192148547Y-84128190D01*
X192196166Y-84080571D01*
X192243785Y-83985333D01*
X192291404Y-83794857D01*
X192291404Y-83556762D01*
X192243785Y-83366286D01*
X192196166Y-83271048D01*
X192148547Y-83223429D01*
X192053309Y-83175809D01*
X191434261Y-83175809D02*
X190862833Y-83175809D01*
X191148547Y-84175809D02*
X191148547Y-83175809D01*
X190624738Y-83175809D02*
X189958071Y-84175809D01*
X189958071Y-83175809D02*
X190624738Y-84175809D01*
X189577119Y-84175809D02*
X189577119Y-83175809D01*
X189339023Y-83175809D01*
X189196166Y-83223429D01*
X189100928Y-83318667D01*
X189053309Y-83413905D01*
X189005690Y-83604381D01*
X189005690Y-83747238D01*
X189053309Y-83937714D01*
X189100928Y-84032952D01*
X189196166Y-84128190D01*
X189339023Y-84175809D01*
X189577119Y-84175809D01*
X193323595Y-84747429D02*
X193418833Y-84699809D01*
X193561690Y-84699809D01*
X193704547Y-84747429D01*
X193799785Y-84842667D01*
X193847404Y-84937905D01*
X193895023Y-85128381D01*
X193895023Y-85271238D01*
X193847404Y-85461714D01*
X193799785Y-85556952D01*
X193704547Y-85652190D01*
X193561690Y-85699809D01*
X193466452Y-85699809D01*
X193323595Y-85652190D01*
X193275976Y-85604571D01*
X193275976Y-85271238D01*
X193466452Y-85271238D01*
X192847404Y-85699809D02*
X192847404Y-84699809D01*
X192466452Y-84699809D01*
X192371214Y-84747429D01*
X192323595Y-84795048D01*
X192275976Y-84890286D01*
X192275976Y-85033143D01*
X192323595Y-85128381D01*
X192371214Y-85176000D01*
X192466452Y-85223619D01*
X192847404Y-85223619D01*
X191847404Y-85699809D02*
X191847404Y-84699809D01*
X191180738Y-84699809D02*
X190990261Y-84699809D01*
X190895023Y-84747429D01*
X190799785Y-84842667D01*
X190752166Y-85033143D01*
X190752166Y-85366476D01*
X190799785Y-85556952D01*
X190895023Y-85652190D01*
X190990261Y-85699809D01*
X191180738Y-85699809D01*
X191275976Y-85652190D01*
X191371214Y-85556952D01*
X191418833Y-85366476D01*
X191418833Y-85033143D01*
X191371214Y-84842667D01*
X191275976Y-84747429D01*
X191180738Y-84699809D01*
X189371214Y-84699809D02*
X189275976Y-84699809D01*
X189180738Y-84747429D01*
X189133119Y-84795048D01*
X189085500Y-84890286D01*
X189037880Y-85080762D01*
X189037880Y-85318857D01*
X189085500Y-85509333D01*
X189133119Y-85604571D01*
X189180738Y-85652190D01*
X189275976Y-85699809D01*
X189371214Y-85699809D01*
X189466452Y-85652190D01*
X189514071Y-85604571D01*
X189561690Y-85509333D01*
X189609309Y-85318857D01*
X189609309Y-85080762D01*
X189561690Y-84890286D01*
X189514071Y-84795048D01*
X189466452Y-84747429D01*
X189371214Y-84699809D01*
X190529499Y-87462000D02*
X190196166Y-87462000D01*
X190053309Y-87985809D02*
X190529499Y-87985809D01*
X190529499Y-86985809D01*
X190053309Y-86985809D01*
X189624737Y-87985809D02*
X189624737Y-86985809D01*
X189053309Y-87985809D01*
X189053309Y-86985809D01*
X206054189Y-82972609D02*
X205435142Y-82972609D01*
X205768475Y-83353562D01*
X205625618Y-83353562D01*
X205530380Y-83401181D01*
X205482761Y-83448800D01*
X205435142Y-83544038D01*
X205435142Y-83782133D01*
X205482761Y-83877371D01*
X205530380Y-83924990D01*
X205625618Y-83972609D01*
X205911332Y-83972609D01*
X206006570Y-83924990D01*
X206054189Y-83877371D01*
X205054189Y-83067848D02*
X205006570Y-83020229D01*
X204911332Y-82972609D01*
X204673237Y-82972609D01*
X204577999Y-83020229D01*
X204530380Y-83067848D01*
X204482761Y-83163086D01*
X204482761Y-83258324D01*
X204530380Y-83401181D01*
X205101808Y-83972609D01*
X204482761Y-83972609D01*
X203292285Y-83972609D02*
X203292285Y-82972609D01*
X202958951Y-83686895D01*
X202625618Y-82972609D01*
X202625618Y-83972609D01*
X201958951Y-82972609D02*
X201768475Y-82972609D01*
X201673237Y-83020229D01*
X201577999Y-83115467D01*
X201530380Y-83305943D01*
X201530380Y-83639276D01*
X201577999Y-83829752D01*
X201673237Y-83924990D01*
X201768475Y-83972609D01*
X201958951Y-83972609D01*
X202054189Y-83924990D01*
X202149427Y-83829752D01*
X202197047Y-83639276D01*
X202197047Y-83305943D01*
X202149427Y-83115467D01*
X202054189Y-83020229D01*
X201958951Y-82972609D01*
X201101808Y-83972609D02*
X201101808Y-82972609D01*
X200863713Y-82972609D01*
X200720856Y-83020229D01*
X200625618Y-83115467D01*
X200577999Y-83210705D01*
X200530380Y-83401181D01*
X200530380Y-83544038D01*
X200577999Y-83734514D01*
X200625618Y-83829752D01*
X200720856Y-83924990D01*
X200863713Y-83972609D01*
X201101808Y-83972609D01*
X200101808Y-83448800D02*
X199768475Y-83448800D01*
X199625618Y-83972609D02*
X200101808Y-83972609D01*
X200101808Y-82972609D01*
X199625618Y-82972609D01*
X199435142Y-84067848D02*
X198673237Y-84067848D01*
X198101808Y-83448800D02*
X197958951Y-83496419D01*
X197911332Y-83544038D01*
X197863713Y-83639276D01*
X197863713Y-83782133D01*
X197911332Y-83877371D01*
X197958951Y-83924990D01*
X198054189Y-83972609D01*
X198435142Y-83972609D01*
X198435142Y-82972609D01*
X198101808Y-82972609D01*
X198006570Y-83020229D01*
X197958951Y-83067848D01*
X197911332Y-83163086D01*
X197911332Y-83258324D01*
X197958951Y-83353562D01*
X198006570Y-83401181D01*
X198101808Y-83448800D01*
X198435142Y-83448800D01*
X197577999Y-82972609D02*
X197006570Y-82972609D01*
X197292285Y-83972609D02*
X197292285Y-82972609D01*
X196673237Y-83972609D02*
X196673237Y-82972609D01*
X196101808Y-83972609D01*
X196101808Y-82972609D01*
X206054189Y-84496609D02*
X205435142Y-84496609D01*
X205768475Y-84877562D01*
X205625618Y-84877562D01*
X205530380Y-84925181D01*
X205482761Y-84972800D01*
X205435142Y-85068038D01*
X205435142Y-85306133D01*
X205482761Y-85401371D01*
X205530380Y-85448990D01*
X205625618Y-85496609D01*
X205911332Y-85496609D01*
X206006570Y-85448990D01*
X206054189Y-85401371D01*
X205101808Y-84496609D02*
X204482761Y-84496609D01*
X204816094Y-84877562D01*
X204673237Y-84877562D01*
X204577999Y-84925181D01*
X204530380Y-84972800D01*
X204482761Y-85068038D01*
X204482761Y-85306133D01*
X204530380Y-85401371D01*
X204577999Y-85448990D01*
X204673237Y-85496609D01*
X204958951Y-85496609D01*
X205054189Y-85448990D01*
X205101808Y-85401371D01*
X203339904Y-85448990D02*
X203197047Y-85496609D01*
X202958951Y-85496609D01*
X202863713Y-85448990D01*
X202816094Y-85401371D01*
X202768475Y-85306133D01*
X202768475Y-85210895D01*
X202816094Y-85115657D01*
X202863713Y-85068038D01*
X202958951Y-85020419D01*
X203149427Y-84972800D01*
X203244666Y-84925181D01*
X203292285Y-84877562D01*
X203339904Y-84782324D01*
X203339904Y-84687086D01*
X203292285Y-84591848D01*
X203244666Y-84544229D01*
X203149427Y-84496609D01*
X202911332Y-84496609D01*
X202768475Y-84544229D01*
X202339904Y-85496609D02*
X202339904Y-84496609D01*
X201958951Y-84496609D01*
X201863713Y-84544229D01*
X201816094Y-84591848D01*
X201768475Y-84687086D01*
X201768475Y-84829943D01*
X201816094Y-84925181D01*
X201863713Y-84972800D01*
X201958951Y-85020419D01*
X202339904Y-85020419D01*
X201339904Y-84972800D02*
X201006570Y-84972800D01*
X200863713Y-85496609D02*
X201339904Y-85496609D01*
X201339904Y-84496609D01*
X200863713Y-84496609D01*
X200435142Y-84972800D02*
X200101808Y-84972800D01*
X199958951Y-85496609D02*
X200435142Y-85496609D01*
X200435142Y-84496609D01*
X199958951Y-84496609D01*
X199530380Y-85496609D02*
X199530380Y-84496609D01*
X199292285Y-84496609D01*
X199149427Y-84544229D01*
X199054189Y-84639467D01*
X199006570Y-84734705D01*
X198958951Y-84925181D01*
X198958951Y-85068038D01*
X199006570Y-85258514D01*
X199054189Y-85353752D01*
X199149427Y-85448990D01*
X199292285Y-85496609D01*
X199530380Y-85496609D01*
X206054189Y-85893609D02*
X205435142Y-85893609D01*
X205768475Y-86274562D01*
X205625618Y-86274562D01*
X205530380Y-86322181D01*
X205482761Y-86369800D01*
X205435142Y-86465038D01*
X205435142Y-86703133D01*
X205482761Y-86798371D01*
X205530380Y-86845990D01*
X205625618Y-86893609D01*
X205911332Y-86893609D01*
X206006570Y-86845990D01*
X206054189Y-86798371D01*
X204577999Y-86226943D02*
X204577999Y-86893609D01*
X204816094Y-85845990D02*
X205054189Y-86560276D01*
X204435142Y-86560276D01*
X202958951Y-86369800D02*
X202816094Y-86417419D01*
X202768475Y-86465038D01*
X202720856Y-86560276D01*
X202720856Y-86703133D01*
X202768475Y-86798371D01*
X202816094Y-86845990D01*
X202911332Y-86893609D01*
X203292285Y-86893609D01*
X203292285Y-85893609D01*
X202958951Y-85893609D01*
X202863713Y-85941229D01*
X202816094Y-85988848D01*
X202768475Y-86084086D01*
X202768475Y-86179324D01*
X202816094Y-86274562D01*
X202863713Y-86322181D01*
X202958951Y-86369800D01*
X203292285Y-86369800D01*
X201720856Y-86893609D02*
X202054189Y-86417419D01*
X202292285Y-86893609D02*
X202292285Y-85893609D01*
X201911332Y-85893609D01*
X201816094Y-85941229D01*
X201768475Y-85988848D01*
X201720856Y-86084086D01*
X201720856Y-86226943D01*
X201768475Y-86322181D01*
X201816094Y-86369800D01*
X201911332Y-86417419D01*
X202292285Y-86417419D01*
X201292285Y-86893609D02*
X201292285Y-85893609D01*
X200292285Y-85941229D02*
X200387523Y-85893609D01*
X200530380Y-85893609D01*
X200673237Y-85941229D01*
X200768475Y-86036467D01*
X200816094Y-86131705D01*
X200863713Y-86322181D01*
X200863713Y-86465038D01*
X200816094Y-86655514D01*
X200768475Y-86750752D01*
X200673237Y-86845990D01*
X200530380Y-86893609D01*
X200435142Y-86893609D01*
X200292285Y-86845990D01*
X200244666Y-86798371D01*
X200244666Y-86465038D01*
X200435142Y-86465038D01*
X199816094Y-86893609D02*
X199816094Y-85893609D01*
X199816094Y-86369800D02*
X199244666Y-86369800D01*
X199244666Y-86893609D02*
X199244666Y-85893609D01*
X198911332Y-85893609D02*
X198339904Y-85893609D01*
X198625618Y-86893609D02*
X198625618Y-85893609D01*
X206054189Y-94656609D02*
X205435142Y-94656609D01*
X205768475Y-95037562D01*
X205625618Y-95037562D01*
X205530380Y-95085181D01*
X205482761Y-95132800D01*
X205435142Y-95228038D01*
X205435142Y-95466133D01*
X205482761Y-95561371D01*
X205530380Y-95608990D01*
X205625618Y-95656609D01*
X205911332Y-95656609D01*
X206006570Y-95608990D01*
X206054189Y-95561371D01*
X204958951Y-95656609D02*
X204768475Y-95656609D01*
X204673237Y-95608990D01*
X204625618Y-95561371D01*
X204530380Y-95418514D01*
X204482761Y-95228038D01*
X204482761Y-94847086D01*
X204530380Y-94751848D01*
X204577999Y-94704229D01*
X204673237Y-94656609D01*
X204863713Y-94656609D01*
X204958951Y-94704229D01*
X205006570Y-94751848D01*
X205054189Y-94847086D01*
X205054189Y-95085181D01*
X205006570Y-95180419D01*
X204958951Y-95228038D01*
X204863713Y-95275657D01*
X204673237Y-95275657D01*
X204577999Y-95228038D01*
X204530380Y-95180419D01*
X204482761Y-95085181D01*
X202720856Y-95561371D02*
X202768475Y-95608990D01*
X202911332Y-95656609D01*
X203006570Y-95656609D01*
X203149427Y-95608990D01*
X203244666Y-95513752D01*
X203292285Y-95418514D01*
X203339904Y-95228038D01*
X203339904Y-95085181D01*
X203292285Y-94894705D01*
X203244666Y-94799467D01*
X203149427Y-94704229D01*
X203006570Y-94656609D01*
X202911332Y-94656609D01*
X202768475Y-94704229D01*
X202720856Y-94751848D01*
X202101808Y-94656609D02*
X201911332Y-94656609D01*
X201816094Y-94704229D01*
X201720856Y-94799467D01*
X201673237Y-94989943D01*
X201673237Y-95323276D01*
X201720856Y-95513752D01*
X201816094Y-95608990D01*
X201911332Y-95656609D01*
X202101808Y-95656609D01*
X202197047Y-95608990D01*
X202292285Y-95513752D01*
X202339904Y-95323276D01*
X202339904Y-94989943D01*
X202292285Y-94799467D01*
X202197047Y-94704229D01*
X202101808Y-94656609D01*
X200768475Y-95656609D02*
X201244666Y-95656609D01*
X201244666Y-94656609D01*
X200244666Y-94656609D02*
X200054189Y-94656609D01*
X199958951Y-94704229D01*
X199863713Y-94799467D01*
X199816094Y-94989943D01*
X199816094Y-95323276D01*
X199863713Y-95513752D01*
X199958951Y-95608990D01*
X200054189Y-95656609D01*
X200244666Y-95656609D01*
X200339904Y-95608990D01*
X200435142Y-95513752D01*
X200482761Y-95323276D01*
X200482761Y-94989943D01*
X200435142Y-94799467D01*
X200339904Y-94704229D01*
X200244666Y-94656609D01*
X198816094Y-95656609D02*
X199149427Y-95180419D01*
X199387523Y-95656609D02*
X199387523Y-94656609D01*
X199006570Y-94656609D01*
X198911332Y-94704229D01*
X198863713Y-94751848D01*
X198816094Y-94847086D01*
X198816094Y-94989943D01*
X198863713Y-95085181D01*
X198911332Y-95132800D01*
X199006570Y-95180419D01*
X199387523Y-95180419D01*
X198625618Y-95751848D02*
X197863713Y-95751848D01*
X197292285Y-95132800D02*
X197149427Y-95180419D01*
X197101808Y-95228038D01*
X197054189Y-95323276D01*
X197054189Y-95466133D01*
X197101808Y-95561371D01*
X197149427Y-95608990D01*
X197244666Y-95656609D01*
X197625618Y-95656609D01*
X197625618Y-94656609D01*
X197292285Y-94656609D01*
X197197047Y-94704229D01*
X197149427Y-94751848D01*
X197101808Y-94847086D01*
X197101808Y-94942324D01*
X197149427Y-95037562D01*
X197197047Y-95085181D01*
X197292285Y-95132800D01*
X197625618Y-95132800D01*
X206058442Y-87666580D02*
X205439395Y-87666580D01*
X205772728Y-88047533D01*
X205629871Y-88047533D01*
X205534633Y-88095152D01*
X205487014Y-88142771D01*
X205439395Y-88238009D01*
X205439395Y-88476104D01*
X205487014Y-88571342D01*
X205534633Y-88618961D01*
X205629871Y-88666580D01*
X205915585Y-88666580D01*
X206010823Y-88618961D01*
X206058442Y-88571342D01*
X204534633Y-87666580D02*
X205010823Y-87666580D01*
X205058442Y-88142771D01*
X205010823Y-88095152D01*
X204915585Y-88047533D01*
X204677490Y-88047533D01*
X204582252Y-88095152D01*
X204534633Y-88142771D01*
X204487014Y-88238009D01*
X204487014Y-88476104D01*
X204534633Y-88571342D01*
X204582252Y-88618961D01*
X204677490Y-88666580D01*
X204915585Y-88666580D01*
X205010823Y-88618961D01*
X205058442Y-88571342D01*
X202725109Y-88571342D02*
X202772728Y-88618961D01*
X202915585Y-88666580D01*
X203010823Y-88666580D01*
X203153680Y-88618961D01*
X203248919Y-88523723D01*
X203296538Y-88428485D01*
X203344157Y-88238009D01*
X203344157Y-88095152D01*
X203296538Y-87904676D01*
X203248919Y-87809438D01*
X203153680Y-87714200D01*
X203010823Y-87666580D01*
X202915585Y-87666580D01*
X202772728Y-87714200D01*
X202725109Y-87761819D01*
X202106061Y-87666580D02*
X201915585Y-87666580D01*
X201820347Y-87714200D01*
X201725109Y-87809438D01*
X201677490Y-87999914D01*
X201677490Y-88333247D01*
X201725109Y-88523723D01*
X201820347Y-88618961D01*
X201915585Y-88666580D01*
X202106061Y-88666580D01*
X202201300Y-88618961D01*
X202296538Y-88523723D01*
X202344157Y-88333247D01*
X202344157Y-87999914D01*
X202296538Y-87809438D01*
X202201300Y-87714200D01*
X202106061Y-87666580D01*
X200772728Y-88666580D02*
X201248919Y-88666580D01*
X201248919Y-87666580D01*
X200248919Y-87666580D02*
X200058442Y-87666580D01*
X199963204Y-87714200D01*
X199867966Y-87809438D01*
X199820347Y-87999914D01*
X199820347Y-88333247D01*
X199867966Y-88523723D01*
X199963204Y-88618961D01*
X200058442Y-88666580D01*
X200248919Y-88666580D01*
X200344157Y-88618961D01*
X200439395Y-88523723D01*
X200487014Y-88333247D01*
X200487014Y-87999914D01*
X200439395Y-87809438D01*
X200344157Y-87714200D01*
X200248919Y-87666580D01*
X198820347Y-88666580D02*
X199153680Y-88190390D01*
X199391776Y-88666580D02*
X199391776Y-87666580D01*
X199010823Y-87666580D01*
X198915585Y-87714200D01*
X198867966Y-87761819D01*
X198820347Y-87857057D01*
X198820347Y-87999914D01*
X198867966Y-88095152D01*
X198915585Y-88142771D01*
X199010823Y-88190390D01*
X199391776Y-88190390D01*
X198629871Y-88761819D02*
X197867966Y-88761819D01*
X197296538Y-88142771D02*
X197153680Y-88190390D01*
X197106061Y-88238009D01*
X197058442Y-88333247D01*
X197058442Y-88476104D01*
X197106061Y-88571342D01*
X197153680Y-88618961D01*
X197248919Y-88666580D01*
X197629871Y-88666580D01*
X197629871Y-87666580D01*
X197296538Y-87666580D01*
X197201300Y-87714200D01*
X197153680Y-87761819D01*
X197106061Y-87857057D01*
X197106061Y-87952295D01*
X197153680Y-88047533D01*
X197201300Y-88095152D01*
X197296538Y-88142771D01*
X197629871Y-88142771D01*
X196772728Y-87666580D02*
X196201300Y-87666580D01*
X196487014Y-88666580D02*
X196487014Y-87666580D01*
X195867966Y-88666580D02*
X195867966Y-87666580D01*
X195296538Y-88666580D01*
X195296538Y-87666580D01*
X191100928Y-89573429D02*
X191196166Y-89525809D01*
X191339023Y-89525809D01*
X191481880Y-89573429D01*
X191577118Y-89668667D01*
X191624737Y-89763905D01*
X191672356Y-89954381D01*
X191672356Y-90097238D01*
X191624737Y-90287714D01*
X191577118Y-90382952D01*
X191481880Y-90478190D01*
X191339023Y-90525809D01*
X191243785Y-90525809D01*
X191100928Y-90478190D01*
X191053309Y-90430571D01*
X191053309Y-90097238D01*
X191243785Y-90097238D01*
X190624737Y-90525809D02*
X190624737Y-89525809D01*
X190053309Y-90525809D01*
X190053309Y-89525809D01*
X189577118Y-90525809D02*
X189577118Y-89525809D01*
X189339023Y-89525809D01*
X189196166Y-89573429D01*
X189100928Y-89668667D01*
X189053309Y-89763905D01*
X189005690Y-89954381D01*
X189005690Y-90097238D01*
X189053309Y-90287714D01*
X189100928Y-90382952D01*
X189196166Y-90478190D01*
X189339023Y-90525809D01*
X189577118Y-90525809D01*
X189815214Y-94605809D02*
X190291404Y-94605809D01*
X190339023Y-95082000D01*
X190291404Y-95034381D01*
X190196166Y-94986762D01*
X189958071Y-94986762D01*
X189862833Y-95034381D01*
X189815214Y-95082000D01*
X189767595Y-95177238D01*
X189767595Y-95415333D01*
X189815214Y-95510571D01*
X189862833Y-95558190D01*
X189958071Y-95605809D01*
X190196166Y-95605809D01*
X190291404Y-95558190D01*
X190339023Y-95510571D01*
X189434261Y-94939143D02*
X189196166Y-95605809D01*
X188958071Y-94939143D01*
X191815213Y-92065809D02*
X191196166Y-92065809D01*
X191529499Y-92446762D01*
X191386642Y-92446762D01*
X191291404Y-92494381D01*
X191243785Y-92542000D01*
X191196166Y-92637238D01*
X191196166Y-92875333D01*
X191243785Y-92970571D01*
X191291404Y-93018190D01*
X191386642Y-93065809D01*
X191672356Y-93065809D01*
X191767594Y-93018190D01*
X191815213Y-92970571D01*
X190767594Y-92970571D02*
X190719975Y-93018190D01*
X190767594Y-93065809D01*
X190815213Y-93018190D01*
X190767594Y-92970571D01*
X190767594Y-93065809D01*
X190386642Y-92065809D02*
X189767594Y-92065809D01*
X190100928Y-92446762D01*
X189958071Y-92446762D01*
X189862832Y-92494381D01*
X189815213Y-92542000D01*
X189767594Y-92637238D01*
X189767594Y-92875333D01*
X189815213Y-92970571D01*
X189862832Y-93018190D01*
X189958071Y-93065809D01*
X190243785Y-93065809D01*
X190339023Y-93018190D01*
X190386642Y-92970571D01*
X189434261Y-92399143D02*
X189196166Y-93065809D01*
X188958071Y-92399143D01*
D11*
X210392321Y-127067800D02*
X210392321Y-132267800D01*
X210392321Y-132267800D02*
X209822321Y-132267800D01*
X208302321Y-132267800D02*
X207282321Y-132267800D01*
X205762321Y-132267800D02*
X204742321Y-132267800D01*
X203222321Y-132267800D02*
X202202321Y-132267800D01*
X200682321Y-132267800D02*
X199662321Y-132267800D01*
X198142321Y-132267800D02*
X197122321Y-132267800D01*
X195602321Y-132267800D02*
X194582321Y-132267800D01*
X193062321Y-132267800D02*
X192042321Y-132267800D01*
X190522321Y-132267800D02*
X189502321Y-132267800D01*
X187982321Y-132267800D02*
X186962321Y-132267800D01*
X185442321Y-132267800D02*
X184872321Y-132267800D01*
X184872321Y-127067800D02*
X184872321Y-132267800D01*
X210392321Y-127067800D02*
X209822321Y-127067800D01*
X208302321Y-127067800D02*
X207282321Y-127067800D01*
X205762321Y-127067800D02*
X204742321Y-127067800D01*
X203222321Y-127067800D02*
X202202321Y-127067800D01*
X200682321Y-127067800D02*
X199662321Y-127067800D01*
X198142321Y-127067800D02*
X197122321Y-127067800D01*
X195602321Y-127067800D02*
X194582321Y-127067800D01*
X193062321Y-127067800D02*
X192042321Y-127067800D01*
X190522321Y-127067800D02*
X189502321Y-127067800D01*
X187982321Y-127067800D02*
X186962321Y-127067800D01*
X185442321Y-127067800D02*
X184872321Y-127067800D01*
X209822321Y-132267800D02*
X209822321Y-133627800D01*
X196745400Y-123428000D02*
X199545400Y-123428000D01*
X199545400Y-123428000D02*
X199545400Y-121428000D01*
X199545400Y-121428000D02*
X196745400Y-121428000D01*
X196745400Y-121428000D02*
X196745400Y-123428000D01*
X208994363Y-73991099D02*
X208994363Y-70881099D01*
X208994363Y-79071099D02*
X208994363Y-75511099D01*
X208994363Y-84151099D02*
X208994363Y-80591099D01*
X208994363Y-89231099D02*
X208994363Y-85671099D01*
X208994363Y-94311099D02*
X208994363Y-90751099D01*
X211654363Y-76531099D02*
X211654363Y-72971099D01*
X211654363Y-81611099D02*
X211654363Y-78051099D01*
X211654363Y-86691099D02*
X211654363Y-83131099D01*
X211654363Y-91771099D02*
X211654363Y-88211099D01*
X211654363Y-71451099D02*
X211654363Y-70881099D01*
X208994363Y-96401099D02*
X208994363Y-95831099D01*
X208994363Y-95831099D02*
X207474363Y-95831099D01*
X211654363Y-96401099D02*
X211654363Y-93291099D01*
X208994363Y-70881099D02*
X211654363Y-70881099D01*
X208994363Y-96401099D02*
X211654363Y-96401099D01*
X183594363Y-73991099D02*
X183594363Y-70881099D01*
X183594363Y-79071099D02*
X183594363Y-75511099D01*
X183594363Y-84151099D02*
X183594363Y-80591099D01*
X183594363Y-89231099D02*
X183594363Y-85671099D01*
X183594363Y-94311099D02*
X183594363Y-90751099D01*
X186254363Y-76531099D02*
X186254363Y-72971099D01*
X186254363Y-81611099D02*
X186254363Y-78051099D01*
X186254363Y-86691099D02*
X186254363Y-83131099D01*
X186254363Y-91771099D02*
X186254363Y-88211099D01*
X186254363Y-71451099D02*
X186254363Y-70881099D01*
X183594363Y-96401099D02*
X183594363Y-95831099D01*
X183594363Y-95831099D02*
X182074363Y-95831099D01*
X186254363Y-96401099D02*
X186254363Y-93291099D01*
X183594363Y-70881099D02*
X186254363Y-70881099D01*
X183594363Y-96401099D02*
X186254363Y-96401099D01*
D10*
X211262980Y-132661066D02*
X211977266Y-132661066D01*
X212120123Y-132613447D01*
X212215361Y-132518209D01*
X212262980Y-132375352D01*
X212262980Y-132280114D01*
X212262980Y-133661066D02*
X212262980Y-133089638D01*
X212262980Y-133375352D02*
X211262980Y-133375352D01*
X211405838Y-133280114D01*
X211501076Y-133184876D01*
X211548695Y-133089638D01*
X198546933Y-119187980D02*
X198546933Y-119902266D01*
X198594552Y-120045123D01*
X198689790Y-120140361D01*
X198832647Y-120187980D01*
X198927885Y-120187980D01*
X198070742Y-120187980D02*
X198070742Y-119187980D01*
X197689790Y-119187980D01*
X197594552Y-119235600D01*
X197546933Y-119283219D01*
X197499314Y-119378457D01*
X197499314Y-119521314D01*
X197546933Y-119616552D01*
X197594552Y-119664171D01*
X197689790Y-119711790D01*
X198070742Y-119711790D01*
X196546933Y-120187980D02*
X197118361Y-120187980D01*
X196832647Y-120187980D02*
X196832647Y-119187980D01*
X196927885Y-119330838D01*
X197023123Y-119426076D01*
X197118361Y-119473695D01*
X211846919Y-69128500D02*
X211513585Y-69128500D01*
X211370728Y-69652309D02*
X211846919Y-69652309D01*
X211846919Y-68652309D01*
X211370728Y-68652309D01*
X211037395Y-68652309D02*
X210370728Y-69652309D01*
X210370728Y-68652309D02*
X211037395Y-69652309D01*
X210132633Y-68652309D02*
X209561204Y-68652309D01*
X209846919Y-69652309D02*
X209846919Y-68652309D01*
X209275490Y-68747548D02*
X209227871Y-68699929D01*
X209132633Y-68652309D01*
X208894538Y-68652309D01*
X208799300Y-68699929D01*
X208751680Y-68747548D01*
X208704061Y-68842786D01*
X208704061Y-68938024D01*
X208751680Y-69080881D01*
X209323109Y-69652309D01*
X208704061Y-69652309D01*
X186446919Y-69319000D02*
X186113585Y-69319000D01*
X185970728Y-69842809D02*
X186446919Y-69842809D01*
X186446919Y-68842809D01*
X185970728Y-68842809D01*
X185637395Y-68842809D02*
X184970728Y-69842809D01*
X184970728Y-68842809D02*
X185637395Y-69842809D01*
X184732633Y-68842809D02*
X184161204Y-68842809D01*
X184446919Y-69842809D02*
X184446919Y-68842809D01*
X183304061Y-69842809D02*
X183875490Y-69842809D01*
X183589776Y-69842809D02*
X183589776Y-68842809D01*
X183685014Y-68985667D01*
X183780252Y-69080905D01*
X183875490Y-69128524D01*
M02*
