<?xml version="1.0" encoding="utf-8"?>
<!-- Generator: Adobe Illustrator 22.1.0, SVG Export Plug-In . SVG Version: 6.00 Build 0)  -->
<svg version="1.1" id="Layer_1" xmlns="http://www.w3.org/2000/svg" xmlns:xlink="http://www.w3.org/1999/xlink" x="0px" y="0px"
	 viewBox="0 0 842 596" style="enable-background:new 0 0 842 596;" xml:space="preserve">
<style type="text/css">
	.st0{fill:none;stroke:#000000;stroke-width:0.2835;stroke-linecap:round;stroke-linejoin:round;stroke-miterlimit:10;}
	.st1{fill:none;stroke:#123442;stroke-width:0.2835;stroke-miterlimit:10;}
</style>
<line class="st0" x1="513.4" y1="372.3" x2="607" y2="372.3"/>
<line class="st0" x1="513.4" y1="183.7" x2="513.4" y2="372.3"/>
<line class="st0" x1="513.4" y1="372.3" x2="513.4" y2="372.3"/>
<line class="st0" x1="607" y1="183.7" x2="513.4" y2="183.7"/>
<line class="st0" x1="607" y1="372.3" x2="607" y2="183.7"/>
<line class="st0" x1="607" y1="183.7" x2="607" y2="183.7"/>
<path class="st1" d="M592.4,327c0-0.8,0.6-1.4,1.4-1.4c0.8,0,1.4,0.6,1.4,1.4c0,0.8-0.6,1.4-1.4,1.4
	C593,328.4,592.4,327.7,592.4,327z"/>
<path class="st1" d="M585.3,327c0-0.8,0.6-1.4,1.4-1.4c0.8,0,1.4,0.6,1.4,1.4c0,0.8-0.6,1.4-1.4,1.4
	C585.9,328.4,585.3,327.7,585.3,327z"/>
<path class="st1" d="M578.2,327c0-0.8,0.6-1.4,1.4-1.4s1.4,0.6,1.4,1.4c0,0.8-0.6,1.4-1.4,1.4S578.2,327.7,578.2,327z"/>
<path class="st1" d="M597.3,348.2c0-1.6,1.3-2.8,2.8-2.8c1.6,0,2.8,1.3,2.8,2.8c0,1.6-1.3,2.8-2.8,2.8
	C598.6,351,597.3,349.8,597.3,348.2z"/>
<path class="st1" d="M570.4,348.2c0-1.6,1.3-2.8,2.8-2.8c1.6,0,2.8,1.3,2.8,2.8c0,1.6-1.3,2.8-2.8,2.8
	C571.7,351,570.4,349.8,570.4,348.2z"/>
<path class="st1" d="M552.1,219.9c0-0.8,0.6-1.4,1.4-1.4c0.8,0,1.4,0.6,1.4,1.4c0,0.8-0.6,1.4-1.4,1.4
	C552.7,221.3,552.1,220.7,552.1,219.9z"/>
<path class="st1" d="M559.2,219.9c0-0.8,0.6-1.4,1.4-1.4c0.8,0,1.4,0.6,1.4,1.4c0,0.8-0.6,1.4-1.4,1.4
	C559.8,221.3,559.2,220.7,559.2,219.9z"/>
<path class="st1" d="M566.3,219.9c0-0.8,0.6-1.4,1.4-1.4c0.8,0,1.4,0.6,1.4,1.4c0,0.8-0.6,1.4-1.4,1.4
	C566.9,221.3,566.3,220.7,566.3,219.9z"/>
<path class="st1" d="M544.3,198.6c0-1.6,1.3-2.8,2.8-2.8c1.6,0,2.8,1.3,2.8,2.8c0,1.6-1.3,2.8-2.8,2.8
	C545.6,201.4,544.3,200.2,544.3,198.6z"/>
<path class="st1" d="M571.2,198.6c0-1.6,1.3-2.8,2.8-2.8c1.6,0,2.8,1.3,2.8,2.8c0,1.6-1.3,2.8-2.8,2.8
	C572.5,201.4,571.2,200.2,571.2,198.6z"/>
<path class="st1" d="M566.4,257.3c0-0.8,0.6-1.4,1.4-1.4s1.4,0.6,1.4,1.4c0,0.8-0.6,1.4-1.4,1.4S566.4,258.1,566.4,257.3z"/>
<path class="st1" d="M559.4,257.3c0-0.8,0.6-1.4,1.4-1.4c0.8,0,1.4,0.6,1.4,1.4c0,0.8-0.6,1.4-1.4,1.4
	C560,258.7,559.4,258.1,559.4,257.3z"/>
<path class="st1" d="M552.3,257.3c0-0.8,0.6-1.4,1.4-1.4c0.8,0,1.4,0.6,1.4,1.4c0,0.8-0.6,1.4-1.4,1.4
	C552.9,258.7,552.3,258.1,552.3,257.3z"/>
<path class="st1" d="M573.5,278.5c0-1.7,1.4-3.1,3.1-3.1c1.7,0,3.1,1.4,3.1,3.1c0,1.7-1.4,3.1-3.1,3.1
	C574.9,281.7,573.5,280.3,573.5,278.5z"/>
<path class="st1" d="M541.8,278.5c0-1.7,1.4-3.1,3.1-3.1c1.7,0,3.1,1.4,3.1,3.1c0,1.7-1.4,3.1-3.1,3.1
	C543.2,281.7,541.8,280.3,541.8,278.5z"/>
<path class="st1" d="M566.4,298.4c0-0.8,0.6-1.4,1.4-1.4s1.4,0.6,1.4,1.4c0,0.8-0.6,1.4-1.4,1.4S566.4,299.2,566.4,298.4z"/>
<path class="st1" d="M552.3,298.4c0-0.8,0.6-1.4,1.4-1.4c0.8,0,1.4,0.6,1.4,1.4c0,0.8-0.6,1.4-1.4,1.4
	C552.9,299.8,552.3,299.2,552.3,298.4z"/>
<path class="st1" d="M540.5,326.6c0-0.8,0.6-1.4,1.4-1.4s1.4,0.6,1.4,1.4s-0.6,1.4-1.4,1.4S540.5,327.4,540.5,326.6z"/>
<path class="st1" d="M533.4,326.6c0-0.8,0.6-1.4,1.4-1.4c0.8,0,1.4,0.6,1.4,1.4s-0.6,1.4-1.4,1.4C534.1,328,533.4,327.4,533.4,326.6
	z"/>
<path class="st1" d="M526.4,326.6c0-0.8,0.6-1.4,1.4-1.4s1.4,0.6,1.4,1.4s-0.6,1.4-1.4,1.4S526.4,327.4,526.4,326.6z"/>
<path class="st1" d="M547.6,347.8c0-1.7,1.4-3.1,3.1-3.1c1.7,0,3.1,1.4,3.1,3.1c0,1.7-1.4,3.1-3.1,3.1
	C549,351,547.6,349.6,547.6,347.8z"/>
<path class="st1" d="M515.9,347.8c0-1.7,1.4-3.1,3.1-3.1c1.7,0,3.1,1.4,3.1,3.1c0,1.7-1.4,3.1-3.1,3.1
	C517.3,351,515.9,349.6,515.9,347.8z"/>
<path class="st1" d="M540.5,367.7c0-0.8,0.6-1.4,1.4-1.4s1.4,0.6,1.4,1.4c0,0.8-0.6,1.4-1.4,1.4S540.5,368.5,540.5,367.7z"/>
<path class="st1" d="M526.4,367.7c0-0.8,0.6-1.4,1.4-1.4s1.4,0.6,1.4,1.4c0,0.8-0.6,1.4-1.4,1.4S526.4,368.5,526.4,367.7z"/>
</svg>
