<?xml version="1.0" encoding="utf-8"?>
<!-- Generator: Adobe Illustrator 22.1.0, SVG Export Plug-In . SVG Version: 6.00 Build 0)  -->
<svg version="1.1" id="Layer_1" xmlns="http://www.w3.org/2000/svg" xmlns:xlink="http://www.w3.org/1999/xlink" x="0px" y="0px"
	 viewBox="0 0 842 596" style="enable-background:new 0 0 842 596;" xml:space="preserve">
<style type="text/css">
	.st0{fill:none;stroke:#BC4D4D;stroke-width:0.2835;stroke-miterlimit:10;}
</style>
<line class="st0" x1="502.9" y1="178.8" x2="502.7" y2="178.8"/>
<line class="st0" x1="502.7" y1="178.8" x2="502.4" y2="178.8"/>
<line class="st0" x1="502.4" y1="178.8" x2="502.1" y2="178.8"/>
<line class="st0" x1="502.1" y1="178.8" x2="501.9" y2="178.8"/>
<line class="st0" x1="501.9" y1="178.8" x2="501.6" y2="178.9"/>
<line class="st0" x1="501.6" y1="178.9" x2="501.4" y2="178.9"/>
<line class="st0" x1="501.4" y1="178.9" x2="501.2" y2="179"/>
<line class="st0" x1="501.2" y1="179" x2="500.9" y2="179"/>
<line class="st0" x1="500.9" y1="179" x2="500.7" y2="179.1"/>
<line class="st0" x1="500.7" y1="179.1" x2="500.5" y2="179.2"/>
<line class="st0" x1="500.5" y1="179.2" x2="500.3" y2="179.3"/>
<line class="st0" x1="500.3" y1="179.3" x2="500.1" y2="179.4"/>
<line class="st0" x1="500.1" y1="179.4" x2="499.9" y2="179.4"/>
<line class="st0" x1="499.9" y1="179.4" x2="499.7" y2="179.5"/>
<line class="st0" x1="499.7" y1="179.5" x2="499.5" y2="179.6"/>
<line class="st0" x1="499.5" y1="179.6" x2="499.4" y2="179.8"/>
<line class="st0" x1="499.4" y1="179.8" x2="499.2" y2="179.9"/>
<line class="st0" x1="499.2" y1="179.9" x2="499" y2="180"/>
<line class="st0" x1="499" y1="180" x2="498.8" y2="180.1"/>
<line class="st0" x1="498.8" y1="180.1" x2="498.7" y2="180.3"/>
<line class="st0" x1="498.7" y1="180.3" x2="498.5" y2="180.4"/>
<line class="st0" x1="498.5" y1="180.4" x2="498.4" y2="180.5"/>
<line class="st0" x1="498.4" y1="180.5" x2="498.2" y2="180.7"/>
<line class="st0" x1="498.2" y1="180.7" x2="498.1" y2="180.8"/>
<line class="st0" x1="498.1" y1="180.8" x2="498" y2="181"/>
<line class="st0" x1="498" y1="181" x2="497.9" y2="181.2"/>
<line class="st0" x1="497.9" y1="181.2" x2="497.7" y2="181.4"/>
<line class="st0" x1="497.7" y1="181.4" x2="497.6" y2="181.5"/>
<line class="st0" x1="497.6" y1="181.5" x2="497.6" y2="181.7"/>
<line class="st0" x1="497.6" y1="181.7" x2="497.5" y2="181.9"/>
<line class="st0" x1="497.5" y1="181.9" x2="497.4" y2="182.1"/>
<line class="st0" x1="497.4" y1="182.1" x2="497.3" y2="182.4"/>
<line class="st0" x1="497.3" y1="182.4" x2="497.3" y2="182.6"/>
<line class="st0" x1="497.3" y1="182.6" x2="497.2" y2="182.8"/>
<line class="st0" x1="497.2" y1="182.8" x2="497.2" y2="183.1"/>
<line class="st0" x1="497.2" y1="183.1" x2="497.2" y2="183.2"/>
<line class="st0" x1="617.5" y1="178.8" x2="502.9" y2="178.8"/>
<line class="st0" x1="502.9" y1="178.8" x2="502.9" y2="178.8"/>
<line class="st0" x1="623.2" y1="183.2" x2="623.2" y2="183"/>
<line class="st0" x1="623.2" y1="183" x2="623.2" y2="182.7"/>
<line class="st0" x1="623.2" y1="182.7" x2="623.1" y2="182.5"/>
<line class="st0" x1="623.1" y1="182.5" x2="623.1" y2="182.2"/>
<line class="st0" x1="623.1" y1="182.2" x2="623" y2="182"/>
<line class="st0" x1="623" y1="182" x2="622.9" y2="181.8"/>
<line class="st0" x1="622.9" y1="181.8" x2="622.8" y2="181.6"/>
<line class="st0" x1="622.8" y1="181.6" x2="622.7" y2="181.4"/>
<line class="st0" x1="622.7" y1="181.4" x2="622.6" y2="181.2"/>
<line class="st0" x1="622.6" y1="181.2" x2="622.5" y2="181.1"/>
<line class="st0" x1="622.5" y1="181.1" x2="622.4" y2="180.9"/>
<line class="st0" x1="622.4" y1="180.9" x2="622.3" y2="180.8"/>
<line class="st0" x1="622.3" y1="180.8" x2="622.1" y2="180.6"/>
<line class="st0" x1="622.1" y1="180.6" x2="622" y2="180.4"/>
<line class="st0" x1="622" y1="180.4" x2="621.8" y2="180.3"/>
<line class="st0" x1="621.8" y1="180.3" x2="621.7" y2="180.2"/>
<line class="st0" x1="621.7" y1="180.2" x2="621.5" y2="180"/>
<line class="st0" x1="621.5" y1="180" x2="621.3" y2="179.9"/>
<line class="st0" x1="621.3" y1="179.9" x2="621.2" y2="179.8"/>
<line class="st0" x1="621.2" y1="179.8" x2="621" y2="179.7"/>
<line class="st0" x1="621" y1="179.7" x2="620.8" y2="179.6"/>
<line class="st0" x1="620.8" y1="179.6" x2="620.6" y2="179.5"/>
<line class="st0" x1="620.6" y1="179.5" x2="620.4" y2="179.4"/>
<line class="st0" x1="620.4" y1="179.4" x2="620.2" y2="179.3"/>
<line class="st0" x1="620.2" y1="179.3" x2="620" y2="179.2"/>
<line class="st0" x1="620" y1="179.2" x2="619.8" y2="179.1"/>
<line class="st0" x1="619.8" y1="179.1" x2="619.6" y2="179.1"/>
<line class="st0" x1="619.6" y1="179.1" x2="619.3" y2="179"/>
<line class="st0" x1="619.3" y1="179" x2="619.1" y2="178.9"/>
<line class="st0" x1="619.1" y1="178.9" x2="618.9" y2="178.9"/>
<line class="st0" x1="618.9" y1="178.9" x2="618.6" y2="178.9"/>
<line class="st0" x1="618.6" y1="178.9" x2="618.4" y2="178.8"/>
<line class="st0" x1="618.4" y1="178.8" x2="618.1" y2="178.8"/>
<line class="st0" x1="618.1" y1="178.8" x2="617.9" y2="178.8"/>
<line class="st0" x1="617.9" y1="178.8" x2="617.6" y2="178.8"/>
<line class="st0" x1="617.6" y1="178.8" x2="617.5" y2="178.8"/>
<line class="st0" x1="623.2" y1="372.7" x2="623.2" y2="183.2"/>
<line class="st0" x1="623.2" y1="183.2" x2="623.2" y2="183.2"/>
<line class="st0" x1="617.5" y1="377.2" x2="617.8" y2="377.2"/>
<line class="st0" x1="617.8" y1="377.2" x2="618.1" y2="377.2"/>
<line class="st0" x1="618.1" y1="377.2" x2="618.3" y2="377.1"/>
<line class="st0" x1="618.3" y1="377.1" x2="618.6" y2="377.1"/>
<line class="st0" x1="618.6" y1="377.1" x2="618.8" y2="377.1"/>
<line class="st0" x1="618.8" y1="377.1" x2="619" y2="377"/>
<line class="st0" x1="619" y1="377" x2="619.3" y2="377"/>
<line class="st0" x1="619.3" y1="377" x2="619.5" y2="376.9"/>
<line class="st0" x1="619.5" y1="376.9" x2="619.7" y2="376.8"/>
<line class="st0" x1="619.7" y1="376.8" x2="619.9" y2="376.8"/>
<line class="st0" x1="619.9" y1="376.8" x2="620.1" y2="376.7"/>
<line class="st0" x1="620.1" y1="376.7" x2="620.3" y2="376.6"/>
<line class="st0" x1="620.3" y1="376.6" x2="620.6" y2="376.5"/>
<line class="st0" x1="620.6" y1="376.5" x2="620.7" y2="376.4"/>
<line class="st0" x1="620.7" y1="376.4" x2="620.9" y2="376.3"/>
<line class="st0" x1="620.9" y1="376.3" x2="621.1" y2="376.2"/>
<line class="st0" x1="621.1" y1="376.2" x2="621.3" y2="376.1"/>
<line class="st0" x1="621.3" y1="376.1" x2="621.4" y2="376"/>
<line class="st0" x1="621.4" y1="376" x2="621.6" y2="375.8"/>
<line class="st0" x1="621.6" y1="375.8" x2="621.8" y2="375.7"/>
<line class="st0" x1="621.8" y1="375.7" x2="621.9" y2="375.6"/>
<line class="st0" x1="621.9" y1="375.6" x2="622.1" y2="375.4"/>
<line class="st0" x1="622.1" y1="375.4" x2="622.2" y2="375.3"/>
<line class="st0" x1="622.2" y1="375.3" x2="622.3" y2="375.1"/>
<line class="st0" x1="622.3" y1="375.1" x2="622.5" y2="374.9"/>
<line class="st0" x1="622.5" y1="374.9" x2="622.6" y2="374.8"/>
<line class="st0" x1="622.6" y1="374.8" x2="622.7" y2="374.6"/>
<line class="st0" x1="622.7" y1="374.6" x2="622.8" y2="374.4"/>
<line class="st0" x1="622.8" y1="374.4" x2="622.9" y2="374.2"/>
<line class="st0" x1="622.9" y1="374.2" x2="623" y2="374"/>
<line class="st0" x1="623" y1="374" x2="623.1" y2="373.8"/>
<line class="st0" x1="623.1" y1="373.8" x2="623.1" y2="373.6"/>
<line class="st0" x1="623.1" y1="373.6" x2="623.2" y2="373.3"/>
<line class="st0" x1="623.2" y1="373.3" x2="623.2" y2="373.1"/>
<line class="st0" x1="623.2" y1="373.1" x2="623.2" y2="372.8"/>
<line class="st0" x1="623.2" y1="372.8" x2="623.2" y2="372.7"/>
<line class="st0" x1="502.9" y1="377.2" x2="617.5" y2="377.2"/>
<line class="st0" x1="617.5" y1="377.2" x2="617.5" y2="377.2"/>
<line class="st0" x1="497.2" y1="372.7" x2="497.2" y2="373"/>
<line class="st0" x1="497.2" y1="373" x2="497.3" y2="373.3"/>
<line class="st0" x1="497.3" y1="373.3" x2="497.3" y2="373.5"/>
<line class="st0" x1="497.3" y1="373.5" x2="497.4" y2="373.7"/>
<line class="st0" x1="497.4" y1="373.7" x2="497.4" y2="373.9"/>
<line class="st0" x1="497.4" y1="373.9" x2="497.5" y2="374.2"/>
<line class="st0" x1="497.5" y1="374.2" x2="497.6" y2="374.3"/>
<line class="st0" x1="497.6" y1="374.3" x2="497.7" y2="374.5"/>
<line class="st0" x1="497.7" y1="374.5" x2="497.8" y2="374.7"/>
<line class="st0" x1="497.8" y1="374.7" x2="497.9" y2="374.9"/>
<line class="st0" x1="497.9" y1="374.9" x2="498.1" y2="375"/>
<line class="st0" x1="498.1" y1="375" x2="498.2" y2="375.2"/>
<line class="st0" x1="498.2" y1="375.2" x2="498.3" y2="375.4"/>
<line class="st0" x1="498.3" y1="375.4" x2="498.5" y2="375.5"/>
<line class="st0" x1="498.5" y1="375.5" x2="498.6" y2="375.6"/>
<line class="st0" x1="498.6" y1="375.6" x2="498.8" y2="375.8"/>
<line class="st0" x1="498.8" y1="375.8" x2="498.9" y2="375.9"/>
<line class="st0" x1="498.9" y1="375.9" x2="499.1" y2="376"/>
<line class="st0" x1="499.1" y1="376" x2="499.3" y2="376.1"/>
<line class="st0" x1="499.3" y1="376.1" x2="499.4" y2="376.3"/>
<line class="st0" x1="499.4" y1="376.3" x2="499.6" y2="376.4"/>
<line class="st0" x1="499.6" y1="376.4" x2="499.8" y2="376.5"/>
<line class="st0" x1="499.8" y1="376.5" x2="500" y2="376.6"/>
<line class="st0" x1="500" y1="376.6" x2="500.2" y2="376.6"/>
<line class="st0" x1="500.2" y1="376.6" x2="500.4" y2="376.7"/>
<line class="st0" x1="500.4" y1="376.7" x2="500.6" y2="376.8"/>
<line class="st0" x1="500.6" y1="376.8" x2="500.8" y2="376.9"/>
<line class="st0" x1="500.8" y1="376.9" x2="501.1" y2="376.9"/>
<line class="st0" x1="501.1" y1="376.9" x2="501.3" y2="377"/>
<line class="st0" x1="501.3" y1="377" x2="501.5" y2="377.1"/>
<line class="st0" x1="501.5" y1="377.1" x2="501.8" y2="377.1"/>
<line class="st0" x1="501.8" y1="377.1" x2="502" y2="377.1"/>
<line class="st0" x1="502" y1="377.1" x2="502.3" y2="377.2"/>
<line class="st0" x1="502.3" y1="377.2" x2="502.5" y2="377.2"/>
<line class="st0" x1="502.5" y1="377.2" x2="502.8" y2="377.2"/>
<line class="st0" x1="502.8" y1="377.2" x2="502.9" y2="377.2"/>
<line class="st0" x1="497.2" y1="183.2" x2="497.2" y2="372.7"/>
<line class="st0" x1="497.2" y1="372.7" x2="497.2" y2="372.7"/>
<ellipse transform="matrix(0.1602 -0.9871 0.9871 0.1602 175.9414 860.6953)" class="st0" cx="593.8" cy="327" rx="2.8" ry="2.8"/>
<path class="st0" d="M583.9,327c0-1.6,1.3-2.8,2.8-2.8c1.6,0,2.8,1.3,2.8,2.8c0,1.6-1.3,2.8-2.8,2.8
	C585.1,329.8,583.9,328.5,583.9,327z"/>
<ellipse transform="matrix(0.1602 -0.9871 0.9871 0.1602 164.0386 846.7051)" class="st0" cx="579.6" cy="327" rx="2.8" ry="2.8"/>
<g>
	<path class="st0" d="M600.2,353.2c-1.6,0-2.8-1.3-2.8-2.8v-4.3c0-1.6,1.3-2.8,2.8-2.8s2.8,1.3,2.8,2.8v4.3
		C603,351.9,601.7,353.2,600.2,353.2z"/>
</g>
<g>
	<path class="st0" d="M573.2,353.2c-1.6,0-2.8-1.3-2.8-2.8v-4.3c0-1.6,1.3-2.8,2.8-2.8s2.8,1.3,2.8,2.8v4.3
		C576.1,351.9,574.8,353.2,573.2,353.2z"/>
</g>
<path class="st0" d="M550.7,219.9c0-1.6,1.3-2.8,2.8-2.8c1.6,0,2.8,1.3,2.8,2.8c0,1.6-1.3,2.8-2.8,2.8
	C551.9,222.7,550.7,221.4,550.7,219.9z"/>
<path class="st0" d="M557.8,219.9c0-1.6,1.3-2.8,2.8-2.8c1.6,0,2.8,1.3,2.8,2.8c0,1.6-1.3,2.8-2.8,2.8
	C559,222.7,557.8,221.4,557.8,219.9z"/>
<path class="st0" d="M564.8,219.9c0-1.6,1.3-2.8,2.8-2.8c1.6,0,2.8,1.3,2.8,2.8c0,1.6-1.3,2.8-2.8,2.8
	C566.1,222.7,564.8,221.4,564.8,219.9z"/>
<g>
	<path class="st0" d="M547.1,203.6c-1.6,0-2.8-1.3-2.8-2.8v-4.3c0-1.6,1.3-2.8,2.8-2.8s2.8,1.3,2.8,2.8v4.3
		C550,202.3,548.7,203.6,547.1,203.6z"/>
</g>
<g>
	<path class="st0" d="M574.1,203.6c-1.6,0-2.8-1.3-2.8-2.8v-4.3c0-1.6,1.3-2.8,2.8-2.8s2.8,1.3,2.8,2.8v4.3
		C576.9,202.3,575.6,203.6,574.1,203.6z"/>
</g>
<path class="st0" d="M566.4,257.3c0-0.8,0.6-1.4,1.4-1.4s1.4,0.6,1.4,1.4c0,0.8-0.6,1.4-1.4,1.4S566.4,258.1,566.4,257.3z"/>
<path class="st0" d="M559.4,257.3c0-0.8,0.6-1.4,1.4-1.4c0.8,0,1.4,0.6,1.4,1.4c0,0.8-0.6,1.4-1.4,1.4
	C560,258.7,559.4,258.1,559.4,257.3z"/>
<path class="st0" d="M552.3,257.3c0-0.8,0.6-1.4,1.4-1.4c0.8,0,1.4,0.6,1.4,1.4c0,0.8-0.6,1.4-1.4,1.4
	C552.9,258.7,552.3,258.1,552.3,257.3z"/>
<path class="st0" d="M573.5,278.5c0-1.7,1.4-3.1,3.1-3.1c1.7,0,3.1,1.4,3.1,3.1c0,1.7-1.4,3.1-3.1,3.1
	C574.9,281.7,573.5,280.3,573.5,278.5z"/>
<path class="st0" d="M541.8,278.5c0-1.7,1.4-3.1,3.1-3.1c1.7,0,3.1,1.4,3.1,3.1c0,1.7-1.4,3.1-3.1,3.1
	C543.2,281.7,541.8,280.3,541.8,278.5z"/>
<path class="st0" d="M566.4,298.4c0-0.8,0.6-1.4,1.4-1.4s1.4,0.6,1.4,1.4c0,0.8-0.6,1.4-1.4,1.4S566.4,299.2,566.4,298.4z"/>
<path class="st0" d="M552.3,298.4c0-0.8,0.6-1.4,1.4-1.4c0.8,0,1.4,0.6,1.4,1.4c0,0.8-0.6,1.4-1.4,1.4
	C552.9,299.8,552.3,299.2,552.3,298.4z"/>
<path class="st0" d="M540.5,326.6c0-0.8,0.6-1.4,1.4-1.4s1.4,0.6,1.4,1.4s-0.6,1.4-1.4,1.4S540.5,327.4,540.5,326.6z"/>
<path class="st0" d="M533.4,326.6c0-0.8,0.6-1.4,1.4-1.4c0.8,0,1.4,0.6,1.4,1.4s-0.6,1.4-1.4,1.4C534.1,328,533.4,327.4,533.4,326.6
	z"/>
<path class="st0" d="M526.4,326.6c0-0.8,0.6-1.4,1.4-1.4s1.4,0.6,1.4,1.4s-0.6,1.4-1.4,1.4S526.4,327.4,526.4,326.6z"/>
<path class="st0" d="M547.6,347.8c0-1.7,1.4-3.1,3.1-3.1c1.7,0,3.1,1.4,3.1,3.1c0,1.7-1.4,3.1-3.1,3.1
	C549,351,547.6,349.6,547.6,347.8z"/>
<path class="st0" d="M515.9,347.8c0-1.7,1.4-3.1,3.1-3.1c1.7,0,3.1,1.4,3.1,3.1c0,1.7-1.4,3.1-3.1,3.1
	C517.3,351,515.9,349.6,515.9,347.8z"/>
<path class="st0" d="M540.5,367.7c0-0.8,0.6-1.4,1.4-1.4s1.4,0.6,1.4,1.4c0,0.8-0.6,1.4-1.4,1.4S540.5,368.5,540.5,367.7z"/>
<path class="st0" d="M526.4,367.7c0-0.8,0.6-1.4,1.4-1.4s1.4,0.6,1.4,1.4c0,0.8-0.6,1.4-1.4,1.4S526.4,368.5,526.4,367.7z"/>
</svg>
