G04 #@! TF.GenerationSoftware,KiCad,Pcbnew,(5.1.5-0-10_14)*
G04 #@! TF.CreationDate,2020-01-23T10:56:36-08:00*
G04 #@! TF.ProjectId,FaceplateBoardNoParts,46616365-706c-4617-9465-426f6172644e,rev?*
G04 #@! TF.SameCoordinates,Original*
G04 #@! TF.FileFunction,Profile,NP*
%FSLAX46Y46*%
G04 Gerber Fmt 4.6, Leading zero omitted, Abs format (unit mm)*
G04 Created by KiCad (PCBNEW (5.1.5-0-10_14)) date 2020-01-23 10:56:36*
%MOMM*%
%LPD*%
G04 APERTURE LIST*
%ADD10C,0.100000*%
%ADD11C,0.050000*%
G04 APERTURE END LIST*
D10*
X161508622Y-134417460D02*
X161508622Y-71031795D01*
X159927453Y-135998630D02*
X160024586Y-135995691D01*
X160024586Y-135995691D02*
X160117069Y-135987372D01*
X160117069Y-135987372D02*
X160204296Y-135974469D01*
X160204296Y-135974469D02*
X160288414Y-135957234D01*
X160288414Y-135957234D02*
X160368507Y-135936290D01*
X160368507Y-135936290D02*
X160445459Y-135911817D01*
X160445459Y-135911817D02*
X160519536Y-135884032D01*
X160519536Y-135884032D02*
X160590438Y-135853329D01*
X160590438Y-135853329D02*
X160658964Y-135819595D01*
X160658964Y-135819595D02*
X160725317Y-135782847D01*
X160725317Y-135782847D02*
X160787431Y-135744521D01*
X160787431Y-135744521D02*
X160847115Y-135703797D01*
X160847115Y-135703797D02*
X160905035Y-135660281D01*
X160905035Y-135660281D02*
X160959958Y-135614989D01*
X160959958Y-135614989D02*
X161012766Y-135567316D01*
X161012766Y-135567316D02*
X161063378Y-135517342D01*
X161063378Y-135517342D02*
X161116027Y-135460254D01*
X161116027Y-135460254D02*
X161162151Y-135405268D01*
X161162151Y-135405268D02*
X161205960Y-135347959D01*
X161205960Y-135347959D02*
X161247172Y-135288639D01*
X161247172Y-135288639D02*
X161286007Y-135226875D01*
X161286007Y-135226875D02*
X161322598Y-135162188D01*
X161322598Y-135162188D02*
X161356576Y-135094842D01*
X161356576Y-135094842D02*
X161387506Y-135025423D01*
X161387506Y-135025423D02*
X161416174Y-134951448D01*
X161416174Y-134951448D02*
X161441272Y-134875439D01*
X161441272Y-134875439D02*
X161463161Y-134795405D01*
X161463161Y-134795405D02*
X161481132Y-134712531D01*
X161481132Y-134712531D02*
X161495116Y-134625016D01*
X161495116Y-134625016D02*
X161504494Y-134532519D01*
X161504494Y-134532519D02*
X161508541Y-134433427D01*
X161508541Y-134433427D02*
X161508622Y-134417460D01*
X151983622Y-135998630D02*
X159927453Y-135998630D01*
X151983622Y-138947847D02*
X151983622Y-135998630D01*
X151983622Y-135998630D02*
X151983622Y-135998630D01*
X153435816Y-138947847D02*
X151983622Y-138947847D01*
X151983622Y-138947847D02*
X151983622Y-138947847D01*
X154717650Y-140229681D02*
X154713986Y-140132073D01*
X154713986Y-140132073D02*
X154703995Y-140041935D01*
X154703995Y-140041935D02*
X154688519Y-139956709D01*
X154688519Y-139956709D02*
X154668205Y-139875913D01*
X154668205Y-139875913D02*
X154643529Y-139799088D01*
X154643529Y-139799088D02*
X154615004Y-139726247D01*
X154615004Y-139726247D02*
X154583107Y-139657385D01*
X154583107Y-139657385D02*
X154547573Y-139591222D01*
X154547573Y-139591222D02*
X154509273Y-139528863D01*
X154509273Y-139528863D02*
X154467009Y-139468150D01*
X154467009Y-139468150D02*
X154422173Y-139410984D01*
X154422173Y-139410984D02*
X154374888Y-139357192D01*
X154374888Y-139357192D02*
X154324707Y-139306125D01*
X154324707Y-139306125D02*
X154272125Y-139258226D01*
X154272125Y-139258226D02*
X154216935Y-139213267D01*
X154216935Y-139213267D02*
X154156482Y-139169471D01*
X154156482Y-139169471D02*
X154095106Y-139130172D01*
X154095106Y-139130172D02*
X154028838Y-139092980D01*
X154028838Y-139092980D02*
X153960665Y-139059878D01*
X153960665Y-139059878D02*
X153889852Y-139030584D01*
X153889852Y-139030584D02*
X153813926Y-139004524D01*
X153813926Y-139004524D02*
X153734004Y-138982710D01*
X153734004Y-138982710D02*
X153649869Y-138965637D01*
X153649869Y-138965637D02*
X153561311Y-138953909D01*
X153561311Y-138953909D02*
X153461418Y-138948094D01*
X153461418Y-138948094D02*
X153435816Y-138947847D01*
X154717650Y-144180151D02*
X154717650Y-140229681D01*
X154232925Y-145735288D02*
X154273241Y-145675207D01*
X154273241Y-145675207D02*
X154312314Y-145613507D01*
X154312314Y-145613507D02*
X154350072Y-145550193D01*
X154350072Y-145550193D02*
X154386055Y-145485980D01*
X154386055Y-145485980D02*
X154420989Y-145419471D01*
X154420989Y-145419471D02*
X154455082Y-145349916D01*
X154455082Y-145349916D02*
X154487163Y-145279493D01*
X154487163Y-145279493D02*
X154517217Y-145208245D01*
X154517217Y-145208245D02*
X154545301Y-145136029D01*
X154545301Y-145136029D02*
X154571972Y-145061172D01*
X154571972Y-145061172D02*
X154596985Y-144983856D01*
X154596985Y-144983856D02*
X154620012Y-144904661D01*
X154620012Y-144904661D02*
X154640647Y-144824791D01*
X154640647Y-144824791D02*
X154660278Y-144737597D01*
X154660278Y-144737597D02*
X154676541Y-144652717D01*
X154676541Y-144652717D02*
X154690302Y-144566085D01*
X154690302Y-144566085D02*
X154701576Y-144476332D01*
X154701576Y-144476332D02*
X154710070Y-144383690D01*
X154710070Y-144383690D02*
X154715514Y-144288199D01*
X154715514Y-144288199D02*
X154717648Y-144182183D01*
X154717648Y-144182183D02*
X154717650Y-144180151D01*
X152976068Y-147555569D02*
X154232925Y-145735288D01*
X154232925Y-145735288D02*
X154232925Y-145735288D01*
X150723794Y-148737430D02*
X150822347Y-148735657D01*
X150822347Y-148735657D02*
X150918409Y-148730512D01*
X150918409Y-148730512D02*
X151012579Y-148722173D01*
X151012579Y-148722173D02*
X151102883Y-148711077D01*
X151102883Y-148711077D02*
X151189962Y-148697471D01*
X151189962Y-148697471D02*
X151275711Y-148681238D01*
X151275711Y-148681238D02*
X151358836Y-148662774D01*
X151358836Y-148662774D02*
X151439329Y-148642274D01*
X151439329Y-148642274D02*
X151522724Y-148618254D01*
X151522724Y-148618254D02*
X151599126Y-148593699D01*
X151599126Y-148593699D02*
X151674094Y-148567168D01*
X151674094Y-148567168D02*
X151748196Y-148538496D01*
X151748196Y-148538496D02*
X151828421Y-148504617D01*
X151828421Y-148504617D02*
X151903160Y-148470293D01*
X151903160Y-148470293D02*
X151973970Y-148435217D01*
X151973970Y-148435217D02*
X152039808Y-148400269D01*
X152039808Y-148400269D02*
X152104681Y-148363539D01*
X152104681Y-148363539D02*
X152167731Y-148325554D01*
X152167731Y-148325554D02*
X152232438Y-148284106D01*
X152232438Y-148284106D02*
X152293111Y-148242853D01*
X152293111Y-148242853D02*
X152352185Y-148200335D01*
X152352185Y-148200335D02*
X152409407Y-148156817D01*
X152409407Y-148156817D02*
X152465524Y-148111754D01*
X152465524Y-148111754D02*
X152522450Y-148063481D01*
X152522450Y-148063481D02*
X152577643Y-148014030D01*
X152577643Y-148014030D02*
X152629482Y-147965041D01*
X152629482Y-147965041D02*
X152680118Y-147914624D01*
X152680118Y-147914624D02*
X152730178Y-147862082D01*
X152730178Y-147862082D02*
X152778933Y-147808108D01*
X152778933Y-147808108D02*
X152831351Y-147746702D01*
X152831351Y-147746702D02*
X152906012Y-147652435D01*
X152906012Y-147652435D02*
X152949578Y-147593245D01*
X152949578Y-147593245D02*
X152976068Y-147555569D01*
X150002262Y-148737430D02*
X150723794Y-148737430D01*
X150723794Y-148737430D02*
X150723794Y-148737430D01*
X148720428Y-150019264D02*
X148724086Y-149921656D01*
X148724086Y-149921656D02*
X148734112Y-149831269D01*
X148734112Y-149831269D02*
X148749552Y-149746292D01*
X148749552Y-149746292D02*
X148769864Y-149665496D01*
X148769864Y-149665496D02*
X148794541Y-149588671D01*
X148794541Y-149588671D02*
X148823068Y-149515830D01*
X148823068Y-149515830D02*
X148854960Y-149446968D01*
X148854960Y-149446968D02*
X148890496Y-149380805D01*
X148890496Y-149380805D02*
X148928928Y-149318244D01*
X148928928Y-149318244D02*
X148970631Y-149258313D01*
X148970631Y-149258313D02*
X149014669Y-149202048D01*
X149014669Y-149202048D02*
X149061876Y-149148184D01*
X149061876Y-149148184D02*
X149112499Y-149096541D01*
X149112499Y-149096541D02*
X149167040Y-149046868D01*
X149167040Y-149046868D02*
X149226483Y-148998753D01*
X149226483Y-148998753D02*
X149284781Y-148956888D01*
X149284781Y-148956888D02*
X149346695Y-148917520D01*
X149346695Y-148917520D02*
X149410951Y-148881666D01*
X149410951Y-148881666D02*
X149479404Y-148848563D01*
X149479404Y-148848563D02*
X149551423Y-148818957D01*
X149551423Y-148818957D02*
X149627678Y-148793025D01*
X149627678Y-148793025D02*
X149706483Y-148771720D01*
X149706483Y-148771720D02*
X149790427Y-148754847D01*
X149790427Y-148754847D02*
X149879794Y-148743202D01*
X149879794Y-148743202D02*
X149976653Y-148737677D01*
X149976653Y-148737677D02*
X150002262Y-148737430D01*
X148720428Y-152265208D02*
X148720428Y-150019264D01*
X148720428Y-150019264D02*
X148720428Y-150019264D01*
X145986400Y-154999236D02*
X146086602Y-154997431D01*
X146086602Y-154997431D02*
X146188614Y-154991868D01*
X146188614Y-154991868D02*
X146282077Y-154983431D01*
X146282077Y-154983431D02*
X146380459Y-154971044D01*
X146380459Y-154971044D02*
X146469314Y-154956719D01*
X146469314Y-154956719D02*
X146555106Y-154940003D01*
X146555106Y-154940003D02*
X146639921Y-154920634D01*
X146639921Y-154920634D02*
X146719648Y-154899791D01*
X146719648Y-154899791D02*
X146797908Y-154876784D01*
X146797908Y-154876784D02*
X146873689Y-154852032D01*
X146873689Y-154852032D02*
X146952882Y-154823496D01*
X146952882Y-154823496D02*
X147026590Y-154794402D01*
X147026590Y-154794402D02*
X147099231Y-154763250D01*
X147099231Y-154763250D02*
X147168907Y-154730976D01*
X147168907Y-154730976D02*
X147237508Y-154696820D01*
X147237508Y-154696820D02*
X147303192Y-154661814D01*
X147303192Y-154661814D02*
X147367348Y-154625346D01*
X147367348Y-154625346D02*
X147433036Y-154585582D01*
X147433036Y-154585582D02*
X147494069Y-154546315D01*
X147494069Y-154546315D02*
X147554820Y-154504899D01*
X147554820Y-154504899D02*
X147621387Y-154456694D01*
X147621387Y-154456694D02*
X147682807Y-154409427D01*
X147682807Y-154409427D02*
X147740479Y-154362454D01*
X147740479Y-154362454D02*
X147794910Y-154315658D01*
X147794910Y-154315658D02*
X147855579Y-154260476D01*
X147855579Y-154260476D02*
X147908746Y-154209296D01*
X147908746Y-154209296D02*
X147964768Y-154152264D01*
X147964768Y-154152264D02*
X148013618Y-154099706D01*
X148013618Y-154099706D02*
X148066429Y-154039649D01*
X148066429Y-154039649D02*
X148118780Y-153976456D01*
X148118780Y-153976456D02*
X148163044Y-153919868D01*
X148163044Y-153919868D02*
X148211834Y-153853756D01*
X148211834Y-153853756D02*
X148257518Y-153787854D01*
X148257518Y-153787854D02*
X148297725Y-153726226D01*
X148297725Y-153726226D02*
X148341044Y-153655488D01*
X148341044Y-153655488D02*
X148382008Y-153583809D01*
X148382008Y-153583809D02*
X148417062Y-153518155D01*
X148417062Y-153518155D02*
X148450370Y-153451453D01*
X148450370Y-153451453D02*
X148482745Y-153381833D01*
X148482745Y-153381833D02*
X148515594Y-153305398D01*
X148515594Y-153305398D02*
X148544134Y-153233154D01*
X148544134Y-153233154D02*
X148571009Y-153158933D01*
X148571009Y-153158933D02*
X148595943Y-153083235D01*
X148595943Y-153083235D02*
X148619282Y-153004549D01*
X148619282Y-153004549D02*
X148640305Y-152924895D01*
X148640305Y-152924895D02*
X148659420Y-152842233D01*
X148659420Y-152842233D02*
X148676682Y-152754956D01*
X148676682Y-152754956D02*
X148690915Y-152668302D01*
X148690915Y-152668302D02*
X148702962Y-152575926D01*
X148702962Y-152575926D02*
X148711864Y-152483152D01*
X148711864Y-152483152D02*
X148717746Y-152387315D01*
X148717746Y-152387315D02*
X148720329Y-152288407D01*
X148720329Y-152288407D02*
X148720428Y-152265208D01*
X144998627Y-154999236D02*
X145986400Y-154999236D01*
X145986400Y-154999236D02*
X145986400Y-154999236D01*
X144010853Y-154999236D02*
X144998627Y-154999236D01*
X144998627Y-154999236D02*
X144998627Y-154999236D01*
X141276825Y-152265208D02*
X141278625Y-152365410D01*
X141278625Y-152365410D02*
X141283718Y-152460906D01*
X141283718Y-152460906D02*
X141292394Y-152558734D01*
X141292394Y-152558734D02*
X141303496Y-152648626D01*
X141303496Y-152648626D02*
X141317117Y-152735486D01*
X141317117Y-152735486D02*
X141333332Y-152820898D01*
X141333332Y-152820898D02*
X141352421Y-152906379D01*
X141352421Y-152906379D02*
X141372903Y-152986251D01*
X141372903Y-152986251D02*
X141395713Y-153065165D01*
X141395713Y-153065165D02*
X141420138Y-153141095D01*
X141420138Y-153141095D02*
X141446696Y-153216039D01*
X141446696Y-153216039D02*
X141475355Y-153289968D01*
X141475355Y-153289968D02*
X141505243Y-153360934D01*
X141505243Y-153360934D02*
X141537052Y-153430864D01*
X141537052Y-153430864D02*
X141571690Y-153501576D01*
X141571690Y-153501576D02*
X141608285Y-153571127D01*
X141608285Y-153571127D02*
X141644725Y-153635910D01*
X141644725Y-153635910D02*
X141682860Y-153699591D01*
X141682860Y-153699591D02*
X141723506Y-153763427D01*
X141723506Y-153763427D02*
X141765266Y-153825202D01*
X141765266Y-153825202D02*
X141809562Y-153887002D01*
X141809562Y-153887002D02*
X141853306Y-153944669D01*
X141853306Y-153944669D02*
X141900488Y-154003510D01*
X141900488Y-154003510D02*
X141946544Y-154057906D01*
X141946544Y-154057906D02*
X141997445Y-154114853D01*
X141997445Y-154114853D02*
X142046327Y-154166673D01*
X142046327Y-154166673D02*
X142097265Y-154217924D01*
X142097265Y-154217924D02*
X142150658Y-154268867D01*
X142150658Y-154268867D02*
X142203486Y-154316676D01*
X142203486Y-154316676D02*
X142259912Y-154365087D01*
X142259912Y-154365087D02*
X142317251Y-154411656D01*
X142317251Y-154411656D02*
X142374214Y-154455463D01*
X142374214Y-154455463D02*
X142432343Y-154497793D01*
X142432343Y-154497793D02*
X142495036Y-154540905D01*
X142495036Y-154540905D02*
X142557226Y-154581204D01*
X142557226Y-154581204D02*
X142620564Y-154619852D01*
X142620564Y-154619852D02*
X142685015Y-154656814D01*
X142685015Y-154656814D02*
X142753761Y-154693730D01*
X142753761Y-154693730D02*
X142820868Y-154727374D01*
X142820868Y-154727374D02*
X142894219Y-154761553D01*
X142894219Y-154761553D02*
X142966804Y-154792813D01*
X142966804Y-154792813D02*
X143040458Y-154822018D01*
X143040458Y-154822018D02*
X143114642Y-154848960D01*
X143114642Y-154848960D02*
X143190813Y-154874122D01*
X143190813Y-154874122D02*
X143270994Y-154897948D01*
X143270994Y-154897948D02*
X143355267Y-154920128D01*
X143355267Y-154920128D02*
X143437978Y-154939118D01*
X143437978Y-154939118D02*
X143521622Y-154955586D01*
X143521622Y-154955586D02*
X143608281Y-154969802D01*
X143608281Y-154969802D02*
X143700126Y-154981770D01*
X143700126Y-154981770D02*
X143795069Y-154990842D01*
X143795069Y-154990842D02*
X143895307Y-154996835D01*
X143895307Y-154996835D02*
X143996482Y-154999197D01*
X143996482Y-154999197D02*
X144010853Y-154999236D01*
X141276825Y-150019264D02*
X141276825Y-152265208D01*
X141276825Y-152265208D02*
X141276825Y-152265208D01*
X139994991Y-148737430D02*
X140092593Y-148741088D01*
X140092593Y-148741088D02*
X140183227Y-148751151D01*
X140183227Y-148751151D02*
X140269416Y-148766872D01*
X140269416Y-148766872D02*
X140350884Y-148787479D01*
X140350884Y-148787479D02*
X140429269Y-148812867D01*
X140429269Y-148812867D02*
X140502003Y-148841609D01*
X140502003Y-148841609D02*
X140570314Y-148873485D01*
X140570314Y-148873485D02*
X140636583Y-148909311D01*
X140636583Y-148909311D02*
X140699228Y-148948048D01*
X140699228Y-148948048D02*
X140758447Y-148989496D01*
X140758447Y-148989496D02*
X140815529Y-149034438D01*
X140815529Y-149034438D02*
X140870286Y-149082808D01*
X140870286Y-149082808D02*
X140920870Y-149132793D01*
X140920870Y-149132793D02*
X140968633Y-149185501D01*
X140968633Y-149185501D02*
X141014325Y-149241954D01*
X141014325Y-149241954D02*
X141056279Y-149300186D01*
X141056279Y-149300186D02*
X141095856Y-149362244D01*
X141095856Y-149362244D02*
X141134142Y-149430965D01*
X141134142Y-149430965D02*
X141166872Y-149499076D01*
X141166872Y-149499076D02*
X141197174Y-149573472D01*
X141197174Y-149573472D02*
X141222509Y-149648925D01*
X141222509Y-149648925D02*
X141243773Y-149728810D01*
X141243773Y-149728810D02*
X141260333Y-149813127D01*
X141260333Y-149813127D02*
X141271609Y-149902871D01*
X141271609Y-149902871D02*
X141276650Y-149998042D01*
X141276650Y-149998042D02*
X141276825Y-150019264D01*
X139273459Y-148737430D02*
X139994991Y-148737430D01*
X139994991Y-148737430D02*
X139994991Y-148737430D01*
X137021185Y-147555569D02*
X137063448Y-147615071D01*
X137063448Y-147615071D02*
X137107142Y-147673245D01*
X137107142Y-147673245D02*
X137153877Y-147732093D01*
X137153877Y-147732093D02*
X137199522Y-147786517D01*
X137199522Y-147786517D02*
X137247318Y-147840568D01*
X137247318Y-147840568D02*
X137298651Y-147895558D01*
X137298651Y-147895558D02*
X137349981Y-147947638D01*
X137349981Y-147947638D02*
X137403525Y-147999111D01*
X137403525Y-147999111D02*
X137459314Y-148049880D01*
X137459314Y-148049880D02*
X137517868Y-148100250D01*
X137517868Y-148100250D02*
X137573705Y-148145694D01*
X137573705Y-148145694D02*
X137634760Y-148192677D01*
X137634760Y-148192677D02*
X137692861Y-148234922D01*
X137692861Y-148234922D02*
X137754133Y-148277020D01*
X137754133Y-148277020D02*
X137814856Y-148316389D01*
X137814856Y-148316389D02*
X137877121Y-148354448D01*
X137877121Y-148354448D02*
X137942033Y-148391759D01*
X137942033Y-148391759D02*
X138007366Y-148426983D01*
X138007366Y-148426983D02*
X138075929Y-148461542D01*
X138075929Y-148461542D02*
X138144572Y-148493777D01*
X138144572Y-148493777D02*
X138214992Y-148524481D01*
X138214992Y-148524481D02*
X138287183Y-148553561D01*
X138287183Y-148553561D02*
X138361738Y-148581130D01*
X138361738Y-148581130D02*
X138437135Y-148606547D01*
X138437135Y-148606547D02*
X138513946Y-148629966D01*
X138513946Y-148629966D02*
X138594638Y-148651949D01*
X138594638Y-148651949D02*
X138675473Y-148671342D01*
X138675473Y-148671342D02*
X138761460Y-148689150D01*
X138761460Y-148689150D02*
X138848178Y-148704219D01*
X138848178Y-148704219D02*
X138938467Y-148716878D01*
X138938467Y-148716878D02*
X139033948Y-148726946D01*
X139033948Y-148726946D02*
X139129410Y-148733642D01*
X139129410Y-148733642D02*
X139227401Y-148737041D01*
X139227401Y-148737041D02*
X139273459Y-148737430D01*
X135764328Y-145735288D02*
X137021185Y-147555569D01*
X137021185Y-147555569D02*
X137021185Y-147555569D01*
X135279603Y-144180151D02*
X135281366Y-144278466D01*
X135281366Y-144278466D02*
X135287057Y-144382075D01*
X135287057Y-144382075D02*
X135296022Y-144479546D01*
X135296022Y-144479546D02*
X135307861Y-144572475D01*
X135307861Y-144572475D02*
X135322140Y-144660854D01*
X135322140Y-144660854D02*
X135338786Y-144746269D01*
X135338786Y-144746269D02*
X135357358Y-144827920D01*
X135357358Y-144827920D02*
X135378462Y-144909122D01*
X135378462Y-144909122D02*
X135401446Y-144987701D01*
X135401446Y-144987701D02*
X135426311Y-145064218D01*
X135426311Y-145064218D02*
X135452857Y-145138481D01*
X135452857Y-145138481D02*
X135481239Y-145211230D01*
X135481239Y-145211230D02*
X135511379Y-145282445D01*
X135511379Y-145282445D02*
X135543544Y-145352832D01*
X135543544Y-145352832D02*
X135577353Y-145421631D01*
X135577353Y-145421631D02*
X135612346Y-145488111D01*
X135612346Y-145488111D02*
X135648798Y-145552995D01*
X135648798Y-145552995D02*
X135688335Y-145619029D01*
X135688335Y-145619029D02*
X135727559Y-145680646D01*
X135727559Y-145680646D02*
X135764328Y-145735288D01*
X135279603Y-140229681D02*
X135279603Y-144180151D01*
X136561437Y-138947847D02*
X136463829Y-138951505D01*
X136463829Y-138951505D02*
X136373442Y-138961531D01*
X136373442Y-138961531D02*
X136288465Y-138976971D01*
X136288465Y-138976971D02*
X136207669Y-138997283D01*
X136207669Y-138997283D02*
X136130844Y-139021960D01*
X136130844Y-139021960D02*
X136058003Y-139050487D01*
X136058003Y-139050487D02*
X135989141Y-139082379D01*
X135989141Y-139082379D02*
X135922978Y-139117915D01*
X135922978Y-139117915D02*
X135860417Y-139156347D01*
X135860417Y-139156347D02*
X135800486Y-139198050D01*
X135800486Y-139198050D02*
X135744221Y-139242088D01*
X135744221Y-139242088D02*
X135690357Y-139289295D01*
X135690357Y-139289295D02*
X135638714Y-139339918D01*
X135638714Y-139339918D02*
X135589041Y-139394459D01*
X135589041Y-139394459D02*
X135540926Y-139453902D01*
X135540926Y-139453902D02*
X135499061Y-139512200D01*
X135499061Y-139512200D02*
X135459693Y-139574114D01*
X135459693Y-139574114D02*
X135423839Y-139638370D01*
X135423839Y-139638370D02*
X135390736Y-139706823D01*
X135390736Y-139706823D02*
X135361130Y-139778842D01*
X135361130Y-139778842D02*
X135335198Y-139855097D01*
X135335198Y-139855097D02*
X135313893Y-139933902D01*
X135313893Y-139933902D02*
X135297020Y-140017846D01*
X135297020Y-140017846D02*
X135285375Y-140107213D01*
X135285375Y-140107213D02*
X135279850Y-140204072D01*
X135279850Y-140204072D02*
X135279603Y-140229681D01*
X138013631Y-138947847D02*
X136561437Y-138947847D01*
X136561437Y-138947847D02*
X136561437Y-138947847D01*
X138013631Y-135998630D02*
X138013631Y-138947847D01*
X138013631Y-138947847D02*
X138013631Y-138947847D01*
X130069800Y-135998630D02*
X138013631Y-135998630D01*
X128488631Y-134417460D02*
X128491562Y-134514593D01*
X128491562Y-134514593D02*
X128499881Y-134607076D01*
X128499881Y-134607076D02*
X128513107Y-134696131D01*
X128513107Y-134696131D02*
X128530366Y-134779916D01*
X128530366Y-134779916D02*
X128552327Y-134863190D01*
X128552327Y-134863190D02*
X128576829Y-134939470D01*
X128576829Y-134939470D02*
X128604465Y-135012616D01*
X128604465Y-135012616D02*
X128635056Y-135082895D01*
X128635056Y-135082895D02*
X128668768Y-135151092D01*
X128668768Y-135151092D02*
X128705459Y-135217127D01*
X128705459Y-135217127D02*
X128744844Y-135280681D01*
X128744844Y-135280681D02*
X128785535Y-135340019D01*
X128785535Y-135340019D02*
X128829179Y-135397839D01*
X128829179Y-135397839D02*
X128874591Y-135452658D01*
X128874591Y-135452658D02*
X128922382Y-135505358D01*
X128922382Y-135505358D02*
X128972896Y-135556270D01*
X128972896Y-135556270D02*
X129025662Y-135604860D01*
X129025662Y-135604860D02*
X129080133Y-135650673D01*
X129080133Y-135650673D02*
X129138092Y-135695093D01*
X129138092Y-135695093D02*
X129197124Y-135736195D01*
X129197124Y-135736195D02*
X129259096Y-135775252D01*
X129259096Y-135775252D02*
X129322957Y-135811477D01*
X129322957Y-135811477D02*
X129390245Y-135845553D01*
X129390245Y-135845553D02*
X129459887Y-135876703D01*
X129459887Y-135876703D02*
X129534097Y-135905568D01*
X129534097Y-135905568D02*
X129610650Y-135930929D01*
X129610650Y-135930929D02*
X129689468Y-135952584D01*
X129689468Y-135952584D02*
X129773511Y-135970911D01*
X129773511Y-135970911D02*
X129860074Y-135984837D01*
X129860074Y-135984837D02*
X129951907Y-135994298D01*
X129951907Y-135994298D02*
X130048724Y-135998491D01*
X130048724Y-135998491D02*
X130069800Y-135998630D01*
X128488631Y-71031795D02*
X128488631Y-134417460D01*
X130069800Y-69450625D02*
X129967623Y-69453870D01*
X129967623Y-69453870D02*
X129875219Y-69462475D01*
X129875219Y-69462475D02*
X129788080Y-69475644D01*
X129788080Y-69475644D02*
X129704352Y-69493063D01*
X129704352Y-69493063D02*
X129624644Y-69514150D01*
X129624644Y-69514150D02*
X129547782Y-69538823D01*
X129547782Y-69538823D02*
X129474918Y-69566345D01*
X129474918Y-69566345D02*
X129404902Y-69596798D01*
X129404902Y-69596798D02*
X129336689Y-69630484D01*
X129336689Y-69630484D02*
X129271411Y-69666699D01*
X129271411Y-69666699D02*
X129208314Y-69705699D01*
X129208314Y-69705699D02*
X129147713Y-69747182D01*
X129147713Y-69747182D02*
X129083375Y-69795976D01*
X129083375Y-69795976D02*
X129018558Y-69850676D01*
X129018558Y-69850676D02*
X128965874Y-69899786D01*
X128965874Y-69899786D02*
X128915875Y-69950789D01*
X128915875Y-69950789D02*
X128868397Y-70003776D01*
X128868397Y-70003776D02*
X128823309Y-70058872D01*
X128823309Y-70058872D02*
X128780005Y-70116960D01*
X128780005Y-70116960D02*
X128738694Y-70178057D01*
X128738694Y-70178057D02*
X128700203Y-70241138D01*
X128700203Y-70241138D02*
X128664346Y-70306643D01*
X128664346Y-70306643D02*
X128631537Y-70373981D01*
X128631537Y-70373981D02*
X128600526Y-70446415D01*
X128600526Y-70446415D02*
X128573365Y-70519790D01*
X128573365Y-70519790D02*
X128548946Y-70597758D01*
X128548946Y-70597758D02*
X128527747Y-70680687D01*
X128527747Y-70680687D02*
X128511092Y-70764692D01*
X128511092Y-70764692D02*
X128498518Y-70853957D01*
X128498518Y-70853957D02*
X128490882Y-70946638D01*
X128490882Y-70946638D02*
X128488631Y-71031795D01*
X138013631Y-69450625D02*
X130069800Y-69450625D01*
X150723794Y-56711825D02*
X150002262Y-56711825D01*
X150002262Y-56711825D02*
X150002262Y-56711825D01*
X152976068Y-57893686D02*
X152933799Y-57834177D01*
X152933799Y-57834177D02*
X152890104Y-57776003D01*
X152890104Y-57776003D02*
X152844606Y-57718672D01*
X152844606Y-57718672D02*
X152798996Y-57664211D01*
X152798996Y-57664211D02*
X152749924Y-57608677D01*
X152749924Y-57608677D02*
X152699713Y-57554856D01*
X152699713Y-57554856D02*
X152649792Y-57504108D01*
X152649792Y-57504108D02*
X152598899Y-57454991D01*
X152598899Y-57454991D02*
X152545639Y-57406214D01*
X152545639Y-57406214D02*
X152487262Y-57355611D01*
X152487262Y-57355611D02*
X152431586Y-57309950D01*
X152431586Y-57309950D02*
X152374795Y-57265823D01*
X152374795Y-57265823D02*
X152316661Y-57223055D01*
X152316661Y-57223055D02*
X152254285Y-57179721D01*
X152254285Y-57179721D02*
X152191587Y-57138676D01*
X152191587Y-57138676D02*
X152128371Y-57099710D01*
X152128371Y-57099710D02*
X152064147Y-57062485D01*
X152064147Y-57062485D02*
X151998949Y-57027020D01*
X151998949Y-57027020D02*
X151930516Y-56992203D01*
X151930516Y-56992203D02*
X151861995Y-56959711D01*
X151861995Y-56959711D02*
X151791398Y-56928621D01*
X151791398Y-56928621D02*
X151716930Y-56898351D01*
X151716930Y-56898351D02*
X151642456Y-56870581D01*
X151642456Y-56870581D02*
X151567441Y-56845064D01*
X151567441Y-56845064D02*
X151489472Y-56821072D01*
X151489472Y-56821072D02*
X151409467Y-56799064D01*
X151409467Y-56799064D02*
X151326807Y-56779036D01*
X151326807Y-56779036D02*
X151243402Y-56761558D01*
X151243402Y-56761558D02*
X151156746Y-56746245D01*
X151156746Y-56746245D02*
X151066840Y-56733376D01*
X151066840Y-56733376D02*
X150976285Y-56723473D01*
X150976285Y-56723473D02*
X150877309Y-56716120D01*
X150877309Y-56716120D02*
X150780358Y-56712404D01*
X150780358Y-56712404D02*
X150723794Y-56711825D01*
X138013631Y-66501408D02*
X138013631Y-69450625D01*
X138013631Y-69450625D02*
X138013631Y-69450625D01*
X136561437Y-66501408D02*
X138013631Y-66501408D01*
X138013631Y-66501408D02*
X138013631Y-66501408D01*
X135279603Y-65219574D02*
X135283261Y-65317176D01*
X135283261Y-65317176D02*
X135293324Y-65407810D01*
X135293324Y-65407810D02*
X135309045Y-65493999D01*
X135309045Y-65493999D02*
X135329652Y-65575467D01*
X135329652Y-65575467D02*
X135355040Y-65653852D01*
X135355040Y-65653852D02*
X135383782Y-65726586D01*
X135383782Y-65726586D02*
X135415658Y-65794897D01*
X135415658Y-65794897D02*
X135451484Y-65861166D01*
X135451484Y-65861166D02*
X135490221Y-65923811D01*
X135490221Y-65923811D02*
X135531669Y-65983030D01*
X135531669Y-65983030D02*
X135576611Y-66040112D01*
X135576611Y-66040112D02*
X135624981Y-66094869D01*
X135624981Y-66094869D02*
X135674966Y-66145453D01*
X135674966Y-66145453D02*
X135727674Y-66193216D01*
X135727674Y-66193216D02*
X135784127Y-66238908D01*
X135784127Y-66238908D02*
X135842359Y-66280862D01*
X135842359Y-66280862D02*
X135904417Y-66320439D01*
X135904417Y-66320439D02*
X135973138Y-66358725D01*
X135973138Y-66358725D02*
X136041249Y-66391455D01*
X136041249Y-66391455D02*
X136115645Y-66421757D01*
X136115645Y-66421757D02*
X136191098Y-66447092D01*
X136191098Y-66447092D02*
X136270983Y-66468356D01*
X136270983Y-66468356D02*
X136355300Y-66484916D01*
X136355300Y-66484916D02*
X136445044Y-66496192D01*
X136445044Y-66496192D02*
X136540215Y-66501233D01*
X136540215Y-66501233D02*
X136561437Y-66501408D01*
X135279603Y-61269104D02*
X135279603Y-65219574D01*
X135764328Y-59713967D02*
X135723559Y-59774721D01*
X135723559Y-59774721D02*
X135684082Y-59837121D01*
X135684082Y-59837121D02*
X135646567Y-59900106D01*
X135646567Y-59900106D02*
X135609647Y-59966109D01*
X135609647Y-59966109D02*
X135574795Y-60032658D01*
X135574795Y-60032658D02*
X135541130Y-60101519D01*
X135541130Y-60101519D02*
X135508789Y-60172707D01*
X135508789Y-60172707D02*
X135478969Y-60243613D01*
X135478969Y-60243613D02*
X135450890Y-60316045D01*
X135450890Y-60316045D02*
X135422694Y-60395697D01*
X135422694Y-60395697D02*
X135398145Y-60472317D01*
X135398145Y-60472317D02*
X135375222Y-60551961D01*
X135375222Y-60551961D02*
X135354527Y-60633065D01*
X135354527Y-60633065D02*
X135335661Y-60717961D01*
X135335661Y-60717961D02*
X135319699Y-60802287D01*
X135319699Y-60802287D02*
X135306040Y-60889558D01*
X135306040Y-60889558D02*
X135294978Y-60979346D01*
X135294978Y-60979346D02*
X135286414Y-61076059D01*
X135286414Y-61076059D02*
X135281251Y-61174026D01*
X135281251Y-61174026D02*
X135279603Y-61269104D01*
X137021185Y-57893686D02*
X135764328Y-59713967D01*
X135764328Y-59713967D02*
X135764328Y-59713967D01*
X139273459Y-56711825D02*
X139174899Y-56713592D01*
X139174899Y-56713592D02*
X139078184Y-56718781D01*
X139078184Y-56718781D02*
X138984666Y-56727075D01*
X138984666Y-56727075D02*
X138894362Y-56738170D01*
X138894362Y-56738170D02*
X138807283Y-56751774D01*
X138807283Y-56751774D02*
X138718371Y-56768659D01*
X138718371Y-56768659D02*
X138635277Y-56787223D01*
X138635277Y-56787223D02*
X138554812Y-56807816D01*
X138554812Y-56807816D02*
X138473906Y-56831181D01*
X138473906Y-56831181D02*
X138395686Y-56856369D01*
X138395686Y-56856369D02*
X138306040Y-56888479D01*
X138306040Y-56888479D02*
X138232440Y-56917517D01*
X138232440Y-56917517D02*
X138161800Y-56947739D01*
X138161800Y-56947739D02*
X138089756Y-56981024D01*
X138089756Y-56981024D02*
X138021000Y-57015202D01*
X138021000Y-57015202D02*
X137955473Y-57050055D01*
X137955473Y-57050055D02*
X137890906Y-57086676D01*
X137890906Y-57086676D02*
X137827338Y-57125044D01*
X137827338Y-57125044D02*
X137764806Y-57165140D01*
X137764806Y-57165140D02*
X137704135Y-57206393D01*
X137704135Y-57206393D02*
X137645058Y-57248909D01*
X137645058Y-57248909D02*
X137587840Y-57292432D01*
X137587840Y-57292432D02*
X137532216Y-57337082D01*
X137532216Y-57337082D02*
X137476740Y-57384074D01*
X137476740Y-57384074D02*
X137419600Y-57435214D01*
X137419600Y-57435214D02*
X137366602Y-57485328D01*
X137366602Y-57485328D02*
X137315316Y-57536473D01*
X137315316Y-57536473D02*
X137265303Y-57589065D01*
X137265303Y-57589065D02*
X137216595Y-57643093D01*
X137216595Y-57643093D02*
X137167559Y-57700538D01*
X137167559Y-57700538D02*
X137121614Y-57757426D01*
X137121614Y-57757426D02*
X137077072Y-57815690D01*
X137077072Y-57815690D02*
X137033977Y-57875316D01*
X137033977Y-57875316D02*
X137021185Y-57893686D01*
X139994991Y-56711825D02*
X139273459Y-56711825D01*
X139273459Y-56711825D02*
X139273459Y-56711825D01*
X141276825Y-55429991D02*
X141273161Y-55527593D01*
X141273161Y-55527593D02*
X141262802Y-55620219D01*
X141262802Y-55620219D02*
X141247162Y-55705389D01*
X141247162Y-55705389D02*
X141226696Y-55786122D01*
X141226696Y-55786122D02*
X141202044Y-55862423D01*
X141202044Y-55862423D02*
X141173699Y-55934538D01*
X141173699Y-55934538D02*
X141141630Y-56003579D01*
X141141630Y-56003579D02*
X141106263Y-56069280D01*
X141106263Y-56069280D02*
X141068052Y-56131405D01*
X141068052Y-56131405D02*
X141026184Y-56191514D01*
X141026184Y-56191514D02*
X140981963Y-56247940D01*
X140981963Y-56247940D02*
X140934389Y-56302122D01*
X140934389Y-56302122D02*
X140884055Y-56353373D01*
X140884055Y-56353373D02*
X140827286Y-56404883D01*
X140827286Y-56404883D02*
X140771909Y-56449618D01*
X140771909Y-56449618D02*
X140712467Y-56492362D01*
X140712467Y-56492362D02*
X140648886Y-56532713D01*
X140648886Y-56532713D02*
X140581126Y-56570256D01*
X140581126Y-56570256D02*
X140512721Y-56602958D01*
X140512721Y-56602958D02*
X140440317Y-56632345D01*
X140440317Y-56632345D02*
X140363905Y-56657935D01*
X140363905Y-56657935D02*
X140283985Y-56679109D01*
X140283985Y-56679109D02*
X140199134Y-56695653D01*
X140199134Y-56695653D02*
X140108336Y-56706879D01*
X140108336Y-56706879D02*
X140012847Y-56711700D01*
X140012847Y-56711700D02*
X139994991Y-56711825D01*
X141276825Y-53184047D02*
X141276825Y-55429991D01*
X141276825Y-55429991D02*
X141276825Y-55429991D01*
X144010853Y-50450019D02*
X143910644Y-50451819D01*
X143910644Y-50451819D02*
X143814603Y-50456951D01*
X143814603Y-50456951D02*
X143721621Y-50465133D01*
X143721621Y-50465133D02*
X143631685Y-50476095D01*
X143631685Y-50476095D02*
X143544781Y-50489583D01*
X143544781Y-50489583D02*
X143458805Y-50505777D01*
X143458805Y-50505777D02*
X143375855Y-50524137D01*
X143375855Y-50524137D02*
X143294382Y-50544853D01*
X143294382Y-50544853D02*
X143214909Y-50567682D01*
X143214909Y-50567682D02*
X143134957Y-50593332D01*
X143134957Y-50593332D02*
X143060011Y-50619890D01*
X143060011Y-50619890D02*
X142986086Y-50648549D01*
X142986086Y-50648549D02*
X142915120Y-50678437D01*
X142915120Y-50678437D02*
X142843311Y-50711132D01*
X142843311Y-50711132D02*
X142772630Y-50745822D01*
X142772630Y-50745822D02*
X142704925Y-50781479D01*
X142704925Y-50781479D02*
X142640139Y-50817919D01*
X142640139Y-50817919D02*
X142576459Y-50856054D01*
X142576459Y-50856054D02*
X142513916Y-50895854D01*
X142513916Y-50895854D02*
X142445791Y-50941989D01*
X142445791Y-50941989D02*
X142387398Y-50983976D01*
X142387398Y-50983976D02*
X142330166Y-51027448D01*
X142330166Y-51027448D02*
X142272545Y-51073682D01*
X142272545Y-51073682D02*
X142217758Y-51120074D01*
X142217758Y-51120074D02*
X142164221Y-51167866D01*
X142164221Y-51167866D02*
X142111960Y-51217029D01*
X142111960Y-51217029D02*
X142061001Y-51267533D01*
X142061001Y-51267533D02*
X142011375Y-51319351D01*
X142011375Y-51319351D02*
X141963110Y-51372454D01*
X141963110Y-51372454D02*
X141916234Y-51426814D01*
X141916234Y-51426814D02*
X141870774Y-51482405D01*
X141870774Y-51482405D02*
X141826758Y-51539197D01*
X141826758Y-51539197D02*
X141784216Y-51597162D01*
X141784216Y-51597162D02*
X141739728Y-51661393D01*
X141739728Y-51661393D02*
X141700069Y-51722148D01*
X141700069Y-51722148D02*
X141661467Y-51784894D01*
X141661467Y-51784894D02*
X141624521Y-51848740D01*
X141624521Y-51848740D02*
X141589021Y-51914118D01*
X141589021Y-51914118D02*
X141555037Y-51981021D01*
X141555037Y-51981021D02*
X141521339Y-52052271D01*
X141521339Y-52052271D02*
X141490462Y-52122712D01*
X141490462Y-52122712D02*
X141461520Y-52194167D01*
X141461520Y-52194167D02*
X141433851Y-52268580D01*
X141433851Y-52268580D02*
X141408300Y-52343997D01*
X141408300Y-52343997D02*
X141384313Y-52422402D01*
X141384313Y-52422402D02*
X141362238Y-52503324D01*
X141362238Y-52503324D02*
X141342832Y-52584187D01*
X141342832Y-52584187D02*
X141325141Y-52669627D01*
X141325141Y-52669627D02*
X141310130Y-52756017D01*
X141310130Y-52756017D02*
X141297582Y-52845452D01*
X141297582Y-52845452D02*
X141287556Y-52940114D01*
X141287556Y-52940114D02*
X141280778Y-53035707D01*
X141280778Y-53035707D02*
X141277225Y-53136584D01*
X141277225Y-53136584D02*
X141276825Y-53184047D01*
X144998627Y-50450019D02*
X144010853Y-50450019D01*
X144010853Y-50450019D02*
X144010853Y-50450019D01*
X145986400Y-50450019D02*
X144998627Y-50450019D01*
X144998627Y-50450019D02*
X144998627Y-50450019D01*
X148720428Y-53184047D02*
X148718623Y-53083838D01*
X148718623Y-53083838D02*
X148713490Y-52987797D01*
X148713490Y-52987797D02*
X148704852Y-52890513D01*
X148704852Y-52890513D02*
X148693451Y-52798490D01*
X148693451Y-52798490D02*
X148679764Y-52711653D01*
X148679764Y-52711653D02*
X148663376Y-52625745D01*
X148663376Y-52625745D02*
X148644328Y-52540806D01*
X148644328Y-52540806D02*
X148623785Y-52460957D01*
X148623785Y-52460957D02*
X148600919Y-52382070D01*
X148600919Y-52382070D02*
X148576437Y-52306167D01*
X148576437Y-52306167D02*
X148548363Y-52227331D01*
X148548363Y-52227331D02*
X148518754Y-52151559D01*
X148518754Y-52151559D02*
X148487817Y-52078800D01*
X148487817Y-52078800D02*
X148455747Y-52009012D01*
X148455747Y-52009012D02*
X148420851Y-51938451D01*
X148420851Y-51938451D02*
X148385989Y-51872679D01*
X148385989Y-51872679D02*
X148349404Y-51807984D01*
X148349404Y-51807984D02*
X148311128Y-51744398D01*
X148311128Y-51744398D02*
X148270343Y-51680661D01*
X148270343Y-51680661D02*
X148229627Y-51620671D01*
X148229627Y-51620671D02*
X148187682Y-51562244D01*
X148187682Y-51562244D02*
X148142989Y-51503360D01*
X148142989Y-51503360D02*
X148096760Y-51445739D01*
X148096760Y-51445739D02*
X148049354Y-51389791D01*
X148049354Y-51389791D02*
X148001533Y-51336282D01*
X148001533Y-51336282D02*
X147951985Y-51283678D01*
X147951985Y-51283678D02*
X147898516Y-51229889D01*
X147898516Y-51229889D02*
X147846586Y-51180378D01*
X147846586Y-51180378D02*
X147793372Y-51132231D01*
X147793372Y-51132231D02*
X147737725Y-51084489D01*
X147737725Y-51084489D02*
X147679991Y-51037591D01*
X147679991Y-51037591D02*
X147623033Y-50993786D01*
X147623033Y-50993786D02*
X147564901Y-50951454D01*
X147564901Y-50951454D02*
X147503920Y-50909485D01*
X147503920Y-50909485D02*
X147440016Y-50868040D01*
X147440016Y-50868040D02*
X147376680Y-50829394D01*
X147376680Y-50829394D02*
X147312228Y-50792432D01*
X147312228Y-50792432D02*
X147244859Y-50756231D01*
X147244859Y-50756231D02*
X147176376Y-50721873D01*
X147176376Y-50721873D02*
X147103499Y-50687906D01*
X147103499Y-50687906D02*
X147030439Y-50656435D01*
X147030439Y-50656435D02*
X146956787Y-50627230D01*
X146956787Y-50627230D02*
X146882104Y-50600113D01*
X146882104Y-50600113D02*
X146806432Y-50575127D01*
X146806432Y-50575127D02*
X146723711Y-50550588D01*
X146723711Y-50550588D02*
X146641976Y-50529118D01*
X146641976Y-50529118D02*
X146559266Y-50510130D01*
X146559266Y-50510130D02*
X146471418Y-50492907D01*
X146471418Y-50492907D02*
X146384712Y-50478822D01*
X146384712Y-50478822D02*
X146294970Y-50467236D01*
X146294970Y-50467236D02*
X146202176Y-50458407D01*
X146202176Y-50458407D02*
X146101939Y-50452414D01*
X146101939Y-50452414D02*
X146002974Y-50450066D01*
X146002974Y-50450066D02*
X145986400Y-50450019D01*
X148720428Y-55429991D02*
X148720428Y-53184047D01*
X148720428Y-53184047D02*
X148720428Y-53184047D01*
X150002262Y-56711825D02*
X149904654Y-56708161D01*
X149904654Y-56708161D02*
X149814516Y-56698170D01*
X149814516Y-56698170D02*
X149729290Y-56682694D01*
X149729290Y-56682694D02*
X149648494Y-56662380D01*
X149648494Y-56662380D02*
X149571669Y-56637704D01*
X149571669Y-56637704D02*
X149498828Y-56609179D01*
X149498828Y-56609179D02*
X149429966Y-56577282D01*
X149429966Y-56577282D02*
X149363803Y-56541748D01*
X149363803Y-56541748D02*
X149301444Y-56503448D01*
X149301444Y-56503448D02*
X149240731Y-56461184D01*
X149240731Y-56461184D02*
X149183565Y-56416348D01*
X149183565Y-56416348D02*
X149129773Y-56369063D01*
X149129773Y-56369063D02*
X149078706Y-56318882D01*
X149078706Y-56318882D02*
X149030807Y-56266300D01*
X149030807Y-56266300D02*
X148985848Y-56211110D01*
X148985848Y-56211110D02*
X148942052Y-56150657D01*
X148942052Y-56150657D02*
X148902753Y-56089281D01*
X148902753Y-56089281D02*
X148865561Y-56023013D01*
X148865561Y-56023013D02*
X148832459Y-55954840D01*
X148832459Y-55954840D02*
X148803165Y-55884027D01*
X148803165Y-55884027D02*
X148777105Y-55808101D01*
X148777105Y-55808101D02*
X148755291Y-55728179D01*
X148755291Y-55728179D02*
X148738218Y-55644044D01*
X148738218Y-55644044D02*
X148726490Y-55555486D01*
X148726490Y-55555486D02*
X148720675Y-55455593D01*
X148720675Y-55455593D02*
X148720428Y-55429991D01*
X143498632Y-54007209D02*
X143501711Y-53910274D01*
X143501711Y-53910274D02*
X143510531Y-53817333D01*
X143510531Y-53817333D02*
X143524378Y-53729000D01*
X143524378Y-53729000D02*
X143542793Y-53644422D01*
X143542793Y-53644422D02*
X143564872Y-53565001D01*
X143564872Y-53565001D02*
X143590835Y-53488223D01*
X143590835Y-53488223D02*
X143619640Y-53415983D01*
X143619640Y-53415983D02*
X143652145Y-53345389D01*
X143652145Y-53345389D02*
X143689807Y-53273858D01*
X143689807Y-53273858D02*
X143727073Y-53211120D01*
X143727073Y-53211120D02*
X143766932Y-53150860D01*
X143766932Y-53150860D02*
X143809565Y-53092677D01*
X143809565Y-53092677D02*
X143854518Y-53037096D01*
X143854518Y-53037096D02*
X143904324Y-52981282D01*
X143904324Y-52981282D02*
X143954799Y-52929975D01*
X143954799Y-52929975D02*
X144007878Y-52880938D01*
X144007878Y-52880938D02*
X144062840Y-52834826D01*
X144062840Y-52834826D02*
X144119762Y-52791506D01*
X144119762Y-52791506D02*
X144179712Y-52750266D01*
X144179712Y-52750266D02*
X144245133Y-52709908D01*
X144245133Y-52709908D02*
X144312216Y-52673122D01*
X144312216Y-52673122D02*
X144380804Y-52639949D01*
X144380804Y-52639949D02*
X144451278Y-52610207D01*
X144451278Y-52610207D02*
X144525166Y-52583462D01*
X144525166Y-52583462D02*
X144604146Y-52559620D01*
X144604146Y-52559620D02*
X144685467Y-52539949D01*
X144685467Y-52539949D02*
X144770482Y-52524451D01*
X144770482Y-52524451D02*
X144860646Y-52513474D01*
X144860646Y-52513474D02*
X144955386Y-52507823D01*
X144955386Y-52507823D02*
X144998627Y-52507215D01*
X144998627Y-55507182D02*
X144901694Y-55504098D01*
X144901694Y-55504098D02*
X144808755Y-55495276D01*
X144808755Y-55495276D02*
X144722149Y-55481751D01*
X144722149Y-55481751D02*
X144638384Y-55463639D01*
X144638384Y-55463639D02*
X144558081Y-55441444D01*
X144558081Y-55441444D02*
X144481802Y-55415767D01*
X144481802Y-55415767D02*
X144409509Y-55387070D01*
X144409509Y-55387070D02*
X144339621Y-55355041D01*
X144339621Y-55355041D02*
X144272707Y-55320142D01*
X144272707Y-55320142D02*
X144208780Y-55282627D01*
X144208780Y-55282627D02*
X144145994Y-55241455D01*
X144145994Y-55241455D02*
X144085890Y-55197621D01*
X144085890Y-55197621D02*
X144029809Y-55152387D01*
X144029809Y-55152387D02*
X143975994Y-55104564D01*
X143975994Y-55104564D02*
X143924537Y-55054244D01*
X143924537Y-55054244D02*
X143874037Y-54999835D01*
X143874037Y-54999835D02*
X143826776Y-54943636D01*
X143826776Y-54943636D02*
X143782599Y-54885598D01*
X143782599Y-54885598D02*
X143741380Y-54825633D01*
X143741380Y-54825633D02*
X143702755Y-54763130D01*
X143702755Y-54763130D02*
X143667154Y-54698645D01*
X143667154Y-54698645D02*
X143633728Y-54630203D01*
X143633728Y-54630203D02*
X143603095Y-54558274D01*
X143603095Y-54558274D02*
X143576156Y-54484478D01*
X143576156Y-54484478D02*
X143552722Y-54407818D01*
X143552722Y-54407818D02*
X143532221Y-54324352D01*
X143532221Y-54324352D02*
X143516539Y-54239709D01*
X143516539Y-54239709D02*
X143505330Y-54149922D01*
X143505330Y-54149922D02*
X143499346Y-54054056D01*
X143499346Y-54054056D02*
X143498632Y-54007209D01*
X146498621Y-54007209D02*
X146495537Y-54104136D01*
X146495537Y-54104136D02*
X146486788Y-54196487D01*
X146486788Y-54196487D02*
X146473190Y-54283677D01*
X146473190Y-54283677D02*
X146455078Y-54367442D01*
X146455078Y-54367442D02*
X146433051Y-54447193D01*
X146433051Y-54447193D02*
X146407206Y-54524025D01*
X146407206Y-54524025D02*
X146378733Y-54595791D01*
X146378733Y-54595791D02*
X146347352Y-54664412D01*
X146347352Y-54664412D02*
X146312678Y-54731130D01*
X146312678Y-54731130D02*
X146274959Y-54795597D01*
X146274959Y-54795597D02*
X146235454Y-54856111D01*
X146235454Y-54856111D02*
X146193160Y-54914557D01*
X146193160Y-54914557D02*
X146148537Y-54970412D01*
X146148537Y-54970412D02*
X146100590Y-55024875D01*
X146100590Y-55024875D02*
X146050501Y-55076560D01*
X146050501Y-55076560D02*
X145996320Y-55127297D01*
X145996320Y-55127297D02*
X145941868Y-55173565D01*
X145941868Y-55173565D02*
X145883186Y-55218736D01*
X145883186Y-55218736D02*
X145823207Y-55260407D01*
X145823207Y-55260407D02*
X145761393Y-55299039D01*
X145761393Y-55299039D02*
X145696362Y-55335367D01*
X145696362Y-55335367D02*
X145627325Y-55369467D01*
X145627325Y-55369467D02*
X145556080Y-55400178D01*
X145556080Y-55400178D02*
X145482441Y-55427442D01*
X145482441Y-55427442D02*
X145405932Y-55451218D01*
X145405932Y-55451218D02*
X145324888Y-55471595D01*
X145324888Y-55471595D02*
X145239845Y-55487884D01*
X145239845Y-55487884D02*
X145150218Y-55499615D01*
X145150218Y-55499615D02*
X145055406Y-55506125D01*
X145055406Y-55506125D02*
X144998627Y-55507182D01*
X144998627Y-52507215D02*
X145095555Y-52510294D01*
X145095555Y-52510294D02*
X145187909Y-52519039D01*
X145187909Y-52519039D02*
X145275101Y-52532636D01*
X145275101Y-52532636D02*
X145358868Y-52550748D01*
X145358868Y-52550748D02*
X145437516Y-52572438D01*
X145437516Y-52572438D02*
X145517604Y-52599416D01*
X145517604Y-52599416D02*
X145589321Y-52627994D01*
X145589321Y-52627994D02*
X145658142Y-52659597D01*
X145658142Y-52659597D02*
X145724546Y-52694245D01*
X145724546Y-52694245D02*
X145788953Y-52732060D01*
X145788953Y-52732060D02*
X145851492Y-52773096D01*
X145851492Y-52773096D02*
X145909575Y-52815399D01*
X145909575Y-52815399D02*
X145965294Y-52860188D01*
X145965294Y-52860188D02*
X146019613Y-52908295D01*
X146019613Y-52908295D02*
X146072717Y-52960149D01*
X146072717Y-52960149D02*
X146123398Y-53014766D01*
X146123398Y-53014766D02*
X146170999Y-53071415D01*
X146170999Y-53071415D02*
X146217288Y-53132451D01*
X146217288Y-53132451D02*
X146258945Y-53193494D01*
X146258945Y-53193494D02*
X146297056Y-53255663D01*
X146297056Y-53255663D02*
X146333094Y-53321545D01*
X146333094Y-53321545D02*
X146365880Y-53389377D01*
X146365880Y-53389377D02*
X146396454Y-53461982D01*
X146396454Y-53461982D02*
X146423089Y-53535924D01*
X146423089Y-53535924D02*
X146446510Y-53613840D01*
X146446510Y-53613840D02*
X146466962Y-53699183D01*
X146466962Y-53699183D02*
X146482212Y-53784591D01*
X146482212Y-53784591D02*
X146492833Y-53874561D01*
X146492833Y-53874561D02*
X146498159Y-53969698D01*
X146498159Y-53969698D02*
X146498621Y-54007209D01*
X161508622Y-71031795D02*
X161505645Y-70934025D01*
X161505645Y-70934025D02*
X161497290Y-70841551D01*
X161497290Y-70841551D02*
X161484139Y-70753118D01*
X161484139Y-70753118D02*
X161466737Y-70668734D01*
X161466737Y-70668734D02*
X161445175Y-70586930D01*
X161445175Y-70586930D02*
X161420416Y-70509776D01*
X161420416Y-70509776D02*
X161392439Y-70435796D01*
X161392439Y-70435796D02*
X161361680Y-70365262D01*
X161361680Y-70365262D02*
X161327364Y-70296037D01*
X161327364Y-70296037D02*
X161291176Y-70231089D01*
X161291176Y-70231089D02*
X161252725Y-70169062D01*
X161252725Y-70169062D02*
X161212058Y-70109707D01*
X161212058Y-70109707D02*
X161168066Y-70051407D01*
X161168066Y-70051407D02*
X161122655Y-69996589D01*
X161122655Y-69996589D02*
X161074864Y-69943889D01*
X161074864Y-69943889D02*
X161024776Y-69893388D01*
X161024776Y-69893388D02*
X160972471Y-69845171D01*
X160972471Y-69845171D02*
X160917574Y-69798946D01*
X160917574Y-69798946D02*
X160859630Y-69754505D01*
X160859630Y-69754505D02*
X160800615Y-69713381D01*
X160800615Y-69713381D02*
X160738915Y-69674453D01*
X160738915Y-69674453D02*
X160673761Y-69637488D01*
X160673761Y-69637488D02*
X160606999Y-69603693D01*
X160606999Y-69603693D02*
X160537636Y-69572661D01*
X160537636Y-69572661D02*
X160463716Y-69543883D01*
X160463716Y-69543883D02*
X160387760Y-69518674D01*
X160387760Y-69518674D02*
X160307774Y-69496663D01*
X160307774Y-69496663D02*
X160223129Y-69478221D01*
X160223129Y-69478221D02*
X160135009Y-69464123D01*
X160135009Y-69464123D02*
X160043454Y-69454812D01*
X160043454Y-69454812D02*
X159946610Y-69450736D01*
X159946610Y-69450736D02*
X159927453Y-69450625D01*
X154717650Y-65219574D02*
X154717650Y-61269104D01*
X153435816Y-66501408D02*
X153533418Y-66497744D01*
X153533418Y-66497744D02*
X153626044Y-66487385D01*
X153626044Y-66487385D02*
X153711214Y-66471745D01*
X153711214Y-66471745D02*
X153791947Y-66451279D01*
X153791947Y-66451279D02*
X153868248Y-66426627D01*
X153868248Y-66426627D02*
X153940363Y-66398282D01*
X153940363Y-66398282D02*
X154009404Y-66366213D01*
X154009404Y-66366213D02*
X154075105Y-66330846D01*
X154075105Y-66330846D02*
X154137230Y-66292635D01*
X154137230Y-66292635D02*
X154197339Y-66250767D01*
X154197339Y-66250767D02*
X154253765Y-66206546D01*
X154253765Y-66206546D02*
X154307947Y-66158972D01*
X154307947Y-66158972D02*
X154359198Y-66108638D01*
X154359198Y-66108638D02*
X154410708Y-66051869D01*
X154410708Y-66051869D02*
X154455443Y-65996492D01*
X154455443Y-65996492D02*
X154498187Y-65937050D01*
X154498187Y-65937050D02*
X154538538Y-65873469D01*
X154538538Y-65873469D02*
X154576081Y-65805709D01*
X154576081Y-65805709D02*
X154608783Y-65737304D01*
X154608783Y-65737304D02*
X154638170Y-65664900D01*
X154638170Y-65664900D02*
X154663760Y-65588488D01*
X154663760Y-65588488D02*
X154684934Y-65508568D01*
X154684934Y-65508568D02*
X154701478Y-65423717D01*
X154701478Y-65423717D02*
X154712704Y-65332919D01*
X154712704Y-65332919D02*
X154717525Y-65237430D01*
X154717525Y-65237430D02*
X154717650Y-65219574D01*
X154232925Y-59713967D02*
X152976068Y-57893686D01*
X152976068Y-57893686D02*
X152976068Y-57893686D01*
X154717650Y-61269104D02*
X154715836Y-61169564D01*
X154715836Y-61169564D02*
X154710603Y-61072828D01*
X154710603Y-61072828D02*
X154701814Y-60975125D01*
X154701814Y-60975125D02*
X154690641Y-60885560D01*
X154690641Y-60885560D02*
X154676647Y-60797125D01*
X154676647Y-60797125D02*
X154660442Y-60712438D01*
X154660442Y-60712438D02*
X154642157Y-60630716D01*
X154642157Y-60630716D02*
X154621181Y-60548854D01*
X154621181Y-60548854D02*
X154596865Y-60465007D01*
X154596865Y-60465007D02*
X154571972Y-60388075D01*
X154571972Y-60388075D02*
X154545513Y-60313781D01*
X154545513Y-60313781D02*
X154517217Y-60241001D01*
X154517217Y-60241001D02*
X154487163Y-60169755D01*
X154487163Y-60169755D02*
X154455082Y-60099332D01*
X154455082Y-60099332D02*
X154420989Y-60029778D01*
X154420989Y-60029778D02*
X154386441Y-59963977D01*
X154386441Y-59963977D02*
X154350273Y-59899404D01*
X154350273Y-59899404D02*
X154312314Y-59835739D01*
X154312314Y-59835739D02*
X154271910Y-59772000D01*
X154271910Y-59772000D02*
X154232925Y-59713967D01*
X144998627Y-149942073D02*
X145095555Y-149945152D01*
X145095555Y-149945152D02*
X145187909Y-149953897D01*
X145187909Y-149953897D02*
X145275101Y-149967494D01*
X145275101Y-149967494D02*
X145358868Y-149985606D01*
X145358868Y-149985606D02*
X145437516Y-150007296D01*
X145437516Y-150007296D02*
X145517604Y-150034274D01*
X145517604Y-150034274D02*
X145589321Y-150062852D01*
X145589321Y-150062852D02*
X145658142Y-150094455D01*
X145658142Y-150094455D02*
X145724546Y-150129103D01*
X145724546Y-150129103D02*
X145788953Y-150166917D01*
X145788953Y-150166917D02*
X145851492Y-150207953D01*
X145851492Y-150207953D02*
X145909575Y-150250255D01*
X145909575Y-150250255D02*
X145965294Y-150295044D01*
X145965294Y-150295044D02*
X146019613Y-150343151D01*
X146019613Y-150343151D02*
X146072717Y-150395005D01*
X146072717Y-150395005D02*
X146123398Y-150449622D01*
X146123398Y-150449622D02*
X146170999Y-150506270D01*
X146170999Y-150506270D02*
X146217288Y-150567305D01*
X146217288Y-150567305D02*
X146258945Y-150628346D01*
X146258945Y-150628346D02*
X146297056Y-150690514D01*
X146297056Y-150690514D02*
X146333094Y-150756396D01*
X146333094Y-150756396D02*
X146365880Y-150824227D01*
X146365880Y-150824227D02*
X146396454Y-150896830D01*
X146396454Y-150896830D02*
X146423089Y-150970771D01*
X146423089Y-150970771D02*
X146446510Y-151048684D01*
X146446510Y-151048684D02*
X146466962Y-151134027D01*
X146466962Y-151134027D02*
X146482212Y-151219432D01*
X146482212Y-151219432D02*
X146492833Y-151309401D01*
X146492833Y-151309401D02*
X146498159Y-151404535D01*
X146498159Y-151404535D02*
X146498621Y-151442046D01*
X143498632Y-151442046D02*
X143501711Y-151345113D01*
X143501711Y-151345113D02*
X143510531Y-151252174D01*
X143510531Y-151252174D02*
X143524378Y-151163841D01*
X143524378Y-151163841D02*
X143542793Y-151079266D01*
X143542793Y-151079266D02*
X143564872Y-150999847D01*
X143564872Y-150999847D02*
X143590835Y-150923070D01*
X143590835Y-150923070D02*
X143619640Y-150850833D01*
X143619640Y-150850833D02*
X143652145Y-150780240D01*
X143652145Y-150780240D02*
X143689807Y-150708709D01*
X143689807Y-150708709D02*
X143727073Y-150645972D01*
X143727073Y-150645972D02*
X143766932Y-150585714D01*
X143766932Y-150585714D02*
X143809565Y-150527532D01*
X143809565Y-150527532D02*
X143854518Y-150471952D01*
X143854518Y-150471952D02*
X143904324Y-150416138D01*
X143904324Y-150416138D02*
X143954799Y-150364831D01*
X143954799Y-150364831D02*
X144007878Y-150315794D01*
X144007878Y-150315794D02*
X144062840Y-150269682D01*
X144062840Y-150269682D02*
X144119762Y-150226362D01*
X144119762Y-150226362D02*
X144179712Y-150185123D01*
X144179712Y-150185123D02*
X144245133Y-150144765D01*
X144245133Y-150144765D02*
X144312216Y-150107980D01*
X144312216Y-150107980D02*
X144380804Y-150074807D01*
X144380804Y-150074807D02*
X144451278Y-150045065D01*
X144451278Y-150045065D02*
X144525166Y-150018320D01*
X144525166Y-150018320D02*
X144604146Y-149994478D01*
X144604146Y-149994478D02*
X144685467Y-149974807D01*
X144685467Y-149974807D02*
X144770482Y-149959309D01*
X144770482Y-149959309D02*
X144860646Y-149948332D01*
X144860646Y-149948332D02*
X144955386Y-149942681D01*
X144955386Y-149942681D02*
X144998627Y-149942073D01*
X144998627Y-152942040D02*
X144901694Y-152938956D01*
X144901694Y-152938956D02*
X144808755Y-152930134D01*
X144808755Y-152930134D02*
X144722149Y-152916609D01*
X144722149Y-152916609D02*
X144638384Y-152898497D01*
X144638384Y-152898497D02*
X144558081Y-152876302D01*
X144558081Y-152876302D02*
X144481802Y-152850625D01*
X144481802Y-152850625D02*
X144409509Y-152821928D01*
X144409509Y-152821928D02*
X144339621Y-152789899D01*
X144339621Y-152789899D02*
X144272707Y-152755000D01*
X144272707Y-152755000D02*
X144208780Y-152717485D01*
X144208780Y-152717485D02*
X144145994Y-152676312D01*
X144145994Y-152676312D02*
X144085890Y-152632477D01*
X144085890Y-152632477D02*
X144029809Y-152587243D01*
X144029809Y-152587243D02*
X143975994Y-152539420D01*
X143975994Y-152539420D02*
X143924537Y-152489100D01*
X143924537Y-152489100D02*
X143874037Y-152434691D01*
X143874037Y-152434691D02*
X143826776Y-152378491D01*
X143826776Y-152378491D02*
X143782599Y-152320453D01*
X143782599Y-152320453D02*
X143741380Y-152260487D01*
X143741380Y-152260487D02*
X143702755Y-152197983D01*
X143702755Y-152197983D02*
X143667154Y-152133496D01*
X143667154Y-152133496D02*
X143633728Y-152065053D01*
X143633728Y-152065053D02*
X143603095Y-151993122D01*
X143603095Y-151993122D02*
X143576156Y-151919324D01*
X143576156Y-151919324D02*
X143552722Y-151842664D01*
X143552722Y-151842664D02*
X143532221Y-151759196D01*
X143532221Y-151759196D02*
X143516539Y-151674551D01*
X143516539Y-151674551D02*
X143505330Y-151584762D01*
X143505330Y-151584762D02*
X143499346Y-151488893D01*
X143499346Y-151488893D02*
X143498632Y-151442046D01*
X141823648Y-144445294D02*
X141825145Y-144346760D01*
X141825145Y-144346760D02*
X141829848Y-144245180D01*
X141829848Y-144245180D02*
X141837947Y-144141951D01*
X141837947Y-144141951D02*
X141847982Y-144050228D01*
X141847982Y-144050228D02*
X141860322Y-143961157D01*
X141860322Y-143961157D02*
X141874661Y-143875329D01*
X141874661Y-143875329D02*
X141891918Y-143787275D01*
X141891918Y-143787275D02*
X141910291Y-143705491D01*
X141910291Y-143705491D02*
X141930752Y-143624516D01*
X141930752Y-143624516D02*
X141953275Y-143544383D01*
X141953275Y-143544383D02*
X141977827Y-143465122D01*
X141977827Y-143465122D02*
X142003568Y-143389053D01*
X142003568Y-143389053D02*
X142032029Y-143311594D01*
X142032029Y-143311594D02*
X142061280Y-143237890D01*
X142061280Y-143237890D02*
X142091818Y-143166208D01*
X142091818Y-143166208D02*
X142123793Y-143095983D01*
X142123793Y-143095983D02*
X142159566Y-143022385D01*
X142159566Y-143022385D02*
X142193775Y-142956218D01*
X142193775Y-142956218D02*
X142229478Y-142890965D01*
X142229478Y-142890965D02*
X142267875Y-142824592D01*
X142267875Y-142824592D02*
X142306546Y-142761272D01*
X142306546Y-142761272D02*
X142346642Y-142698936D01*
X142346642Y-142698936D02*
X142388142Y-142637609D01*
X142388142Y-142637609D02*
X142431021Y-142577310D01*
X142431021Y-142577310D02*
X142475257Y-142518064D01*
X142475257Y-142518064D02*
X142519712Y-142461288D01*
X142519712Y-142461288D02*
X142569249Y-142400999D01*
X142569249Y-142400999D02*
X142617465Y-142345084D01*
X142617465Y-142345084D02*
X142665333Y-142292063D01*
X142665333Y-142292063D02*
X142719333Y-142235002D01*
X142719333Y-142235002D02*
X142776413Y-142177622D01*
X142776413Y-142177622D02*
X142829711Y-142126578D01*
X142829711Y-142126578D02*
X142881961Y-142078755D01*
X142881961Y-142078755D02*
X142936179Y-142031320D01*
X142936179Y-142031320D02*
X142991010Y-141985481D01*
X142991010Y-141985481D02*
X143048758Y-141939396D01*
X143048758Y-141939396D02*
X143105675Y-141896062D01*
X143105675Y-141896062D02*
X143170895Y-141848821D01*
X143170895Y-141848821D02*
X143236352Y-141803872D01*
X143236352Y-141803872D02*
X143296914Y-141764374D01*
X143296914Y-141764374D02*
X143359447Y-141725606D01*
X143359447Y-141725606D02*
X143431779Y-141683209D01*
X143431779Y-141683209D02*
X143498967Y-141646084D01*
X143498967Y-141646084D02*
X143564988Y-141611632D01*
X143564988Y-141611632D02*
X143638430Y-141575590D01*
X143638430Y-141575590D02*
X143708511Y-141543355D01*
X143708511Y-141543355D02*
X143781730Y-141511857D01*
X143781730Y-141511857D02*
X143853619Y-141483029D01*
X143853619Y-141483029D02*
X143928079Y-141455300D01*
X143928079Y-141455300D02*
X144004563Y-141429015D01*
X144004563Y-141429015D02*
X144081329Y-141404812D01*
X144081329Y-141404812D02*
X144159510Y-141382354D01*
X144159510Y-141382354D02*
X144239697Y-141361566D01*
X144239697Y-141361566D02*
X144321294Y-141342699D01*
X144321294Y-141342699D02*
X144408546Y-141325022D01*
X144408546Y-141325022D02*
X144494189Y-141310142D01*
X144494189Y-141310142D02*
X144583079Y-141297239D01*
X144583079Y-141297239D02*
X144672751Y-141286811D01*
X144672751Y-141286811D02*
X144775773Y-141277988D01*
X144775773Y-141277988D02*
X144872076Y-141272767D01*
X144872076Y-141272767D02*
X144971679Y-141270403D01*
X144971679Y-141270403D02*
X144998627Y-141270294D01*
X144998627Y-147620294D02*
X144898180Y-147618732D01*
X144898180Y-147618732D02*
X144801042Y-147614242D01*
X144801042Y-147614242D02*
X144707822Y-147607151D01*
X144707822Y-147607151D02*
X144615372Y-147597395D01*
X144615372Y-147597395D02*
X144526197Y-147585380D01*
X144526197Y-147585380D02*
X144437822Y-147570918D01*
X144437822Y-147570918D02*
X144350282Y-147554039D01*
X144350282Y-147554039D02*
X144263613Y-147534779D01*
X144263613Y-147534779D02*
X144183181Y-147514593D01*
X144183181Y-147514593D02*
X144100064Y-147491346D01*
X144100064Y-147491346D02*
X144023095Y-147467603D01*
X144023095Y-147467603D02*
X143944682Y-147441171D01*
X143944682Y-147441171D02*
X143869461Y-147413629D01*
X143869461Y-147413629D02*
X143796821Y-147384946D01*
X143796821Y-147384946D02*
X143723963Y-147354054D01*
X143723963Y-147354054D02*
X143654227Y-147322438D01*
X143654227Y-147322438D02*
X143586480Y-147289739D01*
X143586480Y-147289739D02*
X143518042Y-147254651D01*
X143518042Y-147254651D02*
X143448483Y-147216796D01*
X143448483Y-147216796D02*
X143384109Y-147179716D01*
X143384109Y-147179716D02*
X143321203Y-147141499D01*
X143321203Y-147141499D02*
X143258264Y-147101226D01*
X143258264Y-147101226D02*
X143194873Y-147058503D01*
X143194873Y-147058503D02*
X143134508Y-147015710D01*
X143134508Y-147015710D02*
X143075195Y-146971560D01*
X143075195Y-146971560D02*
X143015093Y-146924583D01*
X143015093Y-146924583D02*
X142957986Y-146877740D01*
X142957986Y-146877740D02*
X142903339Y-146830785D01*
X142903339Y-146830785D02*
X142850659Y-146783430D01*
X142850659Y-146783430D02*
X142798619Y-146734513D01*
X142798619Y-146734513D02*
X142748112Y-146684872D01*
X142748112Y-146684872D02*
X142696663Y-146631965D01*
X142696663Y-146631965D02*
X142646046Y-146577438D01*
X142646046Y-146577438D02*
X142595533Y-146520384D01*
X142595533Y-146520384D02*
X142549414Y-146465799D01*
X142549414Y-146465799D02*
X142504508Y-146410169D01*
X142504508Y-146410169D02*
X142460842Y-146353520D01*
X142460842Y-146353520D02*
X142417040Y-146293932D01*
X142417040Y-146293932D02*
X142374603Y-146233299D01*
X142374603Y-146233299D02*
X142332577Y-146170138D01*
X142332577Y-146170138D02*
X142292660Y-146106950D01*
X142292660Y-146106950D02*
X142252088Y-146039144D01*
X142252088Y-146039144D02*
X142214325Y-145972363D01*
X142214325Y-145972363D02*
X142179245Y-145906724D01*
X142179245Y-145906724D02*
X142145670Y-145840180D01*
X142145670Y-145840180D02*
X142111609Y-145768368D01*
X142111609Y-145768368D02*
X142080257Y-145697806D01*
X142080257Y-145697806D02*
X142050806Y-145626911D01*
X142050806Y-145626911D02*
X142021761Y-145551754D01*
X142021761Y-145551754D02*
X141995372Y-145477989D01*
X141995372Y-145477989D02*
X141970397Y-145402235D01*
X141970397Y-145402235D02*
X141947114Y-145325066D01*
X141947114Y-145325066D02*
X141925135Y-145244709D01*
X141925135Y-145244709D02*
X141905361Y-145164117D01*
X141905361Y-145164117D02*
X141887285Y-145080920D01*
X141887285Y-145080920D02*
X141870863Y-144993866D01*
X141870863Y-144993866D02*
X141857006Y-144907229D01*
X141857006Y-144907229D02*
X141845284Y-144817960D01*
X141845284Y-144817960D02*
X141835887Y-144726048D01*
X141835887Y-144726048D02*
X141829086Y-144632748D01*
X141829086Y-144632748D02*
X141824921Y-144536170D01*
X141824921Y-144536170D02*
X141823648Y-144445294D01*
X146498621Y-151442046D02*
X146495537Y-151538974D01*
X146495537Y-151538974D02*
X146486788Y-151631328D01*
X146486788Y-151631328D02*
X146473190Y-151718520D01*
X146473190Y-151718520D02*
X146455078Y-151802287D01*
X146455078Y-151802287D02*
X146433051Y-151882039D01*
X146433051Y-151882039D02*
X146407206Y-151958872D01*
X146407206Y-151958872D02*
X146378733Y-152030641D01*
X146378733Y-152030641D02*
X146347352Y-152099262D01*
X146347352Y-152099262D02*
X146312678Y-152165983D01*
X146312678Y-152165983D02*
X146274959Y-152230451D01*
X146274959Y-152230451D02*
X146235454Y-152290966D01*
X146235454Y-152290966D02*
X146193160Y-152349412D01*
X146193160Y-152349412D02*
X146148537Y-152405268D01*
X146148537Y-152405268D02*
X146100590Y-152459731D01*
X146100590Y-152459731D02*
X146050501Y-152511416D01*
X146050501Y-152511416D02*
X145996320Y-152562153D01*
X145996320Y-152562153D02*
X145941868Y-152608421D01*
X145941868Y-152608421D02*
X145883186Y-152653593D01*
X145883186Y-152653593D02*
X145823207Y-152695265D01*
X145823207Y-152695265D02*
X145761393Y-152733897D01*
X145761393Y-152733897D02*
X145696362Y-152770225D01*
X145696362Y-152770225D02*
X145627325Y-152804325D01*
X145627325Y-152804325D02*
X145556080Y-152835036D01*
X145556080Y-152835036D02*
X145482441Y-152862300D01*
X145482441Y-152862300D02*
X145405932Y-152886076D01*
X145405932Y-152886076D02*
X145324888Y-152906453D01*
X145324888Y-152906453D02*
X145239845Y-152922742D01*
X145239845Y-152922742D02*
X145150218Y-152934473D01*
X145150218Y-152934473D02*
X145055406Y-152940983D01*
X145055406Y-152940983D02*
X144998627Y-152942040D01*
X159927453Y-69450625D02*
X151983622Y-69450625D01*
X151983622Y-66501408D02*
X153435816Y-66501408D01*
X153435816Y-66501408D02*
X153435816Y-66501408D01*
X151983622Y-69450625D02*
X151983622Y-66501408D01*
X151983622Y-66501408D02*
X151983622Y-66501408D01*
X148173648Y-61003961D02*
X148172067Y-61105039D01*
X148172067Y-61105039D02*
X148167634Y-61200904D01*
X148167634Y-61200904D02*
X148160334Y-61296638D01*
X148160334Y-61296638D02*
X148150749Y-61387207D01*
X148150749Y-61387207D02*
X148138825Y-61475766D01*
X148138825Y-61475766D02*
X148124596Y-61562926D01*
X148124596Y-61562926D02*
X148107894Y-61649879D01*
X148107894Y-61649879D02*
X148088840Y-61735971D01*
X148088840Y-61735971D02*
X148068420Y-61817618D01*
X148068420Y-61817618D02*
X148046592Y-61896065D01*
X148046592Y-61896065D02*
X148023009Y-61973101D01*
X148023009Y-61973101D02*
X147997736Y-62048722D01*
X147997736Y-62048722D02*
X147970418Y-62124051D01*
X147970418Y-62124051D02*
X147942178Y-62196238D01*
X147942178Y-62196238D02*
X147911274Y-62269772D01*
X147911274Y-62269772D02*
X147879610Y-62340165D01*
X147879610Y-62340165D02*
X147846297Y-62409639D01*
X147846297Y-62409639D02*
X147810523Y-62479762D01*
X147810523Y-62479762D02*
X147774829Y-62545723D01*
X147774829Y-62545723D02*
X147736720Y-62612285D01*
X147736720Y-62612285D02*
X147698328Y-62675794D01*
X147698328Y-62675794D02*
X147658833Y-62737821D01*
X147658833Y-62737821D02*
X147618629Y-62797879D01*
X147618629Y-62797879D02*
X147576059Y-62858412D01*
X147576059Y-62858412D02*
X147533564Y-62915995D01*
X147533564Y-62915995D02*
X147485369Y-62978179D01*
X147485369Y-62978179D02*
X147438735Y-63035465D01*
X147438735Y-63035465D02*
X147389239Y-63093428D01*
X147389239Y-63093428D02*
X147340001Y-63148422D01*
X147340001Y-63148422D02*
X147291162Y-63200534D01*
X147291162Y-63200534D02*
X147237802Y-63254900D01*
X147237802Y-63254900D02*
X147184885Y-63306337D01*
X147184885Y-63306337D02*
X147130789Y-63356545D01*
X147130789Y-63356545D02*
X147070126Y-63410169D01*
X147070126Y-63410169D02*
X147011790Y-63459237D01*
X147011790Y-63459237D02*
X146956023Y-63503976D01*
X146956023Y-63503976D02*
X146897808Y-63548550D01*
X146897808Y-63548550D02*
X146839517Y-63591105D01*
X146839517Y-63591105D02*
X146774795Y-63636045D01*
X146774795Y-63636045D02*
X146712943Y-63676820D01*
X146712943Y-63676820D02*
X146648052Y-63717431D01*
X146648052Y-63717431D02*
X146584717Y-63755011D01*
X146584717Y-63755011D02*
X146519399Y-63791730D01*
X146519399Y-63791730D02*
X146451535Y-63827765D01*
X146451535Y-63827765D02*
X146382709Y-63862198D01*
X146382709Y-63862198D02*
X146301959Y-63899974D01*
X146301959Y-63899974D02*
X146231144Y-63930859D01*
X146231144Y-63930859D02*
X146160003Y-63959836D01*
X146160003Y-63959836D02*
X146086879Y-63987547D01*
X146086879Y-63987547D02*
X146008868Y-64014854D01*
X146008868Y-64014854D02*
X145932865Y-64039278D01*
X145932865Y-64039278D02*
X145854862Y-64062160D01*
X145854862Y-64062160D02*
X145774256Y-64083536D01*
X145774256Y-64083536D02*
X145691018Y-64103236D01*
X145691018Y-64103236D02*
X145608170Y-64120502D01*
X145608170Y-64120502D02*
X145522705Y-64135907D01*
X145522705Y-64135907D02*
X145431516Y-64149692D01*
X145431516Y-64149692D02*
X145339497Y-64160873D01*
X145339497Y-64160873D02*
X145246689Y-64169410D01*
X145246689Y-64169410D02*
X145150588Y-64175384D01*
X145150588Y-64175384D02*
X145051819Y-64178520D01*
X145051819Y-64178520D02*
X144998627Y-64178961D01*
X144998627Y-57828961D02*
X145097156Y-57830458D01*
X145097156Y-57830458D02*
X145193675Y-57834850D01*
X145193675Y-57834850D02*
X145286916Y-57841869D01*
X145286916Y-57841869D02*
X145379388Y-57851554D01*
X145379388Y-57851554D02*
X145471054Y-57863867D01*
X145471054Y-57863867D02*
X145559430Y-57878331D01*
X145559430Y-57878331D02*
X145646971Y-57895209D01*
X145646971Y-57895209D02*
X145728848Y-57913335D01*
X145728848Y-57913335D02*
X145809327Y-57933397D01*
X145809327Y-57933397D02*
X145887806Y-57955150D01*
X145887806Y-57955150D02*
X145965456Y-57978848D01*
X145965456Y-57978848D02*
X146045694Y-58005664D01*
X146045694Y-58005664D02*
X146120997Y-58033038D01*
X146120997Y-58033038D02*
X146193159Y-58061333D01*
X146193159Y-58061333D02*
X146263895Y-58091084D01*
X146263895Y-58091084D02*
X146333205Y-58122227D01*
X146333205Y-58122227D02*
X146404318Y-58156301D01*
X146404318Y-58156301D02*
X146470719Y-58190121D01*
X146470719Y-58190121D02*
X146536211Y-58225441D01*
X146536211Y-58225441D02*
X146600768Y-58262237D01*
X146600768Y-58262237D02*
X146666407Y-58301747D01*
X146666407Y-58301747D02*
X146733004Y-58344092D01*
X146733004Y-58344092D02*
X146794530Y-58385322D01*
X146794530Y-58385322D02*
X146855029Y-58427935D01*
X146855029Y-58427935D02*
X146912580Y-58470474D01*
X146912580Y-58470474D02*
X146969126Y-58514264D01*
X146969126Y-58514264D02*
X147026486Y-58560816D01*
X147026486Y-58560816D02*
X147080932Y-58607096D01*
X147080932Y-58607096D02*
X147133874Y-58654171D01*
X147133874Y-58654171D02*
X147193499Y-58709790D01*
X147193499Y-58709790D02*
X147244544Y-58759743D01*
X147244544Y-58759743D02*
X147301022Y-58817713D01*
X147301022Y-58817713D02*
X147351230Y-58871810D01*
X147351230Y-58871810D02*
X147401352Y-58928413D01*
X147401352Y-58928413D02*
X147447865Y-58983451D01*
X147447865Y-58983451D02*
X147492768Y-59039078D01*
X147492768Y-59039078D02*
X147536795Y-59096203D01*
X147536795Y-59096203D02*
X147579890Y-59154828D01*
X147579890Y-59154828D02*
X147622675Y-59215948D01*
X147622675Y-59215948D02*
X147663724Y-59277603D01*
X147663724Y-59277603D02*
X147703363Y-59340258D01*
X147703363Y-59340258D02*
X147741568Y-59403890D01*
X147741568Y-59403890D02*
X147779482Y-59470580D01*
X147779482Y-59470580D02*
X147816926Y-59540390D01*
X147816926Y-59540390D02*
X147850550Y-59606908D01*
X147850550Y-59606908D02*
X147883405Y-59675948D01*
X147883405Y-59675948D02*
X147917981Y-59753662D01*
X147917981Y-59753662D02*
X147947604Y-59825144D01*
X147947604Y-59825144D02*
X147976156Y-59899197D01*
X147976156Y-59899197D02*
X148003292Y-59975280D01*
X148003292Y-59975280D02*
X148030539Y-60058650D01*
X148030539Y-60058650D02*
X148053531Y-60135943D01*
X148053531Y-60135943D02*
X148075209Y-60216427D01*
X148075209Y-60216427D02*
X148094815Y-60297737D01*
X148094815Y-60297737D02*
X148112804Y-60382273D01*
X148112804Y-60382273D02*
X148128532Y-60467620D01*
X148128532Y-60467620D02*
X148142319Y-60556223D01*
X148142319Y-60556223D02*
X148153925Y-60648108D01*
X148153925Y-60648108D02*
X148162895Y-60740792D01*
X148162895Y-60740792D02*
X148169319Y-60836768D01*
X148169319Y-60836768D02*
X148172892Y-60934143D01*
X148172892Y-60934143D02*
X148173648Y-61003961D01*
X141823648Y-61003961D02*
X141825145Y-60905427D01*
X141825145Y-60905427D02*
X141829848Y-60803847D01*
X141829848Y-60803847D02*
X141837947Y-60700618D01*
X141837947Y-60700618D02*
X141847982Y-60608895D01*
X141847982Y-60608895D02*
X141860322Y-60519824D01*
X141860322Y-60519824D02*
X141874661Y-60433996D01*
X141874661Y-60433996D02*
X141891918Y-60345942D01*
X141891918Y-60345942D02*
X141910291Y-60264158D01*
X141910291Y-60264158D02*
X141930752Y-60183183D01*
X141930752Y-60183183D02*
X141953275Y-60103050D01*
X141953275Y-60103050D02*
X141977827Y-60023789D01*
X141977827Y-60023789D02*
X142003568Y-59947720D01*
X142003568Y-59947720D02*
X142032029Y-59870261D01*
X142032029Y-59870261D02*
X142061280Y-59796557D01*
X142061280Y-59796557D02*
X142091818Y-59724875D01*
X142091818Y-59724875D02*
X142123793Y-59654650D01*
X142123793Y-59654650D02*
X142159566Y-59581052D01*
X142159566Y-59581052D02*
X142193775Y-59514885D01*
X142193775Y-59514885D02*
X142229478Y-59449632D01*
X142229478Y-59449632D02*
X142267875Y-59383259D01*
X142267875Y-59383259D02*
X142306546Y-59319939D01*
X142306546Y-59319939D02*
X142346642Y-59257603D01*
X142346642Y-59257603D02*
X142388142Y-59196276D01*
X142388142Y-59196276D02*
X142431021Y-59135977D01*
X142431021Y-59135977D02*
X142475257Y-59076731D01*
X142475257Y-59076731D02*
X142519712Y-59019955D01*
X142519712Y-59019955D02*
X142569249Y-58959666D01*
X142569249Y-58959666D02*
X142617465Y-58903751D01*
X142617465Y-58903751D02*
X142665333Y-58850730D01*
X142665333Y-58850730D02*
X142719333Y-58793669D01*
X142719333Y-58793669D02*
X142776413Y-58736289D01*
X142776413Y-58736289D02*
X142829711Y-58685245D01*
X142829711Y-58685245D02*
X142881961Y-58637422D01*
X142881961Y-58637422D02*
X142936179Y-58589987D01*
X142936179Y-58589987D02*
X142991010Y-58544148D01*
X142991010Y-58544148D02*
X143048758Y-58498063D01*
X143048758Y-58498063D02*
X143105675Y-58454729D01*
X143105675Y-58454729D02*
X143170895Y-58407488D01*
X143170895Y-58407488D02*
X143236352Y-58362539D01*
X143236352Y-58362539D02*
X143296914Y-58323041D01*
X143296914Y-58323041D02*
X143359447Y-58284273D01*
X143359447Y-58284273D02*
X143431779Y-58241876D01*
X143431779Y-58241876D02*
X143498967Y-58204751D01*
X143498967Y-58204751D02*
X143564988Y-58170299D01*
X143564988Y-58170299D02*
X143638430Y-58134257D01*
X143638430Y-58134257D02*
X143708511Y-58102022D01*
X143708511Y-58102022D02*
X143781730Y-58070524D01*
X143781730Y-58070524D02*
X143853619Y-58041696D01*
X143853619Y-58041696D02*
X143928079Y-58013967D01*
X143928079Y-58013967D02*
X144004563Y-57987682D01*
X144004563Y-57987682D02*
X144081329Y-57963479D01*
X144081329Y-57963479D02*
X144159510Y-57941021D01*
X144159510Y-57941021D02*
X144239697Y-57920233D01*
X144239697Y-57920233D02*
X144321294Y-57901366D01*
X144321294Y-57901366D02*
X144408546Y-57883689D01*
X144408546Y-57883689D02*
X144494189Y-57868809D01*
X144494189Y-57868809D02*
X144583079Y-57855906D01*
X144583079Y-57855906D02*
X144672751Y-57845478D01*
X144672751Y-57845478D02*
X144775773Y-57836655D01*
X144775773Y-57836655D02*
X144872076Y-57831434D01*
X144872076Y-57831434D02*
X144971679Y-57829070D01*
X144971679Y-57829070D02*
X144998627Y-57828961D01*
X144998627Y-64178961D02*
X144898180Y-64177399D01*
X144898180Y-64177399D02*
X144801042Y-64172909D01*
X144801042Y-64172909D02*
X144707822Y-64165818D01*
X144707822Y-64165818D02*
X144615372Y-64156062D01*
X144615372Y-64156062D02*
X144526197Y-64144047D01*
X144526197Y-64144047D02*
X144437822Y-64129585D01*
X144437822Y-64129585D02*
X144350282Y-64112706D01*
X144350282Y-64112706D02*
X144263613Y-64093446D01*
X144263613Y-64093446D02*
X144183181Y-64073260D01*
X144183181Y-64073260D02*
X144100064Y-64050013D01*
X144100064Y-64050013D02*
X144023095Y-64026270D01*
X144023095Y-64026270D02*
X143944682Y-63999838D01*
X143944682Y-63999838D02*
X143869461Y-63972296D01*
X143869461Y-63972296D02*
X143796821Y-63943613D01*
X143796821Y-63943613D02*
X143723963Y-63912721D01*
X143723963Y-63912721D02*
X143654227Y-63881105D01*
X143654227Y-63881105D02*
X143586480Y-63848406D01*
X143586480Y-63848406D02*
X143518042Y-63813318D01*
X143518042Y-63813318D02*
X143448483Y-63775463D01*
X143448483Y-63775463D02*
X143384109Y-63738383D01*
X143384109Y-63738383D02*
X143321203Y-63700166D01*
X143321203Y-63700166D02*
X143258264Y-63659893D01*
X143258264Y-63659893D02*
X143194873Y-63617170D01*
X143194873Y-63617170D02*
X143134508Y-63574377D01*
X143134508Y-63574377D02*
X143075195Y-63530227D01*
X143075195Y-63530227D02*
X143015093Y-63483250D01*
X143015093Y-63483250D02*
X142957986Y-63436407D01*
X142957986Y-63436407D02*
X142903339Y-63389452D01*
X142903339Y-63389452D02*
X142850659Y-63342097D01*
X142850659Y-63342097D02*
X142798619Y-63293180D01*
X142798619Y-63293180D02*
X142748112Y-63243539D01*
X142748112Y-63243539D02*
X142696663Y-63190632D01*
X142696663Y-63190632D02*
X142646046Y-63136105D01*
X142646046Y-63136105D02*
X142595533Y-63079051D01*
X142595533Y-63079051D02*
X142549414Y-63024466D01*
X142549414Y-63024466D02*
X142504508Y-62968836D01*
X142504508Y-62968836D02*
X142460842Y-62912187D01*
X142460842Y-62912187D02*
X142417040Y-62852599D01*
X142417040Y-62852599D02*
X142374603Y-62791966D01*
X142374603Y-62791966D02*
X142332577Y-62728805D01*
X142332577Y-62728805D02*
X142292660Y-62665617D01*
X142292660Y-62665617D02*
X142252088Y-62597811D01*
X142252088Y-62597811D02*
X142214325Y-62531030D01*
X142214325Y-62531030D02*
X142179245Y-62465391D01*
X142179245Y-62465391D02*
X142145670Y-62398847D01*
X142145670Y-62398847D02*
X142111609Y-62327035D01*
X142111609Y-62327035D02*
X142080257Y-62256473D01*
X142080257Y-62256473D02*
X142050806Y-62185578D01*
X142050806Y-62185578D02*
X142021761Y-62110421D01*
X142021761Y-62110421D02*
X141995372Y-62036656D01*
X141995372Y-62036656D02*
X141970397Y-61960902D01*
X141970397Y-61960902D02*
X141947114Y-61883733D01*
X141947114Y-61883733D02*
X141925135Y-61803376D01*
X141925135Y-61803376D02*
X141905361Y-61722784D01*
X141905361Y-61722784D02*
X141887285Y-61639587D01*
X141887285Y-61639587D02*
X141870863Y-61552533D01*
X141870863Y-61552533D02*
X141857006Y-61465896D01*
X141857006Y-61465896D02*
X141845284Y-61376627D01*
X141845284Y-61376627D02*
X141835887Y-61284715D01*
X141835887Y-61284715D02*
X141829086Y-61191415D01*
X141829086Y-61191415D02*
X141824921Y-61094837D01*
X141824921Y-61094837D02*
X141823648Y-61003961D01*
X148173648Y-144445294D02*
X148172067Y-144546372D01*
X148172067Y-144546372D02*
X148167634Y-144642237D01*
X148167634Y-144642237D02*
X148160334Y-144737971D01*
X148160334Y-144737971D02*
X148150749Y-144828540D01*
X148150749Y-144828540D02*
X148138825Y-144917099D01*
X148138825Y-144917099D02*
X148124596Y-145004259D01*
X148124596Y-145004259D02*
X148107894Y-145091212D01*
X148107894Y-145091212D02*
X148088840Y-145177304D01*
X148088840Y-145177304D02*
X148068420Y-145258951D01*
X148068420Y-145258951D02*
X148046592Y-145337398D01*
X148046592Y-145337398D02*
X148023009Y-145414434D01*
X148023009Y-145414434D02*
X147997736Y-145490055D01*
X147997736Y-145490055D02*
X147970418Y-145565384D01*
X147970418Y-145565384D02*
X147942178Y-145637571D01*
X147942178Y-145637571D02*
X147911274Y-145711105D01*
X147911274Y-145711105D02*
X147879610Y-145781498D01*
X147879610Y-145781498D02*
X147846297Y-145850972D01*
X147846297Y-145850972D02*
X147810523Y-145921095D01*
X147810523Y-145921095D02*
X147774829Y-145987056D01*
X147774829Y-145987056D02*
X147736720Y-146053618D01*
X147736720Y-146053618D02*
X147698328Y-146117127D01*
X147698328Y-146117127D02*
X147658833Y-146179154D01*
X147658833Y-146179154D02*
X147618629Y-146239212D01*
X147618629Y-146239212D02*
X147576059Y-146299745D01*
X147576059Y-146299745D02*
X147533564Y-146357328D01*
X147533564Y-146357328D02*
X147485369Y-146419512D01*
X147485369Y-146419512D02*
X147438735Y-146476798D01*
X147438735Y-146476798D02*
X147389239Y-146534761D01*
X147389239Y-146534761D02*
X147340001Y-146589755D01*
X147340001Y-146589755D02*
X147291162Y-146641867D01*
X147291162Y-146641867D02*
X147237802Y-146696233D01*
X147237802Y-146696233D02*
X147184885Y-146747670D01*
X147184885Y-146747670D02*
X147130789Y-146797878D01*
X147130789Y-146797878D02*
X147070126Y-146851502D01*
X147070126Y-146851502D02*
X147011790Y-146900570D01*
X147011790Y-146900570D02*
X146956023Y-146945309D01*
X146956023Y-146945309D02*
X146897808Y-146989883D01*
X146897808Y-146989883D02*
X146839517Y-147032438D01*
X146839517Y-147032438D02*
X146774795Y-147077378D01*
X146774795Y-147077378D02*
X146712943Y-147118153D01*
X146712943Y-147118153D02*
X146648052Y-147158764D01*
X146648052Y-147158764D02*
X146584717Y-147196344D01*
X146584717Y-147196344D02*
X146519399Y-147233063D01*
X146519399Y-147233063D02*
X146451535Y-147269098D01*
X146451535Y-147269098D02*
X146382709Y-147303531D01*
X146382709Y-147303531D02*
X146301959Y-147341307D01*
X146301959Y-147341307D02*
X146231144Y-147372192D01*
X146231144Y-147372192D02*
X146160003Y-147401169D01*
X146160003Y-147401169D02*
X146086879Y-147428880D01*
X146086879Y-147428880D02*
X146008868Y-147456187D01*
X146008868Y-147456187D02*
X145932865Y-147480611D01*
X145932865Y-147480611D02*
X145854862Y-147503493D01*
X145854862Y-147503493D02*
X145774256Y-147524869D01*
X145774256Y-147524869D02*
X145691018Y-147544569D01*
X145691018Y-147544569D02*
X145608170Y-147561835D01*
X145608170Y-147561835D02*
X145522705Y-147577240D01*
X145522705Y-147577240D02*
X145431516Y-147591025D01*
X145431516Y-147591025D02*
X145339497Y-147602206D01*
X145339497Y-147602206D02*
X145246689Y-147610743D01*
X145246689Y-147610743D02*
X145150588Y-147616717D01*
X145150588Y-147616717D02*
X145051819Y-147619853D01*
X145051819Y-147619853D02*
X144998627Y-147620294D01*
X144998627Y-141270294D02*
X145097156Y-141271791D01*
X145097156Y-141271791D02*
X145193675Y-141276183D01*
X145193675Y-141276183D02*
X145286916Y-141283202D01*
X145286916Y-141283202D02*
X145379388Y-141292887D01*
X145379388Y-141292887D02*
X145471054Y-141305200D01*
X145471054Y-141305200D02*
X145559430Y-141319664D01*
X145559430Y-141319664D02*
X145646971Y-141336542D01*
X145646971Y-141336542D02*
X145728848Y-141354668D01*
X145728848Y-141354668D02*
X145809327Y-141374730D01*
X145809327Y-141374730D02*
X145887806Y-141396483D01*
X145887806Y-141396483D02*
X145965456Y-141420181D01*
X145965456Y-141420181D02*
X146045694Y-141446997D01*
X146045694Y-141446997D02*
X146120997Y-141474371D01*
X146120997Y-141474371D02*
X146193159Y-141502666D01*
X146193159Y-141502666D02*
X146263895Y-141532417D01*
X146263895Y-141532417D02*
X146333205Y-141563560D01*
X146333205Y-141563560D02*
X146404318Y-141597634D01*
X146404318Y-141597634D02*
X146470719Y-141631454D01*
X146470719Y-141631454D02*
X146536211Y-141666774D01*
X146536211Y-141666774D02*
X146600768Y-141703570D01*
X146600768Y-141703570D02*
X146666407Y-141743080D01*
X146666407Y-141743080D02*
X146733004Y-141785425D01*
X146733004Y-141785425D02*
X146794530Y-141826655D01*
X146794530Y-141826655D02*
X146855029Y-141869268D01*
X146855029Y-141869268D02*
X146912580Y-141911807D01*
X146912580Y-141911807D02*
X146969126Y-141955597D01*
X146969126Y-141955597D02*
X147026486Y-142002149D01*
X147026486Y-142002149D02*
X147080932Y-142048429D01*
X147080932Y-142048429D02*
X147133874Y-142095504D01*
X147133874Y-142095504D02*
X147193499Y-142151123D01*
X147193499Y-142151123D02*
X147244544Y-142201076D01*
X147244544Y-142201076D02*
X147301022Y-142259046D01*
X147301022Y-142259046D02*
X147351230Y-142313143D01*
X147351230Y-142313143D02*
X147401352Y-142369746D01*
X147401352Y-142369746D02*
X147447865Y-142424784D01*
X147447865Y-142424784D02*
X147492768Y-142480411D01*
X147492768Y-142480411D02*
X147536795Y-142537536D01*
X147536795Y-142537536D02*
X147579890Y-142596161D01*
X147579890Y-142596161D02*
X147622675Y-142657281D01*
X147622675Y-142657281D02*
X147663724Y-142718936D01*
X147663724Y-142718936D02*
X147703363Y-142781591D01*
X147703363Y-142781591D02*
X147741568Y-142845223D01*
X147741568Y-142845223D02*
X147779482Y-142911913D01*
X147779482Y-142911913D02*
X147816926Y-142981723D01*
X147816926Y-142981723D02*
X147850550Y-143048241D01*
X147850550Y-143048241D02*
X147883405Y-143117281D01*
X147883405Y-143117281D02*
X147917981Y-143194995D01*
X147917981Y-143194995D02*
X147947604Y-143266477D01*
X147947604Y-143266477D02*
X147976156Y-143340530D01*
X147976156Y-143340530D02*
X148003292Y-143416613D01*
X148003292Y-143416613D02*
X148030539Y-143499983D01*
X148030539Y-143499983D02*
X148053531Y-143577276D01*
X148053531Y-143577276D02*
X148075209Y-143657760D01*
X148075209Y-143657760D02*
X148094815Y-143739070D01*
X148094815Y-143739070D02*
X148112804Y-143823606D01*
X148112804Y-143823606D02*
X148128532Y-143908953D01*
X148128532Y-143908953D02*
X148142319Y-143997556D01*
X148142319Y-143997556D02*
X148153925Y-144089441D01*
X148153925Y-144089441D02*
X148162895Y-144182125D01*
X148162895Y-144182125D02*
X148169319Y-144278101D01*
X148169319Y-144278101D02*
X148172892Y-144375476D01*
X148172892Y-144375476D02*
X148173648Y-144445294D01*
D11*
X141695487Y-90830974D02*
G75*
G03X141695487Y-90830974I-1500000J0D01*
G01*
X137469624Y-93628387D02*
G75*
G03X137469624Y-93628387I-1500000J0D01*
G01*
X134639191Y-97831390D02*
G75*
G03X134639191Y-97831390I-1500000J0D01*
G01*
X133628350Y-102798773D02*
G75*
G03X133628350Y-102798773I-1500000J0D01*
G01*
X134598551Y-107771236D02*
G75*
G03X134598551Y-107771236I-1500000J0D01*
G01*
X137395964Y-111989479D02*
G75*
G03X137395964Y-111989479I-1500000J0D01*
G01*
X141596427Y-114827532D02*
G75*
G03X141596427Y-114827532I-1500000J0D01*
G01*
X146563810Y-115838373D02*
G75*
G03X146563810Y-115838373I-1500000J0D01*
G01*
X151538813Y-114868172D02*
G75*
G03X151538813Y-114868172I-1500000J0D01*
G01*
X155757056Y-112073299D02*
G75*
G03X155757056Y-112073299I-1500000J0D01*
G01*
X158595109Y-107865216D02*
G75*
G03X158595109Y-107865216I-1500000J0D01*
G01*
X159603410Y-102900373D02*
G75*
G03X159603410Y-102900373I-1500000J0D01*
G01*
X158633209Y-97930450D02*
G75*
G03X158633209Y-97930450I-1500000J0D01*
G01*
X155835796Y-93736207D02*
G75*
G03X155835796Y-93736207I-1500000J0D01*
G01*
X151635333Y-90879234D02*
G75*
G03X151635333Y-90879234I-1500000J0D01*
G01*
X146667950Y-89863313D02*
G75*
G03X146667950Y-89863313I-1500000J0D01*
G01*
X148631587Y-74721014D02*
G75*
G03X148631587Y-74721014I-3500000J0D01*
G01*
X158839587Y-127368843D02*
G75*
G03X158839587Y-127368843I-3500000J0D01*
G01*
X138551587Y-127368843D02*
G75*
G03X138551587Y-127368843I-3500000J0D01*
G01*
X148695587Y-102921343D02*
G75*
G03X148695587Y-102921343I-3500000J0D01*
G01*
M02*
