G04 #@! TF.GenerationSoftware,KiCad,Pcbnew,(5.1.5-0-10_14)*
G04 #@! TF.CreationDate,2020-01-23T10:56:36-08:00*
G04 #@! TF.ProjectId,FaceplateBoardNoParts,46616365-706c-4617-9465-426f6172644e,rev?*
G04 #@! TF.SameCoordinates,Original*
G04 #@! TF.FileFunction,Legend,Top*
G04 #@! TF.FilePolarity,Positive*
%FSLAX46Y46*%
G04 Gerber Fmt 4.6, Leading zero omitted, Abs format (unit mm)*
G04 Created by KiCad (PCBNEW (5.1.5-0-10_14)) date 2020-01-23 10:56:36*
%MOMM*%
%LPD*%
G04 APERTURE LIST*
%ADD10C,0.400000*%
G04 APERTURE END LIST*
D10*
X151264048Y-121282297D02*
X151549763Y-121377535D01*
X152025953Y-121377535D01*
X152216429Y-121282297D01*
X152311667Y-121187059D01*
X152406906Y-120996583D01*
X152406906Y-120806107D01*
X152311667Y-120615631D01*
X152216429Y-120520393D01*
X152025953Y-120425154D01*
X151645001Y-120329916D01*
X151454525Y-120234678D01*
X151359287Y-120139440D01*
X151264048Y-119948964D01*
X151264048Y-119758488D01*
X151359287Y-119568012D01*
X151454525Y-119472774D01*
X151645001Y-119377535D01*
X152121191Y-119377535D01*
X152406906Y-119472774D01*
X153264048Y-120044202D02*
X153264048Y-122044202D01*
X153264048Y-120139440D02*
X153454525Y-120044202D01*
X153835477Y-120044202D01*
X154025953Y-120139440D01*
X154121191Y-120234678D01*
X154216429Y-120425154D01*
X154216429Y-120996583D01*
X154121191Y-121187059D01*
X154025953Y-121282297D01*
X153835477Y-121377535D01*
X153454525Y-121377535D01*
X153264048Y-121282297D01*
X155835477Y-121282297D02*
X155645001Y-121377535D01*
X155264048Y-121377535D01*
X155073572Y-121282297D01*
X154978334Y-121091821D01*
X154978334Y-120329916D01*
X155073572Y-120139440D01*
X155264048Y-120044202D01*
X155645001Y-120044202D01*
X155835477Y-120139440D01*
X155930715Y-120329916D01*
X155930715Y-120520393D01*
X154978334Y-120710869D01*
X157549763Y-121282297D02*
X157359287Y-121377535D01*
X156978334Y-121377535D01*
X156787858Y-121282297D01*
X156692620Y-121091821D01*
X156692620Y-120329916D01*
X156787858Y-120139440D01*
X156978334Y-120044202D01*
X157359287Y-120044202D01*
X157549763Y-120139440D01*
X157645001Y-120329916D01*
X157645001Y-120520393D01*
X156692620Y-120710869D01*
X159359287Y-121377535D02*
X159359287Y-119377535D01*
X159359287Y-121282297D02*
X159168810Y-121377535D01*
X158787858Y-121377535D01*
X158597382Y-121282297D01*
X158502144Y-121187059D01*
X158406906Y-120996583D01*
X158406906Y-120425154D01*
X158502144Y-120234678D01*
X158597382Y-120139440D01*
X158787858Y-120044202D01*
X159168810Y-120044202D01*
X159359287Y-120139440D01*
X132782153Y-121187059D02*
X132686915Y-121282297D01*
X132401201Y-121377535D01*
X132210725Y-121377535D01*
X131925010Y-121282297D01*
X131734534Y-121091821D01*
X131639296Y-120901345D01*
X131544058Y-120520393D01*
X131544058Y-120234678D01*
X131639296Y-119853726D01*
X131734534Y-119663250D01*
X131925010Y-119472774D01*
X132210725Y-119377535D01*
X132401201Y-119377535D01*
X132686915Y-119472774D01*
X132782153Y-119568012D01*
X133925010Y-121377535D02*
X133734534Y-121282297D01*
X133639296Y-121187059D01*
X133544058Y-120996583D01*
X133544058Y-120425154D01*
X133639296Y-120234678D01*
X133734534Y-120139440D01*
X133925010Y-120044202D01*
X134210725Y-120044202D01*
X134401201Y-120139440D01*
X134496439Y-120234678D01*
X134591677Y-120425154D01*
X134591677Y-120996583D01*
X134496439Y-121187059D01*
X134401201Y-121282297D01*
X134210725Y-121377535D01*
X133925010Y-121377535D01*
X135734534Y-121377535D02*
X135544058Y-121282297D01*
X135448820Y-121091821D01*
X135448820Y-119377535D01*
X136782153Y-121377535D02*
X136591677Y-121282297D01*
X136496439Y-121187059D01*
X136401201Y-120996583D01*
X136401201Y-120425154D01*
X136496439Y-120234678D01*
X136591677Y-120139440D01*
X136782153Y-120044202D01*
X137067867Y-120044202D01*
X137258344Y-120139440D01*
X137353582Y-120234678D01*
X137448820Y-120425154D01*
X137448820Y-120996583D01*
X137353582Y-121187059D01*
X137258344Y-121282297D01*
X137067867Y-121377535D01*
X136782153Y-121377535D01*
X138305963Y-121377535D02*
X138305963Y-120044202D01*
X138305963Y-120425154D02*
X138401201Y-120234678D01*
X138496439Y-120139440D01*
X138686915Y-120044202D01*
X138877391Y-120044202D01*
X141764353Y-95190135D02*
X141764353Y-93190135D01*
X142431020Y-94618707D01*
X143097687Y-93190135D01*
X143097687Y-95190135D01*
X144335782Y-95190135D02*
X144145306Y-95094897D01*
X144050067Y-94999659D01*
X143954829Y-94809183D01*
X143954829Y-94237754D01*
X144050067Y-94047278D01*
X144145306Y-93952040D01*
X144335782Y-93856802D01*
X144621496Y-93856802D01*
X144811972Y-93952040D01*
X144907210Y-94047278D01*
X145002448Y-94237754D01*
X145002448Y-94809183D01*
X144907210Y-94999659D01*
X144811972Y-95094897D01*
X144621496Y-95190135D01*
X144335782Y-95190135D01*
X146716734Y-95190135D02*
X146716734Y-93190135D01*
X146716734Y-95094897D02*
X146526258Y-95190135D01*
X146145306Y-95190135D01*
X145954829Y-95094897D01*
X145859591Y-94999659D01*
X145764353Y-94809183D01*
X145764353Y-94237754D01*
X145859591Y-94047278D01*
X145954829Y-93952040D01*
X146145306Y-93856802D01*
X146526258Y-93856802D01*
X146716734Y-93952040D01*
X148431020Y-95094897D02*
X148240544Y-95190135D01*
X147859591Y-95190135D01*
X147669115Y-95094897D01*
X147573877Y-94904421D01*
X147573877Y-94142516D01*
X147669115Y-93952040D01*
X147859591Y-93856802D01*
X148240544Y-93856802D01*
X148431020Y-93952040D01*
X148526258Y-94142516D01*
X148526258Y-94332993D01*
X147573877Y-94523469D01*
X138180201Y-80959916D02*
X138465915Y-81055154D01*
X138561153Y-81150393D01*
X138656391Y-81340869D01*
X138656391Y-81626583D01*
X138561153Y-81817059D01*
X138465915Y-81912297D01*
X138275439Y-82007535D01*
X137513534Y-82007535D01*
X137513534Y-80007535D01*
X138180201Y-80007535D01*
X138370677Y-80102774D01*
X138465915Y-80198012D01*
X138561153Y-80388488D01*
X138561153Y-80578964D01*
X138465915Y-80769440D01*
X138370677Y-80864678D01*
X138180201Y-80959916D01*
X137513534Y-80959916D01*
X139513534Y-82007535D02*
X139513534Y-80674202D01*
X139513534Y-81055154D02*
X139608772Y-80864678D01*
X139704010Y-80769440D01*
X139894487Y-80674202D01*
X140084963Y-80674202D01*
X140751629Y-82007535D02*
X140751629Y-80674202D01*
X140751629Y-80007535D02*
X140656391Y-80102774D01*
X140751629Y-80198012D01*
X140846867Y-80102774D01*
X140751629Y-80007535D01*
X140751629Y-80198012D01*
X142561153Y-80674202D02*
X142561153Y-82293250D01*
X142465915Y-82483726D01*
X142370677Y-82578964D01*
X142180201Y-82674202D01*
X141894487Y-82674202D01*
X141704010Y-82578964D01*
X142561153Y-81912297D02*
X142370677Y-82007535D01*
X141989725Y-82007535D01*
X141799248Y-81912297D01*
X141704010Y-81817059D01*
X141608772Y-81626583D01*
X141608772Y-81055154D01*
X141704010Y-80864678D01*
X141799248Y-80769440D01*
X141989725Y-80674202D01*
X142370677Y-80674202D01*
X142561153Y-80769440D01*
X143513534Y-82007535D02*
X143513534Y-80007535D01*
X144370677Y-82007535D02*
X144370677Y-80959916D01*
X144275439Y-80769440D01*
X144084963Y-80674202D01*
X143799248Y-80674202D01*
X143608772Y-80769440D01*
X143513534Y-80864678D01*
X145037344Y-80674202D02*
X145799248Y-80674202D01*
X145323058Y-80007535D02*
X145323058Y-81721821D01*
X145418296Y-81912297D01*
X145608772Y-82007535D01*
X145799248Y-82007535D01*
X146465915Y-80674202D02*
X146465915Y-82007535D01*
X146465915Y-80864678D02*
X146561153Y-80769440D01*
X146751629Y-80674202D01*
X147037344Y-80674202D01*
X147227820Y-80769440D01*
X147323058Y-80959916D01*
X147323058Y-82007535D01*
X149037344Y-81912297D02*
X148846867Y-82007535D01*
X148465915Y-82007535D01*
X148275439Y-81912297D01*
X148180201Y-81721821D01*
X148180201Y-80959916D01*
X148275439Y-80769440D01*
X148465915Y-80674202D01*
X148846867Y-80674202D01*
X149037344Y-80769440D01*
X149132582Y-80959916D01*
X149132582Y-81150393D01*
X148180201Y-81340869D01*
X149894487Y-81912297D02*
X150084963Y-82007535D01*
X150465915Y-82007535D01*
X150656391Y-81912297D01*
X150751629Y-81721821D01*
X150751629Y-81626583D01*
X150656391Y-81436107D01*
X150465915Y-81340869D01*
X150180201Y-81340869D01*
X149989725Y-81245631D01*
X149894487Y-81055154D01*
X149894487Y-80959916D01*
X149989725Y-80769440D01*
X150180201Y-80674202D01*
X150465915Y-80674202D01*
X150656391Y-80769440D01*
X151513534Y-81912297D02*
X151704010Y-82007535D01*
X152084963Y-82007535D01*
X152275439Y-81912297D01*
X152370677Y-81721821D01*
X152370677Y-81626583D01*
X152275439Y-81436107D01*
X152084963Y-81340869D01*
X151799248Y-81340869D01*
X151608772Y-81245631D01*
X151513534Y-81055154D01*
X151513534Y-80959916D01*
X151608772Y-80769440D01*
X151799248Y-80674202D01*
X152084963Y-80674202D01*
X152275439Y-80769440D01*
M02*
